<?xml version="1.0" encoding="utf-8"?>
<!-- Generator: Adobe Illustrator 22.1.0, SVG Export Plug-In . SVG Version: 6.00 Build 0)  -->
<svg version="1.1" id="Layer_1" xmlns="http://www.w3.org/2000/svg" xmlns:xlink="http://www.w3.org/1999/xlink" x="0px" y="0px"
	 viewBox="0 0 720 612" style="enable-background:new 0 0 720 612;" xml:space="preserve">
<style type="text/css">
	.st0{fill:#F0F0F0;}
	.st1{fill:none;stroke:#005AC8;stroke-miterlimit:10;}
	.st2{display:none;opacity:0.2;fill:#005AC8;}
	.st3{display:none;opacity:0.2;fill:#AA0A3C;}
	.st4{display:none;opacity:0.2;fill:#0AB45A;}
	.st5{fill:none;stroke:#0AB45A;stroke-miterlimit:10;}
	.st6{fill:none;stroke:#AA0A3C;stroke-miterlimit:10;}
	.st7{fill:#AA0A3C;stroke:#5C0015;stroke-width:0.2985;stroke-miterlimit:10;}
	.st8{fill:#005AC8;stroke:#153267;stroke-width:0.2985;stroke-miterlimit:10;}
	.st9{fill:#0AB45A;stroke:#006B33;stroke-width:0.2985;stroke-miterlimit:10;}
	.st10{fill:none;stroke:#000000;stroke-miterlimit:10;}
	.st11{fill:none;stroke:#000000;stroke-miterlimit:10;stroke-dasharray:4;}
	.st12{fill:none;stroke:#000000;stroke-width:0.9393;stroke-miterlimit:10;stroke-dasharray:3.9351;}
	.st13{fill:none;stroke:#000000;stroke-miterlimit:10;stroke-dasharray:6,6;}
	.st14{fill:#AA0A3C;stroke:#5C0015;stroke-width:0.2387;stroke-miterlimit:10;}
	.st15{fill:#590000;stroke:#330000;stroke-width:0.2387;stroke-miterlimit:10;}
	.st16{fill:#005AC8;stroke:#153267;stroke-width:0.2387;stroke-miterlimit:10;}
	.st17{fill:#03003E;stroke:#00001E;stroke-width:0.2387;stroke-miterlimit:10;}
	.st18{fill:#0AB45A;stroke:#006B33;stroke-width:0.2387;stroke-miterlimit:10;}
	.st19{fill:#002D02;stroke:#006B33;stroke-width:0.2387;stroke-miterlimit:10;}
	.st20{fill:none;stroke:#000000;stroke-miterlimit:10;stroke-dasharray:6;}
	.st21{fill:none;stroke:#000000;stroke-width:0.9105;stroke-miterlimit:10;stroke-dasharray:3.6769;}
	.st22{fill:#F2F2F2;stroke:#333333;stroke-width:1.25;stroke-miterlimit:10;}
	.st23{fill:#F2F2F2;stroke:#999999;stroke-width:0.5617;stroke-miterlimit:10;}
</style>
<g>
	<rect x="125.6" class="st0" width="157.9" height="612"/>
	<rect x="436.5" class="st0" width="157.9" height="612"/>
</g>
<rect x="62.5" y="298.8" class="st1" width="297.2" height="138.1"/>
<rect x="62.5" y="298.8" class="st2" width="297.2" height="138.1"/>
<rect x="62.5" y="167.1" class="st3" width="140.9" height="104.5"/>
<rect x="62.5" y="293.7" class="st3" width="141.8" height="148.2"/>
<rect x="62.5" y="485.1" class="st4" width="455" height="76.3"/>
<rect x="62.5" y="485.1" class="st5" width="455" height="76.3"/>
<rect x="62.5" y="473.7" class="st2" width="297.2" height="100.4"/>
<rect x="62.5" y="473.8" class="st1" width="297.2" height="100.4"/>
<rect x="62.5" y="463" class="st3" width="141.8" height="121.8"/>
<rect x="62.5" y="463" class="st6" width="141.8" height="121.8"/>
<g>
	<g>
		<path d="M183.6,48.9h6.1v1.7h-4v1.8h3.4v1.7h-3.4v2.1h4.1v1.7h-6.2V48.9z"/>
		<path d="M191.7,51.1h1.7l0.2,0.9h0.1c0.6-0.6,1.4-1.1,2.4-1.1c1.6,0,2.3,1.1,2.3,2.8v4.3h-2.1v-4c0-0.9-0.3-1.3-1-1.3
			c-0.6,0-0.9,0.3-1.4,0.7v4.6h-2.1V51.1z"/>
		<path d="M201.5,55.2v-2.5h-1.8v-1.5l1.8-0.1l0.3-2.1h1.7v2.1h2.9v1.6h-2.9v2.4c0,1.1,0.4,1.5,1.5,1.5c0.5,0,1-0.1,1.4-0.3l0.4,1.5
			c-0.6,0.2-1.3,0.4-2.3,0.4C202.3,58.2,201.5,57,201.5,55.2z"/>
		<path d="M209.1,51.1h1.7l0.2,1.5h0c0.7-1.1,1.7-1.7,2.8-1.7c0.6,0,0.9,0.1,1.3,0.3l-0.4,1.7c-0.4-0.1-0.7-0.2-1.2-0.2
			c-0.9,0-1.8,0.4-2.3,1.7v3.6h-2.1V51.1z"/>
		<path d="M216.8,60.6l0.4-1.6c0.2,0.1,0.4,0.1,0.5,0.1c0.8,0,1.2-0.4,1.5-0.9l0.1-0.4l-3-6.8h2l1.2,3c0.3,0.7,0.5,1.4,0.7,2.1h0.1
			c0.2-0.7,0.4-1.4,0.6-2.1l1-3h1.9l-2.7,7c-0.7,1.8-1.5,2.6-3.2,2.6C217.5,60.8,217.1,60.7,216.8,60.6z"/>
	</g>
	<g>
		<g>
			<path d="M337.8,48.9h3.2c1.9,0,3.5,0.7,3.5,2.8c0,1.3-0.7,2.2-1.6,2.6l2.1,3.7h-2.3l-1.8-3.3h-1.1v3.3h-2.1V48.9z M340.9,53.1
				c1.1,0,1.7-0.5,1.7-1.4s-0.6-1.2-1.7-1.2h-1v2.6H340.9z"/>
			<path d="M346,54.6c0-2.3,1.8-3.6,3.6-3.6c2.1,0,3.3,1.4,3.3,3.3c0,0.4-0.1,0.8-0.1,0.9h-4.7c0.2,1,0.9,1.5,2.1,1.5
				c0.6,0,1.2-0.2,1.8-0.5l0.7,1.2c-0.8,0.5-1.8,0.8-2.8,0.8C347.7,58.2,346,56.9,346,54.6z M348.1,53.8h3c-0.1-0.9-0.6-1.3-1.4-1.3
				C348.9,52.5,348.3,53,348.1,53.8z"/>
			<path d="M356.6,55.3v-5.5h-2v-1.6h4.1v7.2c0,0.9,0.5,1.1,1.1,1.1c0.3,0,0.7-0.1,1.1-0.2l0.5,1.5c-0.7,0.2-1.2,0.4-2.1,0.4
				C357.5,58.2,356.6,57.1,356.6,55.3z"/>
			<path d="M362.9,56.1c0-1.6,1.3-2.3,4.6-2.5c-0.1-0.6-0.5-1-1.5-1c-0.7,0-1.3,0.3-2.1,0.6l-0.7-1.3c1-0.5,2.1-0.9,3.2-0.9
				c1.9,0,3.1,1,3.1,3.1v4h-1.7l-0.2-0.8h-0.1c-0.7,0.5-1.6,1-2.5,1C363.8,58.2,362.9,57.3,362.9,56.1z M367.5,56v-1.1
				c-2,0.1-2.6,0.5-2.6,1.1c0,0.4,0.4,0.7,1,0.7C366.5,56.6,367,56.4,367.5,56z"/>
			<path d="M371.4,60.6l0.4-1.6c0.2,0.1,0.4,0.1,0.5,0.1c0.8,0,1.2-0.4,1.5-0.9l0.1-0.4l-3-6.8h2l1.2,3c0.3,0.7,0.5,1.4,0.7,2.1h0.1
				c0.2-0.7,0.4-1.4,0.6-2.1l1-3h1.9l-2.7,7c-0.7,1.8-1.5,2.6-3.2,2.6C372.1,60.8,371.7,60.7,371.4,60.6z"/>
		</g>
	</g>
	<g>
		<path d="M500.9,48.9h6.1v1.7h-4v1.8h3.4v1.7H503v2.1h4.1v1.7h-6.2V48.9z"/>
		<path d="M511,54.5l-2.3-3.3h2.2l0.7,1.1c0.2,0.4,0.5,0.8,0.7,1.2h0.1c0.2-0.4,0.4-0.8,0.6-1.2l0.6-1.1h2.2l-2.3,3.6l2.4,3.4h-2.2
			l-0.8-1.1c-0.3-0.4-0.5-0.8-0.8-1.2h-0.1c-0.2,0.4-0.4,0.8-0.6,1.2l-0.7,1.1h-2.2L511,54.5z"/>
		<path d="M520.3,52.7h-2.8v-1.6h4.8v6.9h-2.1V52.7z M519.9,48.8c0-0.8,0.6-1.3,1.4-1.3c0.8,0,1.4,0.5,1.4,1.3s-0.6,1.2-1.4,1.2
			C520.5,50,519.9,49.5,519.9,48.8z"/>
		<path d="M527.3,55.2v-2.5h-1.8v-1.5l1.8-0.1l0.3-2.1h1.7v2.1h2.9v1.6h-2.9v2.4c0,1.1,0.4,1.5,1.5,1.5c0.5,0,1-0.1,1.4-0.3l0.4,1.5
			c-0.6,0.2-1.3,0.4-2.3,0.4C528.1,58.2,527.3,57,527.3,55.2z"/>
	</g>
	<g>
		<g>
			<path d="M44.8,54.9c-0.3,0-0.4,0-0.5,0.3l-0.5,1.6c-0.1,0.3-0.1,0.4-0.1,0.5c0,0.1,0.2,0.2,0.6,0.2l0.4,0.1
				c0.1,0.1,0.1,0.4,0,0.5c-0.5,0-1,0-1.6,0c-0.5,0-0.8,0-1.4,0c-0.2-0.1-0.1-0.4,0-0.5l0.4,0c0.3,0,0.6-0.2,0.9-0.7
				c0.2-0.6,0.5-1.2,0.9-2.2l1.3-3.4c0.3-0.9,0.6-1.4,0.5-1.8c0.7-0.2,1.2-0.8,1.2-0.8c0.2,0,0.3,0.1,0.3,0.3
				c0.1,0.4,0.3,0.9,0.6,1.9l1.9,5.5c0.3,0.8,0.4,1.2,0.9,1.2l0.5,0.1c0.1,0.1,0.1,0.4,0,0.5c-0.7,0-1.4,0-2.2,0c-0.7,0-1.2,0-1.9,0
				c-0.2-0.1-0.2-0.4,0-0.5l0.4-0.1c0.3-0.1,0.4-0.2,0.4-0.2c0-0.1-0.1-0.4-0.3-1l-0.4-1.2c-0.1-0.2-0.2-0.3-0.7-0.3H44.8z
				 M46.4,54.2c0.3,0,0.4,0,0.3-0.4l-0.4-1.1c-0.2-0.6-0.4-1.4-0.6-1.7c-0.1,0.3-0.4,1.1-0.6,1.7l-0.4,1.1c-0.1,0.4-0.1,0.4,0.3,0.4
				H46.4z"/>
			<path d="M51.3,57.8c-0.2-0.3-0.3-1-0.2-1.6c0.1-0.1,0.4-0.2,0.5,0c0.2,0.6,0.7,1.4,1.4,1.4c0.4,0,0.7-0.3,0.7-0.7
				c0-0.5-0.4-0.8-0.9-1.1c-0.8-0.4-1.4-0.9-1.4-1.8c0-1.2,1-1.8,2.2-1.8c0.7,0,1.3,0.2,1.5,0.3c0.1,0.3,0.2,0.9,0.2,1.4
				c-0.1,0.2-0.4,0.2-0.5,0.1c-0.3-0.8-0.6-1.1-1.1-1.1c-0.4,0-0.7,0.2-0.7,0.6c0,0.3,0.3,0.6,0.9,0.9c1,0.5,1.5,1.1,1.5,2
				c0,1.2-1.1,1.9-2.4,1.9C52.2,58.3,51.7,58.1,51.3,57.8z"/>
			<path d="M56.3,57.8c-0.2-0.3-0.3-1-0.2-1.6c0.1-0.1,0.4-0.2,0.5,0c0.2,0.6,0.7,1.4,1.4,1.4c0.4,0,0.7-0.3,0.7-0.7
				c0-0.5-0.4-0.8-0.9-1.1c-0.8-0.4-1.4-0.9-1.4-1.8c0-1.2,1-1.8,2.2-1.8c0.7,0,1.3,0.2,1.5,0.3c0.1,0.3,0.2,0.9,0.2,1.4
				c-0.1,0.2-0.4,0.2-0.5,0.1c-0.3-0.8-0.6-1.1-1.1-1.1c-0.4,0-0.7,0.2-0.7,0.6c0,0.3,0.3,0.6,0.9,0.9c1,0.5,1.5,1.1,1.5,2
				c0,1.2-1.1,1.9-2.4,1.9C57.2,58.3,56.7,58.1,56.3,57.8z"/>
			<path d="M65.9,56.1c-0.1,1,0.4,1.2,0.6,1.2c0.2,0,0.3,0,0.5-0.2c0.1,0,0.2,0.2,0.2,0.3c-0.2,0.2-0.8,0.8-1.6,0.8
				c-0.5,0-0.8-0.2-1.2-0.5c-0.1-0.1-0.2-0.1-0.2-0.1c-0.1,0-0.2,0.1-0.3,0.2c-0.3,0.2-0.7,0.4-1.2,0.4c-0.8,0-1.6-0.5-1.6-1.5
				c0-0.7,0.4-1.1,1.5-1.5c0.5-0.2,0.9-0.3,1.3-0.4c0.3-0.1,0.3-0.2,0.3-0.3c0-0.2,0-0.3,0-0.5c0-0.5-0.2-1.2-0.8-1.2
				c-0.3,0-0.6,0.2-0.7,0.8c0,0.2-0.1,0.4-0.2,0.4c-0.2,0.2-0.8,0.3-1,0.3c-0.2,0-0.3-0.2-0.3-0.4c0-0.4,0.3-0.8,0.7-1.1
				c0.5-0.4,1.4-0.9,2.4-0.9c1.2,0,1.9,0.6,1.8,2L65.9,56.1z M64.3,55.8c0-0.2,0-0.3-0.1-0.3c-0.6,0.1-1.2,0.3-1.2,1
				c0,0.4,0.3,0.8,0.7,0.8c0.4,0,0.5-0.3,0.5-0.7L64.3,55.8z"/>
			<path d="M70,53.2c-0.2,0-0.2,0-0.2,0.3v2.1c0,0.8,0,1.7,1,1.7c0.2,0,0.4-0.1,0.6-0.2c0.1,0,0.2,0.2,0.2,0.4
				c-0.4,0.4-1.1,0.8-2,0.8c-1.2,0-1.6-0.7-1.6-1.6v-3.1c0-0.3,0-0.3-0.3-0.3h-0.4c-0.2-0.1-0.2-0.3-0.1-0.4
				c0.4-0.2,0.8-0.4,1.2-0.6c0.3-0.2,0.6-0.5,1-1.1c0.1-0.1,0.4,0,0.4,0.1v1.1c0,0.3,0,0.3,0.3,0.3h1.2c0.1,0.1,0.1,0.1,0.1,0.3
				c0,0.2,0,0.4-0.2,0.5H70z"/>
			<path d="M76.7,56.1c-0.1,1,0.4,1.2,0.6,1.2c0.2,0,0.3,0,0.5-0.2c0.1,0,0.2,0.2,0.2,0.3c-0.2,0.2-0.8,0.8-1.6,0.8
				c-0.5,0-0.8-0.2-1.2-0.5c-0.1-0.1-0.2-0.1-0.2-0.1c-0.1,0-0.2,0.1-0.3,0.2c-0.3,0.2-0.7,0.4-1.2,0.4c-0.8,0-1.6-0.5-1.6-1.5
				c0-0.7,0.4-1.1,1.5-1.5c0.5-0.2,0.9-0.3,1.3-0.4c0.3-0.1,0.3-0.2,0.3-0.3c0-0.2,0-0.3,0-0.5c0-0.5-0.2-1.2-0.8-1.2
				c-0.3,0-0.6,0.2-0.7,0.8c0,0.2-0.1,0.4-0.2,0.4c-0.2,0.2-0.8,0.3-1,0.3c-0.2,0-0.3-0.2-0.3-0.4c0-0.4,0.3-0.8,0.7-1.1
				c0.5-0.4,1.4-0.9,2.4-0.9c1.2,0,1.9,0.6,1.8,2L76.7,56.1z M75,55.8c0-0.2,0-0.3-0.1-0.3c-0.6,0.1-1.2,0.3-1.2,1
				c0,0.4,0.3,0.8,0.7,0.8c0.4,0,0.5-0.3,0.5-0.7L75,55.8z"/>
		</g>
	</g>
	<g>
		<path d="M663.9,49.4c-0.3,0.1-0.5,0.2-0.6,0.3c-0.2,0.2-0.4,0.7-0.8,1.6c-0.7,1.6-2.2,5.1-2.9,6.9c-0.1,0.1-0.3,0.1-0.5,0.1
			c-0.2,0-0.3,0-0.4-0.1c-0.2-0.3-0.4-0.8-0.5-1.2l-0.6-1.3c-0.2-0.4-0.4-0.9-0.5-1.1c-0.1,0.2-0.3,0.6-0.5,1l-0.6,1.4
			c-0.2,0.4-0.4,0.9-0.6,1.3c-0.1,0.1-0.3,0.1-0.5,0.1c-0.2,0-0.3,0-0.4-0.1c-0.2-0.6-0.8-1.8-1.3-2.9l-2.3-4.9
			c-0.4-0.8-0.5-0.9-0.9-1l-0.4-0.1c-0.1-0.1-0.1-0.4,0.1-0.5c0.5,0,1.1,0,1.8,0c0.6,0,1.2,0,1.7,0c0.1,0.1,0.2,0.4,0,0.5l-0.3,0
			c-0.3,0-0.3,0.1-0.3,0.2c0,0.1,0.3,0.8,0.7,1.7l1.4,3.1c0.4,0.9,0.6,1.3,0.8,1.6c0.2-0.3,0.5-0.9,0.7-1.4l0.2-0.4
			c0.1-0.2,0.1-0.4,0.1-0.5c0-0.1-0.1-0.4-0.2-0.5l-1.3-3c-0.3-0.7-0.4-0.8-1-0.9l-0.1,0c-0.1-0.1-0.1-0.4,0-0.5c0.6,0,1.1,0,1.8,0
			c0.7,0,1.2,0,1.6,0c0.2,0,0.2,0.4,0.1,0.5l-0.2,0.1c-0.2,0-0.4,0.1-0.4,0.2c0,0.1,0.1,0.3,0.1,0.4l0.4,1c0.1,0.3,0.3,0.7,0.4,0.9
			l0.4-1l0.1-0.3c0.2-0.5,0.4-1,0.4-1c0-0.1-0.1-0.1-0.3-0.2l-0.5-0.1c-0.1-0.1-0.1-0.4,0-0.5c0.4,0,0.9,0,1.4,0c0.5,0,1.1,0,1.4,0
			c0.1,0.1,0.1,0.4,0,0.5l-0.4,0.1c-0.5,0.1-0.6,0.1-1.1,0.9c-0.3,0.6-0.7,1.3-0.9,1.6c-0.1,0.3-0.3,0.7-0.3,0.7c0,0,0,0.1,0.1,0.4
			l0.7,1.4c0.4,0.8,0.6,1.2,0.6,1.4c0.7-1.6,1.4-3.4,2.1-5.1c0.1-0.2,0.4-1,0.4-1.1c0-0.1-0.2-0.2-0.4-0.3l-0.3-0.1
			c-0.1-0.1-0.1-0.4,0-0.5c0.4,0,1,0,1.4,0c0.5,0,0.9,0,1.3,0c0.1,0.1,0.1,0.4,0,0.5L663.9,49.4z"/>
		<path d="M664.8,54.7c-0.3,0-0.4,0-0.4,0.3c0,1.1,0.7,2.1,2,2.1c0.4,0,0.9-0.1,1.3-0.7c0.2,0,0.4,0.1,0.4,0.3
			c-0.6,1.2-1.6,1.6-2.5,1.6c-1.9,0-2.9-1.3-2.9-2.9c0-1.8,1.3-3.1,3-3.1c1.5,0,2.2,0.9,2.2,2c0,0.3-0.1,0.5-0.5,0.5H664.8z
			 M665.7,54.1c0.2,0,0.4,0,0.6-0.1c0.1,0,0.1-0.2,0.1-0.3c0-0.5-0.3-0.8-0.7-0.8c-0.6,0-1.1,0.6-1.1,1c0,0.2,0.2,0.2,0.6,0.2H665.7
			z"/>
		<path d="M670.9,52.3c0,0.2,0.1,0.3,0.2,0.4c0.4-0.2,0.9-0.4,1.5-0.4c1.6,0,2.6,1.2,2.6,2.8c0,2-1.4,3.2-3.4,3.2
			c-0.6,0-1.2-0.1-1.5-0.3c-0.2-0.1-0.3-0.1-0.4-0.1c-0.1,0-0.4,0.1-0.5,0.2c-0.1,0-0.2,0-0.3-0.1c0-0.2,0-0.7,0-1.4v-6.3
			c0-0.6,0-0.7-0.3-0.9l-0.2-0.1c-0.1-0.1-0.1-0.3,0-0.4c0.6-0.1,1.4-0.5,2.2-0.8c0.1,0,0.2,0,0.2,0.1c0,0.6-0.1,1.2-0.1,2V52.3z
			 M670.9,56.1c0,0.4,0.1,0.7,0.3,1.1c0.2,0.3,0.5,0.5,0.8,0.5c0.9,0,1.2-1,1.2-2.1c0-1.4-0.7-2.4-1.7-2.4c-0.3,0-0.4,0.1-0.6,0.2
			c-0.1,0.1-0.1,0.3-0.1,0.6V56.1z"/>
	</g>
</g>
<g>
	<polygon class="st7" points="58,150.8 56,150.8 56,149.7 58,149.7 58,146.9 54,146.9 54,153.6 58,153.6 	"/>
	<rect x="53.1" y="126.8" class="st7" width="1.9" height="26.9"/>
	<path class="st7" d="M52.6,127.1L52.6,127.1c0-0.1,0.1-0.3,0.3-0.3h2.2c0.1,0,0.3,0.1,0.3,0.3l0,0c0,0.1-0.1,0.3-0.3,0.3h-2.2
		C52.8,127.4,52.6,127.3,52.6,127.1z"/>
	<path class="st7" d="M52.6,127.6L52.6,127.6c0-0.1,0.1-0.3,0.3-0.3h2.2c0.1,0,0.3,0.1,0.3,0.3l0,0c0,0.1-0.1,0.3-0.3,0.3h-2.2
		C52.8,127.9,52.6,127.8,52.6,127.6z"/>
	<path class="st7" d="M52.6,146.6L52.6,146.6c0-0.1,0.1-0.3,0.3-0.3h2.2c0.1,0,0.3,0.1,0.3,0.3l0,0c0,0.1-0.1,0.3-0.3,0.3h-2.2
		C52.8,146.9,52.6,146.8,52.6,146.6z"/>
	<path class="st7" d="M59.4,122.7L59.4,122.7c0-2.2-1.8-4-4-4h-0.3c0-0.6-0.5-1.1-1.1-1.1s-1.1,0.5-1.1,1.1h-0.3c-2.2,0-4,1.8-4,4v0
		c0,2.2,1.8,4,4,4h2.7C57.6,126.8,59.4,125,59.4,122.7z M54,118.2c0.3,0,0.5,0.2,0.5,0.5c0,0.3-0.2,0.5-0.5,0.5s-0.5-0.2-0.5-0.5
		C53.5,118.4,53.7,118.2,54,118.2z M52.7,125.4c-1.5,0-2.7-1.2-2.7-2.7v0c0-0.9,0.5-1.7,1.1-2.2c0.7-0.5,1.6-0.4,2.3,0.1l0.6,0.5
		l0.6-0.5c0.7-0.5,1.6-0.6,2.3-0.1c0.7,0.5,1.1,1.3,1.1,2.2v0c0,1.5-1.2,2.7-2.7,2.7H52.7z"/>
</g>
<g>
	<polygon class="st8" points="57.5,273.6 55.5,273.6 55.5,272.6 57.5,272.6 57.5,269.7 53.5,269.7 53.5,276.5 57.5,276.5 	"/>
	<rect x="52.5" y="249.6" class="st8" width="1.9" height="26.9"/>
	<path class="st8" d="M52.1,249.9L52.1,249.9c0-0.1,0.1-0.3,0.3-0.3h2.2c0.1,0,0.3,0.1,0.3,0.3l0,0c0,0.1-0.1,0.3-0.3,0.3h-2.2
		C52.2,250.2,52.1,250.1,52.1,249.9z"/>
	<path class="st8" d="M52.1,250.5L52.1,250.5c0-0.1,0.1-0.3,0.3-0.3h2.2c0.1,0,0.3,0.1,0.3,0.3l0,0c0,0.1-0.1,0.3-0.3,0.3h-2.2
		C52.2,250.7,52.1,250.6,52.1,250.5z"/>
	<path class="st8" d="M52.1,269.5L52.1,269.5c0-0.1,0.1-0.3,0.3-0.3h2.2c0.1,0,0.3,0.1,0.3,0.3l0,0c0,0.1-0.1,0.3-0.3,0.3h-2.2
		C52.2,269.7,52.1,269.6,52.1,269.5z"/>
	<path class="st8" d="M58.9,245.6L58.9,245.6c0-2.2-1.8-4-4-4h-0.3c0-0.6-0.5-1.1-1.1-1.1c-0.6,0-1.1,0.5-1.1,1.1h-0.3
		c-2.2,0-4,1.8-4,4l0,0c0,2.2,1.8,4,4,4h2.7C57,249.6,58.9,247.8,58.9,245.6z M53.5,241c0.3,0,0.5,0.2,0.5,0.5s-0.2,0.5-0.5,0.5
		c-0.3,0-0.5-0.2-0.5-0.5S53.2,241,53.5,241z M52.1,248.3c-1.5,0-2.7-1.2-2.7-2.7l0,0c0-0.9,0.5-1.7,1.1-2.2
		c0.7-0.5,1.6-0.4,2.3,0.1l0.6,0.5l0.6-0.5c0.7-0.5,1.6-0.6,2.3-0.1c0.7,0.5,1.1,1.3,1.1,2.2l0,0c0,1.5-1.2,2.7-2.7,2.7H52.1z"/>
</g>
<g>
	<polygon class="st8" points="356.6,273.6 354.6,273.6 354.6,272.6 356.6,272.6 356.6,269.7 352.6,269.7 352.6,276.5 356.6,276.5 	
		"/>
	<rect x="351.7" y="249.6" class="st8" width="1.9" height="26.9"/>
	<path class="st8" d="M351.2,249.9L351.2,249.9c0-0.1,0.1-0.3,0.3-0.3h2.2c0.1,0,0.3,0.1,0.3,0.3l0,0c0,0.1-0.1,0.3-0.3,0.3h-2.2
		C351.4,250.2,351.2,250.1,351.2,249.9z"/>
	<path class="st8" d="M351.2,250.5L351.2,250.5c0-0.1,0.1-0.3,0.3-0.3h2.2c0.1,0,0.3,0.1,0.3,0.3l0,0c0,0.1-0.1,0.3-0.3,0.3h-2.2
		C351.4,250.7,351.2,250.6,351.2,250.5z"/>
	<path class="st8" d="M351.2,269.5L351.2,269.5c0-0.1,0.1-0.3,0.3-0.3h2.2c0.1,0,0.3,0.1,0.3,0.3l0,0c0,0.1-0.1,0.3-0.3,0.3h-2.2
		C351.4,269.7,351.2,269.6,351.2,269.5z"/>
	<path class="st8" d="M358,245.6L358,245.6c0-2.2-1.8-4-4-4h-0.3c0-0.6-0.5-1.1-1.1-1.1c-0.6,0-1.1,0.5-1.1,1.1h-0.3
		c-2.2,0-4,1.8-4,4l0,0c0,2.2,1.8,4,4,4h2.7C356.2,249.6,358,247.8,358,245.6z M352.6,241c0.3,0,0.5,0.2,0.5,0.5s-0.2,0.5-0.5,0.5
		c-0.3,0-0.5-0.2-0.5-0.5S352.3,241,352.6,241z M351.3,248.3c-1.5,0-2.7-1.2-2.7-2.7l0,0c0-0.9,0.5-1.7,1.1-2.2
		c0.7-0.5,1.6-0.4,2.3,0.1l0.6,0.5l0.6-0.5c0.7-0.5,1.6-0.6,2.3-0.1c0.7,0.5,1.1,1.3,1.1,2.2l0,0c0,1.5-1.2,2.7-2.7,2.7H351.3z"/>
</g>
<g>
	<polygon class="st9" points="57.5,443 55.5,443 55.5,441.9 57.5,441.9 57.5,439.1 53.5,439.1 53.5,445.8 57.5,445.8 	"/>
	<rect x="52.5" y="418.9" class="st9" width="1.9" height="26.9"/>
	<path class="st9" d="M52.1,419.3L52.1,419.3c0-0.1,0.1-0.3,0.3-0.3h2.2c0.1,0,0.3,0.1,0.3,0.3l0,0c0,0.1-0.1,0.3-0.3,0.3h-2.2
		C52.2,419.6,52.1,419.4,52.1,419.3z"/>
	<path class="st9" d="M52.1,419.8L52.1,419.8c0-0.1,0.1-0.3,0.3-0.3h2.2c0.1,0,0.3,0.1,0.3,0.3l0,0c0,0.1-0.1,0.3-0.3,0.3h-2.2
		C52.2,420.1,52.1,420,52.1,419.8z"/>
	<path class="st9" d="M52.1,438.8L52.1,438.8c0-0.1,0.1-0.3,0.3-0.3h2.2c0.1,0,0.3,0.1,0.3,0.3l0,0c0,0.1-0.1,0.3-0.3,0.3h-2.2
		C52.2,439.1,52.1,439,52.1,438.8z"/>
	<path class="st9" d="M58.9,414.9L58.9,414.9c0-2.2-1.8-4-4-4h-0.3c0-0.6-0.5-1.1-1.1-1.1s-1.1,0.5-1.1,1.1h-0.3c-2.2,0-4,1.8-4,4
		l0,0c0,2.2,1.8,4,4,4h2.7C57,418.9,58.9,417.1,58.9,414.9z M53.5,410.4c0.3,0,0.5,0.2,0.5,0.5s-0.2,0.5-0.5,0.5s-0.5-0.2-0.5-0.5
		S53.2,410.4,53.5,410.4z M52.1,417.6c-1.5,0-2.7-1.2-2.7-2.7l0,0c0-0.9,0.5-1.7,1.1-2.2c0.7-0.5,1.6-0.4,2.3,0.1l0.6,0.5l0.6-0.5
		c0.7-0.5,1.6-0.6,2.3-0.1c0.7,0.5,1.1,1.3,1.1,2.2l0,0c0,1.5-1.2,2.7-2.7,2.7H52.1z"/>
</g>
<g>
	<polygon class="st9" points="517.5,442.8 515.5,442.8 515.5,441.8 517.5,441.8 517.5,439 513.5,439 513.5,445.7 517.5,445.7 	"/>
	<rect x="512.5" y="418.8" class="st9" width="1.9" height="26.9"/>
	<path class="st9" d="M512.1,419.1L512.1,419.1c0-0.1,0.1-0.3,0.3-0.3h2.2c0.1,0,0.3,0.1,0.3,0.3l0,0c0,0.1-0.1,0.3-0.3,0.3h-2.2
		C512.2,419.4,512.1,419.3,512.1,419.1z"/>
	<path class="st9" d="M512.1,419.7L512.1,419.7c0-0.1,0.1-0.3,0.3-0.3h2.2c0.1,0,0.3,0.1,0.3,0.3l0,0c0,0.1-0.1,0.3-0.3,0.3h-2.2
		C512.2,419.9,512.1,419.8,512.1,419.7z"/>
	<path class="st9" d="M512.1,438.7L512.1,438.7c0-0.1,0.1-0.3,0.3-0.3h2.2c0.1,0,0.3,0.1,0.3,0.3l0,0c0,0.1-0.1,0.3-0.3,0.3h-2.2
		C512.2,439,512.1,438.8,512.1,438.7z"/>
	<path class="st9" d="M518.9,414.8L518.9,414.8c0-2.2-1.8-4-4-4h-0.3c0-0.6-0.5-1.1-1.1-1.1c-0.6,0-1.1,0.5-1.1,1.1h-0.3
		c-2.2,0-4,1.8-4,4l0,0c0,2.2,1.8,4,4,4h2.7C517.1,418.8,518.9,417,518.9,414.8z M513.5,410.2c0.3,0,0.5,0.2,0.5,0.5
		s-0.2,0.5-0.5,0.5c-0.3,0-0.5-0.2-0.5-0.5S513.2,410.2,513.5,410.2z M512.1,417.5c-1.5,0-2.7-1.2-2.7-2.7l0,0
		c0-0.9,0.5-1.7,1.1-2.2c0.7-0.5,1.6-0.4,2.3,0.1l0.6,0.5l0.6-0.5c0.7-0.5,1.6-0.6,2.3-0.1c0.7,0.5,1.1,1.3,1.1,2.2l0,0
		c0,1.5-1.2,2.7-2.7,2.7H512.1z"/>
</g>
<g>
	<polygon class="st7" points="201.2,150.8 199.2,150.8 199.2,149.7 201.2,149.7 201.2,146.9 197.2,146.9 197.2,153.6 201.2,153.6 	
		"/>
	<rect x="196.3" y="126.8" class="st7" width="1.9" height="26.9"/>
	<path class="st7" d="M195.8,127.1L195.8,127.1c0-0.1,0.1-0.3,0.3-0.3h2.2c0.1,0,0.3,0.1,0.3,0.3l0,0c0,0.1-0.1,0.3-0.3,0.3h-2.2
		C195.9,127.4,195.8,127.3,195.8,127.1z"/>
	<path class="st7" d="M195.8,127.6L195.8,127.6c0-0.1,0.1-0.3,0.3-0.3h2.2c0.1,0,0.3,0.1,0.3,0.3l0,0c0,0.1-0.1,0.3-0.3,0.3h-2.2
		C195.9,127.9,195.8,127.8,195.8,127.6z"/>
	<path class="st7" d="M195.8,146.6L195.8,146.6c0-0.1,0.1-0.3,0.3-0.3h2.2c0.1,0,0.3,0.1,0.3,0.3l0,0c0,0.1-0.1,0.3-0.3,0.3h-2.2
		C195.9,146.9,195.8,146.8,195.8,146.6z"/>
	<path class="st7" d="M202.6,122.7L202.6,122.7c0-2.2-1.8-4-4-4h-0.3c0-0.6-0.5-1.1-1.1-1.1c-0.6,0-1.1,0.5-1.1,1.1h-0.3
		c-2.2,0-4,1.8-4,4v0c0,2.2,1.8,4,4,4h2.7C200.8,126.8,202.6,125,202.6,122.7z M197.2,118.2c0.3,0,0.5,0.2,0.5,0.5
		c0,0.3-0.2,0.5-0.5,0.5s-0.5-0.2-0.5-0.5C196.7,118.4,196.9,118.2,197.2,118.2z M195.8,125.4c-1.5,0-2.7-1.2-2.7-2.7v0
		c0-0.9,0.5-1.7,1.1-2.2c0.7-0.5,1.6-0.4,2.3,0.1l0.6,0.5l0.6-0.5c0.7-0.5,1.6-0.6,2.3-0.1c0.7,0.5,1.1,1.3,1.1,2.2v0
		c0,1.5-1.2,2.7-2.7,2.7H195.8z"/>
</g>
<g>
	<g>
		<line class="st10" x1="75.2" y1="101.6" x2="176" y2="101.6"/>
		<g>
			<path d="M71.6,101.6c1.7,0.6,3.8,1.7,5.1,2.9l-1-2.9l1-2.9C75.4,99.8,73.3,100.9,71.6,101.6z"/>
		</g>
		<g>
			<path d="M179.6,101.6c-1.7,0.6-3.8,1.7-5.1,2.9l1-2.9l-1-2.9C175.8,99.8,177.9,100.9,179.6,101.6z"/>
		</g>
	</g>
</g>
<g>
	<g>
		<line class="st10" x1="179.6" y1="110.2" x2="75.1" y2="136.1"/>
		<g>
			<path d="M71.6,137c1.5-1,3.3-2.6,4.3-4l-0.3,3l1.7,2.5C75.7,137.8,73.4,137.2,71.6,137z"/>
		</g>
	</g>
</g>
<g>
	<g>
		<line class="st10" x1="71.6" y1="110.2" x2="176.1" y2="136.1"/>
		<g>
			<path d="M179.6,137c-1.8,0.2-4.1,0.7-5.7,1.5l1.7-2.5l-0.3-3C176.3,134.4,178.1,136,179.6,137z"/>
		</g>
	</g>
</g>
<g>
	<g>
		<line class="st10" x1="179.6" y1="233.1" x2="75.1" y2="259"/>
		<g>
			<path d="M71.6,259.9c1.5-1,3.3-2.6,4.3-4l-0.3,3l1.7,2.5C75.7,260.6,73.4,260.1,71.6,259.9z"/>
		</g>
	</g>
</g>
<g>
	<g>
		<line class="st10" x1="71.6" y1="195.7" x2="176.1" y2="221.6"/>
		<g>
			<path d="M179.6,222.5c-1.8,0.2-4.1,0.7-5.7,1.5l1.7-2.5l-0.3-3C176.3,219.9,178.1,221.5,179.6,222.5z"/>
		</g>
	</g>
</g>
<g>
	<g>
		<line class="st10" x1="225.1" y1="233.1" x2="329.6" y2="259"/>
		<g>
			<path d="M333.1,259.9c-1.8,0.2-4.1,0.7-5.7,1.5l1.7-2.5l-0.3-3C329.9,257.3,331.6,258.9,333.1,259.9z"/>
		</g>
	</g>
</g>
<g>
	<g>
		<line class="st10" x1="333.1" y1="195.7" x2="228.7" y2="221.6"/>
		<g>
			<path d="M225.1,222.5c1.5-1,3.3-2.6,4.3-4l-0.3,3l1.7,2.5C229.3,223.2,227,222.7,225.1,222.5z"/>
		</g>
	</g>
</g>
<path class="st11" d="M161,93.2h15.6c5,0,9,4,9,9v32c0,5-4,9-9,9h-102c-5,0-9-4-9-9v-32c0-5,4-9,9-9h16.8"/>
<g>
	<path d="M95.6,90c0-0.9,0-1.1-0.5-1.2l-0.2,0c-0.1-0.1-0.1-0.3,0-0.4c0.8,0,1.6-0.1,2.7-0.1c0.8,0,1.6,0.1,2.3,0.3
		c1.3,0.5,2,1.6,2,2.9c0,1.3-0.6,2.4-1.8,3c-0.7,0.3-1.5,0.5-2.5,0.5c-0.5,0-1-0.1-1.3-0.1c-0.5,0-1,0-1.6,0c-0.1-0.1-0.1-0.3,0-0.3
		l0.3,0c0.4-0.1,0.5-0.1,0.5-1.1V90z M97.1,93.2c0,0.5,0,0.9,0.2,1.1c0.2,0.2,0.5,0.3,0.8,0.3c1.7,0,2.3-1.5,2.3-2.9
		c0-1.8-0.9-2.9-2.8-2.9c-0.3,0-0.5,0-0.5,0.1s-0.1,0.3-0.1,0.6V93.2z"/>
	<path d="M104.4,93.9c0,0.7,0,0.8,0.4,0.8l0.2,0c0.1,0.1,0.1,0.3,0,0.3c-0.3,0-0.7,0-1.2,0c-0.4,0-0.9,0-1.2,0
		c-0.1-0.1-0.1-0.3,0-0.3l0.2,0c0.3,0,0.4-0.1,0.4-0.8v-1.5c0-0.4,0-0.5-0.2-0.6l-0.1-0.1c-0.1-0.1-0.1-0.2,0-0.3
		c0.5-0.1,1.2-0.4,1.5-0.6c0.1,0,0.1,0,0.2,0.1c0,0.3,0,0.7,0,1.2V93.9z M104.5,89.3c0,0.5-0.4,0.7-0.7,0.7c-0.4,0-0.7-0.3-0.7-0.7
		c0-0.4,0.4-0.7,0.7-0.7C104.2,88.6,104.5,88.9,104.5,89.3z"/>
	<path d="M105.4,91.6c-0.1,0-0.1-0.2,0-0.3l0.4-0.2c0.1-0.1,0.2-0.1,0.2-0.3c0-0.2,0.1-0.9,0.3-1.4c0.3-0.7,0.9-1.3,2.1-1.3
		c0.4,0,0.9,0.1,1.2,0.4c0.2-0.2,0.8-0.6,1.7-0.6c1,0,1.7,0.5,1.7,1c0,0.4-0.3,0.6-0.7,0.6c-0.2,0-0.4-0.1-0.4-0.2s-0.2-0.4-0.3-0.5
		c-0.2-0.3-0.4-0.4-0.6-0.4c-0.3,0-0.7,0.4-0.7,1.8v0.6c0,0.3,0,0.2,0.3,0.2h0.8c0.7,0,1.4,0,1.6-0.1c0.1,0,0.2,0,0.2,0.1
		c0,0.3,0,0.7,0,1.1v1.6c0,0.7,0,0.8,0.4,0.8l0.2,0c0.1,0.1,0.1,0.3,0,0.3c-0.3,0-0.7,0-1.2,0c-0.4,0-0.8,0-1.1,0
		c-0.1-0.1-0.1-0.3,0-0.3l0.2,0c0.3,0,0.3-0.1,0.3-0.8v-1.4c0-0.8,0-0.9-0.5-0.9h-0.7c-0.2,0-0.3,0-0.3,0.3v2c0,0.7,0,0.8,0.4,0.8
		l0.1,0c0.1,0.1,0.1,0.3,0,0.3c-0.3,0-0.7,0-1.2,0c-0.4,0-0.8,0-1.1,0c-0.1-0.1-0.1-0.3,0-0.3l0.2,0c0.3,0,0.3-0.1,0.3-0.8v-2
		c0-0.3,0-0.3-0.2-0.3h-1c-0.2,0-0.3,0-0.3,0.3v2c0,0.7,0,0.8,0.4,0.8l0.1,0c0.1,0.1,0.1,0.3,0,0.3c-0.3,0-0.7,0-1.2,0
		c-0.4,0-0.8,0-1.1,0c-0.1-0.1-0.1-0.3,0-0.3l0.2,0c0.3,0,0.4-0.1,0.4-0.8v-2c0-0.3,0-0.3-0.2-0.3H105.4z M108.6,91
		c0.2,0,0.2,0,0.2-0.2c0-0.4,0-1,0.2-1.5c-0.1-0.3-0.3-0.8-0.7-0.8c-0.4,0-1,0.3-1,2.1v0.1c0,0.3,0,0.3,0.3,0.3H108.6z"/>
	<path d="M115.4,92.7c-0.2,0-0.2,0-0.2,0.2c0,0.8,0.5,1.5,1.4,1.5c0.3,0,0.7-0.1,0.9-0.5c0.1,0,0.3,0.1,0.3,0.2
		c-0.4,0.8-1.1,1.1-1.7,1.1c-1.3,0-2.1-0.9-2.1-2c0-1.3,0.9-2.2,2.2-2.2c1,0,1.6,0.7,1.6,1.4c0,0.2,0,0.3-0.4,0.3H115.4z
		 M116.1,92.2c0.1,0,0.3,0,0.4-0.1c0,0,0.1-0.1,0.1-0.2c0-0.3-0.2-0.5-0.5-0.5c-0.4,0-0.8,0.4-0.8,0.7c0,0.1,0.1,0.1,0.5,0.1H116.1z
		"/>
	<path d="M120.7,92.4c0.1,0.1,0.1,0.2,0.1,0.4c0,0.1-0.1,0.3-0.1,0.4l-2.4,0.2c-0.1-0.1-0.1-0.2-0.1-0.4c0-0.2,0.1-0.3,0.1-0.4
		L120.7,92.4z"/>
	<path d="M124.1,91.9c-0.4,0-0.4,0-0.4,0.3v1.4c0,0.9,0.1,1,0.5,1.1l0.3,0c0.1,0.1,0.1,0.3,0,0.3c-0.6,0-1.1,0-1.5,0
		c-0.5,0-1,0-1.5,0c-0.1-0.1-0.1-0.3,0-0.3l0.2,0c0.5-0.1,0.5-0.2,0.5-1.1v-3.7c0-0.9,0-1-0.5-1.1l-0.2,0c-0.1-0.1-0.1-0.3,0-0.4
		c0.5,0,1,0,1.5,0c0.4,0,0.9,0,1.4,0c0.1,0.1,0.1,0.3,0,0.4l-0.2,0c-0.4,0.1-0.5,0.2-0.5,1.1V91c0,0.3,0,0.3,0.4,0.3h2.1
		c0.4,0,0.4,0,0.4-0.3v-1.2c0-0.9,0-1-0.5-1.1l-0.3,0c-0.1-0.1-0.1-0.3,0-0.4c0.5,0,1,0,1.5,0c0.5,0,0.9,0,1.4,0
		c0.1,0.1,0.1,0.3,0,0.4l-0.2,0c-0.5,0.1-0.5,0.2-0.5,1.1v3.7c0,0.9,0.1,1,0.5,1.1l0.2,0c0.1,0.1,0.1,0.3,0,0.3c-0.5,0-1,0-1.4,0
		c-0.5,0-1,0-1.5,0c-0.1-0.1-0.1-0.3,0-0.3l0.2,0c0.5-0.1,0.5-0.2,0.5-1.1v-1.4c0-0.3,0-0.3-0.4-0.3H124.1z"/>
	<path d="M130.8,92.7c-0.2,0-0.2,0-0.2,0.2c0,0.8,0.5,1.5,1.4,1.5c0.3,0,0.7-0.1,0.9-0.5c0.1,0,0.3,0.1,0.3,0.2
		c-0.4,0.8-1.1,1.1-1.7,1.1c-1.3,0-2.1-0.9-2.1-2c0-1.3,0.9-2.2,2.2-2.2c1,0,1.6,0.7,1.6,1.4c0,0.2,0,0.3-0.4,0.3H130.8z
		 M131.4,92.2c0.1,0,0.3,0,0.4-0.1c0,0,0.1-0.1,0.1-0.2c0-0.3-0.2-0.5-0.5-0.5c-0.4,0-0.8,0.4-0.8,0.7c0,0.1,0.1,0.1,0.5,0.1H131.4z
		"/>
	<path d="M133.9,89.5c0-0.4,0-0.5-0.2-0.6l-0.2-0.1c-0.1-0.1-0.1-0.2,0-0.3c0.4-0.1,1-0.3,1.5-0.6c0.1,0,0.1,0,0.2,0.1
		c0,0.4,0,0.8,0,1.5v4.5c0,0.7,0,0.8,0.4,0.8l0.2,0c0.1,0.1,0.1,0.3,0,0.3c-0.3,0-0.7,0-1.2,0c-0.4,0-0.8,0-1.2,0
		c-0.1-0.1-0.1-0.3,0-0.3l0.2,0c0.3,0,0.4-0.1,0.4-0.8V89.5z"/>
	<path d="M136.7,89.5c0-0.4,0-0.5-0.2-0.6l-0.2-0.1c-0.1-0.1-0.1-0.2,0-0.3c0.4-0.1,1-0.3,1.5-0.6c0.1,0,0.1,0,0.2,0.1
		c0,0.4,0,0.8,0,1.5v4.5c0,0.7,0,0.8,0.4,0.8l0.2,0c0.1,0.1,0.1,0.3,0,0.3c-0.3,0-0.7,0-1.2,0c-0.4,0-0.8,0-1.2,0
		c-0.1-0.1-0.1-0.3,0-0.3l0.2,0c0.3,0,0.4-0.1,0.4-0.8V89.5z"/>
	<path d="M139.6,92.4c0-0.4,0-0.5-0.2-0.6l-0.1-0.1c-0.1-0.1-0.1-0.2,0-0.3c0.5-0.1,1.2-0.4,1.5-0.6c0.1,0,0.1,0,0.2,0.1
		c0,0.1,0,0.4,0,0.4c0,0.1,0,0.1,0.1,0.1c0,0,0.1,0,0.2-0.1c0.2-0.1,0.7-0.4,1.1-0.4c0.4,0,0.7,0.1,0.9,0.4c0.1,0.1,0.2,0.2,0.2,0.2
		c0,0,0.1-0.1,0.3-0.2c0.2-0.1,0.6-0.4,1.1-0.4c0.8,0,1.2,0.6,1.2,1.3v1.7c0,0.7,0,0.8,0.4,0.8l0.2,0c0.1,0.1,0.1,0.3,0,0.3
		c-0.3,0-0.7,0-1.2,0c-0.4,0-0.8,0-1.1,0c-0.1-0.1-0.1-0.3,0-0.3l0.2,0c0.2,0,0.3-0.1,0.3-0.7v-1.7c0-0.4-0.2-0.7-0.7-0.7
		c-0.3,0-0.5,0.1-0.6,0.2c0,0.1-0.1,0.2-0.1,0.3V94c0,0.5,0,0.6,0.3,0.7l0.2,0c0.1,0.1,0.1,0.3,0,0.3c-0.3,0-0.6,0-1.1,0
		c-0.4,0-0.8,0-1.1,0c-0.1-0.1-0.1-0.3,0-0.3l0.2,0c0.2,0,0.3-0.1,0.3-0.7v-1.7c0-0.4-0.2-0.7-0.7-0.7c-0.3,0-0.5,0.1-0.5,0.2
		c-0.1,0.1-0.1,0.2-0.1,0.4V94c0,0.5,0,0.6,0.3,0.7l0.2,0c0.1,0.1,0.1,0.3,0,0.3c-0.3,0-0.6,0-1.1,0c-0.4,0-0.8,0-1.1,0
		c-0.1-0.1-0.1-0.3,0-0.3l0.2,0c0.3,0,0.4-0.1,0.4-0.8V92.4z"/>
	<path d="M150.5,93.7c0,0.7,0.2,0.9,0.4,0.9c0.1,0,0.2,0,0.4-0.1c0.1,0,0.1,0.1,0.1,0.2c-0.1,0.2-0.6,0.5-1.2,0.5
		c-0.3,0-0.6-0.1-0.8-0.4c-0.1-0.1-0.1-0.1-0.2-0.1c0,0-0.1,0-0.2,0.1c-0.2,0.1-0.5,0.3-0.8,0.3c-0.6,0-1.1-0.4-1.1-1
		c0-0.5,0.3-0.8,1-1c0.4-0.1,0.7-0.2,0.9-0.3c0.2,0,0.2-0.1,0.2-0.2c0-0.1,0-0.2,0-0.3c0-0.4-0.1-0.9-0.6-0.9
		c-0.2,0-0.4,0.1-0.5,0.6c0,0.2-0.1,0.2-0.2,0.3c-0.1,0.1-0.5,0.2-0.7,0.2c-0.2,0-0.2-0.1-0.2-0.2c0-0.3,0.2-0.6,0.5-0.8
		c0.3-0.3,1-0.6,1.7-0.6c0.8,0,1.3,0.4,1.3,1.4L150.5,93.7z M149.3,93.4c0-0.2,0-0.2-0.1-0.2c-0.4,0.1-0.8,0.2-0.8,0.7
		c0,0.3,0.2,0.6,0.5,0.6c0.3,0,0.4-0.2,0.4-0.5L149.3,93.4z"/>
	<path d="M152.1,92.4c0-0.4,0-0.5-0.2-0.6l-0.1-0.1c-0.1-0.1-0.1-0.2,0-0.3c0.5-0.1,1.2-0.4,1.5-0.6c0.1,0,0.1,0,0.2,0.1
		c0,0.1,0,0.4,0,0.4c0,0.1,0,0.1,0.1,0.1c0,0,0.1,0,0.2-0.1c0.2-0.1,0.7-0.4,1.1-0.4c0.8,0,1.2,0.6,1.2,1.3v1.7c0,0.7,0,0.8,0.4,0.8
		l0.2,0c0.1,0.1,0.1,0.3,0,0.3c-0.3,0-0.7,0-1.2,0c-0.4,0-0.8,0-1.1,0c-0.1-0.1-0.1-0.3,0-0.3l0.2,0c0.2,0,0.3-0.1,0.3-0.7v-1.7
		c0-0.4-0.2-0.7-0.7-0.7c-0.3,0-0.5,0.1-0.6,0.2c-0.1,0.1-0.1,0.2-0.1,0.4V94c0,0.5,0,0.6,0.3,0.7l0.2,0c0.1,0.1,0.1,0.3,0,0.3
		c-0.3,0-0.6,0-1.1,0c-0.4,0-0.8,0-1.2,0c-0.1-0.1-0.1-0.3,0-0.3l0.2,0c0.4,0,0.4-0.1,0.4-0.8V92.4z"/>
</g>
<g>
	<path d="M95.6,173.2c0-0.9,0-1.1-0.5-1.2l-0.2,0c-0.1-0.1-0.1-0.3,0-0.4c0.8,0,1.6-0.1,2.7-0.1c0.8,0,1.6,0.1,2.3,0.3
		c1.3,0.5,2,1.6,2,2.9c0,1.3-0.6,2.4-1.8,3c-0.7,0.3-1.5,0.5-2.5,0.5c-0.5,0-1-0.1-1.3-0.1c-0.5,0-1,0-1.6,0c-0.1-0.1-0.1-0.3,0-0.3
		l0.3,0c0.4-0.1,0.5-0.1,0.5-1.1V173.2z M97.1,176.3c0,0.5,0,0.9,0.2,1.1c0.2,0.2,0.5,0.3,0.8,0.3c1.7,0,2.3-1.5,2.3-2.9
		c0-1.8-0.9-2.9-2.8-2.9c-0.3,0-0.5,0-0.5,0.1s-0.1,0.3-0.1,0.6V176.3z"/>
	<path d="M104.4,177c0,0.7,0,0.8,0.4,0.8l0.2,0c0.1,0.1,0.1,0.3,0,0.3c-0.3,0-0.7,0-1.2,0c-0.4,0-0.9,0-1.2,0
		c-0.1-0.1-0.1-0.3,0-0.3l0.2,0c0.3,0,0.4-0.1,0.4-0.8v-1.5c0-0.4,0-0.5-0.2-0.6l-0.1-0.1c-0.1-0.1-0.1-0.2,0-0.3
		c0.5-0.1,1.2-0.4,1.5-0.6c0.1,0,0.1,0,0.2,0.1c0,0.3,0,0.7,0,1.2V177z M104.5,172.5c0,0.5-0.4,0.7-0.7,0.7c-0.4,0-0.7-0.3-0.7-0.7
		c0-0.4,0.4-0.7,0.7-0.7C104.2,171.8,104.5,172.1,104.5,172.5z"/>
	<path d="M105.4,174.7c-0.1,0-0.1-0.2,0-0.3l0.4-0.2c0.1-0.1,0.2-0.1,0.2-0.3c0-0.2,0.1-0.9,0.3-1.4c0.3-0.7,0.9-1.3,2.1-1.3
		c0.4,0,0.9,0.1,1.2,0.4c0.2-0.2,0.8-0.6,1.7-0.6c1,0,1.7,0.5,1.7,1c0,0.4-0.3,0.6-0.7,0.6c-0.2,0-0.4-0.1-0.4-0.2s-0.2-0.4-0.3-0.5
		c-0.2-0.3-0.4-0.4-0.6-0.4c-0.3,0-0.7,0.4-0.7,1.8v0.6c0,0.3,0,0.2,0.3,0.2h0.8c0.7,0,1.4,0,1.6-0.1c0.1,0,0.2,0,0.2,0.1
		c0,0.3,0,0.7,0,1.1v1.6c0,0.7,0,0.8,0.4,0.8l0.2,0c0.1,0.1,0.1,0.3,0,0.3c-0.3,0-0.7,0-1.2,0c-0.4,0-0.8,0-1.1,0
		c-0.1-0.1-0.1-0.3,0-0.3l0.2,0c0.3,0,0.3-0.1,0.3-0.8v-1.4c0-0.8,0-0.9-0.5-0.9h-0.7c-0.2,0-0.3,0-0.3,0.3v2c0,0.7,0,0.8,0.4,0.8
		l0.1,0c0.1,0.1,0.1,0.3,0,0.3c-0.3,0-0.7,0-1.2,0c-0.4,0-0.8,0-1.1,0c-0.1-0.1-0.1-0.3,0-0.3l0.2,0c0.3,0,0.3-0.1,0.3-0.8v-2
		c0-0.3,0-0.3-0.2-0.3h-1c-0.2,0-0.3,0-0.3,0.3v2c0,0.7,0,0.8,0.4,0.8l0.1,0c0.1,0.1,0.1,0.3,0,0.3c-0.3,0-0.7,0-1.2,0
		c-0.4,0-0.8,0-1.1,0c-0.1-0.1-0.1-0.3,0-0.3l0.2,0c0.3,0,0.4-0.1,0.4-0.8v-2c0-0.3,0-0.3-0.2-0.3H105.4z M108.6,174.2
		c0.2,0,0.2,0,0.2-0.2c0-0.4,0-1,0.2-1.5c-0.1-0.3-0.3-0.8-0.7-0.8c-0.4,0-1,0.3-1,2.1v0.1c0,0.3,0,0.3,0.3,0.3H108.6z"/>
	<path d="M115.4,175.8c-0.2,0-0.2,0-0.2,0.2c0,0.8,0.5,1.5,1.4,1.5c0.3,0,0.7-0.1,0.9-0.5c0.1,0,0.3,0.1,0.3,0.2
		c-0.4,0.8-1.1,1.1-1.7,1.1c-1.3,0-2.1-0.9-2.1-2c0-1.3,0.9-2.2,2.2-2.2c1,0,1.6,0.7,1.6,1.4c0,0.2,0,0.3-0.4,0.3H115.4z
		 M116.1,175.3c0.1,0,0.3,0,0.4-0.1c0,0,0.1-0.1,0.1-0.2c0-0.3-0.2-0.5-0.5-0.5c-0.4,0-0.8,0.4-0.8,0.7c0,0.1,0.1,0.1,0.5,0.1H116.1
		z"/>
	<path d="M120.7,175.6c0.1,0.1,0.1,0.2,0.1,0.4c0,0.1-0.1,0.3-0.1,0.4l-2.4,0.2c-0.1-0.1-0.1-0.2-0.1-0.4c0-0.2,0.1-0.3,0.1-0.4
		L120.7,175.6z"/>
	<path d="M124.1,175c-0.4,0-0.4,0-0.4,0.3v1.4c0,0.9,0.1,1,0.5,1.1l0.3,0c0.1,0.1,0.1,0.3,0,0.3c-0.6,0-1.1,0-1.5,0
		c-0.5,0-1,0-1.5,0c-0.1-0.1-0.1-0.3,0-0.3l0.2,0c0.5-0.1,0.5-0.2,0.5-1.1V173c0-0.9,0-1-0.5-1.1l-0.2,0c-0.1-0.1-0.1-0.3,0-0.4
		c0.5,0,1,0,1.5,0c0.4,0,0.9,0,1.4,0c0.1,0.1,0.1,0.3,0,0.4l-0.2,0c-0.4,0.1-0.5,0.2-0.5,1.1v1.2c0,0.3,0,0.3,0.4,0.3h2.1
		c0.4,0,0.4,0,0.4-0.3V173c0-0.9,0-1-0.5-1.1l-0.3,0c-0.1-0.1-0.1-0.3,0-0.4c0.5,0,1,0,1.5,0c0.5,0,0.9,0,1.4,0
		c0.1,0.1,0.1,0.3,0,0.4l-0.2,0c-0.5,0.1-0.5,0.2-0.5,1.1v3.7c0,0.9,0.1,1,0.5,1.1l0.2,0c0.1,0.1,0.1,0.3,0,0.3c-0.5,0-1,0-1.4,0
		c-0.5,0-1,0-1.5,0c-0.1-0.1-0.1-0.3,0-0.3l0.2,0c0.5-0.1,0.5-0.2,0.5-1.1v-1.4c0-0.3,0-0.3-0.4-0.3H124.1z"/>
	<path d="M130.8,175.8c-0.2,0-0.2,0-0.2,0.2c0,0.8,0.5,1.5,1.4,1.5c0.3,0,0.7-0.1,0.9-0.5c0.1,0,0.3,0.1,0.3,0.2
		c-0.4,0.8-1.1,1.1-1.7,1.1c-1.3,0-2.1-0.9-2.1-2c0-1.3,0.9-2.2,2.2-2.2c1,0,1.6,0.7,1.6,1.4c0,0.2,0,0.3-0.4,0.3H130.8z
		 M131.4,175.3c0.1,0,0.3,0,0.4-0.1c0,0,0.1-0.1,0.1-0.2c0-0.3-0.2-0.5-0.5-0.5c-0.4,0-0.8,0.4-0.8,0.7c0,0.1,0.1,0.1,0.5,0.1H131.4
		z"/>
	<path d="M133.9,172.6c0-0.4,0-0.5-0.2-0.6l-0.2-0.1c-0.1-0.1-0.1-0.2,0-0.3c0.4-0.1,1-0.3,1.5-0.6c0.1,0,0.1,0,0.2,0.1
		c0,0.4,0,0.8,0,1.5v4.5c0,0.7,0,0.8,0.4,0.8l0.2,0c0.1,0.1,0.1,0.3,0,0.3c-0.3,0-0.7,0-1.2,0c-0.4,0-0.8,0-1.2,0
		c-0.1-0.1-0.1-0.3,0-0.3l0.2,0c0.3,0,0.4-0.1,0.4-0.8V172.6z"/>
	<path d="M136.7,172.6c0-0.4,0-0.5-0.2-0.6l-0.2-0.1c-0.1-0.1-0.1-0.2,0-0.3c0.4-0.1,1-0.3,1.5-0.6c0.1,0,0.1,0,0.2,0.1
		c0,0.4,0,0.8,0,1.5v4.5c0,0.7,0,0.8,0.4,0.8l0.2,0c0.1,0.1,0.1,0.3,0,0.3c-0.3,0-0.7,0-1.2,0c-0.4,0-0.8,0-1.2,0
		c-0.1-0.1-0.1-0.3,0-0.3l0.2,0c0.3,0,0.4-0.1,0.4-0.8V172.6z"/>
	<path d="M139.6,175.5c0-0.4,0-0.5-0.2-0.6l-0.1-0.1c-0.1-0.1-0.1-0.2,0-0.3c0.5-0.1,1.2-0.4,1.5-0.6c0.1,0,0.1,0,0.2,0.1
		c0,0.1,0,0.4,0,0.4c0,0.1,0,0.1,0.1,0.1c0,0,0.1,0,0.2-0.1c0.2-0.1,0.7-0.4,1.1-0.4c0.4,0,0.7,0.1,0.9,0.4c0.1,0.1,0.2,0.2,0.2,0.2
		c0,0,0.1-0.1,0.3-0.2c0.2-0.1,0.6-0.4,1.1-0.4c0.8,0,1.2,0.6,1.2,1.3v1.7c0,0.7,0,0.8,0.4,0.8l0.2,0c0.1,0.1,0.1,0.3,0,0.3
		c-0.3,0-0.7,0-1.2,0c-0.4,0-0.8,0-1.1,0c-0.1-0.1-0.1-0.3,0-0.3l0.2,0c0.2,0,0.3-0.1,0.3-0.7v-1.7c0-0.4-0.2-0.7-0.7-0.7
		c-0.3,0-0.5,0.1-0.6,0.2c0,0.1-0.1,0.2-0.1,0.3v1.8c0,0.5,0,0.6,0.3,0.7l0.2,0c0.1,0.1,0.1,0.3,0,0.3c-0.3,0-0.6,0-1.1,0
		c-0.4,0-0.8,0-1.1,0c-0.1-0.1-0.1-0.3,0-0.3l0.2,0c0.2,0,0.3-0.1,0.3-0.7v-1.7c0-0.4-0.2-0.7-0.7-0.7c-0.3,0-0.5,0.1-0.5,0.2
		c-0.1,0.1-0.1,0.2-0.1,0.4v1.8c0,0.5,0,0.6,0.3,0.7l0.2,0c0.1,0.1,0.1,0.3,0,0.3c-0.3,0-0.6,0-1.1,0c-0.4,0-0.8,0-1.1,0
		c-0.1-0.1-0.1-0.3,0-0.3l0.2,0c0.3,0,0.4-0.1,0.4-0.8V175.5z"/>
	<path d="M150.5,176.8c0,0.7,0.2,0.9,0.4,0.9c0.1,0,0.2,0,0.4-0.1c0.1,0,0.1,0.1,0.1,0.2c-0.1,0.2-0.6,0.5-1.2,0.5
		c-0.3,0-0.6-0.1-0.8-0.4c-0.1-0.1-0.1-0.1-0.2-0.1c0,0-0.1,0-0.2,0.1c-0.2,0.1-0.5,0.3-0.8,0.3c-0.6,0-1.1-0.4-1.1-1
		c0-0.5,0.3-0.8,1-1c0.4-0.1,0.7-0.2,0.9-0.3c0.2,0,0.2-0.1,0.2-0.2c0-0.1,0-0.2,0-0.3c0-0.4-0.1-0.9-0.6-0.9
		c-0.2,0-0.4,0.1-0.5,0.6c0,0.2-0.1,0.2-0.2,0.3c-0.1,0.1-0.5,0.2-0.7,0.2c-0.2,0-0.2-0.1-0.2-0.2c0-0.3,0.2-0.6,0.5-0.8
		c0.3-0.3,1-0.6,1.7-0.6c0.8,0,1.3,0.4,1.3,1.4L150.5,176.8z M149.3,176.5c0-0.2,0-0.2-0.1-0.2c-0.4,0.1-0.8,0.2-0.8,0.7
		c0,0.3,0.2,0.6,0.5,0.6c0.3,0,0.4-0.2,0.4-0.5L149.3,176.5z"/>
	<path d="M152.1,175.5c0-0.4,0-0.5-0.2-0.6l-0.1-0.1c-0.1-0.1-0.1-0.2,0-0.3c0.5-0.1,1.2-0.4,1.5-0.6c0.1,0,0.1,0,0.2,0.1
		c0,0.1,0,0.4,0,0.4c0,0.1,0,0.1,0.1,0.1c0,0,0.1,0,0.2-0.1c0.2-0.1,0.7-0.4,1.1-0.4c0.8,0,1.2,0.6,1.2,1.3v1.7c0,0.7,0,0.8,0.4,0.8
		l0.2,0c0.1,0.1,0.1,0.3,0,0.3c-0.3,0-0.7,0-1.2,0c-0.4,0-0.8,0-1.1,0c-0.1-0.1-0.1-0.3,0-0.3l0.2,0c0.2,0,0.3-0.1,0.3-0.7v-1.7
		c0-0.4-0.2-0.7-0.7-0.7c-0.3,0-0.5,0.1-0.6,0.2c-0.1,0.1-0.1,0.2-0.1,0.4v1.8c0,0.5,0,0.6,0.3,0.7l0.2,0c0.1,0.1,0.1,0.3,0,0.3
		c-0.3,0-0.6,0-1.1,0c-0.4,0-0.8,0-1.2,0c-0.1-0.1-0.1-0.3,0-0.3l0.2,0c0.4,0,0.4-0.1,0.4-0.8V175.5z"/>
</g>
<g>
	<g>
		<line class="st10" x1="75.2" y1="185.1" x2="176" y2="185.1"/>
		<g>
			<path d="M71.6,185.1c1.7,0.6,3.8,1.7,5.1,2.9l-1-2.9l1-2.9C75.4,183.4,73.3,184.4,71.6,185.1z"/>
		</g>
		<g>
			<path d="M179.6,185.1c-1.7,0.6-3.8,1.7-5.1,2.9l1-2.9l-1-2.9C175.8,183.4,177.9,184.4,179.6,185.1z"/>
		</g>
	</g>
</g>
<g>
	<g>
		<line class="st10" x1="180.3" y1="401" x2="75.8" y2="426.9"/>
		<g>
			<path d="M72.3,427.8c1.5-1,3.3-2.6,4.3-4l-0.3,3l1.7,2.5C76.4,428.6,74.1,428,72.3,427.8z"/>
		</g>
	</g>
</g>
<g>
	<g>
		<line class="st10" x1="71.6" y1="322.1" x2="176.1" y2="348"/>
		<g>
			<path d="M179.6,348.9c-1.8,0.2-4.1,0.7-5.7,1.5l1.7-2.5l-0.3-3C176.3,346.3,178.1,347.9,179.6,348.9z"/>
		</g>
	</g>
</g>
<g>
	<g>
		<line class="st10" x1="230.2" y1="361.4" x2="334.7" y2="387.4"/>
		<g>
			<path d="M338.2,388.2c-1.8,0.2-4.1,0.7-5.7,1.5l1.7-2.5l-0.3-3C334.9,385.7,336.7,387.2,338.2,388.2z"/>
		</g>
	</g>
</g>
<g>
	<g>
		<line class="st10" x1="75.2" y1="312.9" x2="176" y2="312.9"/>
		<g>
			<path d="M71.6,312.9c1.7,0.6,3.8,1.7,5.1,2.9l-1-2.9l1-2.9C75.4,311.2,73.3,312.3,71.6,312.9z"/>
		</g>
		<g>
			<path d="M179.6,312.9c-1.7,0.6-3.8,1.7-5.1,2.9l1-2.9l-1-2.9C175.8,311.2,177.9,312.3,179.6,312.9z"/>
		</g>
	</g>
</g>
<g>
	<g>
		<line class="st10" x1="388.5" y1="400.8" x2="493" y2="426.7"/>
		<g>
			<path d="M496.5,427.6c-1.8,0.2-4.1,0.7-5.7,1.5l1.7-2.5l-0.3-3C493.2,425,495,426.6,496.5,427.6z"/>
		</g>
	</g>
</g>
<g>
	<g>
		<line class="st10" x1="496.7" y1="320.5" x2="392.2" y2="346.4"/>
		<g>
			<path d="M388.7,347.3c1.5-1,3.3-2.6,4.3-4l-0.3,3l1.7,2.5C392.8,348,390.5,347.5,388.7,347.3z"/>
		</g>
	</g>
</g>
<g>
	<g>
		<line class="st10" x1="338.2" y1="361.4" x2="233.7" y2="387.4"/>
		<g>
			<path d="M230.2,388.2c1.5-1,3.3-2.6,4.3-4l-0.3,3l1.7,2.5C234.3,389,232,388.4,230.2,388.2z"/>
		</g>
	</g>
</g>
<g>
	<g>
		<line class="st10" x1="493.1" y1="312.5" x2="392.3" y2="312.5"/>
		<g>
			<path d="M496.7,312.5c-1.7-0.6-3.8-1.7-5.1-2.9l1,2.9l-1,2.9C492.9,314.2,495,313.1,496.7,312.5z"/>
		</g>
		<g>
			<path d="M388.7,312.5c1.7-0.6,3.8-1.7,5.1-2.9l-1,2.9l1,2.9C392.5,314.2,390.4,313.1,388.7,312.5z"/>
		</g>
	</g>
</g>
<g>
	<g>
		<line class="st10" x1="334.5" y1="312.5" x2="233.8" y2="312.5"/>
		<g>
			<path d="M338.2,312.5c-1.7-0.6-3.8-1.7-5.1-2.9l1,2.9l-1,2.9C334.3,314.2,336.5,313.1,338.2,312.5z"/>
		</g>
		<g>
			<path d="M230.2,312.5c1.7-0.6,3.8-1.7,5.1-2.9l-1,2.9l1,2.9C234,314.2,231.9,313.1,230.2,312.5z"/>
		</g>
	</g>
</g>
<g>
	<g>
		<line class="st10" x1="228.8" y1="185.1" x2="329.5" y2="185.1"/>
		<g>
			<path d="M225.1,185.1c1.7,0.6,3.8,1.7,5.1,2.9l-1-2.9l1-2.9C229,183.4,226.9,184.4,225.1,185.1z"/>
		</g>
		<g>
			<path d="M333.1,185.1c-1.7,0.6-3.8,1.7-5.1,2.9l1-2.9l-1-2.9C329.3,183.4,331.4,184.4,333.1,185.1z"/>
		</g>
	</g>
</g>
<path class="st12" d="M164.2,174.8H334c5.1,0,9.3,3.8,9.3,8.5v73.9c0,4.7-4.1,8.5-9.3,8.5H76.8c-5.1,0-9.3-3.8-9.3-8.5v-73.9
	c0-4.7,4.1-8.5,9.3-8.5h15.6"/>
<line class="st13" x1="222.2" y1="223.2" x2="182.7" y2="232.4"/>
<line class="st13" x1="182.7" y1="223.2" x2="222.2" y2="232.4"/>
<g>
	<path d="M103,304.3c0-0.9,0-1.1-0.5-1.2l-0.2,0c-0.1-0.1-0.1-0.3,0-0.4c0.8,0,1.6-0.1,2.7-0.1c0.8,0,1.6,0.1,2.3,0.3
		c1.3,0.5,2,1.6,2,2.9c0,1.3-0.6,2.4-1.8,3c-0.7,0.3-1.5,0.5-2.5,0.5c-0.5,0-1-0.1-1.3-0.1c-0.5,0-1,0-1.6,0c-0.1-0.1-0.1-0.3,0-0.3
		l0.3,0c0.4-0.1,0.5-0.1,0.5-1.1V304.3z M104.4,307.5c0,0.5,0,0.9,0.2,1.1c0.2,0.2,0.5,0.3,0.8,0.3c1.7,0,2.3-1.5,2.3-2.9
		c0-1.8-0.9-2.9-2.8-2.9c-0.3,0-0.5,0-0.5,0.1s-0.1,0.3-0.1,0.6V307.5z"/>
	<path d="M111.8,308.1c0,0.7,0,0.8,0.4,0.8l0.2,0c0.1,0.1,0.1,0.3,0,0.3c-0.3,0-0.7,0-1.2,0c-0.4,0-0.9,0-1.2,0
		c-0.1-0.1-0.1-0.3,0-0.3l0.2,0c0.3,0,0.4-0.1,0.4-0.8v-1.5c0-0.4,0-0.5-0.2-0.6l-0.1-0.1c-0.1-0.1-0.1-0.2,0-0.3
		c0.5-0.1,1.2-0.4,1.5-0.6c0.1,0,0.1,0,0.2,0.1c0,0.3,0,0.7,0,1.2V308.1z M111.9,303.6c0,0.5-0.4,0.7-0.7,0.7
		c-0.4,0-0.7-0.3-0.7-0.7c0-0.4,0.4-0.7,0.7-0.7C111.6,302.9,111.9,303.2,111.9,303.6z"/>
	<path d="M112.7,305.8c-0.1,0-0.1-0.2,0-0.3l0.4-0.2c0.1-0.1,0.2-0.1,0.2-0.3c0-0.2,0.1-0.9,0.3-1.4c0.3-0.7,0.9-1.3,2.1-1.3
		c0.4,0,0.9,0.1,1.2,0.3c0.2-0.2,0.8-0.6,1.7-0.6c1,0,1.7,0.5,1.7,1c0,0.4-0.3,0.7-0.7,0.7c-0.2,0-0.4-0.1-0.4-0.2s-0.2-0.4-0.3-0.5
		c-0.2-0.3-0.4-0.4-0.6-0.4c-0.3,0-0.7,0.3-0.7,1.8v0.6c0,0.3,0,0.2,0.3,0.2h0.8c0.7,0,1.4,0,1.6-0.1c0.1,0,0.2,0,0.2,0.2
		c0,0.3,0,0.7,0,1.1v1.6c0,0.7,0,0.8,0.4,0.8l0.2,0c0.1,0.1,0.1,0.3,0,0.3c-0.3,0-0.7,0-1.2,0c-0.4,0-0.8,0-1.1,0
		c-0.1-0.1-0.1-0.3,0-0.3l0.2,0c0.3,0,0.3-0.1,0.3-0.8v-1.4c0-0.8,0-0.9-0.5-0.9h-0.7c-0.2,0-0.3,0-0.3,0.3v2c0,0.7,0,0.8,0.4,0.8
		l0.1,0c0.1,0.1,0.1,0.3,0,0.3c-0.3,0-0.7,0-1.2,0c-0.4,0-0.8,0-1.1,0c-0.1-0.1-0.1-0.3,0-0.3l0.2,0c0.3,0,0.3-0.1,0.3-0.8v-2
		c0-0.3,0-0.3-0.2-0.3h-1c-0.2,0-0.3,0-0.3,0.3v2c0,0.7,0,0.8,0.4,0.8l0.1,0c0.1,0.1,0.1,0.3,0,0.3c-0.3,0-0.7,0-1.2,0
		c-0.4,0-0.8,0-1.1,0c-0.1-0.1-0.1-0.3,0-0.3l0.2,0c0.3,0,0.4-0.1,0.4-0.8v-2c0-0.3,0-0.3-0.2-0.3H112.7z M115.9,305.3
		c0.2,0,0.2,0,0.2-0.2c0-0.4,0-1,0.2-1.5c-0.1-0.3-0.3-0.8-0.7-0.8c-0.4,0-1,0.3-1,2.1v0.1c0,0.3,0,0.3,0.3,0.3H115.9z"/>
	<path d="M122.8,306.9c-0.2,0-0.2,0-0.2,0.2c0,0.8,0.5,1.5,1.4,1.5c0.3,0,0.7-0.1,0.9-0.5c0.1,0,0.3,0.1,0.3,0.2
		c-0.4,0.8-1.1,1.1-1.7,1.1c-1.3,0-2.1-0.9-2.1-2c0-1.3,0.9-2.2,2.2-2.2c1,0,1.6,0.7,1.6,1.4c0,0.2,0,0.3-0.4,0.3H122.8z
		 M123.4,306.5c0.1,0,0.3,0,0.4-0.1c0,0,0.1-0.1,0.1-0.2c0-0.3-0.2-0.5-0.5-0.5c-0.4,0-0.8,0.4-0.8,0.7c0,0.1,0.1,0.2,0.5,0.2H123.4
		z"/>
	<path d="M128,306.7c0.1,0.1,0.1,0.2,0.1,0.4c0,0.1-0.1,0.3-0.1,0.4l-2.4,0.2c-0.1-0.1-0.1-0.2-0.1-0.4c0-0.2,0.1-0.3,0.1-0.4
		L128,306.7z"/>
	<path d="M131.4,306.1c-0.4,0-0.4,0-0.4,0.3v1.4c0,0.9,0.1,1,0.5,1.1l0.3,0c0.1,0.1,0.1,0.3,0,0.3c-0.6,0-1.1,0-1.5,0
		c-0.5,0-1,0-1.5,0c-0.1-0.1-0.1-0.3,0-0.3l0.2,0c0.5-0.1,0.5-0.2,0.5-1.1v-3.7c0-0.9,0-1-0.5-1.1l-0.2,0c-0.1-0.1-0.1-0.3,0-0.4
		c0.5,0,1,0,1.5,0c0.4,0,0.9,0,1.4,0c0.1,0.1,0.1,0.3,0,0.4l-0.2,0c-0.4,0.1-0.5,0.2-0.5,1.1v1.2c0,0.3,0,0.3,0.4,0.3h2.1
		c0.4,0,0.4,0,0.4-0.3v-1.2c0-0.9,0-1-0.5-1.1l-0.3,0c-0.1-0.1-0.1-0.3,0-0.4c0.5,0,1,0,1.5,0c0.5,0,0.9,0,1.4,0
		c0.1,0.1,0.1,0.3,0,0.4l-0.2,0c-0.5,0.1-0.5,0.2-0.5,1.1v3.7c0,0.9,0.1,1,0.5,1.1l0.2,0c0.1,0.1,0.1,0.3,0,0.3c-0.5,0-1,0-1.4,0
		c-0.5,0-1,0-1.5,0c-0.1-0.1-0.1-0.3,0-0.3l0.2,0c0.5-0.1,0.5-0.2,0.5-1.1v-1.4c0-0.3,0-0.3-0.4-0.3H131.4z"/>
	<path d="M138.1,306.9c-0.2,0-0.2,0-0.2,0.2c0,0.8,0.5,1.5,1.4,1.5c0.3,0,0.7-0.1,0.9-0.5c0.1,0,0.3,0.1,0.3,0.2
		c-0.4,0.8-1.1,1.1-1.7,1.1c-1.3,0-2.1-0.9-2.1-2c0-1.3,0.9-2.2,2.2-2.2c1,0,1.6,0.7,1.6,1.4c0,0.2,0,0.3-0.4,0.3H138.1z
		 M138.8,306.5c0.1,0,0.3,0,0.4-0.1c0,0,0.1-0.1,0.1-0.2c0-0.3-0.2-0.5-0.5-0.5c-0.4,0-0.8,0.4-0.8,0.7c0,0.1,0.1,0.2,0.5,0.2H138.8
		z"/>
	<path d="M141.3,303.7c0-0.4,0-0.5-0.2-0.6l-0.2-0.1c-0.1-0.1-0.1-0.2,0-0.3c0.4-0.1,1-0.3,1.5-0.6c0.1,0,0.1,0,0.2,0.1
		c0,0.4,0,0.8,0,1.5v4.5c0,0.7,0,0.8,0.4,0.8l0.2,0c0.1,0.1,0.1,0.3,0,0.3c-0.3,0-0.7,0-1.2,0c-0.4,0-0.8,0-1.2,0
		c-0.1-0.1-0.1-0.3,0-0.3l0.2,0c0.3,0,0.4-0.1,0.4-0.8V303.7z"/>
	<path d="M144.1,303.7c0-0.4,0-0.5-0.2-0.6l-0.2-0.1c-0.1-0.1-0.1-0.2,0-0.3c0.4-0.1,1-0.3,1.5-0.6c0.1,0,0.1,0,0.2,0.1
		c0,0.4,0,0.8,0,1.5v4.5c0,0.7,0,0.8,0.4,0.8l0.2,0c0.1,0.1,0.1,0.3,0,0.3c-0.3,0-0.7,0-1.2,0c-0.4,0-0.8,0-1.2,0
		c-0.1-0.1-0.1-0.3,0-0.3l0.2,0c0.3,0,0.4-0.1,0.4-0.8V303.7z"/>
	<path d="M146.9,306.6c0-0.4,0-0.5-0.2-0.6l-0.1-0.1c-0.1-0.1-0.1-0.2,0-0.3c0.5-0.1,1.2-0.4,1.5-0.6c0.1,0,0.1,0,0.2,0.1
		c0,0.1,0,0.4,0,0.4c0,0.1,0,0.1,0.1,0.1c0,0,0.1,0,0.2-0.1c0.2-0.1,0.7-0.4,1.1-0.4c0.4,0,0.7,0.1,0.9,0.4c0.1,0.1,0.2,0.2,0.2,0.2
		c0,0,0.1-0.1,0.3-0.2c0.2-0.1,0.6-0.4,1.1-0.4c0.8,0,1.2,0.6,1.2,1.3v1.7c0,0.7,0,0.8,0.4,0.8l0.2,0c0.1,0.1,0.1,0.3,0,0.3
		c-0.3,0-0.7,0-1.2,0c-0.4,0-0.8,0-1.1,0c-0.1-0.1-0.1-0.3,0-0.3l0.2,0c0.2,0,0.3-0.1,0.3-0.7v-1.7c0-0.4-0.2-0.7-0.7-0.7
		c-0.3,0-0.5,0.1-0.6,0.2c0,0.1-0.1,0.2-0.1,0.3v1.8c0,0.5,0,0.6,0.3,0.7l0.2,0c0.1,0.1,0.1,0.3,0,0.3c-0.3,0-0.6,0-1.1,0
		c-0.4,0-0.8,0-1.1,0c-0.1-0.1-0.1-0.3,0-0.3l0.2,0c0.2,0,0.3-0.1,0.3-0.7v-1.7c0-0.4-0.2-0.7-0.7-0.7c-0.3,0-0.5,0.1-0.5,0.2
		c-0.1,0.1-0.1,0.2-0.1,0.4v1.8c0,0.5,0,0.6,0.3,0.7l0.2,0c0.1,0.1,0.1,0.3,0,0.3c-0.3,0-0.6,0-1.1,0c-0.4,0-0.8,0-1.1,0
		c-0.1-0.1-0.1-0.3,0-0.3l0.2,0c0.3,0,0.4-0.1,0.4-0.8V306.6z"/>
	<path d="M157.9,307.9c0,0.7,0.2,0.9,0.4,0.9c0.1,0,0.2,0,0.4-0.1c0.1,0,0.1,0.1,0.1,0.2c-0.1,0.2-0.6,0.5-1.2,0.5
		c-0.3,0-0.6-0.1-0.8-0.3c-0.1-0.1-0.1-0.1-0.2-0.1c0,0-0.1,0-0.2,0.1c-0.2,0.1-0.5,0.3-0.8,0.3c-0.6,0-1.1-0.3-1.1-1
		c0-0.5,0.3-0.8,1-1c0.4-0.1,0.7-0.2,0.9-0.3c0.2,0,0.2-0.1,0.2-0.2c0-0.1,0-0.2,0-0.3c0-0.4-0.1-0.9-0.6-0.9
		c-0.2,0-0.4,0.1-0.5,0.6c0,0.2-0.1,0.2-0.2,0.3c-0.1,0.1-0.5,0.2-0.7,0.2c-0.2,0-0.2-0.1-0.2-0.2c0-0.3,0.2-0.6,0.5-0.8
		c0.3-0.3,1-0.6,1.7-0.6c0.8,0,1.3,0.4,1.3,1.4L157.9,307.9z M156.7,307.7c0-0.2,0-0.2-0.1-0.2c-0.4,0.1-0.8,0.2-0.8,0.7
		c0,0.3,0.2,0.6,0.5,0.6c0.3,0,0.4-0.2,0.4-0.5L156.7,307.7z"/>
	<path d="M159.4,306.6c0-0.4,0-0.5-0.2-0.6l-0.1-0.1c-0.1-0.1-0.1-0.2,0-0.3c0.5-0.1,1.2-0.4,1.5-0.6c0.1,0,0.1,0,0.2,0.1
		c0,0.1,0,0.4,0,0.4c0,0.1,0,0.1,0.1,0.1c0,0,0.1,0,0.2-0.1c0.2-0.1,0.7-0.4,1.1-0.4c0.8,0,1.2,0.6,1.2,1.3v1.7c0,0.7,0,0.8,0.4,0.8
		l0.2,0c0.1,0.1,0.1,0.3,0,0.3c-0.3,0-0.7,0-1.2,0c-0.4,0-0.8,0-1.1,0c-0.1-0.1-0.1-0.3,0-0.3l0.2,0c0.2,0,0.3-0.1,0.3-0.7v-1.7
		c0-0.4-0.2-0.7-0.7-0.7c-0.3,0-0.5,0.1-0.6,0.2c-0.1,0.1-0.1,0.2-0.1,0.4v1.8c0,0.5,0,0.6,0.3,0.7l0.2,0c0.1,0.1,0.1,0.3,0,0.3
		c-0.3,0-0.6,0-1.1,0c-0.4,0-0.8,0-1.2,0c-0.1-0.1-0.1-0.3,0-0.3l0.2,0c0.4,0,0.4-0.1,0.4-0.8V306.6z"/>
</g>
<line class="st13" x1="182.7" y1="185.1" x2="222.2" y2="185.1"/>
<rect x="62.5" y="167.1" class="st6" width="140.9" height="104.5"/>
<g>
	<path class="st14" d="M78.1,212c-2.6,0-4.7,2.1-4.7,4.7s2.1,4.7,4.7,4.7s4.7-2.1,4.7-4.7S80.7,212,78.1,212z M78.1,219.9
		c-1.7,0-3.1-1.4-3.1-3.1c0-1.7,1.4-3.1,3.1-3.1c1.7,0,3.1,1.4,3.1,3.1C81.2,218.5,79.8,219.9,78.1,219.9z"/>
	<path class="st14" d="M78.1,229.2L78.1,229.2c-3.5,0-6.3-2.8-6.3-6.3v-4.7c0-0.9,0.7-1.6,1.6-1.6h9.4c0.9,0,1.6,0.7,1.6,1.6v4.7
		C84.4,226.4,81.6,229.2,78.1,229.2z"/>
	<path class="st15" d="M79.4,221.6c0-0.7-0.6-1.3-1.3-1.3s-1.3,0.6-1.3,1.3c0,0.4,0.2,0.7,0.5,1v2.7h1.6v-2.7
		C79.2,222.4,79.4,222,79.4,221.6z"/>
</g>
<g>
	<path class="st14" d="M78.1,351.1c-2.6,0-4.7,2.1-4.7,4.7c0,2.6,2.1,4.7,4.7,4.7s4.7-2.1,4.7-4.7C82.8,353.2,80.7,351.1,78.1,351.1
		z M78.1,359c-1.7,0-3.1-1.4-3.1-3.1s1.4-3.1,3.1-3.1c1.7,0,3.1,1.4,3.1,3.1S79.8,359,78.1,359z"/>
	<path class="st14" d="M78.1,368.3L78.1,368.3c-3.5,0-6.3-2.8-6.3-6.3v-4.7c0-0.9,0.7-1.6,1.6-1.6h9.4c0.9,0,1.6,0.7,1.6,1.6v4.7
		C84.4,365.5,81.6,368.3,78.1,368.3z"/>
	<path class="st15" d="M79.4,360.7c0-0.7-0.6-1.3-1.3-1.3s-1.3,0.6-1.3,1.3c0,0.4,0.2,0.7,0.5,1v2.7h1.6v-2.7
		C79.2,361.5,79.4,361.1,79.4,360.7z"/>
</g>
<g>
	<path class="st16" d="M78.1,370.6c-2.6,0-4.7,2.1-4.7,4.7c0,2.6,2.1,4.7,4.7,4.7s4.7-2.1,4.7-4.7C82.8,372.7,80.7,370.6,78.1,370.6
		z M78.1,378.4c-1.7,0-3.1-1.4-3.1-3.1s1.4-3.1,3.1-3.1c1.7,0,3.1,1.4,3.1,3.1S79.8,378.4,78.1,378.4z"/>
	<path class="st16" d="M78.1,387.8L78.1,387.8c-3.5,0-6.3-2.8-6.3-6.3v-4.7c0-0.9,0.7-1.6,1.6-1.6h9.4c0.9,0,1.6,0.7,1.6,1.6v4.7
		C84.4,385,81.6,387.8,78.1,387.8z"/>
	<path class="st17" d="M79.4,380.1c0-0.7-0.6-1.3-1.3-1.3s-1.3,0.6-1.3,1.3c0,0.4,0.2,0.7,0.5,1v2.7h1.6v-2.7
		C79.2,380.9,79.4,380.5,79.4,380.1z"/>
</g>
<g>
	<path class="st14" d="M78.1,495.9c-2.6,0-4.7,2.1-4.7,4.7c0,2.6,2.1,4.7,4.7,4.7s4.7-2.1,4.7-4.7C82.8,498,80.7,495.9,78.1,495.9z
		 M78.1,503.8c-1.7,0-3.1-1.4-3.1-3.1s1.4-3.1,3.1-3.1c1.7,0,3.1,1.4,3.1,3.1S79.8,503.8,78.1,503.8z"/>
	<path class="st14" d="M78.1,513.1L78.1,513.1c-3.5,0-6.3-2.8-6.3-6.3v-4.7c0-0.9,0.7-1.6,1.6-1.6h9.4c0.9,0,1.6,0.7,1.6,1.6v4.7
		C84.4,510.3,81.6,513.1,78.1,513.1z"/>
	<path class="st15" d="M79.4,505.5c0-0.7-0.6-1.3-1.3-1.3s-1.3,0.6-1.3,1.3c0,0.4,0.2,0.7,0.5,1v2.7h1.6v-2.7
		C79.2,506.3,79.4,505.9,79.4,505.5z"/>
</g>
<g>
	<path class="st18" d="M78.1,534.8c-2.6,0-4.7,2.1-4.7,4.7c0,2.6,2.1,4.7,4.7,4.7s4.7-2.1,4.7-4.7C82.8,536.9,80.7,534.8,78.1,534.8
		z M78.1,542.6c-1.7,0-3.1-1.4-3.1-3.1c0-1.7,1.4-3.1,3.1-3.1c1.7,0,3.1,1.4,3.1,3.1C81.2,541.2,79.8,542.6,78.1,542.6z"/>
	<path class="st18" d="M78.1,552L78.1,552c-3.5,0-6.3-2.8-6.3-6.3v-4.7c0-0.9,0.7-1.6,1.6-1.6h9.4c0.9,0,1.6,0.7,1.6,1.6v4.7
		C84.4,549.2,81.6,552,78.1,552z"/>
	<path class="st19" d="M79.4,544.4c0-0.7-0.6-1.3-1.3-1.3s-1.3,0.6-1.3,1.3c0,0.4,0.2,0.7,0.5,1v2.7h1.6v-2.7
		C79.2,545.1,79.4,544.8,79.4,544.4z"/>
</g>
<line class="st20" x1="224.7" y1="389.7" x2="184.2" y2="400"/>
<line class="st20" x1="385.5" y1="348.2" x2="342.4" y2="360.3"/>
<line class="st20" x1="385.5" y1="312.5" x2="342.4" y2="312.5"/>
<line class="st20" x1="384.3" y1="399.7" x2="342" y2="389.2"/>
<line class="st20" x1="224.4" y1="360" x2="183.3" y2="349.8"/>
<line class="st20" x1="225" y1="312.5" x2="182.7" y2="312.9"/>
<g>
	<g>
		<g>
			<line class="st10" x1="66.1" y1="524.8" x2="176" y2="524.8"/>
			<g>
				<path d="M62.5,524.8c1.7,0.6,3.8,1.7,5.1,2.9l-1-2.9l1-2.9C66.3,523.1,64.2,524.2,62.5,524.8z"/>
			</g>
			<g>
				<path d="M179.6,524.8c-1.7,0.6-3.8,1.7-5.1,2.9l1-2.9l-1-2.9C175.8,523.1,177.9,524.2,179.6,524.8z"/>
			</g>
		</g>
	</g>
	<g>
		<g>
			<line class="st10" x1="493.1" y1="524.4" x2="392.3" y2="524.4"/>
			<g>
				<path d="M496.7,524.4c-1.7-0.6-3.8-1.7-5.1-2.9l1,2.9l-1,2.9C492.9,526.1,495,525,496.7,524.4z"/>
			</g>
			<g>
				<path d="M388.7,524.4c1.7-0.6,3.8-1.7,5.1-2.9l-1,2.9l1,2.9C392.5,526.1,390.4,525,388.7,524.4z"/>
			</g>
		</g>
	</g>
	<g>
		<g>
			<line class="st10" x1="334.5" y1="524.4" x2="233.8" y2="524.4"/>
			<g>
				<path d="M338.2,524.4c-1.7-0.6-3.8-1.7-5.1-2.9l1,2.9l-1,2.9C334.3,526.1,336.5,525,338.2,524.4z"/>
			</g>
			<g>
				<path d="M230.2,524.4c1.7-0.6,3.8-1.7,5.1-2.9l-1,2.9l1,2.9C234,526.1,231.9,525,230.2,524.4z"/>
			</g>
		</g>
	</g>
	<line class="st20" x1="385.5" y1="524.4" x2="342.4" y2="524.4"/>
	<g>
		<g>
			<line class="st10" x1="611.3" y1="524.4" x2="546.8" y2="524.4"/>
			<g>
				<path d="M615,524.4c-1.7-0.6-3.8-1.7-5.1-2.9l1,2.9l-1,2.9C611.1,526.1,613.3,525,615,524.4z"/>
			</g>
			<g>
				<path d="M543.2,524.4c1.7-0.6,3.8-1.7,5.1-2.9l-1,2.9l1,2.9C547,526.1,544.9,525,543.2,524.4z"/>
			</g>
		</g>
	</g>
	<line class="st20" x1="540" y1="524.4" x2="496.8" y2="524.4"/>
	<line class="st20" x1="225" y1="524.4" x2="182.7" y2="524.8"/>
</g>
<g>
	<path class="st16" d="M78.1,515.4c-2.6,0-4.7,2.1-4.7,4.7c0,2.6,2.1,4.7,4.7,4.7s4.7-2.1,4.7-4.7C82.8,517.5,80.7,515.4,78.1,515.4
		z M78.1,523.2c-1.7,0-3.1-1.4-3.1-3.1c0-1.7,1.4-3.1,3.1-3.1c1.7,0,3.1,1.4,3.1,3.1C81.2,521.8,79.8,523.2,78.1,523.2z"/>
	<path class="st16" d="M78.1,532.6L78.1,532.6c-3.5,0-6.3-2.8-6.3-6.3v-4.7c0-0.9,0.7-1.6,1.6-1.6h9.4c0.9,0,1.6,0.7,1.6,1.6v4.7
		C84.4,529.8,81.6,532.6,78.1,532.6z"/>
	<path class="st17" d="M79.4,525c0-0.7-0.6-1.3-1.3-1.3s-1.3,0.6-1.3,1.3c0,0.4,0.2,0.7,0.5,1v2.7h1.6v-2.7
		C79.2,525.7,79.4,525.4,79.4,525z"/>
</g>
<rect x="62.5" y="293.7" class="st6" width="141.8" height="148.2"/>
<path class="st21" d="M168,306.8h328.1c4.9,0,8.9,3.4,8.9,7.7v110c0,4.2-4,7.7-8.9,7.7H76.4c-4.9,0-8.9-3.4-8.9-7.7v-110
	c0-4.2,4-7.7,8.9-7.7h21.7"/>
<g>
	<circle class="st22" cx="26.4" cy="116" r="9"/>
	<g>
		<path d="M27.4,118.9c0,1.2,0.1,1.4,0.8,1.4l0.6,0c0.1,0.1,0.1,0.5,0,0.5c-0.5,0-1.4,0-2.4,0c-1,0-1.9,0-2.4,0
			c-0.1,0-0.2-0.4,0-0.5l0.6,0c0.7-0.1,0.8-0.2,0.8-1.4v-4.8c0-1-0.1-1.2-0.7-1.3l-0.7-0.1c-0.1-0.1-0.1-0.4,0-0.5
			c0.6-0.1,1.3-0.3,1.9-0.4c0.7-0.2,1.2-0.5,1.3-0.5c0.1,0,0.2,0,0.2,0.2c0,0.3,0,1,0,1.8V118.9z"/>
	</g>
</g>
<g>
	<circle class="st22" cx="26.4" cy="217.6" r="9"/>
	<g>
		<path d="M27.6,220.8c1.1,0,1.3,0,1.7-0.8c0.1-0.1,0.4-0.1,0.5,0.1c-0.1,0.9-0.5,2-0.7,2.3c-0.6,0-1.1,0-2.1,0h-2.4
			c-0.8,0-1.4,0-1.7,0c-0.1,0-0.2-0.2-0.2-0.3c0.6-0.5,1.4-1.3,2.3-2.3c1-1.1,2-2.4,2-4c0-1-0.6-1.8-1.6-1.8c-0.9,0-1.5,0.6-1.9,1.4
			c-0.2,0.1-0.5,0-0.5-0.2c0.6-1.5,2-2.3,3.4-2.3c1.8,0,2.8,1.1,2.8,2.5c0,1.2-0.5,2-2.3,3.7l-0.7,0.7c-0.7,0.6-0.8,0.8-0.8,0.9
			c0,0.1,0.1,0.2,0.3,0.2H27.6z"/>
	</g>
</g>
<g>
	<circle class="st22" cx="26.4" cy="366.3" r="9"/>
	<g>
		<path d="M23.8,363.7c-0.2,0.1-0.4-0.1-0.4-0.3c0.6-1.2,1.8-1.9,3.1-1.9c1.5,0,2.4,0.7,2.4,1.7c0,0.6-0.3,1.2-1.9,1.9
			c-0.2,0.1-0.1,0.2,0.1,0.2c1.4,0,2.5,0.9,2.5,2.3c0,1.1-0.5,2.2-1.7,3.1c-1.3,0.9-2.7,1.2-3.5,1.2s-1.6-0.3-1.6-1.1
			c0-0.4,0.3-0.8,0.9-0.8c0.5,0,0.9,0.6,1,0.8c0.2,0.3,0.4,0.3,0.6,0.3c0.6,0,2-0.9,2-2.7c0-1.3-0.7-2.3-1.8-2.3
			c-0.6,0-1.1,0.3-1.5,0.6c-0.3-0.1-0.5-0.4-0.3-0.7c0.6-0.2,1.8-0.7,2.4-1.2c0.3-0.2,0.6-0.7,0.6-1.3c0-0.6-0.5-1.1-1.2-1.1
			C24.9,362.5,24.3,363.1,23.8,363.7z"/>
	</g>
</g>
<g>
	<circle class="st22" cx="26.4" cy="523.9" r="9"/>
	<g>
		<path d="M26,526.7c0-0.4,0-0.5-0.4-0.5h-3.7c-0.2-0.1-0.2-0.3-0.2-0.5l5.2-7.4c0.2-0.3,0.3-0.4,0.5-0.4h0.5c0.3,0,0.4,0.1,0.2,0.4
			l-4.8,6.7c-0.1,0.2-0.2,0.3,0.4,0.3h2c0.3,0,0.4,0,0.4-0.5v-2.2c0-0.4,0.1-0.5,0.4-0.6c0.4-0.2,1.3-0.5,1.6-0.5
			c0.1,0,0.2,0.1,0.2,0.3v3c0,0.4,0,0.5,0.4,0.5h1.1c0.2,0.1,0.2,0.8,0,0.9h-1.1c-0.3,0-0.4,0-0.4,0.5v0.4c0,1.3,0.1,1.5,0.8,1.5
			l0.3,0c0.1,0.1,0.1,0.5,0,0.6c-0.6,0-1.4,0-2.2,0c-1.1,0-2,0-2.6,0c-0.2,0-0.2-0.5,0-0.6l0.7,0c0.8-0.1,0.9-0.2,0.9-1.5V526.7z"/>
	</g>
</g>
<g>
	<g>
		<g>
			<path d="M346.3,19c0-0.4,0-0.5-0.4-0.5h-1c-1.2,0-1.5,0.6-2,1.8c-0.2,0.1-0.5,0.1-0.6-0.1c0.3-1.1,0.4-2.1,0.5-2.7
				c0.1,0,0.1-0.1,0.2-0.1s0.2,0,0.2,0.1c0.1,0.3,0.1,0.3,1.3,0.3h6c1.1,0,1.3,0,1.4-0.4c0.1,0,0.1,0,0.2,0c0.1,0,0.2,0.1,0.2,0.1
				c-0.2,0.5-0.3,1.8-0.2,2.8c-0.1,0.1-0.5,0.2-0.6,0c-0.3-1-0.5-1.8-1.7-1.8h-1c-0.4,0-0.4,0-0.4,0.5v7.1c0,1.5,0.1,1.6,0.8,1.7
				l0.6,0.1c0.1,0.1,0.1,0.5,0,0.6c-1,0-1.8,0-2.6,0c-0.8,0-1.6,0-2.7,0c-0.1-0.1-0.1-0.5,0-0.6l0.7-0.1c0.7-0.1,0.8-0.2,0.8-1.7V19
				z"/>
			<path d="M364,23.1c0,3.5-2.3,5.6-5.8,5.6c-3.2,0-5.6-2.1-5.6-5.5c0-3.2,2.4-5.6,5.7-5.6C361.7,17.6,364,19.8,364,23.1z
				 M358.2,18.3c-2,0-3,1.8-3,4.5c0,2,0.7,5.1,3.3,5.1c2.1,0,2.9-2,2.9-4.6C361.4,20.6,360.2,18.3,358.2,18.3z"/>
			<path d="M366.4,20.4c0-1.6,0-1.8-0.7-1.9l-0.4-0.1c-0.2-0.1-0.2-0.5,0-0.6c1.2-0.1,2.4-0.1,4-0.1c1.4,0,2.5,0.2,3.1,0.6
				c0.9,0.5,1.4,1.3,1.4,2.4c0,1.4-1,2-1.7,2.4c-0.2,0.1-0.2,0.2-0.1,0.4c1.1,2.1,1.7,3.3,2.5,4c0.4,0.3,0.8,0.4,1.1,0.4
				c0.1,0.1,0.1,0.3,0.1,0.4c-0.3,0.1-0.8,0.1-1.3,0.1c-1.5,0-2.4-0.5-3.1-1.7c-0.5-0.8-0.9-1.6-1.2-2.5c-0.2-0.4-0.4-0.6-0.8-0.6
				c-0.6,0-0.6,0-0.6,0.4v2c0,1.5,0.1,1.6,0.8,1.7l0.4,0.1c0.1,0.1,0.1,0.5,0,0.6c-0.8,0-1.6,0-2.4,0c-0.8,0-1.5,0-2.3,0
				c-0.1-0.1-0.1-0.5,0-0.6l0.4-0.1c0.7-0.1,0.8-0.2,0.8-1.7V20.4z M368.6,22.5c0,0.6,0,0.6,1,0.6c0.6,0,0.9-0.1,1.2-0.4
				c0.3-0.3,0.6-0.8,0.6-1.7c0-1.4-0.8-2.4-2.1-2.4c-0.7,0-0.7,0-0.7,0.8V22.5z"/>
		</g>
	</g>
	<polyline class="st10" points="332.5,23 125.6,23 125.6,41.2 	"/>
	<polyline class="st10" points="387.5,23 594.4,23 594.4,41.2 	"/>
</g>
<path class="st23" d="M681.5,509.6c-1.1,0-2.2,0.1-3.2,0.3c-1.1-7.2-7.3-12.8-14.9-12.8c-2.8,0-5.4,0.8-7.6,2.1
	c-2.8-2.9-6.7-4.7-11-4.7c-8.4,0-15.1,6.8-15.1,15.1c0,0.7,0.1,1.4,0.2,2.1c-0.1,0-0.2,0-0.3,0c-8.1,0-14.7,6.6-14.7,14.7
	c0,8.1,6.6,14.7,14.7,14.7c0.2,0,0.4,0,0.6,0c1.5,5.4,6.5,9.4,12.4,9.4c3.5,0,6.6-1.4,8.9-3.6c2.5,3.2,6.4,5.2,10.8,5.2
	c5.8,0,10.8-3.6,12.8-8.6c2,0.8,4.2,1.2,6.4,1.2c9.7,0,17.5-7.8,17.5-17.5C699,517.5,691.2,509.6,681.5,509.6z"/>
<g>
	<path d="M625.5,527.3c0,1.1,0,1.6,0.4,1.6c0.1,0,0.4-0.1,0.6-0.1c0.1,0,0.1,0.4,0,0.4c-0.6,0.1-1.4,0.3-1.8,0.4
		c-0.1,0-0.1,0-0.1-0.1v-0.2c0-0.2,0-0.4,0-0.4h-0.1c-0.6,0.4-1.1,0.6-1.7,0.6c-1.5,0-2.5-1.2-2.5-2.6c0-1.9,1.4-3.1,3.3-3.1
		c0.5,0,0.8,0.1,0.9,0.1c0.1,0,0.1-0.1,0.1-0.2v-2c0-0.8,0-0.9-0.4-1.1l-0.1-0.1c-0.1,0-0.1-0.2,0-0.3c0.3-0.1,1-0.3,1.5-0.6
		c0.1,0,0.1,0,0.1,0.1c0,0.4,0,1.1,0,1.7V527.3z M624.5,525.3c0-0.3-0.1-0.4-0.1-0.5c-0.2-0.3-0.6-0.6-1.1-0.6
		c-1.2,0-1.9,1.1-1.9,2.2c0,1.2,0.7,2.4,2,2.4c0.4,0,0.8-0.2,1-0.4c0.1-0.1,0.1-0.3,0.1-0.5V525.3z"/>
	<path d="M627.9,525.4c0-0.5,0-0.6-0.4-0.8l-0.1-0.1c-0.1-0.1-0.1-0.2,0-0.2c0.3-0.1,1.1-0.5,1.4-0.7c0.1,0,0.1,0,0.1,0.1
		c0,0.5-0.1,1.1-0.1,1.7v2.4c0,1,0,1.1,0.5,1.2l0.3,0c0.1,0.1,0.1,0.3,0,0.3c-0.4,0-0.8,0-1.3,0c-0.5,0-0.9,0-1.3,0
		c-0.1,0-0.1-0.3,0-0.3l0.3,0c0.5-0.1,0.5-0.2,0.5-1.2V525.4z M629.1,521.6c0,0.5-0.3,0.7-0.7,0.7c-0.4,0-0.7-0.3-0.7-0.7
		c0-0.4,0.3-0.7,0.7-0.7S629.1,521.2,629.1,521.6z"/>
	<path d="M633.8,524.1c0.1,0.3,0.2,0.7,0.2,1.1c-0.1,0.1-0.3,0.1-0.3,0c-0.2-0.6-0.6-1-1.2-1c-0.5,0-0.9,0.3-0.9,0.8
		c0,0.6,0.6,0.8,1,1.1c0.7,0.4,1.4,0.9,1.4,1.8c0,1-0.9,1.5-1.9,1.5c-0.6,0-1.1-0.1-1.4-0.4c-0.1-0.3-0.2-0.9-0.2-1.4
		c0.1-0.1,0.2-0.1,0.3,0c0.2,0.7,0.7,1.4,1.4,1.4c0.5,0,0.9-0.3,0.9-0.9c0-0.6-0.5-1-1-1.2c-0.8-0.4-1.3-0.9-1.3-1.7
		c0-1,0.8-1.5,1.8-1.5C633.2,523.8,633.7,523.9,633.8,524.1z"/>
	<path d="M635.8,525.4c0-0.5,0-0.6-0.4-0.8l-0.1-0.1c-0.1-0.1-0.1-0.2,0-0.2c0.3-0.1,1-0.5,1.4-0.7c0.1,0,0.1,0,0.1,0.1v0.8
		c0,0.1,0,0.1,0,0.1c0.5-0.4,1-0.8,1.5-0.8c0.3,0,0.6,0.2,0.6,0.5c0,0.4-0.4,0.6-0.6,0.6c-0.1,0-0.2,0-0.3-0.1
		c-0.2-0.1-0.4-0.2-0.6-0.2c-0.2,0-0.4,0.1-0.5,0.3c-0.1,0.2-0.2,0.6-0.2,1v1.8c0,1,0,1.1,0.5,1.2l0.5,0c0.1,0.1,0.1,0.3,0,0.3
		c-0.6,0-1,0-1.5,0c-0.5,0-0.9,0-1.2,0c-0.1,0-0.1-0.3,0-0.3l0.3,0c0.5-0.1,0.5-0.2,0.5-1.2V525.4z"/>
	<path d="M641.2,527.3c0,0.9,0.2,1.5,1.3,1.5c0.4,0,0.8-0.1,1.1-0.4c0.2-0.2,0.3-0.4,0.3-0.8v-2.2c0-0.9-0.1-0.9-0.5-1.1l-0.2-0.1
		c-0.1-0.1-0.1-0.2,0-0.3c0.5,0,1.3-0.1,1.6-0.2c0.1,0,0.1,0,0.1,0.1c0,0.3,0,0.7,0,1.2v2.3c0,1.1,0,1.5,0.4,1.5
		c0.2,0,0.3,0,0.5-0.1c0.1,0.1,0.1,0.3,0,0.4c-0.5,0.1-1.3,0.2-1.8,0.5c-0.1,0-0.1,0-0.2-0.1V529c0-0.1,0-0.2-0.1-0.2
		c-0.4,0.3-1.1,0.7-1.9,0.7c-1.2,0-1.6-0.6-1.6-1.7v-2.2c0-0.8,0-1-0.4-1.1l-0.2-0.1c-0.1-0.1-0.1-0.3,0-0.3c0.6,0,1.1-0.1,1.4-0.2
		c0.1,0,0.1,0,0.1,0.1c0,0.2,0,0.5,0,1.2V527.3z"/>
	<path d="M647.1,525.4c0-0.5,0-0.6-0.4-0.8l-0.1-0.1c-0.1-0.1-0.1-0.2,0-0.2c0.3-0.1,1-0.5,1.3-0.7c0.1,0,0.1,0,0.2,0.1
		c0,0.2-0.1,0.4-0.1,0.6c0,0.1,0,0.2,0.1,0.2c0.2-0.1,1-0.6,1.9-0.6c1.4,0,2.2,1.1,2.2,2.5c0,1.9-1.4,3.2-3.3,3.2
		c-0.2,0-0.6,0-0.7-0.1c-0.1,0-0.2,0.1-0.2,0.4v1.4c0,1,0,1.1,0.5,1.1l0.5,0.1c0.1,0.1,0.1,0.3,0,0.3c-0.6,0-1,0-1.5,0
		c-0.5,0-0.9,0-1.3,0c-0.1,0-0.1-0.3,0-0.3l0.3,0c0.5-0.1,0.5-0.2,0.5-1.2V525.4z M648.1,527.9c0,0.4,0.1,0.6,0.4,0.8
		c0.3,0.2,0.7,0.3,1,0.3c1.1,0,1.8-1,1.8-2.4c0-1.1-0.6-2.2-1.8-2.2c-0.6,0-1,0.2-1.1,0.4c-0.1,0.1-0.2,0.3-0.2,0.8V527.9z"/>
	<path d="M655.2,524.6c-0.2,0-0.2,0-0.2,0.3v2.5c0,0.8,0.1,1.5,1,1.5c0.1,0,0.3,0,0.4-0.1c0.1,0,0.3-0.2,0.3-0.2
		c0.1,0,0.2,0.1,0.1,0.2c-0.2,0.3-0.7,0.6-1.4,0.6c-1.2,0-1.4-0.6-1.4-1.5V525c0-0.4,0-0.4-0.3-0.4h-0.4c-0.1-0.1-0.1-0.2,0-0.3
		c0.4-0.1,0.7-0.3,0.9-0.4c0.2-0.2,0.4-0.5,0.6-0.8c0.1,0,0.2,0,0.3,0.1v0.6c0,0.2,0,0.3,0.2,0.3h1.5c0.2,0.1,0.1,0.5,0,0.6H655.2z"
		/>
	<path d="M658.2,525.4c0-0.5,0-0.6-0.4-0.8l-0.1-0.1c-0.1-0.1-0.1-0.2,0-0.2c0.3-0.1,1.1-0.5,1.4-0.7c0.1,0,0.1,0,0.1,0.1
		c0,0.5-0.1,1.1-0.1,1.7v3.3c0,1-0.1,1.6-0.3,2.1c-0.4,1-1.1,1.6-2,2.2c-0.2,0-0.2-0.2-0.2-0.3c0.4-0.2,0.6-0.4,0.8-0.6
		c0.5-0.6,0.7-1.5,0.7-3.2V525.4z M659.4,521.6c0,0.5-0.3,0.7-0.7,0.7c-0.4,0-0.7-0.3-0.7-0.7c0-0.4,0.3-0.7,0.7-0.7
		C659.1,520.9,659.4,521.2,659.4,521.6z"/>
	<path d="M664.6,528.5c0.6,0,1-0.1,1.3-0.3c0.3-0.2,0.4-0.4,0.4-0.6c0.1,0,0.2,0,0.3,0.1c-0.2,0.7-0.4,1.4-0.6,1.6
		c-0.6,0-1.1,0-1.7,0h-2c-0.8,0-1.2,0-1.5,0c0,0-0.1-0.1-0.1-0.2c0,0,0.1-0.1,0.1-0.1c0.6-0.4,1.1-0.9,2.1-1.9
		c0.9-1,1.9-2.3,1.9-3.7c0-1.2-0.6-2-1.7-2c-0.8,0-1.4,0.6-1.8,1.3c-0.1,0.1-0.3,0-0.3-0.2c0.4-1.2,1.5-1.9,2.7-1.9
		c1.3,0,2.2,0.9,2.2,2.2c0,0.8-0.4,1.8-1.4,3l-0.8,0.9c-1.1,1.3-1.2,1.5-1.2,1.6c0,0.1,0.1,0.1,0.4,0.1H664.6z"/>
	<path d="M673.2,525.1c0,2.1-0.8,4.4-2.8,4.4s-2.8-2.3-2.8-4.4c0-2,0.8-4.4,2.8-4.4S673.2,523.1,673.2,525.1z M668.8,525.1
		c0,1.3,0.1,4,1.6,4s1.6-2.7,1.6-4s-0.1-4-1.6-4S668.8,523.8,668.8,525.1z"/>
	<path d="M674.7,528.8c0-0.5,0.3-0.8,0.8-0.8c0.5,0,0.8,0.4,0.8,0.8c0,0.4-0.3,0.7-0.8,0.7C675.1,529.5,674.7,529.2,674.7,528.8z"/>
	<path d="M683.2,526.6c0,1.7-1.2,2.9-2.8,2.9c-1.5,0-2.8-1.1-2.8-2.8c0-1.7,1.3-2.9,2.9-2.9C682,523.8,683.2,524.9,683.2,526.6z
		 M680.3,524.2c-0.9,0-1.6,0.8-1.6,2.3c0,1.2,0.6,2.5,1.7,2.5s1.5-1.2,1.5-2.3C682.1,525.7,681.6,524.2,680.3,524.2z"/>
	<path d="M685,525.4c0-0.5,0-0.6-0.4-0.8l-0.1-0.1c-0.1-0.1-0.1-0.2,0-0.2c0.3-0.1,1-0.5,1.4-0.7c0.1,0,0.1,0,0.1,0.1v0.8
		c0,0.1,0,0.1,0,0.1c0.5-0.4,1-0.8,1.5-0.8c0.3,0,0.6,0.2,0.6,0.5c0,0.4-0.4,0.6-0.6,0.6c-0.1,0-0.2,0-0.3-0.1
		c-0.2-0.1-0.4-0.2-0.6-0.2c-0.2,0-0.4,0.1-0.5,0.3c-0.1,0.2-0.2,0.6-0.2,1v1.8c0,1,0,1.1,0.5,1.2l0.5,0c0.1,0.1,0.1,0.3,0,0.3
		c-0.6,0-1,0-1.5,0c-0.5,0-0.9,0-1.2,0c-0.1,0-0.1-0.3,0-0.3l0.3,0c0.5-0.1,0.5-0.2,0.5-1.2V525.4z"/>
	<path d="M694.2,524.3c0.1,0.1,0.1,0.5-0.1,0.6h-1c0,0.2,0,0.5,0,0.7c0,0.9-0.6,2.1-2.3,2.1c-0.2,0-0.4,0-0.6,0
		c-0.2,0.1-0.6,0.3-0.6,0.7c0,0.3,0.3,0.6,0.9,0.6c0.5,0,1,0,1.6,0c0.8,0,1.9,0.1,1.9,1.5c0,1.5-1.6,2.5-3.4,2.5
		c-1.7,0-2.2-0.9-2.2-1.6c0-0.2,0.1-0.4,0.1-0.5c0.2-0.2,0.6-0.6,0.9-0.9c0.1-0.1,0.2-0.2,0.1-0.3c-0.5-0.1-1-0.6-1-1.1
		c0-0.1,0.1-0.1,0.2-0.2c0.2-0.1,0.5-0.4,0.7-0.6c0.1-0.1,0.1-0.2,0.1-0.3c-0.5-0.2-1-0.8-1-1.6c0-1.2,1-2,2.2-2
		c0.5,0,1,0.1,1.3,0.3c0.4,0.2,0.5,0.2,0.8,0.2H694.2z M691.4,529.7c-0.4,0-1,0-1.2,0.1c-0.3,0.2-0.6,0.6-0.6,1.1
		c0,0.7,0.6,1.3,1.8,1.3c1.2,0,2-0.7,2-1.4c0-0.8-0.6-1.2-1.5-1.2H691.4z M692.2,525.9c0-0.9-0.4-1.7-1.2-1.7
		c-0.6,0-1.1,0.6-1.1,1.5c0,1,0.6,1.6,1.2,1.6C691.8,527.3,692.2,526.7,692.2,525.9z"/>
</g>
</svg>
