<?xml version="1.0" encoding="UTF-8" standalone="no"?>
<!-- Generator: Adobe Illustrator 22.1.0, SVG Export Plug-In . SVG Version: 6.00 Build 0)  -->

<svg
   xmlns:dc="http://purl.org/dc/elements/1.1/"
   xmlns:cc="http://creativecommons.org/ns#"
   xmlns:rdf="http://www.w3.org/1999/02/22-rdf-syntax-ns#"
   xmlns:svg="http://www.w3.org/2000/svg"
   xmlns="http://www.w3.org/2000/svg"
   xmlns:sodipodi="http://sodipodi.sourceforge.net/DTD/sodipodi-0.dtd"
   xmlns:inkscape="http://www.inkscape.org/namespaces/inkscape"
   version="1.1"
   id="Layer_1"
   x="0px"
   y="0px"
   viewBox="0 0 432 288"
   style="enable-background:new 0 0 432 288;"
   xml:space="preserve"
   sodipodi:docname="anonymous-browsing-vpn.svg"
   inkscape:version="0.92.3 (2405546, 2018-03-11)"
   inkscape:export-filename="/home/user/defend--dissent/anonymous-browsing-vpn.png"
   inkscape:export-xdpi="300"
   inkscape:export-ydpi="300"><metadata
   id="metadata10685"><rdf:RDF><cc:Work
       rdf:about=""><dc:format>image/svg+xml</dc:format><dc:type
         rdf:resource="http://purl.org/dc/dcmitype/StillImage" /><dc:title></dc:title></cc:Work></rdf:RDF></metadata><defs
   id="defs10683" /><sodipodi:namedview
   pagecolor="#ffffff"
   bordercolor="#666666"
   borderopacity="1"
   objecttolerance="10"
   gridtolerance="10"
   guidetolerance="10"
   inkscape:pageopacity="0"
   inkscape:pageshadow="2"
   inkscape:window-width="3200"
   inkscape:window-height="1743"
   id="namedview10681"
   showgrid="false"
   inkscape:zoom="4.6354778"
   inkscape:cx="209.33412"
   inkscape:cy="134.96389"
   inkscape:window-x="0"
   inkscape:window-y="57"
   inkscape:window-maximized="0"
   inkscape:current-layer="Layer_1" />
<style
   type="text/css"
   id="style10290">
	.st0{fill:#153267;}
	.st1{fill:none;stroke:#005AC8;stroke-width:0.75;stroke-miterlimit:10;}
	.st2{fill:#005AC8;}
	.st3{fill:none;stroke:#000000;stroke-width:0.75;stroke-miterlimit:10;}
	.st4{fill:#F2F2F2;stroke:#999999;stroke-width:0.5;stroke-miterlimit:10;}
	.st5{fill:#F2F2F2;stroke:#999999;stroke-width:0.5372;stroke-miterlimit:10;}
	.st6{fill:#4D4D4D;}
	.st7{fill:#E6E6E6;}
	.st8{fill:#999999;}
	.st9{fill:#333333;}
	.st10{fill:#1A1A1A;}
	.st11{fill:#333333;stroke:#000000;stroke-width:0.2203;stroke-miterlimit:10;}
	.st12{fill:#4D4D4D;stroke:#999999;stroke-width:0.1101;stroke-miterlimit:10;}
	.st13{fill:#CCCCCC;}
	.st14{fill:#B3B3B3;}
	.st15{fill:#39CC4A;}
	.st16{fill:#C1272D;}
	.st17{fill:#232323;}
</style>
<g
   id="Arrows">
	<g
   id="g10302">
		<line
   class="st0"
   x1="246.2"
   y1="145"
   x2="337.8"
   y2="145"
   id="line10292" />
		<g
   id="g10300">
			<line
   class="st1"
   x1="246.2"
   y1="145"
   x2="334.6"
   y2="145"
   id="line10294" />
			<g
   id="g10298">
				<path
   class="st2"
   d="M337.8,145c-1.5,0.6-3.3,1.5-4.5,2.5l0.9-2.5l-0.9-2.5C334.4,143.5,336.3,144.4,337.8,145z"
   id="path10296" />
			</g>
		</g>
	</g>
	<g
   id="g10312">
		<g
   id="g10310">
			<line
   class="st3"
   x1="244.9"
   y1="154.5"
   x2="311.4"
   y2="172.3"
   id="line10304" />
			<g
   id="g10308">
				<path
   d="M314.5,173.1c-1.6,0.1-3.6,0.6-5,1.3l1.5-2.2l-0.2-2.6C311.6,170.8,313.2,172.2,314.5,173.1z"
   id="path10306" />
			</g>
		</g>
	</g>
	<g
   id="g10322">
		<g
   id="g10320">
			<line
   class="st3"
   x1="241.3"
   y1="163.4"
   x2="300.9"
   y2="197.8"
   id="line10314" />
			<g
   id="g10318">
				<path
   d="M303.6,199.4c-1.6-0.3-3.6-0.4-5.1-0.1l2-1.7l0.5-2.6C301.5,196.4,302.6,198.1,303.6,199.4z"
   id="path10316" />
			</g>
		</g>
	</g>
	<g
   id="g10332">
		<g
   id="g10330">
			<line
   class="st3"
   x1="235.4"
   y1="171"
   x2="284.1"
   y2="219.6"
   id="line10324" />
			<g
   id="g10328">
				<path
   d="M286.3,221.9c-1.4-0.7-3.4-1.3-4.9-1.4l2.4-1.1l1.1-2.4C285,218.5,285.7,220.4,286.3,221.9z"
   id="path10326" />
			</g>
		</g>
	</g>
	<g
   id="g10342">
		<g
   id="g10340">
			<line
   class="st3"
   x1="244.9"
   y1="135.5"
   x2="311.4"
   y2="117.6"
   id="line10334" />
			<g
   id="g10338">
				<path
   d="M314.5,116.8c-1.3,0.9-2.8,2.3-3.7,3.6l0.2-2.6l-1.5-2.2C310.9,116.2,312.9,116.7,314.5,116.8z"
   id="path10336" />
			</g>
		</g>
	</g>
	<g
   id="g10352">
		<g
   id="g10350">
			<line
   class="st3"
   x1="241.3"
   y1="126.6"
   x2="300.9"
   y2="92.2"
   id="line10344" />
			<g
   id="g10348">
				<path
   d="M303.6,90.6c-1,1.2-2.1,3-2.6,4.4l-0.5-2.6l-2-1.7C300,91,302.1,90.9,303.6,90.6z"
   id="path10346" />
			</g>
		</g>
	</g>
	<g
   id="g10362">
		<g
   id="g10360">
			<line
   class="st3"
   x1="235.4"
   y1="119"
   x2="284.1"
   y2="70.3"
   id="line10354" />
			<g
   id="g10358">
				<path
   d="M286.3,68.1c-0.7,1.4-1.3,3.4-1.4,4.9l-1.1-2.4l-2.4-1.1C282.9,69.4,284.9,68.7,286.3,68.1z"
   id="path10356" />
			</g>
		</g>
	</g>
	<g
   id="g10374">
		<line
   class="st0"
   x1="92.5"
   y1="145"
   x2="167.4"
   y2="145"
   id="line10364" />
		<g
   id="g10372">
			<line
   class="st1"
   x1="92.5"
   y1="145"
   x2="164.2"
   y2="145"
   id="line10366" />
			<g
   id="g10370">
				<path
   class="st2"
   d="M167.4,145c-1.5,0.6-3.3,1.5-4.5,2.5l0.9-2.5l-0.9-2.5C164.1,143.5,165.9,144.4,167.4,145z"
   id="path10368" />
			</g>
		</g>
	</g>
	<g
   id="g10384">
		<g
   id="g10382">
			<line
   class="st3"
   x1="99.3"
   y1="174.5"
   x2="165.8"
   y2="156.7"
   id="line10376" />
			<g
   id="g10380">
				<path
   d="M168.8,155.8c-1.3,0.9-2.8,2.3-3.7,3.6l0.2-2.6l-1.5-2.2C165.2,155.3,167.2,155.7,168.8,155.8z"
   id="path10378" />
			</g>
		</g>
	</g>
	<g
   id="g10394">
		<g
   id="g10392">
			<line
   class="st3"
   x1="110.7"
   y1="202"
   x2="170.3"
   y2="167.6"
   id="line10386" />
			<g
   id="g10390">
				<path
   d="M173,166c-1,1.2-2.1,3-2.6,4.4l-0.5-2.6l-2-1.7C169.4,166.4,171.5,166.3,173,166z"
   id="path10388" />
			</g>
		</g>
	</g>
	<g
   id="g10404">
		<g
   id="g10402">
			<line
   class="st3"
   x1="128.8"
   y1="225.6"
   x2="177.5"
   y2="176.9"
   id="line10396" />
			<g
   id="g10400">
				<path
   d="M179.7,174.7c-0.7,1.4-1.3,3.4-1.4,4.9l-1.1-2.4l-2.4-1.1C176.3,176,178.3,175.4,179.7,174.7z"
   id="path10398" />
			</g>
		</g>
	</g>
	<g
   id="g10414">
		<g
   id="g10412">
			<line
   class="st3"
   x1="99.3"
   y1="115.5"
   x2="165.8"
   y2="133.3"
   id="line10406" />
			<g
   id="g10410">
				<path
   d="M168.8,134.1c-1.6,0.1-3.6,0.6-5,1.3l1.5-2.2l-0.2-2.6C166,131.8,167.5,133.2,168.8,134.1z"
   id="path10408" />
			</g>
		</g>
	</g>
	<g
   id="g10424">
		<g
   id="g10422">
			<line
   class="st3"
   x1="110.7"
   y1="88"
   x2="170.3"
   y2="122.4"
   id="line10416" />
			<g
   id="g10420">
				<path
   d="M173,124c-1.6-0.3-3.6-0.4-5.1-0.1l2-1.7l0.5-2.6C170.9,121,172,122.7,173,124z"
   id="path10418" />
			</g>
		</g>
	</g>
	<g
   id="g10434">
		<g
   id="g10432">
			<line
   class="st3"
   x1="128.8"
   y1="64.3"
   x2="177.5"
   y2="113"
   id="line10426" />
			<g
   id="g10430">
				<path
   d="M179.7,115.2c-1.4-0.7-3.4-1.3-4.9-1.4l2.4-1.1l1.1-2.4C178.4,111.8,179,113.8,179.7,115.2z"
   id="path10428" />
			</g>
		</g>
	</g>
</g>
<g
   id="Assata">
	<g
   id="g10449">
		<path
   class="st2"
   d="M10,145.7c-0.3,0-0.3,0-0.4,0.2l-0.5,1.4c-0.1,0.2-0.1,0.3-0.1,0.4c0,0.1,0.2,0.1,0.5,0.2l0.4,0.1    c0.1,0.1,0.1,0.4,0,0.4c-0.4,0-0.9,0-1.4,0c-0.4,0-0.7,0-1.2,0c-0.1-0.1-0.1-0.3,0-0.4l0.3,0c0.3,0,0.5-0.1,0.7-0.6    c0.2-0.5,0.4-1.1,0.8-1.9l1.1-2.9c0.3-0.8,0.5-1.2,0.4-1.5c0.6-0.1,1-0.7,1-0.7c0.2,0,0.2,0.1,0.3,0.2c0.1,0.3,0.2,0.8,0.5,1.6    l1.6,4.7c0.3,0.7,0.4,1,0.8,1.1l0.5,0.1c0.1,0.1,0.1,0.3,0,0.4c-0.6,0-1.2,0-1.8,0c-0.6,0-1.1,0-1.6,0c-0.1-0.1-0.2-0.3,0-0.4    l0.4-0.1c0.3,0,0.3-0.1,0.3-0.2c0-0.1-0.1-0.4-0.2-0.8l-0.3-1c-0.1-0.2-0.2-0.2-0.6-0.2H10z M11.4,145c0.3,0,0.3,0,0.2-0.3l-0.3-1    c-0.2-0.5-0.4-1.2-0.5-1.4c-0.1,0.3-0.3,0.9-0.5,1.5l-0.3,0.9c-0.1,0.3,0,0.4,0.3,0.4H11.4z"
   id="path10437" />
		<path
   class="st2"
   d="M15.6,148.2c-0.1-0.2-0.2-0.8-0.2-1.4c0.1-0.1,0.3-0.1,0.4,0c0.2,0.5,0.6,1.2,1.2,1.2c0.4,0,0.6-0.2,0.6-0.6    c0-0.4-0.4-0.7-0.8-0.9c-0.7-0.4-1.2-0.8-1.2-1.5c0-1,0.9-1.5,1.9-1.5c0.6,0,1.2,0.2,1.3,0.3c0.1,0.3,0.2,0.7,0.2,1.2    c0,0.1-0.3,0.1-0.4,0c-0.2-0.7-0.5-0.9-0.9-0.9c-0.3,0-0.6,0.2-0.6,0.5c0,0.3,0.2,0.5,0.8,0.8c0.8,0.4,1.3,0.9,1.3,1.7    c0,1.1-0.9,1.6-2.1,1.6C16.4,148.6,15.9,148.4,15.6,148.2z"
   id="path10439" />
		<path
   class="st2"
   d="M19.9,148.2c-0.1-0.2-0.2-0.8-0.2-1.4c0.1-0.1,0.3-0.1,0.4,0c0.2,0.5,0.6,1.2,1.2,1.2c0.4,0,0.6-0.2,0.6-0.6    c0-0.4-0.4-0.7-0.8-0.9c-0.7-0.4-1.2-0.8-1.2-1.5c0-1,0.9-1.5,1.9-1.5c0.6,0,1.2,0.2,1.3,0.3c0.1,0.3,0.2,0.7,0.2,1.2    c0,0.1-0.3,0.1-0.4,0c-0.2-0.7-0.5-0.9-0.9-0.9c-0.3,0-0.6,0.2-0.6,0.5c0,0.3,0.2,0.5,0.8,0.8c0.8,0.4,1.3,0.9,1.3,1.7    c0,1.1-0.9,1.6-2.1,1.6C20.7,148.6,20.2,148.4,19.9,148.2z"
   id="path10441" />
		<path
   class="st2"
   d="M28.1,146.7c0,0.8,0.3,1,0.5,1c0.1,0,0.3,0,0.5-0.1c0.1,0,0.2,0.2,0.1,0.3c-0.1,0.2-0.7,0.6-1.4,0.6    c-0.4,0-0.7-0.1-1-0.4c-0.1-0.1-0.1-0.1-0.2-0.1c-0.1,0-0.1,0-0.3,0.1c-0.2,0.2-0.6,0.4-1,0.4c-0.7,0-1.3-0.4-1.3-1.3    c0-0.6,0.4-1,1.2-1.2c0.5-0.1,0.8-0.2,1.1-0.3c0.2-0.1,0.3-0.1,0.3-0.2c0-0.1,0-0.3,0-0.4c0-0.5-0.2-1-0.7-1    c-0.3,0-0.5,0.2-0.6,0.7c0,0.2-0.1,0.3-0.2,0.4c-0.2,0.1-0.6,0.3-0.9,0.3c-0.2,0-0.3-0.1-0.3-0.3c0-0.3,0.3-0.7,0.6-0.9    c0.4-0.3,1.2-0.7,2-0.7c1,0,1.6,0.5,1.5,1.7L28.1,146.7z M26.7,146.4c0-0.2,0-0.2-0.1-0.2c-0.5,0.1-1,0.3-1,0.8    c0,0.4,0.3,0.7,0.6,0.7c0.4,0,0.4-0.2,0.5-0.6L26.7,146.4z"
   id="path10443" />
		<path
   class="st2"
   d="M31.6,144.2c-0.2,0-0.2,0-0.2,0.3v1.8c0,0.7,0,1.4,0.8,1.4c0.2,0,0.4-0.1,0.5-0.2c0.1,0,0.2,0.2,0.2,0.3    c-0.3,0.4-1,0.7-1.7,0.7c-1,0-1.3-0.6-1.3-1.4v-2.7c0-0.3,0-0.3-0.2-0.3h-0.4c-0.1,0-0.2-0.3-0.1-0.4c0.4-0.1,0.7-0.3,1-0.5    c0.2-0.2,0.5-0.4,0.9-0.9c0.1,0,0.3,0,0.4,0.1v0.9c0,0.2,0,0.2,0.2,0.2h1.1c0.1,0,0.1,0.1,0.1,0.2c0,0.1,0,0.3-0.2,0.4H31.6z"
   id="path10445" />
		<path
   class="st2"
   d="M37.3,146.7c0,0.8,0.3,1,0.5,1c0.1,0,0.3,0,0.5-0.1c0.1,0,0.2,0.2,0.1,0.3c-0.1,0.2-0.7,0.6-1.4,0.6    c-0.4,0-0.7-0.1-1-0.4c-0.1-0.1-0.1-0.1-0.2-0.1c-0.1,0-0.1,0-0.3,0.1c-0.2,0.2-0.6,0.4-1,0.4c-0.7,0-1.3-0.4-1.3-1.3    c0-0.6,0.4-1,1.2-1.2c0.5-0.1,0.8-0.2,1.1-0.3c0.2-0.1,0.3-0.1,0.3-0.2c0-0.1,0-0.3,0-0.4c0-0.5-0.2-1-0.7-1    c-0.3,0-0.5,0.2-0.6,0.7c0,0.2-0.1,0.3-0.2,0.4c-0.2,0.1-0.6,0.3-0.9,0.3c-0.2,0-0.3-0.1-0.3-0.3c0-0.3,0.3-0.7,0.6-0.9    c0.4-0.3,1.2-0.7,2-0.7c1,0,1.6,0.5,1.5,1.7L37.3,146.7z M35.9,146.4c0-0.2,0-0.2-0.1-0.2c-0.5,0.1-1,0.3-1,0.8    c0,0.4,0.3,0.7,0.6,0.7c0.4,0,0.4-0.2,0.5-0.6L35.9,146.4z"
   id="path10447" />
	</g>
</g>
<path
   class="st4"
   d="M329,44.7c0-3.5-2.8-6.4-6.4-6.4c-0.5,0-1,0.1-1.5,0.2c-1.1-2.6-3.6-4.4-6.5-4.4c0,0-0.1,0-0.1,0  c-1-2.8-3.7-4.9-6.9-4.9c-3.5,0-6.4,2.4-7.1,5.6c-0.3-0.1-0.7-0.1-1-0.1c-2.9,0-5.2,2.3-5.2,5.2c0,0.5,0.1,0.9,0.2,1.3  c-3.3,0.6-5.7,3.4-5.7,6.8c0,3.8,3.1,6.9,6.9,6.9c0.2,0,0.3,0,0.5,0c0.5,3.9,3.9,6.9,8,6.9c2.6,0,5-1.3,6.5-3.3  c1.2,0.7,2.6,1.1,4.1,1.1c2.8,0,5.2-1.4,6.7-3.5c0.4,0.1,0.9,0.2,1.4,0.2c3.1,0,5.6-2.5,5.6-5.6c0-0.8-0.2-1.6-0.5-2.3  C328.5,47.5,329,46.1,329,44.7z"
   id="path10452" />
<path
   class="st4"
   d="M350.2,76.3c-0.4-2.4-2.2-4.3-4.5-4.8c0.7-1.3,1-2.8,0.7-4.4c-0.6-3.8-4.2-6.3-7.9-5.7c-0.5,0.1-1,0.2-1.5,0.4  c-1.6-2.5-4.5-3.9-7.6-3.4c-3,0.5-5.2,2.7-6,5.4c-1-0.6-2.3-0.9-3.5-0.7c-2.8,0.5-4.6,3.1-4.2,5.8c0.1,0.4,0.2,0.8,0.4,1.2  c-3.3,1.2-5.4,4.6-4.8,8.3c0.7,4.1,4.5,6.8,8.6,6.2c0.5-0.1,1-0.2,1.5-0.4c0,0.3,0,0.7,0.1,1c0.7,4.1,4.6,6.9,8.7,6.2  c1.8-0.3,3.4-1.2,4.5-2.5c1.5,1.5,3.7,2.2,5.9,1.9c3.8-0.6,6.3-4.2,5.7-7.9C349,82,350.7,79.2,350.2,76.3z"
   id="path10454" />
<path
   class="st4"
   d="M357.3,101.9c-0.5,0-1.1,0.1-1.6,0.1c-0.5-3.6-3.6-6.3-7.3-6.3c-1.4,0-2.6,0.4-3.7,1c-1.4-1.4-3.3-2.3-5.4-2.3  c-4.1,0-7.5,3.3-7.5,7.5c0,0.4,0,0.7,0.1,1.1c0,0-0.1,0-0.1,0c-4,0-7.2,3.2-7.2,7.2c0,4,3.2,7.2,7.2,7.2c0.1,0,0.2,0,0.3,0  c0.7,2.7,3.2,4.6,6.1,4.6c1.7,0,3.3-0.7,4.4-1.8c1.2,1.6,3.2,2.5,5.3,2.5c2.8,0,5.3-1.8,6.3-4.2c1,0.4,2,0.6,3.2,0.6  c4.8,0,8.6-3.9,8.6-8.6C365.9,105.7,362,101.9,357.3,101.9z"
   id="path10456" />
<path
   class="st4"
   d="M406.4,132.8c-1,0-1.9,0.1-2.8,0.3c-1-6.4-6.5-11.4-13.2-11.4c-2.5,0-4.8,0.7-6.8,1.8c-2.5-2.6-5.9-4.2-9.8-4.2  c-7.4,0-13.5,6-13.5,13.5c0,0.6,0,1.3,0.1,1.9c-0.1,0-0.1,0-0.2,0c-7.2,0-13,5.8-13,13c0,7.2,5.8,13,13,13c0.2,0,0.3,0,0.5,0  c1.3,4.8,5.8,8.4,11,8.4c3.1,0,5.9-1.2,7.9-3.2c2.3,2.8,5.7,4.6,9.6,4.6c5.2,0,9.6-3.2,11.4-7.7c1.8,0.7,3.7,1.1,5.7,1.1  c8.6,0,15.6-7,15.6-15.6C422,139.8,415,132.8,406.4,132.8z"
   id="path10458" />
<g
   id="g10488">
	<path
   d="M356.5,148.6c0,0.9,0,1.4,0.3,1.4c0.1,0,0.3-0.1,0.5-0.1c0.1,0,0.1,0.3,0,0.4c-0.5,0.1-1.2,0.3-1.6,0.4   c-0.1,0-0.1,0-0.1-0.1v-0.2c0-0.2,0-0.3,0-0.4h0c-0.5,0.4-0.9,0.6-1.5,0.6c-1.3,0-2.2-1-2.2-2.3c0-1.7,1.3-2.8,2.9-2.8   c0.4,0,0.7,0.1,0.8,0.1c0.1,0,0.1-0.1,0.1-0.2v-1.8c0-0.7,0-0.8-0.4-1l-0.1-0.1c-0.1,0-0.1-0.2,0-0.2c0.3-0.1,0.9-0.3,1.3-0.5   c0,0,0.1,0,0.1,0.1c0,0.4,0,1,0,1.5V148.6z M355.6,146.8c0-0.2,0-0.3-0.1-0.5c-0.2-0.3-0.5-0.5-1-0.5c-1.1,0-1.7,0.9-1.7,2   c0,1.1,0.6,2.1,1.8,2.1c0.3,0,0.7-0.1,0.9-0.3c0.1-0.1,0.1-0.3,0.1-0.4V146.8z"
   id="path10460" />
	<path
   d="M358.7,146.9c0-0.5,0-0.5-0.3-0.7l-0.1-0.1c0,0,0-0.2,0-0.2c0.3-0.1,1-0.4,1.2-0.6c0.1,0,0.1,0,0.1,0.1c0,0.4,0,1,0,1.5   v2.2c0,0.9,0,1,0.5,1l0.3,0c0.1,0.1,0.1,0.3,0,0.3c-0.4,0-0.7,0-1.1,0c-0.4,0-0.8,0-1.1,0c-0.1,0-0.1-0.2,0-0.3l0.3,0   c0.4-0.1,0.5-0.2,0.5-1V146.9z M359.7,143.5c0,0.4-0.3,0.6-0.6,0.6c-0.4,0-0.6-0.3-0.6-0.6c0-0.4,0.3-0.6,0.6-0.6   C359.5,142.9,359.7,143.2,359.7,143.5z"
   id="path10462" />
	<path
   d="M363.9,145.7c0.1,0.3,0.2,0.6,0.2,1c0,0.1-0.2,0.1-0.3,0c-0.2-0.5-0.6-0.9-1.1-0.9c-0.5,0-0.8,0.3-0.8,0.7   c0,0.5,0.5,0.8,0.9,1c0.6,0.4,1.2,0.8,1.2,1.6c0,0.9-0.8,1.4-1.7,1.4c-0.6,0-1-0.1-1.3-0.4c-0.1-0.2-0.2-0.8-0.1-1.2   c0.1-0.1,0.2-0.1,0.3,0c0.2,0.7,0.6,1.2,1.3,1.2c0.4,0,0.8-0.3,0.8-0.8c0-0.6-0.5-0.9-0.9-1.1c-0.7-0.4-1.2-0.8-1.2-1.5   c0-0.9,0.7-1.4,1.6-1.4C363.4,145.5,363.8,145.6,363.9,145.7z"
   id="path10464" />
	<path
   d="M365.7,146.9c0-0.5,0-0.5-0.3-0.7l-0.1-0.1c0,0,0-0.2,0-0.2c0.3-0.1,0.9-0.4,1.2-0.6c0.1,0,0.1,0,0.1,0.1v0.7   c0,0.1,0,0.1,0,0.1c0.4-0.3,0.9-0.7,1.3-0.7c0.3,0,0.5,0.2,0.5,0.5c0,0.4-0.3,0.6-0.5,0.6c-0.1,0-0.2,0-0.3-0.1   c-0.2-0.1-0.4-0.2-0.5-0.2c-0.2,0-0.3,0.1-0.4,0.2c-0.1,0.2-0.2,0.5-0.2,0.9v1.6c0,0.9,0,1,0.5,1l0.4,0c0.1,0.1,0.1,0.3,0,0.3   c-0.6,0-0.9,0-1.3,0c-0.4,0-0.8,0-1.1,0c-0.1,0-0.1-0.2,0-0.3l0.2,0c0.4-0.1,0.5-0.2,0.5-1V146.9z"
   id="path10466" />
	<path
   d="M370.5,148.6c0,0.8,0.2,1.4,1.1,1.4c0.3,0,0.7-0.1,1-0.4c0.2-0.1,0.2-0.3,0.2-0.7v-2c0-0.8-0.1-0.8-0.4-0.9l-0.2-0.1   c-0.1,0-0.1-0.2,0-0.3c0.5,0,1.1-0.1,1.4-0.2c0.1,0,0.1,0,0.1,0.1c0,0.2,0,0.6,0,1v2c0,0.9,0,1.3,0.4,1.3c0.1,0,0.3,0,0.5-0.1   c0.1,0.1,0.1,0.3,0,0.3c-0.5,0.1-1.2,0.2-1.6,0.4c-0.1,0-0.1,0-0.1-0.1v-0.5c0-0.1,0-0.2-0.1-0.2c-0.4,0.2-0.9,0.6-1.7,0.6   c-1.1,0-1.5-0.5-1.5-1.5v-2c0-0.8,0-0.9-0.4-1l-0.1-0.1c-0.1-0.1-0.1-0.2,0-0.3c0.6,0,1-0.1,1.3-0.2c0.1,0,0.1,0,0.1,0.1   c0,0.2,0,0.5,0,1V148.6z"
   id="path10468" />
	<path
   d="M375.7,146.9c0-0.5,0-0.5-0.3-0.7l-0.1-0.1c0,0,0-0.2,0-0.2c0.3-0.1,0.9-0.4,1.2-0.6c0.1,0,0.1,0,0.1,0.1   c0,0.2,0,0.4,0,0.6c0,0.1,0,0.2,0.1,0.2c0.2-0.1,0.9-0.6,1.7-0.6c1.2,0,2,1,2,2.2c0,1.7-1.2,2.9-2.9,2.9c-0.2,0-0.6,0-0.7,0   c-0.1,0-0.2,0.1-0.2,0.3v1.3c0,0.9,0,1,0.5,1l0.5,0.1c0.1,0.1,0.1,0.3,0,0.3c-0.6,0-0.9,0-1.3,0c-0.4,0-0.8,0-1.1,0   c-0.1,0-0.1-0.2,0-0.3l0.3,0c0.4-0.1,0.5-0.2,0.5-1V146.9z M376.6,149.2c0,0.4,0.1,0.5,0.4,0.7c0.2,0.2,0.6,0.3,0.9,0.3   c1,0,1.6-0.9,1.6-2.2c0-1-0.5-1.9-1.6-1.9c-0.5,0-0.9,0.2-1,0.3c-0.1,0.1-0.1,0.3-0.1,0.7V149.2z"
   id="path10470" />
	<path
   d="M383,146.1c-0.2,0-0.2,0-0.2,0.3v2.2c0,0.7,0.1,1.3,0.9,1.3c0.1,0,0.2,0,0.3-0.1c0.1,0,0.3-0.2,0.3-0.2   c0.1,0,0.1,0.1,0.1,0.2c-0.2,0.3-0.6,0.6-1.3,0.6c-1,0-1.2-0.6-1.2-1.3v-2.7c0-0.3,0-0.3-0.3-0.3h-0.3c-0.1,0-0.1-0.2,0-0.3   c0.3-0.1,0.6-0.3,0.8-0.4c0.2-0.1,0.4-0.5,0.5-0.7c0.1,0,0.2,0,0.3,0.1v0.5c0,0.2,0,0.2,0.2,0.2h1.3c0.1,0.1,0.1,0.4,0,0.5H383z"
   id="path10472" />
	<path
   d="M385.7,146.9c0-0.5,0-0.5-0.3-0.7l-0.1-0.1c0,0,0-0.2,0-0.2c0.3-0.1,1-0.4,1.2-0.6c0.1,0,0.1,0,0.1,0.1c0,0.4,0,1,0,1.5   v2.9c0,0.9-0.1,1.5-0.3,1.9c-0.4,0.9-1,1.4-1.8,2c-0.1,0-0.2-0.2-0.2-0.3c0.3-0.2,0.5-0.3,0.7-0.5c0.4-0.5,0.6-1.4,0.6-2.8V146.9z    M386.7,143.5c0,0.4-0.3,0.6-0.6,0.6c-0.4,0-0.6-0.3-0.6-0.6c0-0.4,0.3-0.6,0.6-0.6C386.4,142.9,386.7,143.2,386.7,143.5z"
   id="path10474" />
	<path
   d="M391.3,149.6c0.6,0,0.9-0.1,1.1-0.3c0.2-0.2,0.3-0.4,0.4-0.5c0.1,0,0.2,0,0.3,0.1c-0.2,0.6-0.4,1.2-0.6,1.5   c-0.5,0-1,0-1.5,0h-1.7c-0.7,0-1.1,0-1.3,0c0,0-0.1-0.1-0.1-0.2c0,0,0.1-0.1,0.1-0.1c0.6-0.4,0.9-0.8,1.8-1.7   c0.8-0.9,1.7-2,1.7-3.3c0-1.1-0.5-1.8-1.5-1.8c-0.7,0-1.2,0.5-1.6,1.2c-0.1,0.1-0.3,0-0.3-0.2c0.4-1.1,1.3-1.7,2.4-1.7   c1.2,0,2,0.8,2,2c0,0.7-0.3,1.6-1.3,2.6l-0.7,0.8c-1,1.1-1.1,1.3-1.1,1.4c0,0.1,0.1,0.1,0.4,0.1H391.3z"
   id="path10476" />
	<path
   d="M399,146.6c0,1.9-0.7,3.9-2.5,3.9s-2.5-2-2.5-3.9c0-1.8,0.7-3.9,2.5-3.9S399,144.8,399,146.6z M395.1,146.6   c0,1.1,0.1,3.6,1.4,3.6s1.4-2.4,1.4-3.6s-0.1-3.6-1.4-3.6S395.1,145.5,395.1,146.6z"
   id="path10478" />
	<path
   d="M400.3,149.9c0-0.4,0.3-0.7,0.7-0.7c0.4,0,0.7,0.3,0.7,0.7s-0.3,0.7-0.7,0.7C400.7,150.5,400.3,150.3,400.3,149.9z"
   id="path10480" />
	<path
   d="M407.9,148c0,1.5-1,2.6-2.5,2.6c-1.4,0-2.5-1-2.5-2.5c0-1.5,1.1-2.6,2.6-2.6C406.8,145.5,407.9,146.5,407.9,148z    M405.4,145.8c-0.8,0-1.4,0.8-1.4,2.1c0,1.1,0.5,2.3,1.5,2.3c1.1,0,1.4-1.1,1.4-2C406.9,147.1,406.5,145.8,405.4,145.8z"
   id="path10482" />
	<path
   d="M409.5,146.9c0-0.5,0-0.5-0.3-0.7l-0.1-0.1c0,0,0-0.2,0-0.2c0.3-0.1,0.9-0.4,1.2-0.6c0.1,0,0.1,0,0.1,0.1v0.7   c0,0.1,0,0.1,0,0.1c0.4-0.3,0.9-0.7,1.3-0.7c0.3,0,0.5,0.2,0.5,0.5c0,0.4-0.3,0.6-0.5,0.6c-0.1,0-0.2,0-0.3-0.1   c-0.2-0.1-0.4-0.2-0.5-0.2c-0.2,0-0.3,0.1-0.4,0.2c-0.1,0.2-0.2,0.5-0.2,0.9v1.6c0,0.9,0,1,0.5,1l0.4,0c0.1,0.1,0.1,0.3,0,0.3   c-0.6,0-0.9,0-1.3,0c-0.4,0-0.8,0-1.1,0c-0.1,0-0.1-0.2,0-0.3l0.2,0c0.4-0.1,0.5-0.2,0.5-1V146.9z"
   id="path10484" />
	<path
   d="M417.7,145.9c0.1,0.1,0.1,0.5-0.1,0.5h-0.9c0,0.2,0,0.4,0,0.6c0,0.8-0.5,1.9-2,1.9c-0.2,0-0.4,0-0.5,0   c-0.1,0.1-0.5,0.3-0.5,0.7c0,0.3,0.3,0.5,0.8,0.5c0.4,0,0.9,0,1.4,0c0.7,0,1.7,0.1,1.7,1.3c0,1.3-1.4,2.3-3,2.3c-1.5,0-2-0.8-2-1.4   c0-0.2,0-0.3,0.1-0.4c0.2-0.2,0.5-0.5,0.8-0.8c0.1-0.1,0.2-0.2,0.1-0.3c-0.5-0.1-0.9-0.5-0.9-0.9c0-0.1,0-0.1,0.2-0.2   c0.2-0.1,0.4-0.3,0.6-0.6c0.1-0.1,0.1-0.2,0.1-0.2c-0.4-0.2-0.9-0.7-0.9-1.5c0-1,0.9-1.8,2-1.8c0.5,0,0.9,0.1,1.2,0.2   c0.4,0.2,0.5,0.2,0.7,0.2H417.7z M415.2,150.8c-0.4,0-0.9,0-1,0.1c-0.3,0.2-0.6,0.6-0.6,1c0,0.6,0.5,1.2,1.6,1.2   c1.1,0,1.8-0.6,1.8-1.3c0-0.7-0.5-1-1.4-1H415.2z M415.9,147.3c0-0.8-0.3-1.5-1.1-1.5c-0.6,0-1,0.5-1,1.3c0,0.9,0.5,1.4,1.1,1.4   C415.6,148.6,415.9,148.1,415.9,147.3z"
   id="path10486" />
</g>
<path
   class="st5"
   d="M336.6,205.2c-0.8,0-1.6,0.1-2.4,0.4c0-0.1,0-0.3,0-0.4c0-4-3.3-7.3-7.3-7.3c-2.9,0-5.5,1.7-6.6,4.3  c-0.9-0.5-2-0.8-3.2-0.8c-3.4,0-6.2,2.6-6.5,5.9c0,0,0,0,0,0c-4.2,0-7.5,3.4-7.5,7.5c0,4.2,3.4,7.5,7.5,7.5c1.3,0,2.6-0.3,3.6-0.9  c1.4,1.4,3.3,2.4,5.5,2.4c2,0,3.8-0.8,5.2-2.1c1.2,0.9,2.6,1.4,4.2,1.4c2.4,0,4.5-1.2,5.7-3c0.6,0.1,1.2,0.2,1.8,0.2  c4.2,0,7.5-3.4,7.5-7.5C344.1,208.6,340.7,205.2,336.6,205.2z"
   id="path10490" />
<path
   class="st4"
   d="M363.5,183.1c0-3.6-2.7-6.6-6.2-7.1c0,0,0,0,0-0.1c0-3.9-3.1-7-7-7c-0.7,0-1.4,0.1-2,0.3  c-1.1-2-3.2-3.3-5.6-3.3c-2.8,0-5.2,1.8-6.1,4.3c-0.6-0.2-1.2-0.3-1.9-0.3c-3.2,0-5.9,2.6-5.9,5.9c0,0,0,0,0,0c0,0-0.1,0-0.1,0  c-3.3,0-6,2.7-6,6s2.7,6,6,6c0,0,0,0,0,0c0,0.1,0,0.1,0,0.2c0,3.4,2.8,6.2,6.2,6.2c1.7,0,3.2-0.7,4.3-1.8c1.1,1.1,2.6,1.8,4.2,1.8  c0.9,0,1.8-0.2,2.6-0.6c1.4,1.3,3.2,2.2,5.3,2.2c3.5,0,6.5-2.4,7.3-5.7C361.4,189,363.5,186.3,363.5,183.1z"
   id="path10492" />
<path
   class="st5"
   d="M320.7,237.6c0.1-0.5,0.2-1,0.2-1.5c0-4-3.2-7.2-7.2-7.2c-1.2,0-2.3,0.3-3.3,0.8c-1.2-2.1-3.5-3.6-6.1-3.6  c-3.5,0-6.4,2.6-6.9,5.9c-1.1-0.8-2.5-1.3-4-1.3c-3.7,0-6.8,3-6.8,6.8c0,1.8,0.7,3.4,1.8,4.6c-0.5,1-0.9,2.1-0.9,3.3  c0,3.7,3,6.7,6.7,6.7c0.9,0,1.7-0.2,2.4-0.5c1.2,1.9,3.4,3.2,5.8,3.2c0.8,0,1.6-0.1,2.3-0.4c1.3,1.3,3.1,2.1,5.1,2.1  c3.3,0,6-2.1,7-5.1c0.3,0,0.7,0.1,1,0.1c4,0,7.2-3.2,7.2-7.2C325.1,241.3,323.2,238.7,320.7,237.6z"
   id="path10494" />
<g
   id="g10506">
	<path
   d="M85.2,155.7h-40v-22.5c0-0.8,0.6-1.4,1.4-1.4h37.1c0.8,0,1.4,0.6,1.4,1.4V155.7z"
   id="path10496" />
	<rect
   x="47"
   y="133.4"
   class="st6"
   width="36.5"
   height="20.5"
   id="rect10498" />
	<path
   class="st7"
   d="M39.7,157.5h51.1c0.1,0,0.1-0.1,0.1-0.1v-1.6c0-0.1,0-0.1-0.1-0.1H39.6c0,0-0.1,0-0.1,0.1v1.6   C39.5,157.4,39.6,157.5,39.7,157.5z"
   id="path10500" />
	<path
   class="st8"
   d="M90.9,157.5h-0.1c-1.7,0.7-2.6,0.7-4.4,0.7H44.1c-1.6,0-2.4,0.1-4-0.5l-0.4-0.2H90.9z"
   id="path10502" />
	<path
   class="st8"
   d="M70.3,156.6h-9.9c-0.4,0-0.7-0.3-0.7-0.7v-0.2H71v0.2C71,156.3,70.7,156.6,70.3,156.6z"
   id="path10504" />
</g>
<g
   id="g10512">
	<path
   d="M76.6,115.5c0-2.6,0-5.1,0-7.7c0-0.1,0-0.2-0.1-0.2c0,0,0-0.1,0-0.1c0-0.6,0-1.1,0-1.7c0,0,0-0.1,0.1-0.1c0,0,0-0.1,0-0.1   c0-0.1,0-0.2,0-0.3c0,0,0-0.1,0-0.1c-0.1-0.1-0.1-0.2-0.1-0.3c0-0.5,0-1,0-1.5c0-0.1,0-0.1,0.1-0.2c0,0,0-0.1,0-0.1   c0-0.3,0-0.5,0-0.8c0,0,0-0.1,0-0.1c-0.1-0.1-0.1-0.2-0.1-0.3c0-0.2,0-0.3,0-0.5c0-0.1,0-0.2,0.1-0.3c0,0,0-0.1,0-0.1   c0-0.5,0-1.1,0-1.6c0-1,0.7-1.8,1.7-2c0.1,0,0.2,0,0.3,0c3.2,0,6.4,0,9.7,0c1.1,0,2,0.8,2,1.9c0,0.4,0,0.7,0,1.1c0,1.1,0,2.2,0,3.4   c0,0.1,0,0.1,0.1,0.2c0,0,0,0.1,0,0.1c0,0.9,0,1.9,0,2.8c0,0,0,0.1,0,0.1c-0.1,0.1-0.1,0.1-0.1,0.2c0,5,0,10,0,15   c0,0.4,0,0.8,0,1.2c-0.1,0.9-0.8,1.7-1.7,1.8c-0.1,0-0.3,0-0.4,0c-3.2,0-6.4,0-9.5,0c-1.1,0-1.9-0.7-2.1-1.8c0-0.3,0-0.7,0-1   C76.6,120,76.6,117.8,76.6,115.5C76.6,115.5,76.6,115.5,76.6,115.5z M77.5,111.2C77.5,111.2,77.5,111.2,77.5,111.2   c0,3.9,0,7.9,0,11.8c0,0.7,0.5,1.2,1.2,1.2c3.2,0,6.4,0,9.7,0c0.3,0,0.6-0.1,0.8-0.3c0.3-0.3,0.4-0.6,0.4-1c0-7.8,0-15.7,0-23.5   c0,0,0-0.1,0-0.1c0-0.7-0.5-1.2-1.2-1.2c-0.4,0-0.9,0-1.3,0c-0.1,0-0.2,0.1-0.2,0.2c0,0.1,0,0.1,0,0.2c-0.1,0.4-0.4,0.6-0.8,0.6   c-1.4,0-2.8,0-4.2,0c-0.3,0-0.7,0-1,0c-0.4,0-0.8-0.3-0.8-0.8c0-0.2-0.1-0.2-0.2-0.2c-0.4,0-0.8,0-1.2,0c-0.1,0-0.2,0-0.3,0   c-0.6,0.1-0.9,0.6-0.9,1.2C77.5,103.3,77.5,107.3,77.5,111.2z"
   id="path10508" />
	<path
   class="st6"
   d="M77.5,111.2c0-3.9,0-7.9,0-11.8c0-0.6,0.4-1.1,0.9-1.2c0.1,0,0.2,0,0.3,0c0.4,0,0.8,0,1.2,0   c0.2,0,0.2,0.1,0.2,0.2c0,0.4,0.3,0.8,0.8,0.8c0.3,0,0.7,0,1,0c1.4,0,2.8,0,4.2,0c0.4,0,0.7-0.2,0.8-0.6c0-0.1,0-0.1,0-0.2   c0-0.1,0.1-0.2,0.2-0.2c0.4,0,0.9,0,1.3,0c0.6,0,1.1,0.5,1.2,1.2c0,0,0,0.1,0,0.1c0,7.8,0,15.7,0,23.5c0,0.4-0.1,0.7-0.4,1   c-0.2,0.2-0.5,0.3-0.8,0.3c-3.2,0-6.4,0-9.7,0c-0.7,0-1.2-0.5-1.2-1.2C77.5,119.1,77.5,115.2,77.5,111.2   C77.5,111.2,77.5,111.2,77.5,111.2z"
   id="path10510" />
</g>
<g
   id="g10518">
	<path
   d="M103.3,209.5c0-3.3,0-6.5,0-9.8c0-0.1,0-0.1,0-0.2c0-0.8-0.6-1.4-1.3-1.4c-0.1,0-0.2,0-0.3,0v-0.1h-1.8v0.1   c-2.1,0-4.1,0-6.2,0c-0.5,0-0.8,0.2-1,0.6c-0.2,0.3-0.2,0.6-0.2,0.9c0,1.5,0,3,0,4.5c0,5.1,0,10.2,0,15.3c0,0.3,0,0.5,0.2,0.8   c0.2,0.4,0.5,0.8,1.1,0.8c2.8,0,5.5,0,8.3,0c0.3,0,0.5-0.1,0.8-0.2c0.4-0.3,0.6-0.8,0.6-1.3C103.3,216.1,103.3,212.8,103.3,209.5z"
   id="path10514" />
	<rect
   x="93"
   y="200.9"
   class="st6"
   width="9.7"
   height="17.2"
   id="rect10516" />
</g>
<g
   id="g10524">
	<path
   d="M126.5,37.1v-3.5h-0.1c0-0.1,0-0.1,0-0.2c0-0.1,0-0.2,0-0.3c0-1-0.7-1.7-1.6-1.8l-10.4,0c-0.6,0-1,0.2-1.3,0.7   c-0.2,0.3-0.3,0.7-0.3,1.1c0,1.9,0,3.8,0,5.7c0,6.4,0,12.8,0,19.2c0,0.3,0,0.7,0.2,1c0.3,0.6,0.7,0.9,1.3,0.9c3.5,0,7,0,10.4,0   c0.3,0,0.7-0.1,1-0.3c0.6-0.4,0.8-1,0.8-1.6c0-4.1,0-8.3,0-12.4c0-3.3,0-5.3,0-8.6H126.5z"
   id="path10520" />
	<rect
   x="113.5"
   y="34.8"
   class="st6"
   width="12.2"
   height="21.5"
   id="rect10522" />
</g>
<g
   id="g10538">
	<rect
   x="94.8"
   y="230.8"
   class="st9"
   width="34.9"
   height="19.7"
   id="rect10526" />
	<rect
   x="96.3"
   y="232.3"
   class="st6"
   width="31.9"
   height="16.7"
   id="rect10528" />
	<path
   class="st6"
   d="M89.9,252.7h44.8v-2.1c0-0.1-0.1-0.1-0.1-0.1H90c-0.1,0-0.1,0.1-0.1,0.1V252.7z"
   id="path10530" />
	<path
   class="st9"
   d="M134.7,252.7c0,0.7,0,0.7-1.5,0.7H91.3c-1.4,0-1.4,0-1.4-0.7H134.7z"
   id="path10532" />
	<rect
   x="107.4"
   y="250.9"
   class="st9"
   width="10"
   height="0.8"
   id="rect10534" />
	<rect
   x="107.4"
   y="251"
   class="st10"
   width="7.1"
   height="0.6"
   id="rect10536" />
</g>
<g
   id="g10544">
	<path
   class="st10"
   d="M86.4,165.4H86v-0.1h-1.3v0.1H64.9c-0.5,0-0.9,0.4-0.9,0.9v29.1c0,0.5,0.4,0.9,0.9,0.9h21.4   c0.5,0,0.9-0.4,0.9-0.9v-29.1C87.3,165.8,86.9,165.4,86.4,165.4z"
   id="path10540" />
	<rect
   x="65.2"
   y="167.9"
   class="st6"
   width="20.9"
   height="26"
   id="rect10542" />
</g>
<g
   id="g10564">
	<path
   class="st11"
   d="M101.9,91.6H82.1c-1.1,0-2-0.9-2-2V50c0-1.1,0.9-2,2-2h19.8c1.1,0,2,0.9,2,2v39.6   C103.9,90.7,103,91.6,101.9,91.6z"
   id="path10546" />
	<path
   class="st12"
   d="M99,55.1H85c-0.1,0-0.2,0.1-0.2,0.2v1.2c0,0.1,0.1,0.2,0.2,0.2H99c0.1,0,0.2-0.1,0.2-0.2v-1.2   C99.2,55.2,99.1,55.1,99,55.1z"
   id="path10548" />
	<path
   class="st12"
   d="M99,51.8H85c-0.1,0-0.2,0.1-0.2,0.2v1.2c0,0.1,0.1,0.2,0.2,0.2H99c0.1,0,0.2-0.1,0.2-0.2V52   C99.2,51.9,99.1,51.8,99,51.8z"
   id="path10550" />
	<circle
   class="st13"
   cx="92"
   cy="71.5"
   r="1.8"
   id="circle10552" />
	<circle
   class="st14"
   cx="92"
   cy="71.5"
   r="1.7"
   id="circle10554" />
	<path
   class="st12"
   d="M99,58.4H85c-0.1,0-0.2,0.1-0.2,0.2v5.9c0,0.1,0.1,0.2,0.2,0.2H99c0.1,0,0.2-0.1,0.2-0.2v-5.9   C99.2,58.5,99.1,58.4,99,58.4z"
   id="path10556" />
	<path
   class="st12"
   d="M97.2,87.6H86.8c-1.1,0-2-0.9-2-2v-7.3c0-1.1,0.9-2,2-2h10.4c1.1,0,2,0.9,2,2v7.3   C99.2,86.7,98.3,87.6,97.2,87.6z"
   id="path10558" />
	<path
   class="st6"
   d="M92.3,70.7v0.2c0.3,0.1,0.5,0.4,0.5,0.7c0,0.4-0.4,0.8-0.8,0.8s-0.8-0.4-0.8-0.8c0-0.3,0.2-0.6,0.5-0.7v-0.2   c-0.4,0.1-0.7,0.5-0.7,0.9c0,0.5,0.4,1,1,1s1-0.4,1-1C93,71.2,92.7,70.8,92.3,70.7z"
   id="path10560" />
	<rect
   x="91.9"
   y="70.1"
   class="st6"
   width="0.2"
   height="1.6"
   id="rect10562" />
</g>
<g
   id="g10668">
	<circle
   class="st13"
   cx="205.6"
   cy="145.8"
   r="33.2"
   id="circle10566" />
	<rect
   x="186.6"
   y="126.8"
   class="st10"
   width="38.1"
   height="38.1"
   id="rect10568" />
	<g
   id="g10576">
		<rect
   x="183.7"
   y="126.8"
   class="st9"
   width="43.9"
   height="11"
   id="rect10570" />
		<rect
   x="183.7"
   y="140.3"
   class="st9"
   width="43.9"
   height="11"
   id="rect10572" />
		<rect
   x="183.7"
   y="153.9"
   class="st9"
   width="43.9"
   height="11"
   id="rect10574" />
	</g>
	<circle
   class="st15"
   cx="188.6"
   cy="132.3"
   r="1.1"
   id="circle10578" />
	<circle
   class="st10"
   cx="192.5"
   cy="132.3"
   r="1.1"
   id="circle10580" />
	<circle
   class="st16"
   cx="196.5"
   cy="132.3"
   r="1.1"
   id="circle10582" />
	<circle
   class="st15"
   cx="188.6"
   cy="145.8"
   r="1.1"
   id="circle10584" />
	<circle
   class="st16"
   cx="192.5"
   cy="145.8"
   r="1.1"
   id="circle10586" />
	<circle
   class="st16"
   cx="196.5"
   cy="145.8"
   r="1.1"
   id="circle10588" />
	<circle
   class="st15"
   cx="188.6"
   cy="159.4"
   r="1.1"
   id="circle10590" />
	<circle
   class="st15"
   cx="192.5"
   cy="159.4"
   r="1.1"
   id="circle10592" />
	<circle
   class="st10"
   cx="196.5"
   cy="159.4"
   r="1.1"
   id="circle10594" />
	<g
   id="g10618">
		<ellipse
   class="st17"
   cx="215.8"
   cy="159.4"
   rx="0.9"
   ry="1.1"
   id="ellipse10596" />
		<ellipse
   class="st17"
   cx="221.1"
   cy="159.4"
   rx="0.9"
   ry="1.1"
   id="ellipse10598" />
		<ellipse
   class="st17"
   cx="218.5"
   cy="157.3"
   rx="0.9"
   ry="1.1"
   id="ellipse10600" />
		<ellipse
   class="st17"
   cx="218.5"
   cy="161.6"
   rx="0.9"
   ry="1.1"
   id="ellipse10602" />
		<ellipse
   class="st17"
   cx="213"
   cy="157.3"
   rx="0.9"
   ry="1.1"
   id="ellipse10604" />
		<ellipse
   class="st17"
   cx="213"
   cy="161.6"
   rx="0.9"
   ry="1.1"
   id="ellipse10606" />
		<ellipse
   class="st17"
   cx="210.3"
   cy="159.4"
   rx="0.9"
   ry="1.1"
   id="ellipse10608" />
		<ellipse
   class="st17"
   cx="207.5"
   cy="157.3"
   rx="0.9"
   ry="1.1"
   id="ellipse10610" />
		<ellipse
   class="st17"
   cx="207.5"
   cy="161.6"
   rx="0.9"
   ry="1.1"
   id="ellipse10612" />
		<ellipse
   class="st17"
   cx="223.7"
   cy="157.3"
   rx="0.9"
   ry="1.1"
   id="ellipse10614" />
		<ellipse
   class="st17"
   cx="223.7"
   cy="161.6"
   rx="0.9"
   ry="1.1"
   id="ellipse10616" />
	</g>
	<g
   id="g10642">
		<ellipse
   class="st17"
   cx="215.8"
   cy="145.7"
   rx="0.9"
   ry="1.1"
   id="ellipse10620" />
		<ellipse
   class="st17"
   cx="221.1"
   cy="145.7"
   rx="0.9"
   ry="1.1"
   id="ellipse10622" />
		<ellipse
   class="st17"
   cx="218.5"
   cy="143.7"
   rx="0.9"
   ry="1.1"
   id="ellipse10624" />
		<ellipse
   class="st17"
   cx="218.5"
   cy="147.9"
   rx="0.9"
   ry="1.1"
   id="ellipse10626" />
		<ellipse
   class="st17"
   cx="213"
   cy="143.7"
   rx="0.9"
   ry="1.1"
   id="ellipse10628" />
		<ellipse
   class="st17"
   cx="213"
   cy="147.9"
   rx="0.9"
   ry="1.1"
   id="ellipse10630" />
		<ellipse
   class="st17"
   cx="210.3"
   cy="145.7"
   rx="0.9"
   ry="1.1"
   id="ellipse10632" />
		<ellipse
   class="st17"
   cx="207.5"
   cy="143.7"
   rx="0.9"
   ry="1.1"
   id="ellipse10634" />
		<ellipse
   class="st17"
   cx="207.5"
   cy="147.9"
   rx="0.9"
   ry="1.1"
   id="ellipse10636" />
		<ellipse
   class="st17"
   cx="223.7"
   cy="143.7"
   rx="0.9"
   ry="1.1"
   id="ellipse10638" />
		<ellipse
   class="st17"
   cx="223.7"
   cy="147.9"
   rx="0.9"
   ry="1.1"
   id="ellipse10640" />
	</g>
	<g
   id="g10666">
		<ellipse
   class="st17"
   cx="215.8"
   cy="132.2"
   rx="0.9"
   ry="1.1"
   id="ellipse10644" />
		<ellipse
   class="st17"
   cx="221.1"
   cy="132.2"
   rx="0.9"
   ry="1.1"
   id="ellipse10646" />
		<ellipse
   class="st17"
   cx="218.5"
   cy="130.2"
   rx="0.9"
   ry="1.1"
   id="ellipse10648" />
		<ellipse
   class="st17"
   cx="218.5"
   cy="134.4"
   rx="0.9"
   ry="1.1"
   id="ellipse10650" />
		<ellipse
   class="st17"
   cx="213"
   cy="130.2"
   rx="0.9"
   ry="1.1"
   id="ellipse10652" />
		<ellipse
   class="st17"
   cx="213"
   cy="134.4"
   rx="0.9"
   ry="1.1"
   id="ellipse10654" />
		<ellipse
   class="st17"
   cx="210.3"
   cy="132.2"
   rx="0.9"
   ry="1.1"
   id="ellipse10656" />
		<ellipse
   class="st17"
   cx="207.5"
   cy="130.2"
   rx="0.9"
   ry="1.1"
   id="ellipse10658" />
		<ellipse
   class="st17"
   cx="207.5"
   cy="134.4"
   rx="0.9"
   ry="1.1"
   id="ellipse10660" />
		<ellipse
   class="st17"
   cx="223.7"
   cy="130.2"
   rx="0.9"
   ry="1.1"
   id="ellipse10662" />
		<ellipse
   class="st17"
   cx="223.7"
   cy="134.4"
   rx="0.9"
   ry="1.1"
   id="ellipse10664" />
	</g>
</g>
<g
   id="g10678">
	<g
   id="g10676">
		<path
   d="M199.1,104.6c-0.6,1.5-0.9,2.4-1.2,3.1c-0.1,0.1-0.2,0.1-0.4,0.1c-0.1,0-0.3,0-0.3-0.1c-0.1-0.3-0.3-1-0.5-1.4l-1.9-4.9    c-0.5-1.2-0.5-1.2-0.9-1.3l-0.5-0.1c-0.1-0.1-0.1-0.3,0-0.4c0.6,0,1,0,1.6,0c0.6,0,1.1,0,1.8,0c0.1,0.1,0.1,0.3,0,0.4l-0.4,0.1    c-0.2,0-0.3,0.1-0.3,0.2c0,0.1,0.2,0.6,0.5,1.3l1.1,2.7l0.4,1c0.1-0.2,0.3-0.6,0.4-1l0.5-1.1c0.3-0.8,0.8-2.1,1-2.5    c0.1-0.2,0.1-0.4,0.1-0.4c0-0.1-0.1-0.1-0.4-0.2l-0.4-0.1c-0.1-0.1-0.1-0.3,0-0.4c0.6,0,1,0,1.5,0c0.4,0,0.8,0,1.1,0    c0.1,0,0.1,0.3,0,0.4l-0.3,0.1c-0.3,0.1-0.5,0.1-0.7,0.4c-0.3,0.4-0.6,1.1-1,2L199.1,104.6z"
   id="path10670" />
		<path
   d="M202.7,101.6c0-1.2,0-1.4-0.5-1.4l-0.4,0c-0.1-0.1-0.1-0.3,0-0.4c0.8-0.1,1.7-0.1,2.8-0.1c1,0,1.7,0.1,2.2,0.3    c0.7,0.3,1.5,0.9,1.5,2.1c0,2-2,2.3-2.6,2.3c-0.1,0-0.3,0-0.4,0c-0.1-0.1-0.1-0.3,0-0.3c1-0.3,1.2-1,1.2-1.9    c0-0.9-0.5-1.8-1.5-1.8c-0.4,0-0.5,0.1-0.5,0.6v5.1c0,1.1,0.1,1.2,0.6,1.3l0.4,0.1c0.1,0.1,0.1,0.3,0,0.4c-0.7,0-1.3,0-1.8,0    c-0.6,0-1.2,0-1.8,0c-0.1-0.1-0.2-0.3,0-0.4l0.3-0.1c0.5-0.1,0.6-0.2,0.6-1.3V101.6z"
   id="path10672" />
		<path
   d="M216.4,105.5c0,0.8,0,1.5,0,1.9c-0.1,0.1-0.4,0.3-0.7,0.3c0,0-0.4-0.6-1-1.3L212,103c-0.7-0.9-1.1-1.4-1.3-1.5    c-0.1,0.1-0.1,0.3-0.1,0.8v2.3c0,1,0,1.9,0.2,2.2c0.1,0.3,0.4,0.3,0.7,0.4l0.3,0c0.1,0.1,0.1,0.3,0,0.4c-0.6,0-1.1,0-1.6,0    c-0.4,0-0.9,0-1.3,0c-0.1-0.1-0.1-0.3,0-0.4l0.2,0c0.3-0.1,0.6-0.1,0.7-0.4c0.1-0.3,0.2-1.2,0.2-2.2v-3c0-0.7,0-0.9-0.1-1    c-0.1-0.2-0.3-0.3-0.7-0.4l-0.3,0c-0.1-0.1-0.1-0.4,0-0.4c0.6,0,1.2,0,1.7,0c0.4,0,0.8,0,1,0c0.1,0.5,0.9,1.5,2,2.7l1,1.2    c0.5,0.6,0.9,1,1.2,1.3c0-0.1,0-0.3,0-0.5v-1.7c0-1,0-1.9-0.2-2.2c-0.1-0.3-0.4-0.3-0.7-0.4l-0.3,0c-0.1-0.1-0.1-0.3,0-0.4    c0.6,0,1.1,0,1.6,0c0.4,0,0.9,0,1.3,0c0.1,0.1,0.1,0.3,0,0.4l-0.2,0c-0.3,0-0.5,0.1-0.6,0.4c-0.1,0.3-0.2,1.2-0.2,2.2V105.5z"
   id="path10674" />
	</g>
</g>
</svg>