<svg id="Layer_1" data-name="Layer 1" xmlns="http://www.w3.org/2000/svg" viewBox="0 0 414.82 227.79"><defs><style>.cls-1{fill:#153267;}.cls-2,.cls-4{fill:none;stroke-width:0.75px;}.cls-2{stroke:#005ac8;}.cls-12,.cls-13,.cls-2,.cls-4,.cls-5,.cls-6{stroke-miterlimit:10;}.cls-3{fill:#005ac8;}.cls-12,.cls-4{stroke:#000;}.cls-5,.cls-6{fill:#f2f2f2;}.cls-13,.cls-5,.cls-6{stroke:#999;}.cls-5{stroke-width:0.5px;}.cls-6{stroke-width:0.54px;}.cls-13,.cls-7{fill:#4d4d4d;}.cls-8{fill:#e6e6e6;}.cls-9{fill:#999;}.cls-10,.cls-12{fill:#333;}.cls-11{fill:#1a1a1a;}.cls-12{stroke-width:0.22px;}.cls-13{stroke-width:0.11px;}.cls-14{fill:#ccc;}.cls-15{fill:#b3b3b3;}.cls-16{fill:#39cc4a;}.cls-17{fill:#c1272d;}.cls-18{fill:#232323;}</style></defs><title>vpn</title><g id="Arrows"><line class="cls-1" x1="238.8" y1="115.94" x2="330.36" y2="115.94"/><line class="cls-2" x1="238.8" y1="115.94" x2="327.19" y2="115.94"/><path class="cls-3" d="M337.76,145a15.86,15.86,0,0,0-4.49,2.5l.9-2.5-.9-2.5A15.86,15.86,0,0,0,337.76,145Z" transform="translate(-7.39 -29.03)"/><line class="cls-4" x1="237.54" y1="125.46" x2="304.03" y2="143.27"/><path d="M314.49,173.12a15.91,15.91,0,0,0-5,1.25l1.52-2.18-.22-2.64A15.87,15.87,0,0,0,314.49,173.12Z" transform="translate(-7.39 -29.03)"/><line class="cls-4" x1="233.87" y1="134.32" x2="293.48" y2="168.74"/><path d="M303.62,199.35a15.81,15.81,0,0,0-5.13-.08l2-1.71.46-2.62A16.1,16.1,0,0,0,303.62,199.35Z" transform="translate(-7.39 -29.03)"/><line class="cls-4" x1="228.03" y1="141.94" x2="276.7" y2="190.61"/><path d="M286.34,221.88a15.68,15.68,0,0,0-4.94-1.41l2.4-1.13,1.13-2.4A15.61,15.61,0,0,0,286.34,221.88Z" transform="translate(-7.39 -29.03)"/><line class="cls-4" x1="237.54" y1="106.43" x2="304.03" y2="88.61"/><path d="M314.49,116.82a15.87,15.87,0,0,0-3.69,3.57l.22-2.64-1.52-2.18A15.91,15.91,0,0,0,314.49,116.82Z" transform="translate(-7.39 -29.03)"/><line class="cls-4" x1="233.87" y1="97.56" x2="293.48" y2="63.14"/><path d="M303.62,90.59A16,16,0,0,0,301,95l-.46-2.61-2-1.71A16.09,16.09,0,0,0,303.62,90.59Z" transform="translate(-7.39 -29.03)"/><line class="cls-4" x1="228.03" y1="89.95" x2="276.7" y2="41.28"/><path d="M286.34,68.06A15.61,15.61,0,0,0,284.93,73l-1.13-2.4-2.4-1.13A15.61,15.61,0,0,0,286.34,68.06Z" transform="translate(-7.39 -29.03)"/><line class="cls-1" x1="85.11" y1="115.94" x2="160.01" y2="115.94"/><line class="cls-2" x1="85.11" y1="115.94" x2="156.84" y2="115.94"/><path class="cls-3" d="M167.4,145a15.86,15.86,0,0,0-4.49,2.5l.91-2.5-.91-2.5A15.86,15.86,0,0,0,167.4,145Z" transform="translate(-7.39 -29.03)"/><line class="cls-4" x1="91.89" y1="145.45" x2="158.38" y2="127.64"/><path d="M168.83,155.85a15.87,15.87,0,0,0-3.69,3.57l.23-2.65-1.52-2.17A15.92,15.92,0,0,0,168.83,155.85Z" transform="translate(-7.39 -29.03)"/><line class="cls-4" x1="103.28" y1="172.96" x2="162.89" y2="138.54"/><path d="M173,166a16.24,16.24,0,0,0-2.64,4.41l-.46-2.61-2-1.71A15.81,15.81,0,0,0,173,166Z" transform="translate(-7.39 -29.03)"/><line class="cls-4" x1="121.4" y1="196.57" x2="170.08" y2="147.9"/><path d="M179.71,174.69a16.07,16.07,0,0,0-1.41,4.94l-1.13-2.41-2.4-1.12A16.15,16.15,0,0,0,179.71,174.69Z" transform="translate(-7.39 -29.03)"/><line class="cls-4" x1="91.89" y1="86.43" x2="158.38" y2="104.24"/><path d="M168.83,134.09a15.92,15.92,0,0,0-5,1.25l1.52-2.18-.23-2.64A15.87,15.87,0,0,0,168.83,134.09Z" transform="translate(-7.39 -29.03)"/><line class="cls-4" x1="103.28" y1="58.93" x2="162.89" y2="93.34"/><path d="M173,124a16.09,16.09,0,0,0-5.13-.08l2-1.71.46-2.61A16,16,0,0,0,173,124Z" transform="translate(-7.39 -29.03)"/><line class="cls-4" x1="121.4" y1="35.31" x2="170.08" y2="83.98"/><path d="M179.71,115.25a16.15,16.15,0,0,0-4.94-1.41l2.41-1.12,1.12-2.41A16.15,16.15,0,0,0,179.71,115.25Z" transform="translate(-7.39 -29.03)"/></g><path class="cls-3" d="M16.09,148.39c-.48,0-1,0-1.5,0s-.89,0-1.38,0c-.07,0-.07-.15,0-.15.66,0,.74-.2.35-1l-.82-1.62h-3l-.47,1.05c-.43,1,.07,1.55,1,1.55.08,0,.08.15,0,.15-.48,0-.8,0-1.41,0s-.9,0-1.44,0c-.06,0-.06-.15,0-.15.65,0,1-.32,1.56-1.67l2.6-5.73s.19-.06.22,0l3,5.91c.57,1.13.88,1.49,1.28,1.49C16.16,148.24,16.16,148.39,16.09,148.39Zm-3.53-3.08-1.38-2.74L10,145.31Z" transform="translate(-7.39 -29.03)"/><path class="cls-3" d="M18.45,145.46c.59.34,1.26.66,1.26,1.49a1.62,1.62,0,0,1-1.78,1.57,2.42,2.42,0,0,1-1.25-.32.2.2,0,0,1-.07-.15l0-1.18c0-.05.13-.06.15,0a1.93,1.93,0,0,0,1.53,1.44c.33,0,.55-.19.55-.61,0-.66-.51-1-1-1.24s-1.19-.58-1.19-1.42c0-1,.86-1.37,1.74-1.37a2.57,2.57,0,0,1,1,.18.13.13,0,0,1,.11.13c0,.32,0,.65,0,1.07,0,0-.15,0-.15,0A1.43,1.43,0,0,0,18,143.87c-.23,0-.5.07-.5.46S18,145.16,18.45,145.46Z" transform="translate(-7.39 -29.03)"/><path class="cls-3" d="M22.43,145.46c.58.34,1.25.66,1.25,1.49a1.62,1.62,0,0,1-1.78,1.57,2.45,2.45,0,0,1-1.25-.32.2.2,0,0,1-.07-.15l0-1.18c0-.05.14-.06.15,0a1.93,1.93,0,0,0,1.53,1.44.53.53,0,0,0,.56-.61c0-.66-.52-1-1-1.24s-1.19-.58-1.19-1.42c0-1,.87-1.37,1.74-1.37a2.65,2.65,0,0,1,1,.18.13.13,0,0,1,.1.13c0,.32,0,.65,0,1.07,0,0-.14,0-.14,0A1.44,1.44,0,0,0,22,143.87c-.23,0-.49.07-.49.46S21.92,145.16,22.43,145.46Z" transform="translate(-7.39 -29.03)"/><path class="cls-3" d="M29.16,147.87l-1.24.59-.12,0c-.24,0-.51-.26-.61-.75l-.52.36a1.58,1.58,0,0,1-1.05.38c-.71,0-1.05-.33-1.05-.86,0-.79.75-.92,1.5-1.2l1.08-.4v-.68c0-1-.14-1.46-.55-1.46-.6,0-.69.68-.72,1-.05.49-.3.67-.69.67s-.58-.2-.58-.45c0-.78,1.61-1.43,2.48-1.43.66,0,1.19.4,1.19,1.33v2.12c0,.47.18.74.48.74a.83.83,0,0,0,.35-.09C29.17,147.72,29.23,147.84,29.16,147.87Zm-2-.34a.41.41,0,0,1,0-.16v-1.15l-.51.24c-.21.08-.75.23-.75.77a.6.6,0,0,0,.62.61.71.71,0,0,0,.39-.13Z" transform="translate(-7.39 -29.03)"/><path class="cls-3" d="M33.1,147.67a2.37,2.37,0,0,1-1.75.86c-.58,0-1.27-.23-1.27-1.1v-2.66c0-.51-.15-.66-.61-.66-.06,0-.06-.22,0-.22a1.57,1.57,0,0,0,1.57-1c0-.06.18-.06.18,0v.95c.51,0,1,0,1.56-.1,0,0,.08.14.08.29s-.07.36-.13.33a7.69,7.69,0,0,0-1.51-.18V147a.79.79,0,0,0,.85.89,1.59,1.59,0,0,0,.94-.36C33.06,147.51,33.16,147.62,33.1,147.67Z" transform="translate(-7.39 -29.03)"/><path class="cls-3" d="M38.24,147.87l-1.24.59-.12,0c-.24,0-.51-.26-.61-.75l-.51.36a1.61,1.61,0,0,1-1.06.38c-.71,0-1-.33-1-.86,0-.79.74-.92,1.5-1.2l1.08-.4v-.68c0-1-.15-1.46-.55-1.46-.61,0-.7.68-.72,1,0,.49-.3.67-.7.67s-.58-.2-.58-.45c0-.78,1.61-1.43,2.49-1.43.66,0,1.18.4,1.18,1.33v2.12c0,.47.18.74.48.74a.83.83,0,0,0,.35-.09C38.25,147.72,38.31,147.84,38.24,147.87Zm-2-.34a.81.81,0,0,1,0-.16v-1.15l-.52.24c-.2.08-.74.23-.74.77a.59.59,0,0,0,.61.61.69.69,0,0,0,.39-.13Z" transform="translate(-7.39 -29.03)"/><path class="cls-5" d="M329,44.69a6.36,6.36,0,0,0-6.36-6.36,6.14,6.14,0,0,0-1.49.18,7.06,7.06,0,0,0-6.53-4.39h-.15a7.36,7.36,0,0,0-14.06.74,5.21,5.21,0,0,0-6.09,6.42A6.9,6.9,0,0,0,295.49,55l.49,0a8.05,8.05,0,0,0,14.44,3.69,8.06,8.06,0,0,0,10.74-2.41,5.43,5.43,0,0,0,1.4.18,5.62,5.62,0,0,0,5.62-5.63,5.56,5.56,0,0,0-.48-2.27A6.3,6.3,0,0,0,329,44.69Z" transform="translate(-7.39 -29.03)"/><path class="cls-5" d="M350.22,76.28a6,6,0,0,0-4.48-4.85,6.9,6.9,0,0,0-7.22-10.05,7.31,7.31,0,0,0-1.49.43,7.49,7.49,0,0,0-13.56,2,5.08,5.08,0,0,0-7.73,5.13,4.88,4.88,0,0,0,.37,1.23,7.48,7.48,0,0,0,3.77,14.42,7.23,7.23,0,0,0,1.47-.39,8.8,8.8,0,0,0,.09,1A7.58,7.58,0,0,0,334.63,89a6.91,6.91,0,0,0,11.63-6A6,6,0,0,0,350.22,76.28Z" transform="translate(-7.39 -29.03)"/><path class="cls-5" d="M357.27,101.89a9,9,0,0,0-1.57.14,7.4,7.4,0,0,0-11-5.26,7.46,7.46,0,0,0-12.87,5.12,7.2,7.2,0,0,0,.08,1h-.12a7.21,7.21,0,1,0,0,14.42H332a6.31,6.31,0,0,0,10.47,2.84,6.8,6.8,0,0,0,11.61-1.69,8.5,8.5,0,0,0,3.16.6,8.61,8.61,0,1,0,0-17.21Z" transform="translate(-7.39 -29.03)"/><path class="cls-5" d="M406.38,132.85a15.63,15.63,0,0,0-2.84.26,13.37,13.37,0,0,0-20-9.52,13.47,13.47,0,0,0-23.14,11.17h-.23a13,13,0,0,0,0,26.09h.51a11.43,11.43,0,0,0,19,5.14,12.31,12.31,0,0,0,21-3.06,15.58,15.58,0,1,0,5.72-30.06Z" transform="translate(-7.39 -29.03)"/><path d="M357.63,149.83l-1.32.62s-.06,0-.1,0-.37-.35-.38-1a2.81,2.81,0,0,1-2,1.05,2.07,2.07,0,0,1-1.87-2.3,2.67,2.67,0,0,1,2.74-2.65,2.14,2.14,0,0,1,1.15.32v-2.69c0-.56-.1-.82-.4-.82a1.49,1.49,0,0,0-.55.17c-.07,0-.12-.11-.07-.13l1.52-.74.06,0s.11.05.11.1v7.28c0,.58.12.82.43.82a1.27,1.27,0,0,0,.63-.17C357.63,149.66,357.69,149.79,357.63,149.83Zm-1.8-.54v-2.64a1.74,1.74,0,0,0-1.48-.83c-1,0-1.63.72-1.63,2.06s.67,2.21,1.56,2.21A2.16,2.16,0,0,0,355.83,149.29Z" transform="translate(-7.39 -29.03)"/><path d="M358.29,150.23c.62,0,.77-.15.77-.83v-2.24c0-.57-.1-.82-.4-.82a1.24,1.24,0,0,0-.54.17c-.07,0-.12-.11-.07-.15l1.56-.72h.05a.12.12,0,0,1,.09.1c0,.13,0,.65,0,1.41v2.26c0,.68.12.83.75.83,0,0,0,.14,0,.14-.28,0-.67,0-1.09,0s-.8,0-1.1,0C358.25,150.37,358.25,150.23,358.29,150.23Zm.48-6.51a.47.47,0,0,1,.53-.5.51.51,0,0,1,0,1A.47.47,0,0,1,358.77,143.72Z" transform="translate(-7.39 -29.03)"/><path d="M363.22,147.66c.6.31,1.22.61,1.22,1.39a1.51,1.51,0,0,1-1.69,1.45,1.88,1.88,0,0,1-1.15-.36.17.17,0,0,1-.07-.14l0-.94c0-.05.13-.06.14,0,.3.8.8,1.22,1.44,1.22s.82-.25.78-.75c0-.69-.55-1-1.09-1.21s-1.19-.58-1.19-1.38.83-1.33,1.63-1.33a2,2,0,0,1,.88.18c.09,0,.11.07.11.13,0,.25,0,.54,0,.87,0,0-.14,0-.14,0,0-.52-.69-1-1.25-1a.59.59,0,0,0-.65.65C362.14,147.09,362.68,147.38,363.22,147.66Z" transform="translate(-7.39 -29.03)"/><path d="M369,146.12a.36.36,0,0,1-.4.38c-.33,0-.41-.36-.8-.36-.19,0-.35.08-.88.69v2.57c0,.68.18.83,1.17.83.06,0,.06.14,0,.14-.39,0-.94,0-1.5,0s-.82,0-1.09,0c0,0,0-.14,0-.14.62,0,.74-.15.74-.83V147c0-.52-.11-.76-.42-.76a2,2,0,0,0-.65.18c-.07,0-.13-.1-.06-.14l1.39-.66h.08c.12,0,.34.35.34,1h0c.67-.78,1-1,1.33-1S369,145.85,369,146.12Z" transform="translate(-7.39 -29.03)"/><path d="M375.23,149.82l-1.4.66h-.05c-.13,0-.34-.35-.34-1v0a2.54,2.54,0,0,1-1.9,1c-.79,0-1.27-.5-1.27-1.47v-1.83c0-.63-.1-.89-.36-.89a.87.87,0,0,0-.41.12c-.06,0-.12-.12-.06-.15l1.33-.6h.05s.12.05.12.1v2.86c0,.95.33,1.4,1,1.4a2.11,2.11,0,0,0,1.49-.75v-2.08c0-.63-.08-.89-.36-.89a.87.87,0,0,0-.4.12c-.06,0-.12-.12-.05-.15l1.33-.6h0s.12.05.12.1v3.36c0,.54.12.76.42.76a2,2,0,0,0,.63-.16C375.24,149.66,375.29,149.78,375.23,149.82Z" transform="translate(-7.39 -29.03)"/><path d="M380.93,147.79a2.62,2.62,0,0,1-2.58,2.74,2.43,2.43,0,0,1-1.27-.32v2.49c0,.68.19.82,1.2.82,0,0,0,.15,0,.15-.42,0-.95,0-1.52,0s-.83,0-1.11,0c0,0,0-.15,0-.15.64,0,.76-.14.76-.82v-5.64c0-.56-.11-.8-.43-.8a1.6,1.6,0,0,0-.64.16c-.07,0-.13-.09-.07-.13l1.33-.63a.16.16,0,0,1,.09,0c.21,0,.38.33.39,1a2.85,2.85,0,0,1,2-1A2,2,0,0,1,380.93,147.79Zm-.77.37c0-1.39-.69-2.12-1.57-2.12a2.16,2.16,0,0,0-1.51.78v2.7a2.06,2.06,0,0,0,1.63.75C379.54,150.27,380.16,149.52,380.16,148.16Z" transform="translate(-7.39 -29.03)"/><path d="M385.19,149.88a2.41,2.41,0,0,1-1.53.63c-.59,0-1.15-.22-1.15-1v-2.82c0-.59-.08-.66-.62-.66-.06,0-.06-.15,0-.15A1.05,1.05,0,0,0,383,145s.18,0,.18,0v.89c.55,0,1.07-.06,1.67-.12,0,0,.08.13.08.29s-.07.3-.13.29a6.35,6.35,0,0,0-1.62-.19v3a.86.86,0,0,0,.95,1,1.55,1.55,0,0,0,1-.33C385.17,149.72,385.25,149.83,385.19,149.88Z" transform="translate(-7.39 -29.03)"/><path d="M387.44,147.14V151c0,1.59-.42,2.31-1.69,2.8,0,0-.1-.11-.06-.13.79-.34,1.06-1,1.06-2.4v-4.06c0-.57-.09-.82-.37-.82a1.28,1.28,0,0,0-.55.17c-.07,0-.13-.11-.07-.15l1.56-.72h0a.11.11,0,0,1,.11.1C387.46,145.86,387.44,146.38,387.44,147.14Zm-1-3.42a.46.46,0,0,1,.52-.5.51.51,0,1,1,0,1A.47.47,0,0,1,386.47,143.72Z" transform="translate(-7.39 -29.03)"/><path d="M388.93,150.21c1.53-1.93,3.27-3.76,3.27-5.45a1.33,1.33,0,0,0-1.41-1.51,1.69,1.69,0,0,0-1.65,1.31s-.14,0-.13,0a2.06,2.06,0,0,1,2.12-1.79,1.71,1.71,0,0,1,1.86,1.78c0,2-2.58,4.16-3.3,5.14,0,.07,0,.09.05.09,2.78,0,3.37,0,3.4-.83,0,0,.13,0,.13,0v1.32a.12.12,0,0,1-.11.13H389C389,150.37,388.87,150.26,388.93,150.21Z" transform="translate(-7.39 -29.03)"/><path d="M394.48,146.62c0-2.31,1-3.89,2.47-3.89s2.4,1.59,2.4,3.92-1,3.88-2.42,3.88S394.48,149,394.48,146.62Zm4,.17c0-2.67-.73-3.91-1.68-3.91s-1.5,1.46-1.5,3.65.65,3.83,1.75,3.83S398.5,149,398.5,146.79Z" transform="translate(-7.39 -29.03)"/><path d="M400.59,150a.48.48,0,0,1,.53-.49.47.47,0,0,1,.52.49.48.48,0,0,1-.52.53A.5.5,0,0,1,400.59,150Z" transform="translate(-7.39 -29.03)"/><path d="M402.73,148a2.42,2.42,0,0,1,2.55-2.41,2.37,2.37,0,0,1,2.33,2.47,2.44,2.44,0,0,1-2.55,2.48A2.38,2.38,0,0,1,402.73,148Zm4.06.4c0-1.51-.79-2.58-1.91-2.58-.85,0-1.35.64-1.35,1.81,0,1.48.77,2.68,1.88,2.68C406.25,150.3,406.79,149.73,406.79,148.39Z" transform="translate(-7.39 -29.03)"/><path d="M412.08,146.12a.36.36,0,0,1-.39.38c-.34,0-.41-.36-.81-.36-.19,0-.34.08-.87.69v2.57c0,.68.18.83,1.16.83.06,0,.06.14,0,.14-.38,0-.93,0-1.5,0s-.81,0-1.09,0c-.05,0-.05-.14,0-.14.63,0,.75-.15.75-.83V147c0-.52-.11-.76-.42-.76a2,2,0,0,0-.65.18c-.07,0-.13-.1-.06-.14l1.39-.66h.07c.12,0,.35.35.35,1h0c.67-.78,1-1,1.33-1S412.08,145.85,412.08,146.12Z" transform="translate(-7.39 -29.03)"/><path d="M417.4,151.3c0,1.34-1.44,2.43-3,2.43-1.12,0-1.77-.57-1.77-1.32a2.32,2.32,0,0,1,1.23-1.75c-.56-.08-.93-.28-.93-.81s.31-.85.86-1.28a1.51,1.51,0,0,1-.86-1.36c0-.88.77-1.55,1.91-1.55a1.91,1.91,0,0,1,1.24.37,2.44,2.44,0,0,1,1.29-.39s.06.15.06.27-.05.44-.11.41a2.15,2.15,0,0,0-.8-.18l-.29,0a1.55,1.55,0,0,1,.41,1,1.72,1.72,0,0,1-1.89,1.58,2.13,2.13,0,0,1-.78-.13,1,1,0,0,0-.44.78c0,.52.44.66,1.74.66C416.07,150.09,417.4,150,417.4,151.3Zm-.6.46c0-1-.79-1-1.92-1-.25,0-.5,0-.72,0a1.47,1.47,0,0,0-.82,1.32c0,.83.57,1.36,1.58,1.36A1.66,1.66,0,0,0,416.8,151.76Zm-3.11-4.83c0,1.12.69,1.66,1.31,1.66s.9-.32.9-1.13c0-1-.6-1.62-1.33-1.62C414,145.84,413.69,146.15,413.69,146.93Z" transform="translate(-7.39 -29.03)"/><path class="cls-6" d="M336.58,205.24a7.43,7.43,0,0,0-2.41.4c0-.14,0-.27,0-.4a7.26,7.26,0,0,0-13.87-3,6.56,6.56,0,0,0-9.72,5.05h0a7.53,7.53,0,1,0,3.63,14.13,7.53,7.53,0,0,0,10.66.27,6.88,6.88,0,0,0,9.9-1.6,7.84,7.84,0,0,0,1.83.22,7.53,7.53,0,1,0,0-15.06Z" transform="translate(-7.39 -29.03)"/><path class="cls-5" d="M363.46,183.13a7.2,7.2,0,0,0-6.19-7.13v-.08a7,7,0,0,0-7-7,7.26,7.26,0,0,0-2.05.3,6.43,6.43,0,0,0-11.67,1,6,6,0,0,0-1.91-.32,5.85,5.85,0,0,0-5.85,5.86h-.11a6,6,0,1,0,0,11.92h0v.22a6.18,6.18,0,0,0,10.52,4.41,5.88,5.88,0,0,0,6.84,1.16A7.52,7.52,0,0,0,358.59,190,7.23,7.23,0,0,0,363.46,183.13Z" transform="translate(-7.39 -29.03)"/><path class="cls-6" d="M320.65,237.61a6.94,6.94,0,0,0,.16-1.52,7.24,7.24,0,0,0-10.59-6.43,7,7,0,0,0-13,2.38,6.76,6.76,0,0,0-8.92,10.08,6.64,6.64,0,0,0-.86,3.29,6.73,6.73,0,0,0,9.15,6.28,6.9,6.9,0,0,0,5.81,3.18,6.8,6.8,0,0,0,2.31-.4,7.3,7.3,0,0,0,12.05-3,8.45,8.45,0,0,0,1,.07,7.25,7.25,0,0,0,2.84-13.91Z" transform="translate(-7.39 -29.03)"/><path d="M39.28,102.69h37.1a1.43,1.43,0,0,1,1.43,1.43v22.55a0,0,0,0,1,0,0h-40a0,0,0,0,1,0,0V104.11A1.43,1.43,0,0,1,39.28,102.69Z"/><rect class="cls-7" x="39.56" y="104.4" width="36.53" height="20.55"/><path class="cls-8" d="M32.23,126.66H83.41a.1.1,0,0,1,.1.1v1.57a.12.12,0,0,1-.12.12H32.27a.13.13,0,0,1-.13-.13v-1.57a.09.09,0,0,1,.09-.09Z"/><path class="cls-9" d="M90.9,157.48h-.12a9.11,9.11,0,0,1-4.42.74H44.08a9,9,0,0,1-4-.52l-.45-.22Z" transform="translate(-7.39 -29.03)"/><path class="cls-9" d="M52.18,126.66H63.6a0,0,0,0,1,0,0v.2a.74.74,0,0,1-.74.74H52.92a.74.74,0,0,1-.74-.74v-.2A0,0,0,0,1,52.18,126.66Z"/><path d="M76.62,115.48v-7.69c0-.08,0-.16-.07-.22s0-.07,0-.11v-1.69a.47.47,0,0,1,.06-.15s0-.06,0-.1v-.32s0-.07,0-.08-.08-.18-.08-.28v-1.55c0-.06,0-.12.07-.18a.38.38,0,0,0,0-.1v-.77a.17.17,0,0,0,0-.08c-.13-.08-.09-.2-.09-.3v-.51c0-.09,0-.19.08-.26s0-.07,0-.11V99.4a2,2,0,0,1,1.69-2,1.86,1.86,0,0,1,.33,0h9.68a2,2,0,0,1,2,1.91c0,.36,0,.72,0,1.08v3.36c0,.07,0,.14.06.18a.18.18,0,0,1,0,.11v2.8s0,.08,0,.1-.07.15-.07.23v15c0,.4,0,.8,0,1.19a2,2,0,0,1-1.7,1.83,2.56,2.56,0,0,1-.39,0H78.71a2,2,0,0,1-2.07-1.79,7,7,0,0,1,0-1c0-2.27,0-4.55,0-6.83Zm.83-4.27h0q0,5.91,0,11.83a1.21,1.21,0,0,0,1.21,1.24h9.65a1.13,1.13,0,0,0,.81-.33,1.24,1.24,0,0,0,.4-1V99.36a1.24,1.24,0,0,0-1.17-1.21c-.43,0-.86,0-1.29,0a.17.17,0,0,0-.19.18c0,.06,0,.13,0,.19a.77.77,0,0,1-.8.6H80.87a.75.75,0,0,1-.77-.75c0-.16-.06-.21-.22-.21H78.67a.86.86,0,0,0-.28,0,1.2,1.2,0,0,0-.94,1.21Z" transform="translate(-7.39 -29.03)"/><path class="cls-7" d="M77.45,111.21V99.4a1.2,1.2,0,0,1,.94-1.21.86.86,0,0,1,.28,0h1.21c.16,0,.21,0,.22.21a.75.75,0,0,0,.77.75h5.19a.77.77,0,0,0,.8-.6c0-.06,0-.13,0-.19a.17.17,0,0,1,.19-.18c.43,0,.86,0,1.29,0a1.24,1.24,0,0,1,1.17,1.21V123a1.24,1.24,0,0,1-.4,1,1.13,1.13,0,0,1-.81.33H78.67A1.21,1.21,0,0,1,77.46,123q0-5.92,0-11.83Z" transform="translate(-7.39 -29.03)"/><path d="M103.29,209.47v-10A1.42,1.42,0,0,0,102,198h-.31v-.11H99.86V198H93.65a1.16,1.16,0,0,0-1,.58,1.61,1.61,0,0,0-.25.9v19.84a1.73,1.73,0,0,0,.15.78,1.17,1.17,0,0,0,1.08.76h8.31a1.33,1.33,0,0,0,.76-.25,1.51,1.51,0,0,0,.63-1.3C103.28,216.05,103.29,212.76,103.29,209.47Z" transform="translate(-7.39 -29.03)"/><rect class="cls-7" x="85.58" y="171.85" width="9.7" height="17.16"/><path d="M126.53,37.06V33.53h-.12v-.46a1.79,1.79,0,0,0-1.65-1.8H114.32A1.45,1.45,0,0,0,113,32a2,2,0,0,0-.31,1.13V58a2.2,2.2,0,0,0,.19,1,1.47,1.47,0,0,0,1.35.95h10.42a1.66,1.66,0,0,0,1-.31,1.86,1.86,0,0,0,.79-1.63V37.06Z" transform="translate(-7.39 -29.03)"/><rect class="cls-7" x="106.08" y="5.81" width="12.16" height="21.53"/><rect class="cls-10" x="87.45" y="201.82" width="34.87" height="19.68"/><rect class="cls-7" x="88.95" y="203.31" width="31.88" height="16.69"/><path class="cls-7" d="M82.6,221.49h44.58a.12.12,0,0,1,.12.12v2.09a0,0,0,0,1,0,0H82.47a0,0,0,0,1,0,0v-2.09A.12.12,0,0,1,82.6,221.49Z"/><path class="cls-10" d="M134.7,252.73c0,.66,0,.66-1.48.66H91.32c-1.45,0-1.45,0-1.45-.66Z" transform="translate(-7.39 -29.03)"/><rect class="cls-10" x="99.96" y="221.9" width="9.96" height="0.82"/><rect class="cls-11" x="99.96" y="222.02" width="7.09" height="0.58"/><path class="cls-11" d="M86.36,165.41H86v-.13H84.69v.13H64.94a.89.89,0,0,0-.89.9v29.14a.89.89,0,0,0,.89.9H86.36a.89.89,0,0,0,.89-.9V166.31A.89.89,0,0,0,86.36,165.41Z" transform="translate(-7.39 -29.03)"/><rect class="cls-7" x="57.83" y="138.84" width="20.86" height="26.03"/><rect class="cls-12" x="72.69" y="18.98" width="23.79" height="43.61" rx="1.98" ry="1.98"/><rect class="cls-13" x="77.42" y="26.1" width="14.33" height="1.59" rx="0.2" ry="0.2"/><rect class="cls-13" x="77.42" y="22.8" width="14.33" height="1.59" rx="0.2" ry="0.2"/><circle class="cls-14" cx="84.59" cy="42.42" r="1.83"/><circle class="cls-15" cx="84.59" cy="42.42" r="1.69"/><rect class="cls-13" x="77.42" y="29.39" width="14.33" height="6.33" rx="0.2" ry="0.2"/><rect class="cls-13" x="77.42" y="47.37" width="14.33" height="11.23" rx="1.98" ry="1.98"/><path class="cls-7" d="M92.31,70.68v.22a.77.77,0,0,1,.46.71.79.79,0,1,1-1.58,0,.77.77,0,0,1,.46-.71v-.22A1,1,0,0,0,92,72.61a1,1,0,0,0,1-1A1,1,0,0,0,92.31,70.68Z" transform="translate(-7.39 -29.03)"/><rect class="cls-7" x="84.49" y="41.12" width="0.2" height="1.59"/><circle class="cls-14" cx="198.23" cy="116.79" r="33.19"/><rect class="cls-11" x="179.2" y="97.76" width="38.06" height="38.06"/><rect class="cls-10" x="176.29" y="97.76" width="43.87" height="10.97"/><rect class="cls-10" x="176.29" y="111.31" width="43.87" height="10.97"/><rect class="cls-10" x="176.29" y="124.85" width="43.87" height="10.97"/><circle class="cls-16" cx="181.23" cy="103.25" r="1.1"/><circle class="cls-11" cx="185.15" cy="103.25" r="1.1"/><circle class="cls-17" cx="189.08" cy="103.25" r="1.1"/><circle class="cls-16" cx="181.23" cy="116.79" r="1.1"/><circle class="cls-17" cx="185.15" cy="116.79" r="1.1"/><circle class="cls-17" cx="189.08" cy="116.79" r="1.1"/><circle class="cls-16" cx="181.23" cy="130.34" r="1.1"/><circle class="cls-16" cx="185.15" cy="130.34" r="1.1"/><circle class="cls-11" cx="189.08" cy="130.34" r="1.1"/><ellipse class="cls-18" cx="208.39" cy="130.34" rx="0.93" ry="1.1"/><ellipse class="cls-18" cx="213.73" cy="130.34" rx="0.93" ry="1.1"/><ellipse class="cls-18" cx="211.14" cy="128.3" rx="0.93" ry="1.1"/><ellipse class="cls-18" cx="211.14" cy="132.53" rx="0.93" ry="1.1"/><ellipse class="cls-18" cx="205.63" cy="128.3" rx="0.93" ry="1.1"/><ellipse class="cls-18" cx="205.63" cy="132.53" rx="0.93" ry="1.1"/><ellipse class="cls-18" cx="202.88" cy="130.34" rx="0.93" ry="1.1"/><ellipse class="cls-18" cx="200.14" cy="128.3" rx="0.93" ry="1.1"/><ellipse class="cls-18" cx="200.14" cy="132.53" rx="0.93" ry="1.1"/><ellipse class="cls-18" cx="216.33" cy="128.3" rx="0.93" ry="1.1"/><ellipse class="cls-18" cx="216.33" cy="132.53" rx="0.93" ry="1.1"/><ellipse class="cls-18" cx="208.39" cy="116.72" rx="0.93" ry="1.1"/><ellipse class="cls-18" cx="213.73" cy="116.72" rx="0.93" ry="1.1"/><ellipse class="cls-18" cx="211.14" cy="114.68" rx="0.93" ry="1.1"/><ellipse class="cls-18" cx="211.14" cy="118.91" rx="0.93" ry="1.1"/><ellipse class="cls-18" cx="205.63" cy="114.68" rx="0.93" ry="1.1"/><ellipse class="cls-18" cx="205.63" cy="118.91" rx="0.93" ry="1.1"/><ellipse class="cls-18" cx="202.88" cy="116.72" rx="0.93" ry="1.1"/><ellipse class="cls-18" cx="200.14" cy="114.68" rx="0.93" ry="1.1"/><ellipse class="cls-18" cx="200.14" cy="118.91" rx="0.93" ry="1.1"/><ellipse class="cls-18" cx="216.33" cy="114.68" rx="0.93" ry="1.1"/><ellipse class="cls-18" cx="216.33" cy="118.91" rx="0.93" ry="1.1"/><ellipse class="cls-18" cx="208.39" cy="103.17" rx="0.93" ry="1.1"/><ellipse class="cls-18" cx="213.73" cy="103.17" rx="0.93" ry="1.1"/><ellipse class="cls-18" cx="211.14" cy="101.13" rx="0.93" ry="1.1"/><ellipse class="cls-18" cx="211.14" cy="105.36" rx="0.93" ry="1.1"/><ellipse class="cls-18" cx="205.63" cy="101.13" rx="0.93" ry="1.1"/><ellipse class="cls-18" cx="205.63" cy="105.36" rx="0.93" ry="1.1"/><ellipse class="cls-18" cx="202.88" cy="103.17" rx="0.93" ry="1.1"/><ellipse class="cls-18" cx="200.14" cy="101.13" rx="0.93" ry="1.1"/><ellipse class="cls-18" cx="200.14" cy="105.36" rx="0.93" ry="1.1"/><ellipse class="cls-18" cx="216.33" cy="101.13" rx="0.93" ry="1.1"/><ellipse class="cls-18" cx="216.33" cy="105.36" rx="0.93" ry="1.1"/><path d="M201.91,100.2c-.59,0-1.14.56-1.46,1.42l-2.22,5.92c0,.06-.24.06-.27,0l-3.06-6.48c-.27-.56-.54-.86-.91-.86-.05,0-.05-.14,0-.14.28,0,.28,0,.88,0,1.33,0,1.84,0,2.23,0,.05,0,.05.14,0,.14-.68,0-.94.42-.62,1.07l2.07,4.43,1.56-4.12c.29-.78,0-1.38-.74-1.38-.05,0-.05-.14,0-.14.45,0,.8,0,1.48,0,.45,0,.66,0,1.06,0C202,100.06,202,100.2,201.91,100.2Z" transform="translate(-7.39 -29.03)"/><path d="M205.59,107.41s0,.15,0,.15c-.51,0-1.1,0-1.81,0s-1.1,0-1.52,0c0,0,0-.15,0-.15.73,0,.85-.13.85-.83V101c0-.68-.12-.83-.85-.83,0,0,0-.14,0-.14.42,0,.94,0,1.51,0,.39,0,1.09-.08,1.63-.08,1.51,0,2.58.57,2.64,2a2.41,2.41,0,0,1-2.61,2.42,2.31,2.31,0,0,1-.57-.06c-.05,0,0-.16,0-.15a2.17,2.17,0,0,0,.41,0c.68,0,1.28-.65,1.28-2s-.54-2-1.57-2c-.44,0-.58.14-.58.77v5.48C204.44,107.26,204.6,107.41,205.59,107.41Z" transform="translate(-7.39 -29.03)"/><path d="M217.16,100.2c-.64,0-1,.54-1,1.4v6.14s-.11.06-.13,0l-5.63-6.4V106c0,.85.37,1.38,1,1.38,0,0,0,.15,0,.15-.35,0-.72,0-1.17,0s-.94,0-1.33,0c-.05,0-.05-.15,0-.15.7,0,1.14-.53,1.14-1.38V101c-.54-.59-.87-.76-1.26-.76,0,0,0-.14,0-.14l1,0,1.32,0c.2,0,.22.17.6.62l4.15,4.79V101.6c0-.86-.37-1.4-1-1.4,0,0,0-.14,0-.14.34,0,.71,0,1.16,0s.86,0,1.21,0C217.2,100.06,217.2,100.2,217.16,100.2Z" transform="translate(-7.39 -29.03)"/></svg>