<svg id="Layer_1" data-name="Layer 1" xmlns="http://www.w3.org/2000/svg" viewBox="0 0 581.06 504"><defs><style>.cls-1{opacity:0.1;}.cls-2{fill:#00a0fa;stroke:#245a80;}.cls-10,.cls-11,.cls-12,.cls-13,.cls-14,.cls-15,.cls-16,.cls-17,.cls-18,.cls-19,.cls-2,.cls-3,.cls-4,.cls-5,.cls-6,.cls-7,.cls-8,.cls-9{stroke-miterlimit:10;}.cls-10,.cls-11,.cls-12,.cls-13,.cls-14,.cls-17,.cls-18,.cls-2,.cls-3,.cls-4,.cls-5,.cls-6,.cls-7,.cls-8,.cls-9{stroke-width:0.5px;}.cls-3{fill:#a0fa82;stroke:#617d46;}.cls-4{fill:#fa7850;stroke:#8e432a;}.cls-5{fill:#f0f032;stroke:#87881f;}.cls-6{fill:#005ac8;stroke:#153267;}.cls-7{fill:#aa0a3c;stroke:#5c0015;}.cls-17,.cls-8{fill:#006e82;}.cls-10,.cls-14,.cls-15,.cls-16,.cls-8,.cls-9{stroke:#000;}.cls-18,.cls-9{fill:#aea389;}.cls-10,.cls-15,.cls-16,.cls-19{fill:none;}.cls-11{fill:#fbb03b;stroke:#91661b;}.cls-12{fill:#0ab45a;stroke:#006b33;}.cls-13{fill:#8cc63f;stroke:#4c7521;}.cls-14{fill:#736357;}.cls-16{stroke-width:0.75px;}.cls-17,.cls-19{stroke:#003b48;}.cls-18{stroke:#656050;}.cls-20{fill:#003b48;}</style></defs><title>dhe-mitm</title><rect class="cls-1" x="135.05" width="307.11" height="504"/><path class="cls-2" d="M555,226.5" transform="translate(-68.39)"/><path class="cls-2" d="M582,187.5v24c0,5-12.09,9-27,9s-27-4-27-9v-24" transform="translate(-68.39)"/><ellipse class="cls-2" cx="486.61" cy="187.5" rx="27" ry="9"/><path class="cls-3" d="M159,335.34" transform="translate(-68.39)"/><path class="cls-3" d="M186,296.34v24c0,5-12.09,9-27,9s-27-4-27-9v-24" transform="translate(-68.39)"/><ellipse class="cls-3" cx="90.61" cy="296.34" rx="27" ry="9"/><path class="cls-4" d="M159,226.5" transform="translate(-68.39)"/><path class="cls-4" d="M186,187.5v24c0,5-12.09,9-27,9s-27-4-27-9v-24" transform="translate(-68.39)"/><ellipse class="cls-4" cx="90.61" cy="187.5" rx="27" ry="9"/><path class="cls-3" d="M555,333.85" transform="translate(-68.39)"/><path class="cls-3" d="M582,294.85v24c0,5-12.09,9-27,9s-27-4-27-9v-24" transform="translate(-68.39)"/><ellipse class="cls-3" cx="486.57" cy="294.85" rx="27" ry="9"/><path class="cls-5" d="M555,113.91" transform="translate(-68.39)"/><path class="cls-5" d="M582,86.91v12c0,5-12.09,9-27,9s-27-4-27-9v-12" transform="translate(-68.39)"/><ellipse class="cls-5" cx="486.61" cy="86.91" rx="27" ry="9"/><path class="cls-5" d="M159,113.91" transform="translate(-68.39)"/><path class="cls-5" d="M186,86.91v12c0,5-12.09,9-27,9s-27-4-27-9v-12" transform="translate(-68.39)"/><ellipse class="cls-5" cx="90.61" cy="86.91" rx="27" ry="9"/><path class="cls-6" d="M555,159.1" transform="translate(-68.39)"/><path class="cls-6" d="M582,132.1v12c0,5-12.09,9-27,9s-27-4-27-9v-12" transform="translate(-68.39)"/><ellipse class="cls-6" cx="486.61" cy="132.1" rx="27" ry="9"/><path class="cls-6" d="M555,378.1" transform="translate(-68.39)"/><path class="cls-6" d="M582,351.1v12c0,5-12.09,9-27,9s-27-4-27-9v-12" transform="translate(-68.39)"/><ellipse class="cls-6" cx="486.57" cy="351.1" rx="27" ry="9"/><path class="cls-7" d="M159,159.1" transform="translate(-68.39)"/><path class="cls-7" d="M186,132.1v12c0,5-12.09,9-27,9s-27-4-27-9v-12" transform="translate(-68.39)"/><ellipse class="cls-7" cx="90.61" cy="132.1" rx="27" ry="9"/><path class="cls-7" d="M159,379.73" transform="translate(-68.39)"/><path class="cls-7" d="M186,352.73v12c0,5-12.09,9-27,9s-27-4-27-9v-12" transform="translate(-68.39)"/><ellipse class="cls-7" cx="90.61" cy="352.73" rx="27" ry="9"/><path class="cls-8" d="M555,422.35" transform="translate(-68.39)"/><path class="cls-8" d="M582,395.35v36c0,5-12.09,9-27,9s-27-4-27-9v-36" transform="translate(-68.39)"/><ellipse class="cls-8" cx="486.57" cy="395.35" rx="27" ry="9"/><path class="cls-9" d="M159,424" transform="translate(-68.39)"/><path class="cls-9" d="M186,397v36c0,5-12.09,9-27,9s-27-4-27-9V397" transform="translate(-68.39)"/><ellipse class="cls-9" cx="90.61" cy="396.98" rx="27" ry="9"/><ellipse class="cls-10" cx="486.57" cy="282.85" rx="27" ry="9"/><path class="cls-10" d="M555,309.85" transform="translate(-68.39)"/><path class="cls-10" d="M582,282.85v36c0,5-12.09,9-27,9s-27-4-27-9v-36" transform="translate(-68.39)"/><ellipse class="cls-10" cx="486.61" cy="63" rx="27" ry="9"/><path class="cls-10" d="M555,90" transform="translate(-68.39)"/><path class="cls-10" d="M582,63V99c0,5-12.09,9-27,9s-27-4-27-9V63" transform="translate(-68.39)"/><ellipse class="cls-10" cx="486.61" cy="175.5" rx="27" ry="9"/><path class="cls-10" d="M555,202.5" transform="translate(-68.39)"/><path class="cls-10" d="M582,175.5v36c0,5-12.09,9-27,9s-27-4-27-9v-36" transform="translate(-68.39)"/><ellipse class="cls-10" cx="90.61" cy="63" rx="27" ry="9"/><path class="cls-10" d="M159,90" transform="translate(-68.39)"/><path class="cls-10" d="M186,63V99c0,5-12.09,9-27,9s-27-4-27-9V63" transform="translate(-68.39)"/><ellipse class="cls-10" cx="90.61" cy="175.5" rx="27" ry="9"/><path class="cls-10" d="M159,202.5" transform="translate(-68.39)"/><path class="cls-10" d="M186,175.5v36c0,5-12.09,9-27,9s-27-4-27-9v-36" transform="translate(-68.39)"/><ellipse class="cls-10" cx="90.61" cy="284.48" rx="27" ry="9"/><path class="cls-10" d="M159,311.48" transform="translate(-68.39)"/><path class="cls-10" d="M186,284.48v36c0,5-12.09,9-27,9s-27-4-27-9v-36" transform="translate(-68.39)"/><path d="M552.56,379.49v-.87h4.81v.87Zm0,1.72v-.86h4.81v.86Z" transform="translate(-68.39)"/><path d="M552.6,159.64v-.87h4.81v.87Zm0,1.72v-.86h4.81v.86Z" transform="translate(-68.39)"/><path d="M156.6,159.64v-.87h4.81v.87Zm0,1.72v-.86h4.81v.86Z" transform="translate(-68.39)"/><path d="M156.6,381.12v-.87h4.81v.87Zm0,1.73V382h4.81v.87Z" transform="translate(-68.39)"/><path class="cls-3" d="M357,226.5" transform="translate(-68.39)"/><path class="cls-3" d="M384,187.5v24c0,5-12.09,9-27,9s-27-4-27-9v-24" transform="translate(-68.39)"/><ellipse class="cls-3" cx="288.61" cy="187.5" rx="27" ry="9"/><path class="cls-11" d="M315.69,334.5" transform="translate(-68.39)"/><path class="cls-4" d="M339,295.5v24c0,5-12.09,9-27,9s-27-4-27-9v-24" transform="translate(-68.39)"/><ellipse class="cls-4" cx="243.61" cy="295.5" rx="27" ry="9"/><path class="cls-12" d="M357,159.1" transform="translate(-68.39)"/><path class="cls-12" d="M384,132.1v12c0,5-12.09,9-27,9s-27-4-27-9v-12" transform="translate(-68.39)"/><ellipse class="cls-12" cx="288.61" cy="132.1" rx="27" ry="9"/><path class="cls-13" d="M315.69,378.75" transform="translate(-68.39)"/><path class="cls-12" d="M339,351.75v12c0,5-12.09,9-27,9s-27-4-27-9v-12" transform="translate(-68.39)"/><ellipse class="cls-12" cx="243.61" cy="351.75" rx="27" ry="9"/><path class="cls-14" d="M315.69,423" transform="translate(-68.39)"/><path class="cls-9" d="M339,396v36c0,5-12.09,9-27,9s-27-4-27-9V396" transform="translate(-68.39)"/><ellipse class="cls-9" cx="243.61" cy="396" rx="27" ry="9"/><ellipse class="cls-10" cx="243.61" cy="283.5" rx="27" ry="9"/><path class="cls-10" d="M315.69,310.5" transform="translate(-68.39)"/><path class="cls-10" d="M339,283.5v36c0,5-12.09,9-27,9s-27-4-27-9v-36" transform="translate(-68.39)"/><ellipse class="cls-10" cx="288.61" cy="175.5" rx="27" ry="9"/><path class="cls-2" d="M357,202.5" transform="translate(-68.39)"/><path class="cls-10" d="M384,175.5v36c0,5-12.09,9-27,9s-27-4-27-9v-36" transform="translate(-68.39)"/><path d="M309.6,380.14v-.87h4.81v.87Zm0,1.72V381h4.81v.86Z" transform="translate(-68.39)"/><path d="M354.6,159.64v-.87h4.81v.87Zm0,1.72v-.86h4.81v.86Z" transform="translate(-68.39)"/><path class="cls-2" d="M402,334.5" transform="translate(-68.39)"/><path class="cls-2" d="M429,295.5v24c0,5-12.09,9-27,9s-27-4-27-9v-24" transform="translate(-68.39)"/><ellipse class="cls-2" cx="333.61" cy="295.5" rx="27" ry="9"/><path class="cls-12" d="M402,378.75" transform="translate(-68.39)"/><path class="cls-12" d="M429,351.75v12c0,5-12.09,9-27,9s-27-4-27-9v-12" transform="translate(-68.39)"/><ellipse class="cls-12" cx="333.61" cy="351.75" rx="27" ry="9"/><path class="cls-8" d="M402,423" transform="translate(-68.39)"/><path class="cls-8" d="M429,396v36c0,5-12.09,9-27,9s-27-4-27-9V396" transform="translate(-68.39)"/><ellipse class="cls-8" cx="333.61" cy="396" rx="27" ry="9"/><ellipse class="cls-10" cx="333.61" cy="283.5" rx="27" ry="9"/><path class="cls-10" d="M402,310.5" transform="translate(-68.39)"/><path class="cls-10" d="M429,283.5v36c0,5-12.09,9-27,9s-27-4-27-9v-36" transform="translate(-68.39)"/><path d="M399.6,380.14v-.87h4.81v.87Zm0,1.72V381h4.81v.86Z" transform="translate(-68.39)"/><path class="cls-5" d="M357,113.57" transform="translate(-68.39)"/><path class="cls-5" d="M384,86.57v12c0,5-12.09,9-27,9s-27-4-27-9v-12" transform="translate(-68.39)"/><ellipse class="cls-5" cx="288.61" cy="86.57" rx="27" ry="9"/><ellipse class="cls-10" cx="288.61" cy="62.66" rx="27" ry="9"/><path class="cls-10" d="M357,89.66" transform="translate(-68.39)"/><path class="cls-10" d="M384,62.66v36c0,5-12.09,9-27,9s-27-4-27-9v-36" transform="translate(-68.39)"/><line class="cls-15" x1="456.37" y1="220.5" x2="368.28" y2="272.36"/><path d="M433,274.5a21.09,21.09,0,0,0,3.47-5.9l.65,3.48,2.73,2.25A21.36,21.36,0,0,0,433,274.5Z" transform="translate(-68.39)"/><line class="cls-15" x1="259.41" y1="220.5" x2="126.18" y2="271.75"/><path d="M190.63,273.27A21.06,21.06,0,0,0,195,268l.07,3.54,2.32,2.68A20.92,20.92,0,0,0,190.63,273.27Z" transform="translate(-68.39)"/><line class="cls-15" x1="319.12" y1="220.5" x2="449.7" y2="273.88"/><path d="M522,275.47a21.59,21.59,0,0,0-6.8.82l2.38-2.62.14-3.54A21.1,21.1,0,0,0,522,275.47Z" transform="translate(-68.39)"/><line class="cls-15" x1="122.37" y1="220.5" x2="207.97" y2="271.12"/><path d="M280,273.27a21.08,21.08,0,0,0-6.85-.18l2.73-2.25.66-3.48A21.25,21.25,0,0,0,280,273.27Z" transform="translate(-68.39)"/><polygon class="cls-16" points="486.59 330.9 487.92 333.6 490.89 334.03 488.74 336.13 489.25 339.09 486.59 337.69 483.93 339.09 484.44 336.13 482.28 334.03 485.26 333.6 486.59 330.9"/><polygon class="cls-16" points="90.61 332.51 91.94 335.21 94.91 335.64 92.76 337.74 93.27 340.7 90.61 339.31 87.94 340.7 88.45 337.74 86.3 335.64 89.28 335.21 90.61 332.51"/><polygon class="cls-16" points="333.61 331.53 334.94 334.23 337.91 334.66 335.76 336.76 336.27 339.72 333.61 338.32 330.94 339.72 331.45 336.76 329.3 334.66 332.28 334.23 333.61 331.53"/><polygon class="cls-16" points="243.61 331.53 244.94 334.23 247.92 334.66 245.76 336.76 246.27 339.72 243.61 338.32 240.95 339.72 241.46 336.76 239.31 334.66 242.28 334.23 243.61 331.53"/><polygon class="cls-16" points="90.61 111.45 91.94 114.15 94.92 114.58 92.76 116.68 93.27 119.64 90.61 118.25 87.95 119.64 88.46 116.68 86.31 114.58 89.28 114.15 90.61 111.45"/><polygon class="cls-16" points="288.61 111.45 289.94 114.15 292.92 114.58 290.76 116.68 291.27 119.64 288.61 118.25 285.95 119.64 286.46 116.68 284.31 114.58 287.28 114.15 288.61 111.45"/><polygon class="cls-16" points="486.61 111.45 487.94 114.15 490.92 114.58 488.76 116.68 489.27 119.64 486.61 118.25 483.95 119.64 484.46 116.68 482.31 114.58 485.28 114.15 486.61 111.45"/><line class="cls-16" x1="243.61" y1="449.25" x2="243.61" y2="456.75"/><path d="M312,459.92a15.86,15.86,0,0,0-2.5-4.49l2.5.9,2.5-.9A15.86,15.86,0,0,0,312,459.92Z" transform="translate(-68.39)"/><line class="cls-16" x1="90.61" y1="450.23" x2="90.61" y2="457.73"/><path d="M159,460.9a15.86,15.86,0,0,0-2.5-4.49l2.5.91,2.5-.91A15.86,15.86,0,0,0,159,460.9Z" transform="translate(-68.39)"/><line class="cls-16" x1="486.45" y1="448.6" x2="486.45" y2="456.1"/><path d="M554.84,459.27a15.84,15.84,0,0,0-2.49-4.49l2.49.9,2.5-.9A16.11,16.11,0,0,0,554.84,459.27Z" transform="translate(-68.39)"/><line class="cls-16" x1="334" y1="449.2" x2="334" y2="456.7"/><path d="M402.4,459.87a15.83,15.83,0,0,0-2.5-4.49l2.5.9,2.49-.9A15.57,15.57,0,0,0,402.4,459.87Z" transform="translate(-68.39)"/><rect class="cls-17" x="319.13" y="468" width="41.67" height="2.89"/><path class="cls-17" d="M381.79,461.2c-3.42,0-6.19,3.69-6.19,8.24s2.77,8.25,6.19,8.25S388,474,388,469.44,385.2,461.2,381.79,461.2Zm-2.2,8.24c-2.6-2.6-.7-5.85,2.2-5.85,2.14,0,4.85,2.86,1.85,5.85,2.93,3.31.29,5.86-1.85,5.86A3.32,3.32,0,0,1,379.59,469.44Z" transform="translate(-68.39)"/><polygon class="cls-17" points="356.83 463.88 356.83 466.35 354.46 466.35 354.46 463.88 350.49 463.88 350.49 468 360.8 468 360.8 463.88 356.83 463.88"/><rect class="cls-17" x="319.58" y="467.34" width="0.82" height="4.21" rx="0.41" ry="0.41"/><rect class="cls-17" x="320.4" y="467.34" width="0.82" height="4.21" rx="0.41" ry="0.41"/><rect class="cls-17" x="349.67" y="467.34" width="0.82" height="4.21" rx="0.41" ry="0.41"/><rect class="cls-17" x="471.58" y="468" width="41.67" height="2.89"/><path class="cls-17" d="M534.23,461.2c-3.41,0-6.18,3.69-6.18,8.24s2.77,8.25,6.18,8.25,6.19-3.69,6.19-8.25S537.65,461.2,534.23,461.2ZM532,469.44c-2.61-2.6-.7-5.85,2.19-5.85,2.14,0,4.85,2.86,1.86,5.85,2.93,3.31.28,5.86-1.86,5.86A3.31,3.31,0,0,1,532,469.44Z" transform="translate(-68.39)"/><polygon class="cls-17" points="509.28 463.88 509.28 466.35 506.91 466.35 506.91 463.88 502.94 463.88 502.94 468 513.25 468 513.25 463.88 509.28 463.88"/><rect class="cls-17" x="472.02" y="467.34" width="0.82" height="4.21" rx="0.41" ry="0.41"/><rect class="cls-17" x="472.85" y="467.34" width="0.82" height="4.21" rx="0.41" ry="0.41"/><rect class="cls-17" x="502.12" y="467.34" width="0.82" height="4.21" rx="0.41" ry="0.41"/><polygon class="cls-18" points="265.61 463.42 265.61 464.87 264.01 464.87 264.01 463.42 259.79 463.42 259.79 466.43 262.23 466.43 262.23 469.44 267.39 469.44 267.39 466.43 269.83 466.43 269.83 463.42 265.61 463.42"/><rect class="cls-18" x="229.22" y="468.04" width="40.61" height="2.81"/><path class="cls-18" d="M291.81,461.41h0a6,6,0,0,0-6,6v4a6,6,0,0,0,6,6h0a6,6,0,0,0,6-6v-4A6,6,0,0,0,291.81,461.41Zm-1.77,10a2,2,0,1,1,2-2A2,2,0,0,1,290,471.45Z" transform="translate(-68.39)"/><rect class="cls-18" x="229.54" y="467.39" width="0.8" height="4.11" rx="0.4" ry="0.4"/><rect class="cls-18" x="230.34" y="467.39" width="0.8" height="4.11" rx="0.4" ry="0.4"/><rect class="cls-18" x="258.77" y="467.39" width="0.8" height="4.11" rx="0.4" ry="0.4"/><polygon class="cls-18" points="112.61 463.42 112.61 464.87 111.01 464.87 111.01 463.42 106.78 463.42 106.78 466.43 109.22 466.43 109.22 469.44 114.39 469.44 114.39 466.43 116.83 466.43 116.83 463.42 112.61 463.42"/><rect class="cls-18" x="76.22" y="468.04" width="40.61" height="2.81"/><path class="cls-18" d="M138.8,461.41h0a6,6,0,0,0-6,6v4a6,6,0,0,0,6,6h0a6,6,0,0,0,6-6v-4A6,6,0,0,0,138.8,461.41Zm-1.76,10a2,2,0,1,1,2-2A2,2,0,0,1,137,471.45Z" transform="translate(-68.39)"/><rect class="cls-18" x="76.54" y="467.39" width="0.8" height="4.11" rx="0.4" ry="0.4"/><rect class="cls-18" x="77.34" y="467.39" width="0.8" height="4.11" rx="0.4" ry="0.4"/><rect class="cls-18" x="105.76" y="467.39" width="0.8" height="4.11" rx="0.4" ry="0.4"/><line class="cls-19" x1="448.32" y1="94.43" x2="356.38" y2="94.43"/><path class="cls-20" d="M520.93,94.43a21.12,21.12,0,0,1-6-3.32l1.21,3.32L515,97.76A21.4,21.4,0,0,1,520.93,94.43Z" transform="translate(-68.39)"/><path class="cls-20" d="M420.55,94.43a21,21,0,0,0,6-3.32l-1.2,3.32,1.2,3.33A21.26,21.26,0,0,0,420.55,94.43Z" transform="translate(-68.39)"/><line class="cls-19" x1="248.56" y1="94.43" x2="130.66" y2="94.43"/><path class="cls-20" d="M321.17,94.43a21.12,21.12,0,0,1-6-3.32l1.2,3.32-1.2,3.33A21.4,21.4,0,0,1,321.17,94.43Z" transform="translate(-68.39)"/><path class="cls-20" d="M194.83,94.43a21.12,21.12,0,0,0,6-3.32l-1.2,3.32,1.2,3.33A21.4,21.4,0,0,0,194.83,94.43Z" transform="translate(-68.39)"/><path d="M398.39,97v2.69c0,.8.18,1,1.24,1,.06,0,.06.17,0,.17-.53,0-1.19,0-1.92,0-.53,0-1,0-1.41,0-.06,0-.06-.17,0-.17.66,0,.78-.17.78-1V93.2c0-.58-.11-.84-.44-.84a1.79,1.79,0,0,0-.65.19c-.07,0-.15-.14-.11-.15l2-1h.07c.17,0,.36.31.42.88a3.08,3.08,0,0,1,2.1-.92A2.34,2.34,0,0,1,402.69,94a3,3,0,0,1-3.1,3.19A3.71,3.71,0,0,1,398.39,97Zm0-4.38V96.1a1.8,1.8,0,0,0,1.47.7c.88,0,1.41-.73,1.41-2.41,0-1.49-.8-2.23-1.73-2.23A1.67,1.67,0,0,0,398.39,92.61Z" transform="translate(-68.39)"/><path d="M116.64,97v2.69c0,.8.18,1,1.24,1,.06,0,.06.17,0,.17-.53,0-1.19,0-1.91,0-.54,0-1,0-1.42,0,0,0,0-.17,0-.17.66,0,.78-.17.78-1V93.2c0-.58-.11-.84-.44-.84a1.79,1.79,0,0,0-.65.19c-.07,0-.15-.14-.11-.15l2-1h.07c.17,0,.36.31.42.88a3.08,3.08,0,0,1,2.1-.92A2.34,2.34,0,0,1,120.94,94a3,3,0,0,1-3.1,3.19A3.75,3.75,0,0,1,116.64,97Zm0-4.38V96.1a1.8,1.8,0,0,0,1.47.7c.88,0,1.41-.73,1.41-2.41,0-1.49-.8-2.23-1.73-2.23A1.67,1.67,0,0,0,116.64,92.61Z" transform="translate(-68.39)"/><path d="M597.76,97v2.69c0,.8.18,1,1.24,1,.06,0,.06.17,0,.17-.53,0-1.19,0-1.91,0-.54,0-1,0-1.42,0,0,0,0-.17,0-.17.66,0,.79-.17.79-1V93.2c0-.58-.12-.84-.45-.84a1.79,1.79,0,0,0-.65.19c-.07,0-.15-.14-.11-.15l2-1h.07c.17,0,.36.31.42.88a3.08,3.08,0,0,1,2.1-.92A2.34,2.34,0,0,1,602.06,94a3,3,0,0,1-3.1,3.19A3.75,3.75,0,0,1,597.76,97Zm0-4.38V96.1a1.8,1.8,0,0,0,1.47.7c.88,0,1.41-.73,1.41-2.41,0-1.49-.8-2.23-1.73-2.23A1.67,1.67,0,0,0,597.76,92.61Z" transform="translate(-68.39)"/><path d="M401.44,140.51a3,3,0,0,1-2.21,1,2.67,2.67,0,0,1-2.85-2.71,3,3,0,0,1,3.17-3c1.11,0,1.82.48,1.82,1.61,0,.26,0,.44-.15.44h-3.41c0,.1,0,.21,0,.32,0,1.63.75,2.64,2.2,2.64a2.69,2.69,0,0,0,1.34-.39S401.48,140.46,401.44,140.51Zm-3.6-3,2,0c0-.89-.24-1.47-.85-1.47S398,136.63,397.84,137.54Z" transform="translate(-68.39)"/><path d="M121.39,140.5l-1.45.68a.24.24,0,0,1-.14,0c-.28,0-.6-.31-.71-.88l-.6.42a1.86,1.86,0,0,1-1.24.45c-.82,0-1.21-.39-1.21-1,0-.93.86-1.08,1.75-1.4l1.26-.46v-.8c0-1.18-.17-1.71-.65-1.71-.7,0-.81.8-.84,1.15a.74.74,0,0,1-.81.78c-.49,0-.67-.24-.67-.53,0-.91,1.87-1.67,2.9-1.67.77,0,1.38.46,1.38,1.56v2.48c0,.54.21.85.56.85a1,1,0,0,0,.41-.1C121.4,140.31,121.47,140.46,121.39,140.5Zm-2.33-.41a1,1,0,0,1,0-.18v-1.35l-.61.28c-.23.1-.86.27-.86.9a.7.7,0,0,0,.71.72.75.75,0,0,0,.46-.16Z" transform="translate(-68.39)"/><path d="M602.09,138.31a3,3,0,0,1-3,3.17,3.29,3.29,0,0,1-2-.66l-1.28.57c-.08,0-.13-.09-.06-.12a1.45,1.45,0,0,0,.69-1.42v-6.8c0-.63-.1-.92-.42-.92a1.35,1.35,0,0,0-.52.16c-.07,0-.14-.16-.1-.17l2.05-1h.07a.25.25,0,0,1,.22.18v5.33a2.88,2.88,0,0,1,2-.94A2.33,2.33,0,0,1,602.09,138.31Zm-1.45.55c0-1.68-.61-2.41-1.54-2.41a2.49,2.49,0,0,0-1.36.48v2c0,1.67,1,2.22,1.66,2.22C600.21,141.2,600.64,140.33,600.64,138.86Z" transform="translate(-68.39)"/><polygon class="cls-16" points="341.78 192.41 343.11 195.1 346.09 195.53 343.94 197.63 344.44 200.59 341.78 199.2 339.12 200.59 339.63 197.63 337.48 195.53 340.45 195.1 341.78 192.41"/><path d="M398.39,200.62v2.69c0,.8.18,1,1.24,1,.06,0,.06.17,0,.17-.53,0-1.19,0-1.92,0-.53,0-1,0-1.41,0-.06,0-.06-.17,0-.17.66,0,.78-.17.78-1v-6.48c0-.58-.11-.84-.44-.84a1.79,1.79,0,0,0-.65.19c-.07,0-.15-.14-.11-.15l2-1h.07c.17,0,.36.31.42.88a3.08,3.08,0,0,1,2.1-.92,2.33,2.33,0,0,1,2.23,2.57,3,3,0,0,1-3.1,3.2A3.71,3.71,0,0,1,398.39,200.62Zm0-4.38v3.49a1.8,1.8,0,0,0,1.47.7c.88,0,1.41-.73,1.41-2.41,0-1.49-.8-2.23-1.73-2.23A1.67,1.67,0,0,0,398.39,196.24Z" transform="translate(-68.39)"/><path d="M421.73,199.81a3,3,0,0,1-2.22.95,2.67,2.67,0,0,1-2.84-2.71,3,3,0,0,1,3.16-3c1.11,0,1.83.48,1.83,1.61,0,.26,0,.44-.16.44h-3.4a1.67,1.67,0,0,0,0,.32c0,1.63.76,2.64,2.2,2.64a2.66,2.66,0,0,0,1.35-.4S421.77,199.75,421.73,199.81Zm-3.6-3,2,0c0-.89-.24-1.47-.86-1.47S418.25,195.93,418.13,196.84Z" transform="translate(-68.39)"/><polygon class="cls-16" points="540.7 301.9 542.03 304.6 545.01 305.03 542.86 307.13 543.37 310.1 540.7 308.7 538.04 310.1 538.55 307.13 536.4 305.03 539.37 304.6 540.7 301.9"/><path d="M597.31,310.12v2.69c0,.8.18,1,1.24,1,.06,0,.06.17,0,.17-.53,0-1.19,0-1.92,0-.53,0-1,0-1.41,0-.06,0-.06-.17,0-.17.66,0,.78-.17.78-1v-6.48c0-.58-.11-.84-.44-.84a1.79,1.79,0,0,0-.65.19c-.07.05-.15-.14-.11-.15l2-1h.07c.17,0,.36.31.42.88a3.08,3.08,0,0,1,2.1-.92,2.33,2.33,0,0,1,2.23,2.57,3,3,0,0,1-3.1,3.2A3.71,3.71,0,0,1,597.31,310.12Zm0-4.38v3.49a1.8,1.8,0,0,0,1.47.7c.88,0,1.41-.73,1.41-2.41,0-1.49-.8-2.23-1.73-2.23A1.67,1.67,0,0,0,597.31,305.74Z" transform="translate(-68.39)"/><path d="M620.65,309.31a3,3,0,0,1-2.22.95,2.67,2.67,0,0,1-2.84-2.71,3,3,0,0,1,3.16-3c1.11,0,1.83.48,1.83,1.61,0,.26,0,.44-.16.44H617a1.67,1.67,0,0,0,0,.32c0,1.63.76,2.64,2.2,2.64a2.66,2.66,0,0,0,1.35-.4S620.69,309.25,620.65,309.31Zm-3.6-3,2,0c0-.89-.24-1.47-.86-1.47S617.17,305.43,617.05,306.34Z" transform="translate(-68.39)"/><polygon class="cls-16" points="40.79 301.9 42.12 304.6 45.1 305.03 42.94 307.13 43.45 310.09 40.79 308.69 38.13 310.09 38.64 307.13 36.48 305.03 39.46 304.6 40.79 301.9"/><path d="M97.68,310.12v2.69c0,.8.18,1,1.25,1,0,0,0,.17,0,.17-.53,0-1.19,0-1.92,0-.53,0-1,0-1.42,0,0,0,0-.17,0-.17.66,0,.79-.16.79-1v-6.49c0-.57-.11-.84-.45-.84a1.62,1.62,0,0,0-.64.2c-.07,0-.16-.14-.12-.16l2-1a.12.12,0,0,1,.07,0c.17,0,.37.31.42.89a3.07,3.07,0,0,1,2.1-.93,2.33,2.33,0,0,1,2.23,2.58,3,3,0,0,1-3.09,3.19A4.09,4.09,0,0,1,97.68,310.12Zm0-4.39v3.49a1.8,1.8,0,0,0,1.47.7c.88,0,1.42-.73,1.42-2.41,0-1.48-.8-2.22-1.74-2.22A1.68,1.68,0,0,0,97.68,305.73Z" transform="translate(-68.39)"/><path d="M121,309.31a3,3,0,0,1-2.21.95,2.68,2.68,0,0,1-2.85-2.72,3,3,0,0,1,3.17-3c1.11,0,1.82.47,1.82,1.61,0,.25,0,.43-.15.43l-3.41,0c0,.09,0,.21,0,.32,0,1.62.75,2.63,2.2,2.63a2.59,2.59,0,0,0,1.34-.39S121.06,309.25,121,309.31Zm-3.6-3,2,0c0-.9-.24-1.47-.85-1.47S117.55,305.43,117.42,306.34Z" transform="translate(-68.39)"/><path d="M97.64,200.62v2.69c0,.8.18,1,1.25,1,0,0,0,.17,0,.17-.54,0-1.19,0-1.92,0-.53,0-1,0-1.42,0,0,0,0-.17,0-.17.66,0,.79-.17.79-1v-6.48c0-.58-.12-.84-.45-.84a1.79,1.79,0,0,0-.65.19c-.07,0-.15-.14-.11-.15l2-1h.07c.17,0,.37.31.42.88a3.1,3.1,0,0,1,2.1-.92,2.33,2.33,0,0,1,2.23,2.57,3,3,0,0,1-3.1,3.2A3.75,3.75,0,0,1,97.64,200.62Zm0-4.38v3.49a1.82,1.82,0,0,0,1.47.7c.88,0,1.42-.73,1.42-2.41,0-1.49-.8-2.23-1.74-2.23A1.69,1.69,0,0,0,97.64,196.24Z" transform="translate(-68.39)"/><path d="M121.38,200l-1.44.69a.42.42,0,0,1-.14,0c-.28,0-.6-.31-.71-.88l-.6.42a1.85,1.85,0,0,1-1.24.44c-.82,0-1.22-.39-1.22-1,0-.93.87-1.08,1.76-1.41l1.26-.46V197c0-1.17-.17-1.71-.65-1.71-.7,0-.81.8-.84,1.15-.06.58-.35.79-.81.79s-.67-.24-.67-.53c0-.91,1.87-1.67,2.9-1.67.77,0,1.38.46,1.38,1.55v2.48c0,.55.21.86.56.86a1,1,0,0,0,.41-.1C121.4,199.81,121.47,200,121.38,200Zm-2.32-.4a1,1,0,0,1,0-.18v-1.35l-.61.28c-.23.1-.86.27-.86.9a.69.69,0,0,0,.71.71.8.8,0,0,0,.46-.15Z" transform="translate(-68.39)"/><polygon class="cls-16" points="40.43 192.41 41.76 195.1 44.73 195.53 42.58 197.63 43.09 200.59 40.43 199.2 37.77 200.59 38.28 197.63 36.12 195.53 39.1 195.1 40.43 192.41"/><path d="M250.69,310.12v2.69c0,.8.18,1,1.25,1,.05,0,.05.17,0,.17-.53,0-1.19,0-1.92,0-.53,0-1,0-1.42,0,0,0,0-.17,0-.17.66,0,.79-.16.79-1v-6.49c0-.57-.11-.84-.45-.84a1.7,1.7,0,0,0-.65.2c-.06,0-.15-.14-.11-.16l2-1a.12.12,0,0,1,.07,0c.17,0,.37.31.42.89a3.07,3.07,0,0,1,2.1-.93,2.33,2.33,0,0,1,2.23,2.58,3,3,0,0,1-3.09,3.19A4.09,4.09,0,0,1,250.69,310.12Zm0-4.39v3.49a1.79,1.79,0,0,0,1.47.7c.88,0,1.42-.73,1.42-2.41,0-1.48-.8-2.22-1.74-2.22A1.68,1.68,0,0,0,250.69,305.73Z" transform="translate(-68.39)"/><path d="M274.44,309.49l-1.45.68a.26.26,0,0,1-.14,0c-.28,0-.6-.31-.71-.88l-.6.42a1.86,1.86,0,0,1-1.24.45c-.82,0-1.22-.39-1.22-1,0-.93.87-1.08,1.76-1.4l1.26-.46v-.8c0-1.18-.17-1.71-.65-1.71-.7,0-.81.8-.84,1.15a.74.74,0,0,1-.81.78c-.49,0-.67-.24-.67-.53,0-.91,1.87-1.67,2.9-1.67.77,0,1.38.46,1.38,1.56v2.48c0,.54.21.85.56.85a1,1,0,0,0,.41-.1C274.45,309.31,274.52,309.45,274.44,309.49Zm-2.33-.41a1,1,0,0,1,0-.18v-1.35l-.61.28c-.23.1-.86.27-.86.9a.7.7,0,0,0,.71.72.75.75,0,0,0,.46-.16Z" transform="translate(-68.39)"/><polygon class="cls-16" points="193.48 301.9 194.81 304.6 197.79 305.03 195.63 307.13 196.14 310.09 193.48 308.69 190.82 310.09 191.33 307.13 189.17 305.03 192.15 304.6 193.48 301.9"/><path d="M597.76,200.62v2.69c0,.8.18,1,1.24,1,.06,0,.06.17,0,.17-.53,0-1.19,0-1.91,0-.54,0-1,0-1.42,0,0,0,0-.17,0-.17.66,0,.79-.17.79-1v-6.48c0-.58-.12-.84-.45-.84a1.79,1.79,0,0,0-.65.19c-.07,0-.15-.14-.11-.15l2-1h.07c.17,0,.36.31.42.88a3.08,3.08,0,0,1,2.1-.92,2.33,2.33,0,0,1,2.23,2.57,3,3,0,0,1-3.1,3.2A3.75,3.75,0,0,1,597.76,200.62Zm0-4.38v3.49a1.8,1.8,0,0,0,1.47.7c.88,0,1.41-.73,1.41-2.41,0-1.49-.8-2.23-1.73-2.23A1.67,1.67,0,0,0,597.76,196.24Z" transform="translate(-68.39)"/><path d="M622.37,197.61a3,3,0,0,1-3,3.17,3.34,3.34,0,0,1-2-.66l-1.27.57c-.09,0-.13-.09-.06-.12a1.48,1.48,0,0,0,.69-1.42v-6.81c0-.63-.1-.91-.42-.91a1.35,1.35,0,0,0-.52.16c-.07,0-.14-.16-.1-.17l2-1h.06c.1,0,.23.11.23.18v5.32a2.86,2.86,0,0,1,2-.93A2.33,2.33,0,0,1,622.37,197.61Zm-1.44.55c0-1.68-.62-2.41-1.54-2.41a2.46,2.46,0,0,0-1.36.48v2.05c0,1.67,1,2.22,1.65,2.22C620.49,200.5,620.93,199.63,620.93,198.16Z" transform="translate(-68.39)"/><polygon class="cls-16" points="540.7 192.41 542.03 195.1 545.01 195.53 542.86 197.63 543.37 200.59 540.7 199.2 538.04 200.59 538.55 197.63 536.4 195.53 539.37 195.1 540.7 192.41"/><path d="M442,310.12v2.69c0,.8.19,1,1.25,1,.06,0,.06.17,0,.17-.53,0-1.19,0-1.92,0-.53,0-1,0-1.41,0-.06,0-.06-.17,0-.17.66,0,.78-.17.78-1v-6.48c0-.58-.11-.84-.45-.84a1.8,1.8,0,0,0-.64.19c-.07.05-.15-.14-.11-.15l2-1h.07c.16,0,.36.31.42.88a3.06,3.06,0,0,1,2.1-.92,2.33,2.33,0,0,1,2.23,2.57,3,3,0,0,1-3.1,3.2A3.77,3.77,0,0,1,442,310.12Zm0-4.38v3.49a1.84,1.84,0,0,0,1.48.7c.88,0,1.41-.73,1.41-2.41,0-1.49-.8-2.23-1.74-2.23A1.71,1.71,0,0,0,442,305.74Z" transform="translate(-68.39)"/><path d="M466.59,307.11a3,3,0,0,1-3,3.17,3.29,3.29,0,0,1-2-.66l-1.28.57a.07.07,0,0,1-.05-.12,1.46,1.46,0,0,0,.68-1.42v-6.81c0-.63-.1-.91-.42-.91a1.41,1.41,0,0,0-.52.16c-.07,0-.14-.16-.09-.17l2-1H462c.1,0,.23.11.23.18v5.33a2.84,2.84,0,0,1,2-.94A2.33,2.33,0,0,1,466.59,307.11Zm-1.44.55c0-1.68-.62-2.41-1.55-2.41a2.43,2.43,0,0,0-1.35.48v2c0,1.67,1,2.22,1.65,2.22C464.71,310,465.15,309.13,465.15,307.66Z" transform="translate(-68.39)"/><polygon class="cls-16" points="384.92 301.9 386.25 304.6 389.23 305.03 387.07 307.13 387.58 310.1 384.92 308.7 382.26 310.1 382.77 307.13 380.61 305.03 383.59 304.6 384.92 301.9"/><path d="M150,30.08c-.64,0-1.36-.06-2-.06s-1.19.06-1.84.06c-.1,0-.1-.19,0-.19.88,0,1-.27.46-1.31l-1.09-2.16h-3.93L141,27.81c-.57,1.28.1,2.08,1.3,2.08.1,0,.1.19,0,.19-.64,0-1.07-.06-1.89-.06s-1.2.06-1.92.06c-.08,0-.08-.19,0-.19.86,0,1.26-.43,2.08-2.24L144,20c0-.07.26-.08.29,0l4,7.87c.76,1.52,1.17,2,1.7,2C150.08,29.89,150.08,30.08,150,30.08ZM145.27,26l-1.84-3.65L141.78,26Z" transform="translate(-68.39)"/><path d="M153.13,26.18c.78.45,1.68.88,1.68,2a2.17,2.17,0,0,1-2.39,2.1,3.29,3.29,0,0,1-1.66-.43.26.26,0,0,1-.1-.2l0-1.58c0-.06.18-.08.19,0a2.59,2.59,0,0,0,2.05,1.92c.44,0,.74-.26.74-.82,0-.88-.69-1.28-1.33-1.65s-1.58-.78-1.58-1.9c0-1.35,1.15-1.83,2.32-1.83a3.48,3.48,0,0,1,1.33.24.22.22,0,0,1,.14.18c0,.43,0,.86,0,1.42,0,.07-.19.07-.19,0a1.92,1.92,0,0,0-1.77-1.53c-.3,0-.65.09-.65.62C151.85,25.36,152.46,25.78,153.13,26.18Z" transform="translate(-68.39)"/><path d="M158.42,26.18c.79.45,1.68.88,1.68,2a2.16,2.16,0,0,1-2.38,2.1,3.27,3.27,0,0,1-1.66-.43.26.26,0,0,1-.1-.2l0-1.58c0-.06.17-.08.19,0a2.59,2.59,0,0,0,2,1.92c.43,0,.73-.26.73-.82,0-.88-.68-1.28-1.32-1.65s-1.59-.78-1.59-1.9c0-1.35,1.15-1.83,2.32-1.83a3.41,3.41,0,0,1,1.33.24.22.22,0,0,1,.15.18c0,.43,0,.86,0,1.42,0,.07-.19.07-.19,0a1.92,1.92,0,0,0-1.76-1.53c-.3,0-.66.09-.66.62C157.14,25.36,157.75,25.78,158.42,26.18Z" transform="translate(-68.39)"/><path d="M167.4,29.39l-1.65.79a.5.5,0,0,1-.16,0c-.32,0-.69-.35-.81-1l-.69.48a2.1,2.1,0,0,1-1.41.51c-.94,0-1.39-.44-1.39-1.15,0-1.05,1-1.23,2-1.6l1.44-.53V26c0-1.34-.19-1.95-.74-1.95-.8,0-.93.91-1,1.31-.06.66-.4.9-.93.9s-.76-.27-.76-.61c0-1,2.14-1.91,3.31-1.91.88,0,1.58.53,1.58,1.78v2.83c0,.63.24,1,.64,1a1.1,1.1,0,0,0,.47-.11C167.42,29.19,167.5,29.35,167.4,29.39Zm-2.66-.46a1.34,1.34,0,0,1,0-.21V27.19l-.69.32c-.27.11-1,.3-1,1a.8.8,0,0,0,.81.82.93.93,0,0,0,.53-.18Z" transform="translate(-68.39)"/><path d="M172.66,29.12a3.16,3.16,0,0,1-2.33,1.15c-.79,0-1.7-.3-1.7-1.47V25.25c0-.67-.21-.88-.82-.88-.08,0-.08-.29,0-.29a2.09,2.09,0,0,0,2.1-1.33c0-.08.24-.08.24,0V24c.67,0,1.33-.06,2.08-.14.05,0,.11.19.11.38s-.09.48-.17.45a11.6,11.6,0,0,0-2-.24v3.79a1.06,1.06,0,0,0,1.14,1.19,2.12,2.12,0,0,0,1.25-.48C172.6,28.91,172.74,29.06,172.66,29.12Z" transform="translate(-68.39)"/><path d="M179.51,29.39l-1.64.79a.65.65,0,0,1-.16,0c-.32,0-.69-.35-.82-1l-.69.48a2.08,2.08,0,0,1-1.41.51c-.94,0-1.39-.44-1.39-1.15,0-1.05,1-1.23,2-1.6l1.44-.53V26c0-1.34-.19-1.95-.74-1.95-.8,0-.92.91-1,1.31-.06.66-.4.9-.92.9s-.77-.27-.77-.61c0-1,2.14-1.91,3.31-1.91.88,0,1.59.53,1.59,1.78v2.83c0,.63.24,1,.64,1a1.09,1.09,0,0,0,.46-.11C179.53,29.19,179.61,29.35,179.51,29.39Zm-2.65-.46a.68.68,0,0,1,0-.21V27.19l-.69.32c-.27.11-1,.3-1,1a.8.8,0,0,0,.82.82.9.9,0,0,0,.52-.18Z" transform="translate(-68.39)"/><path d="M346.72,27.57a19.88,19.88,0,0,0-.16,2.27c0,.18-.05.24-.24.24h-7.07c-.07,0-.07-.19,0-.19,1,0,1.13-.18,1.13-1.1V21.38c0-.92-.16-1.11-1.13-1.11-.07,0-.07-.19,0-.19H346c.12,0,.16.05.16.14l0,2.13s-.16.08-.19,0a2.29,2.29,0,0,0-2.47-1.83h-.48c-.64,0-.93.28-.93.85v3.27h1.33c1.26,0,1.92-.47,1.92-1.22,0-.06.18-.06.18,0,0,.7,0,1,0,1.44s.05,1,.05,1.63c0,0-.19,0-.19,0,0-.86-.68-1.41-2-1.41h-1.31v3.62c0,.63.23.91.74.91h.53a2.85,2.85,0,0,0,3.1-2.09C346.55,27.47,346.72,27.52,346.72,27.57Z" transform="translate(-68.39)"/><path d="M355.57,29.22l-2.21,1.07-.08,0c-.19,0-.37-.42-.41-1.14a3.54,3.54,0,0,1-2.42,1.12c-1.38,0-2.51-1.14-2.51-3.12a3.42,3.42,0,0,1,3.66-3.47,4.49,4.49,0,0,1,1.25.19V20.66c0-.72-.11-1.05-.46-1.05a1.63,1.63,0,0,0-.6.18c-.08,0-.17-.18-.12-.19L354,18.49h.06c.11,0,.27.13.27.21v9.54c0,.73.13,1,.45,1a2.19,2.19,0,0,0,.66-.18C355.52,29,355.62,29.19,355.57,29.22Zm-2.72-.37v-4a1.7,1.7,0,0,0-1.49-.77c-1.09,0-1.78.67-1.78,2.55s.74,2.86,1.75,2.86A2.18,2.18,0,0,0,352.85,28.85Z" transform="translate(-68.39)"/><path d="M362.55,31.16c0,1.82-1.86,3.44-4.05,3.44-1.48,0-2.52-.74-2.52-1.83,0-.62.36-1.34,1.62-2.17-.64-.13-1.15-.44-1.15-1.16a2.13,2.13,0,0,1,1.12-1.74,2.17,2.17,0,0,1-1.3-1.91c0-1.34,1.52-2,2.8-2a3,3,0,0,1,1.73.51,3,3,0,0,1,1.73-.56c.1,0,.13.2.13.45s-.11.79-.19.72a3.21,3.21,0,0,0-1.19-.27h-.13a1.74,1.74,0,0,1,.44,1.15c0,1.35-1.48,2.16-2.82,2.16a2.6,2.6,0,0,1-.91-.14.93.93,0,0,0-.26.69c0,.89.78.91,2,.93C361,29.44,362.55,29.49,362.55,31.16Zm-1.32,1c0-1.44-1-1.46-2.43-1.47-.27,0-.56,0-.83-.05a1.47,1.47,0,0,0-.55,1.28,2,2,0,0,0,2,2.14A1.71,1.71,0,0,0,361.23,32.18Zm-3.4-6.87c0,1.38.67,2.36,1.36,2.36.41,0,.83-.39.83-1.43,0-1.46-.83-2.14-1.48-2.14S357.83,24.54,357.83,25.31Z" transform="translate(-68.39)"/><path d="M369.36,29.39l-1.65.79a.5.5,0,0,1-.16,0c-.32,0-.68-.35-.81-1l-.69.48a2.1,2.1,0,0,1-1.41.51c-.94,0-1.39-.44-1.39-1.15,0-1.05,1-1.23,2-1.6l1.44-.53V26c0-1.34-.19-1.95-.74-1.95-.8,0-.93.91-1,1.31-.06.66-.4.9-.93.9s-.76-.27-.76-.61c0-1,2.14-1.91,3.31-1.91.88,0,1.58.53,1.58,1.78v2.83c0,.63.24,1,.64,1a1.1,1.1,0,0,0,.47-.11C369.38,29.19,369.46,29.35,369.36,29.39Zm-2.65-.46a.68.68,0,0,1,0-.21V27.19l-.69.32c-.27.11-1,.3-1,1a.8.8,0,0,0,.82.82.92.92,0,0,0,.52-.18Z" transform="translate(-68.39)"/><path d="M375.19,24.64a.72.72,0,0,1-.76.77c-.67,0-.7-.69-1.2-.69-.19,0-.36.08-.91.63v3.44c0,.84.34,1.1,1.43,1.1.08,0,.08.19,0,.19-.58,0-1.33,0-2.18,0-.61,0-1.19,0-1.6,0-.07,0-.07-.19,0-.19.65,0,.85-.26.85-1.1v-3c0-.66-.15-1-.5-1a2.13,2.13,0,0,0-.77.22c-.08.05-.14-.16-.09-.18l2.22-1.08a.37.37,0,0,1,.11,0c.23,0,.47.44.51,1.22.92-.94,1.43-1.22,1.83-1.22S375.19,24.11,375.19,24.64Z" transform="translate(-68.39)"/><path d="M543.19,27.19c0,1.68-1.58,3-3.69,3-.58,0-1.59-.1-2.31-.1s-1.47,0-2,0c-.07,0-.07-.19,0-.19.89,0,1.15-.18,1.15-1.1V21.38c0-.92-.24-1.11-1.14-1.11,0,0,0-.19,0-.19.56,0,1.25.05,2,.05.61,0,1.28-.1,2-.1,1.92,0,3.06.71,3.06,2.07a2.59,2.59,0,0,1-2,2.36C542.06,24.69,543.19,25.75,543.19,27.19Zm-5.09-5.78v3h.64c1.16,0,1.73-1,1.73-2.22s-.56-1.86-1.55-1.86C538.29,20.38,538.1,20.62,538.1,21.41Zm3.22,6.16c0-1.57-.72-2.67-2.39-2.67-.16,0-.46,0-.83,0v3.86c0,.64.13,1,1.12,1C540.7,29.75,541.32,29,541.32,27.57Z" transform="translate(-68.39)"/><path d="M544.53,26.91a3.31,3.31,0,0,1,3.56-3.21A3.22,3.22,0,0,1,551.34,27a3.35,3.35,0,0,1-3.53,3.28A3.23,3.23,0,0,1,544.53,26.91Zm5.05.66c0-2.34-1-3.54-2-3.54-.83,0-1.28.74-1.28,2.29,0,2.19.9,3.64,2,3.64C549.14,30,549.58,29.09,549.58,27.57Z" transform="translate(-68.39)"/><path d="M559.59,26.67a3.4,3.4,0,0,1-3.46,3.62,3.69,3.69,0,0,1-2.25-.75l-1.46.65c-.09,0-.14-.11-.06-.14a1.68,1.68,0,0,0,.78-1.62V20.66c0-.72-.11-1.05-.48-1.05a1.64,1.64,0,0,0-.59.18c-.08,0-.16-.18-.11-.19l2.33-1.11h.08a.29.29,0,0,1,.26.21v6.08a3.27,3.27,0,0,1,2.3-1.07A2.66,2.66,0,0,1,559.59,26.67Zm-1.65.63c0-1.92-.7-2.76-1.76-2.76a2.8,2.8,0,0,0-1.55.55v2.35c0,1.91,1.17,2.53,1.89,2.53C557.45,30,557.94,29,557.94,27.3Z" transform="translate(-68.39)"/><path d="M567.85,26.67a3.4,3.4,0,0,1-3.46,3.62,3.74,3.74,0,0,1-2.26-.75l-1.45.65c-.1,0-.15-.11-.07-.14a1.67,1.67,0,0,0,.79-1.62V20.66c0-.72-.11-1.05-.48-1.05a1.63,1.63,0,0,0-.6.18c-.07,0-.15-.18-.11-.19l2.34-1.11h.08c.11,0,.26.13.26.21v6.08a3.25,3.25,0,0,1,2.3-1.07A2.66,2.66,0,0,1,567.85,26.67Zm-1.65.63c0-1.92-.7-2.76-1.76-2.76a2.78,2.78,0,0,0-1.55.55v2.35c0,1.91,1.16,2.53,1.88,2.53C565.7,30,566.2,29,566.2,27.3Z" transform="translate(-68.39)"/><path d="M575.42,24.1c-.72,0-1.19.67-1.57,1.71l-1.78,4.72c-1.17,3.09-2.13,4-3.35,4-.62,0-1-.27-1-.78a.72.72,0,0,1,.77-.76c.54,0,.64.42,1.17.42.72,0,1.18-.75,2.05-3.06l-2.56-5.17c-.47-.93-.66-1.13-1-1.13-.07,0-.07-.2,0-.2.43,0,.92,0,1.36,0,.77,0,1.31,0,1.79,0,.06,0,.06.2,0,.2-.75,0-.94.14-.7.62l1.88,3.86,1-2.79c.36-1,0-1.69-.84-1.69-.05,0-.05-.2,0-.2.51,0,.88,0,1.61,0,.52,0,.77,0,1.24,0C575.46,23.9,575.46,24.1,575.42,24.1Z" transform="translate(-68.39)"/><path d="M71.61,353.65s.1,0,.06.08C70.47,355.07,70,357,70,359.54s.51,4.47,1.71,5.82c0,0,0,.09-.06.08a7,7,0,0,1,0-11.79Z" transform="translate(-68.39)"/><path d="M74.55,363.83v2.69c0,.8.19,1,1.25,1,.06,0,.06.17,0,.17-.53,0-1.19,0-1.92,0-.53,0-1,0-1.41,0-.06,0-.06-.17,0-.17.65,0,.78-.16.78-1V360c0-.57-.11-.84-.45-.84a1.62,1.62,0,0,0-.64.2c-.07,0-.16-.14-.11-.16l2-1a.1.1,0,0,1,.07,0c.16,0,.36.31.42.89a3,3,0,0,1,2.1-.93,2.33,2.33,0,0,1,2.22,2.58A3,3,0,0,1,75.76,364,4.09,4.09,0,0,1,74.55,363.83Zm0-4.39v3.49a1.8,1.8,0,0,0,1.47.7c.89,0,1.42-.73,1.42-2.41,0-1.48-.8-2.22-1.74-2.22A1.7,1.7,0,0,0,74.55,359.44Z" transform="translate(-68.39)"/><path d="M97.89,363a3,3,0,0,1-2.21,1,2.67,2.67,0,0,1-2.84-2.72,3,3,0,0,1,3.16-3c1.11,0,1.82.47,1.82,1.61,0,.25,0,.43-.15.43l-3.4,0a1.62,1.62,0,0,0,0,.32c0,1.62.76,2.63,2.2,2.63a2.59,2.59,0,0,0,1.34-.39S97.94,363,97.89,363Zm-3.6-3,2,0c0-.9-.23-1.47-.85-1.47S94.42,359.14,94.29,360.05Z" transform="translate(-68.39)"/><path d="M98.73,365.44s-.1,0-.06-.08c1.21-1.35,1.71-3.3,1.71-5.82s-.5-4.47-1.71-5.81c0,0,0-.1.06-.08a7,7,0,0,1,0,11.79Z" transform="translate(-68.39)"/><path d="M121.58,363.2l-1.44.68a.29.29,0,0,1-.14,0c-.28,0-.6-.31-.72-.88l-.6.42a1.86,1.86,0,0,1-1.23.45c-.83,0-1.22-.39-1.22-1,0-.92.87-1.08,1.75-1.4l1.26-.46v-.8c0-1.18-.17-1.71-.64-1.71-.7,0-.82.8-.84,1.15-.06.57-.35.78-.82.78s-.67-.24-.67-.53c0-.91,1.88-1.67,2.9-1.67.77,0,1.39.47,1.39,1.56v2.48c0,.54.21.85.56.85a.94.94,0,0,0,.4-.1C121.59,363,121.66,363.16,121.58,363.2Zm-2.32-.41a.5.5,0,0,1,0-.18v-1.34l-.6.28c-.24.09-.87.26-.87.89a.7.7,0,0,0,.71.72A.79.79,0,0,0,119,363Z" transform="translate(-68.39)"/><polygon class="cls-16" points="40.79 355.61 42.12 358.31 45.1 358.74 42.94 360.84 43.45 363.8 40.79 362.4 38.13 363.8 38.64 360.84 36.48 358.74 39.46 358.31 40.79 355.61"/><polygon class="cls-16" points="17.58 355.61 18.91 358.31 21.89 358.74 19.74 360.84 20.25 363.8 17.58 362.4 14.92 363.8 15.43 360.84 13.28 358.74 16.25 358.31 17.58 355.61"/><path d="M224.77,353.65s.1,0,.06.08c-1.21,1.34-1.71,3.29-1.71,5.81s.5,4.47,1.71,5.82c0,0,0,.09-.06.08a7,7,0,0,1,0-11.79Z" transform="translate(-68.39)"/><path d="M227.71,363.83v2.69c0,.8.18,1,1.25,1,0,0,0,.17,0,.17-.53,0-1.19,0-1.92,0-.53,0-1,0-1.42,0-.05,0-.05-.17,0-.17.66,0,.79-.16.79-1V360c0-.57-.11-.84-.45-.84a1.62,1.62,0,0,0-.64.2c-.07,0-.16-.14-.12-.16l2-1a.12.12,0,0,1,.07,0c.17,0,.37.31.42.89a3.07,3.07,0,0,1,2.11-.93,2.33,2.33,0,0,1,2.22,2.58,3,3,0,0,1-3.09,3.19A4.09,4.09,0,0,1,227.71,363.83Zm0-4.39v3.49a1.8,1.8,0,0,0,1.47.7c.89,0,1.42-.73,1.42-2.41,0-1.48-.8-2.22-1.74-2.22A1.68,1.68,0,0,0,227.71,359.44Z" transform="translate(-68.39)"/><path d="M251.46,363.2l-1.45.68a.24.24,0,0,1-.14,0c-.28,0-.6-.31-.71-.88l-.6.42a1.86,1.86,0,0,1-1.23.45c-.83,0-1.22-.39-1.22-1,0-.92.87-1.08,1.75-1.4l1.26-.46v-.8c0-1.18-.17-1.71-.65-1.71-.7,0-.81.8-.84,1.15a.74.74,0,0,1-.81.78c-.49,0-.67-.24-.67-.53,0-.91,1.88-1.67,2.9-1.67.77,0,1.39.47,1.39,1.56v2.48c0,.54.21.85.56.85a.94.94,0,0,0,.4-.1C251.47,363,251.54,363.16,251.46,363.2Zm-2.33-.41a1,1,0,0,1,0-.18v-1.34l-.6.28c-.24.09-.87.26-.87.89a.7.7,0,0,0,.71.72.75.75,0,0,0,.46-.16Z" transform="translate(-68.39)"/><path d="M251.93,365.44s-.1,0-.06-.08c1.21-1.35,1.71-3.3,1.71-5.82s-.5-4.47-1.71-5.81c0,0,0-.1.06-.08a7,7,0,0,1,0,11.79Z" transform="translate(-68.39)"/><path d="M274.37,363a3,3,0,0,1-2.21,1,2.67,2.67,0,0,1-2.84-2.72,3,3,0,0,1,3.16-3c1.11,0,1.82.47,1.82,1.61,0,.25,0,.43-.15.43l-3.4,0a1.62,1.62,0,0,0,0,.32c0,1.62.76,2.63,2.2,2.63a2.65,2.65,0,0,0,1.35-.39S274.42,363,274.37,363Zm-3.6-3,2,0c0-.9-.24-1.47-.86-1.47S270.9,359.14,270.77,360.05Z" transform="translate(-68.39)"/><polygon class="cls-16" points="193.95 355.61 195.28 358.31 198.25 358.74 196.1 360.84 196.61 363.8 193.95 362.4 191.29 363.8 191.79 360.84 189.64 358.74 192.62 358.31 193.95 355.61"/><polygon class="cls-16" points="170.74 355.61 172.07 358.31 175.05 358.74 172.9 360.84 173.4 363.8 170.74 362.4 168.08 363.8 168.59 360.84 166.44 358.74 169.41 358.31 170.74 355.61"/><path d="M443.38,353.65s.1,0,.06.08c-1.2,1.34-1.71,3.29-1.71,5.81s.51,4.47,1.71,5.82c0,0,0,.09-.06.08a7,7,0,0,1,0-11.79Z" transform="translate(-68.39)"/><path d="M446.32,363.83v2.69c0,.8.18,1,1.25,1,.05,0,.05.17,0,.17-.53,0-1.19,0-1.92,0-.53,0-1,0-1.41,0-.06,0-.06-.17,0-.17.65,0,.78-.16.78-1V360c0-.57-.11-.84-.45-.84a1.62,1.62,0,0,0-.64.2c-.07,0-.16-.14-.11-.16l2-1a.12.12,0,0,1,.07,0c.17,0,.37.31.42.89a3.07,3.07,0,0,1,2.11-.93,2.33,2.33,0,0,1,2.22,2.58,3,3,0,0,1-3.09,3.19A4.09,4.09,0,0,1,446.32,363.83Zm0-4.39v3.49a1.8,1.8,0,0,0,1.47.7c.89,0,1.42-.73,1.42-2.41,0-1.48-.8-2.22-1.74-2.22A1.68,1.68,0,0,0,446.32,359.44Z" transform="translate(-68.39)"/><path d="M470.94,360.82a3,3,0,0,1-3,3.16,3.22,3.22,0,0,1-2-.66l-1.28.58c-.08,0-.12-.1-.05-.13a1.46,1.46,0,0,0,.68-1.41v-6.81c0-.63-.1-.91-.42-.91a1.56,1.56,0,0,0-.52.15c-.07,0-.14-.15-.1-.16l2.05-1h.07a.25.25,0,0,1,.22.18v5.32a2.88,2.88,0,0,1,2-.94A2.34,2.34,0,0,1,470.94,360.82Zm-1.45.54c0-1.68-.61-2.41-1.54-2.41a2.49,2.49,0,0,0-1.36.48v2.06c0,1.67,1,2.21,1.66,2.21C469.06,363.7,469.49,362.83,469.49,361.36Z" transform="translate(-68.39)"/><path d="M471.87,365.44s-.1,0-.06-.08c1.21-1.35,1.71-3.3,1.71-5.82s-.5-4.47-1.71-5.81c0,0,0-.1.06-.08a7,7,0,0,1,0,11.79Z" transform="translate(-68.39)"/><path d="M494.32,363a3,3,0,0,1-2.22,1,2.67,2.67,0,0,1-2.84-2.72,3,3,0,0,1,3.16-3c1.11,0,1.83.47,1.83,1.61,0,.25,0,.43-.16.43l-3.4,0a1.62,1.62,0,0,0,0,.32c0,1.62.76,2.63,2.2,2.63a2.65,2.65,0,0,0,1.35-.39S494.36,363,494.32,363Zm-3.6-3,2,0c0-.9-.24-1.47-.86-1.47S490.84,359.14,490.72,360.05Z" transform="translate(-68.39)"/><polygon class="cls-16" points="414.11 355.61 415.44 358.31 418.42 358.74 416.27 360.84 416.77 363.8 414.11 362.4 411.45 363.8 411.96 360.84 409.81 358.74 412.78 358.31 414.11 355.61"/><polygon class="cls-16" points="389 355.61 390.34 358.31 393.31 358.74 391.16 360.84 391.67 363.8 389 362.4 386.34 363.8 386.85 360.84 384.7 358.74 387.67 358.31 389 355.61"/><path d="M598.61,353.65s.1,0,.06.08c-1.2,1.34-1.71,3.29-1.71,5.81s.51,4.47,1.71,5.82c0,0,0,.09-.06.08a7,7,0,0,1,0-11.79Z" transform="translate(-68.39)"/><path d="M601.55,363.83v2.69c0,.8.19,1,1.25,1,.06,0,.06.17,0,.17-.53,0-1.19,0-1.92,0-.53,0-1,0-1.41,0-.06,0-.06-.17,0-.17.65,0,.78-.16.78-1V360c0-.57-.11-.84-.45-.84a1.62,1.62,0,0,0-.64.2c-.07,0-.16-.14-.11-.16l2-1a.1.1,0,0,1,.07,0c.16,0,.36.31.42.89a3,3,0,0,1,2.1-.93,2.33,2.33,0,0,1,2.22,2.58,3,3,0,0,1-3.09,3.19A4.09,4.09,0,0,1,601.55,363.83Zm0-4.39v3.49a1.8,1.8,0,0,0,1.47.7c.89,0,1.42-.73,1.42-2.41,0-1.48-.8-2.22-1.74-2.22A1.7,1.7,0,0,0,601.55,359.44Z" transform="translate(-68.39)"/><path d="M624.89,363a3,3,0,0,1-2.21,1,2.67,2.67,0,0,1-2.84-2.72,3,3,0,0,1,3.16-3c1.11,0,1.82.47,1.82,1.61,0,.25,0,.43-.15.43l-3.41,0c0,.09,0,.21,0,.32,0,1.62.76,2.63,2.2,2.63a2.59,2.59,0,0,0,1.34-.39C624.84,362.85,624.93,363,624.89,363Zm-3.6-3,2,0c0-.9-.23-1.47-.85-1.47S621.42,359.14,621.29,360.05Z" transform="translate(-68.39)"/><path d="M625.73,365.44s-.1,0-.06-.08c1.21-1.35,1.71-3.3,1.71-5.82s-.5-4.47-1.71-5.81c0,0,0-.1.06-.08a7,7,0,0,1,0,11.79Z" transform="translate(-68.39)"/><path d="M649.45,360.82a3,3,0,0,1-3,3.16,3.22,3.22,0,0,1-2-.66l-1.28.58c-.08,0-.12-.1,0-.13a1.46,1.46,0,0,0,.68-1.41v-6.81c0-.63-.09-.91-.42-.91a1.52,1.52,0,0,0-.51.15c-.08,0-.14-.15-.1-.16l2-1h.07c.1,0,.23.11.23.18v5.32a2.84,2.84,0,0,1,2-.94A2.34,2.34,0,0,1,649.45,360.82Zm-1.44.54c0-1.68-.62-2.41-1.55-2.41a2.43,2.43,0,0,0-1.35.48v2.06c0,1.67,1,2.21,1.65,2.21C647.57,363.7,648,362.83,648,361.36Z" transform="translate(-68.39)"/><polygon class="cls-16" points="567.95 355.61 569.28 358.31 572.26 358.74 570.1 360.84 570.61 363.8 567.95 362.4 565.29 363.8 565.8 360.84 563.64 358.74 566.62 358.31 567.95 355.61"/><polygon class="cls-16" points="544.24 355.61 545.57 358.31 548.54 358.74 546.39 360.84 546.9 363.8 544.24 362.4 541.57 363.8 542.08 360.84 539.93 358.74 542.9 358.31 544.24 355.61"/><path d="M442,419.53v2.69c0,.8.19,1,1.25,1,.06,0,.06.17,0,.17-.53,0-1.19,0-1.92,0-.53,0-1,0-1.41,0-.06,0-.06-.17,0-.17.66,0,.78-.16.78-1v-6.49c0-.57-.11-.84-.45-.84a1.67,1.67,0,0,0-.64.2c-.07,0-.15-.14-.11-.16l2-1a.1.1,0,0,1,.07,0c.16,0,.36.31.42.89a3,3,0,0,1,2.1-.93,2.34,2.34,0,0,1,2.23,2.58,3,3,0,0,1-3.1,3.19A4.09,4.09,0,0,1,442,419.53Zm0-4.39v3.49a1.81,1.81,0,0,0,1.48.7c.88,0,1.41-.73,1.41-2.41,0-1.48-.8-2.22-1.74-2.22A1.7,1.7,0,0,0,442,415.14Z" transform="translate(-68.39)"/><path d="M466.59,416.52a3,3,0,0,1-3,3.16,3.22,3.22,0,0,1-2-.66l-1.28.58c-.08,0-.12-.1-.05-.13a1.46,1.46,0,0,0,.68-1.41v-6.81c0-.63-.1-.91-.42-.91a1.56,1.56,0,0,0-.52.15c-.07,0-.14-.15-.09-.16l2-1,.07,0a.27.27,0,0,1,.23.19v5.32a2.84,2.84,0,0,1,2-.94A2.34,2.34,0,0,1,466.59,416.52Zm-1.44.54c0-1.68-.62-2.41-1.55-2.41a2.43,2.43,0,0,0-1.35.48v2.06c0,1.67,1,2.21,1.65,2.21C464.71,419.4,465.15,418.53,465.15,417.06Z" transform="translate(-68.39)"/><path d="M485.64,418.72a3,3,0,0,1-2.21.95,2.68,2.68,0,0,1-2.85-2.72,3,3,0,0,1,3.17-3c1.11,0,1.82.47,1.82,1.61,0,.25,0,.43-.15.43L482,416c0,.09,0,.21,0,.32,0,1.62.76,2.63,2.2,2.63a2.59,2.59,0,0,0,1.34-.39S485.68,418.66,485.64,418.72Zm-3.6-3,2,0c0-.9-.24-1.47-.85-1.47S482.17,414.84,482,415.75Z" transform="translate(-68.39)"/><polygon class="cls-16" points="405.11 411.31 406.44 414 409.42 414.44 407.26 416.54 407.77 419.5 405.11 418.1 402.45 419.5 402.96 416.54 400.8 414.44 403.78 414 405.11 411.31"/><polygon class="cls-16" points="384.69 411.31 386.02 414 389 414.44 386.85 416.54 387.36 419.5 384.69 418.1 382.03 419.5 382.54 416.54 380.39 414.44 383.36 414 384.69 411.31"/><path d="M235.79,419.53v2.69c0,.8.18,1,1.25,1,.05,0,.05.17,0,.17-.54,0-1.19,0-1.92,0-.53,0-1,0-1.42,0,0,0,0-.17,0-.17.66,0,.79-.16.79-1v-6.49c0-.57-.12-.84-.45-.84a1.65,1.65,0,0,0-.65.2c-.07,0-.15-.14-.11-.16l2-1a.12.12,0,0,1,.07,0c.17,0,.37.31.42.89a3.07,3.07,0,0,1,2.1-.93,2.33,2.33,0,0,1,2.23,2.58,3,3,0,0,1-3.1,3.19A4.07,4.07,0,0,1,235.79,419.53Zm0-4.39v3.49a1.79,1.79,0,0,0,1.47.7c.88,0,1.42-.73,1.42-2.41,0-1.48-.8-2.22-1.74-2.22A1.68,1.68,0,0,0,235.79,415.14Z" transform="translate(-68.39)"/><path d="M259.53,418.9l-1.44.68a.26.26,0,0,1-.14,0c-.28,0-.6-.31-.71-.88l-.6.42a1.86,1.86,0,0,1-1.24.45c-.82,0-1.22-.39-1.22-1,0-.92.87-1.08,1.76-1.4l1.26-.46v-.8c0-1.18-.17-1.71-.65-1.71-.7,0-.81.8-.84,1.15-.06.57-.35.78-.81.78s-.67-.24-.67-.53c0-.91,1.87-1.67,2.9-1.67.77,0,1.38.47,1.38,1.56V418c0,.54.21.85.56.85a1,1,0,0,0,.41-.1C259.55,418.72,259.62,418.86,259.53,418.9Zm-2.32-.41a1,1,0,0,1,0-.18V417l-.61.29c-.24.09-.86.26-.86.89a.7.7,0,0,0,.71.72.75.75,0,0,0,.46-.16Z" transform="translate(-68.39)"/><path d="M278.13,418.72a3,3,0,0,1-2.22.95,2.67,2.67,0,0,1-2.84-2.72,3,3,0,0,1,3.17-3c1.1,0,1.82.47,1.82,1.61,0,.25,0,.43-.16.43l-3.4,0a1.62,1.62,0,0,0,0,.32c0,1.62.76,2.63,2.2,2.63a2.65,2.65,0,0,0,1.35-.39S278.17,418.66,278.13,418.72Zm-3.6-3,2,0c0-.9-.24-1.47-.86-1.47S274.65,414.84,274.53,415.75Z" transform="translate(-68.39)"/><polygon class="cls-16" points="197.83 411.31 199.16 414 202.14 414.44 199.98 416.54 200.49 419.5 197.83 418.1 195.17 419.5 195.68 416.54 193.53 414.44 196.5 414 197.83 411.31"/><polygon class="cls-16" points="178.4 411.31 179.73 414 182.7 414.44 180.55 416.54 181.06 419.5 178.4 418.1 175.74 419.5 176.24 416.54 174.09 414.44 177.07 414 178.4 411.31"/><path d="M78.68,419.53v2.69c0,.8.19,1,1.25,1,.06,0,.06.17,0,.17-.53,0-1.19,0-1.92,0-.53,0-1,0-1.41,0-.06,0-.06-.17,0-.17.66,0,.78-.16.78-1v-6.49c0-.57-.11-.84-.45-.84a1.67,1.67,0,0,0-.64.2c-.07,0-.15-.14-.11-.16l2-1a.1.1,0,0,1,.07,0c.16,0,.36.31.42.89a3,3,0,0,1,2.1-.93A2.33,2.33,0,0,1,83,416.49a3,3,0,0,1-3.09,3.19A4.09,4.09,0,0,1,78.68,419.53Zm0-4.39v3.49a1.8,1.8,0,0,0,1.47.7c.89,0,1.42-.73,1.42-2.41,0-1.48-.8-2.22-1.74-2.22A1.7,1.7,0,0,0,78.68,415.14Z" transform="translate(-68.39)"/><path d="M102.43,418.9l-1.44.68a.29.29,0,0,1-.14,0c-.28,0-.61-.31-.72-.88l-.6.42a1.86,1.86,0,0,1-1.23.45c-.83,0-1.22-.39-1.22-1,0-.92.87-1.08,1.75-1.4l1.26-.46v-.8c0-1.18-.17-1.71-.64-1.71-.7,0-.82.8-.85,1.15,0,.57-.34.78-.81.78s-.67-.24-.67-.53c0-.91,1.88-1.67,2.9-1.67.77,0,1.39.47,1.39,1.56V418c0,.54.21.85.56.85a.94.94,0,0,0,.4-.1C102.44,418.72,102.51,418.86,102.43,418.9Zm-2.33-.41a1,1,0,0,1,0-.18V417l-.6.29c-.24.09-.87.26-.87.89a.7.7,0,0,0,.71.72.79.79,0,0,0,.47-.16Z" transform="translate(-68.39)"/><path d="M121,418.72a3,3,0,0,1-2.21.95A2.68,2.68,0,0,1,116,417a3,3,0,0,1,3.17-3c1.11,0,1.82.47,1.82,1.61,0,.25,0,.43-.15.43l-3.41,0c0,.09,0,.21,0,.32,0,1.62.76,2.63,2.2,2.63a2.59,2.59,0,0,0,1.34-.39S121.06,418.66,121,418.72Zm-3.6-3,2,0c0-.9-.24-1.47-.85-1.47S117.55,414.84,117.42,415.75Z" transform="translate(-68.39)"/><polygon class="cls-16" points="40.73 411.31 42.06 414 45.03 414.44 42.88 416.54 43.39 419.5 40.73 418.1 38.06 419.5 38.57 416.54 36.42 414.44 39.4 414 40.73 411.31"/><polygon class="cls-16" points="21.29 411.31 22.62 414 25.6 414.44 23.45 416.54 23.95 419.5 21.29 418.1 18.63 419.5 19.14 416.54 16.99 414.44 19.96 414 21.29 411.31"/><path d="M597.23,419.53v2.69c0,.8.18,1,1.24,1,.06,0,.06.17,0,.17-.53,0-1.19,0-1.91,0-.54,0-1,0-1.42,0-.06,0-.06-.17,0-.17.66,0,.78-.16.78-1v-6.49c0-.57-.11-.84-.44-.84a1.65,1.65,0,0,0-.65.2c-.07,0-.15-.14-.11-.16l2-1a.12.12,0,0,1,.07,0c.17,0,.36.31.42.89a3,3,0,0,1,2.1-.93,2.34,2.34,0,0,1,2.23,2.58,3,3,0,0,1-3.1,3.19A4.07,4.07,0,0,1,597.23,419.53Zm0-4.39v3.49a1.77,1.77,0,0,0,1.47.7c.88,0,1.41-.73,1.41-2.41,0-1.48-.8-2.22-1.73-2.22A1.66,1.66,0,0,0,597.23,415.14Z" transform="translate(-68.39)"/><path d="M621.84,416.52a3,3,0,0,1-3,3.16,3.27,3.27,0,0,1-2-.66l-1.27.58a.07.07,0,0,1-.06-.13,1.46,1.46,0,0,0,.69-1.41v-6.81c0-.63-.1-.91-.42-.91a1.5,1.5,0,0,0-.52.15c-.07,0-.14-.15-.1-.16l2.05-1,.06,0a.27.27,0,0,1,.23.19v5.32a2.86,2.86,0,0,1,2-.94A2.34,2.34,0,0,1,621.84,416.52Zm-1.44.54c0-1.68-.62-2.41-1.54-2.41a2.46,2.46,0,0,0-1.36.48v2.06c0,1.67,1,2.21,1.65,2.21C620,419.4,620.4,418.53,620.4,417.06Z" transform="translate(-68.39)"/><path d="M640.89,418.72a3,3,0,0,1-2.21.95,2.67,2.67,0,0,1-2.84-2.72,3,3,0,0,1,3.16-3c1.11,0,1.82.47,1.82,1.61,0,.25,0,.43-.15.43l-3.4,0a1.62,1.62,0,0,0,0,.32c0,1.62.76,2.63,2.2,2.63a2.65,2.65,0,0,0,1.35-.39S640.94,418.66,640.89,418.72Zm-3.6-3,2,0c0-.9-.24-1.47-.86-1.47S637.42,414.84,637.29,415.75Z" transform="translate(-68.39)"/><polygon class="cls-16" points="560.36 411.31 561.69 414 564.67 414.44 562.51 416.54 563.02 419.5 560.36 418.1 557.7 419.5 558.21 416.54 556.06 414.44 559.03 414 560.36 411.31"/><polygon class="cls-16" points="539.95 411.31 541.28 414 544.25 414.44 542.1 416.54 542.61 419.5 539.95 418.1 537.29 419.5 537.79 416.54 535.64 414.44 538.62 414 539.95 411.31"/></svg>