<svg id="Layer_1" data-name="Layer 1" xmlns="http://www.w3.org/2000/svg" viewBox="0 0 533.88 180"><defs><style>.cls-1{opacity:0.1;}.cls-2,.cls-3{fill:none;}.cls-2{stroke:#000;}.cls-2,.cls-3,.cls-4,.cls-5,.cls-6,.cls-7{stroke-miterlimit:10;}.cls-3{stroke:#aa0a3c;stroke-width:3px;}.cls-4,.cls-6{fill:#aea389;stroke:#656050;}.cls-4{stroke-width:0.67px;}.cls-5,.cls-7{fill:#006e82;stroke:#003b48;}.cls-5{stroke-width:0.66px;}.cls-6{stroke-width:0.28px;}.cls-7{stroke-width:0.28px;}</style></defs><title>fingerprinting_mitm</title><rect class="cls-1" x="187.04" width="157.57" height="180"/><path d="M77.64,24.79c-.56,0-1.19-.05-1.75-.05s-1,.05-1.61.05c-.09,0-.09-.17,0-.17.77,0,.87-.23.4-1.14l-1-1.9H70.29l-.55,1.22c-.51,1.12.08,1.82,1.13,1.82.09,0,.09.17,0,.17-.56,0-.93-.05-1.65-.05s-1,.05-1.68.05c-.07,0-.07-.17,0-.17.76,0,1.11-.37,1.82-2l3-6.68c0-.05.22-.07.25,0l3.5,6.89c.66,1.33,1,1.75,1.49,1.75C77.72,24.62,77.72,24.79,77.64,24.79Zm-4.12-3.6L71.91,18l-1.44,3.19Z" transform="translate(-20.01)"/><path d="M80.39,21.37c.69.4,1.47.77,1.47,1.74A1.9,1.9,0,0,1,79.78,25a2.87,2.87,0,0,1-1.46-.38.23.23,0,0,1-.08-.17l0-1.39c0-.05.15-.07.17,0a2.25,2.25,0,0,0,1.79,1.69c.38,0,.64-.23.64-.72,0-.77-.6-1.12-1.16-1.44s-1.39-.69-1.39-1.67c0-1.17,1-1.59,2-1.59a3,3,0,0,1,1.16.21.16.16,0,0,1,.12.15c0,.38,0,.76,0,1.25,0,.05-.17.05-.17,0a1.68,1.68,0,0,0-1.54-1.35c-.27,0-.58.09-.58.55S79.81,21,80.39,21.37Z" transform="translate(-20.01)"/><path d="M85,21.37c.68.4,1.47.77,1.47,1.74A1.9,1.9,0,0,1,84.41,25,2.92,2.92,0,0,1,83,24.57a.23.23,0,0,1-.08-.17l0-1.39c0-.05.16-.07.17,0a2.25,2.25,0,0,0,1.79,1.69c.38,0,.65-.23.65-.72,0-.77-.6-1.12-1.16-1.44s-1.39-.69-1.39-1.67c0-1.17,1-1.59,2-1.59a2.92,2.92,0,0,1,1.16.21.16.16,0,0,1,.13.15c0,.38,0,.76,0,1.25,0,.05-.17.05-.17,0a1.68,1.68,0,0,0-1.54-1.35.5.5,0,0,0-.57.55C83.91,20.66,84.44,21,85,21.37Z" transform="translate(-20.01)"/><path d="M92.88,24.19l-1.44.69-.14,0c-.28,0-.6-.3-.71-.88l-.61.42a1.84,1.84,0,0,1-1.23.45c-.83,0-1.22-.39-1.22-1,0-.92.87-1.08,1.75-1.4L90.54,22v-.8c0-1.18-.16-1.71-.64-1.71-.7,0-.81.8-.84,1.15-.06.57-.35.78-.81.78s-.68-.23-.68-.53c0-.91,1.88-1.66,2.9-1.66.77,0,1.39.46,1.39,1.55v2.48c0,.55.21.85.56.85a1,1,0,0,0,.41-.09C92.9,24,93,24.15,92.88,24.19Zm-2.32-.41a.5.5,0,0,1,0-.18V22.26l-.6.28c-.24.09-.87.26-.87.89a.7.7,0,0,0,.72.72.77.77,0,0,0,.46-.16Z" transform="translate(-20.01)"/><path d="M97.49,24a2.8,2.8,0,0,1-2,1c-.68,0-1.48-.27-1.48-1.29V20.56c0-.59-.18-.77-.72-.77-.07,0-.07-.25,0-.25a1.84,1.84,0,0,0,1.84-1.16c0-.07.21-.07.21,0V19.5c.59,0,1.16-.06,1.82-.13,0,0,.1.17.1.34s-.09.42-.16.39a8.81,8.81,0,0,0-1.76-.21v3.32a.92.92,0,0,0,1,1,1.84,1.84,0,0,0,1.1-.42C97.43,23.77,97.56,23.9,97.49,24Z" transform="translate(-20.01)"/><path d="M103.48,24.19l-1.44.69-.14,0c-.28,0-.6-.3-.72-.88l-.6.42a1.84,1.84,0,0,1-1.23.45c-.83,0-1.22-.39-1.22-1,0-.92.87-1.08,1.75-1.4l1.26-.46v-.8c0-1.18-.17-1.71-.64-1.71-.7,0-.81.8-.84,1.15-.06.57-.35.78-.82.78s-.67-.23-.67-.53c0-.91,1.88-1.66,2.9-1.66.77,0,1.39.46,1.39,1.55v2.48c0,.55.21.85.56.85a.89.89,0,0,0,.4-.09C103.5,24,103.56,24.15,103.48,24.19Zm-2.32-.41a.5.5,0,0,1,0-.18V22.26l-.6.28c-.24.09-.87.26-.87.89a.7.7,0,0,0,.72.72.77.77,0,0,0,.46-.16Z" transform="translate(-20.01)"/><path d="M479.7,22.26c0,1.47-1.39,2.59-3.24,2.59-.5,0-1.39-.09-2-.09s-1.28,0-1.77,0c-.06,0-.06-.17,0-.17.78,0,1-.15,1-1V17.17c0-.8-.21-1-1-1,0,0,0-.17,0-.17.49,0,1.09,0,1.76,0s1.12-.08,1.73-.08c1.68,0,2.67.61,2.67,1.8a2.27,2.27,0,0,1-1.71,2.08C478.7,20.07,479.7,21,479.7,22.26Zm-4.46-5.06v2.66l.56,0c1,0,1.52-.87,1.52-1.95s-.49-1.63-1.36-1.63C475.41,16.3,475.24,16.51,475.24,17.2Zm2.82,5.39c0-1.37-.63-2.34-2.09-2.34-.14,0-.41,0-.73,0v3.38c0,.56.11.84,1,.84C477.51,24.5,478.06,23.81,478.06,22.59Z" transform="translate(-20.01)"/><path d="M480.87,22A2.9,2.9,0,0,1,484,19.2a2.81,2.81,0,0,1,2.84,2.9A2.93,2.93,0,0,1,483.74,25,2.82,2.82,0,0,1,480.87,22Zm4.41.57c0-2-.88-3.09-1.78-3.09-.73,0-1.12.64-1.12,2,0,1.92.79,3.18,1.78,3.18C484.9,24.68,485.28,23.92,485.28,22.59Z" transform="translate(-20.01)"/><path d="M494.05,21.81A3,3,0,0,1,491,25a3.33,3.33,0,0,1-2-.65l-1.27.57c-.08,0-.13-.1-.06-.13a1.44,1.44,0,0,0,.69-1.41V16.54c0-.63-.1-.91-.42-.91a1.35,1.35,0,0,0-.52.16c-.07,0-.14-.16-.1-.17l2.05-1h.07a.25.25,0,0,1,.22.18v5.32a2.88,2.88,0,0,1,2-.94A2.34,2.34,0,0,1,494.05,21.81Zm-1.45.54c0-1.68-.61-2.4-1.54-2.4a2.56,2.56,0,0,0-1.36.47v2.06c0,1.67,1,2.21,1.66,2.21C492.17,24.69,492.6,23.83,492.6,22.35Z" transform="translate(-20.01)"/><path d="M501.27,21.81a3,3,0,0,1-3,3.16,3.28,3.28,0,0,1-2-.65l-1.28.57c-.08,0-.12-.1-.05-.13a1.46,1.46,0,0,0,.68-1.41V16.54c0-.63-.09-.91-.42-.91a1.37,1.37,0,0,0-.51.16c-.07,0-.14-.16-.1-.17l2-1h.07c.1,0,.23.11.23.18v5.32a2.86,2.86,0,0,1,2-.94A2.34,2.34,0,0,1,501.27,21.81Zm-1.44.54c0-1.68-.62-2.4-1.54-2.4a2.53,2.53,0,0,0-1.36.47v2.06c0,1.67,1,2.21,1.65,2.21C499.39,24.69,499.83,23.83,499.83,22.35Z" transform="translate(-20.01)"/><path d="M507.89,19.55c-.63,0-1,.59-1.37,1.5L505,25.18c-1,2.71-1.86,3.55-2.92,3.55-.55,0-.87-.24-.87-.69a.63.63,0,0,1,.67-.66c.48,0,.56.37,1,.37.63,0,1-.66,1.8-2.68l-2.25-4.52c-.4-.81-.57-1-.91-1-.05,0-.05-.16,0-.16l1.19,0,1.57,0c.06,0,.06.16,0,.16-.65,0-.82.13-.61.55l1.65,3.38.84-2.44c.31-.91,0-1.49-.74-1.49,0,0,0-.16,0-.16l1.41,0,1.08,0S507.93,19.55,507.89,19.55Z" transform="translate(-20.01)"/><path d="M278.72,22.59a17.58,17.58,0,0,0-.14,2c0,.16,0,.21-.21.21h-6.19c-.06,0-.06-.17,0-.17.86,0,1-.15,1-1V17.17c0-.8-.14-1-1-1-.06,0-.06-.17,0-.17h5.94c.11,0,.14,0,.14.12l0,1.87s-.14.07-.17,0a2,2,0,0,0-2.16-1.6h-.42c-.56,0-.81.24-.81.75V20h1.16c1.11,0,1.68-.4,1.68-1.06,0-.06.16-.06.16,0,0,.62,0,.88,0,1.26s.05.9.05,1.43c0,0-.17,0-.17,0,0-.76-.59-1.23-1.71-1.23h-1.15V23.6c0,.55.2.8.65.8h.46a2.49,2.49,0,0,0,2.71-1.84S278.72,22.55,278.72,22.59Z" transform="translate(-20.01)"/><path d="M286.46,24l-1.93.93-.07,0c-.17,0-.32-.37-.36-1A3.09,3.09,0,0,1,282,25c-1.2,0-2.2-1-2.2-2.73a3,3,0,0,1,3.21-3,3.77,3.77,0,0,1,1.09.17V16.54c0-.63-.09-.91-.4-.91a1.35,1.35,0,0,0-.52.16c-.07,0-.16-.16-.11-.17l2.06-1h.05c.1,0,.24.11.24.18v8.35c0,.64.11.87.39.87a1.89,1.89,0,0,0,.58-.16C286.42,23.84,286.51,24,286.46,24Zm-2.38-.33V20.24a1.48,1.48,0,0,0-1.3-.67c-.95,0-1.55.59-1.55,2.22s.64,2.51,1.52,2.51A1.89,1.89,0,0,0,284.08,23.71Z" transform="translate(-20.01)"/><path d="M292.57,25.73a3.38,3.38,0,0,1-3.55,3c-1.28,0-2.2-.64-2.2-1.59,0-.55.31-1.18,1.42-1.91-.56-.11-1-.38-1-1a1.86,1.86,0,0,1,1-1.52A1.91,1.91,0,0,1,287.08,21c0-1.18,1.33-1.75,2.45-1.75a2.57,2.57,0,0,1,1.51.45,2.54,2.54,0,0,1,1.51-.49c.09,0,.12.16.12.39s-.1.68-.17.63a2.81,2.81,0,0,0-1-.24h-.11a1.54,1.54,0,0,1,.38,1c0,1.17-1.29,1.89-2.47,1.89a2.28,2.28,0,0,1-.8-.13.85.85,0,0,0-.22.61c0,.78.69.79,1.74.81C291.24,24.23,292.57,24.27,292.57,25.73Zm-1.15.9c0-1.26-.88-1.28-2.13-1.29l-.73,0a1.26,1.26,0,0,0-.48,1.12,1.74,1.74,0,0,0,1.78,1.87A1.5,1.5,0,0,0,291.42,26.63Zm-3-6c0,1.2.58,2.06,1.19,2.06.36,0,.72-.34.72-1.25,0-1.27-.72-1.88-1.28-1.88S288.44,20,288.44,20.62Z" transform="translate(-20.01)"/><path d="M298.53,24.19l-1.44.69-.14,0c-.28,0-.6-.3-.72-.88l-.6.42a1.84,1.84,0,0,1-1.23.45c-.83,0-1.22-.39-1.22-1,0-.92.87-1.08,1.75-1.4l1.26-.46v-.8c0-1.18-.17-1.71-.64-1.71-.7,0-.81.8-.84,1.15-.06.57-.35.78-.81.78s-.68-.23-.68-.53c0-.91,1.88-1.66,2.9-1.66.77,0,1.39.46,1.39,1.55v2.48c0,.55.21.85.56.85a1,1,0,0,0,.41-.09C298.55,24,298.62,24.15,298.53,24.19Zm-2.32-.41a.5.5,0,0,1,0-.18V22.26l-.6.28c-.24.09-.87.26-.87.89a.7.7,0,0,0,.72.72.77.77,0,0,0,.46-.16Z" transform="translate(-20.01)"/><path d="M303.63,20a.63.63,0,0,1-.66.67c-.59,0-.62-.6-1.05-.6-.17,0-.32.07-.8.55v3c0,.74.29,1,1.25,1,.07,0,.07.17,0,.17-.51,0-1.17,0-1.91,0-.53,0-1,0-1.4,0-.06,0-.06-.17,0-.17.57,0,.74-.22.74-1V21c0-.57-.12-.84-.43-.84a1.73,1.73,0,0,0-.67.2c-.07,0-.13-.14-.09-.15l1.95-1,.1,0c.19,0,.4.37.45,1.06.79-.83,1.24-1.06,1.59-1.06S303.63,19.57,303.63,20Z" transform="translate(-20.01)"/><path d="M20.68,127.55v-5h-.09a1,1,0,0,1-.46-.08.29.29,0,0,1-.12-.27.33.33,0,0,1,.1-.27.4.4,0,0,1,.29-.09h.74a.33.33,0,0,1,.21.06.17.17,0,0,1,.07.14v2.22a2.63,2.63,0,0,1,.7-.49,1.72,1.72,0,0,1,.73-.16,1.49,1.49,0,0,1,1.16.46,1.79,1.79,0,0,1,.42,1.27v2.21h.23a.58.58,0,0,1,.36.08.29.29,0,0,1,.1.25.37.37,0,0,1-.09.27.45.45,0,0,1-.3.09h-1.3a.46.46,0,0,1-.31-.08.39.39,0,0,1-.08-.28.29.29,0,0,1,.1-.26.68.68,0,0,1,.38-.07h.17v-2a1.29,1.29,0,0,0-.26-.88.93.93,0,0,0-.75-.3,1.29,1.29,0,0,0-.88.34,1.06,1.06,0,0,0-.38.84v2h.17a.7.7,0,0,1,.39.07.3.3,0,0,1,.11.26.39.39,0,0,1-.08.28.48.48,0,0,1-.31.08H20.4a.42.42,0,0,1-.29-.09.37.37,0,0,1-.09-.27.29.29,0,0,1,.11-.26.94.94,0,0,1,.45-.07Z" transform="translate(-20.01)"/><path d="M29.64,127.62a3.11,3.11,0,0,1-.87.55,2.7,2.7,0,0,1-1,.19,1.67,1.67,0,0,1-1.17-.41,1.35,1.35,0,0,1-.45-1,1.39,1.39,0,0,1,.59-1.2,2.86,2.86,0,0,1,1.67-.42,5.44,5.44,0,0,1,.57,0l.59.12v0a1.14,1.14,0,0,0-.27-.83,1.12,1.12,0,0,0-.83-.26,2,2,0,0,0-.85.2,2,2,0,0,1-.62.21.3.3,0,0,1-.24-.12.46.46,0,0,1-.09-.29c0-.2.18-.36.54-.49a3.87,3.87,0,0,1,1.38-.2,1.77,1.77,0,0,1,1.3.43,1.79,1.79,0,0,1,.44,1.3v2.21h.24a1,1,0,0,1,.46.07.29.29,0,0,1,.12.26.33.33,0,0,1-.1.27.4.4,0,0,1-.29.09H30a.29.29,0,0,1-.22-.09.39.39,0,0,1-.12-.24Zm0-1.54a3.59,3.59,0,0,0-.52-.13,2.81,2.81,0,0,0-.5,0,2.3,2.3,0,0,0-1.18.25.78.78,0,0,0-.44.68.66.66,0,0,0,.27.55,1.1,1.1,0,0,0,.69.22,2.11,2.11,0,0,0,1.15-.33c.36-.22.53-.44.53-.68Z" transform="translate(-20.01)"/><path d="M32.39,127.88V127a.48.48,0,0,1,.08-.31.33.33,0,0,1,.26-.1c.14,0,.24.1.32.28a1.72,1.72,0,0,0,.14.25,1.5,1.5,0,0,0,.61.42,2.26,2.26,0,0,0,.88.16,1.46,1.46,0,0,0,.83-.21.64.64,0,0,0,.31-.55.53.53,0,0,0-.25-.5,1.94,1.94,0,0,0-.86-.14h-.27a2.78,2.78,0,0,1-1.52-.35,1.13,1.13,0,0,1-.52-1,1.15,1.15,0,0,1,.51-1,2.54,2.54,0,0,1,1.43-.35,3,3,0,0,1,.77.1l.41.11a.5.5,0,0,0,.21-.1.57.57,0,0,1,.29-.09.28.28,0,0,1,.25.12.69.69,0,0,1,.08.36v.58a.7.7,0,0,1-.08.37.26.26,0,0,1-.25.11.58.58,0,0,1-.36-.24,2.14,2.14,0,0,0-.25-.26,1.56,1.56,0,0,0-.55-.35,2,2,0,0,0-.69-.1,1.22,1.22,0,0,0-.74.2.64.64,0,0,0-.28.52.44.44,0,0,0,.29.43,3.9,3.9,0,0,0,1.24.16,2.66,2.66,0,0,1,1.48.35,1.15,1.15,0,0,1,.47,1,1.25,1.25,0,0,1-.51,1,2.22,2.22,0,0,1-1.4.4,4.82,4.82,0,0,1-.62,0c-.23,0-.52-.09-.86-.18a1.93,1.93,0,0,1-.29.17.48.48,0,0,1-.21.06.31.31,0,0,1-.26-.12A.58.58,0,0,1,32.39,127.88Z" transform="translate(-20.01)"/><path d="M38.68,127.55v-5h-.09a1,1,0,0,1-.46-.08.29.29,0,0,1-.12-.27.33.33,0,0,1,.1-.27.42.42,0,0,1,.29-.09h.74a.33.33,0,0,1,.21.06.15.15,0,0,1,.07.14v2.22a2.52,2.52,0,0,1,.71-.49,1.64,1.64,0,0,1,.72-.16,1.49,1.49,0,0,1,1.16.46,1.79,1.79,0,0,1,.42,1.27v2.21h.24a.55.55,0,0,1,.35.08.3.3,0,0,1,.11.25.37.37,0,0,1-.1.27.42.42,0,0,1-.29.09H41.43a.48.48,0,0,1-.31-.08.39.39,0,0,1-.08-.28.32.32,0,0,1,.1-.26.71.71,0,0,1,.38-.07h.18v-2a1.34,1.34,0,0,0-.26-.88,1,1,0,0,0-.76-.3,1.31,1.31,0,0,0-.88.34,1.09,1.09,0,0,0-.38.84v2h.17a.74.74,0,0,1,.4.07.3.3,0,0,1,.1.26.39.39,0,0,1-.08.28.46.46,0,0,1-.31.08H38.4a.38.38,0,0,1-.28-.09.33.33,0,0,1-.1-.27.29.29,0,0,1,.11-.26.94.94,0,0,1,.45-.07Z" transform="translate(-20.01)"/><path d="M47.51,122.49a1.4,1.4,0,0,1-.16.45c-.11.22-.19.4-.25.54a7.58,7.58,0,0,0-.47,1.42,6.45,6.45,0,0,0-.14,1.33,6.28,6.28,0,0,0,.12,1.24,6.84,6.84,0,0,0,.36,1.2q.12.32.33.75a2.26,2.26,0,0,1,.21.54.27.27,0,0,1,0,.17.16.16,0,0,1-.13.06A.58.58,0,0,1,47,130a3.36,3.36,0,0,1-.43-.52,6.16,6.16,0,0,1-.78-1.56,5.8,5.8,0,0,1,0-3.3,5.63,5.63,0,0,1,.64-1.45,3.5,3.5,0,0,1,.53-.7.66.66,0,0,1,.42-.24.16.16,0,0,1,.13.06A.29.29,0,0,1,47.51,122.49Z" transform="translate(-20.01)"/><path d="M82,126.87a.4.4,0,0,1,.1-.21.42.42,0,0,1,.22,0h1.07a.16.16,0,0,1,.11,0,.1.1,0,0,1,0,.08.18.18,0,0,1,0,.06l0,.07-1.34,2.8a.36.36,0,0,1-.1.11.21.21,0,0,1-.12.05h0l-.06,0-.34-.12-.12-.08a.13.13,0,0,1,0-.1v-.08a.11.11,0,0,1,0-.05Z" transform="translate(-20.01)"/><path d="M93.83,124.61a.29.29,0,0,1-.08.17.27.27,0,0,1-.17,0h-.85a.12.12,0,0,1-.09,0,.05.05,0,0,1,0-.06.1.1,0,0,1,0,0,.14.14,0,0,1,0-.06l1.07-2.21.08-.11a.18.18,0,0,1,.09,0H94l.27.11a.21.21,0,0,1,.1.06.12.12,0,0,1,0,.09v0l0,.06Zm1.92,0a.29.29,0,0,1-.08.17.27.27,0,0,1-.17,0h-.86a.16.16,0,0,1-.09,0,.06.06,0,0,1,0-.06.1.1,0,0,1,0,0s0,0,0-.06l1.07-2.21a.35.35,0,0,1,.08-.11s0,0,.08,0h.08l.28.11a.15.15,0,0,1,.09.06.12.12,0,0,1,0,.09v.06a.06.06,0,0,1,0,0Z" transform="translate(-20.01)"/><path d="M102.52,128a5.18,5.18,0,0,1-.07,1,1.45,1.45,0,0,1-.24.5,1.72,1.72,0,0,1-.77.55,3.37,3.37,0,0,1-1.16.18,2.31,2.31,0,0,1-.81-.1.38.38,0,0,1-.26-.35.33.33,0,0,1,.13-.26.4.4,0,0,1,.29-.12l.41,0a2.61,2.61,0,0,0,.41,0,1.35,1.35,0,0,0,1-.33,1.73,1.73,0,0,0,.3-1.14v-.59a1.81,1.81,0,0,1-.66.5,2,2,0,0,1-.83.17,2.05,2.05,0,0,1-1.51-.61,2.27,2.27,0,0,1,0-3.1,2.06,2.06,0,0,1,1.52-.62,2,2,0,0,1,.73.14,3.09,3.09,0,0,1,.73.43v-.36a.18.18,0,0,1,.07-.15.34.34,0,0,1,.2,0h.74a.4.4,0,0,1,.29.09.31.31,0,0,1,.1.26.29.29,0,0,1-.12.27.94.94,0,0,1-.46.08h-.08Zm-2.13-3.53a1.44,1.44,0,0,0-1,.39,1.49,1.49,0,0,0,0,2,1.44,1.44,0,0,0,1,.39,1.47,1.47,0,0,0,1-.39,1.38,1.38,0,0,0,.4-1,1.35,1.35,0,0,0-.4-1A1.43,1.43,0,0,0,100.39,124.45Z" transform="translate(-20.01)"/><path d="M109.09,126a2.21,2.21,0,0,1-.71,1.71,2.88,2.88,0,0,1-3.69,0,2.38,2.38,0,0,1,0-3.41,2.91,2.91,0,0,1,3.69,0A2.2,2.2,0,0,1,109.09,126Zm-2.56,1.69a1.67,1.67,0,0,0,1.23-.48,1.77,1.77,0,0,0,0-2.42,1.82,1.82,0,0,0-2.46,0,1.78,1.78,0,0,0,0,2.43A1.7,1.7,0,0,0,106.53,127.67Z" transform="translate(-20.01)"/><path d="M112.2,122.55h-.83a1.37,1.37,0,0,1-.59-.08.29.29,0,0,1-.12-.27.33.33,0,0,1,.1-.27.44.44,0,0,1,.29-.09h1.61a.33.33,0,0,1,.21.06.15.15,0,0,1,.07.14v5.51h1.54a.36.36,0,0,1,.27.08.36.36,0,0,1,.08.25.39.39,0,0,1-.08.28.48.48,0,0,1-.31.08h-3.61a.44.44,0,0,1-.29-.09.37.37,0,0,1-.1-.27.34.34,0,0,1,.1-.25.54.54,0,0,1,.31-.08h1.35Z" transform="translate(-20.01)"/><path d="M120,128.24a.16.16,0,0,1-.14-.06.3.3,0,0,1,0-.19v-.4a2.1,2.1,0,0,1-.74.57,2.31,2.31,0,0,1-1,.2,2,2,0,0,1-1.54-.66,2.43,2.43,0,0,1,0-3.31,2.36,2.36,0,0,1,2.56-.5,2.06,2.06,0,0,1,.69.53v-1.87h-.26a1.21,1.21,0,0,1-.55-.08.28.28,0,0,1-.13-.27.37.37,0,0,1,.1-.27.44.44,0,0,1,.29-.09h1a.42.42,0,0,1,.22,0,.2.2,0,0,1,.06.15v5.51h.22a.55.55,0,0,1,.35.08.3.3,0,0,1,.11.25.31.31,0,0,1-.1.26.3.3,0,0,1-.25.1Zm-3.2-2.2a1.51,1.51,0,0,0,.44,1.11,1.53,1.53,0,0,0,1.1.43,1.48,1.48,0,0,0,1.11-.45,1.58,1.58,0,0,0,.44-1.14,1.51,1.51,0,0,0-.44-1.11,1.45,1.45,0,0,0-1.11-.44,1.44,1.44,0,0,0-1.11.44A1.63,1.63,0,0,0,116.8,126Z" transform="translate(-20.01)"/><path d="M126.35,125.52a2.33,2.33,0,0,0-.13-.93.42.42,0,0,0-.42-.25.67.67,0,0,0-.58.32,1.52,1.52,0,0,0-.21.86v2h.09a.68.68,0,0,1,.39.07.29.29,0,0,1,.1.26.36.36,0,0,1-.08.27.32.32,0,0,1-.25.09h-.62a.37.37,0,0,1-.29-.1.78.78,0,0,1-.08-.42v-2.58a.91.91,0,0,0-.16-.58.56.56,0,0,0-.46-.22.73.73,0,0,0-.4.13,1,1,0,0,0-.31.39v2.69h.18a.73.73,0,0,1,.39.07.3.3,0,0,1,.1.26.39.39,0,0,1-.08.28.49.49,0,0,1-.32.08h-1.29a.38.38,0,0,1-.28-.09.37.37,0,0,1-.09-.27.27.27,0,0,1,.11-.26.9.9,0,0,1,.44-.07h.1v-3.14h-.09a.85.85,0,0,1-.46-.08.29.29,0,0,1-.12-.27.33.33,0,0,1,.09-.25.45.45,0,0,1,.3-.09h.74a.3.3,0,0,1,.22.06.51.51,0,0,1,.06.24,1.18,1.18,0,0,1,.43-.32,1.21,1.21,0,0,1,.52-.1,1,1,0,0,1,.56.15.8.8,0,0,1,.33.44,1.45,1.45,0,0,1,.48-.45,1.31,1.31,0,0,1,.61-.14,1,1,0,0,1,.92.41,2.28,2.28,0,0,1,.29,1.33v2.21h.08a.74.74,0,0,1,.4.07.3.3,0,0,1,.1.26.41.41,0,0,1-.08.27.36.36,0,0,1-.26.09h-.59a.34.34,0,0,1-.29-.12.61.61,0,0,1-.09-.37Z" transform="translate(-20.01)"/><path d="M131.66,127.62a3.11,3.11,0,0,1-.87.55,2.74,2.74,0,0,1-1,.19,1.69,1.69,0,0,1-1.18-.41,1.34,1.34,0,0,1-.44-1,1.37,1.37,0,0,1,.59-1.2,2.84,2.84,0,0,1,1.67-.42,5.44,5.44,0,0,1,.57,0l.59.12v0a1,1,0,0,0-1.1-1.09,2,2,0,0,0-.85.2,2.12,2.12,0,0,1-.62.21.29.29,0,0,1-.24-.12.46.46,0,0,1-.09-.29c0-.2.18-.36.54-.49a3.87,3.87,0,0,1,1.38-.2,1.54,1.54,0,0,1,1.74,1.73v2.21h.23a1,1,0,0,1,.47.07.29.29,0,0,1,.12.26.37.37,0,0,1-.1.27.42.42,0,0,1-.29.09H132a.32.32,0,0,1-.23-.09.45.45,0,0,1-.11-.24Zm0-1.54a3.59,3.59,0,0,0-.52-.13,2.89,2.89,0,0,0-.5,0,2.37,2.37,0,0,0-1.19.25.76.76,0,0,0-.43.68.66.66,0,0,0,.27.55,1.1,1.1,0,0,0,.69.22,2.14,2.14,0,0,0,1.15-.33c.35-.22.53-.44.53-.68Z" transform="translate(-20.01)"/><path d="M134.72,127.55v-3.13h-.09a1,1,0,0,1-.46-.08.29.29,0,0,1-.12-.27.33.33,0,0,1,.1-.27.57.57,0,0,1,.33-.08h.7a.3.3,0,0,1,.2.06.16.16,0,0,1,.08.14v.34a2.49,2.49,0,0,1,.7-.49,1.72,1.72,0,0,1,.73-.16,1.49,1.49,0,0,1,1.16.46,1.79,1.79,0,0,1,.42,1.27v2.21h.23a.55.55,0,0,1,.35.08.27.27,0,0,1,.11.25.35.35,0,0,1-.11.28.82.82,0,0,1-.41.08h-1.08a.66.66,0,0,1-.4-.08.35.35,0,0,1-.09-.28.3.3,0,0,1,.1-.26.73.73,0,0,1,.39-.07h.17v-2a1.29,1.29,0,0,0-.26-.88.93.93,0,0,0-.75-.3,1.31,1.31,0,0,0-.88.34,1.06,1.06,0,0,0-.38.84v2h.17a.73.73,0,0,1,.39.07.3.3,0,0,1,.11.26.35.35,0,0,1-.09.28.75.75,0,0,1-.43.08h-1.15a.41.41,0,0,1-.3-.09.33.33,0,0,1-.1-.27.27.27,0,0,1,.11-.26.94.94,0,0,1,.45-.07Z" transform="translate(-20.01)"/><path d="M141.27,122.65a.33.33,0,0,1,.08-.17.32.32,0,0,1,.17,0h.85a.16.16,0,0,1,.09,0,.1.1,0,0,1,0,.07.08.08,0,0,1,0,0,.25.25,0,0,1,0,.07l-1.07,2.21a.35.35,0,0,1-.07.09.19.19,0,0,1-.1,0h0l0,0-.27-.09-.1-.06a.16.16,0,0,1,0-.08v0s0,0,0-.05Zm1.92,0a.33.33,0,0,1,.08-.17.32.32,0,0,1,.17,0h.85a.11.11,0,0,1,.08,0,.08.08,0,0,1,0,.07s0,0,0,0a.64.64,0,0,0,0,.07l-1.06,2.21a.35.35,0,0,1-.07.09.17.17,0,0,1-.1,0h0l-.05,0-.27-.09-.1-.06a.16.16,0,0,1,0-.08v-.07a0,0,0,0,1,0,0Z" transform="translate(-20.01)"/><path d="M147.54,130a1.61,1.61,0,0,1,.17-.43c.11-.22.19-.4.25-.53a7.9,7.9,0,0,0,.47-1.43,6.55,6.55,0,0,0,.14-1.34,6.23,6.23,0,0,0-.12-1.22,6.69,6.69,0,0,0-.36-1.21c-.09-.22-.2-.47-.34-.76a1.88,1.88,0,0,1-.21-.55.3.3,0,0,1,.05-.16.16.16,0,0,1,.13-.06.58.58,0,0,1,.34.16,3.13,3.13,0,0,1,.43.51,5.49,5.49,0,0,1,.78,1.57,5.78,5.78,0,0,1,.26,1.72,5.48,5.48,0,0,1-.22,1.58,5.73,5.73,0,0,1-.65,1.46,4.46,4.46,0,0,1-.53.7.62.62,0,0,1-.41.22.16.16,0,0,1-.13-.06A.29.29,0,0,1,147.54,130Z" transform="translate(-20.01)"/><path d="M425,127.55v-5H425a1,1,0,0,1-.46-.08.29.29,0,0,1-.12-.27.33.33,0,0,1,.1-.27.42.42,0,0,1,.29-.09h.74a.33.33,0,0,1,.21.06.15.15,0,0,1,.07.14v2.22a2.52,2.52,0,0,1,.71-.49,1.64,1.64,0,0,1,.72-.16,1.49,1.49,0,0,1,1.16.46,1.79,1.79,0,0,1,.42,1.27v2.21H429a.56.56,0,0,1,.36.08.3.3,0,0,1,.11.25.37.37,0,0,1-.1.27.42.42,0,0,1-.29.09h-1.31a.48.48,0,0,1-.31-.08.39.39,0,0,1-.08-.28.32.32,0,0,1,.1-.26.71.71,0,0,1,.38-.07h.18v-2a1.34,1.34,0,0,0-.26-.88,1,1,0,0,0-.76-.3,1.31,1.31,0,0,0-.88.34,1.09,1.09,0,0,0-.38.84v2H426a.74.74,0,0,1,.4.07.3.3,0,0,1,.1.26.39.39,0,0,1-.08.28.46.46,0,0,1-.31.08h-1.3a.42.42,0,0,1-.29-.09.37.37,0,0,1-.09-.27.29.29,0,0,1,.11-.26.94.94,0,0,1,.45-.07Z" transform="translate(-20.01)"/><path d="M434,127.62a2.85,2.85,0,0,1-.87.55,2.66,2.66,0,0,1-1,.19A1.69,1.69,0,0,1,431,128a1.35,1.35,0,0,1-.45-1,1.39,1.39,0,0,1,.59-1.2,2.88,2.88,0,0,1,1.67-.42,5.44,5.44,0,0,1,.57,0c.2,0,.39.07.59.12v0a.94.94,0,0,0-1.1-1.09,2.08,2.08,0,0,0-.85.2,2,2,0,0,1-.62.21.28.28,0,0,1-.23-.12.41.41,0,0,1-.1-.29c0-.2.18-.36.54-.49a3.87,3.87,0,0,1,1.38-.2,1.54,1.54,0,0,1,1.74,1.73v2.21H435a.94.94,0,0,1,.46.07.29.29,0,0,1,.12.26.33.33,0,0,1-.1.27.4.4,0,0,1-.29.09h-.77a.29.29,0,0,1-.22-.09.39.39,0,0,1-.12-.24Zm0-1.54a3.3,3.3,0,0,0-.52-.13,2.74,2.74,0,0,0-.5,0,2.33,2.33,0,0,0-1.18.25.78.78,0,0,0-.44.68.66.66,0,0,0,.27.55,1.1,1.1,0,0,0,.7.22,2.1,2.1,0,0,0,1.14-.33c.36-.22.53-.44.53-.68Z" transform="translate(-20.01)"/><path d="M436.75,127.88V127a.48.48,0,0,1,.08-.31.35.35,0,0,1,.26-.1c.14,0,.24.1.32.28a1.72,1.72,0,0,0,.14.25,1.5,1.5,0,0,0,.61.42,2.3,2.3,0,0,0,.88.16,1.46,1.46,0,0,0,.83-.21.65.65,0,0,0,.32-.55.54.54,0,0,0-.26-.5,1.91,1.91,0,0,0-.86-.14h-.27a2.72,2.72,0,0,1-1.51-.35,1.14,1.14,0,0,1-.53-1,1.15,1.15,0,0,1,.51-1,2.55,2.55,0,0,1,1.44-.35,2.89,2.89,0,0,1,.76.1l.41.11a.45.45,0,0,0,.21-.1.58.58,0,0,1,.3-.09.26.26,0,0,1,.24.12.6.6,0,0,1,.08.36v.58a.62.62,0,0,1-.08.37.26.26,0,0,1-.24.11c-.1,0-.22-.08-.37-.24s-.18-.2-.24-.26a1.69,1.69,0,0,0-.56-.35,2,2,0,0,0-.68-.1,1.23,1.23,0,0,0-.75.2.64.64,0,0,0-.28.52.44.44,0,0,0,.29.43,3.9,3.9,0,0,0,1.24.16,2.72,2.72,0,0,1,1.49.35,1.17,1.17,0,0,1,.47,1,1.26,1.26,0,0,1-.52,1,2.22,2.22,0,0,1-1.4.4,5,5,0,0,1-.62,0c-.23,0-.51-.09-.86-.18a1.93,1.93,0,0,1-.29.17.48.48,0,0,1-.21.06.31.31,0,0,1-.26-.12A.58.58,0,0,1,436.75,127.88Z" transform="translate(-20.01)"/><path d="M443.05,127.55v-5H443a.92.92,0,0,1-.45-.08.28.28,0,0,1-.13-.27.37.37,0,0,1,.1-.27.44.44,0,0,1,.29-.09h.75a.32.32,0,0,1,.2.06.15.15,0,0,1,.07.14v2.22a2.67,2.67,0,0,1,.71-.49,1.64,1.64,0,0,1,.72-.16,1.47,1.47,0,0,1,1.16.46,1.75,1.75,0,0,1,.43,1.27v2.21H447a.55.55,0,0,1,.35.08.3.3,0,0,1,.11.25.33.33,0,0,1-.1.27.4.4,0,0,1-.29.09h-1.3a.44.44,0,0,1-.31-.08c-.06,0-.08-.14-.08-.28a.29.29,0,0,1,.1-.26.66.66,0,0,1,.38-.07h.17v-2a1.34,1.34,0,0,0-.26-.88.93.93,0,0,0-.75-.3,1.34,1.34,0,0,0-.89.34,1.09,1.09,0,0,0-.38.84v2H444a.73.73,0,0,1,.39.07.3.3,0,0,1,.1.26c0,.14,0,.23-.08.28a.46.46,0,0,1-.31.08h-1.3a.39.39,0,0,1-.28-.09.33.33,0,0,1-.1-.27.28.28,0,0,1,.12-.26.87.87,0,0,1,.44-.07Z" transform="translate(-20.01)"/><path d="M451.88,122.49a1.53,1.53,0,0,1-.17.45c-.11.22-.19.4-.25.54a8.39,8.39,0,0,0-.47,1.42,6.45,6.45,0,0,0-.14,1.33,6.28,6.28,0,0,0,.12,1.24,6.84,6.84,0,0,0,.36,1.2q.12.32.33.75a2.54,2.54,0,0,1,.22.54.26.26,0,0,1-.05.17.15.15,0,0,1-.13.06.54.54,0,0,1-.33-.15,2.51,2.51,0,0,1-.43-.52,5.56,5.56,0,0,1-.78-1.56,5.49,5.49,0,0,1-.26-1.73,5.78,5.78,0,0,1,.21-1.57,5.67,5.67,0,0,1,.65-1.45,3.51,3.51,0,0,1,.52-.7.66.66,0,0,1,.42-.24.15.15,0,0,1,.13.06A.3.3,0,0,1,451.88,122.49Z" transform="translate(-20.01)"/><path d="M486.31,126.87c0-.11.06-.18.11-.21a.36.36,0,0,1,.21,0h1.07a.21.21,0,0,1,.12,0,.09.09,0,0,1,0,.08.18.18,0,0,1,0,.06l0,.07-1.34,2.8a.24.24,0,0,1-.09.11.24.24,0,0,1-.13.05h0l-.06,0-.34-.12-.12-.08a.18.18,0,0,1,0-.1v-.08a.43.43,0,0,0,0-.05Z" transform="translate(-20.01)"/><path d="M498.19,124.61a.29.29,0,0,1-.08.17.25.25,0,0,1-.17,0h-.85a.14.14,0,0,1-.09,0,.05.05,0,0,1,0-.06.1.1,0,0,1,0,0,.14.14,0,0,1,0-.06l1.07-2.21.08-.11a.18.18,0,0,1,.09,0h.07s0,0,0,0l.26.11a.21.21,0,0,1,.1.06.13.13,0,0,1,0,.09s0,0,0,0l0,.06Zm1.92,0a.29.29,0,0,1-.08.17.25.25,0,0,1-.17,0H499a.11.11,0,0,1-.08,0,.05.05,0,0,1,0-.06.1.1,0,0,1,0,0l0-.06,1.08-2.21a.35.35,0,0,1,.07-.11l.08,0h.07a0,0,0,0,0,0,0l.28.11a.15.15,0,0,1,.09.06.12.12,0,0,1,0,.09v.1Z" transform="translate(-20.01)"/><path d="M506.88,128a4.43,4.43,0,0,1-.07,1,1.43,1.43,0,0,1-.23.5,1.84,1.84,0,0,1-.77.55,3.43,3.43,0,0,1-1.17.18,2.31,2.31,0,0,1-.81-.1.38.38,0,0,1-.26-.35.36.36,0,0,1,.13-.26.4.4,0,0,1,.29-.12l.41,0a2.61,2.61,0,0,0,.41,0,1.34,1.34,0,0,0,1-.33,1.73,1.73,0,0,0,.3-1.14v-.59a1.81,1.81,0,0,1-.66.5,2,2,0,0,1-.83.17,2.05,2.05,0,0,1-1.51-.61,2.27,2.27,0,0,1,0-3.1,2.07,2.07,0,0,1,1.52-.62,2.11,2.11,0,0,1,.74.14,3,3,0,0,1,.72.43v-.36a.18.18,0,0,1,.07-.15.36.36,0,0,1,.21,0h.73a.45.45,0,0,1,.3.09.34.34,0,0,1,.09.26.29.29,0,0,1-.12.27.92.92,0,0,1-.45.08h-.09Zm-2.12-3.53a1.45,1.45,0,0,0-1.05.39,1.51,1.51,0,0,0,0,2,1.6,1.6,0,0,0,2.09,0,1.39,1.39,0,0,0,.41-1,1.36,1.36,0,0,0-.41-1A1.41,1.41,0,0,0,504.76,124.45Z" transform="translate(-20.01)"/><path d="M513.46,126a2.21,2.21,0,0,1-.72,1.71,2.88,2.88,0,0,1-3.69,0,2.38,2.38,0,0,1,0-3.41,2.91,2.91,0,0,1,3.69,0A2.21,2.21,0,0,1,513.46,126Zm-2.57,1.69a1.69,1.69,0,0,0,1.24-.48,1.75,1.75,0,0,0,0-2.42,1.8,1.8,0,0,0-2.45,0,1.61,1.61,0,0,0-.49,1.21,1.64,1.64,0,0,0,.48,1.22A1.7,1.7,0,0,0,510.89,127.67Z" transform="translate(-20.01)"/><path d="M516.57,122.55h-.83a1.4,1.4,0,0,1-.6-.08.29.29,0,0,1-.12-.27.37.37,0,0,1,.1-.27.45.45,0,0,1,.3-.09H517a.32.32,0,0,1,.2.06.15.15,0,0,1,.07.14v5.51h1.54a.36.36,0,0,1,.27.08.32.32,0,0,1,.08.25c0,.14,0,.23-.08.28a.46.46,0,0,1-.31.08h-3.6a.45.45,0,0,1-.3-.09.37.37,0,0,1-.1-.27.31.31,0,0,1,.11-.25.51.51,0,0,1,.3-.08h1.36Z" transform="translate(-20.01)"/><path d="M524.37,128.24a.18.18,0,0,1-.15-.06.3.3,0,0,1,0-.19v-.4a2.16,2.16,0,0,1-.73.57,2.34,2.34,0,0,1-1,.2,2,2,0,0,1-1.55-.66,2.36,2.36,0,0,1,1.7-4,2.19,2.19,0,0,1,.9.18,1.88,1.88,0,0,1,.69.53v-1.87H524a1.25,1.25,0,0,1-.55-.08.29.29,0,0,1-.12-.27.33.33,0,0,1,.1-.27.4.4,0,0,1,.29-.09h1a.38.38,0,0,1,.21,0,.21.21,0,0,1,.07.15v5.51h.22a.53.53,0,0,1,.34.08.3.3,0,0,1,.11.25.34.34,0,0,1-.09.26.33.33,0,0,1-.25.1Zm-3.2-2.2a1.5,1.5,0,0,0,.43,1.11,1.54,1.54,0,0,0,1.11.43,1.47,1.47,0,0,0,1.1-.45,1.58,1.58,0,0,0,.44-1.14,1.54,1.54,0,0,0-.43-1.11,1.63,1.63,0,0,0-2.23,0A1.62,1.62,0,0,0,521.17,126Z" transform="translate(-20.01)"/><path d="M530.71,125.52a2.16,2.16,0,0,0-.13-.93.42.42,0,0,0-.42-.25.66.66,0,0,0-.57.32,1.52,1.52,0,0,0-.21.86v2h.08a.74.74,0,0,1,.4.07.32.32,0,0,1,.1.26.37.37,0,0,1-.09.27.32.32,0,0,1-.25.09H529a.37.37,0,0,1-.29-.1.81.81,0,0,1-.07-.42v-2.58a.91.91,0,0,0-.17-.58.55.55,0,0,0-.45-.22.76.76,0,0,0-.41.13,1.14,1.14,0,0,0-.31.39v2.69h.18a.73.73,0,0,1,.39.07.3.3,0,0,1,.1.26c0,.14,0,.23-.08.28a.49.49,0,0,1-.32.08h-1.29a.38.38,0,0,1-.28-.09.37.37,0,0,1-.09-.27.29.29,0,0,1,.11-.26.92.92,0,0,1,.44-.07h.1v-3.14h-.09a.85.85,0,0,1-.46-.08.29.29,0,0,1-.12-.27.3.3,0,0,1,.1-.25.4.4,0,0,1,.29-.09H527a.29.29,0,0,1,.21.06.51.51,0,0,1,.06.24,1.27,1.27,0,0,1,.43-.32,1.24,1.24,0,0,1,.52-.1,1,1,0,0,1,.56.15.8.8,0,0,1,.33.44,1.45,1.45,0,0,1,.48-.45,1.34,1.34,0,0,1,.61-.14,1,1,0,0,1,.92.41,2.27,2.27,0,0,1,.3,1.33v2.21h.07a.72.72,0,0,1,.4.07.3.3,0,0,1,.11.26.37.37,0,0,1-.09.27.36.36,0,0,1-.26.09h-.59a.34.34,0,0,1-.29-.12.61.61,0,0,1-.09-.37Z" transform="translate(-20.01)"/><path d="M536,127.62a3.11,3.11,0,0,1-.87.55,2.74,2.74,0,0,1-1,.19A1.69,1.69,0,0,1,533,128a1.37,1.37,0,0,1-.44-1,1.39,1.39,0,0,1,.59-1.2,2.86,2.86,0,0,1,1.67-.42,5.44,5.44,0,0,1,.57,0l.59.12v0a1,1,0,0,0-1.1-1.09,2,2,0,0,0-.85.2,2,2,0,0,1-.62.21.3.3,0,0,1-.24-.12.46.46,0,0,1-.09-.29c0-.2.18-.36.54-.49a3.87,3.87,0,0,1,1.38-.2,1.77,1.77,0,0,1,1.3.43,1.79,1.79,0,0,1,.44,1.3v2.21H537a1,1,0,0,1,.46.07.29.29,0,0,1,.12.26.33.33,0,0,1-.1.27.4.4,0,0,1-.29.09h-.77a.29.29,0,0,1-.22-.09.39.39,0,0,1-.12-.24Zm0-1.54a3.59,3.59,0,0,0-.52-.13,2.81,2.81,0,0,0-.5,0,2.37,2.37,0,0,0-1.19.25.76.76,0,0,0-.43.68.66.66,0,0,0,.27.55,1.1,1.1,0,0,0,.69.22,2.14,2.14,0,0,0,1.15-.33c.35-.22.53-.44.53-.68Z" transform="translate(-20.01)"/><path d="M539.08,127.55v-3.13H539a1,1,0,0,1-.46-.08.29.29,0,0,1-.12-.27.33.33,0,0,1,.1-.27.57.57,0,0,1,.33-.08h.7a.33.33,0,0,1,.21.06.17.17,0,0,1,.07.14v.34a2.63,2.63,0,0,1,.7-.49,1.72,1.72,0,0,1,.73-.16,1.49,1.49,0,0,1,1.16.46,1.79,1.79,0,0,1,.42,1.27v2.21h.23a.58.58,0,0,1,.36.08.3.3,0,0,1,.11.25.32.32,0,0,1-.12.28.79.79,0,0,1-.41.08h-1.08a.68.68,0,0,1-.4-.08.35.35,0,0,1-.09-.28.3.3,0,0,1,.1-.26.73.73,0,0,1,.39-.07h.17v-2a1.29,1.29,0,0,0-.26-.88.93.93,0,0,0-.75-.3,1.33,1.33,0,0,0-.88.34,1.09,1.09,0,0,0-.38.84v2H540a.74.74,0,0,1,.4.07.33.33,0,0,1,.1.26.35.35,0,0,1-.09.28.75.75,0,0,1-.43.08h-1.15a.41.41,0,0,1-.3-.09.33.33,0,0,1-.1-.27.29.29,0,0,1,.11-.26.94.94,0,0,1,.45-.07Z" transform="translate(-20.01)"/><path d="M545.63,122.65a.33.33,0,0,1,.08-.17.35.35,0,0,1,.17,0h.85a.14.14,0,0,1,.09,0,.08.08,0,0,1,0,.11.25.25,0,0,1,0,.07l-1.07,2.21a.22.22,0,0,1-.07.09.17.17,0,0,1-.1,0h0l0,0-.27-.09-.09-.06a.12.12,0,0,1,0-.08.09.09,0,0,1,0,0,.07.07,0,0,1,0-.05Zm1.92,0a.44.44,0,0,1,.08-.17.35.35,0,0,1,.17,0h.85a.16.16,0,0,1,.09,0,.09.09,0,0,1,0,.07.08.08,0,0,1,0,0,.25.25,0,0,1,0,.07l-1.06,2.21a.22.22,0,0,1-.07.09.17.17,0,0,1-.1,0h0l-.06,0-.27-.09-.09-.06a.12.12,0,0,1,0-.08v-.07a0,0,0,0,0,0,0Z" transform="translate(-20.01)"/><path d="M551.9,130a1.61,1.61,0,0,1,.17-.43c.11-.22.2-.4.25-.53a7.9,7.9,0,0,0,.47-1.43,5.92,5.92,0,0,0,.14-1.34,6.23,6.23,0,0,0-.12-1.22,6,6,0,0,0-.36-1.21c-.08-.22-.2-.47-.34-.76a1.88,1.88,0,0,1-.21-.55.3.3,0,0,1,.05-.16.18.18,0,0,1,.13-.06.56.56,0,0,1,.34.16,2.69,2.69,0,0,1,.43.51,5.49,5.49,0,0,1,.78,1.57,5.78,5.78,0,0,1,.26,1.72,5.48,5.48,0,0,1-.22,1.58,5.73,5.73,0,0,1-.65,1.46,4.46,4.46,0,0,1-.53.7.62.62,0,0,1-.41.22.18.18,0,0,1-.13-.06A.29.29,0,0,1,551.9,130Z" transform="translate(-20.01)"/><line class="cls-2" x1="80.56" y1="79.66" x2="215.59" y2="79.66"/><path d="M96.34,79.66a21.26,21.26,0,0,1,6,3.33l-1.2-3.33,1.2-3.33A20.78,20.78,0,0,1,96.34,79.66Z" transform="translate(-20.01)"/><path d="M239.83,79.66a21.32,21.32,0,0,0-6,3.33l1.21-3.33-1.21-3.33A20.83,20.83,0,0,0,239.83,79.66Z" transform="translate(-20.01)"/><line class="cls-2" x1="319.78" y1="79.66" x2="454.81" y2="79.66"/><path d="M335.57,79.66a21.4,21.4,0,0,1,6,3.33l-1.2-3.33,1.2-3.33A20.91,20.91,0,0,1,335.57,79.66Z" transform="translate(-20.01)"/><path d="M479,79.66a21.12,21.12,0,0,0-6,3.33l1.2-3.33-1.2-3.33A20.64,20.64,0,0,0,479,79.66Z" transform="translate(-20.01)"/><path d="M100.7,73.18c-.53,0-1,0-1.42,0,0,0,0-.15,0-.15.88,0,1-.13,1-.83V66.68c0-.68-.14-.83-1-.83,0,0,0-.14,0-.14.4,0,.88,0,1.41,0s1.2-.06,1.63-.06c2.55,0,4.23,1.58,4.23,3.64a3.87,3.87,0,0,1-4.06,3.92C102,73.25,101.27,73.18,100.7,73.18Zm5-3.58c0-2.09-1.25-3.73-3.21-3.73-1,0-1.35.1-1.35.84V72.1c0,.67.23,1,1.29,1A3.13,3.13,0,0,0,105.65,69.6Z" transform="translate(-20.01)"/><path d="M107.79,73.06c.62,0,.77-.14.77-.83V70c0-.56-.1-.81-.4-.81a1.2,1.2,0,0,0-.54.16c-.07,0-.12-.1-.07-.14l1.56-.72h0a.12.12,0,0,1,.09.09c0,.14,0,.65,0,1.42v2.25c0,.69.12.83.75.83,0,0,0,.15,0,.15-.28,0-.67,0-1.09,0s-.8,0-1.1,0C107.75,73.21,107.75,73.06,107.79,73.06Zm.48-6.5a.47.47,0,0,1,.53-.5.51.51,0,0,1,0,1A.47.47,0,0,1,108.27,66.56Z" transform="translate(-20.01)"/><path d="M115.86,67.94v.77c.51,0,1-.06,1.54-.12,0,0,.08.14.08.29s-.08.33-.12.31a6.16,6.16,0,0,0-1.5-.27v3.31c0,.7.15.83,1.18.83,0,0,0,.15,0,.15-.53,0-1,0-1.54,0s-.84,0-1.15,0c0,0,0-.15,0-.15.68,0,.83-.13.83-.83V69.54c0-.56,0-.56-1-.58-.4,0-1,0-1.86,0v3.29c0,.7.15.83,1.18.83,0,0,0,.15,0,.15-.53,0-1,0-1.54,0s-.84,0-1.15,0c0,0,0-.15,0-.15.69,0,.83-.13.83-.83V69.54c0-.59-.11-.65-.87-.65,0,0,0-.16,0-.16.65,0,.83-.13.85-.54.1-2.18,1.16-3.27,2.82-3.27a3.49,3.49,0,0,1,1.6.37,2.51,2.51,0,0,1,2-.79c.91,0,1.51.43,1.51.9a.33.33,0,0,1-.36.37c-.62,0-.41-1.07-1.55-1.07S115.86,65.67,115.86,67.94Zm-.23-2a2.14,2.14,0,0,0-1.59-.79c-1,0-1.72.94-1.72,2.82v.77h2c.49,0,.72-.06.82-.24a.73.73,0,0,0,0-.27A6,6,0,0,1,115.63,65.91Zm4.72,7.3c-.29,0-.67,0-1.09,0s-.81,0-1.09,0c0,0,0-.15,0-.15.62,0,.75-.14.75-.83V70c0-.84-.22-1-.94-.65-.07,0-.13-.1,0-.14l1.55-.73c.08,0,.14,0,.14.09s0,.65,0,1.42v2.25c0,.69.13.83.76.83C120.4,73.06,120.4,73.21,120.35,73.21Z" transform="translate(-20.01)"/><path d="M125.16,72.65a2.54,2.54,0,0,1-1.75.7,2.16,2.16,0,0,1-2.19-2.3,2.53,2.53,0,0,1,2.53-2.58,1.25,1.25,0,0,1,1.39,1.37c0,.21,0,.31-.13.31h-3c0,.13,0,.28,0,.43,0,1.36.66,2.34,1.87,2.34a2,2,0,0,0,1.2-.4S125.2,72.61,125.16,72.65ZM122.06,70l2.27,0c0-.83-.38-1.25-1-1.25S122.2,69.19,122.06,70Z" transform="translate(-20.01)"/><path d="M126,70.72l3.13-.56c.07,0,.07.49,0,.5l-3.11.57C126,71.24,126,70.74,126,70.72Z" transform="translate(-20.01)"/><path d="M138.22,73.21c-.38,0-.89,0-1.42,0s-1.07,0-1.45,0c0,0,0-.15,0-.15.91,0,1.06-.13,1.06-.83v-2.8H131.8v2.8c0,.7.14.83,1.06.83,0,0,0,.15,0,.15-.4,0-.87,0-1.46,0s-1,0-1.42,0c0,0,0-.15,0-.15.88,0,1.05-.13,1.05-.83V66.68c0-.68-.15-.83-1-.83,0,0,0-.14,0-.14.39,0,.89,0,1.41,0s1.07,0,1.46,0c0,0,0,.14,0,.14-.9,0-1.06.17-1.06.86v2.47h4.61V66.71c0-.69-.15-.86-1.06-.86,0,0,0-.14,0-.14.38,0,.85,0,1.45,0s1,0,1.42,0c0,0,0,.14,0,.14-.89,0-1.05.15-1.05.83v5.55c0,.7.16.83,1.05.83C138.26,73.06,138.26,73.21,138.22,73.21Z" transform="translate(-20.01)"/><path d="M143,72.65a2.54,2.54,0,0,1-1.75.7,2.16,2.16,0,0,1-2.19-2.3,2.53,2.53,0,0,1,2.53-2.58A1.25,1.25,0,0,1,143,69.84c0,.21,0,.31-.13.31h-3c0,.13,0,.28,0,.43,0,1.36.66,2.34,1.87,2.34a2,2,0,0,0,1.2-.4S143.08,72.61,143,72.65ZM139.94,70l2.27,0c0-.83-.38-1.25-1-1.25S140.08,69.19,139.94,70Z" transform="translate(-20.01)"/><path d="M144,73.06c.62,0,.76-.14.76-.83V66c0-.56-.1-.81-.39-.81a1.49,1.49,0,0,0-.55.17c-.06,0-.12-.11-.06-.14l1.54-.73h.06s.1,0,.1.1v7.62c0,.66.11.83.75.83,0,0,0,.15,0,.15-.28,0-.67,0-1.11,0s-.81,0-1.1,0C144,73.21,144,73.06,144,73.06Z" transform="translate(-20.01)"/><path d="M147.14,73.06c.62,0,.75-.14.75-.83V66c0-.56-.09-.81-.38-.81a1.49,1.49,0,0,0-.55.17c-.06,0-.12-.11-.06-.14l1.53-.73h.06s.11,0,.11.1v7.62c0,.66.11.83.74.83,0,0,0,.15,0,.15-.27,0-.67,0-1.1,0s-.82,0-1.1,0C147.09,73.21,147.09,73.06,147.14,73.06Z" transform="translate(-20.01)"/><path d="M158.65,73.21c-.29,0-.67,0-1.09,0s-.8,0-1.09,0c-.05,0-.05-.15,0-.15.62,0,.75-.14.75-.83v-1.9c0-1-.32-1.39-1-1.39a2,2,0,0,0-1.4.75,1.15,1.15,0,0,1,0,.19v2.35c0,.69.12.83.76.83.05,0,.05.15,0,.15-.29,0-.67,0-1.09,0s-.82,0-1.1,0c0,0,0-.15,0-.15.63,0,.75-.14.75-.83v-1.9c0-1-.33-1.39-1-1.39a1.9,1.9,0,0,0-1.38.73v2.56c0,.69.12.83.74.83,0,0,0,.15,0,.15-.27,0-.67,0-1.08,0s-.81,0-1.09,0c0,0,0-.15,0-.15.63,0,.75-.14.75-.83V69.86c0-.53-.11-.77-.42-.77a2,2,0,0,0-.65.18c-.07,0-.13-.09-.06-.13l1.39-.66h.07c.12,0,.35.35.35,1h0a2.29,2.29,0,0,1,1.76-1,1.18,1.18,0,0,1,1.3,1.05,2.33,2.33,0,0,1,1.81-1.05c.83,0,1.32.46,1.32,1.45v2.32c0,.69.11.83.74.83C158.71,73.06,158.71,73.21,158.65,73.21Z" transform="translate(-20.01)"/><path d="M163.91,72.69l-1.24.59a.17.17,0,0,1-.09,0c-.19,0-.39-.27-.43-.78l-.63.41a1.73,1.73,0,0,1-1,.36.83.83,0,0,1-.94-.83c0-.48.36-.8,1.23-1.13l1.32-.49V70c0-1-.3-1.35-.75-1.35a1,1,0,0,0-.9.89c0,.23-.12.49-.46.49a.35.35,0,0,1-.39-.36c0-.6,1.38-1.24,2.18-1.24s1,.44,1,1.21v2.24c0,.55.13.8.46.8a1.49,1.49,0,0,0,.59-.15C163.93,72.53,164,72.65,163.91,72.69Zm-1.78-.34V71l-1.11.43c-.44.18-.64.41-.64.72a.66.66,0,0,0,.68.69,1.08,1.08,0,0,0,.57-.2Z" transform="translate(-20.01)"/><path d="M169.87,73.21c-.27,0-.67,0-1.08,0s-.81,0-1.09,0c0,0,0-.15,0-.15.63,0,.75-.14.75-.83V70.29c0-1-.35-1.38-1.11-1.38a2,2,0,0,0-1.44.75v2.57c0,.69.12.83.75.83,0,0,0,.15,0,.15-.28,0-.67,0-1.08,0s-.82,0-1.09,0c0,0,0-.15,0-.15.62,0,.74-.14.74-.83V69.86c0-.53-.11-.77-.42-.77a2,2,0,0,0-.65.18c-.07,0-.13-.09-.06-.13l1.39-.66h.08c.12,0,.34.35.34,1a2.44,2.44,0,0,1,1.84-1,1.28,1.28,0,0,1,1.39,1.46v2.35c0,.69.12.83.74.83C169.92,73.06,169.92,73.21,169.87,73.21Z" transform="translate(-20.01)"/><path d="M180.64,73.21h-1.35c-.84,0-.38.15-1.88-1.74l-1.84-2.32-.39.39v2.69c0,.7.14.83,1,.83.05,0,.05.15,0,.15-.39,0-.85,0-1.42,0s-1,0-1.41,0c0,0,0-.15,0-.15.87,0,1-.13,1-.83V66.68c0-.68-.14-.83-1-.83,0,0,0-.14,0-.14.4,0,.88,0,1.4,0s1.05,0,1.42,0c.05,0,.05.14,0,.14-.87,0-1,.17-1,.86v2.53l2.57-2.56c.6-.61.52-.83-.32-.83,0,0,0-.14,0-.14.4,0,.74,0,1.4,0s.93,0,1.27,0c0,0,0,.14,0,.14a3,3,0,0,0-2.08.9l-1.89,1.86,1.72,2.21c1.81,2.35,2,2.24,2.79,2.24C180.68,73.06,180.68,73.21,180.64,73.21Z" transform="translate(-20.01)"/><path d="M184.8,72.65a2.54,2.54,0,0,1-1.75.7,2.16,2.16,0,0,1-2.19-2.3,2.53,2.53,0,0,1,2.53-2.58,1.25,1.25,0,0,1,1.39,1.37c0,.21,0,.31-.13.31h-3c0,.13,0,.28,0,.43,0,1.36.66,2.34,1.87,2.34a2,2,0,0,0,1.2-.4S184.84,72.61,184.8,72.65ZM181.7,70,184,70c0-.83-.38-1.25-1-1.25S181.84,69.19,181.7,70Z" transform="translate(-20.01)"/><path d="M190.49,68.72c-.4,0-.67.25-.92.92l-1.47,3.9c-.87,2.32-1.54,3-2.59,3-.33,0-.61-.15-.61-.47a.35.35,0,0,1,.37-.36c.46,0,.52.29.91.29.57,0,1-.66,1.79-2.74l-1.82-3.73c-.36-.69-.49-.85-.79-.85,0,0,0-.14,0-.14l.8,0,1.24,0s0,.14,0,.14c-.52,0-.83.1-.64.47l1.58,3.25,1-2.76c.24-.72,0-1-.83-1,0,0,0-.14,0-.14l1.22,0,.8,0S190.54,68.72,190.49,68.72Z" transform="translate(-20.01)"/><path d="M199.19,71.44a12.81,12.81,0,0,0-.11,1.59c0,.13-.05.18-.19.18h-5s0-.15,0-.15c.88,0,1-.13,1-.83V66.68c0-.68-.16-.83-1-.83,0,0,0-.14,0-.14h4.83c.08,0,.1,0,.1.11l0,1.47s-.12.06-.13,0A1.28,1.28,0,0,0,197.38,66h-.73c-.81,0-1,.15-1,.78v2.44h1.47c.77,0,1.07-.24,1.07-.84,0,0,.14,0,.14,0,0,.48,0,.67,0,1s0,.69,0,1.1c0,0-.14,0-.14,0,0-.69-.31-1-1.12-1h-1.43v2.76c0,.63.16.76.94.76h1c.77,0,1.31-.58,1.47-1.53C199.06,71.37,199.19,71.4,199.19,71.44Z" transform="translate(-20.01)"/><path d="M204.91,73.21l-.76,0c-.54,0-.92,0-1.25,0-.05,0-.05-.15,0-.15.47,0,.49-.09.25-.47l-.91-1.38-.72,1c-.36.52-.4.81.44.81,0,0,0,.15,0,.15-.37,0-.66,0-1.2,0-.34,0-.5,0-.81,0,0,0,0-.15,0-.15a1.86,1.86,0,0,0,1.35-.89l.82-1.13-1-1.47a1.6,1.6,0,0,0-1.17-.85s0-.14,0-.14l.75,0,1.23,0s0,.14,0,.14c-.44,0-.49.1-.24.47l.83,1.25.61-.9c.39-.57.4-.82-.44-.82,0,0,0-.14,0-.14l1.21,0,.82,0s0,.14,0,.14a1.81,1.81,0,0,0-1.36.89l-.73,1,1.07,1.61a1.56,1.56,0,0,0,1.18.85S205,73.21,204.91,73.21Z" transform="translate(-20.01)"/><path d="M205.49,71a2.56,2.56,0,0,1,2.62-2.52c.67,0,1.4.3,1.4.73a.39.39,0,0,1-.42.38.62.62,0,0,1-.53-.39.86.86,0,0,0-.85-.48c-.91,0-1.43.78-1.43,1.92s.59,2.3,2,2.3a1.88,1.88,0,0,0,1.22-.4s.12.06.08.1a2.5,2.5,0,0,1-1.77.72A2.24,2.24,0,0,1,205.49,71Z" transform="translate(-20.01)"/><path d="M215.71,73.21c-.29,0-.67,0-1.09,0s-.8,0-1.09,0c-.05,0-.05-.15,0-.15.62,0,.76-.14.76-.83v-1.9c0-1-.36-1.39-1.11-1.39a2,2,0,0,0-1.45.74v2.55c0,.69.13.83.76.83,0,0,0,.15,0,.15-.29,0-.68,0-1.09,0s-.81,0-1.1,0c0,0,0-.15,0-.15.63,0,.76-.14.76-.83V66c0-.56-.1-.81-.38-.81a1.47,1.47,0,0,0-.56.17c-.06,0-.13-.11-.06-.14l1.53-.74h0a.11.11,0,0,1,.11.1v4.87a2.42,2.42,0,0,1,1.85-1A1.28,1.28,0,0,1,215,69.91v2.32c0,.69.13.83.75.83C215.76,73.06,215.76,73.21,215.71,73.21Z" transform="translate(-20.01)"/><path d="M221,72.69l-1.23.59-.1,0c-.19,0-.38-.27-.43-.78l-.63.41a1.73,1.73,0,0,1-1,.36.84.84,0,0,1-.94-.83c0-.48.36-.8,1.24-1.13l1.32-.49V70c0-1-.3-1.35-.76-1.35a1,1,0,0,0-.9.89c0,.23-.12.49-.46.49a.35.35,0,0,1-.39-.36c0-.6,1.38-1.24,2.18-1.24s1,.44,1,1.21v2.24c0,.55.13.8.47.8a1.49,1.49,0,0,0,.58-.15C221,72.53,221.05,72.65,221,72.69Zm-1.77-.34V71l-1.12.43c-.44.18-.64.41-.64.72a.66.66,0,0,0,.68.69,1.08,1.08,0,0,0,.57-.2Z" transform="translate(-20.01)"/><path d="M226.94,73.21c-.27,0-.67,0-1.08,0s-.81,0-1.09,0c0,0,0-.15,0-.15.63,0,.75-.14.75-.83V70.29c0-1-.35-1.38-1.11-1.38a2,2,0,0,0-1.44.75v2.57c0,.69.12.83.75.83.05,0,.05.15,0,.15-.28,0-.67,0-1.08,0s-.82,0-1.09,0c-.05,0-.05-.15,0-.15.62,0,.74-.14.74-.83V69.86c0-.53-.11-.77-.42-.77a2,2,0,0,0-.65.18c-.07,0-.13-.09-.06-.13l1.39-.66h.08c.12,0,.34.35.34,1a2.44,2.44,0,0,1,1.84-1,1.28,1.28,0,0,1,1.39,1.46v2.35c0,.69.12.83.74.83C227,73.06,227,73.21,226.94,73.21Z" transform="translate(-20.01)"/><path d="M232.34,74.14c0,1.33-1.43,2.42-3,2.42-1.13,0-1.77-.56-1.77-1.31s.43-1.19,1.23-1.76c-.56-.07-.93-.27-.93-.8s.31-.85.86-1.28a1.51,1.51,0,0,1-.86-1.36c0-.89.76-1.56,1.9-1.56a2,2,0,0,1,1.25.37,2.4,2.4,0,0,1,1.28-.38s.06.14.06.26,0,.45-.11.41a2.1,2.1,0,0,0-.8-.18,1.29,1.29,0,0,0-.29,0,1.5,1.5,0,0,1,.41,1,1.71,1.71,0,0,1-1.88,1.58,2.36,2.36,0,0,1-.78-.13.94.94,0,0,0-.45.78c0,.51.45.66,1.74.66C231,72.93,232.34,72.88,232.34,74.14Zm-.59.46c0-1-.8-1-1.92-1l-.72,0a1.47,1.47,0,0,0-.82,1.32c0,.83.56,1.35,1.57,1.35A1.67,1.67,0,0,0,231.75,74.6Zm-3.11-4.84c0,1.13.68,1.67,1.31,1.67s.9-.32.9-1.14c0-1-.6-1.62-1.34-1.62C229,68.67,228.64,69,228.64,69.76Z" transform="translate(-20.01)"/><path d="M236.78,72.65a2.52,2.52,0,0,1-1.75.7,2.16,2.16,0,0,1-2.19-2.3,2.54,2.54,0,0,1,2.53-2.58,1.25,1.25,0,0,1,1.39,1.37c0,.21,0,.31-.13.31h-3c0,.13,0,.28,0,.43,0,1.36.66,2.34,1.87,2.34a2,2,0,0,0,1.2-.4S236.82,72.61,236.78,72.65ZM233.68,70,236,70c0-.83-.39-1.25-1-1.25S233.82,69.19,233.68,70Z" transform="translate(-20.01)"/><path d="M339.92,73.18c-.53,0-1,0-1.42,0,0,0,0-.15,0-.15.88,0,1-.13,1-.83V66.68c0-.68-.14-.83-1-.83,0,0,0-.14,0-.14.4,0,.88,0,1.41,0s1.2-.06,1.63-.06c2.55,0,4.23,1.58,4.23,3.64a3.87,3.87,0,0,1-4.06,3.92C341.26,73.25,340.49,73.18,339.92,73.18Zm4.95-3.58c0-2.09-1.25-3.73-3.21-3.73-1,0-1.35.1-1.35.84V72.1c0,.67.23,1,1.29,1A3.13,3.13,0,0,0,344.87,69.6Z" transform="translate(-20.01)"/><path d="M347,73.06c.62,0,.77-.14.77-.83V70c0-.56-.1-.81-.4-.81a1.2,1.2,0,0,0-.54.16c-.07,0-.12-.1-.07-.14l1.56-.72h.05a.12.12,0,0,1,.09.09c0,.14,0,.65,0,1.42v2.25c0,.69.12.83.75.83.05,0,.05.15,0,.15-.28,0-.67,0-1.09,0s-.8,0-1.1,0C347,73.21,347,73.06,347,73.06Zm.48-6.5a.47.47,0,0,1,.53-.5.51.51,0,0,1,0,1A.47.47,0,0,1,347.49,66.56Z" transform="translate(-20.01)"/><path d="M355.08,67.94v.77c.51,0,1-.06,1.54-.12.05,0,.08.14.08.29s-.08.33-.12.31a6.16,6.16,0,0,0-1.5-.27v3.31c0,.7.15.83,1.18.83.05,0,.05.15,0,.15-.53,0-1,0-1.54,0s-.84,0-1.15,0c-.05,0-.05-.15,0-.15.68,0,.83-.13.83-.83V69.54c0-.56,0-.56-1-.58-.4,0-1,0-1.86,0v3.29c0,.7.15.83,1.18.83,0,0,0,.15,0,.15-.53,0-1,0-1.54,0s-.83,0-1.15,0c0,0,0-.15,0-.15.69,0,.83-.13.83-.83V69.54c0-.59-.11-.65-.87-.65-.05,0-.05-.16,0-.16.66,0,.84-.13.85-.54.11-2.18,1.16-3.27,2.82-3.27a3.49,3.49,0,0,1,1.6.37,2.51,2.51,0,0,1,2-.79c.91,0,1.51.43,1.51.9a.33.33,0,0,1-.36.37c-.62,0-.41-1.07-1.55-1.07S355.08,65.67,355.08,67.94Zm-.23-2a2.14,2.14,0,0,0-1.59-.79c-1,0-1.72.94-1.72,2.82v.77h2c.49,0,.72-.06.82-.24a.72.72,0,0,0,.05-.27A5.79,5.79,0,0,1,354.85,65.91Zm4.72,7.3c-.29,0-.67,0-1.09,0s-.81,0-1.09,0c-.05,0-.05-.15,0-.15.62,0,.75-.14.75-.83V70c0-.84-.22-1-.93-.65a.08.08,0,0,1-.06-.14l1.56-.73c.07,0,.13,0,.13.09s0,.65,0,1.42v2.25c0,.69.13.83.76.83C359.62,73.06,359.62,73.21,359.57,73.21Z" transform="translate(-20.01)"/><path d="M364.38,72.65a2.54,2.54,0,0,1-1.75.7,2.16,2.16,0,0,1-2.19-2.3A2.53,2.53,0,0,1,363,68.47a1.25,1.25,0,0,1,1.39,1.37c0,.21,0,.31-.13.31h-3c0,.13,0,.28,0,.43,0,1.36.66,2.34,1.87,2.34a2,2,0,0,0,1.2-.4S364.42,72.61,364.38,72.65ZM361.28,70l2.28,0c0-.83-.39-1.25-1-1.25S361.42,69.19,361.28,70Z" transform="translate(-20.01)"/><path d="M365.26,70.72l3.13-.56c.07,0,.07.49,0,.5l-3.1.57C365.21,71.24,365.21,70.74,365.26,70.72Z" transform="translate(-20.01)"/><path d="M377.44,73.21c-.37,0-.89,0-1.42,0s-1.07,0-1.45,0c-.05,0-.05-.15,0-.15.91,0,1.06-.13,1.06-.83v-2.8H371v2.8c0,.7.14.83,1.06.83,0,0,0,.15,0,.15-.4,0-.87,0-1.46,0s-1,0-1.42,0c0,0,0-.15,0-.15.88,0,1.05-.13,1.05-.83V66.68c0-.68-.15-.83-1-.83,0,0,0-.14,0-.14.4,0,.89,0,1.41,0s1.07,0,1.46,0c0,0,0,.14,0,.14-.9,0-1.06.17-1.06.86v2.47h4.61V66.71c0-.69-.15-.86-1.06-.86-.05,0-.05-.14,0-.14.38,0,.85,0,1.45,0s1.05,0,1.42,0c0,0,0,.14,0,.14-.89,0-1.05.15-1.05.83v5.55c0,.7.16.83,1.05.83C377.48,73.06,377.48,73.21,377.44,73.21Z" transform="translate(-20.01)"/><path d="M382.26,72.65a2.54,2.54,0,0,1-1.75.7,2.16,2.16,0,0,1-2.19-2.3,2.53,2.53,0,0,1,2.53-2.58,1.25,1.25,0,0,1,1.39,1.37c0,.21,0,.31-.13.31h-3c0,.13,0,.28,0,.43,0,1.36.66,2.34,1.87,2.34a2,2,0,0,0,1.2-.4S382.3,72.61,382.26,72.65ZM379.16,70l2.28,0c0-.83-.39-1.25-1-1.25S379.3,69.19,379.16,70Z" transform="translate(-20.01)"/><path d="M383.26,73.06c.62,0,.76-.14.76-.83V66c0-.56-.1-.81-.39-.81a1.49,1.49,0,0,0-.55.17c-.06,0-.12-.11-.06-.14l1.54-.73h.06s.1,0,.1.1v7.62c0,.66.11.83.75.83,0,0,0,.15,0,.15-.28,0-.67,0-1.11,0s-.81,0-1.1,0C383.21,73.21,383.21,73.06,383.26,73.06Z" transform="translate(-20.01)"/><path d="M386.36,73.06c.62,0,.75-.14.75-.83V66c0-.56-.09-.81-.38-.81a1.49,1.49,0,0,0-.55.17c-.06,0-.12-.11-.06-.14l1.53-.73h.06s.11,0,.11.1v7.62c0,.66.11.83.74.83.05,0,.05.15,0,.15-.27,0-.67,0-1.1,0s-.82,0-1.1,0C386.31,73.21,386.31,73.06,386.36,73.06Z" transform="translate(-20.01)"/><path d="M397.87,73.21c-.29,0-.67,0-1.09,0s-.8,0-1.09,0c-.05,0-.05-.15,0-.15.62,0,.75-.14.75-.83v-1.9c0-1-.32-1.39-1-1.39a2,2,0,0,0-1.4.75,1.15,1.15,0,0,1,0,.19v2.35c0,.69.12.83.76.83.05,0,.05.15,0,.15-.29,0-.67,0-1.09,0s-.82,0-1.1,0c0,0,0-.15,0-.15.63,0,.75-.14.75-.83v-1.9c0-1-.33-1.39-1-1.39a1.9,1.9,0,0,0-1.38.73v2.56c0,.69.12.83.74.83.05,0,.05.15,0,.15-.27,0-.67,0-1.08,0s-.81,0-1.09,0c-.05,0-.05-.15,0-.15.63,0,.75-.14.75-.83V69.86c0-.53-.11-.77-.42-.77a2,2,0,0,0-.65.18c-.07,0-.13-.09-.06-.13l1.39-.66h.07c.12,0,.35.35.35,1h0a2.29,2.29,0,0,1,1.76-1,1.18,1.18,0,0,1,1.3,1.05,2.33,2.33,0,0,1,1.81-1.05c.83,0,1.32.46,1.32,1.45v2.32c0,.69.11.83.74.83C397.93,73.06,397.93,73.21,397.87,73.21Z" transform="translate(-20.01)"/><path d="M403.13,72.69l-1.24.59a.17.17,0,0,1-.09,0c-.19,0-.38-.27-.43-.78l-.63.41a1.73,1.73,0,0,1-1,.36.83.83,0,0,1-.94-.83c0-.48.36-.8,1.24-1.13l1.31-.49V70c0-1-.3-1.35-.75-1.35a1,1,0,0,0-.9.89c0,.23-.12.49-.46.49a.35.35,0,0,1-.39-.36c0-.6,1.38-1.24,2.18-1.24s1,.44,1,1.21v2.24c0,.55.13.8.46.8a1.49,1.49,0,0,0,.59-.15C403.15,72.53,403.2,72.65,403.13,72.69Zm-1.78-.34V71l-1.11.43c-.44.18-.64.41-.64.72a.66.66,0,0,0,.68.69,1.08,1.08,0,0,0,.57-.2Z" transform="translate(-20.01)"/><path d="M409.09,73.21c-.27,0-.67,0-1.08,0s-.81,0-1.09,0c0,0,0-.15,0-.15.63,0,.75-.14.75-.83V70.29c0-1-.35-1.38-1.11-1.38a2,2,0,0,0-1.44.75v2.57c0,.69.12.83.75.83.05,0,.05.15,0,.15-.28,0-.67,0-1.08,0s-.82,0-1.09,0c-.05,0-.05-.15,0-.15.62,0,.74-.14.74-.83V69.86c0-.53-.11-.77-.42-.77a2,2,0,0,0-.65.18c-.07,0-.13-.09-.06-.13l1.39-.66h.08c.12,0,.34.35.34,1a2.44,2.44,0,0,1,1.84-1,1.28,1.28,0,0,1,1.39,1.46v2.35c0,.69.12.83.74.83C409.14,73.06,409.14,73.21,409.09,73.21Z" transform="translate(-20.01)"/><path d="M419.86,73.21h-1.35c-.84,0-.38.15-1.88-1.74l-1.84-2.32-.39.39v2.69c0,.7.14.83,1,.83.05,0,.05.15,0,.15-.38,0-.85,0-1.42,0s-1,0-1.41,0c0,0,0-.15,0-.15.87,0,1-.13,1-.83V66.68c0-.68-.14-.83-1-.83,0,0,0-.14,0-.14.4,0,.88,0,1.4,0s1.05,0,1.42,0c.05,0,.05.14,0,.14-.86,0-1,.17-1,.86v2.53L417,66.68c.6-.61.52-.83-.32-.83,0,0,0-.14,0-.14.4,0,.74,0,1.4,0s.93,0,1.27,0c.05,0,.05.14,0,.14a3,3,0,0,0-2.08.9l-1.89,1.86,1.72,2.21c1.81,2.35,2,2.24,2.79,2.24C419.9,73.06,419.9,73.21,419.86,73.21Z" transform="translate(-20.01)"/><path d="M424,72.65a2.54,2.54,0,0,1-1.75.7,2.16,2.16,0,0,1-2.19-2.3,2.53,2.53,0,0,1,2.53-2.58A1.25,1.25,0,0,1,424,69.84c0,.21,0,.31-.13.31h-3c0,.13,0,.28,0,.43,0,1.36.66,2.34,1.87,2.34a2,2,0,0,0,1.2-.4S424.06,72.61,424,72.65ZM420.92,70l2.28,0c0-.83-.39-1.25-1-1.25S421.06,69.19,420.92,70Z" transform="translate(-20.01)"/><path d="M429.71,68.72c-.4,0-.67.25-.92.92l-1.47,3.9c-.87,2.32-1.54,3-2.59,3-.33,0-.61-.15-.61-.47a.35.35,0,0,1,.37-.36c.46,0,.52.29.91.29.57,0,1-.66,1.79-2.74l-1.82-3.73c-.36-.69-.49-.85-.79-.85,0,0,0-.14,0-.14l.8,0,1.24,0s0,.14,0,.14c-.52,0-.83.1-.64.47l1.58,3.25,1-2.76c.24-.72,0-1-.82-1,0,0,0-.14,0-.14l1.21,0,.8,0C429.76,68.58,429.76,68.72,429.71,68.72Z" transform="translate(-20.01)"/><path d="M438.41,71.44A12.81,12.81,0,0,0,438.3,73c0,.13-.05.18-.19.18h-5s0-.15,0-.15c.88,0,1-.13,1-.83V66.68c0-.68-.16-.83-1-.83,0,0,0-.14,0-.14h4.83c.08,0,.1,0,.1.11l0,1.47s-.12.06-.13,0A1.28,1.28,0,0,0,436.6,66h-.73c-.81,0-1,.15-1,.78v2.44h1.46c.77,0,1.07-.24,1.07-.84,0,0,.14,0,.14,0,0,.48,0,.67,0,1s0,.69,0,1.1c0,0-.14,0-.14,0,0-.69-.31-1-1.12-1H434.9v2.76c0,.63.15.76.93.76h1c.77,0,1.31-.58,1.48-1.53C438.28,71.37,438.41,71.4,438.41,71.44Z" transform="translate(-20.01)"/><path d="M444.13,73.21l-.76,0c-.54,0-.92,0-1.25,0-.05,0-.05-.15,0-.15.47,0,.49-.09.25-.47l-.91-1.38-.72,1c-.36.52-.4.81.44.81.05,0,.05.15,0,.15-.37,0-.66,0-1.2,0-.34,0-.5,0-.81,0,0,0,0-.15,0-.15a1.86,1.86,0,0,0,1.35-.89l.82-1.13-1-1.47a1.6,1.6,0,0,0-1.17-.85s0-.14,0-.14l.75,0,1.23,0s0,.14,0,.14c-.44,0-.49.1-.24.47l.83,1.25.61-.9c.39-.57.4-.82-.44-.82,0,0,0-.14,0-.14l1.21,0,.82,0s0,.14,0,.14a1.81,1.81,0,0,0-1.36.89l-.73,1L443,72.21a1.56,1.56,0,0,0,1.18.85S444.17,73.21,444.13,73.21Z" transform="translate(-20.01)"/><path d="M444.71,71a2.56,2.56,0,0,1,2.62-2.52c.67,0,1.4.3,1.4.73a.39.39,0,0,1-.42.38.62.62,0,0,1-.53-.39.86.86,0,0,0-.85-.48c-.91,0-1.43.78-1.43,1.92s.59,2.3,2,2.3a1.88,1.88,0,0,0,1.22-.4s.12.06.09.1a2.54,2.54,0,0,1-1.78.72A2.24,2.24,0,0,1,444.71,71Z" transform="translate(-20.01)"/><path d="M454.93,73.21c-.28,0-.67,0-1.09,0s-.8,0-1.09,0c-.05,0-.05-.15,0-.15.62,0,.76-.14.76-.83v-1.9c0-1-.36-1.39-1.11-1.39a2,2,0,0,0-1.45.74v2.55c0,.69.13.83.76.83,0,0,0,.15,0,.15-.29,0-.67,0-1.09,0s-.81,0-1.1,0c0,0,0-.15,0-.15.63,0,.76-.14.76-.83V66c0-.56-.1-.81-.38-.81a1.47,1.47,0,0,0-.56.17c-.06,0-.13-.11-.06-.14l1.53-.74h0a.11.11,0,0,1,.11.1v4.87a2.42,2.42,0,0,1,1.85-1,1.28,1.28,0,0,1,1.38,1.45v2.32c0,.69.13.83.75.83C455,73.06,455,73.21,454.93,73.21Z" transform="translate(-20.01)"/><path d="M460.2,72.69l-1.23.59a.25.25,0,0,1-.1,0c-.19,0-.38-.27-.43-.78l-.63.41a1.71,1.71,0,0,1-1,.36.84.84,0,0,1-.94-.83c0-.48.36-.8,1.24-1.13l1.32-.49V70c0-1-.3-1.35-.76-1.35a1,1,0,0,0-.9.89c0,.23-.12.49-.45.49a.36.36,0,0,1-.4-.36c0-.6,1.38-1.24,2.18-1.24s1,.44,1,1.21v2.24c0,.55.13.8.47.8a1.49,1.49,0,0,0,.58-.15C460.23,72.53,460.27,72.65,460.2,72.69Zm-1.77-.34V71l-1.12.43c-.44.18-.64.41-.64.72a.66.66,0,0,0,.68.69,1.08,1.08,0,0,0,.57-.2Z" transform="translate(-20.01)"/><path d="M466.16,73.21c-.27,0-.67,0-1.08,0s-.81,0-1.09,0c0,0,0-.15,0-.15.63,0,.75-.14.75-.83V70.29c0-1-.35-1.38-1.11-1.38a2,2,0,0,0-1.44.75v2.57c0,.69.12.83.75.83.05,0,.05.15,0,.15-.28,0-.67,0-1.08,0s-.82,0-1.09,0c0,0,0-.15,0-.15.62,0,.74-.14.74-.83V69.86c0-.53-.11-.77-.42-.77a2.08,2.08,0,0,0-.65.18c-.07,0-.13-.09-.06-.13l1.4-.66h.07c.12,0,.34.35.34,1a2.44,2.44,0,0,1,1.84-1,1.28,1.28,0,0,1,1.39,1.46v2.35c0,.69.12.83.74.83C466.21,73.06,466.21,73.21,466.16,73.21Z" transform="translate(-20.01)"/><path d="M471.57,74.14c0,1.33-1.44,2.42-3,2.42-1.13,0-1.77-.56-1.77-1.31s.43-1.19,1.23-1.76c-.56-.07-.93-.27-.93-.8s.31-.85.86-1.28a1.51,1.51,0,0,1-.86-1.36c0-.89.76-1.56,1.9-1.56a2,2,0,0,1,1.25.37,2.4,2.4,0,0,1,1.28-.38s.06.14.06.26,0,.45-.11.41a2.1,2.1,0,0,0-.8-.18,1.29,1.29,0,0,0-.29,0,1.5,1.5,0,0,1,.41,1,1.71,1.71,0,0,1-1.88,1.58,2.36,2.36,0,0,1-.78-.13.94.94,0,0,0-.45.78c0,.51.45.66,1.74.66C470.23,72.93,471.57,72.88,471.57,74.14Zm-.6.46c0-1-.8-1-1.92-1l-.72,0a1.47,1.47,0,0,0-.82,1.32c0,.83.57,1.35,1.57,1.35A1.67,1.67,0,0,0,471,74.6Zm-3.11-4.84c0,1.13.68,1.67,1.31,1.67s.9-.32.9-1.14c0-1-.6-1.62-1.34-1.62C468.21,68.67,467.86,69,467.86,69.76Z" transform="translate(-20.01)"/><path d="M476,72.65a2.52,2.52,0,0,1-1.75.7,2.17,2.17,0,0,1-2.19-2.3,2.54,2.54,0,0,1,2.53-2.58A1.25,1.25,0,0,1,476,69.84c0,.21,0,.31-.13.31h-3a2.9,2.9,0,0,0,0,.43c0,1.36.66,2.34,1.87,2.34a2,2,0,0,0,1.2-.4S476,72.61,476,72.65ZM472.9,70l2.28,0c0-.83-.39-1.25-1-1.25S473,69.19,472.9,70Z" transform="translate(-20.01)"/><polyline class="cls-2" points="64.81 140.86 64.81 162.8 233.43 162.8 233.43 140.86"/><path d="M84.82,137.24A18.16,18.16,0,0,1,82,142.36l2.86-1,2.85,1A18.13,18.13,0,0,1,84.82,137.24Z" transform="translate(-20.01)"/><path d="M253.43,137.24a17.92,17.92,0,0,0,2.86,5.12l-2.86-1-2.85,1A18.13,18.13,0,0,0,253.43,137.24Z" transform="translate(-20.01)"/><path d="M218.74,121.05v-5h-.09a.92.92,0,0,1-.45-.08.28.28,0,0,1-.13-.27.33.33,0,0,1,.1-.27.42.42,0,0,1,.29-.09h.74a.33.33,0,0,1,.21.06.15.15,0,0,1,.07.14v2.22a2.52,2.52,0,0,1,.71-.49,1.64,1.64,0,0,1,.72-.16,1.49,1.49,0,0,1,1.16.46,1.8,1.8,0,0,1,.42,1.27v2.21h.24a.55.55,0,0,1,.35.08.3.3,0,0,1,.11.25.33.33,0,0,1-.1.27.42.42,0,0,1-.29.09h-1.31a.48.48,0,0,1-.31-.08.39.39,0,0,1-.08-.28.32.32,0,0,1,.1-.26.71.71,0,0,1,.38-.07h.18v-2a1.36,1.36,0,0,0-.26-.88,1,1,0,0,0-.76-.3,1.31,1.31,0,0,0-.88.34,1.09,1.09,0,0,0-.38.84v2h.17a.74.74,0,0,1,.4.07.3.3,0,0,1,.1.26.39.39,0,0,1-.08.28.46.46,0,0,1-.31.08h-1.3a.38.38,0,0,1-.28-.09.33.33,0,0,1-.1-.27.28.28,0,0,1,.12-.26.87.87,0,0,1,.44-.07Z" transform="translate(-20.01)"/><path d="M227.7,121.12a2.85,2.85,0,0,1-.87.55,2.66,2.66,0,0,1-1,.19,1.69,1.69,0,0,1-1.17-.41,1.35,1.35,0,0,1-.45-1,1.39,1.39,0,0,1,.6-1.2,2.83,2.83,0,0,1,1.66-.42,5.44,5.44,0,0,1,.57,0c.2,0,.39.07.6.12v0a1.14,1.14,0,0,0-.27-.83,1.19,1.19,0,0,0-.84-.26,2.08,2.08,0,0,0-.85.2,2,2,0,0,1-.62.21.28.28,0,0,1-.23-.12.46.46,0,0,1-.09-.29c0-.2.17-.36.53-.49a3.87,3.87,0,0,1,1.38-.2,1.54,1.54,0,0,1,1.74,1.73v2.21h.24a1,1,0,0,1,.47.07.3.3,0,0,1,.11.26.37.37,0,0,1-.09.27.45.45,0,0,1-.3.09h-.76a.3.3,0,0,1-.23-.09.39.39,0,0,1-.12-.24Zm0-1.54a4,4,0,0,0-.52-.13,2.89,2.89,0,0,0-.5,0,2.34,2.34,0,0,0-1.19.25.78.78,0,0,0-.44.68.66.66,0,0,0,.27.55,1.09,1.09,0,0,0,.7.22,2.16,2.16,0,0,0,1.15-.33c.35-.21.53-.44.53-.67Z" transform="translate(-20.01)"/><path d="M230.45,121.38v-.86a.48.48,0,0,1,.08-.31.34.34,0,0,1,.26-.09c.14,0,.24.09.32.27a1.72,1.72,0,0,0,.14.25,1.5,1.5,0,0,0,.61.42,2.3,2.3,0,0,0,.88.16,1.44,1.44,0,0,0,.83-.21.65.65,0,0,0,.32-.55.54.54,0,0,0-.26-.5,1.91,1.91,0,0,0-.86-.14h-.27a2.72,2.72,0,0,1-1.51-.35,1.14,1.14,0,0,1-.53-1,1.16,1.16,0,0,1,.51-1,2.55,2.55,0,0,1,1.44-.35,2.89,2.89,0,0,1,.76.1l.41.11a.45.45,0,0,0,.21-.1.58.58,0,0,1,.3-.09.26.26,0,0,1,.24.12.62.62,0,0,1,.08.37v.57a.62.62,0,0,1-.08.37.26.26,0,0,1-.24.11c-.1,0-.22-.08-.37-.24s-.18-.2-.24-.26a1.69,1.69,0,0,0-.56-.35,2,2,0,0,0-.68-.1,1.25,1.25,0,0,0-.74.2.63.63,0,0,0-.29.52.46.46,0,0,0,.29.44,4.4,4.4,0,0,0,1.24.15,2.7,2.7,0,0,1,1.49.35,1.17,1.17,0,0,1,.47,1,1.26,1.26,0,0,1-.52,1,2.22,2.22,0,0,1-1.4.4,5,5,0,0,1-.62,0c-.23,0-.51-.09-.86-.18a1.93,1.93,0,0,1-.29.17.48.48,0,0,1-.21.06.31.31,0,0,1-.26-.12A.58.58,0,0,1,230.45,121.38Z" transform="translate(-20.01)"/><path d="M236.75,121.05v-5h-.09a.94.94,0,0,1-.46-.08.3.3,0,0,1-.13-.27.37.37,0,0,1,.1-.27.44.44,0,0,1,.29-.09h.75a.32.32,0,0,1,.2.06.16.16,0,0,1,.08.14v2.22a2.49,2.49,0,0,1,.7-.49,1.69,1.69,0,0,1,.73-.16,1.5,1.5,0,0,1,1.16.46,1.8,1.8,0,0,1,.42,1.27v2.21h.23a.55.55,0,0,1,.35.08.27.27,0,0,1,.11.25.33.33,0,0,1-.1.27.4.4,0,0,1-.29.09h-1.3a.44.44,0,0,1-.31-.08c-.06,0-.08-.14-.08-.28a.29.29,0,0,1,.1-.26.66.66,0,0,1,.38-.07h.17v-2a1.36,1.36,0,0,0-.26-.88,1,1,0,0,0-.75-.3,1.34,1.34,0,0,0-.89.34,1.08,1.08,0,0,0-.37.84v2h.17a.73.73,0,0,1,.39.07.3.3,0,0,1,.1.26c0,.14,0,.23-.08.28a.44.44,0,0,1-.31.08h-1.3a.39.39,0,0,1-.28-.09.37.37,0,0,1-.1-.27.28.28,0,0,1,.12-.26.92.92,0,0,1,.45-.07Z" transform="translate(-20.01)"/><path d="M245.58,116a1.53,1.53,0,0,1-.17.45,5.14,5.14,0,0,0-.24.54,7.67,7.67,0,0,0-.48,1.42,6.45,6.45,0,0,0-.14,1.33,6.28,6.28,0,0,0,.12,1.24,6.84,6.84,0,0,0,.36,1.2c.08.21.19.46.33.76a2.36,2.36,0,0,1,.22.53.26.26,0,0,1-.05.17.15.15,0,0,1-.13.06.54.54,0,0,1-.33-.15,2.69,2.69,0,0,1-.43-.51,5.75,5.75,0,0,1-.78-1.57,5.49,5.49,0,0,1-.26-1.73,5.78,5.78,0,0,1,.21-1.57,5.67,5.67,0,0,1,.65-1.45,3.84,3.84,0,0,1,.52-.7.66.66,0,0,1,.42-.24.14.14,0,0,1,.13.07A.25.25,0,0,1,245.58,116Z" transform="translate(-20.01)"/><path d="M280,120.37c0-.11.06-.18.11-.21a.37.37,0,0,1,.21,0h1.07a.22.22,0,0,1,.12,0,.09.09,0,0,1,0,.08.18.18,0,0,1,0,.06s0,0,0,.07l-1.34,2.8a.2.2,0,0,1-.09.11.21.21,0,0,1-.13,0h0l-.06,0-.34-.12a.62.62,0,0,1-.12-.08.18.18,0,0,1,0-.1v-.08a.43.43,0,0,0,0-.05Z" transform="translate(-20.01)"/><path d="M222.88,130.11a.29.29,0,0,1-.08.17.25.25,0,0,1-.17,0h-.85a.14.14,0,0,1-.09,0,.05.05,0,0,1,0,0,.11.11,0,0,1,0-.05.14.14,0,0,1,0-.06l1.07-2.21.08-.11a.18.18,0,0,1,.09,0H223a0,0,0,0,0,0,0l.27.11a.21.21,0,0,1,.1.06.18.18,0,0,1,0,.09v0s0,0,0,.06Zm1.92,0a.29.29,0,0,1-.08.17.25.25,0,0,1-.17,0h-.86a.11.11,0,0,1-.08,0,.05.05,0,0,1,0,0,.11.11,0,0,1,0-.05l0-.06,1.07-2.21.08-.11a.2.2,0,0,1,.08,0h.08l.28.11a.15.15,0,0,1,.09.06.16.16,0,0,1,0,.09v.06a.06.06,0,0,1,0,0Z" transform="translate(-20.01)"/><path d="M228.32,135h1.17a.43.43,0,0,1,.28.08.37.37,0,0,1,.1.27.41.41,0,0,1-.09.27.54.54,0,0,1-.32.07H227.3a.4.4,0,0,1-.29-.08.39.39,0,0,1,0-.54,1,1,0,0,1,.46-.07h.09v-5.07h-.09a1,1,0,0,1-.46-.08.29.29,0,0,1-.12-.27.31.31,0,0,1,.1-.26.4.4,0,0,1,.29-.09H228a.42.42,0,0,1,.22.05.2.2,0,0,1,.06.15v.48a2.14,2.14,0,0,1,.74-.51,2.07,2.07,0,0,1,.86-.18,2.22,2.22,0,0,1,1.64.67,2.26,2.26,0,0,1,.66,1.66,2.13,2.13,0,0,1-.62,1.59,2.19,2.19,0,0,1-1.6.62,2.3,2.3,0,0,1-.95-.19,1.91,1.91,0,0,1-.73-.52Zm1.52-2a1.5,1.5,0,0,0,1.11-.43,1.46,1.46,0,0,0,.43-1.1,1.48,1.48,0,0,0-.43-1.1,1.54,1.54,0,0,0-2.65,1.1,1.53,1.53,0,0,0,.43,1.1A1.51,1.51,0,0,0,229.84,133Z" transform="translate(-20.01)"/><path d="M236.71,133.12a3,3,0,0,1-.88.55,2.65,2.65,0,0,1-1,.19,1.69,1.69,0,0,1-1.18-.41,1.35,1.35,0,0,1-.45-1,1.39,1.39,0,0,1,.6-1.2,2.83,2.83,0,0,1,1.66-.42l.58,0,.59.12v0a1.14,1.14,0,0,0-.27-.83,1.19,1.19,0,0,0-.84-.26,2.12,2.12,0,0,0-.85.2,2,2,0,0,1-.62.21.28.28,0,0,1-.23-.12.46.46,0,0,1-.09-.29c0-.2.18-.36.54-.49a3.87,3.87,0,0,1,1.38-.2,1.53,1.53,0,0,1,1.73,1.73v2.21h.24a1,1,0,0,1,.47.07.28.28,0,0,1,.11.26.37.37,0,0,1-.09.27.45.45,0,0,1-.3.09h-.76a.32.32,0,0,1-.23-.09.34.34,0,0,1-.11-.24Zm0-1.54a4,4,0,0,0-.52-.13,2.89,2.89,0,0,0-.5,0,2.37,2.37,0,0,0-1.19.25.76.76,0,0,0-.43.68.66.66,0,0,0,.27.55,1,1,0,0,0,.69.22,2.16,2.16,0,0,0,1.15-.33c.35-.21.53-.44.53-.67Z" transform="translate(-20.01)"/><path d="M239.77,133.05v-3.13h-.1a.92.92,0,0,1-.45-.08.28.28,0,0,1-.13-.27.34.34,0,0,1,.11-.27.55.55,0,0,1,.33-.08h.7a.32.32,0,0,1,.2.06.15.15,0,0,1,.07.14v.34a2.67,2.67,0,0,1,.71-.49,1.66,1.66,0,0,1,.73-.16,1.5,1.5,0,0,1,1.16.46,1.8,1.8,0,0,1,.42,1.27v2.21h.23a.55.55,0,0,1,.35.08.3.3,0,0,1,.11.25.35.35,0,0,1-.11.28.82.82,0,0,1-.41.08h-1.08a.72.72,0,0,1-.41-.08.39.39,0,0,1-.08-.28.3.3,0,0,1,.1-.26.73.73,0,0,1,.39-.07h.17v-2a1.36,1.36,0,0,0-.26-.88,1,1,0,0,0-.75-.3,1.29,1.29,0,0,0-.88.34,1.07,1.07,0,0,0-.39.84v2h.18a.73.73,0,0,1,.39.07.3.3,0,0,1,.1.26.39.39,0,0,1-.08.28.78.78,0,0,1-.43.08H239.5a.45.45,0,0,1-.3-.09.37.37,0,0,1-.1-.27.28.28,0,0,1,.12-.26.89.89,0,0,1,.45-.07Z" transform="translate(-20.01)"/><path d="M248.92,129.5a.65.65,0,0,1,.35.08.36.36,0,0,1,0,.52.43.43,0,0,1-.3.09h-2v1.63a1.79,1.79,0,0,0,.21,1.05.85.85,0,0,0,.71.26,2.9,2.9,0,0,0,1.06-.26,2.78,2.78,0,0,1,.77-.26.29.29,0,0,1,.23.1.33.33,0,0,1,.1.24.39.39,0,0,1-.12.28,1.35,1.35,0,0,1-.41.23,7.67,7.67,0,0,1-.86.28,3.86,3.86,0,0,1-.72.08,2.25,2.25,0,0,1-1-.18,1.18,1.18,0,0,1-.58-.54,1.24,1.24,0,0,1-.14-.41,4.27,4.27,0,0,1,0-.72v-1.78h-.83a.47.47,0,0,1-.3-.08.37.37,0,0,1-.09-.27.29.29,0,0,1,.12-.27,1.32,1.32,0,0,1,.55-.07h.55v-1.26a.46.46,0,0,1,.09-.31.34.34,0,0,1,.28-.1.35.35,0,0,1,.3.12,1.27,1.27,0,0,1,.08.56v1Z" transform="translate(-20.01)"/><path d="M251.75,133.05v-5h-.09a1,1,0,0,1-.46-.08.29.29,0,0,1-.12-.27.33.33,0,0,1,.1-.27.4.4,0,0,1,.29-.09h.74a.28.28,0,0,1,.2.06.16.16,0,0,1,.08.14v2.22a2.49,2.49,0,0,1,.7-.49,1.72,1.72,0,0,1,.73-.16,1.49,1.49,0,0,1,1.16.46,1.8,1.8,0,0,1,.42,1.27v2.21h.23a.55.55,0,0,1,.35.08.27.27,0,0,1,.11.25.37.37,0,0,1-.09.27.45.45,0,0,1-.3.09h-1.3a.46.46,0,0,1-.31-.08c-.06,0-.08-.14-.08-.28a.29.29,0,0,1,.1-.26.68.68,0,0,1,.38-.07h.17v-2a1.3,1.3,0,0,0-.26-.88,1,1,0,0,0-.75-.3,1.29,1.29,0,0,0-.88.34,1.06,1.06,0,0,0-.38.84v2h.17a.7.7,0,0,1,.39.07.3.3,0,0,1,.11.26.39.39,0,0,1-.08.28.48.48,0,0,1-.31.08h-1.3a.4.4,0,0,1-.29-.09.37.37,0,0,1-.09-.27.27.27,0,0,1,.11-.26.94.94,0,0,1,.45-.07Z" transform="translate(-20.01)"/><path d="M257.94,131.7a1.48,1.48,0,0,0,.47,1.09,1.78,1.78,0,0,0,1.2.38,3.07,3.07,0,0,0,1.24-.3,3.13,3.13,0,0,1,.82-.31.34.34,0,0,1,.24.09.29.29,0,0,1,.1.23.42.42,0,0,1-.1.26,1.17,1.17,0,0,1-.33.23,4.68,4.68,0,0,1-1,.36,4.1,4.1,0,0,1-1,.13,2.49,2.49,0,0,1-1.78-.64,2.51,2.51,0,0,1,0-3.45,2.58,2.58,0,0,1,1.85-.67,2.45,2.45,0,0,1,1.71.62,2,2,0,0,1,.68,1.52.43.43,0,0,1-.12.36,1.19,1.19,0,0,1-.62.1h-3.35Zm0-.64h3.18a1.42,1.42,0,0,0-.49-.94,1.46,1.46,0,0,0-1-.35,1.71,1.71,0,0,0-1.09.34A1.62,1.62,0,0,0,258,131.06Z" transform="translate(-20.01)"/><path d="M265.11,133.05h1.62a.38.38,0,0,1,.28.08.32.32,0,0,1,.09.25.39.39,0,0,1-.08.28.51.51,0,0,1-.32.08h-3.19a.42.42,0,0,1-.29-.09.33.33,0,0,1-.1-.27.34.34,0,0,1,.1-.25.52.52,0,0,1,.31-.08h.85v-3.14h-.33a1.4,1.4,0,0,1-.59-.07.3.3,0,0,1-.12-.28.3.3,0,0,1,.1-.25.4.4,0,0,1,.29-.09h1.11a.28.28,0,0,1,.2.06.15.15,0,0,1,.07.14v.83a3.47,3.47,0,0,1,1-.86,2.12,2.12,0,0,1,1.08-.28,1.32,1.32,0,0,1,.7.17.53.53,0,0,1,.27.45.44.44,0,0,1-.13.32.42.42,0,0,1-.3.14,1,1,0,0,1-.38-.15,1,1,0,0,0-.47-.15,1.47,1.47,0,0,0-.81.28,4.59,4.59,0,0,0-.93.85Z" transform="translate(-20.01)"/><path d="M270.32,128.16a.33.33,0,0,1,.08-.18.34.34,0,0,1,.17,0h.85a.13.13,0,0,1,.09,0,.08.08,0,0,1,0,.11.25.25,0,0,1,0,.07l-1.07,2.21a.22.22,0,0,1-.07.09.17.17,0,0,1-.1,0h0l-.05,0-.27-.09-.09-.06a.12.12,0,0,1,0-.08.09.09,0,0,1,0,0,.07.07,0,0,1,0-.05Zm1.92,0a.43.43,0,0,1,.08-.18.34.34,0,0,1,.17,0h.85a.11.11,0,0,1,.08,0,.08.08,0,0,1,0,.11.25.25,0,0,1,0,.07l-1.06,2.21a.22.22,0,0,1-.07.09.17.17,0,0,1-.1,0h0l-.05,0-.27-.09-.1-.06a.16.16,0,0,1,0-.08v-.1Z" transform="translate(-20.01)"/><path d="M276.59,135.46a1.61,1.61,0,0,1,.17-.43c.11-.22.2-.4.25-.53a7.9,7.9,0,0,0,.47-1.43,5.92,5.92,0,0,0,.14-1.34,6.23,6.23,0,0,0-.12-1.22,6.69,6.69,0,0,0-.36-1.21c-.08-.22-.2-.47-.34-.76a1.88,1.88,0,0,1-.21-.55.25.25,0,0,1,.05-.15.15.15,0,0,1,.13-.07.56.56,0,0,1,.34.16,2.69,2.69,0,0,1,.43.51,5.74,5.74,0,0,1,.82,4.87,5.73,5.73,0,0,1-.65,1.46,4,4,0,0,1-.53.7.62.62,0,0,1-.41.22.16.16,0,0,1-.13-.06A.29.29,0,0,1,276.59,135.46Z" transform="translate(-20.01)"/><path d="M293,121.05v-5h-.09a1,1,0,0,1-.46-.08.29.29,0,0,1-.12-.27.33.33,0,0,1,.1-.27.4.4,0,0,1,.29-.09h.74a.28.28,0,0,1,.2.06.16.16,0,0,1,.08.14v2.22a2.63,2.63,0,0,1,.7-.49,1.72,1.72,0,0,1,.73-.16,1.49,1.49,0,0,1,1.16.46,1.8,1.8,0,0,1,.42,1.27v2.21h.23a.58.58,0,0,1,.36.08.29.29,0,0,1,.1.25.37.37,0,0,1-.09.27.45.45,0,0,1-.3.09h-1.3a.46.46,0,0,1-.31-.08.39.39,0,0,1-.08-.28.29.29,0,0,1,.1-.26.68.68,0,0,1,.38-.07H296v-2a1.3,1.3,0,0,0-.26-.88,1,1,0,0,0-.75-.3,1.29,1.29,0,0,0-.88.34,1.06,1.06,0,0,0-.38.84v2h.17a.7.7,0,0,1,.39.07.3.3,0,0,1,.11.26.39.39,0,0,1-.08.28.48.48,0,0,1-.31.08h-1.3a.42.42,0,0,1-.29-.09.37.37,0,0,1-.09-.27.27.27,0,0,1,.11-.26.94.94,0,0,1,.45-.07Z" transform="translate(-20.01)"/><path d="M301.91,121.12a3.11,3.11,0,0,1-.87.55,2.74,2.74,0,0,1-1,.19,1.65,1.65,0,0,1-1.17-.41,1.35,1.35,0,0,1-.45-1,1.4,1.4,0,0,1,.59-1.2,2.86,2.86,0,0,1,1.67-.42,5.44,5.44,0,0,1,.57,0l.59.12v0a1.14,1.14,0,0,0-.27-.83,1.16,1.16,0,0,0-.83-.26,2,2,0,0,0-.85.2,2,2,0,0,1-.62.21.3.3,0,0,1-.24-.12.46.46,0,0,1-.09-.29c0-.2.18-.36.54-.49a3.87,3.87,0,0,1,1.38-.2,1.77,1.77,0,0,1,1.3.43,1.79,1.79,0,0,1,.44,1.3v2.21h.24a1,1,0,0,1,.46.07.29.29,0,0,1,.12.26.33.33,0,0,1-.1.27.4.4,0,0,1-.29.09h-.77a.28.28,0,0,1-.22-.09.39.39,0,0,1-.12-.24Zm0-1.54a3.59,3.59,0,0,0-.52-.13,2.81,2.81,0,0,0-.5,0,2.37,2.37,0,0,0-1.19.25.78.78,0,0,0-.43.68.66.66,0,0,0,.27.55,1,1,0,0,0,.69.22,2.11,2.11,0,0,0,1.15-.33c.35-.21.53-.44.53-.67Z" transform="translate(-20.01)"/><path d="M304.66,121.38v-.86a.48.48,0,0,1,.08-.31.33.33,0,0,1,.26-.09c.13,0,.24.09.32.27a1.72,1.72,0,0,0,.14.25,1.5,1.5,0,0,0,.61.42,2.26,2.26,0,0,0,.88.16,1.48,1.48,0,0,0,.83-.21.64.64,0,0,0,.31-.55.53.53,0,0,0-.25-.5,1.94,1.94,0,0,0-.86-.14h-.27a2.78,2.78,0,0,1-1.52-.35,1.13,1.13,0,0,1-.52-1,1.16,1.16,0,0,1,.51-1,2.54,2.54,0,0,1,1.43-.35,3,3,0,0,1,.77.1l.41.11a.44.44,0,0,0,.2-.1.58.58,0,0,1,.3-.09.28.28,0,0,1,.25.12.7.7,0,0,1,.08.37v.57a.7.7,0,0,1-.08.37.26.26,0,0,1-.25.11q-.15,0-.36-.24a2.14,2.14,0,0,0-.25-.26,1.56,1.56,0,0,0-.55-.35,2,2,0,0,0-.69-.1,1.29,1.29,0,0,0-.74.2.62.62,0,0,0-.28.52.46.46,0,0,0,.29.44A4.28,4.28,0,0,0,307,119a2.66,2.66,0,0,1,1.48.35,1.15,1.15,0,0,1,.47,1,1.24,1.24,0,0,1-.52,1,2.19,2.19,0,0,1-1.39.4,4.82,4.82,0,0,1-.62,0c-.23,0-.52-.09-.86-.18l-.29.17a.52.52,0,0,1-.21.06.31.31,0,0,1-.26-.12A.58.58,0,0,1,304.66,121.38Z" transform="translate(-20.01)"/><path d="M311,121.05v-5h-.09a.92.92,0,0,1-.45-.08.28.28,0,0,1-.13-.27.33.33,0,0,1,.1-.27.42.42,0,0,1,.29-.09h.74a.33.33,0,0,1,.21.06.15.15,0,0,1,.07.14v2.22a2.52,2.52,0,0,1,.71-.49,1.64,1.64,0,0,1,.72-.16,1.49,1.49,0,0,1,1.16.46,1.8,1.8,0,0,1,.42,1.27v2.21h.24a.55.55,0,0,1,.35.08.3.3,0,0,1,.11.25.33.33,0,0,1-.1.27.42.42,0,0,1-.29.09H313.7a.48.48,0,0,1-.31-.08.39.39,0,0,1-.08-.28.32.32,0,0,1,.1-.26.71.71,0,0,1,.38-.07H314v-2a1.36,1.36,0,0,0-.26-.88,1,1,0,0,0-.76-.3,1.31,1.31,0,0,0-.88.34,1.09,1.09,0,0,0-.38.84v2h.17a.74.74,0,0,1,.4.07.3.3,0,0,1,.1.26.39.39,0,0,1-.08.28.46.46,0,0,1-.31.08h-1.3a.38.38,0,0,1-.28-.09.33.33,0,0,1-.1-.27.28.28,0,0,1,.12-.26.87.87,0,0,1,.44-.07Z" transform="translate(-20.01)"/><path d="M319.78,116a1.4,1.4,0,0,1-.16.45c-.11.22-.19.4-.25.54a7.58,7.58,0,0,0-.47,1.42,6.45,6.45,0,0,0-.14,1.33,6.28,6.28,0,0,0,.12,1.24,7.76,7.76,0,0,0,.35,1.2c.09.21.2.46.34.76a2.1,2.1,0,0,1,.21.53.27.27,0,0,1,0,.17.18.18,0,0,1-.13.06.58.58,0,0,1-.34-.15,3.73,3.73,0,0,1-.43-.51,6.39,6.39,0,0,1-.78-1.57,5.79,5.79,0,0,1-.26-1.73,5.42,5.42,0,0,1,.22-1.57,5.63,5.63,0,0,1,.64-1.45,3.82,3.82,0,0,1,.53-.7.64.64,0,0,1,.42-.24.16.16,0,0,1,.13.07A.24.24,0,0,1,319.78,116Z" transform="translate(-20.01)"/><path d="M354.22,120.37a.4.4,0,0,1,.1-.21.41.41,0,0,1,.22,0h1.07a.18.18,0,0,1,.11,0,.1.1,0,0,1,0,.08.35.35,0,0,0,0,.06l0,.07-1.34,2.8a.27.27,0,0,1-.1.11.21.21,0,0,1-.12,0h0l-.05,0-.34-.12a.41.41,0,0,1-.12-.08.13.13,0,0,1,0-.1v-.08a.11.11,0,0,1,0-.05Z" transform="translate(-20.01)"/><path d="M297.09,130.11a.29.29,0,0,1-.08.17.27.27,0,0,1-.17,0H296a.17.17,0,0,1-.1,0,.05.05,0,0,1,0,0,.11.11,0,0,1,0-.05.14.14,0,0,1,0-.06l1.07-2.21a.35.35,0,0,1,.08-.11.15.15,0,0,1,.09,0h.08l.27.11a.15.15,0,0,1,.09.06.12.12,0,0,1,0,.09.06.06,0,0,1,0,0v.06Zm1.92,0c0,.09-.05.15-.09.17a.22.22,0,0,1-.16,0h-.86a.12.12,0,0,1-.09,0,.05.05,0,0,1,0,0,.11.11,0,0,1,0-.05l0-.06,1.07-2.21a.35.35,0,0,1,.08-.11.12.12,0,0,1,.08,0h.08l.28.11a.15.15,0,0,1,.09.06.16.16,0,0,1,0,.09v.06s0,0,0,0Z" transform="translate(-20.01)"/><path d="M302.53,135h1.17a.44.44,0,0,1,.28.08.45.45,0,0,1,0,.54.52.52,0,0,1-.32.07h-2.15a.45.45,0,0,1-.3-.08.36.36,0,0,1-.1-.26.31.31,0,0,1,.13-.28,1,1,0,0,1,.46-.07h.09v-5.07h-.09a.94.94,0,0,1-.46-.08.28.28,0,0,1-.13-.27.35.35,0,0,1,.1-.26.45.45,0,0,1,.3-.09h.74a.36.36,0,0,1,.21.05.18.18,0,0,1,.07.15v.48a2.21,2.21,0,0,1,1.6-.69,2.27,2.27,0,0,1,2.3,2.33,2.14,2.14,0,0,1-2.22,2.21,2.24,2.24,0,0,1-.95-.19,1.84,1.84,0,0,1-.73-.52Zm1.51-2a1.52,1.52,0,0,0,1.12-.43,1.46,1.46,0,0,0,.43-1.1,1.48,1.48,0,0,0-.44-1.1A1.5,1.5,0,0,0,304,130a1.47,1.47,0,0,0-1.53,1.53A1.47,1.47,0,0,0,304,133Z" transform="translate(-20.01)"/><path d="M310.91,133.12a3,3,0,0,1-.87.55,2.7,2.7,0,0,1-1,.19,1.69,1.69,0,0,1-1.17-.41,1.35,1.35,0,0,1-.45-1,1.4,1.4,0,0,1,.59-1.2,2.88,2.88,0,0,1,1.67-.42,5.44,5.44,0,0,1,.57,0l.59.12v0a1,1,0,0,0-1.1-1.09,2.08,2.08,0,0,0-.85.2,2,2,0,0,1-.62.21.28.28,0,0,1-.23-.12.41.41,0,0,1-.1-.29c0-.2.18-.36.54-.49a3.87,3.87,0,0,1,1.38-.2,1.77,1.77,0,0,1,1.3.43,1.79,1.79,0,0,1,.44,1.3v2.21h.24a1,1,0,0,1,.46.07.29.29,0,0,1,.12.26.33.33,0,0,1-.1.27.4.4,0,0,1-.29.09h-.77a.29.29,0,0,1-.22-.09.39.39,0,0,1-.12-.24Zm0-1.54a3.59,3.59,0,0,0-.52-.13,2.74,2.74,0,0,0-.5,0,2.33,2.33,0,0,0-1.18.25.78.78,0,0,0-.44.68.66.66,0,0,0,.27.55,1,1,0,0,0,.69.22,2.11,2.11,0,0,0,1.15-.33c.36-.21.53-.44.53-.67Z" transform="translate(-20.01)"/><path d="M314,133.05v-3.13h-.09a1,1,0,0,1-.46-.08.29.29,0,0,1-.12-.27.33.33,0,0,1,.1-.27.57.57,0,0,1,.33-.08h.7a.33.33,0,0,1,.21.06.15.15,0,0,1,.07.14v.34a2.52,2.52,0,0,1,.71-.49,1.64,1.64,0,0,1,.72-.16,1.49,1.49,0,0,1,1.16.46,1.8,1.8,0,0,1,.42,1.27v2.21H318a.55.55,0,0,1,.35.08.3.3,0,0,1,.11.25.32.32,0,0,1-.12.28.77.77,0,0,1-.41.08h-1.08a.68.68,0,0,1-.4-.08.35.35,0,0,1-.09-.28.3.3,0,0,1,.11-.26.66.66,0,0,1,.38-.07H317v-2a1.36,1.36,0,0,0-.26-.88,1,1,0,0,0-.76-.3,1.33,1.33,0,0,0-.88.34,1.09,1.09,0,0,0-.38.84v2h.17a.74.74,0,0,1,.4.07.3.3,0,0,1,.1.26.35.35,0,0,1-.09.28.75.75,0,0,1-.43.08h-1.15a.45.45,0,0,1-.3-.09.33.33,0,0,1-.1-.27.29.29,0,0,1,.11-.26.94.94,0,0,1,.45-.07Z" transform="translate(-20.01)"/><path d="M323.12,129.5a.62.62,0,0,1,.35.08.29.29,0,0,1,.11.26.31.31,0,0,1-.1.26.46.46,0,0,1-.31.09h-2v1.63a1.8,1.8,0,0,0,.2,1.05.88.88,0,0,0,.71.26,3,3,0,0,0,1.07-.26,2.87,2.87,0,0,1,.76-.26.31.31,0,0,1,.24.1.32.32,0,0,1,.09.24.39.39,0,0,1-.12.28,1.23,1.23,0,0,1-.41.23,7.07,7.07,0,0,1-.86.28,3.69,3.69,0,0,1-.72.08,2.28,2.28,0,0,1-1-.18,1.22,1.22,0,0,1-.58-.54,1.52,1.52,0,0,1-.14-.41,5.72,5.72,0,0,1,0-.72v-1.78h-.83a.46.46,0,0,1-.29-.08.33.33,0,0,1-.1-.27.28.28,0,0,1,.13-.27,1.27,1.27,0,0,1,.54-.07h.55v-1.26a.46.46,0,0,1,.09-.31.36.36,0,0,1,.28-.1.33.33,0,0,1,.3.12,1.1,1.1,0,0,1,.09.56v1Z" transform="translate(-20.01)"/><path d="M326,133.05v-5h-.1a.92.92,0,0,1-.45-.08.28.28,0,0,1-.13-.27.37.37,0,0,1,.1-.27.44.44,0,0,1,.29-.09h.75a.32.32,0,0,1,.2.06.15.15,0,0,1,.07.14v2.22a2.67,2.67,0,0,1,.71-.49,1.64,1.64,0,0,1,.72-.16,1.47,1.47,0,0,1,1.16.46,1.76,1.76,0,0,1,.43,1.27v2.21h.23a.55.55,0,0,1,.35.08.3.3,0,0,1,.11.25.33.33,0,0,1-.1.27.4.4,0,0,1-.29.09h-1.3a.44.44,0,0,1-.31-.08.35.35,0,0,1-.09-.28.29.29,0,0,1,.11-.26.66.66,0,0,1,.38-.07H329v-2a1.36,1.36,0,0,0-.26-.88,1,1,0,0,0-.75-.3,1.34,1.34,0,0,0-.89.34,1.09,1.09,0,0,0-.38.84v2h.17a.74.74,0,0,1,.4.07.3.3,0,0,1,.1.26.39.39,0,0,1-.08.28.46.46,0,0,1-.31.08h-1.3a.39.39,0,0,1-.28-.09.33.33,0,0,1-.1-.27.28.28,0,0,1,.12-.26.87.87,0,0,1,.44-.07Z" transform="translate(-20.01)"/><path d="M332.14,131.7a1.52,1.52,0,0,0,.48,1.09,1.77,1.77,0,0,0,1.19.38,3.11,3.11,0,0,0,1.25-.3,3.26,3.26,0,0,1,.81-.31.37.37,0,0,1,.25.09.32.32,0,0,1,.09.23.37.37,0,0,1-.1.26,1.26,1.26,0,0,1-.32.23,4.88,4.88,0,0,1-1,.36,4.12,4.12,0,0,1-1,.13,2.5,2.5,0,0,1-1.78-.64,2.5,2.5,0,0,1,0-3.45,2.57,2.57,0,0,1,1.85-.67,2.48,2.48,0,0,1,1.71.62,2,2,0,0,1,.67,1.52c0,.18,0,.3-.11.36a1.21,1.21,0,0,1-.62.1h-3.36Zm0-.64h3.18a1.47,1.47,0,0,0-.49-.94,1.48,1.48,0,0,0-1-.35,1.74,1.74,0,0,0-1.1.34A1.61,1.61,0,0,0,332.17,131.06Z" transform="translate(-20.01)"/><path d="M339.32,133.05h1.62a.39.39,0,0,1,.28.08.32.32,0,0,1,.09.25.35.35,0,0,1-.09.28.46.46,0,0,1-.31.08h-3.2a.39.39,0,0,1-.28-.09.33.33,0,0,1-.1-.27.3.3,0,0,1,.1-.25.52.52,0,0,1,.31-.08h.85v-3.14h-.33a1.37,1.37,0,0,1-.59-.07.3.3,0,0,1-.12-.28.33.33,0,0,1,.09-.25.42.42,0,0,1,.29-.09h1.12a.32.32,0,0,1,.2.06.17.17,0,0,1,.07.14v.83a3.45,3.45,0,0,1,1-.86,2.19,2.19,0,0,1,1.09-.28,1.32,1.32,0,0,1,.7.17.53.53,0,0,1,.27.45.45.45,0,0,1-.14.32.4.4,0,0,1-.29.14.94.94,0,0,1-.38-.15,1,1,0,0,0-.48-.15,1.44,1.44,0,0,0-.8.28,4.59,4.59,0,0,0-.93.85Z" transform="translate(-20.01)"/><path d="M344.53,128.16a.33.33,0,0,1,.08-.18.34.34,0,0,1,.17,0h.85a.15.15,0,0,1,.09,0,.1.1,0,0,1,0,.07s0,0,0,0a.64.64,0,0,0,0,.07l-1.07,2.21a.24.24,0,0,1-.08.09.16.16,0,0,1-.09,0h0l0,0-.28-.09-.09-.06a.16.16,0,0,1,0-.08v0s0,0,0-.05Zm1.92,0a.33.33,0,0,1,.08-.18.34.34,0,0,1,.17,0h.85a.11.11,0,0,1,.08,0,.1.1,0,0,1,0,.07s0,0,0,0a.64.64,0,0,0,0,.07l-1.06,2.21a.35.35,0,0,1-.07.09.19.19,0,0,1-.1,0h0l-.05,0-.27-.09-.1-.06a.16.16,0,0,1,0-.08v-.07a0,0,0,0,1,0,0Z" transform="translate(-20.01)"/><path d="M350.8,135.46A1.61,1.61,0,0,1,351,135c.11-.22.19-.4.25-.53a8.78,8.78,0,0,0,.47-1.43,6.55,6.55,0,0,0,.14-1.34,6.23,6.23,0,0,0-.12-1.22,6.69,6.69,0,0,0-.36-1.21c-.09-.22-.2-.47-.34-.76a1.88,1.88,0,0,1-.21-.55.25.25,0,0,1,.05-.15.14.14,0,0,1,.13-.07.58.58,0,0,1,.34.16,3.73,3.73,0,0,1,.43.51,5.49,5.49,0,0,1,.78,1.57,5.78,5.78,0,0,1,.26,1.72,5.85,5.85,0,0,1-.22,1.58,6.1,6.1,0,0,1-.65,1.46,4,4,0,0,1-.53.7.62.62,0,0,1-.41.22.15.15,0,0,1-.13-.06A.29.29,0,0,1,350.8,135.46Z" transform="translate(-20.01)"/><line class="cls-3" x1="144.63" y1="142.82" x2="159.03" y2="157.22"/><line class="cls-3" x1="159.03" y1="142.82" x2="144.63" y2="157.22"/><polyline class="cls-2" points="304.79 140.86 304.79 162.8 473.4 162.8 473.4 140.86"/><path d="M324.79,137.24a18.13,18.13,0,0,1-2.85,5.12l2.85-1,2.86,1A18.16,18.16,0,0,1,324.79,137.24Z" transform="translate(-20.01)"/><path d="M493.41,137.24a18.13,18.13,0,0,0,2.85,5.12l-2.85-1-2.85,1A18.13,18.13,0,0,0,493.41,137.24Z" transform="translate(-20.01)"/><line class="cls-3" x1="384.61" y1="142.82" x2="399.01" y2="157.22"/><line class="cls-3" x1="399.01" y1="142.82" x2="384.61" y2="157.22"/><polygon class="cls-4" points="73.63 101.01 71.67 101.01 71.67 98.86 73.63 98.86 73.63 93.18 69.58 93.18 69.58 96.46 65.52 96.46 65.52 103.41 69.58 103.41 69.58 106.69 73.63 106.69 73.63 101.01"/><rect class="cls-4" x="58.21" y="77.48" width="54.63" height="3.78" transform="translate(144.89 -6.16) rotate(90)"/><path class="cls-4" d="M96.34,44.25h0a8.13,8.13,0,0,0-8.11-8.11h-5.4a8.13,8.13,0,0,0-8.11,8.11h0a8.13,8.13,0,0,0,8.11,8.1h5.4A8.13,8.13,0,0,0,96.34,44.25ZM82.83,41.87a2.7,2.7,0,1,1,2.7,2.7A2.7,2.7,0,0,1,82.83,41.87Z" transform="translate(-20.01)"/><rect class="cls-4" x="84.99" y="50.26" width="1.08" height="5.52" rx="0.54" ry="0.54" transform="translate(118.55 -32.5) rotate(90)"/><rect class="cls-4" x="84.99" y="51.34" width="1.08" height="5.52" rx="0.54" ry="0.54" transform="translate(119.63 -31.42) rotate(90)"/><rect class="cls-4" x="84.99" y="89.58" width="1.08" height="5.52" rx="0.54" ry="0.54" transform="translate(157.86 6.81) rotate(90)"/><polygon class="cls-4" points="238.69 101.01 236.73 101.01 236.73 98.86 238.69 98.86 238.69 93.18 234.63 93.18 234.63 96.46 230.58 96.46 230.58 103.41 234.63 103.41 234.63 106.69 238.69 106.69 238.69 101.01"/><rect class="cls-4" x="223.27" y="77.48" width="54.63" height="3.78" transform="translate(309.95 -171.22) rotate(90)"/><path class="cls-4" d="M261.4,44.25h0a8.13,8.13,0,0,0-8.11-8.11h-5.4a8.13,8.13,0,0,0-8.11,8.11h0a8.13,8.13,0,0,0,8.11,8.1h5.4A8.13,8.13,0,0,0,261.4,44.25Zm-13.51-2.38a2.7,2.7,0,1,1,2.7,2.7A2.7,2.7,0,0,1,247.89,41.87Z" transform="translate(-20.01)"/><rect class="cls-4" x="250.05" y="50.26" width="1.08" height="5.52" rx="0.54" ry="0.54" transform="translate(283.61 -197.56) rotate(90)"/><rect class="cls-4" x="250.05" y="51.34" width="1.08" height="5.52" rx="0.54" ry="0.54" transform="translate(284.69 -196.48) rotate(90)"/><rect class="cls-4" x="250.05" y="89.58" width="1.08" height="5.52" rx="0.54" ry="0.54" transform="translate(322.92 -158.25) rotate(90)"/><rect class="cls-5" x="297.36" y="77.36" width="54.86" height="3.8" transform="translate(384.04 -245.54) rotate(90)"/><path class="cls-5" d="M335.65,44.28c0-4.5-4.86-8.14-10.86-8.14s-10.85,3.64-10.85,8.14,4.86,8.14,10.85,8.14S335.65,48.78,335.65,44.28Zm-10.86-2.89c3.43-3.43,7.71-.92,7.71,2.89,0,2.82-3.76,6.38-7.71,2.44-4.35,3.86-7.7.38-7.7-2.44C317.09,40.58,321.45,38,324.79,41.39Z" transform="translate(-20.01)"/><polygon class="cls-5" points="312.11 101.47 308.86 101.47 308.86 98.34 312.11 98.34 312.11 93.12 306.69 93.12 306.69 106.69 312.11 106.69 312.11 101.47"/><rect class="cls-5" x="324.25" y="50.19" width="1.09" height="5.55" rx="0.54" ry="0.54" transform="translate(357.75 -271.83) rotate(90)"/><rect class="cls-5" x="324.25" y="51.27" width="1.09" height="5.55" rx="0.54" ry="0.54" transform="translate(358.83 -270.75) rotate(90)"/><rect class="cls-5" x="324.25" y="89.81" width="1.09" height="5.55" rx="0.54" ry="0.54" transform="translate(397.36 -232.22) rotate(90)"/><rect class="cls-5" x="462.46" y="77.36" width="54.86" height="3.8" transform="translate(549.14 -410.63) rotate(90)"/><path class="cls-5" d="M500.75,44.28c0-4.5-4.86-8.14-10.86-8.14S479,39.78,479,44.28s4.86,8.14,10.85,8.14S500.75,48.78,500.75,44.28Zm-10.86-2.89c3.43-3.43,7.71-.92,7.71,2.89,0,2.82-3.76,6.38-7.71,2.44-4.35,3.86-7.7.38-7.7-2.44C482.19,40.58,486.55,38,489.89,41.39Z" transform="translate(-20.01)"/><polygon class="cls-5" points="477.21 101.47 473.96 101.47 473.96 98.34 477.21 98.34 477.21 93.12 471.78 93.12 471.78 106.69 477.21 106.69 477.21 101.47"/><rect class="cls-5" x="489.35" y="50.19" width="1.09" height="5.55" rx="0.54" ry="0.54" transform="translate(522.85 -436.93) rotate(90)"/><rect class="cls-5" x="489.35" y="51.27" width="1.09" height="5.55" rx="0.54" ry="0.54" transform="translate(523.93 -435.84) rotate(90)"/><rect class="cls-5" x="489.35" y="89.81" width="1.09" height="5.55" rx="0.54" ry="0.54" transform="translate(562.46 -397.31) rotate(90)"/><polygon class="cls-6" points="56.81 122.88 56.81 123.71 55.9 123.71 55.9 122.88 53.5 122.88 53.5 124.59 54.88 124.59 54.88 126.31 57.82 126.31 57.82 124.59 59.21 124.59 59.21 122.88 56.81 122.88"/><rect class="cls-6" x="36.11" y="125.51" width="23.1" height="1.6"/><path class="cls-6" d="M52.81,121.74h0a3.43,3.43,0,0,0-3.42,3.42v2.29a3.44,3.44,0,0,0,3.42,3.43h0a3.44,3.44,0,0,0,3.43-3.43v-2.29A3.43,3.43,0,0,0,52.81,121.74Zm-1,5.71A1.15,1.15,0,1,1,53,126.31,1.14,1.14,0,0,1,51.81,127.45Z" transform="translate(-20.01)"/><rect class="cls-6" x="36.29" y="125.14" width="0.46" height="2.34" rx="0.23" ry="0.23"/><rect class="cls-6" x="36.75" y="125.14" width="0.46" height="2.34" rx="0.23" ry="0.23"/><rect class="cls-6" x="52.91" y="125.14" width="0.46" height="2.34" rx="0.23" ry="0.23"/><polygon class="cls-6" points="255.25 116.18 255.25 117.01 254.34 117.01 254.34 116.18 251.94 116.18 251.94 117.89 253.32 117.89 253.32 119.61 256.26 119.61 256.26 117.89 257.65 117.89 257.65 116.18 255.25 116.18"/><rect class="cls-6" x="234.55" y="118.81" width="23.1" height="1.6"/><path class="cls-6" d="M251.25,115h0a3.43,3.43,0,0,0-3.42,3.42v2.29a3.44,3.44,0,0,0,3.42,3.43h0a3.44,3.44,0,0,0,3.43-3.43v-2.29A3.43,3.43,0,0,0,251.25,115Zm-1,5.71a1.15,1.15,0,1,1,1.14-1.14A1.14,1.14,0,0,1,250.25,120.75Z" transform="translate(-20.01)"/><rect class="cls-6" x="234.73" y="118.44" width="0.46" height="2.34" rx="0.23" ry="0.23"/><rect class="cls-6" x="235.19" y="118.44" width="0.46" height="2.34" rx="0.23" ry="0.23"/><rect class="cls-6" x="251.35" y="118.44" width="0.46" height="2.34" rx="0.23" ry="0.23"/><rect class="cls-7" x="308.65" y="118.8" width="23.19" height="1.61"/><path class="cls-7" d="M325.46,115c-1.9,0-3.44,2-3.44,4.59s1.54,4.58,3.44,4.58,3.44-2,3.44-4.58S327.36,115,325.46,115Zm-1.22,4.59a1.83,1.83,0,0,1,1.22-3.26,1.8,1.8,0,0,1,1,3.26c1.64,1.83.16,3.25-1,3.25A1.84,1.84,0,0,1,324.24,119.61Z" transform="translate(-20.01)"/><polygon class="cls-7" points="329.63 116.51 329.63 117.88 328.31 117.88 328.31 116.51 326.1 116.51 326.1 118.8 331.84 118.8 331.84 116.51 329.63 116.51"/><rect class="cls-7" x="308.9" y="118.43" width="0.46" height="2.34" rx="0.23" ry="0.23"/><rect class="cls-7" x="309.36" y="118.43" width="0.46" height="2.34" rx="0.23" ry="0.23"/><rect class="cls-7" x="325.64" y="118.43" width="0.46" height="2.34" rx="0.23" ry="0.23"/><rect class="cls-7" x="440.52" y="125.5" width="23.19" height="1.61"/><path class="cls-7" d="M457.34,121.72c-1.91,0-3.45,2-3.45,4.59s1.54,4.58,3.45,4.58,3.44-2,3.44-4.58S459.24,121.72,457.34,121.72Zm-1.23,4.59a1.83,1.83,0,0,1,1.23-3.26,1.8,1.8,0,0,1,1,3.26c1.63,1.83.16,3.25-1,3.25A1.84,1.84,0,0,1,456.11,126.31Z" transform="translate(-20.01)"/><polygon class="cls-7" points="461.5 123.21 461.5 124.58 460.18 124.58 460.18 123.21 457.98 123.21 457.98 125.5 463.71 125.5 463.71 123.21 461.5 123.21"/><rect class="cls-7" x="440.77" y="125.13" width="0.46" height="2.34" rx="0.23" ry="0.23"/><rect class="cls-7" x="441.23" y="125.13" width="0.46" height="2.34" rx="0.23" ry="0.23"/><rect class="cls-7" x="457.52" y="125.13" width="0.46" height="2.34" rx="0.23" ry="0.23"/></svg>