<svg id="Layer_1" data-name="Layer 1" xmlns="http://www.w3.org/2000/svg" viewBox="0 0 338.99 146.37"><defs><style>.cls-1,.cls-2{fill:none;}.cls-1{stroke:#000;}.cls-1,.cls-2,.cls-3,.cls-4{stroke-miterlimit:10;}.cls-2{stroke:#0ab45a;stroke-width:3px;}.cls-3,.cls-4{fill:#641a73;stroke:#35003f;}.cls-3{stroke-width:0.6px;}.cls-4{stroke-width:0.25px;}</style></defs><title>fingerprinting</title><path d="M175.36,22.14c-.56,0-1.19-.05-1.75-.05s-1,.05-1.61.05c-.09,0-.09-.16,0-.16.77,0,.86-.24.4-1.15l-1-1.89H168l-.54,1.22c-.51,1.12.08,1.82,1.13,1.82.09,0,.09.16,0,.16-.56,0-.94-.05-1.65-.05s-1.05.05-1.68.05c-.07,0-.07-.16,0-.16.75,0,1.11-.38,1.82-2l3-6.69c0-.05.22-.07.25,0l3.5,6.9c.66,1.33,1,1.75,1.49,1.75C175.44,22,175.44,22.14,175.36,22.14Zm-4.12-3.6-1.61-3.19-1.44,3.19Z" transform="translate(-117.73 -11.99)"/><path d="M178.11,18.73c.69.39,1.47.77,1.47,1.73a1.9,1.9,0,0,1-2.08,1.84,2.87,2.87,0,0,1-1.46-.38.22.22,0,0,1-.09-.17l0-1.38c0-.06.15-.07.16,0a2.27,2.27,0,0,0,1.8,1.68c.38,0,.64-.23.64-.72,0-.77-.6-1.12-1.16-1.44S176,19.17,176,18.19c0-1.17,1-1.59,2-1.59a3,3,0,0,1,1.17.21.18.18,0,0,1,.12.15c0,.38,0,.76,0,1.25,0,.05-.16.05-.16,0a1.69,1.69,0,0,0-1.54-1.35c-.27,0-.58.09-.58.55S177.52,18.38,178.11,18.73Z" transform="translate(-117.73 -11.99)"/><path d="M182.75,18.73c.68.39,1.47.77,1.47,1.73a1.9,1.9,0,0,1-2.09,1.84,2.9,2.9,0,0,1-1.46-.38.21.21,0,0,1-.08-.17l0-1.38c0-.06.15-.07.17,0A2.25,2.25,0,0,0,182.52,22c.38,0,.65-.23.65-.72,0-.77-.61-1.12-1.17-1.44s-1.38-.69-1.38-1.67c0-1.17,1-1.59,2-1.59a3,3,0,0,1,1.16.21.19.19,0,0,1,.13.15c0,.38,0,.76,0,1.25,0,.05-.17.05-.17,0a1.68,1.68,0,0,0-1.54-1.35c-.27,0-.58.09-.58.55S182.16,18.38,182.75,18.73Z" transform="translate(-117.73 -11.99)"/><path d="M190.6,21.54l-1.44.69a.49.49,0,0,1-.14,0c-.28,0-.6-.31-.72-.89l-.6.42a1.79,1.79,0,0,1-1.23.45c-.83,0-1.22-.39-1.22-1,0-.92.87-1.07,1.75-1.4l1.26-.46v-.8c0-1.17-.17-1.71-.64-1.71-.7,0-.81.8-.84,1.15-.06.58-.35.79-.82.79s-.67-.24-.67-.54c0-.91,1.88-1.66,2.9-1.66.77,0,1.39.46,1.39,1.55v2.48c0,.55.21.86.56.86a.91.91,0,0,0,.4-.1C190.62,21.36,190.69,21.5,190.6,21.54Zm-2.32-.4a.58.58,0,0,1,0-.19V19.61l-.6.28c-.24.1-.87.27-.87.9a.69.69,0,0,0,.72.71.82.82,0,0,0,.46-.15Z" transform="translate(-117.73 -11.99)"/><path d="M195.21,21.3a2.82,2.82,0,0,1-2.05,1c-.68,0-1.48-.26-1.48-1.29V17.91c0-.58-.19-.77-.72-.77-.07,0-.07-.25,0-.25a1.83,1.83,0,0,0,1.84-1.16c0-.07.21-.07.21,0v1.12c.59,0,1.16-.06,1.82-.13,0,0,.1.17.1.34s-.09.42-.16.39a10.56,10.56,0,0,0-1.76-.21v3.32a.92.92,0,0,0,1,1,1.79,1.79,0,0,0,1.09-.42C195.15,21.12,195.28,21.25,195.21,21.3Z" transform="translate(-117.73 -11.99)"/><path d="M201.2,21.54l-1.44.69a.49.49,0,0,1-.14,0c-.28,0-.61-.31-.72-.89l-.6.42a1.81,1.81,0,0,1-1.23.45c-.83,0-1.22-.39-1.22-1,0-.92.87-1.07,1.75-1.4l1.26-.46v-.8c0-1.17-.17-1.71-.64-1.71-.7,0-.82.8-.84,1.15-.06.58-.36.79-.82.79s-.67-.24-.67-.54c0-.91,1.88-1.66,2.9-1.66.77,0,1.39.46,1.39,1.55v2.48c0,.55.21.86.56.86a.94.94,0,0,0,.4-.1C201.21,21.36,201.28,21.5,201.2,21.54Zm-2.33-.4a1.15,1.15,0,0,1,0-.19V19.61l-.6.28c-.24.1-.87.27-.87.9a.69.69,0,0,0,.71.71.85.85,0,0,0,.47-.15Z" transform="translate(-117.73 -11.99)"/><path d="M382.52,19.61c0,1.47-1.39,2.59-3.23,2.59-.51,0-1.39-.08-2-.08l-1.78,0c-.06,0-.06-.16,0-.16.78,0,1-.16,1-1V14.52c0-.79-.21-1-1-1,0,0,0-.17,0-.17.49,0,1.1,0,1.77,0s1.12-.08,1.72-.08c1.68,0,2.68.61,2.68,1.8A2.29,2.29,0,0,1,380,17.23C381.53,17.42,382.52,18.35,382.52,19.61Zm-4.45-5.06v2.66l.56,0c1,0,1.51-.87,1.51-2s-.49-1.62-1.36-1.62C378.23,13.66,378.07,13.87,378.07,14.55Zm2.81,5.4c0-1.38-.63-2.34-2.09-2.34-.13,0-.4,0-.72,0V21c0,.56.11.84,1,.84C380.34,21.85,380.88,21.16,380.88,20Z" transform="translate(-117.73 -11.99)"/><path d="M383.69,19.37a2.89,2.89,0,0,1,3.11-2.81,2.81,2.81,0,0,1,2.85,2.9,2.94,2.94,0,0,1-3.09,2.87A2.83,2.83,0,0,1,383.69,19.37Zm4.42.58c0-2.05-.89-3.1-1.78-3.1-.73,0-1.12.64-1.12,2,0,1.92.78,3.18,1.77,3.18C387.73,22,388.11,21.28,388.11,20Z" transform="translate(-117.73 -11.99)"/><path d="M396.87,19.16a3,3,0,0,1-3,3.17,3.29,3.29,0,0,1-2-.66l-1.28.57c-.08,0-.12-.1,0-.12a1.49,1.49,0,0,0,.69-1.42V13.89c0-.63-.1-.91-.43-.91a1.37,1.37,0,0,0-.51.16c-.07,0-.14-.16-.1-.17l2-1h.07c.1,0,.23.11.23.18v5.32a2.85,2.85,0,0,1,2-.93A2.33,2.33,0,0,1,396.87,19.16Zm-1.44.55c0-1.68-.62-2.41-1.54-2.41a2.53,2.53,0,0,0-1.36.47v2.06c0,1.67,1,2.22,1.65,2.22C395,22.05,395.43,21.18,395.43,19.71Z" transform="translate(-117.73 -11.99)"/><path d="M404.09,19.16a3,3,0,0,1-3,3.17,3.34,3.34,0,0,1-2-.66l-1.27.57c-.09,0-.13-.1-.06-.12a1.47,1.47,0,0,0,.69-1.42V13.89c0-.63-.1-.91-.42-.91a1.35,1.35,0,0,0-.52.16c-.07,0-.14-.16-.1-.17l2-1h.07c.09,0,.22.11.22.18v5.32a2.87,2.87,0,0,1,2-.93A2.32,2.32,0,0,1,404.09,19.16Zm-1.44.55c0-1.68-.61-2.41-1.54-2.41a2.53,2.53,0,0,0-1.36.47v2.06c0,1.67,1,2.22,1.65,2.22C402.22,22.05,402.65,21.18,402.65,19.71Z" transform="translate(-117.73 -11.99)"/><path d="M410.72,16.91c-.64,0-1,.58-1.38,1.49l-1.55,4.14c-1,2.7-1.87,3.54-2.93,3.54-.55,0-.87-.24-.87-.69a.62.62,0,0,1,.67-.65c.48,0,.56.36,1,.36.63,0,1-.66,1.79-2.68l-2.24-4.52c-.41-.81-.58-1-.91-1-.06,0-.06-.17,0-.17l1.19,0c.67,0,1.15,0,1.57,0,.05,0,.05.17,0,.17-.66,0-.83.12-.62.54l1.65,3.38.84-2.44c.31-.91,0-1.48-.74-1.48,0,0,0-.17,0-.17.45,0,.77,0,1.42,0,.44,0,.67,0,1.08,0C410.76,16.74,410.76,16.91,410.72,16.91Z" transform="translate(-117.73 -11.99)"/><path d="M118.4,123.38v-5h-.09a.85.85,0,0,1-.46-.08.29.29,0,0,1-.12-.27.3.3,0,0,1,.1-.26.4.4,0,0,1,.29-.09h.74a.37.37,0,0,1,.2,0,.19.19,0,0,1,.08.15v2.21a2.71,2.71,0,0,1,.7-.49,1.72,1.72,0,0,1,.73-.16,1.49,1.49,0,0,1,1.16.46,1.82,1.82,0,0,1,.42,1.27v2.21h.23a.62.62,0,0,1,.35.08.29.29,0,0,1,.11.26.34.34,0,0,1-.09.26.45.45,0,0,1-.3.09h-1.3a.46.46,0,0,1-.31-.08.34.34,0,0,1-.08-.27.31.31,0,0,1,.1-.27.68.68,0,0,1,.38-.07h.17v-2a1.26,1.26,0,0,0-.26-.87.93.93,0,0,0-.75-.3,1.25,1.25,0,0,0-.88.34,1,1,0,0,0-.38.83v2h.17a.84.84,0,0,1,.39.07.31.31,0,0,1,.11.27.38.38,0,0,1-.08.27.48.48,0,0,1-.31.08h-1.3a.4.4,0,0,1-.29-.09.34.34,0,0,1-.09-.26.29.29,0,0,1,.11-.27.94.94,0,0,1,.45-.07Z" transform="translate(-117.73 -11.99)"/><path d="M127.36,123.45a3.11,3.11,0,0,1-.87.55,2.54,2.54,0,0,1-1,.19,1.69,1.69,0,0,1-1.18-.4,1.5,1.5,0,0,1,.15-2.25,2.79,2.79,0,0,1,1.67-.43,3.64,3.64,0,0,1,.57,0,4.34,4.34,0,0,1,.59.11v0a1.12,1.12,0,0,0-.27-.83,1.14,1.14,0,0,0-.83-.27,2.22,2.22,0,0,0-.85.2,2.12,2.12,0,0,1-.62.21.29.29,0,0,1-.24-.12.44.44,0,0,1-.09-.29c0-.19.18-.36.54-.49a4.11,4.11,0,0,1,1.38-.2,1.79,1.79,0,0,1,1.3.44,1.75,1.75,0,0,1,.44,1.29v2.21h.24a1.11,1.11,0,0,1,.46.07.29.29,0,0,1,.12.27.35.35,0,0,1-.1.26.42.42,0,0,1-.29.09h-.77a.31.31,0,0,1-.22-.08.46.46,0,0,1-.12-.24Zm0-1.54a3.59,3.59,0,0,0-.52-.13,2.81,2.81,0,0,0-.5,0,2.48,2.48,0,0,0-1.19.25.77.77,0,0,0-.43.69.69.69,0,0,0,.27.55,1.09,1.09,0,0,0,.69.21,2.22,2.22,0,0,0,1.15-.32c.35-.22.53-.45.53-.68Z" transform="translate(-117.73 -11.99)"/><path d="M130.11,123.72v-.87a.5.5,0,0,1,.08-.31.33.33,0,0,1,.26-.09c.13,0,.24.09.32.27a1.3,1.3,0,0,0,.14.25,1.35,1.35,0,0,0,.6.42,2.35,2.35,0,0,0,.89.16,1.48,1.48,0,0,0,.83-.21.63.63,0,0,0,.31-.55.52.52,0,0,0-.25-.49,1.81,1.81,0,0,0-.86-.15h-.27a2.69,2.69,0,0,1-1.52-.35,1.12,1.12,0,0,1-.52-1,1.15,1.15,0,0,1,.51-1,2.46,2.46,0,0,1,1.43-.36,3,3,0,0,1,.77.11l.41.1a.57.57,0,0,0,.2-.09.51.51,0,0,1,.3-.1.29.29,0,0,1,.25.12.73.73,0,0,1,.08.37v.57a.68.68,0,0,1-.08.37.28.28,0,0,1-.25.12c-.1,0-.22-.08-.36-.25a3.28,3.28,0,0,0-.25-.26,1.62,1.62,0,0,0-.55-.34,2.08,2.08,0,0,0-.69-.11,1.27,1.27,0,0,0-.74.2.62.62,0,0,0-.28.52.46.46,0,0,0,.29.44,3.66,3.66,0,0,0,1.24.15,2.74,2.74,0,0,1,1.48.35,1.15,1.15,0,0,1,.47,1,1.27,1.27,0,0,1-.52,1.06,2.25,2.25,0,0,1-1.39.39,3.52,3.52,0,0,1-.62-.05c-.23,0-.52-.09-.86-.17l-.29.17a.69.69,0,0,1-.21.05.31.31,0,0,1-.26-.12A.55.55,0,0,1,130.11,123.72Z" transform="translate(-117.73 -11.99)"/><path d="M136.4,123.38v-5h-.09a.88.88,0,0,1-.46-.08.29.29,0,0,1-.12-.27.3.3,0,0,1,.1-.26.42.42,0,0,1,.29-.09h.74a.41.41,0,0,1,.21,0,.18.18,0,0,1,.07.15v2.21a2.75,2.75,0,0,1,.71-.49,1.64,1.64,0,0,1,.72-.16,1.49,1.49,0,0,1,1.16.46,1.82,1.82,0,0,1,.42,1.27v2.21h.23a.64.64,0,0,1,.36.08.32.32,0,0,1,.11.26.35.35,0,0,1-.1.26.45.45,0,0,1-.3.09h-1.3a.48.48,0,0,1-.31-.08.38.38,0,0,1-.08-.27.31.31,0,0,1,.1-.27.71.71,0,0,1,.38-.07h.18v-2a1.31,1.31,0,0,0-.26-.87,1,1,0,0,0-.76-.3,1.26,1.26,0,0,0-.88.34,1.07,1.07,0,0,0-.38.83v2h.17a.86.86,0,0,1,.4.07.34.34,0,0,1,.1.27.38.38,0,0,1-.08.27.48.48,0,0,1-.31.08h-1.3a.42.42,0,0,1-.29-.09.34.34,0,0,1-.09-.26.31.31,0,0,1,.11-.27.94.94,0,0,1,.45-.07Z" transform="translate(-117.73 -11.99)"/><path d="M145.23,118.33a1.38,1.38,0,0,1-.16.44l-.25.54a7.83,7.83,0,0,0-.47,1.42,6.55,6.55,0,0,0-.14,1.34,6.36,6.36,0,0,0,.12,1.24,7,7,0,0,0,.35,1.19c.09.21.2.47.34.76a2,2,0,0,1,.21.54.29.29,0,0,1,0,.17.14.14,0,0,1-.12.06.55.55,0,0,1-.34-.16,3.73,3.73,0,0,1-.43-.51,5.62,5.62,0,0,1-.78-1.57,5.78,5.78,0,0,1-.26-1.72,5.48,5.48,0,0,1,.22-1.58,5.63,5.63,0,0,1,.64-1.45,4.36,4.36,0,0,1,.52-.7.7.7,0,0,1,.43-.23.14.14,0,0,1,.12.06A.25.25,0,0,1,145.23,118.33Z" transform="translate(-117.73 -11.99)"/><path d="M179.67,122.71a.34.34,0,0,1,.1-.21.33.33,0,0,1,.22,0h1.07a.2.2,0,0,1,.11,0s.05,0,.05.07,0,0,0,.06l0,.08-1.35,2.79a.27.27,0,0,1-.09.12.19.19,0,0,1-.12,0h0l-.05,0-.34-.13a.23.23,0,0,1-.12-.08.13.13,0,0,1,0-.1v-.08a.06.06,0,0,1,0,0Z" transform="translate(-117.73 -11.99)"/><path d="M191.55,120.44a.38.38,0,0,1-.08.18.37.37,0,0,1-.17,0h-.85l-.1,0a.09.09,0,0,1,0-.06.11.11,0,0,1,0,0l0-.06,1.07-2.21a.52.52,0,0,1,.08-.11.16.16,0,0,1,.09,0h.08l.27.1a.15.15,0,0,1,.09.06.12.12,0,0,1,0,.09.11.11,0,0,1,0,.05v0Zm1.92,0a.37.37,0,0,1-.09.18.3.3,0,0,1-.16,0h-.86l-.09,0a.09.09,0,0,1,0-.06.11.11,0,0,1,0,0,.21.21,0,0,1,0-.06l1.07-2.21a.52.52,0,0,1,.08-.11.11.11,0,0,1,.08,0h.08l.28.1a.15.15,0,0,1,.09.06.16.16,0,0,1,0,.09v.06s0,0,0,0Z" transform="translate(-117.73 -11.99)"/><path d="M200.24,123.81a5.1,5.1,0,0,1-.07,1,1.37,1.37,0,0,1-.24.5,1.72,1.72,0,0,1-.77.55A3.17,3.17,0,0,1,198,126a2.26,2.26,0,0,1-.81-.11.36.36,0,0,1-.26-.34.37.37,0,0,1,.12-.27.48.48,0,0,1,.3-.11l.4,0a2.82,2.82,0,0,0,.42,0,1.37,1.37,0,0,0,1-.33,1.69,1.69,0,0,0,.3-1.14v-.59a2,2,0,0,1-.66.51,2,2,0,0,1-.83.16,2,2,0,0,1-1.51-.61,2.28,2.28,0,0,1,0-3.09,2,2,0,0,1,1.53-.62,1.86,1.86,0,0,1,.73.14,2.9,2.9,0,0,1,.73.42v-.35a.18.18,0,0,1,.06-.15.33.33,0,0,1,.21,0h.74a.46.46,0,0,1,.29.08.33.33,0,0,1,.1.26.29.29,0,0,1-.12.27.83.83,0,0,1-.46.08h-.08Zm-2.13-3.53a1.41,1.41,0,0,0-1,.4,1.36,1.36,0,0,0-.41,1,1.37,1.37,0,0,0,.41,1,1.55,1.55,0,0,0,2.08,0,1.33,1.33,0,0,0,.41-1,1.35,1.35,0,0,0-.41-1A1.41,1.41,0,0,0,198.11,120.28Z" transform="translate(-117.73 -11.99)"/><path d="M206.81,121.82a2.25,2.25,0,0,1-.71,1.71,2.92,2.92,0,0,1-3.7,0,2.41,2.41,0,0,1,0-3.42,2.92,2.92,0,0,1,3.7,0A2.27,2.27,0,0,1,206.81,121.82Zm-2.56,1.68a1.7,1.7,0,0,0,1.23-.47,1.64,1.64,0,0,0,.48-1.21,1.71,1.71,0,1,0-3.42,0A1.62,1.62,0,0,0,203,123,1.66,1.66,0,0,0,204.25,123.5Z" transform="translate(-117.73 -11.99)"/><path d="M209.92,118.38h-.83a1.43,1.43,0,0,1-.59-.07.31.31,0,0,1-.12-.28.3.3,0,0,1,.1-.26.42.42,0,0,1,.29-.09h1.61a.41.41,0,0,1,.21,0,.18.18,0,0,1,.07.15v5.5h1.53a.38.38,0,0,1,.27.08.34.34,0,0,1,.09.26.38.38,0,0,1-.08.27.49.49,0,0,1-.32.08h-3.6a.42.42,0,0,1-.29-.09.39.39,0,0,1,0-.52.52.52,0,0,1,.31-.08h1.35Z" transform="translate(-117.73 -11.99)"/><path d="M217.72,124.07a.17.17,0,0,1-.14,0,.33.33,0,0,1,0-.2v-.4a2.1,2.1,0,0,1-.74.57,2.31,2.31,0,0,1-1,.2,2.05,2.05,0,0,1-1.54-.65,2.45,2.45,0,0,1,0-3.32,2.37,2.37,0,0,1,2.56-.49,1.9,1.9,0,0,1,.68.52v-1.87h-.26a1.24,1.24,0,0,1-.54-.07.3.3,0,0,1-.13-.28.3.3,0,0,1,.1-.26.42.42,0,0,1,.29-.09h1a.34.34,0,0,1,.22,0,.18.18,0,0,1,.06.15v5.5h.22a.62.62,0,0,1,.35.08.31.31,0,0,1,.1.26.36.36,0,0,1-.09.26.33.33,0,0,1-.25.09Zm-3.2-2.19a1.56,1.56,0,0,0,2.65,1.08,1.69,1.69,0,0,0,0-2.25,1.51,1.51,0,0,0-1.11-.44,1.45,1.45,0,0,0-1.11.45A1.57,1.57,0,0,0,214.52,121.88Z" transform="translate(-117.73 -11.99)"/><path d="M224.06,121.35a2.38,2.38,0,0,0-.12-.93.44.44,0,0,0-.43-.24.65.65,0,0,0-.57.31,1.54,1.54,0,0,0-.21.86v2h.09a.7.7,0,0,1,.39.07.31.31,0,0,1,.1.27.38.38,0,0,1-.08.26.34.34,0,0,1-.26.09h-.62a.32.32,0,0,1-.28-.1.74.74,0,0,1-.08-.42V121a.93.93,0,0,0-.16-.58.56.56,0,0,0-.46-.21.66.66,0,0,0-.4.13.92.92,0,0,0-.31.38v2.69h.17a.86.86,0,0,1,.4.07.34.34,0,0,1,.1.27.38.38,0,0,1-.08.27.49.49,0,0,1-.32.08h-1.3a.39.39,0,0,1-.28-.09.33.33,0,0,1-.09-.26.29.29,0,0,1,.12-.27.87.87,0,0,1,.44-.07h.1v-3.13h-.09a.94.94,0,0,1-.46-.08.3.3,0,0,1-.13-.27.35.35,0,0,1,.1-.26.48.48,0,0,1,.29-.08h.75a.32.32,0,0,1,.21,0,.4.4,0,0,1,.07.24,1.31,1.31,0,0,1,.43-.32,1.36,1.36,0,0,1,.51-.1,1,1,0,0,1,.57.15.86.86,0,0,1,.33.45,1.25,1.25,0,0,1,.47-.45,1.26,1.26,0,0,1,.62-.15,1.05,1.05,0,0,1,.92.41,2.38,2.38,0,0,1,.29,1.33v2.21h.08a.86.86,0,0,1,.4.07.31.31,0,0,1,.1.27.34.34,0,0,1-.09.26.32.32,0,0,1-.25.09h-.6a.32.32,0,0,1-.28-.12.55.55,0,0,1-.1-.37Z" transform="translate(-117.73 -11.99)"/><path d="M229.38,123.45a3,3,0,0,1-.88.55,2.45,2.45,0,0,1-1,.19,1.69,1.69,0,0,1-1.18-.4,1.35,1.35,0,0,1-.45-1.06,1.37,1.37,0,0,1,.6-1.19,2.76,2.76,0,0,1,1.66-.43,3.86,3.86,0,0,1,.58,0,4.34,4.34,0,0,1,.59.11v0a1.12,1.12,0,0,0-.27-.83,1.15,1.15,0,0,0-.84-.27,2.3,2.3,0,0,0-.85.2,2,2,0,0,1-.62.21.28.28,0,0,1-.23-.12.44.44,0,0,1-.09-.29c0-.19.18-.36.54-.49a4.11,4.11,0,0,1,1.38-.2,1.75,1.75,0,0,1,1.29.44,1.71,1.71,0,0,1,.44,1.29v2.21h.24a1.17,1.17,0,0,1,.47.07.29.29,0,0,1,.11.27.34.34,0,0,1-.09.26.45.45,0,0,1-.3.09h-.76a.36.36,0,0,1-.23-.08.38.38,0,0,1-.11-.24Zm0-1.54a4,4,0,0,0-.52-.13,2.89,2.89,0,0,0-.5,0,2.45,2.45,0,0,0-1.19.25.77.77,0,0,0-.43.69.69.69,0,0,0,.27.55,1.09,1.09,0,0,0,.69.21,2.24,2.24,0,0,0,1.15-.32c.35-.22.53-.45.53-.68Z" transform="translate(-117.73 -11.99)"/><path d="M232.44,123.38v-3.13h-.1a.81.81,0,0,1-.45-.08.3.3,0,0,1-.13-.27.3.3,0,0,1,.11-.26.49.49,0,0,1,.33-.08h.7a.39.39,0,0,1,.2,0,.18.18,0,0,1,.07.15v.33a2.93,2.93,0,0,1,.71-.49,1.66,1.66,0,0,1,.73-.16,1.5,1.5,0,0,1,1.16.46,1.82,1.82,0,0,1,.42,1.27v2.21h.23a.62.62,0,0,1,.35.08.32.32,0,0,1,.11.26.31.31,0,0,1-.11.27.82.82,0,0,1-.41.08h-1.08a.74.74,0,0,1-.41-.07.41.41,0,0,1-.08-.28.31.31,0,0,1,.1-.27.84.84,0,0,1,.39-.07h.17v-2a1.31,1.31,0,0,0-.26-.87.93.93,0,0,0-.75-.3,1.25,1.25,0,0,0-.88.34,1,1,0,0,0-.39.83v2h.18a.84.84,0,0,1,.39.07.31.31,0,0,1,.1.27.41.41,0,0,1-.08.28.8.8,0,0,1-.43.07h-1.16a.45.45,0,0,1-.3-.09.33.33,0,0,1-.1-.26.29.29,0,0,1,.12-.27.87.87,0,0,1,.44-.07Z" transform="translate(-117.73 -11.99)"/><path d="M239,118.49a.29.29,0,0,1,.08-.17.25.25,0,0,1,.17,0h.85a.16.16,0,0,1,.09,0,.08.08,0,0,1,0,.06.43.43,0,0,0,0,0s0,0,0,.06l-1.07,2.21a.27.27,0,0,1-.08.1.16.16,0,0,1-.09,0h0l0,0-.28-.1-.09-.06a.11.11,0,0,1,0-.08v0l0-.05Zm1.92,0a.29.29,0,0,1,.08-.17.25.25,0,0,1,.17,0H242a.11.11,0,0,1,.08,0,.07.07,0,0,1,0,.06v0s0,0,0,.06L241,120.69a.43.43,0,0,1-.07.1.19.19,0,0,1-.1,0h0l-.05,0-.27-.1-.1-.06a.11.11,0,0,1,0-.08v-.06s0,0,0,0Z" transform="translate(-117.73 -11.99)"/><path d="M245.26,125.8a1.16,1.16,0,0,1,.17-.43l.25-.54a8.78,8.78,0,0,0,.47-1.43,6.45,6.45,0,0,0,.14-1.33,6.26,6.26,0,0,0-.12-1.23,7.21,7.21,0,0,0-.36-1.21c-.09-.21-.2-.47-.34-.76a2,2,0,0,1-.21-.54.25.25,0,0,1,.05-.16.15.15,0,0,1,.13-.06.53.53,0,0,1,.34.16,3,3,0,0,1,.43.5,5.62,5.62,0,0,1,.78,1.57,5.84,5.84,0,0,1,.26,1.73,5.91,5.91,0,0,1-.22,1.58,6,6,0,0,1-.65,1.45,4,4,0,0,1-.53.7.64.64,0,0,1-.41.23.14.14,0,0,1-.13-.07A.25.25,0,0,1,245.26,125.8Z" transform="translate(-117.73 -11.99)"/><path d="M327.87,123.38v-5h-.1a.81.81,0,0,1-.45-.08.28.28,0,0,1-.13-.27.33.33,0,0,1,.1-.26.44.44,0,0,1,.29-.09h.75a.39.39,0,0,1,.2,0,.18.18,0,0,1,.07.15v2.21a2.93,2.93,0,0,1,.71-.49,1.66,1.66,0,0,1,.73-.16,1.46,1.46,0,0,1,1.15.46,1.78,1.78,0,0,1,.43,1.27v2.21h.23a.62.62,0,0,1,.35.08.32.32,0,0,1,.11.26.31.31,0,0,1-.1.26.4.4,0,0,1-.29.09h-1.3a.44.44,0,0,1-.31-.08.34.34,0,0,1-.08-.27.31.31,0,0,1,.1-.27.66.66,0,0,1,.38-.07h.17v-2a1.31,1.31,0,0,0-.26-.87.93.93,0,0,0-.75-.3,1.29,1.29,0,0,0-.89.34,1.07,1.07,0,0,0-.38.83v2h.18a.84.84,0,0,1,.39.07.31.31,0,0,1,.1.27.34.34,0,0,1-.08.27.44.44,0,0,1-.31.08h-1.3a.39.39,0,0,1-.28-.09.31.31,0,0,1-.1-.26.29.29,0,0,1,.12-.27.87.87,0,0,1,.44-.07Z" transform="translate(-117.73 -11.99)"/><path d="M336.83,123.45a3.11,3.11,0,0,1-.87.55,2.54,2.54,0,0,1-1,.19,1.69,1.69,0,0,1-1.18-.4,1.35,1.35,0,0,1-.44-1.06,1.36,1.36,0,0,1,.59-1.19,2.77,2.77,0,0,1,1.67-.43,3.82,3.82,0,0,1,.57,0,4.34,4.34,0,0,1,.59.11v0a1.12,1.12,0,0,0-.27-.83,1.15,1.15,0,0,0-.84-.27,2.3,2.3,0,0,0-.85.2,2,2,0,0,1-.62.21.28.28,0,0,1-.23-.12.44.44,0,0,1-.09-.29c0-.19.18-.36.54-.49a4.11,4.11,0,0,1,1.38-.2,1.79,1.79,0,0,1,1.3.44,1.75,1.75,0,0,1,.43,1.29v2.21h.24a1.17,1.17,0,0,1,.47.07.29.29,0,0,1,.12.27.35.35,0,0,1-.1.26.45.45,0,0,1-.3.09h-.76A.36.36,0,0,1,337,124a.45.45,0,0,1-.11-.24Zm0-1.54a3.59,3.59,0,0,0-.52-.13,2.89,2.89,0,0,0-.5,0,2.48,2.48,0,0,0-1.19.25.77.77,0,0,0-.43.69.69.69,0,0,0,.27.55,1.09,1.09,0,0,0,.69.21,2.22,2.22,0,0,0,1.15-.32c.35-.22.53-.45.53-.68Z" transform="translate(-117.73 -11.99)"/><path d="M339.58,123.72v-.87a.44.44,0,0,1,.08-.31.33.33,0,0,1,.26-.09c.13,0,.24.09.32.27a.92.92,0,0,0,.14.25,1.25,1.25,0,0,0,.6.42,2.31,2.31,0,0,0,.89.16,1.48,1.48,0,0,0,.83-.21.65.65,0,0,0,.31-.55.54.54,0,0,0-.25-.49,1.81,1.81,0,0,0-.86-.15h-.27a2.67,2.67,0,0,1-1.52-.35,1.12,1.12,0,0,1-.52-1,1.15,1.15,0,0,1,.51-1,2.44,2.44,0,0,1,1.43-.36,3,3,0,0,1,.77.11l.41.1a.57.57,0,0,0,.2-.09.51.51,0,0,1,.3-.1.29.29,0,0,1,.25.12.73.73,0,0,1,.08.37v.57a.68.68,0,0,1-.08.37.28.28,0,0,1-.25.12c-.1,0-.22-.08-.36-.25l-.25-.26a1.62,1.62,0,0,0-.55-.34,2.08,2.08,0,0,0-.69-.11,1.27,1.27,0,0,0-.74.2.62.62,0,0,0-.28.52.45.45,0,0,0,.29.44,3.66,3.66,0,0,0,1.24.15,2.77,2.77,0,0,1,1.48.35,1.17,1.17,0,0,1,.47,1,1.27,1.27,0,0,1-.52,1.06,2.25,2.25,0,0,1-1.39.39,3.44,3.44,0,0,1-.62-.05c-.23,0-.52-.09-.86-.17l-.3.17a.64.64,0,0,1-.2.05.3.3,0,0,1-.26-.12A.55.55,0,0,1,339.58,123.72Z" transform="translate(-117.73 -11.99)"/><path d="M345.87,123.38v-5h-.09a.85.85,0,0,1-.46-.08.29.29,0,0,1-.12-.27.3.3,0,0,1,.1-.26.4.4,0,0,1,.29-.09h.74a.34.34,0,0,1,.2,0,.19.19,0,0,1,.08.15v2.21a2.71,2.71,0,0,1,.7-.49,1.72,1.72,0,0,1,.73-.16,1.49,1.49,0,0,1,1.16.46,1.82,1.82,0,0,1,.42,1.27v2.21h.23a.69.69,0,0,1,.36.08.31.31,0,0,1,.1.26.34.34,0,0,1-.09.26.45.45,0,0,1-.3.09h-1.3a.46.46,0,0,1-.31-.08.34.34,0,0,1-.08-.27.31.31,0,0,1,.1-.27.68.68,0,0,1,.38-.07h.17v-2a1.26,1.26,0,0,0-.26-.87.93.93,0,0,0-.75-.3,1.25,1.25,0,0,0-.88.34,1,1,0,0,0-.38.83v2h.17a.81.81,0,0,1,.39.07.31.31,0,0,1,.11.27.38.38,0,0,1-.08.27.48.48,0,0,1-.31.08h-1.3a.4.4,0,0,1-.29-.09.34.34,0,0,1-.09-.26.29.29,0,0,1,.11-.27.94.94,0,0,1,.45-.07Z" transform="translate(-117.73 -11.99)"/><path d="M354.7,118.33a1.51,1.51,0,0,1-.17.44c-.1.23-.19.41-.24.54a7.83,7.83,0,0,0-.47,1.42,5.92,5.92,0,0,0-.14,1.34,7.24,7.24,0,0,0,.11,1.24,7,7,0,0,0,.36,1.19,7.34,7.34,0,0,0,.34.76,2,2,0,0,1,.21.54.29.29,0,0,1-.05.17.14.14,0,0,1-.12.06.53.53,0,0,1-.34-.16,3.13,3.13,0,0,1-.43-.51,5.62,5.62,0,0,1-.78-1.57,5.78,5.78,0,0,1-.26-1.72,5.85,5.85,0,0,1,.21-1.58,5.67,5.67,0,0,1,.65-1.45,3.84,3.84,0,0,1,.52-.7.68.68,0,0,1,.43-.23.14.14,0,0,1,.12.06A.25.25,0,0,1,354.7,118.33Z" transform="translate(-117.73 -11.99)"/><path d="M389.14,122.71a.34.34,0,0,1,.1-.21.3.3,0,0,1,.21,0h1.07a.21.21,0,0,1,.12,0,.08.08,0,0,1,0,.07.13.13,0,0,1,0,.06.19.19,0,0,1,0,.08l-1.35,2.79a.27.27,0,0,1-.09.12.2.2,0,0,1-.13,0h0l-.05,0-.35-.13a.24.24,0,0,1-.11-.08.13.13,0,0,1,0-.1v-.08a.06.06,0,0,1,0,0Z" transform="translate(-117.73 -11.99)"/><path d="M401,120.44a.37.37,0,0,1-.09.18.3.3,0,0,1-.16,0h-.85l-.1,0a.09.09,0,0,1,0-.06v0a.33.33,0,0,0,0-.06l1.06-2.21a.53.53,0,0,1,.09-.11.12.12,0,0,1,.09,0h.08l.27.1a.15.15,0,0,1,.09.06.12.12,0,0,1,0,.09.11.11,0,0,1,0,.05l0,0Zm1.92,0a.49.49,0,0,1-.09.18.32.32,0,0,1-.16,0h-.86l-.09,0a.09.09,0,0,1,0-.06v0l0-.06,1.08-2.21a.31.31,0,0,1,.08-.11.11.11,0,0,1,.07,0h.09l.28.1a.15.15,0,0,1,.09.06.16.16,0,0,1,0,.09v.06a.08.08,0,0,0,0,0Z" transform="translate(-117.73 -11.99)"/><path d="M409.7,123.81a4.37,4.37,0,0,1-.07,1,1.21,1.21,0,0,1-.23.5,1.78,1.78,0,0,1-.77.55,3.17,3.17,0,0,1-1.16.19,2.33,2.33,0,0,1-.82-.11.35.35,0,0,1-.25-.34.37.37,0,0,1,.12-.27.44.44,0,0,1,.3-.11l.4,0a2.61,2.61,0,0,0,.42,0,1.33,1.33,0,0,0,1-.33,1.69,1.69,0,0,0,.31-1.14v-.59a2,2,0,0,1-.66.51,2,2,0,0,1-.83.16,2,2,0,0,1-1.52-.61,2.13,2.13,0,0,1-.59-1.54,2.1,2.1,0,0,1,.61-1.55,2,2,0,0,1,1.53-.62,1.86,1.86,0,0,1,.73.14,2.9,2.9,0,0,1,.73.42v-.35a.18.18,0,0,1,.06-.15.31.31,0,0,1,.21,0H410a.48.48,0,0,1,.29.08.36.36,0,0,1,.1.26.29.29,0,0,1-.12.27.85.85,0,0,1-.46.08h-.09Zm-2.12-3.53a1.42,1.42,0,0,0-1.05.4,1.35,1.35,0,0,0-.4,1,1.36,1.36,0,0,0,.4,1,1.57,1.57,0,0,0,2.09,0,1.37,1.37,0,0,0,.41-1,1.39,1.39,0,0,0-.41-1A1.41,1.41,0,0,0,407.58,120.28Z" transform="translate(-117.73 -11.99)"/><path d="M416.28,121.82a2.25,2.25,0,0,1-.71,1.71,2.92,2.92,0,0,1-3.7,0,2.41,2.41,0,0,1,0-3.42,2.91,2.91,0,0,1,3.69,0A2.24,2.24,0,0,1,416.28,121.82Zm-2.56,1.68A1.7,1.7,0,0,0,415,123a1.64,1.64,0,0,0,.48-1.21,1.66,1.66,0,0,0-.48-1.22,1.7,1.7,0,0,0-1.23-.48,1.64,1.64,0,0,0-1.71,1.7,1.63,1.63,0,0,0,1.71,1.68Z" transform="translate(-117.73 -11.99)"/><path d="M419.39,118.38h-.83a1.4,1.4,0,0,1-.59-.07.31.31,0,0,1-.12-.28.3.3,0,0,1,.1-.26.4.4,0,0,1,.29-.09h1.61a.34.34,0,0,1,.2,0,.19.19,0,0,1,.08.15v5.5h1.53a.4.4,0,0,1,.27.08.34.34,0,0,1,.09.26.34.34,0,0,1-.09.27.46.46,0,0,1-.31.08H418a.4.4,0,0,1-.29-.09.39.39,0,0,1,0-.52.52.52,0,0,1,.31-.08h1.35Z" transform="translate(-117.73 -11.99)"/><path d="M427.19,124.07a.21.21,0,0,1-.15,0,.43.43,0,0,1,0-.2v-.4a2.06,2.06,0,0,1-.73.57,2.31,2.31,0,0,1-.95.2,2.08,2.08,0,0,1-1.55-.65,2.47,2.47,0,0,1,0-3.32,2.25,2.25,0,0,1,1.66-.67,2.16,2.16,0,0,1,.9.18,1.86,1.86,0,0,1,.69.52v-1.87h-.26a1.32,1.32,0,0,1-.55-.07.31.31,0,0,1-.12-.28.3.3,0,0,1,.1-.26.42.42,0,0,1,.29-.09h1a.3.3,0,0,1,.21,0,.16.16,0,0,1,.07.15v5.5H428a.65.65,0,0,1,.35.08.31.31,0,0,1,.1.26.36.36,0,0,1-.09.26.35.35,0,0,1-.25.09Zm-3.2-2.19a1.48,1.48,0,0,0,.43,1.1,1.5,1.5,0,0,0,1.11.43,1.48,1.48,0,0,0,1.11-.45,1.69,1.69,0,0,0,0-2.25,1.51,1.51,0,0,0-1.11-.44,1.45,1.45,0,0,0-1.11.45A1.57,1.57,0,0,0,424,121.88Z" transform="translate(-117.73 -11.99)"/><path d="M433.53,121.35a2.38,2.38,0,0,0-.12-.93.45.45,0,0,0-.43-.24.65.65,0,0,0-.57.31,1.54,1.54,0,0,0-.21.86v2h.09a.73.73,0,0,1,.39.07.31.31,0,0,1,.1.27.38.38,0,0,1-.08.26.34.34,0,0,1-.26.09h-.62a.32.32,0,0,1-.28-.1.74.74,0,0,1-.08-.42V121a.87.87,0,0,0-.17-.58.54.54,0,0,0-.45-.21.64.64,0,0,0-.4.13,1,1,0,0,0-.32.38v2.69h.18a.78.78,0,0,1,.39.07.31.31,0,0,1,.11.27.34.34,0,0,1-.09.27.46.46,0,0,1-.31.08h-1.3a.38.38,0,0,1-.28-.09.33.33,0,0,1-.09-.26.31.31,0,0,1,.11-.27.94.94,0,0,1,.45-.07h.1v-3.13h-.09a1,1,0,0,1-.47-.08.29.29,0,0,1-.12-.27.31.31,0,0,1,.1-.26.46.46,0,0,1,.29-.08h.75a.32.32,0,0,1,.21,0,.35.35,0,0,1,.06.24,1.55,1.55,0,0,1,.43-.32,1.46,1.46,0,0,1,.52-.1,1,1,0,0,1,.57.15.86.86,0,0,1,.33.45,1.18,1.18,0,0,1,.47-.45,1.26,1.26,0,0,1,.62-.15,1.06,1.06,0,0,1,.92.41,2.38,2.38,0,0,1,.29,1.33v2.21h.08a.86.86,0,0,1,.4.07.31.31,0,0,1,.1.27.31.31,0,0,1-.35.35h-.59a.36.36,0,0,1-.29-.12.61.61,0,0,1-.09-.37Z" transform="translate(-117.73 -11.99)"/><path d="M438.84,123.45a2.85,2.85,0,0,1-.87.55,2.5,2.5,0,0,1-1,.19,1.68,1.68,0,0,1-1.17-.4,1.35,1.35,0,0,1-.45-1.06,1.39,1.39,0,0,1,.59-1.19,2.81,2.81,0,0,1,1.67-.43,3.64,3.64,0,0,1,.57,0,4.08,4.08,0,0,1,.59.11v0a1.16,1.16,0,0,0-.26-.83,1.15,1.15,0,0,0-.84-.27,2.26,2.26,0,0,0-.85.2,2,2,0,0,1-.62.21.28.28,0,0,1-.23-.12.39.39,0,0,1-.1-.29c0-.19.18-.36.54-.49a4.11,4.11,0,0,1,1.38-.2,1.76,1.76,0,0,1,1.3.44,1.71,1.71,0,0,1,.44,1.29v2.21h.24a1.08,1.08,0,0,1,.46.07.29.29,0,0,1,.12.27.31.31,0,0,1-.1.26.4.4,0,0,1-.29.09h-.77A.33.33,0,0,1,439,124a.46.46,0,0,1-.12-.24Zm0-1.54a3.59,3.59,0,0,0-.52-.13,2.74,2.74,0,0,0-.5,0,2.43,2.43,0,0,0-1.18.25.78.78,0,0,0-.44.69.69.69,0,0,0,.27.55,1.09,1.09,0,0,0,.69.21,2.19,2.19,0,0,0,1.15-.32c.36-.22.53-.45.53-.68Z" transform="translate(-117.73 -11.99)"/><path d="M441.91,123.38v-3.13h-.1a.81.81,0,0,1-.45-.08.28.28,0,0,1-.13-.27.33.33,0,0,1,.1-.26.52.52,0,0,1,.34-.08h.69a.41.41,0,0,1,.21,0,.18.18,0,0,1,.07.15v.33a2.93,2.93,0,0,1,.71-.49,1.64,1.64,0,0,1,.72-.16,1.49,1.49,0,0,1,1.16.46,1.82,1.82,0,0,1,.43,1.27v2.21h.23a.62.62,0,0,1,.35.08.32.32,0,0,1,.11.26.29.29,0,0,1-.12.27.75.75,0,0,1-.4.08h-1.09a.7.7,0,0,1-.4-.07.36.36,0,0,1-.09-.28.31.31,0,0,1,.11-.27.84.84,0,0,1,.39-.07h.17v-2a1.31,1.31,0,0,0-.26-.87.94.94,0,0,0-.75-.3,1.29,1.29,0,0,0-.89.34,1.07,1.07,0,0,0-.38.83v2h.17a.86.86,0,0,1,.4.07.31.31,0,0,1,.1.27.36.36,0,0,1-.09.28.76.76,0,0,1-.43.07h-1.15a.45.45,0,0,1-.3-.09.3.3,0,0,1-.1-.26.29.29,0,0,1,.12-.27.87.87,0,0,1,.44-.07Z" transform="translate(-117.73 -11.99)"/><path d="M448.45,118.49c0-.09.05-.15.09-.17s.08,0,.17,0h.85a.11.11,0,0,1,.08,0,.06.06,0,0,1,0,.06v0l0,.06-1.07,2.21a.18.18,0,0,1-.07.1.17.17,0,0,1-.1,0h0l-.05,0-.28-.1-.09-.06a.11.11,0,0,1,0-.08v0s0,0,0-.05Zm1.93,0a.29.29,0,0,1,.08-.17s.08,0,.17,0h.85a.11.11,0,0,1,.08,0,.07.07,0,0,1,0,.06.11.11,0,0,1,0,0,.14.14,0,0,1,0,.06l-1.06,2.21a.26.26,0,0,1-.07.1.15.15,0,0,1-.1,0h0l-.06,0-.26-.1a.29.29,0,0,1-.1-.06.12.12,0,0,1,0-.08.35.35,0,0,1,0-.06v0Z" transform="translate(-117.73 -11.99)"/><path d="M454.73,125.8a1.27,1.27,0,0,1,.16-.43l.26-.54a8.78,8.78,0,0,0,.47-1.43,6.45,6.45,0,0,0,.14-1.33,6.26,6.26,0,0,0-.12-1.23,6.43,6.43,0,0,0-.37-1.21c-.08-.21-.19-.47-.33-.76a2,2,0,0,1-.21-.54.21.21,0,0,1,0-.16.14.14,0,0,1,.12-.06.55.55,0,0,1,.35.16,2.64,2.64,0,0,1,.42.5,5.94,5.94,0,0,1,.79,1.57,5.84,5.84,0,0,1,.25,1.73,5.91,5.91,0,0,1-.21,1.58,6.45,6.45,0,0,1-.65,1.45,4.6,4.6,0,0,1-.53.7.66.66,0,0,1-.42.23.13.13,0,0,1-.12-.07A.21.21,0,0,1,454.73,125.8Z" transform="translate(-117.73 -11.99)"/><line class="cls-1" x1="100.6" y1="64.33" x2="236.15" y2="64.33"/><path d="M214.1,76.32a21.26,21.26,0,0,1,6,3.33l-1.2-3.33,1.2-3.33A20.78,20.78,0,0,1,214.1,76.32Z" transform="translate(-117.73 -11.99)"/><path d="M358.1,76.32a21.26,21.26,0,0,0-6,3.33l1.2-3.33L352.12,73A20.78,20.78,0,0,0,358.1,76.32Z" transform="translate(-117.73 -11.99)"/><path d="M218.71,70.2l-1.41,0s0-.14,0-.14c.87,0,1-.13,1-.83V63.7c0-.68-.14-.83-1-.83,0,0,0-.14,0-.14.4,0,.88,0,1.4,0s1.2-.06,1.64-.06c2.55,0,4.23,1.59,4.23,3.65a3.87,3.87,0,0,1-4.07,3.92C220.06,70.27,219.29,70.2,218.71,70.2Zm5-3.59c0-2.08-1.25-3.73-3.22-3.73-1,0-1.34.11-1.34.84v5.4c0,.67.23,1,1.28,1A3.14,3.14,0,0,0,223.67,66.61Z" transform="translate(-117.73 -11.99)"/><path d="M225.81,70.08c.62,0,.76-.14.76-.83V67c0-.56-.09-.82-.39-.82a1.24,1.24,0,0,0-.54.17c-.07,0-.12-.11-.07-.14l1.56-.72h0a.11.11,0,0,1,.1.09c0,.13,0,.65,0,1.42v2.25c0,.69.12.83.75.83.05,0,.05.14,0,.14l-1.09,0-1.1,0S225.77,70.08,225.81,70.08Zm.48-6.5a.46.46,0,0,1,.52-.5.5.5,0,1,1,0,1A.46.46,0,0,1,226.29,63.58Z" transform="translate(-117.73 -11.99)"/><path d="M233.88,65v.77c.5,0,1-.06,1.54-.12,0,0,.08.14.08.28s-.08.34-.12.32a6.16,6.16,0,0,0-1.5-.27v3.31c0,.7.14.83,1.18.83,0,0,0,.14,0,.14l-1.54,0-1.15,0c-.05,0-.05-.14,0-.14.68,0,.83-.13.83-.83v-2.7c0-.55,0-.55-1-.57-.41,0-1,0-1.86,0v3.3c0,.7.15.83,1.18.83,0,0,0,.14,0,.14l-1.54,0-1.15,0c-.05,0-.05-.14,0-.14.68,0,.83-.13.83-.83v-2.7c0-.58-.11-.64-.88-.64-.05,0-.05-.16,0-.16.66,0,.84-.13.85-.54.11-2.18,1.17-3.27,2.82-3.27a3.5,3.5,0,0,1,1.61.37,2.5,2.5,0,0,1,2-.79c.91,0,1.51.43,1.51.9a.34.34,0,0,1-.36.37c-.63,0-.41-1.07-1.55-1.07S233.88,62.69,233.88,65Zm-.23-2a2.14,2.14,0,0,0-1.59-.79c-1,0-1.72.94-1.72,2.82v.77c.87,0,1.47,0,2,0s.72-.06.81-.24a.5.5,0,0,0,0-.26A6,6,0,0,1,233.65,62.93Zm4.72,7.29-1.1,0-1.09,0c-.05,0-.05-.14,0-.14.63,0,.76-.14.76-.83V67c0-.84-.22-1-.94-.65-.07,0-.13-.11-.06-.14l1.56-.73c.07,0,.13,0,.13.09s0,.65,0,1.42v2.25c0,.69.13.83.76.83C238.41,70.08,238.41,70.22,238.37,70.22Z" transform="translate(-117.73 -11.99)"/><path d="M243.18,69.67a2.58,2.58,0,0,1-1.75.7,2.17,2.17,0,0,1-2.2-2.31,2.53,2.53,0,0,1,2.54-2.57,1.25,1.25,0,0,1,1.39,1.36c0,.22,0,.32-.14.32h-3c0,.13,0,.27,0,.43,0,1.35.66,2.34,1.87,2.34a2,2,0,0,0,1.2-.4S243.22,69.62,243.18,69.67ZM240.07,67l2.28,0c0-.82-.38-1.24-1-1.24S240.22,66.21,240.07,67Z" transform="translate(-117.73 -11.99)"/><path d="M244.06,67.74l3.13-.56c.07,0,.07.49,0,.5l-3.11.56C244,68.26,244,67.75,244.06,67.74Z" transform="translate(-117.73 -11.99)"/><path d="M256.23,70.22l-1.41,0-1.45,0c-.05,0-.05-.14,0-.14.91,0,1-.13,1-.83v-2.8h-4.6v2.8c0,.7.14.83,1.05.83,0,0,0,.14,0,.14l-1.45,0-1.43,0s0-.14,0-.14c.89,0,1.06-.13,1.06-.83V63.7c0-.68-.16-.83-1-.83,0,0,0-.14,0-.14.39,0,.88,0,1.41,0s1.07,0,1.45,0c0,0,0,.14,0,.14-.9,0-1.05.17-1.05.85v2.47h4.6V63.72c0-.68-.14-.85-1-.85-.05,0-.05-.14,0-.14.38,0,.85,0,1.45,0s1,0,1.41,0c0,0,0,.14,0,.14-.88,0-1,.15-1,.83v5.55c0,.7.16.83,1,.83C256.28,70.08,256.28,70.22,256.23,70.22Z" transform="translate(-117.73 -11.99)"/><path d="M261.06,69.67a2.58,2.58,0,0,1-1.75.7,2.17,2.17,0,0,1-2.2-2.31,2.53,2.53,0,0,1,2.53-2.57,1.25,1.25,0,0,1,1.4,1.36c0,.22,0,.32-.14.32h-3c0,.13,0,.27,0,.43,0,1.35.66,2.34,1.87,2.34a2,2,0,0,0,1.2-.4S261.1,69.62,261.06,69.67ZM258,67l2.28,0c0-.82-.38-1.24-1-1.24S258.1,66.21,258,67Z" transform="translate(-117.73 -11.99)"/><path d="M262.06,70.08c.62,0,.75-.14.75-.83v-6.2c0-.56-.09-.81-.38-.81a1.64,1.64,0,0,0-.55.16c-.06,0-.12-.1-.06-.13l1.53-.73h.06s.11,0,.11.09v7.63c0,.66.11.83.74.83.05,0,.05.14,0,.14l-1.1,0-1.1,0C262,70.22,262,70.08,262.06,70.08Z" transform="translate(-117.73 -11.99)"/><path d="M265.15,70.08c.63,0,.76-.14.76-.83v-6.2c0-.56-.1-.81-.38-.81a1.62,1.62,0,0,0-.56.16c-.06,0-.12-.1-.06-.13l1.54-.73h.06s.11,0,.11.09v7.63c0,.66.11.83.74.83.05,0,.05.14,0,.14l-1.1,0-1.11,0S265.11,70.08,265.15,70.08Z" transform="translate(-117.73 -11.99)"/><path d="M276.67,70.22l-1.09,0-1.09,0c-.05,0-.05-.14,0-.14.62,0,.75-.14.75-.83V67.34c0-.94-.32-1.39-1-1.39a2,2,0,0,0-1.4.76,1.15,1.15,0,0,1,0,.19v2.35c0,.69.12.83.76.83,0,0,0,.14,0,.14l-1.1,0-1.09,0c-.05,0-.05-.14,0-.14.63,0,.75-.14.75-.83V67.34c0-.94-.33-1.39-1-1.39a1.9,1.9,0,0,0-1.38.74v2.56c0,.69.12.83.74.83,0,0,0,.14,0,.14l-1.08,0-1.09,0c-.05,0-.05-.14,0-.14.62,0,.74-.14.74-.83V66.88c0-.53-.1-.77-.42-.77a2,2,0,0,0-.64.18c-.08,0-.14-.1-.06-.13l1.39-.66h.07c.12,0,.35.34.35,1h0a2.28,2.28,0,0,1,1.76-1,1.18,1.18,0,0,1,1.3,1.06,2.35,2.35,0,0,1,1.81-1.06c.82,0,1.32.47,1.32,1.45v2.33c0,.69.1.83.74.83C276.73,70.08,276.73,70.22,276.67,70.22Z" transform="translate(-117.73 -11.99)"/><path d="M281.93,69.71l-1.24.58a.12.12,0,0,1-.09,0c-.2,0-.39-.28-.44-.78l-.62.41a1.73,1.73,0,0,1-1,.36.83.83,0,0,1-.93-.83c0-.48.36-.8,1.23-1.13l1.32-.49V67c0-1-.3-1.34-.75-1.34a1,1,0,0,0-.9.89c0,.23-.12.49-.46.49a.35.35,0,0,1-.39-.36c0-.6,1.37-1.25,2.18-1.25s1,.45,1,1.22v2.24c0,.55.14.8.47.8a1.69,1.69,0,0,0,.59-.15C282,69.55,282,69.67,281.93,69.71Zm-1.78-.34V68l-1.11.43c-.45.18-.64.41-.64.72a.65.65,0,0,0,.67.68,1.05,1.05,0,0,0,.58-.19Z" transform="translate(-117.73 -11.99)"/><path d="M287.89,70.22l-1.08,0-1.09,0c-.05,0-.05-.14,0-.14.62,0,.74-.14.74-.83V67.31c0-1-.34-1.38-1.1-1.38a2.05,2.05,0,0,0-1.44.74v2.58c0,.69.12.83.74.83,0,0,0,.14,0,.14l-1.08,0-1.09,0s0-.14,0-.14c.63,0,.75-.14.75-.83V66.88c0-.53-.11-.77-.42-.77a2,2,0,0,0-.65.18c-.07,0-.13-.1-.06-.13l1.39-.66h.07c.12,0,.35.34.35,1a2.43,2.43,0,0,1,1.84-1,1.29,1.29,0,0,1,1.39,1.46v2.35c0,.69.12.83.74.83C287.94,70.08,287.94,70.22,287.89,70.22Z" transform="translate(-117.73 -11.99)"/><path d="M298.65,70.22h-1.34c-.84,0-.38.16-1.88-1.74l-1.84-2.31-.39.38v2.7c0,.7.14.83,1,.83,0,0,0,.14,0,.14l-1.42,0-1.41,0s0-.14,0-.14c.87,0,1-.13,1-.83V63.7c0-.68-.15-.83-1-.83,0,0,0-.14,0-.14.39,0,.87,0,1.4,0s1,0,1.42,0c0,0,0,.14,0,.14-.87,0-1,.17-1,.85v2.53l2.56-2.55c.6-.61.53-.83-.31-.83,0,0,0-.14,0-.14.4,0,.73,0,1.39,0s.94,0,1.27,0c.05,0,.05.14,0,.14a3,3,0,0,0-2.07.9l-1.9,1.86,1.73,2.21c1.81,2.35,2,2.24,2.78,2.24C298.7,70.08,298.7,70.22,298.65,70.22Z" transform="translate(-117.73 -11.99)"/><path d="M302.82,69.67a2.58,2.58,0,0,1-1.75.7,2.17,2.17,0,0,1-2.2-2.31,2.53,2.53,0,0,1,2.53-2.57,1.25,1.25,0,0,1,1.4,1.36c0,.22,0,.32-.14.32h-3c0,.13,0,.27,0,.43,0,1.35.66,2.34,1.87,2.34a2,2,0,0,0,1.2-.4S302.86,69.62,302.82,69.67ZM299.71,67,302,67c0-.82-.38-1.24-1-1.24S299.86,66.21,299.71,67Z" transform="translate(-117.73 -11.99)"/><path d="M308.51,65.74c-.4,0-.68.25-.93.92l-1.46,3.9c-.88,2.31-1.55,3-2.59,3-.34,0-.61-.14-.61-.46a.35.35,0,0,1,.37-.36c.46,0,.52.28.91.28.56,0,1-.66,1.79-2.73l-1.82-3.73c-.36-.7-.5-.85-.8-.85,0,0,0-.15,0-.15.27,0,.56,0,.81,0,.53,0,.91,0,1.23,0,0,0,0,.15,0,.15-.51,0-.83.09-.63.47l1.58,3.25,1-2.76c.24-.72,0-1-.83-1,0,0,0-.15,0-.15.39,0,.66,0,1.21,0,.35,0,.51,0,.81,0C308.55,65.59,308.55,65.74,308.51,65.74Z" transform="translate(-117.73 -11.99)"/><path d="M317.21,68.46A12.78,12.78,0,0,0,317.1,70c0,.14-.05.18-.19.18h-5s0-.14,0-.14c.88,0,1-.13,1-.83V63.7c0-.68-.15-.83-1-.83,0,0,0-.14,0-.14h4.82c.09,0,.11,0,.11.1l0,1.48s-.12.06-.13,0A1.26,1.26,0,0,0,315.4,63h-.74c-.8,0-1,.14-1,.78v2.43h1.47c.76,0,1.06-.24,1.06-.84,0,0,.15,0,.15,0,0,.48,0,.68,0,1s0,.69,0,1.1c0,0-.14,0-.14,0,0-.7-.32-1-1.12-1h-1.43V69.2c0,.64.16.77.94.77h1c.77,0,1.3-.59,1.47-1.53C317.08,68.39,317.21,68.41,317.21,68.46Z" transform="translate(-117.73 -11.99)"/><path d="M322.93,70.22l-.77,0-1.24,0c-.05,0-.05-.14,0-.14.46,0,.49-.1.25-.47l-.91-1.38-.72,1c-.36.53-.4.82.44.82,0,0,0,.14,0,.14l-1.2,0-.81,0s0-.14,0-.14a1.88,1.88,0,0,0,1.35-.89l.82-1.14-1-1.46a1.57,1.57,0,0,0-1.17-.85s0-.15,0-.15l.75,0c.52,0,.91,0,1.23,0,0,0,0,.15,0,.15-.44,0-.49.09-.24.47l.83,1.24.61-.9c.38-.56.4-.81-.44-.81,0,0,0-.15,0-.15.38,0,.66,0,1.21,0,.34,0,.5,0,.81,0,0,0,0,.15,0,.15a1.8,1.8,0,0,0-1.35.88l-.73,1,1.06,1.61a1.57,1.57,0,0,0,1.19.85S323,70.22,322.93,70.22Z" transform="translate(-117.73 -11.99)"/><path d="M323.51,68a2.56,2.56,0,0,1,2.61-2.51c.67,0,1.41.3,1.41.73a.39.39,0,0,1-.42.38.62.62,0,0,1-.53-.39.86.86,0,0,0-.85-.48c-.91,0-1.43.78-1.43,1.91s.59,2.31,2,2.31a1.88,1.88,0,0,0,1.22-.4s.12.06.08.1a2.5,2.5,0,0,1-1.77.72A2.25,2.25,0,0,1,323.51,68Z" transform="translate(-117.73 -11.99)"/><path d="M333.73,70.22l-1.09,0-1.09,0c-.05,0-.05-.14,0-.14.62,0,.75-.14.75-.83V67.34c0-.94-.36-1.39-1.1-1.39a2,2,0,0,0-1.45.75v2.55c0,.69.13.83.75.83.05,0,.05.14,0,.14l-1.09,0-1.09,0c-.05,0-.05-.14,0-.14.63,0,.76-.14.76-.83v-6.2c0-.56-.1-.81-.39-.81a1.64,1.64,0,0,0-.55.16c-.06,0-.13-.1-.06-.13l1.52-.74h0a.11.11,0,0,1,.11.09v4.87a2.45,2.45,0,0,1,1.85-1A1.27,1.27,0,0,1,333,66.92v2.33c0,.69.14.83.76.83C333.78,70.08,333.78,70.22,333.73,70.22Z" transform="translate(-117.73 -11.99)"/><path d="M339,69.71l-1.24.58a.11.11,0,0,1-.09,0c-.19,0-.39-.28-.43-.78l-.63.41a1.73,1.73,0,0,1-1,.36.83.83,0,0,1-.94-.83c0-.48.36-.8,1.24-1.13l1.31-.49V67c0-1-.3-1.34-.75-1.34a1,1,0,0,0-.9.89c0,.23-.12.49-.46.49a.35.35,0,0,1-.39-.36c0-.6,1.38-1.25,2.18-1.25s1,.45,1,1.22v2.24c0,.55.13.8.46.8a1.69,1.69,0,0,0,.59-.15C339,69.55,339.07,69.67,339,69.71Zm-1.78-.34V68l-1.11.43c-.44.18-.64.41-.64.72a.65.65,0,0,0,.67.68,1.05,1.05,0,0,0,.58-.19Z" transform="translate(-117.73 -11.99)"/><path d="M345,70.22l-1.08,0-1.09,0c-.05,0-.05-.14,0-.14.63,0,.75-.14.75-.83V67.31c0-1-.35-1.38-1.11-1.38a2.05,2.05,0,0,0-1.44.74v2.58c0,.69.12.83.75.83,0,0,0,.14,0,.14l-1.08,0-1.09,0c-.05,0-.05-.14,0-.14.62,0,.74-.14.74-.83V66.88c0-.53-.11-.77-.42-.77a2,2,0,0,0-.65.18c-.07,0-.13-.1-.06-.13l1.39-.66h.07c.12,0,.35.34.35,1a2.43,2.43,0,0,1,1.84-1,1.29,1.29,0,0,1,1.39,1.46v2.35c0,.69.12.83.74.83C345,70.08,345,70.22,345,70.22Z" transform="translate(-117.73 -11.99)"/><path d="M350.36,71.16c0,1.33-1.44,2.42-3,2.42-1.13,0-1.78-.56-1.78-1.32s.43-1.19,1.24-1.75c-.56-.07-.94-.27-.94-.8s.31-.85.87-1.29a1.49,1.49,0,0,1-.87-1.35c0-.89.77-1.56,1.91-1.56a2,2,0,0,1,1.25.37,2.4,2.4,0,0,1,1.28-.38s.06.14.06.26-.05.45-.11.41a2.1,2.1,0,0,0-.8-.18l-.29,0a1.52,1.52,0,0,1,.41,1,1.72,1.72,0,0,1-1.88,1.59,2.32,2.32,0,0,1-.78-.13.94.94,0,0,0-.45.78c0,.51.45.66,1.74.66C349,70,350.36,69.9,350.36,71.16Zm-.6.45c0-1-.79-1-1.92-1l-.72,0a1.46,1.46,0,0,0-.81,1.32c0,.82.56,1.35,1.57,1.35A1.66,1.66,0,0,0,349.76,71.61Zm-3.1-4.83c0,1.13.68,1.67,1.3,1.67s.9-.33.9-1.14c0-1-.6-1.62-1.33-1.62C347,65.69,346.66,66,346.66,66.78Z" transform="translate(-117.73 -11.99)"/><path d="M354.8,69.67a2.58,2.58,0,0,1-1.75.7,2.17,2.17,0,0,1-2.19-2.31,2.53,2.53,0,0,1,2.53-2.57,1.25,1.25,0,0,1,1.39,1.36c0,.22,0,.32-.13.32h-3c0,.13,0,.27,0,.43,0,1.35.66,2.34,1.87,2.34a2,2,0,0,0,1.2-.4S354.84,69.62,354.8,69.67ZM351.7,67,354,67c0-.82-.39-1.24-1-1.24S351.84,66.21,351.7,67Z" transform="translate(-117.73 -11.99)"/><polyline class="cls-1" points="274.99 123.06 274.99 145.87 65.52 145.87 65.52 123.06"/><path d="M392.72,131.43a18.47,18.47,0,0,1-2.86,5.13l2.86-1,2.85,1A18.19,18.19,0,0,1,392.72,131.43Z" transform="translate(-117.73 -11.99)"/><path d="M183.25,131.43a18.19,18.19,0,0,0,2.85,5.13l-2.85-1-2.85,1A18.19,18.19,0,0,0,183.25,131.43Z" transform="translate(-117.73 -11.99)"/><polyline class="cls-2" points="157.51 131.24 164.68 138.41 182.58 120.51"/><polygon class="cls-3" points="73.67 85.44 69.59 85.44 69.59 83.28 73.67 83.28 73.67 77.57 65.52 77.57 65.52 91.14 73.67 91.14 73.67 85.44"/><rect class="cls-3" x="63.62" y="36.85" width="3.8" height="54.3"/><rect class="cls-3" x="182.71" y="46.74" width="1.09" height="5.55" rx="0.54" ry="0.54" transform="translate(115.03 -145.73) rotate(90)"/><rect class="cls-3" x="182.71" y="47.82" width="1.09" height="5.55" rx="0.54" ry="0.54" transform="translate(116.12 -144.64) rotate(90)"/><rect class="cls-3" x="182.71" y="86.24" width="1.09" height="5.55" rx="0.54" ry="0.54" transform="translate(154.54 -106.22) rotate(90)"/><path class="cls-3" d="M194.11,40.69h0A8.14,8.14,0,0,0,186,32.55h-.54a2.17,2.17,0,1,0-4.34,0h-.55a8.14,8.14,0,0,0-8.14,8.14h0a8.15,8.15,0,0,0,8.14,8.15H186A8.15,8.15,0,0,0,194.11,40.69Zm-10.86-9.23a1.09,1.09,0,1,1-1.09,1.09A1.08,1.08,0,0,1,183.25,31.46Zm-2.72,14.66a5.43,5.43,0,0,1-5.43-5.43h0a5.43,5.43,0,0,1,2.31-4.44,3.81,3.81,0,0,1,4.59.2l1.25,1,1.25-1a3.8,3.8,0,0,1,4.58-.2,5.4,5.4,0,0,1,2.31,4.44h0A5.43,5.43,0,0,1,186,46.12Z" transform="translate(-117.73 -11.99)"/><polygon class="cls-3" points="283.13 85.44 279.06 85.44 279.06 83.28 283.13 83.28 283.13 77.57 274.99 77.57 274.99 91.14 283.13 91.14 283.13 85.44"/><rect class="cls-3" x="273.09" y="36.85" width="3.8" height="54.3"/><rect class="cls-3" x="392.17" y="46.74" width="1.09" height="5.55" rx="0.54" ry="0.54" transform="translate(324.5 -355.19) rotate(90)"/><rect class="cls-3" x="392.17" y="47.82" width="1.09" height="5.55" rx="0.54" ry="0.54" transform="translate(325.59 -354.11) rotate(90)"/><rect class="cls-3" x="392.17" y="86.24" width="1.09" height="5.55" rx="0.54" ry="0.54" transform="translate(364.01 -315.69) rotate(90)"/><path class="cls-3" d="M403.58,40.69h0a8.14,8.14,0,0,0-8.15-8.14h-.54a2.18,2.18,0,1,0-4.35,0H390a8.13,8.13,0,0,0-8.14,8.14h0A8.14,8.14,0,0,0,390,48.84h5.43A8.15,8.15,0,0,0,403.58,40.69Zm-10.86-9.23a1.09,1.09,0,1,1-1.09,1.09A1.08,1.08,0,0,1,392.72,31.46ZM390,46.12a5.43,5.43,0,0,1-5.43-5.43h0a5.4,5.4,0,0,1,2.31-4.44,3.8,3.8,0,0,1,4.58.2l1.26,1,1.25-1a3.8,3.8,0,0,1,4.58-.2,5.4,5.4,0,0,1,2.31,4.44h0a5.43,5.43,0,0,1-5.43,5.43Z" transform="translate(-117.73 -11.99)"/><polygon class="cls-4" points="57.12 106.11 57.12 107.83 56.21 107.83 56.21 106.11 53.8 106.11 53.8 109.55 59.52 109.55 59.52 106.11 57.12 106.11"/><rect class="cls-4" x="36.63" y="108.74" width="22.9" height="1.6"/><rect class="cls-4" x="36.68" y="108.37" width="0.46" height="2.34" rx="0.23" ry="0.23"/><rect class="cls-4" x="37.14" y="108.37" width="0.46" height="2.34" rx="0.23" ry="0.23"/><rect class="cls-4" x="53.34" y="108.37" width="0.46" height="2.34" rx="0.23" ry="0.23"/><path class="cls-4" d="M150.92,117h0a3.44,3.44,0,0,0-3.44,3.44v.23a.92.92,0,0,0,0,1.83v.23a3.43,3.43,0,0,0,3.44,3.43h0a3.43,3.43,0,0,0,3.43-3.43v-2.29A3.44,3.44,0,0,0,150.92,117ZM147,121.53a.46.46,0,1,1,.45.46A.45.45,0,0,1,147,121.53Zm6.18,1.15a2.3,2.3,0,0,1-2.29,2.29h0a2.3,2.3,0,0,1-1.88-1,1.61,1.61,0,0,1,.09-1.93l.42-.53-.42-.52a1.62,1.62,0,0,1-.09-1.94,2.29,2.29,0,0,1,1.88-1h0a2.29,2.29,0,0,1,2.29,2.29Z" transform="translate(-117.73 -11.99)"/><polygon class="cls-4" points="266.94 106.11 266.94 107.83 266.03 107.83 266.03 106.11 263.62 106.11 263.62 109.55 269.35 109.55 269.35 106.11 266.94 106.11"/><rect class="cls-4" x="246.45" y="108.74" width="22.9" height="1.6"/><rect class="cls-4" x="246.51" y="108.37" width="0.46" height="2.34" rx="0.23" ry="0.23"/><rect class="cls-4" x="246.96" y="108.37" width="0.46" height="2.34" rx="0.23" ry="0.23"/><rect class="cls-4" x="263.16" y="108.37" width="0.46" height="2.34" rx="0.23" ry="0.23"/><path class="cls-4" d="M360.74,117h0a3.43,3.43,0,0,0-3.43,3.44v.23a.92.92,0,1,0,0,1.83v.23a3.42,3.42,0,0,0,3.43,3.43h0a3.42,3.42,0,0,0,3.43-3.43v-2.29A3.43,3.43,0,0,0,360.74,117Zm-3.89,4.58a.46.46,0,1,1,.46.46A.45.45,0,0,1,356.85,121.53Zm6.18,1.15a2.3,2.3,0,0,1-2.29,2.29h0a2.27,2.27,0,0,1-1.87-1,1.59,1.59,0,0,1,.08-1.93l.43-.53L359,121a1.61,1.61,0,0,1-.08-1.94,2.26,2.26,0,0,1,1.87-1h0a2.29,2.29,0,0,1,2.29,2.29Z" transform="translate(-117.73 -11.99)"/></svg>