<svg id="Layer_1" data-name="Layer 1" xmlns="http://www.w3.org/2000/svg" viewBox="0 0 268.03 223.1"><defs><style>.cls-1{fill:#153267;}.cls-2,.cls-8{fill:#005ac8;stroke:#153267;}.cls-10,.cls-11,.cls-12,.cls-13,.cls-14,.cls-15,.cls-16,.cls-2,.cls-4,.cls-5,.cls-6,.cls-7,.cls-8,.cls-9{stroke-miterlimit:10;}.cls-2{stroke-width:0.49px;}.cls-3{fill:#5c0015;}.cls-10,.cls-4{fill:#aa0a3c;stroke:#5c0015;}.cls-4{stroke-width:0.49px;}.cls-5{fill:#999;stroke-width:0.25px;}.cls-12,.cls-13,.cls-14,.cls-15,.cls-5,.cls-6,.cls-7{stroke:#000;}.cls-13,.cls-6{fill:#ccc;}.cls-12,.cls-14,.cls-6,.cls-7{stroke-width:0.25px;}.cls-7{fill:#e6e6e6;}.cls-10,.cls-11,.cls-8,.cls-9{stroke-width:0.27px;}.cls-9{fill:#000037;stroke:#00001e;}.cls-11{fill:#500000;stroke:#2a0000;}.cls-12{fill:#fae6be;}.cls-13{stroke-width:0.22px;}.cls-14{fill:#333;}.cls-15{fill:none;stroke-width:2px;}.cls-16{fill:#f2f2f2;stroke:#333;}</style></defs><title>lockbox</title><path class="cls-1" d="M91.81,38.62c-.48,0-1,0-1.5,0s-.88,0-1.38,0c-.07,0-.07-.14,0-.14.66,0,.75-.2.35-1l-.81-1.62h-3l-.47,1c-.43,1,.07,1.56,1,1.56.07,0,.07.14,0,.14-.48,0-.8,0-1.41,0s-.9,0-1.44,0c-.06,0-.06-.14,0-.14.64,0,.94-.32,1.56-1.68l2.6-5.72s.19-.06.21,0l3,5.9c.57,1.14.88,1.5,1.27,1.5C91.89,38.48,91.89,38.62,91.81,38.62Zm-3.52-3.08-1.38-2.73-1.24,2.73Z" transform="translate(-45.94 -29.93)"/><path class="cls-1" d="M94.18,35.7c.59.33,1.26.66,1.26,1.49a1.62,1.62,0,0,1-1.79,1.57,2.31,2.31,0,0,1-1.24-.33.17.17,0,0,1-.08-.14l0-1.19c0-.05.13-.06.14,0,.26.78.92,1.44,1.54,1.44.32,0,.55-.19.55-.61,0-.66-.52-1-1-1.24s-1.19-.59-1.19-1.43c0-1,.86-1.36,1.74-1.36a2.42,2.42,0,0,1,1,.18.15.15,0,0,1,.11.13c0,.32,0,.64,0,1.06,0,0-.15,0-.15,0a1.44,1.44,0,0,0-1.32-1.15.43.43,0,0,0-.49.47C93.22,35.09,93.68,35.4,94.18,35.7Z" transform="translate(-45.94 -29.93)"/><path class="cls-1" d="M98.15,35.7c.59.33,1.26.66,1.26,1.49a1.62,1.62,0,0,1-1.78,1.57,2.35,2.35,0,0,1-1.25-.33.16.16,0,0,1-.07-.14l0-1.19c0-.05.13-.06.15,0A1.93,1.93,0,0,0,98,38.52c.33,0,.55-.19.55-.61,0-.66-.51-1-1-1.24s-1.19-.59-1.19-1.43c0-1,.86-1.36,1.74-1.36a2.4,2.4,0,0,1,1,.18.13.13,0,0,1,.11.13c0,.32,0,.64,0,1.06,0,0-.15,0-.15,0a1.44,1.44,0,0,0-1.32-1.15.43.43,0,0,0-.49.47C97.19,35.09,97.65,35.4,98.15,35.7Z" transform="translate(-45.94 -29.93)"/><path class="cls-1" d="M104.88,38.11l-1.23.59-.12,0c-.24,0-.52-.26-.61-.75l-.52.36a1.6,1.6,0,0,1-1.05.38c-.71,0-1-.34-1-.86,0-.8.75-.93,1.5-1.2l1.08-.4v-.68c0-1-.14-1.47-.55-1.47-.6,0-.7.69-.72,1,0,.49-.3.67-.7.67s-.57-.21-.57-.46c0-.78,1.61-1.42,2.48-1.42.66,0,1.19.39,1.19,1.33v2.12c0,.47.18.73.48.73a.83.83,0,0,0,.35-.08C104.9,38,105,38.07,104.88,38.11Zm-2-.35a.71.71,0,0,1,0-.15V36.45l-.52.24c-.2.09-.74.23-.74.77a.6.6,0,0,0,.61.61.66.66,0,0,0,.4-.13Z" transform="translate(-45.94 -29.93)"/><path class="cls-1" d="M108.83,37.91a2.42,2.42,0,0,1-1.75.86c-.59,0-1.27-.23-1.27-1.1V35c0-.5-.16-.66-.61-.66-.06,0-.06-.21,0-.21a1.58,1.58,0,0,0,1.57-1c0-.06.18-.06.18,0v1c.5,0,1-.05,1.56-.11,0,0,.08.15.08.29s-.07.36-.13.34a7.87,7.87,0,0,0-1.51-.18v2.84a.79.79,0,0,0,.85.89,1.59,1.59,0,0,0,.94-.36S108.89,37.86,108.83,37.91Z" transform="translate(-45.94 -29.93)"/><path class="cls-1" d="M114,38.11l-1.24.59-.12,0c-.24,0-.51-.26-.61-.75l-.52.36a1.58,1.58,0,0,1-1,.38c-.71,0-1-.34-1-.86,0-.8.74-.93,1.49-1.2l1.08-.4v-.68c0-1-.14-1.47-.55-1.47-.6,0-.69.69-.72,1,0,.49-.3.67-.69.67s-.58-.21-.58-.46c0-.78,1.61-1.42,2.48-1.42.66,0,1.19.39,1.19,1.33v2.12c0,.47.18.73.48.73a.8.8,0,0,0,.35-.08C114,38,114,38.07,114,38.11Zm-2-.35a.36.36,0,0,1,0-.15V36.45l-.51.24c-.21.09-.75.23-.75.77a.6.6,0,0,0,.62.61.64.64,0,0,0,.39-.13Z" transform="translate(-45.94 -29.93)"/><polygon class="cls-2" points="77.59 23.12 77.59 26.43 75.83 26.43 75.83 23.12 71.19 23.12 71.19 29.74 82.23 29.74 82.23 23.12 77.59 23.12"/><rect class="cls-2" x="38.08" y="28.2" width="44.15" height="3.09"/><rect class="cls-2" x="38.19" y="27.49" width="0.88" height="4.51" rx="0.44" ry="0.44"/><rect class="cls-2" x="39.07" y="27.49" width="0.88" height="4.51" rx="0.44" ry="0.44"/><rect class="cls-2" x="70.31" y="27.49" width="0.88" height="4.51" rx="0.44" ry="0.44"/><path class="cls-2" d="M77.39,50.84h0a6.63,6.63,0,0,0-6.62,6.63v.44a1.77,1.77,0,0,0,0,3.53v.44a6.62,6.62,0,0,0,6.62,6.62h0A6.62,6.62,0,0,0,84,61.88V57.47A6.63,6.63,0,0,0,77.39,50.84Zm-7.5,8.83a.89.89,0,0,1,1.77,0,.89.89,0,1,1-1.77,0Zm11.92,2.21a4.41,4.41,0,0,1-4.42,4.41h0a4.42,4.42,0,0,1-3.61-1.87,3.12,3.12,0,0,1,.16-3.73l.83-1-.83-1a3.11,3.11,0,0,1-.16-3.72,4.4,4.4,0,0,1,3.61-1.88h0a4.42,4.42,0,0,1,4.42,4.42Z" transform="translate(-45.94 -29.93)"/><path class="cls-3" d="M270,36.45c0,1.26-1.19,2.22-2.77,2.22-.44,0-1.19-.07-1.73-.07l-1.53,0s0-.14,0-.14c.68,0,.87-.13.87-.83V32.1c0-.68-.18-.83-.85-.83,0,0,0-.14,0-.14.42,0,.93,0,1.51,0s1-.08,1.47-.08c1.44,0,2.29.53,2.29,1.55a2,2,0,0,1-1.46,1.78C269.18,34.58,270,35.38,270,36.45Zm-3.82-4.33V34.4l.48,0c.87,0,1.3-.75,1.3-1.67s-.42-1.39-1.17-1.39C266.37,31.36,266.22,31.54,266.22,32.12Zm2.41,4.62c0-1.17-.54-2-1.78-2-.12,0-.35,0-.63,0v2.89c0,.48.1.72.84.72C268.16,38.37,268.63,37.79,268.63,36.74Z" transform="translate(-45.94 -29.93)"/><path class="cls-3" d="M271.05,36.25a2.48,2.48,0,0,1,2.66-2.41,2.4,2.4,0,0,1,2.43,2.48,2.51,2.51,0,0,1-2.64,2.46A2.41,2.41,0,0,1,271.05,36.25Zm3.77.49c0-1.75-.75-2.65-1.52-2.65s-1,.55-1,1.72c0,1.64.67,2.72,1.53,2.72C274.5,38.53,274.82,37.88,274.82,36.74Z" transform="translate(-45.94 -29.93)"/><path class="cls-3" d="M282.34,36.07a2.55,2.55,0,0,1-2.6,2.71,2.85,2.85,0,0,1-1.69-.56l-1.09.49c-.07,0-.11-.09,0-.11a1.22,1.22,0,0,0,.59-1.21V31.56c0-.54-.08-.78-.36-.78a1.27,1.27,0,0,0-.44.13c-.06,0-.12-.13-.08-.14l1.75-.83h.06a.23.23,0,0,1,.19.16v4.55a2.44,2.44,0,0,1,1.72-.8A2,2,0,0,1,282.34,36.07Zm-1.24.47c0-1.44-.53-2.06-1.32-2.06a2.16,2.16,0,0,0-1.16.4v1.77c0,1.42.87,1.89,1.41,1.89C280.73,38.54,281.1,37.8,281.1,36.54Z" transform="translate(-45.94 -29.93)"/><path class="cls-3" d="M288.53,36.07a2.55,2.55,0,0,1-2.59,2.71,2.81,2.81,0,0,1-1.69-.56l-1.1.49c-.07,0-.1-.09,0-.11a1.24,1.24,0,0,0,.58-1.21V31.56c0-.54-.08-.78-.36-.78a1.27,1.27,0,0,0-.44.13c-.06,0-.12-.13-.08-.14l1.75-.83h.06a.23.23,0,0,1,.19.16v4.55a2.44,2.44,0,0,1,1.73-.8A2,2,0,0,1,288.53,36.07Zm-1.24.47c0-1.44-.53-2.06-1.32-2.06a2.19,2.19,0,0,0-1.16.4v1.77c0,1.42.88,1.89,1.41,1.89C286.92,38.54,287.29,37.8,287.29,36.54Z" transform="translate(-45.94 -29.93)"/><path class="cls-3" d="M294.2,34.14c-.54,0-.88.5-1.17,1.28L291.7,39c-.88,2.32-1.6,3-2.51,3-.47,0-.74-.21-.74-.59a.53.53,0,0,1,.57-.57c.41,0,.48.32.88.32s.89-.57,1.53-2.3L289.51,35c-.34-.69-.49-.85-.77-.85-.05,0-.05-.14,0-.14l1,0,1.35,0s0,.14,0,.14c-.57,0-.71.11-.53.47L292,37.5l.71-2.09c.27-.78,0-1.27-.63-1.27,0,0,0-.14,0-.14l1.21,0,.92,0S294.24,34.14,294.2,34.14Z" transform="translate(-45.94 -29.93)"/><polygon class="cls-4" points="257.77 23.11 257.77 26.43 256.01 26.43 256.01 23.11 251.37 23.11 251.37 29.74 262.42 29.74 262.42 23.11 257.77 23.11"/><rect class="cls-4" x="218.19" y="28.2" width="44.23" height="3.1"/><rect class="cls-4" x="218.3" y="27.48" width="0.88" height="4.52" rx="0.44" ry="0.44"/><rect class="cls-4" x="219.19" y="27.48" width="0.88" height="4.52" rx="0.44" ry="0.44"/><rect class="cls-4" x="250.48" y="27.48" width="0.88" height="4.52" rx="0.44" ry="0.44"/><path class="cls-4" d="M257.5,50.83h0a6.63,6.63,0,0,0-6.63,6.63v.44a1.77,1.77,0,0,0,0,3.54v.44a6.63,6.63,0,0,0,6.63,6.64h0a6.63,6.63,0,0,0,6.63-6.64V57.46A6.63,6.63,0,0,0,257.5,50.83ZM250,59.67a.89.89,0,1,1,.89.89A.88.88,0,0,1,250,59.67Zm11.94,2.21a4.42,4.42,0,0,1-4.42,4.43h0a4.43,4.43,0,0,1-3.62-1.88,3.11,3.11,0,0,1,.16-3.74l.83-1-.83-1a3.09,3.09,0,0,1-.16-3.73A4.41,4.41,0,0,1,257.5,53h0a4.42,4.42,0,0,1,4.42,4.42Z" transform="translate(-45.94 -29.93)"/><rect class="cls-5" x="18.14" y="76.27" width="69.12" height="30.6"/><rect class="cls-6" x="16.7" y="70.87" width="72" height="5.4" rx="0.9" ry="0.9"/><rect class="cls-6" x="16.7" y="63.67" width="72" height="7.2" rx="0.9" ry="0.9"/><rect class="cls-6" x="16.7" y="106.87" width="72" height="7.2" rx="0.9" ry="0.9"/><rect class="cls-5" x="197.35" y="98.77" width="69.12" height="30.6"/><rect class="cls-6" x="195.91" y="93.37" width="72" height="5.4" rx="0.9" ry="0.9"/><rect class="cls-6" x="195.91" y="86.17" width="72" height="7.2" rx="0.9" ry="0.9"/><rect class="cls-6" x="195.91" y="129.37" width="72" height="7.2" rx="0.9" ry="0.9"/><path class="cls-7" d="M225.52,93.37h14.54a0,0,0,0,1,0,0v9.28a5.12,5.12,0,0,1-5.12,5.12h-4.31a5.12,5.12,0,0,1-5.12-5.12V93.37A0,0,0,0,1,225.52,93.37Z"/><path class="cls-8" d="M275.09,131a5.25,5.25,0,1,0,2.7,6.92A5.26,5.26,0,0,0,275.09,131Zm-3.51,8a3.5,3.5,0,1,1,4.61-1.81A3.51,3.51,0,0,1,271.58,139Z" transform="translate(-45.94 -29.93)"/><path class="cls-8" d="M264.92,135.2h10.5a1.75,1.75,0,0,1,1.75,1.75v5.25a7,7,0,0,1-7,7h0a7,7,0,0,1-7-7V137a1.75,1.75,0,0,1,1.75-1.75Z" transform="translate(33.71 -126.3) rotate(23.63)"/><path class="cls-9" d="M272.07,141.37a1.4,1.4,0,0,0-2.57-1.12,1.39,1.39,0,0,0,.05,1.21l-1.23,2.8,1.6.7,1.23-2.8A1.39,1.39,0,0,0,272.07,141.37Z" transform="translate(-45.94 -29.93)"/><path class="cls-10" d="M282.79,130.7a5.25,5.25,0,1,0,6.65,3.3A5.27,5.27,0,0,0,282.79,130.7Zm2.79,8.3a3.5,3.5,0,1,1,2.2-4.44A3.51,3.51,0,0,1,285.58,139Z" transform="translate(-45.94 -29.93)"/><path class="cls-10" d="M281.45,135.31h10.5a1.75,1.75,0,0,1,1.75,1.75v5.25a7,7,0,0,1-7,7h0a7,7,0,0,1-7-7v-5.25a1.75,1.75,0,0,1,1.75-1.75Z" transform="translate(-76.37 69.03) rotate(-18.62)"/><path class="cls-11" d="M287.54,140.43a1.4,1.4,0,1,0-1.81,1.76l1,2.89,1.66-.56-1-2.89A1.41,1.41,0,0,0,287.54,140.43Z" transform="translate(-45.94 -29.93)"/><rect class="cls-12" x="228.43" y="103.39" width="8.72" height="0.9" rx="0.45" ry="0.45"/><rect class="cls-5" x="18.14" y="162.67" width="69.12" height="30.6"/><rect class="cls-6" x="16.7" y="157.27" width="72" height="5.4" rx="0.9" ry="0.9"/><rect class="cls-6" x="16.7" y="150.07" width="72" height="7.2" rx="0.9" ry="0.9"/><rect class="cls-6" x="16.7" y="193.27" width="72" height="7.2" rx="0.9" ry="0.9"/><rect class="cls-5" x="197.35" y="185.17" width="69.12" height="30.6"/><rect class="cls-6" x="195.91" y="179.77" width="72" height="5.4" rx="0.9" ry="0.9"/><rect class="cls-12" x="227.55" y="189.79" width="8.72" height="0.9" rx="0.45" ry="0.45"/><path class="cls-13" d="M313,199.68H242.65a.8.8,0,0,1-.8-.8l.63-4.15a.81.81,0,0,1,.81-.81h69.12a.8.8,0,0,1,.8.81l.64,4.15A.8.8,0,0,1,313,199.68Z" transform="translate(-45.94 -29.93)"/><rect class="cls-6" x="195.91" y="215.77" width="72" height="7.2" rx="0.9" ry="0.9"/><path class="cls-7" d="M280,185.28h-4.31a5.11,5.11,0,0,0-5.11,5.12v9.28h14.53V190.4A5.11,5.11,0,0,0,280,185.28Zm1.76,4.53h-7.82a.45.45,0,0,1-.45-.45.45.45,0,0,1,.45-.45h7.82a.45.45,0,0,1,.45.45A.45.45,0,0,1,281.76,189.81Z" transform="translate(-45.94 -29.93)"/><polygon class="cls-14" points="264.31 179.77 199.51 179.77 197.35 169.75 266.47 169.75 264.31 179.77"/><path class="cls-7" d="M45.62,70.87H60.15a0,0,0,0,1,0,0v9.28A5.12,5.12,0,0,1,55,85.27H50.73a5.12,5.12,0,0,1-5.12-5.12V70.87A0,0,0,0,1,45.62,70.87Z"/><path class="cls-8" d="M95.18,108.48a5.25,5.25,0,1,0,2.71,6.92A5.26,5.26,0,0,0,95.18,108.48Zm-3.51,8a3.5,3.5,0,1,1,4.61-1.81A3.5,3.5,0,0,1,91.67,116.5Z" transform="translate(-45.94 -29.93)"/><path class="cls-8" d="M85,112.7h10.5a1.75,1.75,0,0,1,1.75,1.75v5.25a7,7,0,0,1-7,7h0a7,7,0,0,1-7-7v-5.25A1.75,1.75,0,0,1,85,112.7Z" transform="translate(9.61 -56.07) rotate(23.63)"/><path class="cls-9" d="M92.16,118.87a1.4,1.4,0,1,0-2.52.09l-1.22,2.8,1.6.7,1.22-2.8A1.37,1.37,0,0,0,92.16,118.87Z" transform="translate(-45.94 -29.93)"/><rect class="cls-12" x="48.52" y="80.89" width="8.72" height="0.9" rx="0.45" ry="0.45"/><path class="cls-7" d="M45.52,157.27H60.06a0,0,0,0,1,0,0v9.28a5.12,5.12,0,0,1-5.12,5.12H50.64a5.12,5.12,0,0,1-5.12-5.12v-9.28A0,0,0,0,1,45.52,157.27Z"/><path class="cls-10" d="M102.79,194.6a5.25,5.25,0,1,0,6.65,3.3A5.26,5.26,0,0,0,102.79,194.6Zm2.79,8.3a3.5,3.5,0,1,1,2.2-4.44A3.51,3.51,0,0,1,105.58,202.9Z" transform="translate(-45.94 -29.93)"/><path class="cls-10" d="M101.45,199.21h10.5A1.75,1.75,0,0,1,113.7,201v5.25a7,7,0,0,1-7,7h0a7,7,0,0,1-7-7V201A1.75,1.75,0,0,1,101.45,199.21Z" transform="translate(-106.18 14.92) rotate(-18.62)"/><path class="cls-11" d="M107.54,204.33a1.4,1.4,0,0,0-2.66.89,1.44,1.44,0,0,0,.85.87l1,2.89,1.65-.56-1-2.89A1.41,1.41,0,0,0,107.54,204.33Z" transform="translate(-45.94 -29.93)"/><rect class="cls-12" x="48.43" y="167.29" width="8.72" height="0.9" rx="0.45" ry="0.45"/><line class="cls-15" x1="106.61" y1="91.58" x2="174.01" y2="112.64"/><path d="M224.55,144a24,24,0,0,0-7.66,1.59l2.45-3.22-.18-4A24.3,24.3,0,0,0,224.55,144Z" transform="translate(-45.94 -29.93)"/><line class="cls-15" x1="176.26" y1="131.6" x2="110.52" y2="158.63"/><path d="M152,190.4a24.45,24.45,0,0,0,4.88-6.12l.17,4,2.72,3A23.85,23.85,0,0,0,152,190.4Z" transform="translate(-45.94 -29.93)"/><line class="cls-15" x1="105.42" y1="177.97" x2="172.82" y2="199.03"/><path d="M223.36,230.4A24.32,24.32,0,0,0,215.7,232l2.45-3.22-.18-4A24.3,24.3,0,0,0,223.36,230.4Z" transform="translate(-45.94 -29.93)"/><circle class="cls-16" cx="7.7" cy="52.87" r="7.2"/><circle class="cls-16" cx="185.81" cy="75.37" r="7.2"/><circle class="cls-16" cx="185.81" cy="163.99" r="7.2"/><circle class="cls-16" cx="7.7" cy="141.49" r="7.2"/><path d="M54.48,85.11c0,1,.07,1.08.66,1.13l.49,0c.11.07.09.39,0,.42-.43,0-1.15,0-1.89,0s-1.51,0-1.94,0c-.12,0-.14-.35,0-.42l.49,0c.59,0,.66-.17.66-1.13V81.23c0-.79,0-1-.57-1l-.55-.07a.33.33,0,0,1,0-.42,11.77,11.77,0,0,0,1.54-.34c.52-.15,1-.38,1.06-.38a.18.18,0,0,1,.17.13c0,.28,0,.83,0,1.43Z" transform="translate(-45.94 -29.93)"/><path d="M232.74,107.92c.87,0,1,0,1.36-.66.09-.08.36-.08.41.07a5.33,5.33,0,0,1-.59,1.86c-.48,0-.91,0-1.68,0h-1.9c-.63,0-1.14,0-1.35,0s-.14-.15-.12-.26c.46-.42,1.14-1.06,1.86-1.85a4.83,4.83,0,0,0,1.57-3.2,1.32,1.32,0,0,0-1.3-1.46,1.81,1.81,0,0,0-1.55,1.1.27.27,0,0,1-.4-.17,3,3,0,0,1,2.76-1.87,2.08,2.08,0,0,1,2.27,2c0,.93-.37,1.61-1.81,3l-.58.54c-.53.49-.63.66-.63.76s.06.14.22.14Z" transform="translate(-45.94 -29.93)"/><path d="M51.6,169.35a.26.26,0,0,1-.34-.23,2.73,2.73,0,0,1,2.51-1.52c1.17,0,1.91.58,1.91,1.38,0,.49-.21,1-1.52,1.55-.13.06,0,.15.11.15a1.87,1.87,0,0,1,2,1.86A3,3,0,0,1,54.91,175a5,5,0,0,1-2.77,1c-.65,0-1.3-.24-1.3-.85a.66.66,0,0,1,.72-.66c.43,0,.7.48.81.63a.58.58,0,0,0,.51.28,2,2,0,0,0,1.61-2.16c0-1.07-.55-1.83-1.41-1.83a1.71,1.71,0,0,0-1.18.5.41.41,0,0,1-.28-.58,7.94,7.94,0,0,0,1.93-1,1.39,1.39,0,0,0,.51-1.08.93.93,0,0,0-1-.87A2,2,0,0,0,51.6,169.35Z" transform="translate(-45.94 -29.93)"/><path d="M232,195.89c0-.31,0-.34-.27-.34h-2.77a.3.3,0,0,1-.13-.39l3.89-5.56c.14-.19.23-.29.4-.29h.35c.2,0,.3.08.12.32l-3.6,5c-.11.16-.12.26.26.26h1.48c.25,0,.27,0,.27-.35v-1.68c0-.28.08-.36.27-.43a5,5,0,0,1,1.16-.38c.11,0,.16.09.16.21v2.28c0,.31,0,.35.27.35h.8c.18.09.18.56,0,.67h-.8c-.25,0-.27,0-.27.34v.34c0,1,.07,1.09.6,1.14l.25,0c.11.08.1.39,0,.42-.44,0-1.07,0-1.62,0-.8,0-1.51,0-1.92,0-.12,0-.13-.34,0-.42l.49,0c.59-.05.66-.15.66-1.13Z" transform="translate(-45.94 -29.93)"/></svg>