<?xml version="1.0" encoding="UTF-8" standalone="no"?>
<!-- Generator: Adobe Illustrator 22.1.0, SVG Export Plug-In . SVG Version: 6.00 Build 0)  -->

<svg
   xmlns:dc="http://purl.org/dc/elements/1.1/"
   xmlns:cc="http://creativecommons.org/ns#"
   xmlns:rdf="http://www.w3.org/1999/02/22-rdf-syntax-ns#"
   xmlns:svg="http://www.w3.org/2000/svg"
   xmlns="http://www.w3.org/2000/svg"
   xmlns:sodipodi="http://sodipodi.sourceforge.net/DTD/sodipodi-0.dtd"
   xmlns:inkscape="http://www.inkscape.org/namespaces/inkscape"
   version="1.1"
   id="Layer_1"
   x="0px"
   y="0px"
   viewBox="0 0 505.90176 352.67099"
   xml:space="preserve"
   sodipodi:docname="mitm-impersonation.svg"
   width="505.90176"
   height="352.67099"
   inkscape:version="0.92.3 (2405546, 2018-03-11)"
   inkscape:export-filename="/home/user/pseuonix--git.20180720/hifi-images--working/mitm-impersonation.png"
   inkscape:export-xdpi="600"
   inkscape:export-ydpi="600"><metadata
   id="metadata443"><rdf:RDF><cc:Work
       rdf:about=""><dc:format>image/svg+xml</dc:format><dc:type
         rdf:resource="http://purl.org/dc/dcmitype/StillImage" /></cc:Work></rdf:RDF></metadata><defs
   id="defs441" /><sodipodi:namedview
   pagecolor="#ffffff"
   bordercolor="#666666"
   borderopacity="1"
   objecttolerance="10"
   gridtolerance="10"
   guidetolerance="10"
   inkscape:pageopacity="0"
   inkscape:pageshadow="2"
   inkscape:window-width="1592"
   inkscape:window-height="1739"
   id="namedview439"
   showgrid="false"
   inkscape:zoom="1.625"
   inkscape:cx="255.10474"
   inkscape:cy="114.51453"
   inkscape:window-x="1604"
   inkscape:window-y="57"
   inkscape:window-maximized="0"
   inkscape:current-layer="Layer_1" />
<style
   type="text/css"
   id="style2">
	.st0{fill:#153267;}
	.st1{fill:#005AC8;stroke:#153267;stroke-width:0.4911;stroke-miterlimit:10;}
	.st2{fill:#006B33;}
	.st3{fill:#0AB45A;stroke:#006B33;stroke-width:0.4905;stroke-miterlimit:10;}
	.st4{fill:#999999;stroke:#000000;stroke-width:0.2513;stroke-miterlimit:10;}
	.st5{fill:#CCCCCC;stroke:#000000;stroke-width:0.25;stroke-miterlimit:10;}
	.st6{fill:#E6E6E6;stroke:#000000;stroke-width:0.25;stroke-miterlimit:10;}
	.st7{fill:#0AB45A;stroke:#006B33;stroke-width:0.1964;stroke-miterlimit:10;}
	.st8{fill:#004F21;stroke:#002D0A;stroke-width:0.1964;stroke-miterlimit:10;}
	.st9{fill:#FAE6BE;stroke:#000000;stroke-width:0.25;stroke-miterlimit:10;}
	.st10{fill:#F2F2F2;stroke:#333333;stroke-miterlimit:10;}
	.st11{fill:none;stroke:#000000;stroke-width:2;stroke-miterlimit:10;}
	.st12{fill:none;stroke:#000000;stroke-width:2;stroke-miterlimit:10;stroke-dasharray:8,6;}
	.st13{fill:none;stroke:#AA0A3C;stroke-width:2;stroke-miterlimit:10;}
	.st14{fill:#5C0015;}
	.st15{fill:#AA0A3C;stroke:#5C0015;stroke-width:0.4914;stroke-miterlimit:10;}
	.st16{fill:#005AC8;stroke:#153267;stroke-width:0.2673;stroke-miterlimit:10;}
	.st17{fill:#000037;stroke:#00001E;stroke-width:0.2673;stroke-miterlimit:10;}
	.st18{fill:#CCCCCC;stroke:#000000;stroke-width:0.2236;stroke-miterlimit:10;}
	.st19{fill:#333333;stroke:#000000;stroke-width:0.25;stroke-miterlimit:10;}
	.st20{fill:#AA0A3C;stroke:#5C0015;stroke-width:0.2673;stroke-miterlimit:10;}
	.st21{fill:#500000;stroke:#2A0000;stroke-width:0.2673;stroke-miterlimit:10;}
</style>
<g
   id="Assata"
   transform="translate(3.1047366,-1.8183404)">
	<g
   id="g16">
		<path
   class="st0"
   d="m 50.9,20.5 c -0.3,0 -0.3,0 -0.4,0.2 L 50,22.1 c 0,0.2 0,0.3 0,0.4 0,0.1 0.2,0.1 0.5,0.2 l 0.4,0.1 c 0.1,0.1 0.1,0.4 0,0.4 -0.4,0 -0.9,0 -1.4,0 -0.4,0 -0.7,0 -1.2,0 -0.1,-0.1 -0.1,-0.3 0,-0.4 h 0.3 c 0.3,0 0.5,-0.1 0.7,-0.6 0.2,-0.5 0.4,-1.1 0.8,-1.9 l 1.1,-2.9 c 0.3,-0.8 0.5,-1.2 0.4,-1.5 0.6,-0.1 1,-0.7 1,-0.7 0.2,0 0.2,0.1 0.3,0.2 0.1,0.3 0.2,0.8 0.5,1.6 l 1.6,4.7 c 0.3,0.7 0.4,1 0.8,1.1 l 0.5,0.1 c 0.1,0.1 0.1,0.3 0,0.4 -0.6,0 -1.2,0 -1.8,0 -0.6,0 -1.1,0 -1.6,0 -0.1,-0.1 -0.2,-0.3 0,-0.4 l 0.4,-0.1 c 0.3,0 0.3,-0.1 0.3,-0.2 0,-0.1 -0.1,-0.4 -0.2,-0.8 l -0.3,-1 C 53,20.6 52.9,20.6 52.5,20.6 h -1.6 z m 1.4,-0.7 c 0.3,0 0.3,0 0.2,-0.3 l -0.3,-1 C 52,18 51.8,17.3 51.7,17.1 51.6,17.4 51.4,18 51.2,18.6 l -0.3,0.9 c -0.1,0.3 0,0.4 0.3,0.4 h 1.1 z"
   id="path4"
   inkscape:connector-curvature="0"
   style="fill:#153267" />
		<path
   class="st0"
   d="m 56.5,23 c -0.1,-0.2 -0.2,-0.8 -0.2,-1.4 0.1,-0.1 0.3,-0.1 0.4,0 0.2,0.5 0.6,1.2 1.2,1.2 0.4,0 0.6,-0.2 0.6,-0.6 0,-0.4 -0.4,-0.7 -0.8,-0.9 -0.7,-0.4 -1.2,-0.8 -1.2,-1.5 0,-1 0.9,-1.5 1.9,-1.5 0.6,0 1.2,0.2 1.3,0.3 0.1,0.3 0.2,0.7 0.2,1.2 0,0.1 -0.3,0.1 -0.4,0 -0.2,-0.7 -0.5,-0.9 -0.9,-0.9 -0.3,0 -0.6,0.2 -0.6,0.5 0,0.3 0.2,0.5 0.8,0.8 0.8,0.4 1.3,0.9 1.3,1.7 0,1.1 -0.9,1.6 -2.1,1.6 -0.7,-0.2 -1.2,-0.3 -1.5,-0.5 z"
   id="path6"
   inkscape:connector-curvature="0"
   style="fill:#153267" />
		<path
   class="st0"
   d="m 60.8,23 c -0.1,-0.2 -0.2,-0.8 -0.2,-1.4 0.1,-0.1 0.3,-0.1 0.4,0 0.2,0.5 0.6,1.2 1.2,1.2 0.4,0 0.6,-0.2 0.6,-0.6 0,-0.4 -0.4,-0.7 -0.8,-0.9 -0.7,-0.4 -1.2,-0.8 -1.2,-1.5 0,-1 0.9,-1.5 1.9,-1.5 0.6,0 1.2,0.2 1.3,0.3 0.1,0.3 0.2,0.7 0.2,1.2 0,0.1 -0.3,0.1 -0.4,0 -0.2,-0.7 -0.5,-0.9 -0.9,-0.9 -0.3,0 -0.6,0.2 -0.6,0.5 0,0.3 0.2,0.5 0.8,0.8 0.8,0.4 1.3,0.9 1.3,1.7 0,1.1 -0.9,1.6 -2.1,1.6 -0.7,-0.2 -1.2,-0.3 -1.5,-0.5 z"
   id="path8"
   inkscape:connector-curvature="0"
   style="fill:#153267" />
		<path
   class="st0"
   d="m 69.1,21.5 c 0,0.8 0.3,1 0.5,1 0.1,0 0.3,0 0.5,-0.1 0.1,0 0.2,0.2 0.1,0.3 -0.1,0.2 -0.7,0.6 -1.4,0.6 -0.4,0 -0.7,-0.1 -1,-0.4 -0.1,-0.1 -0.1,-0.1 -0.2,-0.1 -0.1,0 -0.1,0 -0.3,0.1 -0.2,0.2 -0.6,0.4 -1,0.4 -0.7,0 -1.3,-0.4 -1.3,-1.3 0,-0.6 0.4,-1 1.2,-1.2 0.5,-0.1 0.8,-0.2 1.1,-0.3 0.2,-0.1 0.3,-0.1 0.3,-0.2 0,-0.1 0,-0.3 0,-0.4 0,-0.5 -0.2,-1 -0.7,-1 -0.3,0 -0.5,0.2 -0.6,0.7 0,0.2 -0.1,0.3 -0.2,0.4 -0.2,0.1 -0.6,0.3 -0.9,0.3 -0.2,0 -0.3,-0.1 -0.3,-0.3 0,-0.3 0.3,-0.7 0.6,-0.9 0.4,-0.3 1.2,-0.7 2,-0.7 1,0 1.6,0.5 1.5,1.7 z m -1.5,-0.3 c 0,-0.2 0,-0.2 -0.1,-0.2 -0.5,0.1 -1,0.3 -1,0.8 0,0.4 0.3,0.7 0.6,0.7 0.4,0 0.4,-0.2 0.5,-0.6 z"
   id="path10"
   inkscape:connector-curvature="0"
   style="fill:#153267" />
		<path
   class="st0"
   d="m 72.6,19 c -0.2,0 -0.2,0 -0.2,0.3 v 1.8 c 0,0.7 0,1.4 0.8,1.4 0.2,0 0.4,-0.1 0.5,-0.2 0.1,0 0.2,0.2 0.2,0.3 -0.3,0.4 -1,0.7 -1.7,0.7 -1,0 -1.3,-0.6 -1.3,-1.4 v -2.7 c 0,-0.3 0,-0.3 -0.2,-0.3 h -0.4 c -0.1,0 -0.2,-0.3 -0.1,-0.4 0.4,-0.1 0.7,-0.3 1,-0.5 0.2,-0.2 0.5,-0.4 0.9,-0.9 0.1,0 0.3,0 0.4,0.1 v 0.9 c 0,0.2 0,0.2 0.2,0.2 h 1.1 c 0.1,0 0.1,0.1 0.1,0.2 0,0.1 0,0.3 -0.2,0.4 h -1.1 z"
   id="path12"
   inkscape:connector-curvature="0"
   style="fill:#153267" />
		<path
   class="st0"
   d="m 78.3,21.5 c 0,0.8 0.3,1 0.5,1 0.1,0 0.3,0 0.5,-0.1 0.1,0 0.2,0.2 0.1,0.3 -0.1,0.2 -0.7,0.6 -1.4,0.6 -0.4,0 -0.7,-0.1 -1,-0.4 -0.1,-0.1 -0.1,-0.1 -0.2,-0.1 -0.1,0 -0.1,0 -0.3,0.1 -0.2,0.2 -0.6,0.4 -1,0.4 -0.7,0 -1.3,-0.4 -1.3,-1.3 0,-0.6 0.4,-1 1.2,-1.2 0.5,-0.1 0.8,-0.2 1.1,-0.3 0.2,-0.1 0.3,-0.1 0.3,-0.2 0,-0.1 0,-0.3 0,-0.4 0,-0.5 -0.2,-1 -0.7,-1 -0.3,0 -0.5,0.2 -0.6,0.7 0,0.2 -0.1,0.3 -0.2,0.4 -0.2,0.1 -0.6,0.3 -0.9,0.3 -0.2,0 -0.3,-0.1 -0.3,-0.3 0,-0.3 0.3,-0.7 0.6,-0.9 0.4,-0.3 1.2,-0.7 2,-0.7 1,0 1.6,0.5 1.5,1.7 z m -1.5,-0.3 c 0,-0.2 0,-0.2 -0.1,-0.2 -0.5,0.1 -1,0.3 -1,0.8 0,0.4 0.3,0.7 0.6,0.7 0.4,0 0.4,-0.2 0.5,-0.6 z"
   id="path14"
   inkscape:connector-curvature="0"
   style="fill:#153267" />
	</g>
	<g
   id="g30">
		<polygon
   class="st1"
   points="87,41.2 87,37.9 82.3,37.9 82.3,44.6 93.4,44.6 93.4,37.9 88.7,37.9 88.7,41.2 "
   id="polygon18"
   style="fill:#005ac8;stroke:#153267;stroke-width:0.49110001;stroke-miterlimit:10" />
		<rect
   x="49.200001"
   y="43"
   class="st1"
   width="44.200001"
   height="3.0999999"
   id="rect20"
   style="fill:#005ac8;stroke:#153267;stroke-width:0.49110001;stroke-miterlimit:10" />
		<path
   class="st1"
   d="m 49.7,46.8 v 0 c -0.2,0 -0.4,-0.2 -0.4,-0.4 v -3.6 c 0,-0.2 0.2,-0.4 0.4,-0.4 v 0 c 0.2,0 0.4,0.2 0.4,0.4 v 3.6 c 0.1,0.2 -0.1,0.4 -0.4,0.4 z"
   id="path22"
   inkscape:connector-curvature="0"
   style="fill:#005ac8;stroke:#153267;stroke-width:0.49110001;stroke-miterlimit:10" />
		<path
   class="st1"
   d="m 50.6,46.8 v 0 c -0.2,0 -0.4,-0.2 -0.4,-0.4 v -3.6 c 0,-0.2 0.2,-0.4 0.4,-0.4 v 0 c 0.2,0 0.4,0.2 0.4,0.4 v 3.6 c 0,0.2 -0.2,0.4 -0.4,0.4 z"
   id="path24"
   inkscape:connector-curvature="0"
   style="fill:#005ac8;stroke:#153267;stroke-width:0.49110001;stroke-miterlimit:10" />
		<path
   class="st1"
   d="m 81.9,46.8 v 0 c -0.2,0 -0.4,-0.2 -0.4,-0.4 v -3.6 c 0,-0.2 0.2,-0.4 0.4,-0.4 v 0 c 0.2,0 0.4,0.2 0.4,0.4 v 3.6 c 0,0.2 -0.2,0.4 -0.4,0.4 z"
   id="path26"
   inkscape:connector-curvature="0"
   style="fill:#005ac8;stroke:#153267;stroke-width:0.49110001;stroke-miterlimit:10" />
		<path
   class="st1"
   d="m 42.5,35.7 v 0 c -3.7,0 -6.6,3 -6.6,6.6 v 0.4 c -1,0 -1.8,0.8 -1.8,1.8 0,1 0.8,1.8 1.8,1.8 v 0.4 c 0,3.7 3,6.6 6.6,6.6 v 0 c 3.7,0 6.6,-3 6.6,-6.6 v -4.4 c 0.1,-3.6 -2.9,-6.6 -6.6,-6.6 z M 35,44.6 c 0,-0.5 0.4,-0.9 0.9,-0.9 0.5,0 0.9,0.4 0.9,0.9 0,0.5 -0.4,0.9 -0.9,0.9 C 35.4,45.5 35,45 35,44.6 Z m 12,2.2 c 0,2.4 -2,4.4 -4.4,4.4 v 0 c -1.5,0 -2.8,-0.7 -3.6,-1.9 -0.8,-1.1 -0.7,-2.7 0.2,-3.7 l 0.8,-1 -0.8,-1 C 38.3,42.5 38.2,41 39,39.9 39.8,38.8 41.1,38 42.6,38 v 0 c 2.4,0 4.4,2 4.4,4.4 z"
   id="path28"
   inkscape:connector-curvature="0"
   style="fill:#005ac8;stroke:#153267;stroke-width:0.49110001;stroke-miterlimit:10" />
	</g>
</g>
<g
   id="Edgar"
   transform="translate(3.1047366,-1.8183404)">
	<g
   id="g43">
		<path
   class="st2"
   d="m 231.3,18.4 c 0,0.3 0,0.4 0.3,0.4 h 0.8 c 0.6,0 0.8,-0.1 0.9,-0.7 l 0.1,-0.3 c 0.1,-0.1 0.4,-0.1 0.4,0 0,0.4 0,0.8 0,1.3 0,0.5 0,0.9 0,1.3 -0.1,0.1 -0.4,0.1 -0.4,0 l -0.1,-0.3 c -0.1,-0.6 -0.3,-0.7 -0.9,-0.7 h -0.8 c -0.3,0 -0.3,0 -0.3,0.4 v 1.4 c 0,0.6 0,0.9 0.2,1.1 0.2,0.2 0.4,0.3 1.3,0.3 1,0 1.5,0 2.1,-1.4 0.1,-0.1 0.4,-0.1 0.4,0.1 0,0.6 -0.3,1.6 -0.5,1.9 -0.6,0 -1.8,0 -2.8,0 h -1.6 c -0.6,0 -1.2,0 -2.1,0 -0.1,-0.1 -0.1,-0.4 0,-0.4 l 0.6,-0.1 c 0.5,-0.1 0.6,-0.2 0.6,-1.3 V 17 c 0,-1.1 -0.1,-1.2 -0.6,-1.3 l -0.3,-0.1 c -0.1,-0.1 -0.1,-0.3 0,-0.4 0.6,0 1.2,0 1.7,0 h 2.5 c 0.8,0 1.5,0 1.6,0 0,0.2 0.1,1.1 0.2,1.9 0,0.1 -0.3,0.2 -0.4,0 -0.1,-0.4 -0.3,-0.8 -0.5,-0.9 -0.2,-0.2 -0.6,-0.4 -1.2,-0.4 h -1 c -0.4,0 -0.4,0 -0.4,0.5 v 2.1 z"
   id="path33"
   inkscape:connector-curvature="0"
   style="fill:#006b33" />
		<path
   class="st2"
   d="m 240.9,21.2 c 0,1.1 0,1.4 0.3,1.4 0.2,0 0.3,0 0.5,-0.1 0.1,0.1 0.1,0.4 0,0.5 -1.2,0.1 -2.1,0.4 -2.2,0.4 -0.1,0 -0.2,-0.1 -0.2,-0.2 v -0.4 c 0,-0.1 -0.1,-0.1 -0.1,-0.1 -0.4,0.3 -0.9,0.5 -1.3,0.5 -1.4,0 -2.3,-1.1 -2.3,-2.4 0,-1.7 1.3,-2.8 2.9,-2.8 0.3,0 0.6,0 0.7,0.1 0.1,0 0.1,-0.1 0.1,-0.2 v -1.5 c 0,-0.5 0,-0.6 -0.2,-0.8 l -0.2,-0.1 c -0.1,-0.1 -0.1,-0.3 0,-0.4 0.5,-0.1 1.2,-0.4 1.8,-0.7 0.1,0 0.2,0 0.2,0.1 0,0.5 0,1 0,1.8 z m -1.6,-1.6 c 0,-0.2 0,-0.3 -0.1,-0.4 -0.1,-0.3 -0.4,-0.4 -0.7,-0.4 -0.6,0 -1.2,0.6 -1.2,1.9 0,0.8 0.4,1.9 1.3,1.9 0.2,0 0.3,0 0.5,-0.1 0.1,-0.1 0.1,-0.2 0.1,-0.5 v -2.4 z"
   id="path35"
   inkscape:connector-curvature="0"
   style="fill:#006b33" />
		<path
   class="st2"
   d="m 247.6,18.7 c 0.1,0.1 0.1,0.2 0.1,0.3 0,0.2 -0.1,0.4 -0.2,0.5 h -0.9 c 0,0.1 0,0.2 0,0.4 0,0.9 -0.6,2.1 -2.5,2.1 -0.2,0 -0.4,0 -0.5,0 -0.1,0 -0.2,0.1 -0.2,0.3 0,0.3 0.3,0.4 0.6,0.4 0.4,0 0.9,0 1.5,0 0.9,0 1.9,0.2 1.9,1.5 0,0.8 -0.5,1.4 -1.1,1.8 -0.6,0.4 -1.4,0.5 -2.1,0.5 -1.7,0 -2.4,-0.8 -2.4,-1.5 0,-0.3 0.2,-0.5 0.4,-0.6 0.2,-0.1 0.5,-0.3 0.6,-0.4 0.1,-0.1 0.1,-0.1 0,-0.2 -0.4,-0.1 -0.7,-0.5 -0.7,-1 0,-0.1 0,-0.2 0.1,-0.3 0.3,-0.2 0.7,-0.5 0.8,-0.6 0.1,-0.1 0.2,-0.2 0.1,-0.3 -0.6,-0.2 -1,-0.8 -1,-1.5 0,-1 0.8,-1.9 2.3,-1.9 0.7,0 1.3,0.2 1.8,0.4 h 1.4 z m -3.3,5.1 c -0.3,0 -0.6,0.1 -0.7,0.2 -0.1,0.1 -0.2,0.3 -0.2,0.4 0,0.8 0.6,1.3 1.6,1.3 0.8,0 1.3,-0.4 1.3,-0.9 0,-0.7 -0.5,-1 -1.2,-1 z m 0.2,-2.4 c 0.4,0 0.7,-0.3 0.7,-1.2 0,-1 -0.3,-1.4 -0.8,-1.4 -0.4,0 -0.7,0.4 -0.7,1.2 0,0.8 0.3,1.4 0.8,1.4 z"
   id="path37"
   inkscape:connector-curvature="0"
   style="fill:#006b33" />
		<path
   class="st2"
   d="m 251.9,21.5 c 0,0.8 0.3,1 0.5,1 0.1,0 0.3,0 0.5,-0.1 0.1,0 0.2,0.2 0.1,0.3 -0.1,0.2 -0.7,0.6 -1.4,0.6 -0.4,0 -0.7,-0.1 -1,-0.4 -0.1,-0.1 -0.1,-0.1 -0.2,-0.1 -0.1,0 -0.1,0 -0.3,0.1 -0.2,0.2 -0.6,0.4 -1,0.4 -0.7,0 -1.3,-0.4 -1.3,-1.3 0,-0.6 0.4,-1 1.2,-1.2 0.5,-0.1 0.8,-0.2 1.1,-0.3 0.2,-0.1 0.3,-0.1 0.3,-0.2 0,-0.1 0,-0.3 0,-0.4 0,-0.5 -0.2,-1 -0.7,-1 -0.3,0 -0.5,0.2 -0.6,0.7 0,0.2 -0.1,0.3 -0.2,0.4 -0.2,0.1 -0.6,0.3 -0.9,0.3 -0.2,0 -0.3,-0.1 -0.3,-0.3 0,-0.3 0.3,-0.7 0.6,-0.9 0.4,-0.3 1.2,-0.7 2,-0.7 1,0 1.6,0.5 1.5,1.7 z m -1.4,-0.3 c 0,-0.2 0,-0.2 -0.1,-0.2 -0.5,0.1 -1,0.3 -1,0.8 0,0.4 0.3,0.7 0.6,0.7 0.4,0 0.4,-0.2 0.5,-0.6 z"
   id="path39"
   inkscape:connector-curvature="0"
   style="fill:#006b33" />
		<path
   class="st2"
   d="m 253.8,20 c 0,-0.5 0,-0.6 -0.2,-0.8 l -0.2,-0.1 c -0.1,-0.1 -0.1,-0.3 0,-0.4 0.6,-0.2 1.4,-0.5 1.8,-0.7 0.1,0 0.2,0 0.2,0.1 0,0.2 0,0.4 0,0.5 0,0.1 0,0.1 0.1,0.1 0.3,-0.2 0.7,-0.6 1.2,-0.6 0.3,0 0.7,0.3 0.7,0.7 0,0.6 -0.4,0.8 -0.8,0.8 -0.2,0 -0.3,-0.1 -0.5,-0.2 -0.3,-0.2 -0.4,-0.2 -0.5,-0.2 -0.2,0 -0.2,0.3 -0.2,0.7 v 1.8 c 0,0.8 0,0.9 0.4,1 h 0.4 c 0.1,0.1 0.1,0.3 0,0.4 -0.6,0 -1.1,0 -1.6,0 -0.5,0 -1,0 -1.4,0 -0.1,-0.1 -0.1,-0.3 0,-0.4 h 0.2 c 0.4,0 0.4,-0.1 0.4,-1 z"
   id="path41"
   inkscape:connector-curvature="0"
   style="fill:#006b33" />
	</g>
	<g
   id="g57">
		<polygon
   class="st3"
   points="265.9,41.2 265.9,37.9 261.3,37.9 261.3,44.6 272.3,44.6 272.3,37.9 267.7,37.9 267.7,41.2 "
   id="polygon45"
   style="fill:#0ab45a;stroke:#006b33;stroke-width:0.4905;stroke-miterlimit:10" />
		<rect
   x="228.2"
   y="43"
   class="st3"
   width="44.099998"
   height="3.0999999"
   id="rect47"
   style="fill:#0ab45a;stroke:#006b33;stroke-width:0.4905;stroke-miterlimit:10" />
		<path
   class="st3"
   d="m 228.7,46.8 v 0 c -0.2,0 -0.4,-0.2 -0.4,-0.4 v -3.6 c 0,-0.2 0.2,-0.4 0.4,-0.4 v 0 c 0.2,0 0.4,0.2 0.4,0.4 v 3.6 c 0.1,0.2 -0.1,0.4 -0.4,0.4 z"
   id="path49"
   inkscape:connector-curvature="0"
   style="fill:#0ab45a;stroke:#006b33;stroke-width:0.4905;stroke-miterlimit:10" />
		<path
   class="st3"
   d="m 229.6,46.8 v 0 c -0.2,0 -0.4,-0.2 -0.4,-0.4 v -3.6 c 0,-0.2 0.2,-0.4 0.4,-0.4 v 0 c 0.2,0 0.4,0.2 0.4,0.4 v 3.6 c 0.1,0.2 -0.1,0.4 -0.4,0.4 z"
   id="path51"
   inkscape:connector-curvature="0"
   style="fill:#0ab45a;stroke:#006b33;stroke-width:0.4905;stroke-miterlimit:10" />
		<path
   class="st3"
   d="m 260.8,46.8 v 0 c -0.2,0 -0.4,-0.2 -0.4,-0.4 v -3.6 c 0,-0.2 0.2,-0.4 0.4,-0.4 v 0 c 0.2,0 0.4,0.2 0.4,0.4 v 3.6 c 0.1,0.2 -0.1,0.4 -0.4,0.4 z"
   id="path53"
   inkscape:connector-curvature="0"
   style="fill:#0ab45a;stroke:#006b33;stroke-width:0.4905;stroke-miterlimit:10" />
		<path
   class="st3"
   d="m 221.6,35.7 v 0 c -3.7,0 -6.6,3 -6.6,6.6 v 0.4 c -1,0 -1.8,0.8 -1.8,1.8 0,1 0.8,1.8 1.8,1.8 v 0.4 c 0,3.7 3,6.6 6.6,6.6 v 0 c 3.7,0 6.6,-3 6.6,-6.6 v -4.4 c 0,-3.6 -3,-6.6 -6.6,-6.6 z m -7.6,8.9 c 0,-0.5 0.4,-0.9 0.9,-0.9 0.5,0 0.9,0.4 0.9,0.9 0,0.5 -0.4,0.9 -0.9,0.9 -0.5,0 -0.9,-0.5 -0.9,-0.9 z m 12,2.2 c 0,2.4 -2,4.4 -4.4,4.4 v 0 c -1.5,0 -2.8,-0.7 -3.6,-1.9 -0.8,-1.1 -0.7,-2.7 0.2,-3.7 l 0.8,-1 -0.8,-1 c -0.9,-1.1 -1,-2.6 -0.2,-3.7 0.8,-1.1 2.1,-1.9 3.6,-1.9 v 0 c 2.4,0 4.4,2 4.4,4.4 z"
   id="path55"
   inkscape:connector-curvature="0"
   style="fill:#0ab45a;stroke:#006b33;stroke-width:0.4905;stroke-miterlimit:10" />
	</g>
</g>
<g
   id="g80"
   transform="translate(3.1047366,-1.8183404)">
	<rect
   x="29.200001"
   y="227.10001"
   class="st4"
   width="69.099998"
   height="30.6"
   id="rect60"
   style="fill:#999999;stroke:#000000;stroke-width:0.25130001;stroke-miterlimit:10" />
	<path
   class="st5"
   d="M 98.9,227.1 H 28.7 c -0.5,0 -0.9,-0.4 -0.9,-0.9 v -3.6 c 0,-0.5 0.4,-0.9 0.9,-0.9 h 70.2 c 0.5,0 0.9,0.4 0.9,0.9 v 3.6 c 0,0.5 -0.5,0.9 -0.9,0.9 z"
   id="path62"
   inkscape:connector-curvature="0"
   style="fill:#cccccc;stroke:#000000;stroke-width:0.25;stroke-miterlimit:10" />
	<path
   class="st5"
   d="M 98.9,221.7 H 28.7 c -0.5,0 -0.9,-0.4 -0.9,-0.9 v -5.4 c 0,-0.5 0.4,-0.9 0.9,-0.9 h 70.2 c 0.5,0 0.9,0.4 0.9,0.9 v 5.4 c 0,0.5 -0.5,0.9 -0.9,0.9 z"
   id="path64"
   inkscape:connector-curvature="0"
   style="fill:#cccccc;stroke:#000000;stroke-width:0.25;stroke-miterlimit:10" />
	<path
   class="st5"
   d="M 98.9,264.9 H 28.7 c -0.5,0 -0.9,-0.4 -0.9,-0.9 v -5.4 c 0,-0.5 0.4,-0.9 0.9,-0.9 h 70.2 c 0.5,0 0.9,0.4 0.9,0.9 v 5.4 c 0,0.5 -0.5,0.9 -0.9,0.9 z"
   id="path66"
   inkscape:connector-curvature="0"
   style="fill:#cccccc;stroke:#000000;stroke-width:0.25;stroke-miterlimit:10" />
	<path
   class="st6"
   d="m 65.8,236.1 h -4.3 c -2.8,0 -5.1,-2.3 -5.1,-5.1 v -9.3 H 71 v 9.3 c 0,2.9 -2.3,5.1 -5.2,5.1 z"
   id="path68"
   inkscape:connector-curvature="0"
   style="fill:#e6e6e6;stroke:#000000;stroke-width:0.25;stroke-miterlimit:10" />
	<g
   id="g76">
		<path
   class="st7"
   d="m 67.7,229.1 c -2.7,0.9 -4.2,3.9 -3.3,6.7 0.9,2.7 3.9,4.2 6.7,3.3 2.7,-0.9 4.2,-3.9 3.3,-6.7 -0.9,-2.8 -3.9,-4.2 -6.7,-3.3 z m 2.8,8.3 c -1.8,0.6 -3.8,-0.4 -4.4,-2.2 -0.6,-1.8 0.4,-3.8 2.2,-4.4 1.8,-0.6 3.8,0.4 4.4,2.2 0.6,1.8 -0.3,3.8 -2.2,4.4 z"
   id="path70"
   inkscape:connector-curvature="0"
   style="fill:#0ab45a;stroke:#006b33;stroke-width:0.1964;stroke-miterlimit:10" />
		<path
   class="st7"
   d="m 73.9,247.4 v 0 c -3.7,1.2 -7.6,-0.7 -8.9,-4.4 l -1.7,-5 c -0.3,-0.9 0.2,-1.9 1.1,-2.2 l 10,-3.4 c 0.9,-0.3 1.9,0.2 2.2,1.1 l 1.7,5 c 1.2,3.7 -0.7,7.7 -4.4,8.9 z"
   id="path72"
   inkscape:connector-curvature="0"
   style="fill:#0ab45a;stroke:#006b33;stroke-width:0.1964;stroke-miterlimit:10" />
		<path
   class="st8"
   d="m 72.5,238.9 c -0.2,-0.7 -1,-1.1 -1.8,-0.9 -0.7,0.2 -1.1,1 -0.9,1.8 0.1,0.4 0.5,0.7 0.8,0.9 l 1,2.9 1.7,-0.6 -1,-2.9 c 0.3,-0.4 0.3,-0.8 0.2,-1.2 z"
   id="path74"
   inkscape:connector-curvature="0"
   style="fill:#004f21;stroke:#002d0a;stroke-width:0.1964;stroke-miterlimit:10" />
	</g>
	<path
   class="st9"
   d="m 67.6,232.7 h -7.8 c -0.2,0 -0.5,-0.2 -0.5,-0.5 v 0 c 0,-0.2 0.2,-0.4 0.5,-0.4 h 7.8 c 0.2,0 0.5,0.2 0.5,0.4 v 0 c -0.1,0.3 -0.3,0.5 -0.5,0.5 z"
   id="path78"
   inkscape:connector-curvature="0"
   style="fill:#fae6be;stroke:#000000;stroke-width:0.25;stroke-miterlimit:10" />
</g>
<g
   id="Numbers"
   transform="translate(3.1047366,-1.8183404)">
	<g
   id="g88">
		<circle
   class="st10"
   cx="18.799999"
   cy="90.300003"
   r="7.1999998"
   id="circle82"
   style="fill:#f2f2f2;stroke:#333333;stroke-miterlimit:10" />
		<g
   id="g86">
			<path
   d="m 19.6,92.6 c 0,1 0.1,1.1 0.7,1.1 h 0.5 c 0.1,0.1 0.1,0.4 0,0.4 -0.4,0 -1.2,0 -1.9,0 -0.8,0 -1.5,0 -1.9,0 -0.1,0 -0.1,-0.3 0,-0.4 h 0.5 c 0.6,0 0.7,-0.2 0.7,-1.1 v -3.9 c 0,-0.8 0,-1 -0.6,-1 L 17,87.6 c -0.1,-0.1 -0.1,-0.3 0,-0.4 0.5,-0.1 1.1,-0.2 1.5,-0.3 0.5,-0.2 1,-0.4 1.1,-0.4 0.1,0 0.1,0 0.2,0.1 0,0.3 0,0.8 0,1.4 v 4.6 z"
   id="path84"
   inkscape:connector-curvature="0" />
		</g>
	</g>
	<g
   id="g96">
		<circle
   class="st10"
   cx="196.89999"
   cy="153.3"
   r="7.1999998"
   id="circle90"
   style="fill:#f2f2f2;stroke:#333333;stroke-miterlimit:10" />
		<g
   id="g94">
			<path
   d="m 197.8,156 c 0.9,0 1,0 1.4,-0.7 0.1,-0.1 0.4,-0.1 0.4,0.1 -0.1,0.7 -0.4,1.6 -0.6,1.9 -0.5,0 -0.9,0 -1.7,0 h -1.9 c -0.6,0 -1.1,0 -1.3,0 -0.1,0 -0.1,-0.2 -0.1,-0.3 0.5,-0.4 1.1,-1.1 1.9,-1.8 0.8,-0.9 1.6,-1.9 1.6,-3.2 0,-0.8 -0.5,-1.5 -1.3,-1.5 -0.7,0 -1.2,0.4 -1.5,1.1 -0.1,0.1 -0.4,0 -0.4,-0.2 0.5,-1.2 1.6,-1.9 2.8,-1.9 1.4,0 2.3,0.9 2.3,2 0,0.9 -0.4,1.6 -1.8,3 L 197,155 c -0.5,0.5 -0.6,0.7 -0.6,0.8 0,0.1 0.1,0.1 0.2,0.1 h 1.2 z"
   id="path92"
   inkscape:connector-curvature="0" />
		</g>
	</g>
	<g
   id="g104">
		<circle
   class="st10"
   cx="18.799999"
   cy="206"
   r="7.1999998"
   id="circle98"
   style="fill:#f2f2f2;stroke:#333333;stroke-miterlimit:10" />
		<g
   id="g102">
			<path
   d="m 16.7,203.9 c -0.2,0 -0.3,-0.1 -0.3,-0.2 0.5,-1 1.4,-1.5 2.5,-1.5 1.2,0 1.9,0.6 1.9,1.4 0,0.5 -0.2,1 -1.5,1.5 -0.1,0.1 0,0.2 0.1,0.2 1.1,0 2,0.7 2,1.9 0,0.9 -0.4,1.7 -1.4,2.4 -1,0.7 -2.1,1 -2.8,1 -0.7,0 -1.3,-0.2 -1.3,-0.9 0,-0.3 0.2,-0.7 0.7,-0.7 0.4,0 0.7,0.5 0.8,0.6 0.1,0.2 0.3,0.3 0.5,0.3 0.5,0 1.6,-0.7 1.6,-2.2 0,-1.1 -0.6,-1.8 -1.4,-1.8 -0.5,0 -0.9,0.2 -1.2,0.5 -0.2,0 -0.4,-0.3 -0.3,-0.6 0.5,-0.2 1.5,-0.6 1.9,-1 0.2,-0.2 0.5,-0.5 0.5,-1.1 0,-0.4 -0.4,-0.9 -1,-0.9 -0.4,0.1 -0.9,0.6 -1.3,1.1 z"
   id="path100"
   inkscape:connector-curvature="0" />
		</g>
	</g>
	<g
   id="g112">
		<circle
   class="st10"
   cx="196.89999"
   cy="269"
   r="7.1999998"
   id="circle106"
   style="fill:#f2f2f2;stroke:#333333;stroke-miterlimit:10" />
		<g
   id="g110">
			<path
   d="m 197.1,270.9 c 0,-0.3 0,-0.3 -0.3,-0.3 H 194 c -0.1,-0.1 -0.2,-0.2 -0.1,-0.4 l 3.9,-5.6 c 0.1,-0.2 0.2,-0.3 0.4,-0.3 h 0.3 c 0.2,0 0.3,0.1 0.1,0.3 l -3.6,5 c -0.1,0.2 -0.1,0.3 0.3,0.3 h 1.5 c 0.3,0 0.3,0 0.3,-0.3 v -1.7 c 0,-0.3 0.1,-0.4 0.3,-0.4 0.3,-0.1 1,-0.4 1.2,-0.4 0.1,0 0.2,0.1 0.2,0.2 v 2.3 c 0,0.3 0,0.3 0.3,0.3 h 0.8 c 0.2,0.1 0.2,0.6 0,0.7 h -0.8 c -0.3,0 -0.3,0 -0.3,0.3 v 0.3 c 0,1 0.1,1.1 0.6,1.1 h 0.3 c 0.1,0.1 0.1,0.4 0,0.4 -0.4,0 -1.1,0 -1.6,0 -0.8,0 -1.5,0 -1.9,0 -0.1,0 -0.1,-0.3 0,-0.4 h 0.5 c 0.6,0 0.7,-0.1 0.7,-1.1 v -0.3 z"
   id="path108"
   inkscape:connector-curvature="0" />
		</g>
	</g>
</g>



<line
   class="st11"
   x1="115.00474"
   y1="125.48166"
   x2="246.00473"
   y2="125.48166"
   id="line160"
   style="fill:none;stroke:#000000;stroke-width:2;stroke-miterlimit:10" />
<g
   id="g170"
   transform="translate(3.1047366,-1.8183404)">
	<g
   id="g168">
		<line
   class="st12"
   x1="242.89999"
   y1="127.3"
   x2="367.89999"
   y2="127.3"
   id="line162"
   style="fill:none;stroke:#000000;stroke-width:2;stroke-miterlimit:10;stroke-dasharray:8, 6" />
		<g
   id="g166">
			<path
   d="m 373.9,127.3 c -2.8,1.1 -6.4,2.9 -8.5,4.8 l 1.7,-4.8 -1.7,-4.8 c 2.1,2 5.7,3.8 8.5,4.8 z"
   id="path164"
   inkscape:connector-curvature="0" />
		</g>
	</g>
</g>
<g
   id="g180"
   transform="translate(3.1047366,-1.8183404)">
	<g
   id="g178">
		<line
   class="st11"
   x1="241.8"
   y1="127.3"
   x2="241.8"
   y2="144.7"
   id="line172"
   style="fill:none;stroke:#000000;stroke-width:2;stroke-miterlimit:10" />
		<g
   id="g176">
			<path
   d="m 241.8,150.8 c -1.1,-2.8 -2.9,-6.4 -4.8,-8.5 l 4.8,1.7 4.8,-1.7 c -2,2.1 -3.8,5.6 -4.8,8.5 z"
   id="path174"
   inkscape:connector-curvature="0" />
		</g>
	</g>
</g>
<g
   id="g186"
   transform="translate(3.1047366,-1.8183404)">
	<line
   class="st13"
   x1="234.60001"
   y1="120.1"
   x2="249"
   y2="134.5"
   id="line182"
   style="fill:none;stroke:#aa0a3c;stroke-width:2;stroke-miterlimit:10" />
	<line
   class="st13"
   x1="249"
   y1="120.1"
   x2="234.60001"
   y2="134.5"
   id="line184"
   style="fill:none;stroke:#aa0a3c;stroke-width:2;stroke-miterlimit:10" />
</g>



<line
   class="st11"
   x1="115.00474"
   y1="240.88165"
   x2="246.00473"
   y2="240.88165"
   id="line206"
   style="fill:none;stroke:#000000;stroke-width:2;stroke-miterlimit:10" />
<g
   id="g216"
   transform="translate(3.1047366,-1.8183404)">
	<g
   id="g214">
		<line
   class="st12"
   x1="242.89999"
   y1="242.7"
   x2="367.89999"
   y2="242.7"
   id="line208"
   style="fill:none;stroke:#000000;stroke-width:2;stroke-miterlimit:10;stroke-dasharray:8, 6" />
		<g
   id="g212">
			<path
   d="m 373.9,242.7 c -2.8,1.1 -6.4,2.9 -8.5,4.8 l 1.7,-4.8 -1.7,-4.8 c 2.1,2 5.7,3.8 8.5,4.8 z"
   id="path210"
   inkscape:connector-curvature="0" />
		</g>
	</g>
</g>
<g
   id="g222"
   transform="translate(3.1047366,-1.8183404)">
	<line
   class="st13"
   x1="234.60001"
   y1="235.5"
   x2="249"
   y2="249.89999"
   id="line218"
   style="fill:none;stroke:#aa0a3c;stroke-width:2;stroke-miterlimit:10" />
	<line
   class="st13"
   x1="249"
   y1="235.5"
   x2="234.60001"
   y2="249.89999"
   id="line220"
   style="fill:none;stroke:#aa0a3c;stroke-width:2;stroke-miterlimit:10" />
</g>
<g
   id="g232"
   transform="translate(3.1047366,-1.8183404)">
	<g
   id="g230">
		<line
   class="st11"
   x1="196.89999"
   y1="190.5"
   x2="117.4"
   y2="225.7"
   id="line224"
   style="fill:none;stroke:#000000;stroke-width:2;stroke-miterlimit:10" />
		<g
   id="g228">
			<path
   d="m 111.9,228.2 c 2.2,-2.1 4.7,-5.2 5.9,-7.8 l 0.4,5 3.5,3.6 c -2.8,-0.8 -6.8,-1 -9.8,-0.8 z"
   id="path226"
   inkscape:connector-curvature="0" />
		</g>
	</g>
</g>


<g
   id="g280"
   transform="translate(3.1047366,-1.8183404)">
	<g
   id="g264">
		<path
   class="st14"
   d="m 406,17.6 c 0,-1.2 0,-1.3 -0.5,-1.4 h -0.3 c -0.1,-0.1 -0.1,-0.4 0,-0.4 0.9,-0.1 1.8,-0.1 3,-0.1 1.2,0 1.9,0.1 2.4,0.4 0.5,0.3 0.8,0.8 0.8,1.5 0,1 -0.9,1.4 -1.2,1.5 -0.1,0 -0.2,0.1 -0.2,0.1 0,0 0.1,0.1 0.2,0.1 0.9,0.2 1.8,0.8 1.8,2 0,1.1 -0.6,1.8 -1.4,2 -0.8,0.3 -1.7,0.3 -2.4,0.3 -0.4,0 -0.9,0 -1.2,0 -0.6,0 -1.2,0 -1.9,0 -0.1,-0.1 -0.1,-0.4 0,-0.4 l 0.3,-0.1 c 0.5,-0.1 0.6,-0.2 0.6,-1.3 z m 1.6,1.1 c 0,0.3 0,0.3 0.6,0.3 1,0 1.4,-0.7 1.4,-1.4 0,-1 -0.6,-1.6 -1.5,-1.6 -0.6,0 -0.6,0.1 -0.6,0.6 v 2.1 z m 0,2.8 c 0,0.9 0.1,1.5 1.1,1.5 0.9,0 1.4,-0.7 1.4,-1.7 0,-1 -0.6,-1.8 -1.8,-1.8 -0.7,0 -0.7,0 -0.7,0.5 z"
   id="path254"
   inkscape:connector-curvature="0"
   style="fill:#5c0015" />
		<path
   class="st14"
   d="m 412.7,21.2 c 0,-1.7 1.3,-2.7 2.8,-2.7 1.4,0 2.7,0.9 2.7,2.6 0,1.8 -1.3,2.6 -2.8,2.6 -1.5,0 -2.7,-0.8 -2.7,-2.5 z m 1.7,-0.3 c 0,1.3 0.4,2.2 1.1,2.2 0.7,0 0.9,-0.8 0.9,-1.9 0,-1.2 -0.3,-2.2 -1,-2.2 -0.6,0.1 -1,0.6 -1,1.9 z"
   id="path256"
   inkscape:connector-curvature="0"
   style="fill:#5c0015" />
		<path
   class="st14"
   d="m 420.9,18.6 c 0,0.2 0.1,0.3 0.1,0.3 0.3,-0.2 0.8,-0.3 1.3,-0.3 1.4,0 2.2,1 2.2,2.4 0,1.7 -1.2,2.7 -3,2.7 -0.5,0 -1.1,-0.1 -1.3,-0.2 -0.2,-0.1 -0.3,-0.1 -0.4,-0.1 -0.1,0 -0.3,0.1 -0.4,0.2 -0.1,0 -0.2,0 -0.2,-0.1 0,-0.2 0,-0.6 0,-1.2 v -5.4 c 0,-0.5 0,-0.6 -0.2,-0.8 L 418.8,16 c -0.1,-0.1 -0.1,-0.3 0,-0.4 0.5,-0.1 1.2,-0.4 1.8,-0.7 0.1,0 0.2,0 0.2,0.1 0,0.5 0,1 0,1.8 v 1.8 z m 0,3.2 c 0,0.3 0.1,0.6 0.2,0.9 0.2,0.2 0.4,0.4 0.7,0.4 0.8,0 1.1,-0.9 1.1,-1.8 0,-1.2 -0.6,-2 -1.4,-2 -0.2,0 -0.4,0.1 -0.5,0.1 -0.1,0.1 -0.1,0.3 -0.1,0.6 z"
   id="path258"
   inkscape:connector-curvature="0"
   style="fill:#5c0015" />
		<path
   class="st14"
   d="m 427.2,18.6 c 0,0.2 0.1,0.3 0.1,0.3 0.3,-0.2 0.8,-0.3 1.3,-0.3 1.4,0 2.2,1 2.2,2.4 0,1.7 -1.2,2.7 -3,2.7 -0.5,0 -1.1,-0.1 -1.3,-0.2 -0.2,-0.1 -0.3,-0.1 -0.4,-0.1 -0.1,0 -0.3,0.1 -0.4,0.2 -0.1,0 -0.2,0 -0.2,-0.1 0,-0.2 0,-0.6 0,-1.2 v -5.4 c 0,-0.5 0,-0.6 -0.2,-0.8 L 425.1,16 c -0.1,-0.1 -0.1,-0.3 0,-0.4 0.5,-0.1 1.2,-0.4 1.8,-0.7 0.1,0 0.2,0 0.2,0.1 0,0.5 0,1 0,1.8 v 1.8 z m 0,3.2 c 0,0.3 0.1,0.6 0.2,0.9 0.2,0.2 0.4,0.4 0.7,0.4 0.8,0 1.1,-0.9 1.1,-1.8 0,-1.2 -0.6,-2 -1.4,-2 -0.2,0 -0.4,0.1 -0.5,0.1 -0.1,0.1 -0.1,0.3 -0.1,0.6 z"
   id="path260"
   inkscape:connector-curvature="0"
   style="fill:#5c0015" />
		<path
   class="st14"
   d="m 431.1,19.1 c -0.1,-0.1 -0.1,-0.4 0,-0.4 0.4,0 0.9,0 1.6,0 0.4,0 0.9,0 1.3,0 0.1,0 0.1,0.3 0,0.4 h -0.2 c -0.3,0.1 -0.4,0.1 -0.4,0.2 0,0.1 0.1,0.5 0.4,1.1 0.1,0.3 0.4,1.1 0.5,1.4 0.1,-0.3 0.3,-0.5 0.4,-0.8 l 0.2,-0.5 c 0.3,-0.6 0.4,-1.1 0.4,-1.2 0,-0.1 -0.1,-0.1 -0.3,-0.2 h -0.2 c -0.1,-0.1 -0.1,-0.4 0,-0.4 0.3,0 0.6,0 1.2,0 0.3,0 0.6,0 0.9,0 0.1,0 0.1,0.3 0,0.4 h -0.2 c -0.2,0 -0.4,0.1 -0.6,0.3 -0.1,0.2 -0.4,0.7 -0.7,1.3 l -0.4,1.3 -1.8,3.8 c -0.3,0.5 -0.6,0.8 -1,0.8 -0.6,0 -0.8,-0.4 -0.8,-0.7 0,-0.4 0.3,-0.6 0.7,-0.6 h 0.3 c 0.3,0 0.5,-0.1 0.6,-0.3 0.1,-0.2 0.2,-0.4 0.3,-0.7 0.1,-0.1 0.2,-0.4 0.2,-0.5 0,-0.2 0,-0.4 -0.2,-0.9 L 432.1,20 c -0.2,-0.6 -0.3,-0.8 -0.7,-0.9 z"
   id="path262"
   inkscape:connector-curvature="0"
   style="fill:#5c0015" />
	</g>
	<g
   id="g278">
		<polygon
   class="st15"
   points="443.9,41.2 443.9,37.9 439.2,37.9 439.2,44.6 450.3,44.6 450.3,37.9 445.7,37.9 445.7,41.2 "
   id="polygon266"
   style="fill:#aa0a3c;stroke:#5c0015;stroke-width:0.4914;stroke-miterlimit:10" />
		<rect
   x="406.10001"
   y="43"
   class="st15"
   width="44.200001"
   height="3.0999999"
   id="rect268"
   style="fill:#aa0a3c;stroke:#5c0015;stroke-width:0.4914;stroke-miterlimit:10" />
		<path
   class="st15"
   d="m 406.6,46.8 v 0 c -0.2,0 -0.4,-0.2 -0.4,-0.4 v -3.6 c 0,-0.2 0.2,-0.4 0.4,-0.4 v 0 c 0.2,0 0.4,0.2 0.4,0.4 v 3.6 c 0.1,0.2 -0.1,0.4 -0.4,0.4 z"
   id="path270"
   inkscape:connector-curvature="0"
   style="fill:#aa0a3c;stroke:#5c0015;stroke-width:0.4914;stroke-miterlimit:10" />
		<path
   class="st15"
   d="m 407.5,46.8 v 0 c -0.2,0 -0.4,-0.2 -0.4,-0.4 v -3.6 c 0,-0.2 0.2,-0.4 0.4,-0.4 v 0 c 0.2,0 0.4,0.2 0.4,0.4 v 3.6 c 0.1,0.2 -0.1,0.4 -0.4,0.4 z"
   id="path272"
   inkscape:connector-curvature="0"
   style="fill:#aa0a3c;stroke:#5c0015;stroke-width:0.4914;stroke-miterlimit:10" />
		<path
   class="st15"
   d="m 438.8,46.8 v 0 c -0.2,0 -0.4,-0.2 -0.4,-0.4 v -3.6 c 0,-0.2 0.2,-0.4 0.4,-0.4 v 0 c 0.2,0 0.4,0.2 0.4,0.4 v 3.6 c 0,0.2 -0.2,0.4 -0.4,0.4 z"
   id="path274"
   inkscape:connector-curvature="0"
   style="fill:#aa0a3c;stroke:#5c0015;stroke-width:0.4914;stroke-miterlimit:10" />
		<path
   class="st15"
   d="m 399.4,35.7 v 0 c -3.7,0 -6.6,3 -6.6,6.6 v 0.4 c -1,0 -1.8,0.8 -1.8,1.8 0,1 0.8,1.8 1.8,1.8 v 0.4 c 0,3.7 3,6.6 6.6,6.6 v 0 c 3.7,0 6.6,-3 6.6,-6.6 v -4.4 c 0.1,-3.6 -2.9,-6.6 -6.6,-6.6 z m -7.5,8.9 c 0,-0.5 0.4,-0.9 0.9,-0.9 0.5,0 0.9,0.4 0.9,0.9 0,0.5 -0.4,0.9 -0.9,0.9 -0.5,-0.1 -0.9,-0.5 -0.9,-0.9 z m 12,2.2 c 0,2.4 -2,4.4 -4.4,4.4 v 0 c -1.5,0 -2.8,-0.7 -3.6,-1.9 -0.8,-1.1 -0.7,-2.7 0.2,-3.7 l 0.8,-1 -0.8,-1 c -0.9,-1.1 -1,-2.6 -0.2,-3.7 0.8,-1.1 2.1,-1.9 3.6,-1.9 v 0 c 2.4,0 4.4,2 4.4,4.4 z"
   id="path276"
   inkscape:connector-curvature="0"
   style="fill:#aa0a3c;stroke:#5c0015;stroke-width:0.4914;stroke-miterlimit:10" />
	</g>
</g>
<g
   id="g302"
   transform="translate(3.1047366,-1.8183404)">
	<rect
   x="29.1"
   y="110.1"
   class="st4"
   width="69.099998"
   height="30.6"
   id="rect282"
   style="fill:#999999;stroke:#000000;stroke-width:0.25130001;stroke-miterlimit:10" />
	<path
   class="st5"
   d="M 98.8,110.1 H 28.6 c -0.5,0 -0.9,-0.4 -0.9,-0.9 v -3.6 c 0,-0.5 0.4,-0.9 0.9,-0.9 h 70.2 c 0.5,0 0.9,0.4 0.9,0.9 v 3.6 c 0,0.5 -0.4,0.9 -0.9,0.9 z"
   id="path284"
   inkscape:connector-curvature="0"
   style="fill:#cccccc;stroke:#000000;stroke-width:0.25;stroke-miterlimit:10" />
	<path
   class="st5"
   d="M 98.8,104.7 H 28.6 c -0.5,0 -0.9,-0.4 -0.9,-0.9 v -5.4 c 0,-0.5 0.4,-0.9 0.9,-0.9 h 70.2 c 0.5,0 0.9,0.4 0.9,0.9 v 5.4 c 0,0.5 -0.4,0.9 -0.9,0.9 z"
   id="path286"
   inkscape:connector-curvature="0"
   style="fill:#cccccc;stroke:#000000;stroke-width:0.25;stroke-miterlimit:10" />
	<path
   class="st5"
   d="M 98.8,147.9 H 28.6 c -0.5,0 -0.9,-0.4 -0.9,-0.9 v -5.4 c 0,-0.5 0.4,-0.9 0.9,-0.9 h 70.2 c 0.5,0 0.9,0.4 0.9,0.9 v 5.4 c 0,0.5 -0.4,0.9 -0.9,0.9 z"
   id="path288"
   inkscape:connector-curvature="0"
   style="fill:#cccccc;stroke:#000000;stroke-width:0.25;stroke-miterlimit:10" />
	<path
   class="st6"
   d="m 66,119.1 h -4.3 c -2.8,0 -5.1,-2.3 -5.1,-5.1 v -9.3 h 14.5 v 9.3 c 0.1,2.9 -2.2,5.1 -5.1,5.1 z"
   id="path290"
   inkscape:connector-curvature="0"
   style="fill:#e6e6e6;stroke:#000000;stroke-width:0.25;stroke-miterlimit:10" />
	<g
   id="g298">
		<path
   class="st16"
   d="m 60.2,112.4 c -2.7,-1.2 -5.8,0 -6.9,2.7 -1.2,2.7 0,5.8 2.7,6.9 2.7,1.2 5.8,0 6.9,-2.7 1.2,-2.6 0,-5.7 -2.7,-6.9 z m -3.5,8 c -1.8,-0.8 -2.6,-2.8 -1.8,-4.6 0.8,-1.8 2.8,-2.6 4.6,-1.8 1.8,0.8 2.6,2.8 1.8,4.6 -0.7,1.8 -2.8,2.6 -4.6,1.8 z"
   id="path292"
   inkscape:connector-curvature="0"
   style="fill:#005ac8;stroke:#153267;stroke-width:0.26730001;stroke-miterlimit:10" />
		<path
   class="st16"
   d="m 52.5,130.1 v 0 c -3.5,-1.5 -5.2,-5.7 -3.6,-9.2 L 51,116 c 0.4,-0.9 1.4,-1.3 2.3,-0.9 l 9.6,4.2 c 0.9,0.4 1.3,1.4 0.9,2.3 l -2.1,4.8 c -1.5,3.6 -5.6,5.2 -9.2,3.7 z"
   id="path294"
   inkscape:connector-curvature="0"
   style="fill:#005ac8;stroke:#153267;stroke-width:0.26730001;stroke-miterlimit:10" />
		<path
   class="st17"
   d="m 57.2,122.8 c 0.3,-0.7 0,-1.5 -0.7,-1.8 -0.7,-0.3 -1.5,0 -1.8,0.7 -0.2,0.4 -0.1,0.8 0,1.2 l -1.2,2.8 1.6,0.7 1.2,-2.8 c 0.4,-0.1 0.7,-0.4 0.9,-0.8 z"
   id="path296"
   inkscape:connector-curvature="0"
   style="fill:#000037;stroke:#00001e;stroke-width:0.26730001;stroke-miterlimit:10" />
	</g>
	<path
   class="st9"
   d="M 67.8,115.7 H 60 c -0.2,0 -0.5,-0.2 -0.5,-0.4 v 0 c 0,-0.2 0.2,-0.4 0.5,-0.4 h 7.8 c 0.2,0 0.5,0.2 0.5,0.4 v 0 c -0.1,0.2 -0.3,0.4 -0.5,0.4 z"
   id="path300"
   inkscape:connector-curvature="0"
   style="fill:#fae6be;stroke:#000000;stroke-width:0.25;stroke-miterlimit:10" />
</g>
<g
   id="g332"
   transform="translate(3.1047366,-1.8183404)">
	<rect
   x="208.39999"
   y="176.7"
   class="st4"
   width="69.099998"
   height="30.6"
   id="rect304"
   style="fill:#999999;stroke:#000000;stroke-width:0.25130001;stroke-miterlimit:10" />
	<path
   class="st5"
   d="m 278.1,176.7 h -70.2 c -0.5,0 -0.9,-0.4 -0.9,-0.9 v -3.6 c 0,-0.5 0.4,-0.9 0.9,-0.9 h 70.2 c 0.5,0 0.9,0.4 0.9,0.9 v 3.6 c 0,0.5 -0.4,0.9 -0.9,0.9 z"
   id="path306"
   inkscape:connector-curvature="0"
   style="fill:#cccccc;stroke:#000000;stroke-width:0.25;stroke-miterlimit:10" />
	<path
   class="st5"
   d="m 278.1,171.3 h -70.2 c -0.5,0 -0.9,-0.4 -0.9,-0.9 V 165 c 0,-0.5 0.4,-0.9 0.9,-0.9 h 70.2 c 0.5,0 0.9,0.4 0.9,0.9 v 5.4 c 0,0.5 -0.4,0.9 -0.9,0.9 z"
   id="path308"
   inkscape:connector-curvature="0"
   style="fill:#cccccc;stroke:#000000;stroke-width:0.25;stroke-miterlimit:10" />
	<path
   class="st5"
   d="m 278.1,214.5 h -70.2 c -0.5,0 -0.9,-0.4 -0.9,-0.9 v -5.4 c 0,-0.5 0.4,-0.9 0.9,-0.9 h 70.2 c 0.5,0 0.9,0.4 0.9,0.9 v 5.4 c 0,0.5 -0.4,0.9 -0.9,0.9 z"
   id="path310"
   inkscape:connector-curvature="0"
   style="fill:#cccccc;stroke:#000000;stroke-width:0.25;stroke-miterlimit:10" />
	<path
   class="st6"
   d="m 246,185.7 h -4.3 c -2.8,0 -5.1,-2.3 -5.1,-5.1 v -9.3 h 14.5 v 9.3 c 0,2.9 -2.3,5.1 -5.1,5.1 z"
   id="path312"
   inkscape:connector-curvature="0"
   style="fill:#e6e6e6;stroke:#000000;stroke-width:0.25;stroke-miterlimit:10" />
	<g
   id="g320">
		<path
   class="st16"
   d="m 240.2,179 c -2.7,-1.2 -5.8,0 -6.9,2.7 -1.1,2.7 0,5.8 2.7,6.9 2.7,1.1 5.8,0 6.9,-2.7 1.1,-2.7 0,-5.7 -2.7,-6.9 z m -3.5,8 c -1.8,-0.8 -2.6,-2.8 -1.8,-4.6 0.8,-1.8 2.8,-2.6 4.6,-1.8 1.8,0.8 2.6,2.8 1.8,4.6 -0.8,1.8 -2.8,2.6 -4.6,1.8 z"
   id="path314"
   inkscape:connector-curvature="0"
   style="fill:#005ac8;stroke:#153267;stroke-width:0.26730001;stroke-miterlimit:10" />
		<path
   class="st16"
   d="m 232.5,196.7 v 0 c -3.5,-1.5 -5.2,-5.7 -3.6,-9.2 l 2.1,-4.8 c 0.4,-0.9 1.4,-1.3 2.3,-0.9 l 9.6,4.2 c 0.9,0.4 1.3,1.4 0.9,2.3 l -2.1,4.8 c -1.5,3.5 -5.7,5.1 -9.2,3.6 z"
   id="path316"
   inkscape:connector-curvature="0"
   style="fill:#005ac8;stroke:#153267;stroke-width:0.26730001;stroke-miterlimit:10" />
		<path
   class="st17"
   d="m 237.2,189.4 c 0.3,-0.7 0,-1.5 -0.7,-1.8 -0.7,-0.3 -1.5,0 -1.8,0.7 -0.2,0.4 -0.1,0.8 0,1.2 l -1.2,2.8 1.6,0.7 1.2,-2.8 c 0.4,-0.1 0.7,-0.4 0.9,-0.8 z"
   id="path318"
   inkscape:connector-curvature="0"
   style="fill:#000037;stroke:#00001e;stroke-width:0.26730001;stroke-miterlimit:10" />
	</g>
	<g
   id="g328">
		<path
   class="st7"
   d="m 247.9,178.7 c -2.7,0.9 -4.2,3.9 -3.3,6.7 0.9,2.8 3.9,4.2 6.7,3.3 2.8,-0.9 4.2,-3.9 3.3,-6.7 -1,-2.7 -4,-4.2 -6.7,-3.3 z m 2.8,8.3 c -1.8,0.6 -3.8,-0.4 -4.4,-2.2 -0.6,-1.8 0.4,-3.8 2.2,-4.4 1.8,-0.6 3.8,0.4 4.4,2.2 0.6,1.8 -0.4,3.8 -2.2,4.4 z"
   id="path322"
   inkscape:connector-curvature="0"
   style="fill:#0ab45a;stroke:#006b33;stroke-width:0.1964;stroke-miterlimit:10" />
		<path
   class="st7"
   d="m 254,197 v 0 c -3.7,1.2 -7.6,-0.7 -8.9,-4.4 l -1.7,-5 c -0.3,-0.9 0.2,-1.9 1.1,-2.2 l 10,-3.4 c 0.9,-0.3 1.9,0.2 2.2,1.1 l 1.7,5 c 1.3,3.7 -0.7,7.7 -4.4,8.9 z"
   id="path324"
   inkscape:connector-curvature="0"
   style="fill:#0ab45a;stroke:#006b33;stroke-width:0.1964;stroke-miterlimit:10" />
		<path
   class="st8"
   d="m 252.7,188.5 c -0.2,-0.7 -1,-1.1 -1.8,-0.9 -0.7,0.2 -1.1,1 -0.9,1.8 0.1,0.4 0.5,0.7 0.8,0.9 l 1,2.9 1.7,-0.6 -1,-2.9 c 0.2,-0.4 0.3,-0.8 0.2,-1.2 z"
   id="path326"
   inkscape:connector-curvature="0"
   style="fill:#004f21;stroke:#002d0a;stroke-width:0.1964;stroke-miterlimit:10" />
	</g>
	<path
   class="st9"
   d="M 247.8,182.3 H 240 c -0.2,0 -0.4,-0.2 -0.4,-0.4 v 0 c 0,-0.2 0.2,-0.4 0.4,-0.4 h 7.8 c 0.2,0 0.5,0.2 0.5,0.4 v 0 c -0.1,0.2 -0.3,0.4 -0.5,0.4 z"
   id="path330"
   inkscape:connector-curvature="0"
   style="fill:#fae6be;stroke:#000000;stroke-width:0.25;stroke-miterlimit:10" />
</g>
<g
   id="g348"
   transform="translate(3.1047366,-1.8183404)">
	<rect
   x="207.2"
   y="290.70001"
   class="st4"
   width="69.099998"
   height="30.6"
   id="rect334"
   style="fill:#999999;stroke:#000000;stroke-width:0.25130001;stroke-miterlimit:10" />
	<path
   class="st5"
   d="m 276.9,290.7 h -70.2 c -0.5,0 -0.9,-0.4 -0.9,-0.9 v -3.6 c 0,-0.5 0.4,-0.9 0.9,-0.9 h 70.2 c 0.5,0 0.9,0.4 0.9,0.9 v 3.6 c 0,0.5 -0.4,0.9 -0.9,0.9 z"
   id="path336"
   inkscape:connector-curvature="0"
   style="fill:#cccccc;stroke:#000000;stroke-width:0.25;stroke-miterlimit:10" />
	<path
   class="st9"
   d="m 245.7,296.2 h -7.8 c -0.2,0 -0.4,-0.2 -0.4,-0.5 v 0 c 0,-0.2 0.2,-0.4 0.4,-0.4 h 7.8 c 0.2,0 0.4,0.2 0.4,0.4 v 0 c 0,0.3 -0.2,0.5 -0.4,0.5 z"
   id="path338"
   inkscape:connector-curvature="0"
   style="fill:#fae6be;stroke:#000000;stroke-width:0.25;stroke-miterlimit:10" />
	<path
   class="st18"
   d="m 277,275.3 h -70.4 c -0.4,0 -0.8,-0.4 -0.8,-0.8 l 0.6,-4.2 c 0,-0.4 0.4,-0.8 0.8,-0.8 h 69.1 c 0.4,0 0.8,0.4 0.8,0.8 l 0.6,4.2 c 0.1,0.4 -0.3,0.8 -0.7,0.8 z"
   id="path340"
   inkscape:connector-curvature="0"
   style="fill:#cccccc;stroke:#000000;stroke-width:0.2236;stroke-miterlimit:10" />
	<path
   class="st5"
   d="m 276.9,328.5 h -70.2 c -0.5,0 -0.9,-0.4 -0.9,-0.9 v -5.4 c 0,-0.5 0.4,-0.9 0.9,-0.9 h 70.2 c 0.5,0 0.9,0.4 0.9,0.9 v 5.4 c 0,0.5 -0.4,0.9 -0.9,0.9 z"
   id="path342"
   inkscape:connector-curvature="0"
   style="fill:#cccccc;stroke:#000000;stroke-width:0.25;stroke-miterlimit:10" />
	<path
   class="st6"
   d="m 243.9,260.9 h -4.3 c -2.8,0 -5.1,2.3 -5.1,5.1 v 9.3 H 249 V 266 c 0,-2.8 -2.2,-5.1 -5.1,-5.1 z m 1.8,4.5 h -7.8 c -0.2,0 -0.5,-0.2 -0.5,-0.5 0,-0.3 0.2,-0.5 0.5,-0.5 h 7.8 c 0.2,0 0.5,0.2 0.5,0.5 0,0.3 -0.3,0.5 -0.5,0.5 z"
   id="path344"
   inkscape:connector-curvature="0"
   style="fill:#e6e6e6;stroke:#000000;stroke-width:0.25;stroke-miterlimit:10" />
	<polygon
   class="st19"
   points="207.2,275.3 276.3,275.3 274.2,285.3 209.4,285.3 "
   id="polygon346"
   style="fill:#333333;stroke:#000000;stroke-width:0.25;stroke-miterlimit:10" />
</g>










</svg>