<svg id="Layer_1" data-name="Layer 1" xmlns="http://www.w3.org/2000/svg" viewBox="0 0 439.49 360"><defs><style>.cls-1{opacity:0.1;}.cls-14,.cls-2{fill:#005ac8;stroke:#153267;}.cls-10,.cls-11,.cls-12,.cls-13,.cls-14,.cls-15,.cls-16,.cls-17,.cls-2,.cls-3,.cls-4,.cls-5,.cls-6,.cls-7,.cls-8,.cls-9{stroke-miterlimit:10;}.cls-2{stroke-width:0.49px;}.cls-3,.cls-7{fill:#0ab45a;stroke:#006b33;}.cls-3{stroke-width:0.49px;}.cls-4{fill:#999;stroke-width:0.25px;}.cls-11,.cls-12,.cls-16,.cls-17,.cls-4,.cls-5,.cls-6,.cls-9{stroke:#000;}.cls-16,.cls-5{fill:#ccc;}.cls-17,.cls-5,.cls-6,.cls-9{stroke-width:0.25px;}.cls-6{fill:#e6e6e6;}.cls-7,.cls-8{stroke-width:0.2px;}.cls-8{fill:#004f21;stroke:#002d0a;}.cls-9{fill:#fae6be;}.cls-10{fill:#f2f2f2;stroke:#333;}.cls-11,.cls-12{fill:none;stroke-width:2px;}.cls-12{stroke-dasharray:8 6;}.cls-13{fill:#aa0a3c;stroke:#5c0015;stroke-width:0.49px;}.cls-14,.cls-15{stroke-width:0.27px;}.cls-15{fill:#000037;stroke:#00001e;}.cls-16{stroke-width:0.22px;}.cls-17{fill:#333;}</style></defs><title>mitm_impersonation</title><rect class="cls-1" x="147.65" width="169.29" height="360"/><path d="M54.77,22.17c-.64,0-1.36-.06-2-.06s-1.19.06-1.84.06c-.1,0-.1-.19,0-.19.88,0,1-.27.46-1.31L50.3,18.51H46.37l-.63,1.39c-.58,1.28.1,2.08,1.3,2.08.09,0,.09.19,0,.19-.64,0-1.08-.06-1.89-.06s-1.2.06-1.92.06c-.08,0-.08-.19,0-.19.86,0,1.26-.43,2.08-2.24l3.47-7.63c0-.07.26-.08.29,0l4,7.87c.75,1.52,1.17,2,1.7,2C54.86,22,54.86,22.17,54.77,22.17Zm-4.71-4.11-1.84-3.65-1.65,3.65Z" transform="translate(-11.05)"/><path d="M57.92,18.27c.78.45,1.68.88,1.68,2a2.17,2.17,0,0,1-2.39,2.1,3.29,3.29,0,0,1-1.66-.43.26.26,0,0,1-.1-.19l0-1.59c0-.06.18-.08.19,0a2.59,2.59,0,0,0,2,1.92c.43,0,.74-.26.74-.82,0-.88-.69-1.28-1.33-1.64s-1.59-.79-1.59-1.91c0-1.34,1.16-1.82,2.32-1.82a3.24,3.24,0,0,1,1.33.24.2.2,0,0,1,.15.17c0,.43,0,.87,0,1.43,0,.06-.2.06-.2,0a1.91,1.91,0,0,0-1.76-1.54.57.57,0,0,0-.65.62C56.64,17.45,57.24,17.87,57.92,18.27Z" transform="translate(-11.05)"/><path d="M63.21,18.27c.79.45,1.68.88,1.68,2a2.16,2.16,0,0,1-2.38,2.1,3.3,3.3,0,0,1-1.67-.43.29.29,0,0,1-.09-.19l0-1.59c0-.06.17-.08.19,0A2.57,2.57,0,0,0,63,22c.43,0,.73-.26.73-.82,0-.88-.69-1.28-1.33-1.64s-1.58-.79-1.58-1.91c0-1.34,1.15-1.82,2.32-1.82a3.27,3.27,0,0,1,1.33.24.18.18,0,0,1,.14.17c0,.43,0,.87,0,1.43,0,.06-.19.06-.19,0a1.92,1.92,0,0,0-1.76-1.54c-.31,0-.66.1-.66.62C61.93,17.45,62.54,17.87,63.21,18.27Z" transform="translate(-11.05)"/><path d="M72.19,21.49l-1.65.78a.32.32,0,0,1-.16,0c-.32,0-.69-.35-.81-1l-.69.48a2.11,2.11,0,0,1-1.41.52c-1,0-1.39-.45-1.39-1.16,0-1.05,1-1.23,2-1.6L69.52,19v-.91c0-1.34-.19-1.95-.74-1.95-.8,0-.93.91-1,1.31-.06.66-.4.9-.93.9s-.77-.27-.77-.61c0-1,2.15-1.9,3.32-1.9.88,0,1.58.52,1.58,1.77v2.84c0,.62.24,1,.64,1a1.1,1.1,0,0,0,.47-.11C72.21,21.28,72.29,21.44,72.19,21.49ZM69.53,21a1.34,1.34,0,0,1,0-.21V19.28l-.69.32c-.27.11-1,.3-1,1a.79.79,0,0,0,.81.82.86.86,0,0,0,.53-.18Z" transform="translate(-11.05)"/><path d="M77.45,21.21a3.19,3.19,0,0,1-2.33,1.16c-.79,0-1.7-.31-1.7-1.48V17.34c0-.67-.21-.88-.82-.88-.08,0-.08-.29,0-.29a2.09,2.09,0,0,0,2.1-1.33c0-.08.24-.08.24,0v1.28c.67,0,1.33-.06,2.08-.14,0,0,.11.19.11.38s-.09.48-.17.45a11.6,11.6,0,0,0-2-.24v3.8a1.05,1.05,0,0,0,1.14,1.18,2.12,2.12,0,0,0,1.25-.48C77.39,21,77.53,21.15,77.45,21.21Z" transform="translate(-11.05)"/><path d="M84.3,21.49l-1.65.78a.32.32,0,0,1-.16,0c-.32,0-.68-.35-.81-1l-.69.48a2.11,2.11,0,0,1-1.41.52c-.94,0-1.39-.45-1.39-1.16,0-1.05,1-1.23,2-1.6L81.63,19v-.91c0-1.34-.19-1.95-.74-1.95-.8,0-.93.91-1,1.31-.06.66-.4.9-.93.9s-.76-.27-.76-.61c0-1,2.14-1.9,3.31-1.9.88,0,1.58.52,1.58,1.77v2.84c0,.62.24,1,.64,1a1.1,1.1,0,0,0,.47-.11C84.32,21.28,84.4,21.44,84.3,21.49ZM81.65,21a.68.68,0,0,1,0-.21V19.28l-.69.32c-.27.11-1,.3-1,1a.8.8,0,0,0,.81.82.86.86,0,0,0,.53-.18Z" transform="translate(-11.05)"/><polygon class="cls-2" points="77.67 36.93 77.67 40.24 75.91 40.24 75.91 36.93 71.27 36.93 71.27 43.56 82.31 43.56 82.31 36.93 77.67 36.93"/><rect class="cls-2" x="38.11" y="42.01" width="44.2" height="3.09"/><rect class="cls-2" x="38.22" y="41.3" width="0.88" height="4.52" rx="0.44" ry="0.44"/><rect class="cls-2" x="39.11" y="41.3" width="0.88" height="4.52" rx="0.44" ry="0.44"/><rect class="cls-2" x="70.38" y="41.3" width="0.88" height="4.52" rx="0.44" ry="0.44"/><path class="cls-2" d="M42.54,34.72h0a6.63,6.63,0,0,0-6.63,6.63v.44a1.77,1.77,0,1,0,0,3.54v.44a6.63,6.63,0,0,0,6.63,6.63h0a6.63,6.63,0,0,0,6.63-6.63V41.35A6.63,6.63,0,0,0,42.54,34.72ZM35,43.56a.89.89,0,1,1,.89.88A.88.88,0,0,1,35,43.56ZM47,45.77a4.42,4.42,0,0,1-4.42,4.42h0a4.41,4.41,0,0,1-3.62-1.88,3.09,3.09,0,0,1,.16-3.73l.82-1-.82-1a3.09,3.09,0,0,1-.16-3.73,4.41,4.41,0,0,1,3.62-1.88h0A4.42,4.42,0,0,1,47,41.35Z" transform="translate(-11.05)"/><path d="M232.47,19.66a20,20,0,0,0-.16,2.27c0,.18-.05.24-.24.24H225c-.06,0-.06-.19,0-.19,1,0,1.14-.17,1.14-1.1V13.47c0-.92-.16-1.11-1.14-1.11-.06,0-.06-.19,0-.19h6.79c.13,0,.16.05.16.14l0,2.13c0,.05-.16.08-.19,0a2.28,2.28,0,0,0-2.46-1.83h-.48c-.64,0-.93.28-.93.85v3.27h1.33c1.26,0,1.92-.47,1.92-1.22,0-.06.17-.06.17,0,0,.71,0,1,0,1.44s.05,1,.05,1.63c0,0-.2,0-.2,0,0-.86-.67-1.4-1.95-1.4h-1.31v3.61c0,.63.22.92.73.92h.53a2.86,2.86,0,0,0,3.11-2.1C232.29,19.57,232.47,19.61,232.47,19.66Z" transform="translate(-11.05)"/><path d="M241.32,21.31l-2.21,1.07-.08,0c-.19,0-.37-.42-.42-1.14a3.51,3.51,0,0,1-2.41,1.12c-1.38,0-2.52-1.13-2.52-3.12a3.42,3.42,0,0,1,3.67-3.47,4.54,4.54,0,0,1,1.25.19V12.75c0-.72-.12-1-.47-1a1.59,1.59,0,0,0-.59.17c-.08,0-.18-.17-.13-.19l2.35-1.1.07,0c.11,0,.27.13.27.21v9.54c0,.73.13,1,.45,1a2,2,0,0,0,.66-.18C241.27,21.09,241.37,21.28,241.32,21.31Zm-2.72-.37V17a1.71,1.71,0,0,0-1.49-.77c-1.09,0-1.78.68-1.78,2.55s.74,2.86,1.75,2.86A2.22,2.22,0,0,0,238.6,20.94Z" transform="translate(-11.05)"/><path d="M248.29,23.25c0,1.82-1.85,3.44-4,3.44-1.47,0-2.51-.74-2.51-1.83,0-.62.35-1.34,1.62-2.17-.64-.13-1.16-.44-1.16-1.16a2.15,2.15,0,0,1,1.12-1.74A2.17,2.17,0,0,1,242,17.88c0-1.34,1.52-2,2.8-2a3,3,0,0,1,1.73.52,3,3,0,0,1,1.73-.56c.09,0,.12.19.12.44s-.11.79-.19.72a3.16,3.16,0,0,0-1.18-.27h-.13a1.78,1.78,0,0,1,.43,1.15c0,1.35-1.47,2.17-2.82,2.17a2.67,2.67,0,0,1-.91-.15,1,1,0,0,0-.25.69c0,.9.78.91,2,.93C246.77,21.53,248.29,21.58,248.29,23.25Zm-1.31,1c0-1.44-1-1.46-2.43-1.47-.27,0-.56,0-.84-.05a1.46,1.46,0,0,0-.54,1.28,2,2,0,0,0,2,2.15A1.72,1.72,0,0,0,247,24.27Zm-3.41-6.87c0,1.38.67,2.36,1.36,2.36.42,0,.83-.39.83-1.43,0-1.45-.83-2.14-1.47-2.14S243.57,16.64,243.57,17.4Z" transform="translate(-11.05)"/><path d="M255.11,21.49l-1.65.78a.35.35,0,0,1-.16,0c-.32,0-.69-.35-.82-1l-.69.48a2.07,2.07,0,0,1-1.4.52c-.95,0-1.4-.45-1.4-1.16,0-1.05,1-1.23,2-1.6l1.44-.53v-.91c0-1.34-.2-1.95-.74-1.95-.8,0-.93.91-1,1.31-.07.66-.4.9-.93.9s-.77-.27-.77-.61c0-1,2.15-1.9,3.32-1.9.88,0,1.58.52,1.58,1.77v2.84c0,.62.24,1,.64,1a1.06,1.06,0,0,0,.46-.11C255.12,21.28,255.2,21.44,255.11,21.49ZM252.45,21a1.34,1.34,0,0,1,0-.21V19.28l-.69.32c-.28.11-1,.3-1,1a.8.8,0,0,0,.82.82.86.86,0,0,0,.53-.18Z" transform="translate(-11.05)"/><path d="M260.93,16.73a.72.72,0,0,1-.75.77c-.67,0-.7-.69-1.2-.69-.19,0-.37.08-.91.63v3.44c0,.85.33,1.1,1.42,1.1.08,0,.08.19,0,.19-.57,0-1.33,0-2.18,0-.6,0-1.18,0-1.6,0-.06,0-.06-.19,0-.19.66,0,.85-.25.85-1.1v-3c0-.66-.14-1-.49-1a2.08,2.08,0,0,0-.77.22c-.08.05-.15-.16-.1-.17l2.23-1.09.11,0c.22,0,.46.43.51,1.21.91-.94,1.43-1.21,1.83-1.21S260.93,16.2,260.93,16.73Z" transform="translate(-11.05)"/><polygon class="cls-3" points="256.63 36.94 256.63 40.25 254.88 40.25 254.88 36.94 250.24 36.94 250.24 43.56 261.27 43.56 261.27 36.94 256.63 36.94"/><rect class="cls-3" x="217.12" y="42.01" width="44.15" height="3.09"/><rect class="cls-3" x="217.23" y="41.3" width="0.88" height="4.51" rx="0.44" ry="0.44"/><rect class="cls-3" x="218.12" y="41.3" width="0.88" height="4.51" rx="0.44" ry="0.44"/><rect class="cls-3" x="249.35" y="41.3" width="0.88" height="4.51" rx="0.44" ry="0.44"/><path class="cls-3" d="M221.55,34.73h0a6.63,6.63,0,0,0-6.62,6.62v.44a1.77,1.77,0,0,0,0,3.54v.44a6.63,6.63,0,0,0,6.62,6.62h0a6.63,6.63,0,0,0,6.63-6.62V41.35A6.63,6.63,0,0,0,221.55,34.73Zm-7.5,8.83a.89.89,0,1,1,.88.88A.87.87,0,0,1,214.05,43.56ZM226,45.77a4.41,4.41,0,0,1-4.42,4.41h0a4.4,4.4,0,0,1-3.61-1.88,3.11,3.11,0,0,1,.16-3.72l.83-1-.83-1a3.11,3.11,0,0,1-.16-3.72,4.4,4.4,0,0,1,3.61-1.88h0A4.41,4.41,0,0,1,226,41.35Z" transform="translate(-11.05)"/><rect class="cls-4" x="18.14" y="210.14" width="69.12" height="30.6"/><rect class="cls-5" x="16.7" y="204.74" width="72" height="5.4" rx="0.9" ry="0.9"/><rect class="cls-5" x="16.7" y="197.54" width="72" height="7.2" rx="0.9" ry="0.9"/><rect class="cls-5" x="16.7" y="240.74" width="72" height="7.2" rx="0.9" ry="0.9"/><path class="cls-6" d="M45.36,204.74H59.9a0,0,0,0,1,0,0V214a5.12,5.12,0,0,1-5.12,5.12H50.48A5.12,5.12,0,0,1,45.36,214v-9.28A0,0,0,0,1,45.36,204.74Z"/><path class="cls-7" d="M67.74,212.14a5.25,5.25,0,1,0,6.65,3.31A5.26,5.26,0,0,0,67.74,212.14Zm2.79,8.3a3.5,3.5,0,1,1,2.2-4.44A3.5,3.5,0,0,1,70.53,220.44Z" transform="translate(-11.05)"/><path class="cls-7" d="M66.4,216.76H76.9a1.75,1.75,0,0,1,1.75,1.75v5.25a7,7,0,0,1-7,7h0a7,7,0,0,1-7-7v-5.25A1.75,1.75,0,0,1,66.4,216.76Z" transform="translate(-78.73 34.58) rotate(-18.62)"/><path class="cls-8" d="M72.49,221.87a1.4,1.4,0,1,0-1.8,1.76l1,2.89,1.66-.56-1-2.89A1.37,1.37,0,0,0,72.49,221.87Z" transform="translate(-11.05)"/><rect class="cls-9" x="48.27" y="214.76" width="8.72" height="0.9" rx="0.45" ry="0.45"/><circle class="cls-10" cx="7.7" cy="83.34" r="7.2"/><path d="M19.59,85.65c0,1,.07,1.08.66,1.13l.49,0c.11.07.1.39,0,.42-.43,0-1.15,0-1.9,0s-1.51,0-1.94,0c-.12,0-.13-.35,0-.42l.49,0c.58,0,.66-.17.66-1.13V81.78c0-.8-.05-1-.58-1l-.55-.07a.32.32,0,0,1,0-.42,11.63,11.63,0,0,0,1.53-.34c.53-.15,1-.38,1.07-.38a.19.19,0,0,1,.17.13c0,.28,0,.83,0,1.43Z" transform="translate(-11.05)"/><circle class="cls-10" cx="185.81" cy="169.34" r="7.2"/><path d="M197.85,172c.87,0,1,0,1.37-.66.08-.08.36-.08.4.07a5.36,5.36,0,0,1-.58,1.86c-.48,0-.92,0-1.68,0h-1.91c-.62,0-1.14,0-1.34,0A.2.2,0,0,1,194,173c.45-.42,1.14-1.06,1.86-1.85a4.88,4.88,0,0,0,1.57-3.2,1.33,1.33,0,0,0-1.31-1.46,1.83,1.83,0,0,0-1.55,1.1.25.25,0,0,1-.39-.17,2.94,2.94,0,0,1,2.76-1.87,2.07,2.07,0,0,1,2.26,2c0,.94-.37,1.61-1.81,3l-.57.54c-.53.49-.64.66-.64.76s.06.14.23.14Z" transform="translate(-11.05)"/><circle class="cls-10" cx="7.7" cy="188.96" r="7.2"/><path d="M16.71,186.89a.25.25,0,0,1-.33-.22,2.71,2.71,0,0,1,2.5-1.53c1.18,0,1.91.58,1.91,1.38,0,.49-.21,1-1.51,1.55-.13.06-.05.16.11.16a1.85,1.85,0,0,1,2,1.85A3,3,0,0,1,20,192.53a5,5,0,0,1-2.77,1c-.65,0-1.29-.24-1.29-.85a.66.66,0,0,1,.71-.66c.44,0,.7.48.81.63a.59.59,0,0,0,.51.28,2,2,0,0,0,1.61-2.16c0-1.07-.55-1.83-1.4-1.83a1.73,1.73,0,0,0-1.19.5.4.4,0,0,1-.27-.57,8.57,8.57,0,0,0,1.93-1,1.42,1.42,0,0,0,.5-1.08.93.93,0,0,0-1-.87A2,2,0,0,0,16.71,186.89Z" transform="translate(-11.05)"/><circle class="cls-10" cx="185.81" cy="284.96" r="7.2"/><path d="M197.07,286.94c0-.32,0-.35-.28-.35H194a.3.3,0,0,1-.13-.39l3.9-5.56c.13-.19.23-.29.39-.29h.35c.21,0,.3.09.12.32l-3.6,5c-.1.16-.12.26.27.26h1.47c.25,0,.28,0,.28-.35v-1.68c0-.28.07-.36.26-.43a5.33,5.33,0,0,1,1.17-.37c.1,0,.15.08.15.2v2.28c0,.31,0,.35.28.35h.79c.18.09.18.56,0,.67h-.79c-.25,0-.28,0-.28.35v.33c0,1,.07,1.09.6,1.14l.25,0c.11.08.1.39,0,.42-.43,0-1.07,0-1.62,0-.79,0-1.51,0-1.92,0-.12,0-.13-.34,0-.42l.49,0c.59,0,.66-.15.66-1.13Z" transform="translate(-11.05)"/><line class="cls-11" x1="100.87" y1="120.34" x2="231.86" y2="140.34"/><line class="cls-12" x1="231.86" y1="140.34" x2="356.88" y2="159.43"/><path d="M373.89,160.34a30.17,30.17,0,0,0-9.16,3.41l2.41-4.44-1-5A30.19,30.19,0,0,0,373.89,160.34Z" transform="translate(-11.05)"/><line class="cls-11" x1="230.73" y1="140.34" x2="230.73" y2="157.71"/><path d="M241.78,163.75A30.31,30.31,0,0,0,237,155.2l4.75,1.72,4.76-1.72A30.1,30.1,0,0,0,241.78,163.75Z" transform="translate(-11.05)"/><line class="cls-11" x1="230.73" y1="255.44" x2="230.73" y2="272.82"/><path d="M241.78,278.85a30.12,30.12,0,0,0-4.75-8.54l4.75,1.72,4.76-1.72A29.91,29.91,0,0,0,241.78,278.85Z" transform="translate(-11.05)"/><line class="cls-11" x1="100.87" y1="235.71" x2="231.86" y2="255.71"/><line class="cls-12" x1="231.86" y1="255.71" x2="356.88" y2="274.8"/><path d="M373.89,275.71a30.44,30.44,0,0,0-9.16,3.41l2.41-4.44-1-5A30.19,30.19,0,0,0,373.89,275.71Z" transform="translate(-11.05)"/><path d="M409.07,19.62c0,1.68-1.59,3-3.7,3-.58,0-1.58-.1-2.3-.1s-1.48,0-2,0c-.06,0-.06-.19,0-.19.9,0,1.15-.18,1.15-1.1V13.81c0-.92-.23-1.11-1.13-1.11-.05,0-.05-.19,0-.19.56,0,1.25.05,2,.05.6,0,1.28-.1,2-.1,1.93,0,3.06.71,3.06,2.07a2.58,2.58,0,0,1-1.95,2.36C407.93,17.12,409.07,18.17,409.07,19.62ZM404,13.84v3h.64c1.15,0,1.73-1,1.73-2.22s-.56-1.86-1.56-1.86C404.17,12.81,404,13.05,404,13.84ZM407.2,20c0-1.57-.73-2.67-2.39-2.67-.16,0-.46,0-.83,0v3.86c0,.64.13,1,1.12,1C406.57,22.18,407.2,21.39,407.2,20Z" transform="translate(-11.05)"/><path d="M410.41,19.34A3.3,3.3,0,0,1,414,16.13a3.21,3.21,0,0,1,3.25,3.31,3.35,3.35,0,0,1-3.52,3.28A3.23,3.23,0,0,1,410.41,19.34Zm5,.66c0-2.34-1-3.54-2-3.54-.84,0-1.28.74-1.28,2.29,0,2.19.89,3.63,2,3.63C415,22.38,415.45,21.52,415.45,20Z" transform="translate(-11.05)"/><path d="M425.47,19.1A3.4,3.4,0,0,1,422,22.72a3.81,3.81,0,0,1-2.26-.75l-1.45.65c-.1,0-.15-.11-.07-.14a1.67,1.67,0,0,0,.79-1.62V13.08c0-.72-.12-1-.48-1a1.63,1.63,0,0,0-.6.18c-.08,0-.16-.18-.11-.19l2.34-1.11h.08a.29.29,0,0,1,.25.21V17.2a3.3,3.3,0,0,1,2.31-1.07A2.66,2.66,0,0,1,425.47,19.1Zm-1.65.63c0-1.92-.71-2.76-1.76-2.76a2.83,2.83,0,0,0-1.56.55v2.35c0,1.91,1.17,2.53,1.89,2.53C423.32,22.4,423.82,21.41,423.82,19.73Z" transform="translate(-11.05)"/><path d="M433.72,19.1a3.39,3.39,0,0,1-3.45,3.62A3.79,3.79,0,0,1,428,22l-1.46.65c-.09,0-.14-.11-.06-.14a1.68,1.68,0,0,0,.78-1.62V13.08c0-.72-.11-1-.48-1a1.64,1.64,0,0,0-.59.18c-.08,0-.16-.18-.11-.19l2.33-1.11h.08a.29.29,0,0,1,.26.21V17.2a3.28,3.28,0,0,1,2.31-1.07A2.66,2.66,0,0,1,433.72,19.1Zm-1.65.63c0-1.92-.7-2.76-1.76-2.76a2.8,2.8,0,0,0-1.55.55v2.35c0,1.91,1.17,2.53,1.89,2.53C431.58,22.4,432.07,21.41,432.07,19.73Z" transform="translate(-11.05)"/><path d="M441.29,16.53c-.72,0-1.18.67-1.57,1.71L438,23c-1.17,3.09-2.13,4.05-3.35,4.05-.62,0-1-.27-1-.78a.72.72,0,0,1,.77-.76c.54,0,.64.42,1.16.42.72,0,1.19-.75,2-3.06L435,17.66c-.46-.93-.65-1.13-1-1.13-.06,0-.06-.2,0-.2.43,0,.93,0,1.36,0,.77,0,1.32,0,1.79,0,.07,0,.07.2,0,.2-.75,0-.94.14-.7.62L438.33,21l1-2.79c.35-1,0-1.69-.85-1.69-.05,0-.05-.2,0-.2.51,0,.88,0,1.62,0,.51,0,.77,0,1.23,0C441.34,16.33,441.34,16.53,441.29,16.53Z" transform="translate(-11.05)"/><polygon class="cls-13" points="434.6 36.93 434.6 40.24 432.84 40.24 432.84 36.93 428.19 36.93 428.19 43.56 439.25 43.56 439.25 36.93 434.6 36.93"/><rect class="cls-13" x="395.02" y="42.01" width="44.23" height="3.1"/><rect class="cls-13" x="395.13" y="41.3" width="0.88" height="4.52" rx="0.44" ry="0.44"/><rect class="cls-13" x="396.01" y="41.3" width="0.88" height="4.52" rx="0.44" ry="0.44"/><rect class="cls-13" x="427.31" y="41.3" width="0.88" height="4.52" rx="0.44" ry="0.44"/><path class="cls-13" d="M399.44,34.71h0a6.64,6.64,0,0,0-6.64,6.64v.44a1.77,1.77,0,0,0,0,3.54v.44a6.64,6.64,0,0,0,6.64,6.64h0a6.63,6.63,0,0,0,6.63-6.64V41.35A6.63,6.63,0,0,0,399.44,34.71Zm-7.52,8.85a.89.89,0,1,1,.88.88A.88.88,0,0,1,391.92,43.56Zm11.94,2.21a4.42,4.42,0,0,1-4.42,4.42h0a4.41,4.41,0,0,1-3.62-1.88,3.09,3.09,0,0,1,.16-3.73l.83-1-.83-1a3.09,3.09,0,0,1-.16-3.73,4.41,4.41,0,0,1,3.62-1.88h0a4.42,4.42,0,0,1,4.42,4.42Z" transform="translate(-11.05)"/><rect class="cls-4" x="18.09" y="103.14" width="69.12" height="30.6"/><rect class="cls-5" x="16.65" y="97.74" width="72" height="5.4" rx="0.9" ry="0.9"/><rect class="cls-5" x="16.65" y="90.54" width="72" height="7.2" rx="0.9" ry="0.9"/><rect class="cls-5" x="16.65" y="133.74" width="72" height="7.2" rx="0.9" ry="0.9"/><path class="cls-6" d="M45.56,97.74H60.1a0,0,0,0,1,0,0V107A5.12,5.12,0,0,1,55,112.14H50.68A5.12,5.12,0,0,1,45.56,107V97.74A0,0,0,0,1,45.56,97.74Z"/><path class="cls-14" d="M60.24,105.42A5.25,5.25,0,1,0,63,112.34,5.24,5.24,0,0,0,60.24,105.42Zm-3.51,8a3.5,3.5,0,1,1,4.61-1.8A3.5,3.5,0,0,1,56.73,113.44Z" transform="translate(-11.05)"/><path class="cls-14" d="M50.08,109.64h10.5a1.75,1.75,0,0,1,1.75,1.75v5.25a7,7,0,0,1-7,7h0a7,7,0,0,1-7-7V111.4A1.75,1.75,0,0,1,50.08,109.64Z" transform="translate(40.34 -12.4) rotate(23.63)"/><path class="cls-15" d="M57.22,115.81a1.4,1.4,0,1,0-2.52.09l-1.22,2.8,1.6.7,1.22-2.8A1.34,1.34,0,0,0,57.22,115.81Z" transform="translate(-11.05)"/><rect class="cls-9" x="48.47" y="107.76" width="8.72" height="0.9" rx="0.45" ry="0.45"/><rect class="cls-4" x="197.35" y="189.74" width="69.12" height="30.6"/><rect class="cls-5" x="195.91" y="184.34" width="72" height="5.4" rx="0.9" ry="0.9"/><rect class="cls-5" x="195.91" y="177.14" width="72" height="7.2" rx="0.9" ry="0.9"/><rect class="cls-5" x="195.91" y="220.34" width="72" height="7.2" rx="0.9" ry="0.9"/><path class="cls-6" d="M225.52,184.34h14.54a0,0,0,0,1,0,0v9.28a5.12,5.12,0,0,1-5.12,5.12h-4.31a5.12,5.12,0,0,1-5.12-5.12v-9.28a0,0,0,0,1,0,0Z"/><path class="cls-14" d="M240.2,192a5.25,5.25,0,1,0,2.71,6.92A5.26,5.26,0,0,0,240.2,192Zm-3.51,8a3.5,3.5,0,1,1,4.61-1.8A3.5,3.5,0,0,1,236.69,200Z" transform="translate(-11.05)"/><path class="cls-14" d="M230,196.24h10.5a1.75,1.75,0,0,1,1.75,1.75v5.25a7,7,0,0,1-7,7h0a7,7,0,0,1-7-7V198a1.75,1.75,0,0,1,1.75-1.75Z" transform="translate(90.14 -77.27) rotate(23.63)"/><path class="cls-15" d="M237.18,202.41a1.4,1.4,0,1,0-2.52.09l-1.23,2.8,1.61.7,1.22-2.8A1.37,1.37,0,0,0,237.18,202.41Z" transform="translate(-11.05)"/><path class="cls-7" d="M247.9,191.74a5.25,5.25,0,1,0,6.65,3.31A5.26,5.26,0,0,0,247.9,191.74Zm2.79,8.3a3.5,3.5,0,1,1,2.2-4.44A3.49,3.49,0,0,1,250.69,200Z" transform="translate(-11.05)"/><path class="cls-7" d="M246.56,196.36h10.5a1.75,1.75,0,0,1,1.75,1.75v5.25a7,7,0,0,1-7,7h0a7,7,0,0,1-7-7v-5.25A1.75,1.75,0,0,1,246.56,196.36Z" transform="translate(-62.79 91.02) rotate(-18.62)"/><path class="cls-8" d="M252.65,201.47a1.4,1.4,0,1,0-1.81,1.76l1,2.89,1.66-.56-1-2.89A1.4,1.4,0,0,0,252.65,201.47Z" transform="translate(-11.05)"/><rect class="cls-9" x="228.43" y="194.36" width="8.72" height="0.9" rx="0.45" ry="0.45"/><rect class="cls-4" x="196.17" y="313.7" width="69.12" height="30.6"/><rect class="cls-5" x="194.73" y="308.3" width="72" height="5.4" rx="0.9" ry="0.9"/><rect class="cls-9" x="226.37" y="318.32" width="8.72" height="0.9" rx="0.45" ry="0.45"/><path class="cls-16" d="M277,298.28H206.59a.81.81,0,0,1-.81-.81l.64-4.15a.8.8,0,0,1,.8-.8h69.12a.8.8,0,0,1,.81.8l.63,4.15A.8.8,0,0,1,277,298.28Z" transform="translate(-11.05)"/><rect class="cls-5" x="194.73" y="344.3" width="72" height="7.2" rx="0.9" ry="0.9"/><path class="cls-6" d="M243.93,283.88h-4.3a5.11,5.11,0,0,0-5.12,5.11v9.29h14.54V289A5.11,5.11,0,0,0,243.93,283.88Zm1.76,4.52h-7.82a.45.45,0,1,1,0-.9h7.82a.45.45,0,0,1,0,.9Z" transform="translate(-11.05)"/><polygon class="cls-17" points="263.13 308.3 198.33 308.3 196.17 298.28 265.29 298.28 263.13 308.3"/><line class="cls-11" x1="187.18" y1="194.81" x2="105.17" y2="213.47"/><path d="M110.33,214.81a30.07,30.07,0,0,0,7.28-6.53l-.62,5,2.73,4.26A30.28,30.28,0,0,0,110.33,214.81Z" transform="translate(-11.05)"/></svg>