<?xml version="1.0" encoding="utf-8"?>
<!-- Generator: Adobe Illustrator 23.0.1, SVG Export Plug-In . SVG Version: 6.00 Build 0)  -->
<svg version="1.1" id="Layer_1" xmlns="http://www.w3.org/2000/svg" xmlns:xlink="http://www.w3.org/1999/xlink" x="0px" y="0px"
	 viewBox="0 0 792 288" style="enable-background:new 0 0 792 288;" xml:space="preserve">
<style type="text/css">
	.st0{font-family:'CormorantGaramond-Bold';}
	.st1{font-size:16px;}
	.st2{fill:#FFFFFF;stroke:#000000;stroke-width:1.7647;stroke-linejoin:round;stroke-miterlimit:10;}
	.st3{fill:none;stroke:#000000;stroke-width:1.9704;stroke-linejoin:round;stroke-miterlimit:10;}
	.st4{font-family:'CormorantGaramond-Regular';}
	.st5{font-size:14px;}
	.st6{font-family:'CormorantGaramond-Italic';}
	.st7{fill:none;stroke:#000000;stroke-miterlimit:10;}
	.st8{fill:#FFFFFF;stroke:#000000;stroke-width:1.3894;stroke-linejoin:round;stroke-miterlimit:10;}
	.st9{font-family:'Courier';}
	.st10{font-size:6px;}
	.st11{fill:#005AC8;stroke:#153267;stroke-width:0.5188;stroke-miterlimit:10;}
	.st12{fill:#333333;stroke:#000000;stroke-width:0.5188;stroke-miterlimit:10;}
	.st13{fill:#000D3C;stroke:#000029;stroke-width:0.4209;stroke-miterlimit:10;}
	.st14{font-size:3.5938px;}
	.st15{fill:#333333;stroke:#000000;stroke-width:0.3108;stroke-miterlimit:10;}
	.st16{fill:#000D3C;stroke:#000029;stroke-width:0.2521;stroke-miterlimit:10;}
</style>
<text transform="matrix(1 0 0 1 28.3184 39.6735)" class="st0 st1">Assata signs a message to Bobby</text>
<g>
	<g>
		<path class="st2" d="M31.1,203.7l13.7,13.7h40.3v-61.9c0-4.4-3.6-7.9-7.9-7.9H31.1V203.7z"/>
		<line class="st3" x1="37.1" y1="157.6" x2="73.5" y2="157.6"/>
		<line class="st3" x1="37.1" y1="164.6" x2="67.1" y2="164.6"/>
		<line class="st3" x1="37.1" y1="171.6" x2="76.1" y2="171.6"/>
		<line class="st3" x1="37.1" y1="178.5" x2="77.7" y2="178.5"/>
		<line class="st3" x1="37.1" y1="185.5" x2="74.6" y2="185.5"/>
		<line class="st3" x1="37.1" y1="192.5" x2="76.1" y2="192.5"/>
		<line class="st3" x1="37.1" y1="199.4" x2="79.2" y2="199.4"/>
		<line class="st3" x1="44.9" y1="206.4" x2="74.6" y2="206.4"/>
		<polygon class="st2" points="31.1,203.7 44.9,203.7 44.9,217.4 		"/>
	</g>
	<g>
		<text transform="matrix(1 0 0 1 33.411 236.1906)" class="st4 st5">Plaintext</text>
	</g>
</g>
<text transform="matrix(1 0 0 1 185.2235 96.8947)"><tspan x="0" y="0" class="st4 st5">Generate </tspan><tspan x="-23.4" y="16.8" class="st6 st5">Cryptographic Hash</tspan></text>
<polyline class="st7" points="267.9,124.8 155.2,124.8 117,191.9 155.2,258.9 637.1,258.9 675.5,191.9 637.1,124.8 "/>
<rect x="279.9" y="113.3" class="st8" width="94.6" height="23.1"/>
<text transform="matrix(1 0 0 1 283.9832 123.2182)"><tspan x="0" y="0" class="st9 st10">8843 D7F9 2416 211D E9EB</tspan><tspan x="0" y="7.2" class="st9 st10">B963 FF4C E281 2593 2878</tspan></text>
<g>
	<text transform="matrix(1 0 0 1 395.5334 96.8946)"><tspan x="0" y="0" class="st4 st5">Encrypt </tspan><tspan x="46.9" y="0" class="st6 st5">Hash </tspan><tspan x="76.1" y="0" class="st4 st5">using</tspan><tspan x="-0.2" y="16.8" class="st4 st5">Assata’s </tspan><tspan x="46.3" y="16.8" class="st6 st5">Private Key</tspan></text>
</g>
<g>
	<g>
		<line class="st7" x1="386.5" y1="124.8" x2="504.2" y2="124.8"/>
		<g>
			<path d="M509.6,124.8c-2.6,0.9-5.7,2.6-7.7,4.3l1.5-4.3l-1.5-4.3C503.9,122.2,507,123.8,509.6,124.8z"/>
		</g>
	</g>
</g>
<g>
	<rect x="466.5" y="134.6" class="st11" width="11.7" height="7"/>
	<rect x="431.5" y="140" class="st12" width="46.7" height="3.3"/>
	<path class="st12" d="M432.1,144L432.1,144c-0.3,0-0.5-0.2-0.5-0.5v-3.8c0-0.3,0.2-0.5,0.5-0.5l0,0c0.3,0,0.5,0.2,0.5,0.5v3.8
		C432.6,143.8,432.4,144,432.1,144z"/>
	<path class="st12" d="M433,144L433,144c-0.3,0-0.5-0.2-0.5-0.5v-3.8c0-0.3,0.2-0.5,0.5-0.5h0c0.3,0,0.5,0.2,0.5,0.5v3.8
		C433.5,143.8,433.3,144,433,144z"/>
	<path class="st12" d="M466.1,144L466.1,144c-0.3,0-0.5-0.2-0.5-0.5v-3.8c0-0.3,0.2-0.5,0.5-0.5l0,0c0.3,0,0.5,0.2,0.5,0.5v3.8
		C466.5,143.8,466.3,144,466.1,144z"/>
	<path class="st12" d="M424.5,132.3L424.5,132.3c-3.9,0-7,3.1-7,7v0.5c-1,0-1.9,0.8-1.9,1.9c0,1,0.8,1.9,1.9,1.9v0.5
		c0,3.9,3.1,7,7,7h0c3.9,0,7-3.1,7-7v-4.7C431.5,135.4,428.4,132.3,424.5,132.3z M416.6,141.6c0-0.5,0.4-0.9,0.9-0.9
		s0.9,0.4,0.9,0.9c0,0.5-0.4,0.9-0.9,0.9S416.6,142.1,416.6,141.6z M429.2,143.9c0,2.6-2.1,4.7-4.7,4.7h0c-1.6,0-3-0.8-3.8-2
		c-0.8-1.2-0.7-2.8,0.2-3.9l0.9-1.1l-0.9-1.1c-0.9-1.1-1-2.7-0.2-3.9c0.8-1.2,2.2-2,3.8-2h0c2.6,0,4.7,2.1,4.7,4.7V143.9z"/>
</g>
<text transform="matrix(1 0 0 1 313.0853 151.3997)" class="st4 st5">Hash</text>
<text transform="matrix(1 0 0 1 551.6671 151.3999)" class="st4 st5">Signature</text>
<g>
	<text transform="matrix(1 0 0 1 534.6952 123.2183)"><tspan x="0" y="0" class="st9 st10">F481 A6B2 E127 9192 AB4A</tspan><tspan x="0" y="7.2" class="st9 st10">44A4 8651 3EA3 FCFF 191D</tspan></text>
	<rect x="537" y="113.3" class="st7" width="88.9" height="23.1"/>
	<g>
		<path class="st12" d="M530.4,109.6c-4.6,0-8.3,3.7-8.3,8.3c0,4.6,3.7,8.3,8.3,8.3s8.3-3.7,8.3-8.3
			C538.7,113.3,535,109.6,530.4,109.6z M530.4,123.4c-3,0-5.5-2.5-5.5-5.5c0-3,2.5-5.5,5.5-5.5c3,0,5.5,2.5,5.5,5.5
			C535.9,121,533.4,123.4,530.4,123.4z"/>
		<path class="st12" d="M530.4,140L530.4,140c-6.1,0-11-4.9-11-11v-8.3c0-1.5,1.2-2.8,2.8-2.8h16.5c1.5,0,2.8,1.2,2.8,2.8v8.3
			C541.4,135,536.5,140,530.4,140z"/>
		<path class="st13" d="M532.6,126.5c0-1.2-1-2.2-2.2-2.2c-1.2,0-2.2,1-2.2,2.2c0,0.7,0.3,1.3,0.8,1.7v4.8h2.8v-4.8
			C532.3,127.8,532.6,127.2,532.6,126.5z"/>
	</g>
</g>
<g>
	<g>
		<g>
			<path class="st2" d="M709.9,205.3l13.7,13.7h40.3V157c0-4.4-3.6-7.9-7.9-7.9h-46.1V205.3z"/>
			<line class="st3" x1="715.8" y1="159.2" x2="752.2" y2="159.2"/>
			<line class="st3" x1="715.8" y1="166.1" x2="745.8" y2="166.1"/>
			<line class="st3" x1="715.8" y1="173.1" x2="754.8" y2="173.1"/>
			<line class="st3" x1="715.8" y1="180.1" x2="756.4" y2="180.1"/>
			<line class="st3" x1="715.8" y1="187.1" x2="753.4" y2="187.1"/>
			<line class="st3" x1="715.8" y1="194" x2="754.8" y2="194"/>
			<line class="st3" x1="715.8" y1="201" x2="757.9" y2="201"/>
			<line class="st3" x1="723.6" y1="208" x2="753.4" y2="208"/>
			<polygon class="st2" points="709.9,205.3 723.6,205.2 723.6,219 			"/>
		</g>
		<g>
			<text transform="matrix(1 0 0 1 710.4982 237.7499)"><tspan x="0" y="0" class="st4 st5">Plaintext </tspan><tspan x="-8.6" y="16.8" class="st4 st5">w/ Signature</tspan></text>
		</g>
	</g>
	<g>
		<text transform="matrix(1 0 0 1 709.2224 141.3776)"><tspan x="0" y="0" class="st9 st14">F481 A6B2 E127 9192 AB4A</tspan><tspan x="0" y="4.3" class="st9 st14">44A4 8651 3EA3 FCFF 191D</tspan></text>
		<rect x="710.6" y="135.4" class="st7" width="53.2" height="13.8"/>
		<g>
			<path class="st15" d="M706.6,133.2c-2.7,0-5,2.2-5,5c0,2.7,2.2,5,5,5s5-2.2,5-5C711.6,135.5,709.4,133.2,706.6,133.2z
				 M706.6,141.5c-1.8,0-3.3-1.5-3.3-3.3s1.5-3.3,3.3-3.3s3.3,1.5,3.3,3.3S708.5,141.5,706.6,141.5z"/>
			<path class="st15" d="M706.6,151.4L706.6,151.4c-3.6,0-6.6-3-6.6-6.6v-5c0-0.9,0.7-1.7,1.7-1.7h9.9c0.9,0,1.7,0.7,1.7,1.7v5
				C713.2,148.4,710.3,151.4,706.6,151.4z"/>
			<path class="st16" d="M708,143.4c0-0.7-0.6-1.3-1.3-1.3s-1.3,0.6-1.3,1.3c0,0.4,0.2,0.8,0.5,1v2.9h1.7v-2.9
				C707.8,144.1,708,143.8,708,143.4z"/>
		</g>
	</g>
</g>
<g>
	<g>
		<line class="st7" x1="675.5" y1="191.9" x2="693.7" y2="191.9"/>
		<g>
			<path d="M699.1,191.9c-2.6,0.9-5.7,2.6-7.7,4.3l1.5-4.3l-1.5-4.3C693.4,189.3,696.6,190.9,699.1,191.9z"/>
		</g>
	</g>
</g>
<line class="st7" x1="117" y1="191.9" x2="96.4" y2="191.9"/>
</svg>
