<?xml version="1.0" encoding="utf-8"?>
<!-- Generator: Adobe Illustrator 23.0.1, SVG Export Plug-In . SVG Version: 6.00 Build 0)  -->
<svg version="1.1" id="Layer_1" xmlns="http://www.w3.org/2000/svg" xmlns:xlink="http://www.w3.org/1999/xlink" x="0px" y="0px"
	 viewBox="0 0 756 360" style="enable-background:new 0 0 756 360;" xml:space="preserve">
<style type="text/css">
	.st0{font-family:'CormorantGaramond-Bold';}
	.st1{font-size:16px;}
	.st2{fill:#FFFFFF;stroke:#000000;stroke-width:1.7647;stroke-linejoin:round;stroke-miterlimit:10;}
	.st3{fill:none;stroke:#000000;stroke-width:1.9704;stroke-linejoin:round;stroke-miterlimit:10;}
	.st4{font-family:'CormorantGaramond-Regular';}
	.st5{font-size:14px;}
	.st6{fill:none;stroke:#000000;stroke-miterlimit:10;}
	.st7{font-family:'CormorantGaramond-Italic';}
	.st8{fill:#FFFFFF;stroke:#000000;stroke-width:1.3894;stroke-linejoin:round;stroke-miterlimit:10;}
	.st9{font-family:'Courier';}
	.st10{font-size:6px;}
	.st11{fill:#333333;stroke:#000000;stroke-width:0.5188;stroke-miterlimit:10;}
	.st12{fill:#000D3C;stroke:#000029;stroke-width:0.4209;stroke-miterlimit:10;}
	.st13{font-size:3.5938px;}
	.st14{fill:#333333;stroke:#000000;stroke-width:0.3108;stroke-miterlimit:10;}
	.st15{fill:#000D3C;stroke:#000029;stroke-width:0.2521;stroke-miterlimit:10;}
	.st16{fill:#005AC8;stroke:#153267;stroke-width:0.549;stroke-miterlimit:10;}
	.st17{fill:none;stroke:#0AB45A;stroke-width:3;stroke-miterlimit:10;}
</style>
<text transform="matrix(1 0 0 1 28.3184 39.6735)" class="st0 st1">Bobby verifies Assata’s Signature</text>
<g>
	<g>
		<path class="st2" d="M180.2,276.2l13.7,13.7h40.3v-61.9c0-4.4-3.6-7.9-7.9-7.9h-46.1V276.2z"/>
		<line class="st3" x1="186.1" y1="230.1" x2="222.5" y2="230.1"/>
		<line class="st3" x1="186.1" y1="237" x2="216.1" y2="237"/>
		<line class="st3" x1="186.1" y1="244" x2="225.1" y2="244"/>
		<line class="st3" x1="186.1" y1="251" x2="226.7" y2="251"/>
		<line class="st3" x1="186.1" y1="258" x2="223.7" y2="258"/>
		<line class="st3" x1="186.1" y1="264.9" x2="225.1" y2="264.9"/>
		<line class="st3" x1="186.1" y1="271.9" x2="228.2" y2="271.9"/>
		<line class="st3" x1="193.9" y1="278.9" x2="223.7" y2="278.9"/>
		<polygon class="st2" points="180.2,276.2 193.9,276.1 193.9,289.9 		"/>
	</g>
	<g>
		<text transform="matrix(1 0 0 1 182.4375 308.6496)" class="st4 st5">Plaintext</text>
	</g>
</g>
<polyline class="st6" points="169.9,125.2 155.2,125.2 117,192.3 155.2,259.4 169.9,259.4 "/>
<g>
	<text transform="matrix(1 0 0 1 300.1651 97.3134)"><tspan x="0" y="0" class="st4 st5">Decrypt </tspan><tspan x="47.5" y="0" class="st7 st5">Signature </tspan><tspan x="98.8" y="0" class="st4 st5">using</tspan><tspan x="13.7" y="16.8" class="st4 st5">Assata’s </tspan><tspan x="60.2" y="16.8" class="st7 st5">Public Key</tspan></text>
</g>
<g>
	<g>
		<line class="st6" x1="297" y1="125.2" x2="425.6" y2="125.2"/>
		<g>
			<path d="M431.1,125.2c-2.6,0.9-5.7,2.6-7.7,4.3l1.5-4.3l-1.5-4.3C425.3,122.6,428.5,124.3,431.1,125.2z"/>
		</g>
	</g>
</g>
<g>
	<g>
		<line class="st6" x1="244.4" y1="262.1" x2="373.1" y2="262.1"/>
		<g>
			<path d="M378.5,262.1c-2.6,0.9-5.7,2.6-7.7,4.3l1.5-4.3l-1.5-4.3C372.8,259.5,375.9,261.1,378.5,262.1z"/>
		</g>
	</g>
</g>
<g>
	<rect x="441.3" y="113.7" class="st8" width="94.6" height="23.1"/>
	<text transform="matrix(1 0 0 1 445.4055 123.6367)"><tspan x="0" y="0" class="st9 st10">8843 D7F9 2416 211D E9EB</tspan><tspan x="0" y="7.2" class="st9 st10">B963 FF4C E281 2593 2878</tspan></text>
	<text transform="matrix(1 0 0 1 474.5075 151.4928)" class="st4 st5">Hash</text>
</g>
<g>
	<text transform="matrix(1 0 0 1 207.933 151.8185)" class="st4 st5">Signature</text>
	<g>
		<text transform="matrix(1 0 0 1 195.4963 123.6368)"><tspan x="0" y="0" class="st9 st10">F481 A6B2 E127 9192 AB4A</tspan><tspan x="0" y="7.2" class="st9 st10">44A4 8651 3EA3 FCFF 191D</tspan></text>
		<rect x="197.8" y="113.7" class="st6" width="88.9" height="23.1"/>
		<g>
			<path class="st11" d="M191.2,110.1c-4.6,0-8.3,3.7-8.3,8.3c0,4.6,3.7,8.3,8.3,8.3s8.3-3.7,8.3-8.3
				C199.5,113.8,195.8,110.1,191.2,110.1z M191.2,123.8c-3,0-5.5-2.5-5.5-5.5c0-3,2.5-5.5,5.5-5.5s5.5,2.5,5.5,5.5
				C196.7,121.4,194.2,123.8,191.2,123.8z"/>
			<path class="st11" d="M191.2,140.4L191.2,140.4c-6.1,0-11-4.9-11-11v-8.3c0-1.5,1.2-2.8,2.8-2.8h16.5c1.5,0,2.8,1.2,2.8,2.8v8.3
				C202.2,135.4,197.3,140.4,191.2,140.4z"/>
			<path class="st12" d="M193.4,127c0-1.2-1-2.2-2.2-2.2s-2.2,1-2.2,2.2c0,0.7,0.3,1.3,0.8,1.7v4.8h2.8v-4.8
				C193.1,128.3,193.4,127.6,193.4,127z"/>
		</g>
	</g>
</g>
<g>
	<g>
		<g>
			<path class="st2" d="M32.5,205.7l13.7,13.7h40.3v-61.9c0-4.4-3.6-7.9-7.9-7.9H32.5V205.7z"/>
			<line class="st3" x1="38.4" y1="159.6" x2="74.8" y2="159.6"/>
			<line class="st3" x1="38.4" y1="166.6" x2="68.4" y2="166.6"/>
			<line class="st3" x1="38.4" y1="173.5" x2="77.4" y2="173.5"/>
			<line class="st3" x1="38.4" y1="180.5" x2="79" y2="180.5"/>
			<line class="st3" x1="38.4" y1="187.5" x2="76" y2="187.5"/>
			<line class="st3" x1="38.4" y1="194.4" x2="77.4" y2="194.4"/>
			<line class="st3" x1="38.4" y1="201.4" x2="80.5" y2="201.4"/>
			<line class="st3" x1="46.2" y1="208.4" x2="76" y2="208.4"/>
			<polygon class="st2" points="32.5,205.7 46.2,205.7 46.2,219.4 			"/>
		</g>
		<g>
			<text transform="matrix(1 0 0 1 33.0904 238.1684)"><tspan x="0" y="0" class="st4 st5">Plaintext </tspan><tspan x="-8.6" y="16.8" class="st4 st5">w/ Signature</tspan></text>
		</g>
	</g>
	<g>
		<text transform="matrix(1 0 0 1 31.8146 141.7961)"><tspan x="0" y="0" class="st9 st13">F481 A6B2 E127 9192 AB4A</tspan><tspan x="0" y="4.3" class="st9 st13">44A4 8651 3EA3 FCFF 191D</tspan></text>
		<rect x="33.2" y="135.8" class="st6" width="53.2" height="13.8"/>
		<g>
			<path class="st14" d="M29.2,133.7c-2.7,0-5,2.2-5,5c0,2.7,2.2,5,5,5s5-2.2,5-5C34.2,135.9,32,133.7,29.2,133.7z M29.2,141.9
				c-1.8,0-3.3-1.5-3.3-3.3s1.5-3.3,3.3-3.3c1.8,0,3.3,1.5,3.3,3.3S31.1,141.9,29.2,141.9z"/>
			<path class="st14" d="M29.2,151.8L29.2,151.8c-3.6,0-6.6-3-6.6-6.6v-5c0-0.9,0.7-1.7,1.7-1.7h9.9c0.9,0,1.7,0.7,1.7,1.7v5
				C35.8,148.9,32.9,151.8,29.2,151.8z"/>
			<path class="st15" d="M30.6,143.8c0-0.7-0.6-1.3-1.3-1.3s-1.3,0.6-1.3,1.3c0,0.4,0.2,0.8,0.5,1v2.9h1.7v-2.9
				C30.4,144.6,30.6,144.2,30.6,143.8z"/>
		</g>
	</g>
</g>
<line class="st6" x1="117" y1="192.3" x2="96.4" y2="192.3"/>
<text transform="matrix(1 0 0 1 284.7854 233.4177)"><tspan x="0" y="0" class="st4 st5">Generate </tspan><tspan x="-23.4" y="16.8" class="st7 st5">Cryptographic Hash</tspan></text>
<g>
	<rect x="388.7" y="250.4" class="st8" width="94.6" height="23.1"/>
	<text transform="matrix(1 0 0 1 392.8425 260.3207)"><tspan x="0" y="0" class="st9 st10">8843 D7F9 2416 211D E9EB</tspan><tspan x="0" y="7.2" class="st9 st10">B963 FF4C E281 2593 2878</tspan></text>
	<text transform="matrix(1 0 0 1 421.9446 289.8907)" class="st4 st5">Hash</text>
</g>
<g>
	<polygon class="st16" points="391.9,135.2 391.9,138.9 390,138.9 390,135.2 384.8,135.2 384.8,142.6 397.1,142.6 397.1,135.2 	"/>
	<rect x="347.7" y="140.8" class="st16" width="49.4" height="3.5"/>
	<path class="st16" d="M348.3,145.1L348.3,145.1c-0.3,0-0.5-0.2-0.5-0.5v-4.1c0-0.3,0.2-0.5,0.5-0.5l0,0c0.3,0,0.5,0.2,0.5,0.5v4.1
		C348.8,144.9,348.6,145.1,348.3,145.1z"/>
	<path class="st16" d="M349.3,145.1L349.3,145.1c-0.3,0-0.5-0.2-0.5-0.5v-4.1c0-0.3,0.2-0.5,0.5-0.5l0,0c0.3,0,0.5,0.2,0.5,0.5v4.1
		C349.8,144.9,349.6,145.1,349.3,145.1z"/>
	<path class="st16" d="M384.3,145.1L384.3,145.1c-0.3,0-0.5-0.2-0.5-0.5v-4.1c0-0.3,0.2-0.5,0.5-0.5l0,0c0.3,0,0.5,0.2,0.5,0.5v4.1
		C384.8,144.9,384.5,145.1,384.3,145.1z"/>
	<path class="st16" d="M340.3,132.7L340.3,132.7c-4.1,0-7.4,3.3-7.4,7.4v0.5c-1.1,0-2,0.9-2,2c0,1.1,0.9,2,2,2v0.5
		c0,4.1,3.3,7.4,7.4,7.4l0,0c4.1,0,7.4-3.3,7.4-7.4v-4.9C347.7,136,344.4,132.7,340.3,132.7z M331.9,142.6c0-0.5,0.4-1,1-1
		s1,0.4,1,1s-0.4,1-1,1S331.9,143.1,331.9,142.6z M345.2,145c0,2.7-2.2,4.9-4.9,4.9l0,0c-1.7,0-3.2-0.8-4-2.1
		c-0.9-1.3-0.8-3,0.2-4.2l0.9-1.1l-0.9-1.1c-1-1.2-1.1-2.9-0.2-4.2c0.9-1.3,2.4-2.1,4-2.1l0,0c2.7,0,4.9,2.2,4.9,4.9V145z"/>
</g>
<polyline class="st6" points="493.8,262.1 559.3,262.1 594.6,192.3 559.3,125.2 545.1,125.2 "/>
<g>
	<g>
		<line class="st6" x1="594.6" y1="192.3" x2="690.5" y2="192.3"/>
		<g>
			<path d="M696,192.3c-2.6,0.9-5.7,2.6-7.7,4.3l1.5-4.3l-1.5-4.3C690.2,189.7,693.4,191.3,696,192.3z"/>
		</g>
	</g>
</g>
<g>
	<text transform="matrix(1 0 0 1 600.7355 164.7134)"><tspan x="0" y="0" class="st4 st5">Compare </tspan><tspan x="54.1" y="0" class="st7 st5">Hashes</tspan><tspan x="13.1" y="16.8" class="st4 st5">for equality</tspan></text>
</g>
<polyline class="st17" points="709.4,194.1 716.5,201.2 734.4,183.3 "/>
</svg>
