<?xml version="1.0" encoding="UTF-8" standalone="no"?>
<!-- Generator: Adobe Illustrator 23.0.1, SVG Export Plug-In . SVG Version: 6.00 Build 0)  -->

<svg
   xmlns:dc="http://purl.org/dc/elements/1.1/"
   xmlns:cc="http://creativecommons.org/ns#"
   xmlns:rdf="http://www.w3.org/1999/02/22-rdf-syntax-ns#"
   xmlns:svg="http://www.w3.org/2000/svg"
   xmlns="http://www.w3.org/2000/svg"
   xmlns:sodipodi="http://sodipodi.sourceforge.net/DTD/sodipodi-0.dtd"
   xmlns:inkscape="http://www.inkscape.org/namespaces/inkscape"
   version="1.1"
   id="Layer_1"
   x="0px"
   y="0px"
   viewBox="0 0 792 288"
   style="enable-background:new 0 0 792 288;"
   xml:space="preserve"
   sodipodi:docname="pgpsigning1.svg"
   inkscape:version="0.92.4 (5da689c313, 2019-01-14)"
   inkscape:export-filename="/home/user/working/defend-dissent/pictures/pgpsigning1.png"
   inkscape:export-xdpi="600"
   inkscape:export-ydpi="600"><metadata
   id="metadata179"><rdf:RDF><cc:Work
       rdf:about=""><dc:format>image/svg+xml</dc:format><dc:type
         rdf:resource="http://purl.org/dc/dcmitype/StillImage" /></cc:Work></rdf:RDF></metadata><defs
   id="defs177" /><sodipodi:namedview
   pagecolor="#ffffff"
   bordercolor="#666666"
   borderopacity="1"
   objecttolerance="10"
   gridtolerance="10"
   guidetolerance="10"
   inkscape:pageopacity="0"
   inkscape:pageshadow="2"
   inkscape:window-width="1920"
   inkscape:window-height="1023"
   id="namedview175"
   showgrid="false"
   inkscape:zoom="1.2106525"
   inkscape:cx="147.18491"
   inkscape:cy="190.05346"
   inkscape:window-x="0"
   inkscape:window-y="57"
   inkscape:window-maximized="0"
   inkscape:current-layer="Layer_1"
   inkscape:snap-text-baseline="true" />
<style
   type="text/css"
   id="style2">
	.st0{font-family:'CormorantGaramond-Bold';}
	.st1{font-size:16px;}
	.st2{fill:#FFFFFF;stroke:#000000;stroke-width:1.7647;stroke-linejoin:round;stroke-miterlimit:10;}
	.st3{fill:none;stroke:#000000;stroke-width:1.9704;stroke-linejoin:round;stroke-miterlimit:10;}
	.st4{font-family:'CormorantGaramond-Regular';}
	.st5{font-size:14px;}
	.st6{font-family:'CormorantGaramond-Italic';}
	.st7{fill:none;stroke:#000000;stroke-miterlimit:10;}
	.st8{fill:#FFFFFF;stroke:#000000;stroke-width:1.3894;stroke-linejoin:round;stroke-miterlimit:10;}
	.st9{font-family:'Courier';}
	.st10{font-size:6px;}
	.st11{fill:#005AC8;stroke:#153267;stroke-width:0.5188;stroke-miterlimit:10;}
	.st12{fill:#333333;stroke:#000000;stroke-width:0.5188;stroke-miterlimit:10;}
	.st13{fill:#000D3C;stroke:#000029;stroke-width:0.4209;stroke-miterlimit:10;}
	.st14{font-size:3.5938px;}
	.st15{fill:#333333;stroke:#000000;stroke-width:0.3108;stroke-miterlimit:10;}
	.st16{fill:#000D3C;stroke:#000029;stroke-width:0.2521;stroke-miterlimit:10;}
</style>
<text
   transform="matrix(1 0 0 1 28.3184 39.6735)"
   class="st0 st1"
   id="text4"
   style="-inkscape-font-specification:'Cormorant Garamond, Normal';font-family:'Cormorant Garamond';font-weight:normal;font-style:normal;font-stretch:normal;font-variant:normal;font-size:16px;text-anchor:start;text-align:start;writing-mode:lr;font-variant-ligatures:normal;font-variant-caps:normal;font-variant-numeric:normal;font-feature-settings:normal;">Assata signs a message to Bobby</text>



<g
   id="g32">
	<g
   id="g26">
		<path
   class="st2"
   d="M31.1,203.7l13.7,13.7h40.3v-61.9c0-4.4-3.6-7.9-7.9-7.9H31.1V203.7z"
   id="path6" />
		<line
   class="st3"
   x1="37.1"
   y1="157.6"
   x2="73.5"
   y2="157.6"
   id="line8" />
		<line
   class="st3"
   x1="37.1"
   y1="164.6"
   x2="67.1"
   y2="164.6"
   id="line10" />
		<line
   class="st3"
   x1="37.1"
   y1="171.6"
   x2="76.1"
   y2="171.6"
   id="line12" />
		<line
   class="st3"
   x1="37.1"
   y1="178.5"
   x2="77.7"
   y2="178.5"
   id="line14" />
		<line
   class="st3"
   x1="37.1"
   y1="185.5"
   x2="74.6"
   y2="185.5"
   id="line16" />
		<line
   class="st3"
   x1="37.1"
   y1="192.5"
   x2="76.1"
   y2="192.5"
   id="line18" />
		<line
   class="st3"
   x1="37.1"
   y1="199.4"
   x2="79.2"
   y2="199.4"
   id="line20" />
		<line
   class="st3"
   x1="44.9"
   y1="206.4"
   x2="74.6"
   y2="206.4"
   id="line22" />
		<polygon
   class="st2"
   points="31.1,203.7 44.9,203.7 44.9,217.4   "
   id="polygon24" />
	</g>
	<g
   id="g30">
		<text
   transform="matrix(1 0 0 1 33.411 236.1906)"
   class="st4 st5"
   id="text28"><tspan
     style="-inkscape-font-specification:'Cormorant Garamond, Normal';font-family:'Cormorant Garamond';font-weight:normal;font-style:normal;font-stretch:normal;font-variant:normal;font-size:14px;text-anchor:start;text-align:start;writing-mode:lr;font-variant-ligatures:normal;font-variant-caps:normal;font-variant-numeric:normal;font-feature-settings:normal"
     id="tspan339">Plaintext</tspan></text>



	</g>
</g>



<polyline
   class="st7"
   points="267.9,124.8 155.2,124.8 117,191.9 155.2,258.9 637.1,258.9 675.5,191.9 637.1,124.8 "
   id="polyline40" />
<rect
   x="279.9"
   y="113.3"
   class="st8"
   width="94.6"
   height="23.1"
   id="rect42" />
<text
   transform="matrix(1 0 0 1 283.9832 123.2182)"
   id="text48"><tspan
     x="0"
     y="0"
     class="st9 st10"
     id="tspan44">8843 D7F9 2416 211D E9EB</tspan><tspan
     x="0"
     y="7.2"
     class="st9 st10"
     id="tspan46">B963 FF4C E281 2593 2878</tspan></text>




<g
   id="g72">
	<g
   id="g70">
		<line
   class="st7"
   x1="386.5"
   y1="124.8"
   x2="504.2"
   y2="124.8"
   id="line64" />
		<g
   id="g68">
			<path
   d="M509.6,124.8c-2.6,0.9-5.7,2.6-7.7,4.3l1.5-4.3l-1.5-4.3C503.9,122.2,507,123.8,509.6,124.8z"
   id="path66" />
		</g>
	</g>
</g>
<g
   id="g86">
	<rect
   x="466.5"
   y="134.6"
   class="st11"
   width="11.7"
   height="7"
   id="rect74" />
	<rect
   x="431.5"
   y="140"
   class="st12"
   width="46.7"
   height="3.3"
   id="rect76" />
	<path
   class="st12"
   d="M432.1,144L432.1,144c-0.3,0-0.5-0.2-0.5-0.5v-3.8c0-0.3,0.2-0.5,0.5-0.5l0,0c0.3,0,0.5,0.2,0.5,0.5v3.8   C432.6,143.8,432.4,144,432.1,144z"
   id="path78" />
	<path
   class="st12"
   d="M433,144L433,144c-0.3,0-0.5-0.2-0.5-0.5v-3.8c0-0.3,0.2-0.5,0.5-0.5h0c0.3,0,0.5,0.2,0.5,0.5v3.8   C433.5,143.8,433.3,144,433,144z"
   id="path80" />
	<path
   class="st12"
   d="M466.1,144L466.1,144c-0.3,0-0.5-0.2-0.5-0.5v-3.8c0-0.3,0.2-0.5,0.5-0.5l0,0c0.3,0,0.5,0.2,0.5,0.5v3.8   C466.5,143.8,466.3,144,466.1,144z"
   id="path82" />
	<path
   class="st12"
   d="M424.5,132.3L424.5,132.3c-3.9,0-7,3.1-7,7v0.5c-1,0-1.9,0.8-1.9,1.9c0,1,0.8,1.9,1.9,1.9v0.5   c0,3.9,3.1,7,7,7h0c3.9,0,7-3.1,7-7v-4.7C431.5,135.4,428.4,132.3,424.5,132.3z M416.6,141.6c0-0.5,0.4-0.9,0.9-0.9   s0.9,0.4,0.9,0.9c0,0.5-0.4,0.9-0.9,0.9S416.6,142.1,416.6,141.6z M429.2,143.9c0,2.6-2.1,4.7-4.7,4.7h0c-1.6,0-3-0.8-3.8-2   c-0.8-1.2-0.7-2.8,0.2-3.9l0.9-1.1l-0.9-1.1c-0.9-1.1-1-2.7-0.2-3.9c0.8-1.2,2.2-2,3.8-2h0c2.6,0,4.7,2.1,4.7,4.7V143.9z"
   id="path84" />
</g>
<text
   transform="matrix(1 0 0 1 313.0853 151.3997)"
   class="st4 st5"
   id="text88"><tspan
     style="-inkscape-font-specification:'Cormorant Garamond, Normal';font-family:'Cormorant Garamond';font-weight:normal;font-style:normal;font-stretch:normal;font-variant:normal;font-size:14px;text-anchor:start;text-align:start;writing-mode:lr;font-variant-ligatures:normal;font-variant-caps:normal;font-variant-numeric:normal;font-feature-settings:normal"
     id="tspan317">Hash</tspan></text>



<text
   transform="matrix(1 0 0 1 551.6671 151.3999)"
   class="st4 st5"
   id="text90"><tspan
     style="-inkscape-font-specification:'Cormorant Garamond, Normal';font-family:'Cormorant Garamond';font-weight:normal;font-style:normal;font-stretch:normal;font-variant:normal;font-size:14px;text-anchor:start;text-align:start;writing-mode:lr;font-variant-ligatures:normal;font-variant-caps:normal;font-variant-numeric:normal;font-feature-settings:normal"
     id="tspan319">Signature</tspan></text>



<g
   id="g108">
	<text
   transform="matrix(1 0 0 1 534.6952 123.2183)"
   id="text96"><tspan
     x="0"
     y="0"
     class="st9 st10"
     id="tspan92">F481 A6B2 E127 9192 AB4A</tspan><tspan
     x="0"
     y="7.2"
     class="st9 st10"
     id="tspan94">44A4 8651 3EA3 FCFF 191D</tspan></text>



	<rect
   x="537"
   y="113.3"
   class="st7"
   width="88.9"
   height="23.1"
   id="rect98" />
	<g
   id="g106">
		<path
   class="st12"
   d="M530.4,109.6c-4.6,0-8.3,3.7-8.3,8.3c0,4.6,3.7,8.3,8.3,8.3s8.3-3.7,8.3-8.3    C538.7,113.3,535,109.6,530.4,109.6z M530.4,123.4c-3,0-5.5-2.5-5.5-5.5c0-3,2.5-5.5,5.5-5.5c3,0,5.5,2.5,5.5,5.5    C535.9,121,533.4,123.4,530.4,123.4z"
   id="path100" />
		<path
   class="st12"
   d="M530.4,140L530.4,140c-6.1,0-11-4.9-11-11v-8.3c0-1.5,1.2-2.8,2.8-2.8h16.5c1.5,0,2.8,1.2,2.8,2.8v8.3    C541.4,135,536.5,140,530.4,140z"
   id="path102" />
		<path
   class="st13"
   d="M532.6,126.5c0-1.2-1-2.2-2.2-2.2c-1.2,0-2.2,1-2.2,2.2c0,0.7,0.3,1.3,0.8,1.7v4.8h2.8v-4.8    C532.3,127.8,532.6,127.2,532.6,126.5z"
   id="path104" />
	</g>
</g>
<g
   id="g160">
	<g
   id="g140">
		<g
   id="g130">
			<path
   class="st2"
   d="M709.9,205.3l13.7,13.7h40.3V157c0-4.4-3.6-7.9-7.9-7.9h-46.1V205.3z"
   id="path110" />
			<line
   class="st3"
   x1="715.8"
   y1="159.2"
   x2="752.2"
   y2="159.2"
   id="line112" />
			<line
   class="st3"
   x1="715.8"
   y1="166.1"
   x2="745.8"
   y2="166.1"
   id="line114" />
			<line
   class="st3"
   x1="715.8"
   y1="173.1"
   x2="754.8"
   y2="173.1"
   id="line116" />
			<line
   class="st3"
   x1="715.8"
   y1="180.1"
   x2="756.4"
   y2="180.1"
   id="line118" />
			<line
   class="st3"
   x1="715.8"
   y1="187.1"
   x2="753.4"
   y2="187.1"
   id="line120" />
			<line
   class="st3"
   x1="715.8"
   y1="194"
   x2="754.8"
   y2="194"
   id="line122" />
			<line
   class="st3"
   x1="715.8"
   y1="201"
   x2="757.9"
   y2="201"
   id="line124" />
			<line
   class="st3"
   x1="723.6"
   y1="208"
   x2="753.4"
   y2="208"
   id="line126" />
			<polygon
   class="st2"
   points="709.9,205.3 723.6,205.2 723.6,219    "
   id="polygon128" />
		</g>
		<g
   id="g138">
			<text
   transform="translate(710.4982,237.7499)"
   id="text136"><tspan
     x="0"
     y="0"
     class="st4 st5"
     id="tspan132"
     style="font-style:normal;font-variant:normal;font-weight:normal;font-stretch:normal;font-size:14px;font-family:'Cormorant Garamond';-inkscape-font-specification:'Cormorant Garamond, Normal';font-variant-ligatures:normal;font-variant-caps:normal;font-variant-numeric:normal;font-feature-settings:normal;text-align:start;writing-mode:lr-tb;text-anchor:start">Plaintext w/ </tspan></text>



		</g>
	</g>
	<g
   id="g158">
		<text
   transform="matrix(1 0 0 1 709.2224 141.3776)"
   id="text146"><tspan
     x="0"
     y="0"
     class="st9 st14"
     id="tspan142">F481 A6B2 E127 9192 AB4A</tspan><tspan
     x="0"
     y="4.3"
     class="st9 st14"
     id="tspan144">44A4 8651 3EA3 FCFF 191D</tspan></text>



		<rect
   x="710.6"
   y="135.4"
   class="st7"
   width="53.2"
   height="13.8"
   id="rect148" />
		<g
   id="g156">
			<path
   class="st15"
   d="M706.6,133.2c-2.7,0-5,2.2-5,5c0,2.7,2.2,5,5,5s5-2.2,5-5C711.6,135.5,709.4,133.2,706.6,133.2z      M706.6,141.5c-1.8,0-3.3-1.5-3.3-3.3s1.5-3.3,3.3-3.3s3.3,1.5,3.3,3.3S708.5,141.5,706.6,141.5z"
   id="path150" />
			<path
   class="st15"
   d="M706.6,151.4L706.6,151.4c-3.6,0-6.6-3-6.6-6.6v-5c0-0.9,0.7-1.7,1.7-1.7h9.9c0.9,0,1.7,0.7,1.7,1.7v5     C713.2,148.4,710.3,151.4,706.6,151.4z"
   id="path152" />
			<path
   class="st16"
   d="M708,143.4c0-0.7-0.6-1.3-1.3-1.3s-1.3,0.6-1.3,1.3c0,0.4,0.2,0.8,0.5,1v2.9h1.7v-2.9     C707.8,144.1,708,143.8,708,143.4z"
   id="path154" />
		</g>
	</g>
<text
   xml:space="preserve"
   style="font-style:normal;font-variant:normal;font-weight:normal;font-stretch:normal;font-size:40px;line-height:1.25;font-family:'Cormorant Garamond';-inkscape-font-specification:'Cormorant Garamond, Normal';font-variant-ligatures:normal;font-variant-caps:normal;font-variant-numeric:normal;font-feature-settings:normal;text-align:start;letter-spacing:0px;word-spacing:0px;writing-mode:lr-tb;text-anchor:start;fill:#000000;fill-opacity:1;stroke:none"
   x="716.53094"
   y="251.87611"
   id="text337"><tspan
     sodipodi:role="line"
     id="tspan335"
     x="716.53094"
     y="251.87611"
     style="font-style:normal;font-variant:normal;font-weight:normal;font-stretch:normal;font-size:14px;font-family:'Cormorant Garamond';-inkscape-font-specification:'Cormorant Garamond, Normal';font-variant-ligatures:normal;font-variant-caps:normal;font-variant-numeric:normal;font-feature-settings:normal;text-align:start;writing-mode:lr-tb;text-anchor:start">Signature</tspan></text>


</g>
<g
   id="g170">
	<g
   id="g168">
		<line
   class="st7"
   x1="675.5"
   y1="191.9"
   x2="693.7"
   y2="191.9"
   id="line162" />
		<g
   id="g166">
			<path
   d="M699.1,191.9c-2.6,0.9-5.7,2.6-7.7,4.3l1.5-4.3l-1.5-4.3C693.4,189.3,696.6,190.9,699.1,191.9z"
   id="path164" />
		</g>
	</g>
</g>
<line
   class="st7"
   x1="117"
   y1="191.9"
   x2="96.4"
   y2="191.9"
   id="line172" />
<flowRoot
   xml:space="preserve"
   id="flowRoot229"
   style="fill:black;fill-opacity:1;stroke:none;font-family:sans-serif;font-style:normal;font-weight:normal;font-size:40px;line-height:1.25;letter-spacing:0px;word-spacing:0px"><flowRegion
     id="flowRegion231"><rect
       id="rect233"
       width="140.76106"
       height="67.168144"
       x="380.81415"
       y="49.115044" /></flowRegion><flowPara
     id="flowPara235" /></flowRoot><flowRoot
   xml:space="preserve"
   id="flowRoot237"
   style="fill:black;fill-opacity:1;stroke:none;font-family:sans-serif;font-style:normal;font-weight:normal;font-size:40px;line-height:1.25;letter-spacing:0px;word-spacing:0px"><flowRegion
     id="flowRegion239"><rect
       id="rect241"
       width="117.9823"
       height="44.389381"
       x="381.39822"
       y="52.619469" /></flowRegion><flowPara
     id="flowPara243" /></flowRoot><flowRoot
   xml:space="preserve"
   id="flowRoot245"
   style="fill:black;fill-opacity:1;stroke:none;font-family:sans-serif;font-style:normal;font-weight:normal;font-size:40px;line-height:1.25;letter-spacing:0px;word-spacing:0px"><flowRegion
     id="flowRegion247"><rect
       id="rect249"
       width="124.99115"
       height="42.637169"
       x="388.40707"
       y="51.451328" /></flowRegion><flowPara
     id="flowPara251" /></flowRoot><text
   xml:space="preserve"
   style="font-style:normal;font-weight:normal;font-size:40px;line-height:1.25;font-family:sans-serif;letter-spacing:0px;word-spacing:0px;fill:#000000;fill-opacity:1;stroke:none"
   x="410.0177"
   y="68.389381"
   id="text255"><tspan
     sodipodi:role="line"
     id="tspan253"
     x="410.0177"
     y="103.78001" /></text>


<flowRoot
   xml:space="preserve"
   id="flowRoot257"
   style="font-style:normal;font-weight:normal;font-size:40px;line-height:1.25;font-family:sans-serif;letter-spacing:0px;word-spacing:0px;fill:#000000;fill-opacity:1;stroke:none"><flowRegion
     id="flowRegion259"><rect
       id="rect261"
       width="139.00885"
       height="47.309734"
       x="407.09735"
       y="57.292034" /></flowRegion><flowPara
     id="flowPara263">Encrypt Hash using Assata’s Private Key</flowPara></flowRoot><text
   xml:space="preserve"
   style="font-style:normal;font-weight:normal;font-size:40px;line-height:1.25;font-family:sans-serif;letter-spacing:0px;word-spacing:0px;fill:#000000;fill-opacity:1;stroke:none"
   x="537.34515"
   y="94.088493"
   id="text267"><tspan
     sodipodi:role="line"
     id="tspan265"
     x="537.34515"
     y="129.47913" /></text>


<text
   xml:space="preserve"
   style="font-style:normal;font-weight:normal;font-size:40px;line-height:1.25;font-family:sans-serif;letter-spacing:0px;word-spacing:0px;fill:#000000;fill-opacity:1;stroke:none"
   x="372.63718"
   y="-7.5398235"
   id="text295"><tspan
     sodipodi:role="line"
     id="tspan293"
     x="372.63718"
     y="27.850801" /></text>


<text
   xml:space="preserve"
   style="font-style:normal;font-weight:normal;font-size:40px;line-height:1.25;font-family:sans-serif;letter-spacing:0px;word-spacing:0px;fill:#000000;fill-opacity:1;stroke:none"
   x="731.25665"
   y="-40.83186"
   id="text299"><tspan
     sodipodi:role="line"
     id="tspan297"
     x="731.25665"
     y="-5.4412346" /></text>


<text
   xml:space="preserve"
   style="font-style:normal;font-variant:normal;font-weight:normal;font-stretch:normal;font-size:40px;line-height:1.25;font-family:'Cormorant Garamond';-inkscape-font-specification:'Cormorant Garamond, Normal';font-variant-ligatures:normal;font-variant-caps:normal;font-variant-numeric:normal;font-feature-settings:normal;text-align:start;letter-spacing:0px;word-spacing:0px;writing-mode:lr-tb;text-anchor:start;fill:#000000;fill-opacity:1;stroke:none"
   x="402.4248"
   y="117.11504"
   id="text303"><tspan
     sodipodi:role="line"
     x="402.4248"
     y="117.11504"
     style="font-style:normal;font-variant:normal;font-weight:normal;font-stretch:normal;font-size:12px;font-family:'Cormorant Garamond';-inkscape-font-specification:'Cormorant Garamond, Normal';font-variant-ligatures:normal;font-variant-caps:normal;font-variant-numeric:normal;font-feature-settings:normal;text-align:start;writing-mode:lr-tb;text-anchor:start"
     id="tspan305">Assata’s <tspan
   style="font-style:italic"
   id="tspan315">Private Key</tspan></tspan></text>


<text
   xml:space="preserve"
   style="font-style:normal;font-variant:normal;font-weight:normal;font-stretch:normal;font-size:40px;line-height:1.25;font-family:'Cormorant Garamond';-inkscape-font-specification:'Cormorant Garamond, Normal';font-variant-ligatures:normal;font-variant-caps:normal;font-variant-numeric:normal;font-feature-settings:normal;text-align:start;letter-spacing:0px;word-spacing:0px;writing-mode:lr-tb;text-anchor:start;fill:#000000;fill-opacity:1;stroke:none"
   x="401.25662"
   y="101.09735"
   id="text311"><tspan
     sodipodi:role="line"
     id="tspan309"
     x="401.25662"
     y="101.09735"
     style="font-style:normal;font-variant:normal;font-weight:normal;font-stretch:normal;font-size:12px;font-family:'Cormorant Garamond';-inkscape-font-specification:'Cormorant Garamond, Normal';font-variant-ligatures:normal;font-variant-caps:normal;font-variant-numeric:normal;font-feature-settings:normal;text-align:start;writing-mode:lr-tb;text-anchor:start">Encrypt <tspan
   style="font-style:italic"
   id="tspan313">Hash</tspan> using </tspan></text>


<text
   xml:space="preserve"
   style="font-style:normal;font-variant:normal;font-weight:normal;font-stretch:normal;font-size:12px;line-height:1.25;font-family:'Cormorant Garamond';-inkscape-font-specification:'Cormorant Garamond, Normal';font-variant-ligatures:normal;font-variant-caps:normal;font-variant-numeric:normal;font-feature-settings:normal;text-align:start;letter-spacing:0px;word-spacing:0px;writing-mode:lr-tb;text-anchor:start;fill:#000000;fill-opacity:1;stroke:none"
   x="212.61038"
   y="100.4978"
   id="text1181"><tspan
     sodipodi:role="line"
     id="tspan1179"
     x="212.61038"
     y="100.4978"
     style="text-align:center;text-anchor:middle">Generate</tspan><tspan
     sodipodi:role="line"
     x="212.61038"
     y="115.49781"
     id="tspan1183"
     style="text-align:center;text-anchor:middle">Cryptographic Hash</tspan></text>
</svg>