<svg id="Layer_1" data-name="Layer 1" xmlns="http://www.w3.org/2000/svg" viewBox="0 0 197.3 294.12"><defs><style>.cls-1,.cls-10,.cls-5{fill:#005ac8;stroke:#153267;}.cls-1,.cls-10,.cls-11,.cls-2,.cls-3,.cls-4,.cls-5,.cls-9{stroke-miterlimit:10;}.cls-1{stroke-width:0.38px;}.cls-2,.cls-9{fill:#333;}.cls-2,.cls-3,.cls-4,.cls-6,.cls-7,.cls-8,.cls-9{stroke:#000;}.cls-2{stroke-width:0.38px;}.cls-3,.cls-4,.cls-7{fill:none;}.cls-4{stroke-dasharray:4;}.cls-5{stroke-width:0.3px;}.cls-6,.cls-8{fill:#fff;}.cls-6,.cls-7,.cls-8{stroke-linejoin:round;}.cls-6{stroke-width:0.99px;}.cls-7{stroke-width:1.11px;}.cls-8{stroke-width:0.99px;}.cls-9{stroke-width:0.3px;}.cls-10,.cls-11{stroke-width:0.23px;}.cls-11{fill:#03003e;stroke:#00001e;}</style></defs><title>keygen-share</title><polygon class="cls-1" points="103.01 52.07 100.42 52.07 100.42 50.7 103.01 50.7 103.01 47.06 97.83 47.06 97.83 55.7 103.01 55.7 103.01 52.07"/><rect class="cls-1" x="96.62" y="21.14" width="2.42" height="34.57"/><rect class="cls-1" x="107.32" y="37.3" width="0.69" height="3.53" rx="0.35" ry="0.35" transform="translate(136.9 -86.1) rotate(90)"/><rect class="cls-1" x="107.32" y="37.99" width="0.69" height="3.53" rx="0.35" ry="0.35" transform="translate(137.59 -85.4) rotate(90)"/><rect class="cls-1" x="107.32" y="62.45" width="0.69" height="3.53" rx="0.35" ry="0.35" transform="translate(162.04 -60.95) rotate(90)"/><path class="cls-1" d="M114.58,33.45h0a5.18,5.18,0,0,0-5.19-5.18h-.34a1.39,1.39,0,0,0-2.77,0h-.34a5.18,5.18,0,0,0-5.19,5.18h0a5.19,5.19,0,0,0,5.19,5.19h3.45A5.19,5.19,0,0,0,114.58,33.45Zm-6.91-5.87a.69.69,0,1,1-.7.69A.69.69,0,0,1,107.67,27.58Zm-1.73,9.33a3.46,3.46,0,0,1-3.46-3.46h0A3.46,3.46,0,0,1,104,30.62a2.43,2.43,0,0,1,2.92.13l.8.65.79-.65a2.43,2.43,0,0,1,2.92-.13,3.46,3.46,0,0,1,1.47,2.83h0a3.46,3.46,0,0,1-3.46,3.46Z" transform="translate(-9.84 -17.5)"/><polygon class="cls-1" points="184.01 52.07 181.42 52.07 181.42 50.7 184.01 50.7 184.01 47.06 178.83 47.06 178.83 55.7 184.01 55.7 184.01 52.07"/><rect class="cls-1" x="177.62" y="21.14" width="2.42" height="34.57"/><rect class="cls-1" x="188.32" y="37.3" width="0.69" height="3.53" rx="0.35" ry="0.35" transform="translate(217.9 -167.1) rotate(90)"/><rect class="cls-1" x="188.32" y="37.99" width="0.69" height="3.53" rx="0.35" ry="0.35" transform="translate(218.59 -166.4) rotate(90)"/><rect class="cls-1" x="188.32" y="62.45" width="0.69" height="3.53" rx="0.35" ry="0.35" transform="translate(243.04 -141.95) rotate(90)"/><path class="cls-1" d="M195.58,33.45h0a5.18,5.18,0,0,0-5.19-5.18h-.34a1.39,1.39,0,0,0-2.77,0h-.34a5.18,5.18,0,0,0-5.19,5.18h0a5.19,5.19,0,0,0,5.19,5.19h3.45A5.19,5.19,0,0,0,195.58,33.45Zm-6.91-5.87a.69.69,0,1,1-.7.69A.69.69,0,0,1,188.67,27.58Zm-1.73,9.33a3.46,3.46,0,0,1-3.46-3.46h0A3.46,3.46,0,0,1,185,30.62a2.43,2.43,0,0,1,2.92.13l.8.65.79-.65a2.43,2.43,0,0,1,2.92-.13,3.46,3.46,0,0,1,1.47,2.83h0a3.46,3.46,0,0,1-3.46,3.46Z" transform="translate(-9.84 -17.5)"/><polygon class="cls-1" points="72.91 52.07 72.91 52.07 72.91 50.7 72.91 50.7 72.91 47.06 67.73 47.06 67.73 55.7 72.91 55.7 72.91 52.07"/><rect class="cls-2" x="66.52" y="21.14" width="2.42" height="34.57"/><rect class="cls-2" x="77.22" y="37.3" width="0.69" height="3.53" rx="0.35" ry="0.35" transform="translate(106.8 -56) rotate(90)"/><rect class="cls-2" x="77.22" y="37.99" width="0.69" height="3.53" rx="0.35" ry="0.35" transform="translate(107.49 -55.31) rotate(90)"/><rect class="cls-2" x="77.22" y="62.45" width="0.69" height="3.53" rx="0.35" ry="0.35" transform="translate(131.95 -30.85) rotate(90)"/><path class="cls-2" d="M84.48,33.45h0a5.18,5.18,0,0,0-5.18-5.18H79a1.39,1.39,0,0,0-2.77,0h-.34a5.19,5.19,0,0,0-5.19,5.18h0a5.19,5.19,0,0,0,5.19,5.19H79.3A5.18,5.18,0,0,0,84.48,33.45Zm-6.91-5.87a.69.69,0,1,1-.69.69A.69.69,0,0,1,77.57,27.58Zm-1.73,9.33a3.46,3.46,0,0,1-3.46-3.46h0a3.46,3.46,0,0,1,1.47-2.83,2.43,2.43,0,0,1,2.92.13l.8.65.79-.65a2.43,2.43,0,0,1,2.92-.13,3.46,3.46,0,0,1,1.47,2.83h0a3.46,3.46,0,0,1-3.45,3.46Z" transform="translate(-9.84 -17.5)"/><rect class="cls-3" x="47.05" y="0.5" width="72.14" height="85.07" rx="9" ry="9"/><rect class="cls-4" x="159.99" y="0.5" width="36.82" height="85.07" rx="9" ry="9"/><line class="cls-3" x1="125.16" y1="43.04" x2="150.4" y2="43.04"/><path d="M163.86,60.54a18.05,18.05,0,0,0-5.13,2.85l1-2.85-1-2.86A17.84,17.84,0,0,0,163.86,60.54Z" transform="translate(-9.84 -17.5)"/><polygon class="cls-5" points="135.41 149.06 135.41 151.09 134.34 151.09 134.34 149.06 131.5 149.06 131.5 153.11 138.25 153.11 138.25 149.06 135.41 149.06"/><rect class="cls-5" x="111.23" y="152.17" width="27.02" height="1.89"/><rect class="cls-5" x="111.3" y="151.73" width="0.54" height="2.76" rx="0.27" ry="0.27"/><rect class="cls-5" x="111.84" y="151.73" width="0.54" height="2.76" rx="0.27" ry="0.27"/><rect class="cls-5" x="130.96" y="151.73" width="0.54" height="2.76" rx="0.27" ry="0.27"/><path class="cls-5" d="M117,165.21h0a4,4,0,0,0-4,4v.27a1.08,1.08,0,0,0,0,2.16V172a4.05,4.05,0,0,0,4,4.06h0a4.05,4.05,0,0,0,4-4.06v-2.7A4,4,0,0,0,117,165.21Zm-4.59,5.4a.54.54,0,0,1,.54-.54.54.54,0,0,1,0,1.08A.54.54,0,0,1,112.43,170.61Zm7.29,1.35a2.7,2.7,0,0,1-2.7,2.7h0a2.69,2.69,0,0,1-2.21-1.14,1.91,1.91,0,0,1,.1-2.29l.5-.62-.5-.62a1.89,1.89,0,0,1-.1-2.28,2.68,2.68,0,0,1,2.21-1.15h0a2.7,2.7,0,0,1,2.7,2.7Z" transform="translate(-9.84 -17.5)"/><line class="cls-3" x1="83.12" y1="162.41" x2="154.79" y2="162.41"/><path d="M168.25,179.91a18.19,18.19,0,0,0-5.13,2.85l1-2.85-1-2.85A18.19,18.19,0,0,0,168.25,179.91Z" transform="translate(-9.84 -17.5)"/><path class="cls-6" d="M57.22,190.13l7.71,7.71H87.54V163.06a4.46,4.46,0,0,0-4.46-4.46H57.22Z" transform="translate(-9.84 -17.5)"/><line class="cls-7" x1="50.72" y1="146.75" x2="71.17" y2="146.75"/><line class="cls-7" x1="50.72" y1="150.67" x2="67.58" y2="150.67"/><line class="cls-7" x1="50.72" y1="154.58" x2="72.6" y2="154.58"/><line class="cls-7" x1="50.72" y1="158.49" x2="73.5" y2="158.49"/><line class="cls-7" x1="50.72" y1="162.41" x2="71.8" y2="162.41"/><line class="cls-7" x1="50.72" y1="166.32" x2="72.6" y2="166.32"/><line class="cls-7" x1="50.72" y1="170.24" x2="74.34" y2="170.24"/><line class="cls-7" x1="55.09" y1="174.15" x2="71.8" y2="174.15"/><polygon class="cls-8" points="47.38 172.63 55.09 172.62 55.09 180.34 47.38 172.63"/><polygon class="cls-1" points="135.61 256.38 135.61 256.38 134.52 256.38 134.52 256.38 131.64 256.38 131.64 260.49 138.48 260.49 138.48 256.38 135.61 256.38"/><rect class="cls-9" x="111.12" y="259.53" width="27.36" height="1.92"/><rect class="cls-9" x="111.19" y="259.09" width="0.55" height="2.8" rx="0.27" ry="0.27"/><rect class="cls-9" x="111.73" y="259.09" width="0.55" height="2.8" rx="0.27" ry="0.27"/><rect class="cls-9" x="131.09" y="259.09" width="0.55" height="2.8" rx="0.27" ry="0.27"/><path class="cls-9" d="M116.85,272.51h0a4.11,4.11,0,0,0-4.1,4.11v.27a1.1,1.1,0,1,0,0,2.19v.27a4.11,4.11,0,0,0,4.1,4.11h0a4.11,4.11,0,0,0,4.11-4.11v-2.73A4.11,4.11,0,0,0,116.85,272.51ZM112.2,278a.55.55,0,1,1,.55.55A.55.55,0,0,1,112.2,278Zm7.39,1.37a2.74,2.74,0,0,1-2.74,2.74h0a2.76,2.76,0,0,1-2.24-1.16,1.94,1.94,0,0,1,.1-2.31l.51-.64-.51-.63a1.94,1.94,0,0,1-.1-2.31,2.76,2.76,0,0,1,2.24-1.16h0a2.74,2.74,0,0,1,2.74,2.74Z" transform="translate(-9.84 -17.5)"/><line class="cls-3" x1="83.12" y1="269.87" x2="154.79" y2="269.87"/><path d="M168.25,287.37a18.19,18.19,0,0,0-5.13,2.85l1-2.85-1-2.85A18.19,18.19,0,0,0,168.25,287.37Z" transform="translate(-9.84 -17.5)"/><path class="cls-6" d="M174.2,299.28l7.71,7.71h22.61V272.21a4.46,4.46,0,0,0-4.46-4.46H174.2Z" transform="translate(-9.84 -17.5)"/><line class="cls-7" x1="167.69" y1="255.9" x2="181.88" y2="255.9"/><line class="cls-7" x1="167.69" y1="259.81" x2="183.35" y2="259.81"/><line class="cls-7" x1="167.69" y1="263.73" x2="186.43" y2="263.73"/><line class="cls-7" x1="167.69" y1="267.64" x2="190.47" y2="267.64"/><line class="cls-7" x1="167.69" y1="271.56" x2="188.78" y2="271.56"/><line class="cls-7" x1="167.69" y1="275.47" x2="189.58" y2="275.47"/><line class="cls-7" x1="167.69" y1="279.38" x2="191.32" y2="279.38"/><line class="cls-7" x1="172.07" y1="283.3" x2="188.78" y2="283.3"/><polygon class="cls-8" points="164.36 281.78 172.07 281.77 172.07 289.49 164.36 281.78"/><path d="M123.4,298.81c-.38,0-.8,0-1.17,0s-.68,0-1,0c-.06,0-.06-.12,0-.12.71,0,.85-.16.58-.74l-.89-1.89h-2.38l-.63,1.48c-.34.82,0,1.15.84,1.15.06,0,.06.12,0,.12-.4,0-.67,0-1.18,0s-.69,0-1.1,0c0,0,0-.12,0-.12.54,0,.81-.25,1.23-1.24l2.11-5s.12,0,.13,0l2.36,5c.46,1,.72,1.25,1.15,1.25C123.45,298.69,123.45,298.81,123.4,298.81Zm-2.62-2.95-1.17-2.47-1,2.47Z" transform="translate(-9.84 -17.5)"/><path d="M125.34,296.55c.5.26,1,.51,1,1.16a1.26,1.26,0,0,1-1.41,1.21,1.57,1.57,0,0,1-1-.3.14.14,0,0,1-.06-.12l0-.78s.11-.05.12,0c.25.67.67,1,1.2,1s.68-.21.65-.63c0-.57-.46-.79-.91-1s-1-.48-1-1.15.69-1.11,1.36-1.11a1.71,1.71,0,0,1,.73.15c.08,0,.09.06.09.11,0,.21,0,.45,0,.73,0,0-.12,0-.12,0,0-.44-.57-.8-1-.8a.49.49,0,0,0-.54.54C124.44,296.08,124.89,296.32,125.34,296.55Z" transform="translate(-9.84 -17.5)"/><path d="M128.66,296.55c.5.26,1,.51,1,1.16a1.26,1.26,0,0,1-1.41,1.21,1.57,1.57,0,0,1-1-.3.14.14,0,0,1-.06-.12l0-.78s.11-.05.12,0c.25.67.67,1,1.2,1s.68-.21.65-.63c0-.57-.46-.79-.91-1s-1-.48-1-1.15.69-1.11,1.36-1.11a1.71,1.71,0,0,1,.73.15c.08,0,.09.06.09.11,0,.21,0,.45,0,.73,0,0-.12,0-.12,0,0-.44-.57-.8-1-.8a.49.49,0,0,0-.54.54C127.76,296.08,128.21,296.32,128.66,296.55Z" transform="translate(-9.84 -17.5)"/><path d="M134.3,298.38l-1,.49-.08,0c-.16,0-.32-.23-.36-.65l-.52.34a1.44,1.44,0,0,1-.84.3.69.69,0,0,1-.78-.69c0-.4.3-.67,1-.94l1.1-.41v-.68c0-.83-.25-1.12-.63-1.12a.8.8,0,0,0-.75.74c0,.19-.1.41-.38.41a.3.3,0,0,1-.33-.3c0-.5,1.15-1,1.82-1s.83.37.83,1v1.87c0,.46.11.67.39.67a1.32,1.32,0,0,0,.49-.13C134.32,298.25,134.36,298.35,134.3,298.38Zm-1.48-.28V297l-.93.36c-.37.15-.53.34-.53.6a.54.54,0,0,0,.56.57.93.93,0,0,0,.48-.16Z" transform="translate(-9.84 -17.5)"/><path d="M137.48,298.4a2,2,0,0,1-1.28.53c-.49,0-1-.19-1-.82v-2.35c0-.49-.06-.55-.51-.55,0,0,0-.13,0-.13a.87.87,0,0,0,.94-.76s.15,0,.15,0v.74c.46,0,.89-.05,1.39-.1,0,0,.07.11.07.24s-.06.25-.11.24a5.6,5.6,0,0,0-1.35-.16v2.49a.71.71,0,0,0,.79.81,1.29,1.29,0,0,0,.8-.28C137.46,298.27,137.53,298.36,137.48,298.4Z" transform="translate(-9.84 -17.5)"/><path d="M141.87,298.38l-1,.49-.08,0c-.16,0-.32-.23-.36-.65l-.52.34a1.44,1.44,0,0,1-.84.3.69.69,0,0,1-.78-.69c0-.4.3-.67,1-.94l1.1-.41v-.68c0-.83-.25-1.12-.63-1.12a.8.8,0,0,0-.75.74c0,.19-.1.41-.38.41a.3.3,0,0,1-.33-.3c0-.5,1.15-1,1.82-1s.83.37.83,1v1.87c0,.46.11.67.39.67a1.32,1.32,0,0,0,.49-.13C141.89,298.25,141.93,298.35,141.87,298.38Zm-1.48-.28V297l-.93.36c-.37.15-.53.34-.53.6a.54.54,0,0,0,.56.57.93.93,0,0,0,.48-.16Z" transform="translate(-9.84 -17.5)"/><path d="M143.05,293.35a2.38,2.38,0,0,1-.75,1.65.05.05,0,0,1-.08-.07,1.87,1.87,0,0,0,.38-1.22,1.19,1.19,0,0,0-.09-.47.41.41,0,0,1-.16,0,.37.37,0,0,1-.4-.39c0-.26.16-.4.46-.4S143.05,292.76,143.05,293.35Z" transform="translate(-9.84 -17.5)"/><path d="M145.14,296.55c.5.26,1,.51,1,1.16a1.26,1.26,0,0,1-1.41,1.21,1.57,1.57,0,0,1-1-.3.14.14,0,0,1-.06-.12l0-.78s.11-.05.12,0c.25.67.67,1,1.2,1s.68-.21.65-.63c0-.57-.46-.79-.91-1s-1-.48-1-1.15.69-1.11,1.36-1.11a1.71,1.71,0,0,1,.73.15c.08,0,.09.06.09.11,0,.21,0,.45,0,.73,0,0-.12,0-.12,0,0-.44-.57-.8-1-.8a.49.49,0,0,0-.54.54C144.24,296.08,144.69,296.32,145.14,296.55Z" transform="translate(-9.84 -17.5)"/><path d="M110.7,308.69c.62,0,.75-.11.86-.69l.81-4.63c.11-.57,0-.69-.6-.69,0,0,0-.12,0-.12.26,0,.61,0,1,0s.76-.06,1.23-.06c1,0,1.88.54,1.65,1.75a2.48,2.48,0,0,1-2.46,1.91,1.32,1.32,0,0,1-.41-.05s0-.15,0-.14a1,1,0,0,0,.3,0,1.85,1.85,0,0,0,1.84-1.56c.21-1.15-.42-1.8-1.17-1.8-.6,0-.72,0-.85.71l-.81,4.61c-.1.58,0,.69.61.69,0,0,0,.12,0,.12l-1,0-1,0S110.66,308.69,110.7,308.69Z" transform="translate(-9.84 -17.5)"/><path d="M119,305.4a.33.33,0,0,1-.32.28c-.3,0-.31-.34-.51-.34-.47,0-1.26,2.22-1.49,3.4,0,.09-.13.15-.32.15s-.22,0-.22-.06.1-.45.15-.76l.33-1.85c.15-.79,0-1-.18-1a1.12,1.12,0,0,0-.61.37s-.11,0-.08-.08a1.58,1.58,0,0,1,1.08-.68c.36,0,.49.29.31,1.34l-.21,1.14c.4-1.25,1-2.48,1.53-2.48C118.75,304.86,119.09,305.11,119,305.4Z" transform="translate(-9.84 -17.5)"/><path d="M119.8,307.92l.41-2.08c.07-.39,0-.59-.17-.59a1.25,1.25,0,0,0-.69.46c0,.05-.13,0-.08-.08.46-.52.82-.77,1.16-.77s.42.26.29,1l-.41,2.1c-.08.4,0,.58.16.58a1.29,1.29,0,0,0,.68-.44c0-.05.13,0,.08.08-.44.5-.79.76-1.14.76S119.65,308.66,119.8,307.92Zm.49-4.67a.39.39,0,0,1,.43-.41.38.38,0,0,1,.42.41.39.39,0,0,1-.42.43A.39.39,0,0,1,120.29,303.25Z" transform="translate(-9.84 -17.5)"/><path d="M122.42,307.56a8.22,8.22,0,0,1,.74-1.85c.08-.18,0-.25-.1-.25h-.51c-.51,0-.6.07-.75.52,0,.06-.14,0-.11,0,.29-.86.4-1,1-1h.89c.12,0,.13,0,.08.12a9.05,9.05,0,0,0-.71,2.18c-.1.76.19,1.21.67,1.21s1.23-.63,1.47-1.59-.08-1.17-.21-1.29a.53.53,0,0,1-.24-.38.35.35,0,0,1,.39-.34c.45,0,.51.78.41,1.51-.23,1.57-1.3,2.58-2.11,2.58S122.34,308.24,122.42,307.56Z" transform="translate(-9.84 -17.5)"/><path d="M130,308.12c-.43.5-.78.78-1.12.78s-.41-.26-.28-1l.18-1c-.6,1.23-1.43,2.06-2.14,2.06-.44,0-.7-.29-.6-1,.21-1.44,1.57-3.08,2.63-3.08a.84.84,0,0,1,.66.28.74.74,0,0,0,.24-.36s.13,0,.12,0l-.58,3.17c-.07.39,0,.58.15.58s.39-.18.66-.46C129.92,308,130,308.08,130,308.12ZM128.88,306c.1-.49-.1-.87-.59-.87-.7,0-1.53,1-1.72,2.28-.1.67,0,1,.39,1C127.7,308.45,128.65,307.13,128.88,306Z" transform="translate(-9.84 -17.5)"/><path d="M133.1,305.07c0,.11-.19.32-.32.32s-.6-.08-1.07-.1l-.44,2.48c-.1.54,0,.78.46.78a1.48,1.48,0,0,0,1-.44s.12.05.08.08a2.25,2.25,0,0,1-1.43.74c-.39,0-.76-.19-.65-.85l.43-2.33c.09-.49,0-.55-.34-.55-.05,0,0-.12,0-.12a1,1,0,0,0,.93-.77s.18,0,.17,0l-.13.74c.49,0,1.14-.07,1.27-.07S133.11,305,133.1,305.07Z" transform="translate(-9.84 -17.5)"/><path d="M134,306.67c-.19,1.1.17,1.92,1,1.92a1.64,1.64,0,0,0,1-.33s.11.05.07.09a2.24,2.24,0,0,1-1.46.58c-1.06,0-1.43-.93-1.23-2a2.6,2.6,0,0,1,2.28-2.14c.49,0,.74.21.68.54C136.24,306,135.19,306.49,134,306.67Zm0-.14c.89-.15,1.54-.46,1.66-1,.1-.35-.18-.48-.45-.48C134.59,305.09,134.18,305.74,134,306.53Z" transform="translate(-9.84 -17.5)"/><path d="M145,302.68a2.39,2.39,0,0,0-1.61.74L141.64,305l1,1.79c1,1.84,1.21,1.9,1.71,1.9,0,0,0,.12,0,.12h-.85c-.67,0-.41.06-1.26-1.48l-1.07-1.91-.38.33-.4,2.25c-.1.58-.14.69.52.69,0,0,0,.12,0,.12l-.95,0-1,0s0-.12,0-.12c.62,0,.76-.11.86-.69l.82-4.63c.1-.57,0-.69-.61-.69,0,0,0-.12,0-.12.27,0,.62,0,1,0s.77,0,1,0c0,0,0,.12,0,.12-.62,0-.74.14-.85.71l-.38,2.13,2.39-2.16c.52-.49.5-.68-.09-.68,0,0,0-.12,0-.12.27,0,.57,0,1,0s.64,0,.88,0C145.08,302.56,145.08,302.68,145,302.68Z" transform="translate(-9.84 -17.5)"/><path d="M145.52,306.67c-.19,1.1.17,1.92,1,1.92a1.64,1.64,0,0,0,1-.33s.11.05.07.09a2.24,2.24,0,0,1-1.46.58c-1.06,0-1.43-.93-1.23-2a2.6,2.6,0,0,1,2.28-2.14c.49,0,.74.21.68.54C147.76,306,146.71,306.49,145.52,306.67Zm0-.14c.89-.15,1.54-.46,1.66-1,.1-.35-.18-.48-.45-.48C146.11,305.09,145.7,305.74,145.55,306.53Z" transform="translate(-9.84 -17.5)"/><path d="M152.09,305.4c0,1.67-2.82,6.22-4.24,6.22-.24,0-.44-.12-.4-.42a.36.36,0,0,1,.4-.27,2,2,0,0,0,1.19-.24,4.05,4.05,0,0,0,.81-.91c.06-2.85-.38-4.48-1.13-4.48a.58.58,0,0,0-.5.37c0,.06-.14,0-.12,0,.25-.51.57-.78.93-.78.93,0,1.42,1.91,1.33,4.18a10,10,0,0,0,1.18-2.34,3.1,3.1,0,0,0-.19-1.52.33.33,0,0,1,.36-.33C152,304.85,152.09,305.07,152.09,305.4Z" transform="translate(-9.84 -17.5)"/><path class="cls-8" d="M56.33,299.28,64,307H86.64V272.21a4.46,4.46,0,0,0-4.46-4.46H56.33Z" transform="translate(-9.84 -17.5)"/><path d="M60.85,270.46a1.67,1.67,0,0,1,1.42.7,3,3,0,0,1,.53,1.89,3,3,0,0,1-.53,1.9,1.69,1.69,0,0,1-1.42.69,1.66,1.66,0,0,1-1.41-.69,3.1,3.1,0,0,1-.52-1.9,3.05,3.05,0,0,1,.52-1.89A1.64,1.64,0,0,1,60.85,270.46Zm0,.88a.73.73,0,0,0-.66.45A2.7,2.7,0,0,0,60,273a2.79,2.79,0,0,0,.24,1.27.73.73,0,0,0,.66.45.72.72,0,0,0,.65-.45,2.79,2.79,0,0,0,.24-1.27,2.7,2.7,0,0,0-.24-1.25A.72.72,0,0,0,60.86,271.34Z" transform="translate(-9.84 -17.5)"/><path d="M65.85,274.68h.63a.56.56,0,0,1,.38.1.39.39,0,0,1,.12.32.43.43,0,0,1-.11.32.66.66,0,0,1-.39.09h-2.3a.6.6,0,0,1-.38-.09.49.49,0,0,1,0-.64.56.56,0,0,1,.38-.1h.73v-3.29l-.44.11-.17,0-.1,0a.33.33,0,0,1-.25-.11.44.44,0,0,1-.08-.28.34.34,0,0,1,.09-.24.69.69,0,0,1,.31-.14l1-.27.2,0,.13,0a.24.24,0,0,1,.22.09.44.44,0,0,1,.07.29Z" transform="translate(-9.84 -17.5)"/><path d="M71.63,274.66h.06a.44.44,0,0,1,.32.11.38.38,0,0,1,.11.31.44.44,0,0,1-.11.33.58.58,0,0,1-.38.1H70.45a.6.6,0,0,1-.38-.09.42.42,0,0,1-.11-.34.38.38,0,0,1,.11-.32.54.54,0,0,1,.38-.1h.14l-.16-.46H68.74l-.17.46h.14a.56.56,0,0,1,.38.1.39.39,0,0,1,.12.32.4.4,0,0,1-.12.33.56.56,0,0,1-.38.1h-1a.54.54,0,0,1-.38-.1.4.4,0,0,1-.11-.33.41.41,0,0,1,.1-.31.46.46,0,0,1,.32-.11h.07l1-2.91h-.31a.59.59,0,0,1-.39-.11.41.41,0,0,1-.11-.32.46.46,0,0,1,.11-.34.65.65,0,0,1,.39-.1H69.9a.51.51,0,0,1,.49.38h0Zm-2-2.91L69,273.39h1.14Z" transform="translate(-9.84 -17.5)"/><path d="M73.61,270.46a1.17,1.17,0,0,1,.82.3,1,1,0,0,1,.33.76,1,1,0,0,1-.33.76,1.17,1.17,0,0,1-.82.3,1.15,1.15,0,0,1-.82-.3,1,1,0,0,1-.33-.76,1,1,0,0,1,.33-.76A1.15,1.15,0,0,1,73.61,270.46Zm1.84,2.29-2.62,1.05-.06,0h-.06a.21.21,0,0,1-.16-.09.32.32,0,0,1-.07-.19.21.21,0,0,1,0-.13l.11-.08,2.62-1,.06,0h.06a.22.22,0,0,1,.17.07.29.29,0,0,1,.06.19.24.24,0,0,1,0,.13A.25.25,0,0,1,75.45,272.75ZM73.61,271a.58.58,0,0,0-.38.13.45.45,0,0,0-.14.35.41.41,0,0,0,.14.34.54.54,0,0,0,.38.14.52.52,0,0,0,.38-.14.41.41,0,0,0,.14-.34.46.46,0,0,0-.14-.34A.56.56,0,0,0,73.61,271Zm.9,2.47a1.18,1.18,0,0,1,.82.31,1.06,1.06,0,0,1,0,1.52,1.15,1.15,0,0,1-.82.3,1.18,1.18,0,0,1-.83-.3,1.06,1.06,0,0,1,0-1.52A1.2,1.2,0,0,1,74.51,273.51Zm0,.6a.56.56,0,0,0-.39.13.44.44,0,0,0-.14.34.46.46,0,0,0,.14.34.56.56,0,0,0,.39.13.51.51,0,0,0,.37-.13.46.46,0,0,0,0-.68A.51.51,0,0,0,74.51,274.11Z" transform="translate(-9.84 -17.5)"/><path d="M62,280a.7.7,0,0,1,.16-.2.37.37,0,0,1,.21-.06.34.34,0,0,1,.27.1.55.55,0,0,1,.08.35v1a.52.52,0,0,1-.09.36.44.44,0,0,1-.32.09.37.37,0,0,1-.26-.08.61.61,0,0,1-.15-.28,1,1,0,0,0-.32-.54,1,1,0,0,0-.61-.16,1.1,1.1,0,0,0-.92.4,2.32,2.32,0,0,0,0,2.37,1.14,1.14,0,0,0,1,.42l.32,0,.42-.1v-.62h-.44A.56.56,0,0,1,61,283a.41.41,0,0,1-.11-.32.46.46,0,0,1,.11-.34.62.62,0,0,1,.38-.1h1.41a.65.65,0,0,1,.39.1.45.45,0,0,1,.11.33.46.46,0,0,1-.11.32.49.49,0,0,1-.33.11h-.06v1a.34.34,0,0,1,0,.17.22.22,0,0,1-.11.1,2.1,2.1,0,0,1-.7.23,4.67,4.67,0,0,1-1,.11,2.16,2.16,0,0,1-1.66-.68,2.49,2.49,0,0,1-.63-1.77,2.44,2.44,0,0,1,.64-1.74,2.1,2.1,0,0,1,1.62-.7,2.08,2.08,0,0,1,.55.07A2.93,2.93,0,0,1,62,280Z" transform="translate(-9.84 -17.5)"/><path d="M64.51,279.39a.36.36,0,0,1,.1-.25.33.33,0,0,1,.25-.09.29.29,0,0,1,.22.09.37.37,0,0,1,.09.25v0l-.09,1.6h.48l.09-1.63a.32.32,0,0,1,.1-.25.33.33,0,0,1,.25-.09.32.32,0,0,1,.23.09.37.37,0,0,1,.09.25v0l-.09,1.6h.38a.22.22,0,0,1,.19.07.33.33,0,0,1,.07.23.31.31,0,0,1-.07.22.22.22,0,0,1-.19.07h-.42l0,.9h.47a.22.22,0,0,1,.19.07.31.31,0,0,1,.07.22.29.29,0,0,1-.07.22.2.2,0,0,1-.19.08H66.1L66,284.64a.36.36,0,0,1-.1.25.33.33,0,0,1-.25.09.29.29,0,0,1-.23-.1.32.32,0,0,1-.09-.24v0l.09-1.5H65l-.08,1.54a.32.32,0,0,1-.09.25.33.33,0,0,1-.25.09.29.29,0,0,1-.23-.1.45.45,0,0,1-.08-.26v0l.07-1.5h-.4a.23.23,0,0,1-.19-.08.36.36,0,0,1-.07-.22.34.34,0,0,1,.07-.22.22.22,0,0,1,.19-.07h.43l.06-.9H63.9a.22.22,0,0,1-.19-.07.36.36,0,0,1-.07-.22.39.39,0,0,1,.07-.23.22.22,0,0,1,.19-.07h.52Zm.49,3.12h.48l0-.9H65Z" transform="translate(-9.84 -17.5)"/><path d="M70.37,281.83a1.17,1.17,0,0,1,.89,1.24,1.43,1.43,0,0,1-.49,1.15,2,2,0,0,1-1.35.43,2.41,2.41,0,0,1-1.14-.23c-.3-.15-.45-.33-.45-.55a.43.43,0,0,1,.45-.43,1.88,1.88,0,0,1,.5.18,1.72,1.72,0,0,0,.7.18.84.84,0,0,0,.6-1.33,1,1,0,0,0-.64-.19.47.47,0,0,1-.33-.09.49.49,0,0,1-.08-.32c0-.2.11-.32.34-.36h.07a.93.93,0,0,0,.54-.2.68.68,0,0,0,.13-.47.59.59,0,0,0-.15-.43.58.58,0,0,0-.43-.15,1.49,1.49,0,0,0-.65.18,1.34,1.34,0,0,1-.49.18.33.33,0,0,1-.25-.1.37.37,0,0,1-.09-.25c0-.22.16-.41.46-.57a2.46,2.46,0,0,1,1.14-.24,1.61,1.61,0,0,1,1.08.35,1.2,1.2,0,0,1,.41.94,1,1,0,0,1-.19.64A1.29,1.29,0,0,1,70.37,281.83Z" transform="translate(-9.84 -17.5)"/><path d="M74.05,279.46a1.7,1.7,0,0,1,1.43.7,3.05,3.05,0,0,1,.52,1.89,3.1,3.1,0,0,1-.52,1.9,1.72,1.72,0,0,1-1.43.69,1.68,1.68,0,0,1-1.41-.69,3.1,3.1,0,0,1-.52-1.9,3.05,3.05,0,0,1,.52-1.89A1.66,1.66,0,0,1,74.05,279.46Zm0,.88a.73.73,0,0,0-.66.45,2.7,2.7,0,0,0-.24,1.25,2.79,2.79,0,0,0,.24,1.27.71.71,0,0,0,1.32,0A2.79,2.79,0,0,0,75,282a2.7,2.7,0,0,0-.24-1.25A.73.73,0,0,0,74.06,280.34Z" transform="translate(-9.84 -17.5)"/><path d="M79.05,283.68h.64a.58.58,0,0,1,.38.1.52.52,0,0,1,0,.64.62.62,0,0,1-.38.09H77.38a.6.6,0,0,1-.38-.09.52.52,0,0,1,0-.64.58.58,0,0,1,.38-.1h.73v-3.29l-.44.11-.17,0-.09,0a.31.31,0,0,1-.25-.11.39.39,0,0,1-.09-.28.31.31,0,0,1,.1-.24.6.6,0,0,1,.3-.14l1-.27.2,0,.12,0a.27.27,0,0,1,.23.09.52.52,0,0,1,.06.29Z" transform="translate(-9.84 -17.5)"/><path d="M82.85,279.46a1.69,1.69,0,0,1,1.43.7,3.05,3.05,0,0,1,.53,1.89,3.1,3.1,0,0,1-.53,1.9,1.7,1.7,0,0,1-1.43.69,1.68,1.68,0,0,1-1.41-.69,3.1,3.1,0,0,1-.52-1.9,3.05,3.05,0,0,1,.52-1.89A1.66,1.66,0,0,1,82.85,279.46Zm0,.88a.72.72,0,0,0-.65.45A2.7,2.7,0,0,0,82,282a2.8,2.8,0,0,0,.23,1.27.71.71,0,0,0,1.32,0,2.79,2.79,0,0,0,.24-1.27,2.7,2.7,0,0,0-.24-1.25A.73.73,0,0,0,82.86,280.34Z" transform="translate(-9.84 -17.5)"/><path d="M61.3,288.81l.19,0,.21.07a.3.3,0,0,1,.12-.13.34.34,0,0,1,.18,0,.34.34,0,0,1,.27.09.58.58,0,0,1,.08.35v.5a.41.41,0,0,1-.11.3.46.46,0,0,1-.31.1.37.37,0,0,1-.2,0,.73.73,0,0,1-.16-.22.71.71,0,0,0-.68-.41.82.82,0,0,0-.5.13.45.45,0,0,0-.18.37.36.36,0,0,0,.11.29,1.37,1.37,0,0,0,.48.27l.73.28a1.75,1.75,0,0,1,.76.49,1.13,1.13,0,0,1,.22.73,1.28,1.28,0,0,1-.37,1,1.5,1.5,0,0,1-1.07.34h0l-.05.86a.36.36,0,0,1-.1.25.44.44,0,0,1-.28.08.33.33,0,0,1-.24-.07.39.39,0,0,1-.07-.25v-.06l.06-.91a1.34,1.34,0,0,1-.27-.07,1.92,1.92,0,0,1-.27-.11.33.33,0,0,1-.13.11.58.58,0,0,1-.21,0,.34.34,0,0,1-.29-.1.67.67,0,0,1-.08-.38v-.47a.61.61,0,0,1,.09-.37.41.41,0,0,1,.3-.11.44.44,0,0,1,.43.33l0,.12a.62.62,0,0,0,.34.29,1.25,1.25,0,0,0,.56.11.69.69,0,0,0,.45-.13.41.41,0,0,0,.16-.36c0-.21-.22-.4-.67-.58h0l-.72-.28a1.33,1.33,0,0,1-.63-.46,1.27,1.27,0,0,1-.21-.74,1.15,1.15,0,0,1,.34-.9,1.6,1.6,0,0,1,1-.36l0-.31a.33.33,0,0,1,.1-.24.4.4,0,0,1,.26-.08.39.39,0,0,1,.25.07.26.26,0,0,1,.09.21v.05Z" transform="translate(-9.84 -17.5)"/><path d="M64.62,289.75v1.18l1.21-1.21a.43.43,0,0,1-.29-.11.48.48,0,0,1-.08-.29.46.46,0,0,1,.11-.34.62.62,0,0,1,.38-.1h1a.58.58,0,0,1,.37.1.42.42,0,0,1,.11.34.4.4,0,0,1-.11.32.44.44,0,0,1-.32.11h-.09l-1.14,1.12a2.89,2.89,0,0,1,.58.62,7.44,7.44,0,0,1,.61,1.17h.13a.48.48,0,0,1,.34.1.41.41,0,0,1,.12.32.4.4,0,0,1-.12.33.54.54,0,0,1-.38.1h-.48q-.32,0-.51-.42L66,293a5.87,5.87,0,0,0-.47-.84,2.84,2.84,0,0,0-.5-.54l-.37.35v.73h.06a.49.49,0,0,1,.33.11.42.42,0,0,1,.11.31.4.4,0,0,1-.12.33.56.56,0,0,1-.38.1h-1a.62.62,0,0,1-.38-.09.42.42,0,0,1-.11-.34.38.38,0,0,1,.11-.31.44.44,0,0,1,.32-.11h.06v-2.91h-.06a.44.44,0,0,1-.32-.11.46.46,0,0,1-.11-.32.43.43,0,0,1,.12-.34.58.58,0,0,1,.37-.1h1a.64.64,0,0,1,.38.1.43.43,0,0,1,.12.34.46.46,0,0,1-.11.32.49.49,0,0,1-.33.11Z" transform="translate(-9.84 -17.5)"/><path d="M70.53,292a1.32,1.32,0,0,1-.35.12,1.24,1.24,0,0,1-.33,0,.8.8,0,0,1-.63-.3,1.18,1.18,0,0,1-.25-.78,1.25,1.25,0,0,1,.35-.92,1.3,1.3,0,0,1,.94-.33h.14a1.27,1.27,0,0,0-.18-.73.57.57,0,0,0-.5-.27.87.87,0,0,0-.79.55,3.35,3.35,0,0,0-.29,1.54,3.42,3.42,0,0,0,.33,1.68,1.05,1.05,0,0,0,1,.57,1.35,1.35,0,0,0,.41-.07l.28-.07a.19.19,0,0,1,.17.09.39.39,0,0,1,.06.23.41.41,0,0,1-.25.38,1.3,1.3,0,0,1-.68.14,1.83,1.83,0,0,1-1.59-.74,4.49,4.49,0,0,1,0-4.25,1.69,1.69,0,0,1,1.46-.75,1.34,1.34,0,0,1,1.12.45,2.35,2.35,0,0,1,.35,1.43v1.46a.8.8,0,0,1,.15.2.41.41,0,0,1,0,.18.32.32,0,0,1-.12.25.41.41,0,0,1-.28.09.58.58,0,0,1-.2,0A1.71,1.71,0,0,1,70.53,292Zm-.13-.57v-1h-.13a.56.56,0,0,0-.43.16.6.6,0,0,0-.17.44.52.52,0,0,0,.11.35.42.42,0,0,0,.31.13l.13,0Z" transform="translate(-9.84 -17.5)"/><path d="M75.07,288.74a.22.22,0,0,1,.14.05.24.24,0,0,1,.05.14,1.2,1.2,0,0,1-.19.4c-.09.15-.16.28-.21.38a5.58,5.58,0,0,0-.46,1.11,4.4,4.4,0,0,0-.14,1.09,4.07,4.07,0,0,0,.12,1,4.6,4.6,0,0,0,.34,1l.33.6a1.34,1.34,0,0,1,.21.44.21.21,0,0,1-.05.13.21.21,0,0,1-.12.05.66.66,0,0,1-.36-.13,2.44,2.44,0,0,1-.43-.39,4.26,4.26,0,0,1-.8-1.26,3.66,3.66,0,0,1-.27-1.39,3.59,3.59,0,0,1,.22-1.26,4.2,4.2,0,0,1,.67-1.17,3.53,3.53,0,0,1,.53-.55A.75.75,0,0,1,75.07,288.74Z" transform="translate(-9.84 -17.5)"/><path d="M77.27,288.93a.24.24,0,0,1,0-.14.21.21,0,0,1,.13-.05.75.75,0,0,1,.43.19,3.14,3.14,0,0,1,.54.55,4.11,4.11,0,0,1,.66,1.16,3.67,3.67,0,0,1,0,2.66,4.26,4.26,0,0,1-.8,1.26,2.16,2.16,0,0,1-.44.39.64.64,0,0,1-.36.13.21.21,0,0,1-.12-.05.21.21,0,0,1,0-.13,1.11,1.11,0,0,1,.19-.4c.09-.15.17-.28.22-.38a5.58,5.58,0,0,0,.46-1.11,4.42,4.42,0,0,0,.14-1.1,4.07,4.07,0,0,0-.12-1,4.6,4.6,0,0,0-.34-1c-.09-.17-.2-.37-.34-.6A1.33,1.33,0,0,1,77.27,288.93Z" transform="translate(-9.84 -17.5)"/><path d="M84.27,289.75V292a2.81,2.81,0,0,1-.07.76,1.09,1.09,0,0,1-.23.42,1.29,1.29,0,0,1-.57.35,2.59,2.59,0,0,1-.88.13,3.86,3.86,0,0,1-.7-.07,2.77,2.77,0,0,1-.65-.22.42.42,0,0,1-.23-.2,1.25,1.25,0,0,1,0-.4v-.81a.8.8,0,0,1,.1-.47.37.37,0,0,1,.34-.13c.23,0,.35.17.38.51a.53.53,0,0,0,0,.14,1,1,0,0,0,.21.62.7.7,0,0,0,.52.16.77.77,0,0,0,.63-.23,1.52,1.52,0,0,0,.18-.87v-1.92h-.65a.54.54,0,0,1-.38-.11.38.38,0,0,1-.12-.32.42.42,0,0,1,.11-.33.57.57,0,0,1,.39-.1h2a.54.54,0,0,1,.38.1.39.39,0,0,1,.11.33.38.38,0,0,1-.11.32.56.56,0,0,1-.38.11Z" transform="translate(-9.84 -17.5)"/><path d="M62,298.71H60.16v1h.69v0a.45.45,0,0,1,.1-.33.34.34,0,0,1,.29-.11.39.39,0,0,1,.29.1.33.33,0,0,1,.11.25v.94a.62.62,0,0,1-.09.38.42.42,0,0,1-.31.11.4.4,0,0,1-.3-.1.44.44,0,0,1-.1-.32v-.07h-.69v1.17H62v-.46a.56.56,0,0,1,.1-.38.52.52,0,0,1,.64,0,.56.56,0,0,1,.1.38v.94a.37.37,0,0,1-.08.28.54.54,0,0,1-.33.07h-3.2a.55.55,0,0,1-.37-.1.44.44,0,0,1-.11-.33.38.38,0,0,1,.42-.42h.06v-2.91h-.06a.39.39,0,0,1-.31-.12.43.43,0,0,1-.11-.31.42.42,0,0,1,.11-.33.54.54,0,0,1,.37-.11h3.2a.56.56,0,0,1,.32.07.37.37,0,0,1,.09.29v.88a.64.64,0,0,1-.1.38.43.43,0,0,1-.32.11.41.41,0,0,1-.32-.11.58.58,0,0,1-.1-.38Z" transform="translate(-9.84 -17.5)"/><path d="M65.26,301.29a.84.84,0,0,1,.56.18.59.59,0,0,1,.21.47.61.61,0,0,1-.21.48.84.84,0,0,1-.56.18.81.81,0,0,1-.55-.18.61.61,0,0,1-.22-.48.57.57,0,0,1,.22-.47A.81.81,0,0,1,65.26,301.29Zm.51-3.14-.15,2.53a.28.28,0,0,1-.11.22.39.39,0,0,1-.25.08.37.37,0,0,1-.25-.09.25.25,0,0,1-.11-.21l-.15-2.53v0a.49.49,0,0,1,.13-.37.52.52,0,0,1,.38-.13.49.49,0,0,1,.37.13.47.47,0,0,1,.14.36Z" transform="translate(-9.84 -17.5)"/><path d="M69.08,298.75l.61,1.27.59-1.27h0a.34.34,0,0,1-.27-.11.51.51,0,0,1-.09-.32A.46.46,0,0,1,70,298a.45.45,0,0,1,.32-.1h.89a.56.56,0,0,1,.37.1.42.42,0,0,1,.11.34.46.46,0,0,1-.1.32.45.45,0,0,1-.31.11h-.07l-1,1.95v1h.51a.54.54,0,0,1,.38.1.43.43,0,0,1,.11.32.42.42,0,0,1-.12.33.53.53,0,0,1-.37.1h-2a.53.53,0,0,1-.37-.1.4.4,0,0,1-.12-.33.45.45,0,0,1,.11-.33.62.62,0,0,1,.38-.09h.51v-.85L68,298.75H68a.42.42,0,0,1-.31-.11.55.55,0,0,1,0-.66.61.61,0,0,1,.37-.1h1a.5.5,0,0,1,.33.1.51.51,0,0,1,.1.34.48.48,0,0,1-.09.31.32.32,0,0,1-.27.12Z" transform="translate(-9.84 -17.5)"/><path d="M74.77,300.35a1.25,1.25,0,0,1-.45.33,1.39,1.39,0,0,1-.57.12,1.37,1.37,0,0,1-1.06-.48,1.71,1.71,0,0,1-.43-1.19,1.57,1.57,0,0,1,.48-1.2,1.78,1.78,0,0,1,1.28-.46,1.59,1.59,0,0,1,1.31.6,2.6,2.6,0,0,1,.47,1.66,3,3,0,0,1-.73,2.11,2.53,2.53,0,0,1-1.95.8,2,2,0,0,1-.59-.06.23.23,0,0,1-.17-.23c0-.23.18-.36.55-.38l.38,0a1.55,1.55,0,0,0,1-.45A2.42,2.42,0,0,0,74.77,300.35Zm0-1.24a1,1,0,0,0-.22-.64.75.75,0,0,0-.57-.24.65.65,0,0,0-.52.23.91.91,0,0,0-.2.61,1,1,0,0,0,.21.63.71.71,0,0,0,.54.24.68.68,0,0,0,.54-.24A.8.8,0,0,0,74.76,299.11Z" transform="translate(-9.84 -17.5)"/><path d="M77.71,299.75a1.39,1.39,0,0,1,.46-.33,1.47,1.47,0,0,1,.56-.11,1.36,1.36,0,0,1,1.06.48,1.68,1.68,0,0,1,.43,1.18,1.6,1.6,0,0,1-.48,1.21,1.81,1.81,0,0,1-1.28.46,1.57,1.57,0,0,1-1.3-.61,2.58,2.58,0,0,1-.48-1.66,3,3,0,0,1,.74-2.11,2.53,2.53,0,0,1,2-.8,1.64,1.64,0,0,1,.58.07.21.21,0,0,1,.17.22c0,.23-.18.36-.55.38l-.36,0a1.55,1.55,0,0,0-1,.45A2.33,2.33,0,0,0,77.71,299.75ZM79.23,301a.91.91,0,0,0-.21-.62.66.66,0,0,0-.54-.25.68.68,0,0,0-.54.24.88.88,0,0,0-.21.6.91.91,0,0,0,.22.63.71.71,0,0,0,.56.24.65.65,0,0,0,.52-.23A.91.91,0,0,0,79.23,301Z" transform="translate(-9.84 -17.5)"/><path d="M83.27,299.65h1.3a.44.44,0,0,1,.3.11.41.41,0,0,1,0,.58.44.44,0,0,1-.3.11h-1.3v1.35a.45.45,0,0,1-.11.31.42.42,0,0,1-.71-.31v-1.35H81.16a.47.47,0,0,1-.31-.11.42.42,0,0,1-.11-.29.38.38,0,0,1,.12-.28.41.41,0,0,1,.3-.12h1.29V298.3a.41.41,0,0,1,.12-.31.37.37,0,0,1,.29-.12.38.38,0,0,1,.3.13.44.44,0,0,1,.11.3Z" transform="translate(-9.84 -17.5)"/><polygon class="cls-8" points="46.49 281.78 54.19 281.77 54.19 289.49 46.49 281.78"/><path class="cls-10" d="M81.64,263.59A4.45,4.45,0,1,0,86.09,268,4.45,4.45,0,0,0,81.64,263.59Zm0,7.41a3,3,0,1,1,3-3A3,3,0,0,1,81.64,271Z" transform="translate(-9.84 -17.5)"/><path class="cls-10" d="M67.35,250.54h8.9A1.48,1.48,0,0,1,77.73,252v4.45a5.93,5.93,0,0,1-5.93,5.93h0a5.93,5.93,0,0,1-5.93-5.93V252a1.48,1.48,0,0,1,1.48-1.48Z"/><path class="cls-11" d="M82.82,272.68a1.19,1.19,0,1,0-2.37,0,1.17,1.17,0,0,0,.44.92v2.59h1.49V273.6A1.17,1.17,0,0,0,82.82,272.68Z" transform="translate(-9.84 -17.5)"/><path class="cls-8" d="M173.74,190l7.7,7.7h22.61V162.92a4.46,4.46,0,0,0-4.46-4.46H173.74Z" transform="translate(-9.84 -17.5)"/><path d="M178.26,161.17a1.67,1.67,0,0,1,1.42.7,3,3,0,0,1,.53,1.89,3,3,0,0,1-.53,1.9,1.69,1.69,0,0,1-1.42.69,1.67,1.67,0,0,1-1.41-.69,3.73,3.73,0,0,1,0-3.8A1.67,1.67,0,0,1,178.26,161.17Zm0,.88a.73.73,0,0,0-.66.45,3.4,3.4,0,0,0,0,2.51.7.7,0,0,0,1.31,0,3.28,3.28,0,0,0,0-2.51A.73.73,0,0,0,178.27,162.05Z" transform="translate(-9.84 -17.5)"/><path d="M183.26,165.39h.63a.56.56,0,0,1,.38.1.38.38,0,0,1,.12.32.43.43,0,0,1-.11.32.66.66,0,0,1-.39.09h-2.3a.6.6,0,0,1-.38-.09.39.39,0,0,1-.12-.32.38.38,0,0,1,.12-.32.56.56,0,0,1,.38-.1h.73v-3.3l-.44.12-.17,0h-.1a.32.32,0,0,1-.25-.1.46.46,0,0,1-.08-.29.33.33,0,0,1,.09-.23.7.7,0,0,1,.3-.14l1-.27.2,0,.13,0a.24.24,0,0,1,.22.09.42.42,0,0,1,.07.29Z" transform="translate(-9.84 -17.5)"/><path d="M189,165.37h.06a.4.4,0,0,1,.32.11.38.38,0,0,1,.11.31.45.45,0,0,1-.11.33.58.58,0,0,1-.38.1h-1.18a.54.54,0,0,1-.38-.1.39.39,0,0,1-.11-.33.38.38,0,0,1,.11-.32.54.54,0,0,1,.38-.1H188l-.16-.46h-1.69l-.17.46h.14a.56.56,0,0,1,.38.1.38.38,0,0,1,.12.32.42.42,0,0,1-.12.33.56.56,0,0,1-.38.1h-1a.54.54,0,0,1-.38-.1.43.43,0,0,1,.31-.75h.07l1-2.92h-.31a.59.59,0,0,1-.39-.1.42.42,0,0,1-.11-.33.45.45,0,0,1,.11-.33.59.59,0,0,1,.39-.1h1.46a.5.5,0,0,1,.49.38h0Zm-2-2.92-.57,1.65h1.14Z" transform="translate(-9.84 -17.5)"/><path d="M191,161.17a1.17,1.17,0,0,1,.82.3,1,1,0,0,1,.33.76,1,1,0,0,1-.33.76,1.17,1.17,0,0,1-.82.3,1.15,1.15,0,0,1-.82-.3,1,1,0,0,1-.33-.76,1,1,0,0,1,.33-.76A1.15,1.15,0,0,1,191,161.17Zm1.84,2.29-2.62,1-.06,0h-.06a.19.19,0,0,1-.16-.09.32.32,0,0,1-.07-.2.21.21,0,0,1,.05-.12.28.28,0,0,1,.11-.08l2.62-1,.06,0h.06a.22.22,0,0,1,.17.07.29.29,0,0,1,.06.19.19.19,0,0,1,0,.12A.27.27,0,0,1,192.86,163.46ZM191,161.75a.53.53,0,0,0-.38.13.45.45,0,0,0-.14.35.41.41,0,0,0,.14.34.62.62,0,0,0,.76,0,.41.41,0,0,0,.14-.34.46.46,0,0,0-.14-.34A.56.56,0,0,0,191,161.75Zm.9,2.47a1.18,1.18,0,0,1,.82.31,1,1,0,0,1,.32.76,1,1,0,0,1-.32.76,1.15,1.15,0,0,1-.82.3,1.18,1.18,0,0,1-.83-.3,1,1,0,0,1-.32-.76,1,1,0,0,1,.32-.76A1.2,1.2,0,0,1,191.92,164.22Zm0,.6a.52.52,0,0,0-.38.13.42.42,0,0,0-.15.34.43.43,0,0,0,.15.34.52.52,0,0,0,.38.13.55.55,0,0,0,.37-.13.46.46,0,0,0,0-.68A.51.51,0,0,0,191.92,164.82Z" transform="translate(-9.84 -17.5)"/><path d="M179.45,170.72a.7.7,0,0,1,.16-.2.37.37,0,0,1,.21-.06.34.34,0,0,1,.27.1.55.55,0,0,1,.08.35v1a.52.52,0,0,1-.09.36.44.44,0,0,1-.32.09.37.37,0,0,1-.26-.08.61.61,0,0,1-.15-.28.89.89,0,0,0-.32-.54,1,1,0,0,0-.61-.16,1.1,1.1,0,0,0-.92.4,2.32,2.32,0,0,0,0,2.37,1.15,1.15,0,0,0,.95.42l.32,0,.42-.1v-.62h-.44a.56.56,0,0,1-.38-.1.41.41,0,0,1-.11-.32.46.46,0,0,1,.11-.34.62.62,0,0,1,.38-.1h1.41a.65.65,0,0,1,.39.1.45.45,0,0,1,.11.33.46.46,0,0,1-.11.32.49.49,0,0,1-.33.11h-.06v1a.34.34,0,0,1,0,.17.37.37,0,0,1-.11.1,2.1,2.1,0,0,1-.7.23,4.66,4.66,0,0,1-1,.1,2.16,2.16,0,0,1-1.66-.67,2.49,2.49,0,0,1-.63-1.77,2.44,2.44,0,0,1,.64-1.74,2.08,2.08,0,0,1,1.62-.7,2.57,2.57,0,0,1,.55.06A3.91,3.91,0,0,1,179.45,170.72Z" transform="translate(-9.84 -17.5)"/><path d="M181.92,170.09a.36.36,0,0,1,.1-.25.37.37,0,0,1,.25-.08.29.29,0,0,1,.22.09.36.36,0,0,1,.09.24v0l-.09,1.6H183l.09-1.64a.36.36,0,0,1,.1-.25.37.37,0,0,1,.25-.08.32.32,0,0,1,.23.09.36.36,0,0,1,.09.24v0l-.09,1.6H184a.22.22,0,0,1,.19.07.36.36,0,0,1,.07.22.39.39,0,0,1-.07.23.22.22,0,0,1-.19.07h-.42l0,.9H184a.22.22,0,0,1,.19.07.36.36,0,0,1,.07.22.34.34,0,0,1-.07.22.23.23,0,0,1-.19.08h-.51l-.07,1.54a.38.38,0,0,1-.1.25.33.33,0,0,1-.25.09.29.29,0,0,1-.23-.1.33.33,0,0,1-.09-.25v0l.09-1.5h-.49l-.08,1.54a.31.31,0,0,1-.34.34.33.33,0,0,1-.23-.1.45.45,0,0,1-.08-.26v0l.07-1.5h-.4a.23.23,0,0,1-.19-.08.37.37,0,0,1-.07-.23.33.33,0,0,1,.07-.21.22.22,0,0,1,.19-.07h.43l.06-.9h-.49a.22.22,0,0,1-.19-.07.37.37,0,0,1-.07-.23.36.36,0,0,1,.07-.22.22.22,0,0,1,.19-.07h.52Zm.49,3.13h.48l.05-.9h-.49Z" transform="translate(-9.84 -17.5)"/><path d="M187.78,172.54a1.33,1.33,0,0,1,.67.45,1.26,1.26,0,0,1,.22.78,1.47,1.47,0,0,1-.49,1.16,2,2,0,0,1-1.35.43,2.41,2.41,0,0,1-1.14-.23c-.3-.15-.45-.33-.45-.55a.43.43,0,0,1,.45-.43,1.88,1.88,0,0,1,.5.18,1.73,1.73,0,0,0,.7.17.67.67,0,0,0,.76-.76.78.78,0,0,0-.16-.56,1,1,0,0,0-.64-.19.47.47,0,0,1-.33-.09.51.51,0,0,1-.08-.32.34.34,0,0,1,.34-.36h.07a.86.86,0,0,0,.54-.21.63.63,0,0,0,.13-.46.52.52,0,0,0-.58-.58,1.49,1.49,0,0,0-.65.18,1.4,1.4,0,0,1-.49.18.33.33,0,0,1-.25-.1.37.37,0,0,1-.09-.25c0-.22.16-.41.46-.57a2.46,2.46,0,0,1,1.14-.24,1.59,1.59,0,0,1,1.08.35,1.18,1.18,0,0,1,.41.93,1.06,1.06,0,0,1-.19.65A1.29,1.29,0,0,1,187.78,172.54Z" transform="translate(-9.84 -17.5)"/><path d="M191.46,170.17a1.69,1.69,0,0,1,1.43.7,3.05,3.05,0,0,1,.52,1.89,3.1,3.1,0,0,1-.52,1.9,1.7,1.7,0,0,1-1.43.69,1.68,1.68,0,0,1-1.41-.69,3.73,3.73,0,0,1,0-3.8A1.68,1.68,0,0,1,191.46,170.17Zm0,.88a.73.73,0,0,0-.66.45,3.4,3.4,0,0,0,0,2.51.7.7,0,0,0,1.32,0,3.4,3.4,0,0,0,0-2.51A.73.73,0,0,0,191.47,171.05Z" transform="translate(-9.84 -17.5)"/><path d="M196.46,174.39h.64a.58.58,0,0,1,.38.1.41.41,0,0,1,.11.32.43.43,0,0,1-.11.32.62.62,0,0,1-.38.09h-2.31a.6.6,0,0,1-.38-.09.39.39,0,0,1-.11-.32.38.38,0,0,1,.11-.32.58.58,0,0,1,.38-.1h.73v-3.3l-.44.12-.17,0h-.09a.3.3,0,0,1-.25-.1.4.4,0,0,1-.09-.29.3.3,0,0,1,.1-.23.6.6,0,0,1,.3-.14l1-.27.2,0,.12,0a.27.27,0,0,1,.23.09.5.5,0,0,1,.06.29Z" transform="translate(-9.84 -17.5)"/><path d="M200.26,170.17a1.69,1.69,0,0,1,1.43.7,3.05,3.05,0,0,1,.53,1.89,3.1,3.1,0,0,1-.53,1.9,1.7,1.7,0,0,1-1.43.69,1.68,1.68,0,0,1-1.41-.69,3.73,3.73,0,0,1,0-3.8A1.68,1.68,0,0,1,200.26,170.17Zm0,.88a.72.72,0,0,0-.65.45,2.7,2.7,0,0,0-.24,1.25,2.86,2.86,0,0,0,.23,1.26.7.7,0,0,0,1.32,0,3.4,3.4,0,0,0,0-2.51A.73.73,0,0,0,200.27,171.05Z" transform="translate(-9.84 -17.5)"/><path d="M178.71,179.52l.19,0,.21.07a.3.3,0,0,1,.12-.13.35.35,0,0,1,.18-.05.34.34,0,0,1,.27.1.58.58,0,0,1,.08.35v.5a.41.41,0,0,1-.11.3.46.46,0,0,1-.31.1.37.37,0,0,1-.2-.05.73.73,0,0,1-.16-.22.71.71,0,0,0-.68-.41.82.82,0,0,0-.5.13.45.45,0,0,0-.18.37.4.4,0,0,0,.11.29,1.37,1.37,0,0,0,.48.27l.73.27a1.85,1.85,0,0,1,.76.5,1.12,1.12,0,0,1,.22.73,1.28,1.28,0,0,1-.37,1,1.54,1.54,0,0,1-1.07.34h0l-.05.85a.37.37,0,0,1-.1.26.44.44,0,0,1-.28.08.33.33,0,0,1-.24-.07.36.36,0,0,1-.07-.25v-.06l.06-.91a1.34,1.34,0,0,1-.27-.07l-.27-.11a.33.33,0,0,1-.13.11.58.58,0,0,1-.21,0,.34.34,0,0,1-.29-.1.69.69,0,0,1-.08-.38v-.47a.61.61,0,0,1,.09-.37.39.39,0,0,1,.3-.11.44.44,0,0,1,.43.33l0,.12a.62.62,0,0,0,.34.29,1.25,1.25,0,0,0,.56.11.69.69,0,0,0,.45-.13.43.43,0,0,0,.17-.36c0-.21-.23-.4-.68-.58h0l-.72-.29a1.32,1.32,0,0,1-.63-.45,1.27,1.27,0,0,1-.21-.74,1.15,1.15,0,0,1,.34-.9,1.58,1.58,0,0,1,1-.36l0-.31a.31.31,0,0,1,.1-.24.4.4,0,0,1,.26-.08.39.39,0,0,1,.25.07.26.26,0,0,1,.09.21v.05Z" transform="translate(-9.84 -17.5)"/><path d="M182,180.45v1.19l1.21-1.21a.43.43,0,0,1-.29-.11.49.49,0,0,1-.08-.3.45.45,0,0,1,.11-.33.56.56,0,0,1,.38-.1h1a.53.53,0,0,1,.37.1.55.55,0,0,1,0,.66.44.44,0,0,1-.32.1h-.09l-1.14,1.13a2.67,2.67,0,0,1,.58.62,7.44,7.44,0,0,1,.61,1.17h.13a.48.48,0,0,1,.34.1.41.41,0,0,1,.12.32.42.42,0,0,1-.12.33.54.54,0,0,1-.38.1h-.48q-.31,0-.51-.42a.81.81,0,0,0-.06-.13,5.87,5.87,0,0,0-.47-.84,2.84,2.84,0,0,0-.5-.54l-.37.35v.73h.06a.44.44,0,0,1,.33.11.5.5,0,0,1,0,.64.56.56,0,0,1-.38.1h-1a.56.56,0,0,1-.38-.1.39.39,0,0,1-.11-.33.38.38,0,0,1,.11-.31.4.4,0,0,1,.32-.11H181v-2.92H181a.4.4,0,0,1-.32-.11.43.43,0,0,1-.11-.32.42.42,0,0,1,.12-.33.53.53,0,0,1,.37-.1h1a.56.56,0,0,1,.38.1.42.42,0,0,1,.12.33.43.43,0,0,1-.11.32.44.44,0,0,1-.33.11Z" transform="translate(-9.84 -17.5)"/><path d="M187.94,182.75a1.32,1.32,0,0,1-.35.12,1.24,1.24,0,0,1-.33,0,.8.8,0,0,1-.63-.3,1.18,1.18,0,0,1-.25-.78,1.25,1.25,0,0,1,.35-.92,1.3,1.3,0,0,1,.94-.33h.14a1.33,1.33,0,0,0-.18-.74.59.59,0,0,0-.5-.26.85.85,0,0,0-.79.55,3.35,3.35,0,0,0-.29,1.54,3.42,3.42,0,0,0,.33,1.68,1.05,1.05,0,0,0,1,.57,1.35,1.35,0,0,0,.41-.07,1.28,1.28,0,0,1,.28-.07.19.19,0,0,1,.17.09.39.39,0,0,1,.06.23.41.41,0,0,1-.25.38,1.3,1.3,0,0,1-.68.14,1.83,1.83,0,0,1-1.59-.74,4.49,4.49,0,0,1,0-4.25,1.69,1.69,0,0,1,1.46-.75,1.34,1.34,0,0,1,1.12.45,2.33,2.33,0,0,1,.35,1.43v1.46a.8.8,0,0,1,.15.2.41.41,0,0,1,0,.18.29.29,0,0,1-.12.24.36.36,0,0,1-.27.1.59.59,0,0,1-.21,0A1.71,1.71,0,0,1,187.94,182.75Zm-.13-.57v-1h-.13a.56.56,0,0,0-.43.16.6.6,0,0,0-.17.44.52.52,0,0,0,.11.35.41.41,0,0,0,.31.12h.13Z" transform="translate(-9.84 -17.5)"/><path d="M192.48,179.45a.17.17,0,0,1,.14.05.24.24,0,0,1,0,.14,1.2,1.2,0,0,1-.19.4c-.09.15-.16.28-.21.38a5.58,5.58,0,0,0-.46,1.11,4.34,4.34,0,0,0-.14,1.09,4.07,4.07,0,0,0,.12,1,4.6,4.6,0,0,0,.34,1l.33.6a1.34,1.34,0,0,1,.21.44.21.21,0,0,1,0,.13.21.21,0,0,1-.12,0,.66.66,0,0,1-.36-.13,2.44,2.44,0,0,1-.43-.39,4.26,4.26,0,0,1-.8-1.26,3.66,3.66,0,0,1-.27-1.39,3.56,3.56,0,0,1,.22-1.26,4.06,4.06,0,0,1,.67-1.17,3.53,3.53,0,0,1,.53-.55A.75.75,0,0,1,192.48,179.45Z" transform="translate(-9.84 -17.5)"/><path d="M194.68,179.64a.24.24,0,0,1,0-.14.17.17,0,0,1,.13-.05.75.75,0,0,1,.43.19,3.14,3.14,0,0,1,.54.55,4.41,4.41,0,0,1,.67,1.16,3.9,3.9,0,0,1,.22,1.27,3.66,3.66,0,0,1-.27,1.39,4.26,4.26,0,0,1-.8,1.26,2.16,2.16,0,0,1-.44.39.64.64,0,0,1-.36.13.21.21,0,0,1-.12,0,.21.21,0,0,1,0-.13,1.11,1.11,0,0,1,.19-.4c.09-.16.17-.28.22-.38a5.58,5.58,0,0,0,.46-1.11,4.42,4.42,0,0,0,.14-1.1,4.07,4.07,0,0,0-.12-1,4.6,4.6,0,0,0-.34-1c-.09-.17-.2-.37-.34-.6A1.33,1.33,0,0,1,194.68,179.64Z" transform="translate(-9.84 -17.5)"/><path d="M201.68,180.45v2.24a2.81,2.81,0,0,1-.07.76,1,1,0,0,1-.23.41,1.22,1.22,0,0,1-.57.36,2.88,2.88,0,0,1-.88.12,3.14,3.14,0,0,1-.7-.07,2.36,2.36,0,0,1-.65-.21.42.42,0,0,1-.23-.2,1.28,1.28,0,0,1,0-.41v-.8a.8.8,0,0,1,.1-.47.37.37,0,0,1,.34-.13c.23,0,.35.17.38.51a.53.53,0,0,0,0,.14,1,1,0,0,0,.21.62.7.7,0,0,0,.52.16.77.77,0,0,0,.63-.23,1.52,1.52,0,0,0,.18-.87v-1.93H200a.54.54,0,0,1-.38-.1.39.39,0,0,1-.12-.33.41.41,0,0,1,.11-.32.57.57,0,0,1,.39-.1h2a.54.54,0,0,1,.38.1.38.38,0,0,1,.11.32.39.39,0,0,1-.11.33.56.56,0,0,1-.38.1Z" transform="translate(-9.84 -17.5)"/><path d="M179.39,189.42h-1.82v1h.69v0a.45.45,0,0,1,.1-.33.34.34,0,0,1,.29-.11.39.39,0,0,1,.29.1.33.33,0,0,1,.11.25.18.18,0,0,0,0,.05v.89a.62.62,0,0,1-.09.38.42.42,0,0,1-.31.11.4.4,0,0,1-.3-.1.44.44,0,0,1-.1-.32v-.07h-.69v1.17h1.82v-.46a.56.56,0,0,1,.1-.38.52.52,0,0,1,.64,0,.54.54,0,0,1,.1.38v.94a.37.37,0,0,1-.08.28.54.54,0,0,1-.33.07h-3.2a.55.55,0,0,1-.37-.1.45.45,0,0,1-.11-.33.42.42,0,0,1,.11-.31.38.38,0,0,1,.31-.11h.06v-2.92h-.06a.38.38,0,0,1-.31-.11.44.44,0,0,1-.11-.32.45.45,0,0,1,.11-.33.55.55,0,0,1,.37-.1h3.2a.56.56,0,0,1,.32.07.37.37,0,0,1,.09.29v.88a.64.64,0,0,1-.1.38.43.43,0,0,1-.32.11.38.38,0,0,1-.32-.12.53.53,0,0,1-.1-.37Z" transform="translate(-9.84 -17.5)"/><path d="M182.67,192a.84.84,0,0,1,.56.18.58.58,0,0,1,.21.47.63.63,0,0,1-.21.48.86.86,0,0,1-.56.18.81.81,0,0,1-.55-.18.61.61,0,0,1-.22-.48.57.57,0,0,1,.22-.47A.81.81,0,0,1,182.67,192Zm.51-3.14-.15,2.53a.25.25,0,0,1-.11.21.35.35,0,0,1-.25.09.37.37,0,0,1-.25-.09.28.28,0,0,1-.11-.21l-.15-2.53v0a.49.49,0,0,1,.13-.37.52.52,0,0,1,.38-.13.49.49,0,0,1,.37.13.46.46,0,0,1,.14.36Z" transform="translate(-9.84 -17.5)"/><path d="M186.49,189.45l.61,1.28.59-1.28h0a.31.31,0,0,1-.27-.11.47.47,0,0,1-.09-.32.45.45,0,0,1,.1-.33.41.41,0,0,1,.32-.1h.89a.51.51,0,0,1,.37.1.41.41,0,0,1,.11.33.42.42,0,0,1-.1.32.41.41,0,0,1-.31.11h-.07l-1.05,2v1h.51a.54.54,0,0,1,.38.1.38.38,0,0,1,.11.32.45.45,0,0,1-.11.33.58.58,0,0,1-.38.1h-2a.53.53,0,0,1-.37-.1.42.42,0,0,1-.12-.33.45.45,0,0,1,.11-.33.62.62,0,0,1,.38-.09h.51v-.85l-1.1-2.07h-.07a.38.38,0,0,1-.31-.11A.43.43,0,0,1,185,189a.45.45,0,0,1,.11-.33.56.56,0,0,1,.38-.1h1a.37.37,0,0,1,.43.43.49.49,0,0,1-.09.32.32.32,0,0,1-.27.11Z" transform="translate(-9.84 -17.5)"/><path d="M192.18,191.06a1.25,1.25,0,0,1-.45.33,1.45,1.45,0,0,1-1.63-.37,1.68,1.68,0,0,1-.43-1.18,1.57,1.57,0,0,1,.48-1.2,1.78,1.78,0,0,1,1.28-.46,1.59,1.59,0,0,1,1.31.6,2.6,2.6,0,0,1,.47,1.66,3,3,0,0,1-.73,2.11,2.53,2.53,0,0,1-1.95.8,1.67,1.67,0,0,1-.59-.07.21.21,0,0,1-.17-.22c0-.23.18-.36.55-.38l.38,0a1.55,1.55,0,0,0,1-.45A2.42,2.42,0,0,0,192.18,191.06Zm0-1.24a.94.94,0,0,0-.22-.64.76.76,0,0,0-.57-.25.66.66,0,0,0-.52.24.89.89,0,0,0-.2.6.92.92,0,0,0,.22.64.72.72,0,0,0,1.07,0A.8.8,0,0,0,192.17,189.82Z" transform="translate(-9.84 -17.5)"/><path d="M195.12,190.46a1.39,1.39,0,0,1,.46-.33,1.3,1.3,0,0,1,.56-.11,1.36,1.36,0,0,1,1.06.48,1.67,1.67,0,0,1,.43,1.18,1.6,1.6,0,0,1-.48,1.21,1.8,1.8,0,0,1-1.28.45,1.56,1.56,0,0,1-1.3-.6,2.58,2.58,0,0,1-.48-1.66,2.94,2.94,0,0,1,.74-2.11,2.53,2.53,0,0,1,1.95-.8,1.64,1.64,0,0,1,.58.07.21.21,0,0,1,.17.21c0,.24-.18.37-.55.39l-.36,0a1.55,1.55,0,0,0-1,.45A2.33,2.33,0,0,0,195.12,190.46Zm1.52,1.28a.91.91,0,0,0-.21-.62.66.66,0,0,0-.54-.25.68.68,0,0,0-.54.24.85.85,0,0,0-.21.59.92.92,0,0,0,.22.64.71.71,0,0,0,.56.24.65.65,0,0,0,.52-.23A.91.91,0,0,0,196.64,191.74Z" transform="translate(-9.84 -17.5)"/><path d="M200.68,190.36H202a.44.44,0,0,1,.3.11.41.41,0,0,1,0,.58.44.44,0,0,1-.3.11h-1.3v1.35a.47.47,0,0,1-.11.31.44.44,0,0,1-.3.11.4.4,0,0,1-.29-.12.41.41,0,0,1-.12-.3v-1.35h-1.29a.47.47,0,0,1-.31-.11.42.42,0,0,1-.11-.29.38.38,0,0,1,.12-.28.41.41,0,0,1,.3-.12h1.29V189a.41.41,0,0,1,.12-.31.37.37,0,0,1,.29-.12.41.41,0,0,1,.3.12.49.49,0,0,1,.11.31Z" transform="translate(-9.84 -17.5)"/><polygon class="cls-8" points="163.9 172.49 171.6 172.48 171.6 180.19 163.9 172.49"/><path class="cls-10" d="M199.05,154.3a4.45,4.45,0,1,0,4.45,4.45A4.45,4.45,0,0,0,199.05,154.3Zm0,7.41a3,3,0,1,1,3-3A3,3,0,0,1,199.05,161.71Z" transform="translate(-9.84 -17.5)"/><path class="cls-10" d="M184.76,141.25h8.9a1.48,1.48,0,0,1,1.48,1.48v4.45a5.93,5.93,0,0,1-5.93,5.93h0a5.93,5.93,0,0,1-5.93-5.93v-4.45A1.48,1.48,0,0,1,184.76,141.25Z"/><path class="cls-11" d="M200.23,163.39a1.19,1.19,0,1,0-2.37,0,1.17,1.17,0,0,0,.44.92v2.59h1.49v-2.59A1.17,1.17,0,0,0,200.23,163.39Z" transform="translate(-9.84 -17.5)"/><path class="cls-10" d="M197.05,266.6a2.92,2.92,0,0,0-3-2.89,2.84,2.84,0,0,0-2.9,2.94v.94l-.48.49.49.49v.21h-1.45l0-2.24a4.39,4.39,0,0,1,8.77,0v3.72h-1.44Z" transform="translate(-9.84 -17.5)"/><path class="cls-10" d="M185.45,250.32h8.76a1.46,1.46,0,0,1,1.46,1.46v4.38a5.84,5.84,0,0,1-5.84,5.84h0a5.84,5.84,0,0,1-5.84-5.84v-4.38a1.46,1.46,0,0,1,1.46-1.46Z"/><path class="cls-11" d="M200.84,272.39a1.17,1.17,0,0,0-2.33,0,1.18,1.18,0,0,0,.44.92v2.54h1.46v-2.54A1.21,1.21,0,0,0,200.84,272.39Z" transform="translate(-9.84 -17.5)"/><path d="M123.4,191.65c-.38,0-.8,0-1.17,0s-.68,0-1,0c-.06,0-.06-.12,0-.12.71,0,.85-.16.58-.74l-.89-1.89h-2.38l-.63,1.48c-.34.82,0,1.15.84,1.15.06,0,.06.12,0,.12-.4,0-.67,0-1.18,0s-.69,0-1.1,0c0,0,0-.12,0-.12.54,0,.81-.25,1.23-1.24l2.11-5s.12,0,.13,0l2.36,5c.46,1,.72,1.25,1.15,1.25C123.45,191.53,123.45,191.65,123.4,191.65Zm-2.62-3-1.17-2.47-1,2.47Z" transform="translate(-9.84 -17.5)"/><path d="M125.34,189.39c.5.26,1,.51,1,1.16a1.26,1.26,0,0,1-1.41,1.21,1.57,1.57,0,0,1-1-.3.14.14,0,0,1-.06-.12l0-.78s.11-.05.12,0c.25.67.67,1,1.2,1s.68-.21.65-.63-.46-.79-.91-1-1-.48-1-1.15.69-1.11,1.36-1.11a1.71,1.71,0,0,1,.73.15c.08,0,.09.06.09.11,0,.21,0,.45,0,.73,0,0-.12,0-.12,0,0-.44-.57-.8-1-.8a.49.49,0,0,0-.54.54C124.44,188.92,124.89,189.16,125.34,189.39Z" transform="translate(-9.84 -17.5)"/><path d="M128.66,189.39c.5.26,1,.51,1,1.16a1.26,1.26,0,0,1-1.41,1.21,1.57,1.57,0,0,1-1-.3.14.14,0,0,1-.06-.12l0-.78s.11-.05.12,0c.25.67.67,1,1.2,1s.68-.21.65-.63-.46-.79-.91-1-1-.48-1-1.15.69-1.11,1.36-1.11a1.71,1.71,0,0,1,.73.15c.08,0,.09.06.09.11,0,.21,0,.45,0,.73,0,0-.12,0-.12,0,0-.44-.57-.8-1-.8a.49.49,0,0,0-.54.54C127.76,188.92,128.21,189.16,128.66,189.39Z" transform="translate(-9.84 -17.5)"/><path d="M134.3,191.22l-1,.49-.08,0c-.16,0-.32-.23-.36-.65l-.52.34a1.44,1.44,0,0,1-.84.3.69.69,0,0,1-.78-.69c0-.4.3-.67,1-.94l1.1-.41V189c0-.83-.25-1.12-.63-1.12a.8.8,0,0,0-.75.74c0,.19-.1.41-.38.41a.3.3,0,0,1-.33-.3c0-.5,1.15-1,1.82-1s.83.37.83,1v1.87c0,.46.11.67.39.67a1.32,1.32,0,0,0,.49-.13C134.32,191.09,134.36,191.19,134.3,191.22Zm-1.48-.28v-1.12l-.93.36c-.37.15-.53.34-.53.6a.54.54,0,0,0,.56.57.93.93,0,0,0,.48-.16Z" transform="translate(-9.84 -17.5)"/><path d="M137.48,191.24a2,2,0,0,1-1.28.53c-.49,0-1-.19-1-.82V188.6c0-.49-.06-.55-.51-.55,0,0,0-.13,0-.13a.87.87,0,0,0,.94-.76s.15,0,.15,0v.74c.46,0,.89-.05,1.39-.1,0,0,.07.11.07.24s-.06.25-.11.24a5.6,5.6,0,0,0-1.35-.16v2.49a.71.71,0,0,0,.79.81,1.29,1.29,0,0,0,.8-.28C137.46,191.11,137.53,191.2,137.48,191.24Z" transform="translate(-9.84 -17.5)"/><path d="M141.87,191.22l-1,.49-.08,0c-.16,0-.32-.23-.36-.65l-.52.34a1.44,1.44,0,0,1-.84.3.69.69,0,0,1-.78-.69c0-.4.3-.67,1-.94l1.1-.41V189c0-.83-.25-1.12-.63-1.12a.8.8,0,0,0-.75.74c0,.19-.1.41-.38.41a.3.3,0,0,1-.33-.3c0-.5,1.15-1,1.82-1s.83.37.83,1v1.87c0,.46.11.67.39.67a1.32,1.32,0,0,0,.49-.13C141.89,191.09,141.93,191.19,141.87,191.22Zm-1.48-.28v-1.12l-.93.36c-.37.15-.53.34-.53.6a.54.54,0,0,0,.56.57.93.93,0,0,0,.48-.16Z" transform="translate(-9.84 -17.5)"/><path d="M143.05,186.19a2.38,2.38,0,0,1-.75,1.65.05.05,0,0,1-.08-.07,1.87,1.87,0,0,0,.38-1.22,1.19,1.19,0,0,0-.09-.47.41.41,0,0,1-.16,0,.37.37,0,0,1-.4-.39c0-.26.16-.39.46-.39S143.05,185.6,143.05,186.19Z" transform="translate(-9.84 -17.5)"/><path d="M145.14,189.39c.5.26,1,.51,1,1.16a1.26,1.26,0,0,1-1.41,1.21,1.57,1.57,0,0,1-1-.3.14.14,0,0,1-.06-.12l0-.78s.11-.05.12,0c.25.67.67,1,1.2,1s.68-.21.65-.63-.46-.79-.91-1-1-.48-1-1.15.69-1.11,1.36-1.11a1.71,1.71,0,0,1,.73.15c.08,0,.09.06.09.11,0,.21,0,.45,0,.73,0,0-.12,0-.12,0,0-.44-.57-.8-1-.8a.49.49,0,0,0-.54.54C144.24,188.92,144.69,189.16,145.14,189.39Z" transform="translate(-9.84 -17.5)"/><path d="M112.51,201.53c.62,0,.75-.11.86-.69l.81-4.63c.11-.57,0-.69-.6-.69,0,0,0-.11,0-.11l1,0c.29,0,.76-.05,1.23-.05,1,0,1.88.53,1.65,1.74A2.48,2.48,0,0,1,115,199a1.32,1.32,0,0,1-.41-.05s0-.15,0-.14a1,1,0,0,0,.3,0,1.85,1.85,0,0,0,1.84-1.56c.21-1.15-.42-1.8-1.17-1.8s-.72,0-.85.71l-.81,4.61c-.1.58,0,.69.61.69,0,0,0,.12,0,.12l-1,0-1,0S112.47,201.53,112.51,201.53Z" transform="translate(-9.84 -17.5)"/><path d="M121.85,201c-.46.52-.82.77-1.17.77s-.4-.26-.28-1l.21-1.21c-.47,1.36-1.15,2.21-1.88,2.21-.57,0-.78-.39-.59-1.32l.36-1.78c.08-.4,0-.58-.16-.58s-.38.18-.66.46c-.05.05-.13,0-.08-.08.44-.5.78-.78,1.13-.78s.43.26.28,1l-.32,1.59c-.16.77,0,1.12.36,1.12.65,0,1.46-1.28,1.86-3.53,0-.09.13-.15.32-.15s.24,0,.24.06-.09.41-.15.76l-.41,2.23c-.07.39,0,.59.17.59a1.28,1.28,0,0,0,.69-.46S121.89,200.93,121.85,201Z" transform="translate(-9.84 -17.5)"/><path d="M126.19,199.14a3.12,3.12,0,0,1-2.66,2.64c-.67,0-1.08-.34-1-.9l1-5.42c.09-.47-.09-.6-.69-.32-.06,0-.1-.09,0-.1l1.29-.63s.12.05.11.08l-.91,5a2.64,2.64,0,0,1,2.07-1.81C126,197.66,126.36,198.28,126.19,199.14Zm-1.19-1c-.83,0-1.59,1-1.88,2.57-.08.49.26.83.82.83s1.36-.75,1.6-2.07C125.69,198.72,125.58,198.12,125,198.12Z" transform="translate(-9.84 -17.5)"/><path d="M127,200.76l1-5.3c.09-.47-.06-.6-.66-.32-.06,0-.11-.09,0-.1l1.29-.63c.06,0,.13.05.12.08l-1.16,6.27c-.09.4,0,.58.16.58s.38-.18.65-.46c.05,0,.13,0,.08.08-.43.5-.77.78-1.12.78S126.88,201.47,127,200.76Z" transform="translate(-9.84 -17.5)"/><path d="M129.57,200.76l.41-2.08c.07-.39,0-.59-.17-.59a1.25,1.25,0,0,0-.69.46s-.13,0-.08-.08c.46-.52.82-.77,1.16-.77s.42.26.29,1l-.41,2.1c-.08.4,0,.58.16.58a1.29,1.29,0,0,0,.68-.44c.05-.05.13,0,.08.08-.44.5-.79.76-1.14.76S129.42,201.5,129.57,200.76Zm.49-4.67a.39.39,0,0,1,.43-.41.38.38,0,0,1,.42.41.39.39,0,0,1-.42.43A.39.39,0,0,1,130.06,196.09Z" transform="translate(-9.84 -17.5)"/><path d="M131.59,199.63a2.34,2.34,0,0,1,2.14-2c.47,0,.9.24.86.59a.31.31,0,0,1-.33.32c-.19,0-.3-.12-.36-.32a.5.5,0,0,0-.52-.37c-.66,0-1,.65-1.18,1.44-.21,1.1.07,2.11,1,2.11a1.69,1.69,0,0,0,1.06-.45s.12.05.08.09a2.38,2.38,0,0,1-1.56.71C131.66,201.78,131.38,200.61,131.59,199.63Z" transform="translate(-9.84 -17.5)"/><path d="M143.22,195.52a2.44,2.44,0,0,0-1.61.74l-1.79,1.58,1,1.79c1,1.84,1.21,1.9,1.71,1.9,0,0,0,.12,0,.12h-.85c-.67,0-.41.06-1.26-1.48l-1.07-1.91-.38.33-.4,2.25c-.1.58-.14.69.52.69,0,0,0,.12,0,.12l-1,0-1,0s0-.12,0-.12c.62,0,.76-.11.86-.69l.82-4.63c.1-.57,0-.69-.61-.69,0,0,0-.11,0-.11l1,0,1,0s0,.11,0,.11c-.62,0-.74.15-.85.71l-.38,2.13,2.39-2.16c.52-.49.5-.68-.09-.68,0,0,0-.11,0-.11l1,0,.88,0S143.26,195.52,143.22,195.52Z" transform="translate(-9.84 -17.5)"/><path d="M143.7,199.51c-.19,1.1.17,1.92,1,1.92a1.64,1.64,0,0,0,1-.33s.11.05.07.09a2.24,2.24,0,0,1-1.46.58c-1.06,0-1.43-.93-1.23-2a2.6,2.6,0,0,1,2.28-2.14c.49,0,.74.21.68.54C145.94,198.8,144.89,199.33,143.7,199.51Zm0-.14c.89-.15,1.54-.46,1.66-1,.1-.35-.18-.48-.45-.48C144.29,197.93,143.88,198.58,143.73,199.37Z" transform="translate(-9.84 -17.5)"/><path d="M150.27,198.24c0,1.67-2.82,6.22-4.24,6.22-.24,0-.44-.11-.4-.42a.36.36,0,0,1,.4-.27,2,2,0,0,0,1.19-.24,4.05,4.05,0,0,0,.81-.91c.06-2.85-.38-4.48-1.13-4.48a.58.58,0,0,0-.5.37c0,.06-.14,0-.12,0,.25-.51.57-.78.93-.78.93,0,1.42,1.91,1.33,4.18a10,10,0,0,0,1.18-2.34,3.1,3.1,0,0,0-.19-1.52.33.33,0,0,1,.36-.33C150.16,197.69,150.27,197.91,150.27,198.24Z" transform="translate(-9.84 -17.5)"/><path d="M64.73,85.88c.62,0,.75-.11.86-.69l.81-4.63c.11-.57,0-.69-.6-.69,0,0,0-.12,0-.12.26,0,.61,0,1,0s.76-.06,1.23-.06c1,0,1.87.54,1.65,1.75a2.48,2.48,0,0,1-2.46,1.91,1.32,1.32,0,0,1-.41,0s0-.15,0-.14a1,1,0,0,0,.3,0A1.85,1.85,0,0,0,69,81.67c.21-1.15-.42-1.8-1.17-1.8s-.72,0-.85.71l-.81,4.61c-.1.58,0,.69.61.69,0,0,0,.12,0,.12l-1,0-1,0S64.69,85.88,64.73,85.88Z" transform="translate(-9.84 -17.5)"/><path d="M73.06,82.59a.33.33,0,0,1-.32.28c-.3,0-.31-.34-.51-.34-.47,0-1.26,2.22-1.49,3.4,0,.09-.13.15-.32.15s-.22,0-.22-.06.1-.45.15-.76l.33-1.85c.15-.79,0-1-.18-1a1.12,1.12,0,0,0-.61.37s-.11,0-.08-.08a1.58,1.58,0,0,1,1.08-.68c.36,0,.49.29.31,1.34L71,84.53c.4-1.25,1-2.48,1.53-2.48C72.78,82.05,73.12,82.3,73.06,82.59Z" transform="translate(-9.84 -17.5)"/><path d="M73.83,85.11,74.24,83c.07-.39,0-.59-.17-.59a1.25,1.25,0,0,0-.69.46s-.13,0-.08-.08c.46-.52.82-.77,1.16-.77s.42.26.29,1l-.41,2.1c-.08.4,0,.58.16.58a1.29,1.29,0,0,0,.68-.44s.13,0,.08.08c-.44.5-.79.76-1.14.76S73.68,85.85,73.83,85.11Zm.49-4.67a.39.39,0,0,1,.43-.41.38.38,0,0,1,.42.41.39.39,0,0,1-.42.43A.39.39,0,0,1,74.32,80.44Z" transform="translate(-9.84 -17.5)"/><path d="M76.45,84.75a8.22,8.22,0,0,1,.74-1.85c.08-.18,0-.25-.1-.25h-.51c-.51,0-.6.07-.75.52,0,.06-.14,0-.11,0,.29-.86.4-1,1-1h.89c.12,0,.13,0,.08.12A9.05,9.05,0,0,0,77,84.43c-.1.76.19,1.21.67,1.21s1.23-.63,1.47-1.59-.08-1.17-.21-1.29a.53.53,0,0,1-.24-.38A.35.35,0,0,1,79,82c.46,0,.51.78.42,1.51-.24,1.57-1.3,2.58-2.11,2.58S76.37,85.43,76.45,84.75Z" transform="translate(-9.84 -17.5)"/><path d="M84,85.31c-.43.5-.78.78-1.12.78s-.41-.26-.28-1l.18-1c-.6,1.23-1.43,2.06-2.14,2.06-.44,0-.7-.29-.6-1C80.24,83.65,81.6,82,82.66,82a.84.84,0,0,1,.66.28.74.74,0,0,0,.24-.36s.13,0,.11,0l-.57,3.17c-.07.39,0,.58.15.58s.39-.18.66-.46C84,85.19,84,85.27,84,85.31Zm-1.08-2.08c.1-.49-.1-.87-.59-.87-.7,0-1.53,1-1.72,2.28-.1.67,0,1,.39,1C81.73,85.64,82.68,84.32,82.91,83.23Z" transform="translate(-9.84 -17.5)"/><path d="M87.13,82.26c0,.11-.19.32-.32.32s-.6-.08-1.07-.1L85.3,85c-.1.54,0,.78.46.78a1.48,1.48,0,0,0,1-.44s.12,0,.08.08a2.25,2.25,0,0,1-1.43.74c-.39,0-.76-.19-.65-.85l.43-2.33c.09-.49,0-.55-.34-.55,0,0,0-.12,0-.12a1,1,0,0,0,.93-.77s.18,0,.17,0l-.13.74c.49,0,1.14-.07,1.27-.07S87.14,82.21,87.13,82.26Z" transform="translate(-9.84 -17.5)"/><path d="M88,83.86c-.19,1.1.17,1.92,1,1.92a1.64,1.64,0,0,0,1-.33s.11,0,.07.09a2.24,2.24,0,0,1-1.46.58c-1.06,0-1.43-.93-1.23-2A2.6,2.6,0,0,1,89.71,82c.49,0,.74.21.68.54C90.27,83.15,89.22,83.68,88,83.86Zm0-.14c.89-.15,1.54-.46,1.66-1s-.18-.48-.45-.48C88.62,82.28,88.21,82.93,88.06,83.72Z" transform="translate(-9.84 -17.5)"/><path d="M77,89.87a2.39,2.39,0,0,0-1.61.74l-1.79,1.58,1,1.79c1,1.84,1.21,1.9,1.71,1.9,0,0,0,.12,0,.12h-.85c-.67,0-.41.06-1.26-1.48l-1.07-1.91-.38.33-.4,2.25c-.1.58-.14.69.52.69,0,0,0,.12,0,.12l-.95,0-1,0s0-.12,0-.12c.62,0,.76-.11.86-.69l.82-4.63c.1-.57,0-.69-.61-.69,0,0,0-.12,0-.12.27,0,.62,0,1,0s.77,0,1,0c0,0,0,.12,0,.12-.62,0-.74.14-.85.71l-.38,2.13,2.39-2.16c.52-.49.5-.68-.09-.68,0,0,0-.12,0-.12.27,0,.57,0,1,0s.64,0,.88,0C77,89.75,77,89.87,77,89.87Z" transform="translate(-9.84 -17.5)"/><path d="M77.43,93.86c-.19,1.1.17,1.92,1,1.92a1.64,1.64,0,0,0,1-.33s.11,0,.07.09a2.24,2.24,0,0,1-1.46.58c-1.06,0-1.43-.93-1.23-2A2.6,2.6,0,0,1,79.11,92c.49,0,.74.21.68.54C79.67,93.15,78.62,93.68,77.43,93.86Zm0-.14c.89-.15,1.54-.46,1.66-1s-.18-.48-.45-.48C78,92.28,77.61,92.93,77.46,93.72Z" transform="translate(-9.84 -17.5)"/><path d="M84,92.59c0,1.67-2.82,6.22-4.24,6.22-.24,0-.44-.11-.4-.42a.36.36,0,0,1,.4-.27A2,2,0,0,0,81,97.88a4.05,4.05,0,0,0,.81-.91c.06-2.85-.38-4.48-1.13-4.48a.58.58,0,0,0-.5.37c0,.06-.14,0-.12,0,.25-.51.57-.78.93-.78.93,0,1.42,1.91,1.33,4.18a10,10,0,0,0,1.18-2.34,3.1,3.1,0,0,0-.19-1.52.33.33,0,0,1,.36-.33C83.89,92,84,92.26,84,92.59Z" transform="translate(-9.84 -17.5)"/><path d="M177.64,85.88c.62,0,.75-.11.86-.69l.81-4.63c.11-.57,0-.69-.6-.69,0,0,0-.12,0-.12.26,0,.61,0,1,0s.76-.06,1.23-.06c1,0,1.88.54,1.65,1.75a2.48,2.48,0,0,1-2.46,1.91,1.32,1.32,0,0,1-.41,0s0-.15,0-.14a1,1,0,0,0,.3,0,1.85,1.85,0,0,0,1.84-1.56c.21-1.15-.42-1.8-1.17-1.8-.6,0-.72,0-.85.71l-.81,4.61c-.1.58,0,.69.61.69,0,0,0,.12,0,.12l-1,0-1,0S177.6,85.88,177.64,85.88Z" transform="translate(-9.84 -17.5)"/><path d="M187,85.32c-.46.52-.82.77-1.17.77s-.4-.26-.28-1l.21-1.21c-.47,1.36-1.15,2.21-1.88,2.21-.57,0-.78-.39-.59-1.32l.36-1.78c.08-.4,0-.58-.16-.58s-.38.18-.66.46c-.05,0-.13,0-.08-.08.44-.5.78-.78,1.13-.78s.43.26.28,1l-.32,1.59c-.16.77,0,1.12.36,1.12.65,0,1.46-1.28,1.86-3.53,0-.09.13-.15.32-.15s.24,0,.24.06-.09.41-.15.76L186,85.11c-.07.39,0,.59.17.59a1.28,1.28,0,0,0,.69-.46S187,85.28,187,85.32Z" transform="translate(-9.84 -17.5)"/><path d="M191.32,83.49a3.12,3.12,0,0,1-2.66,2.64c-.67,0-1.08-.34-1-.9l1-5.42c.09-.48-.09-.61-.69-.32-.06,0-.1-.09,0-.11l1.29-.63s.12,0,.11.08l-.91,5A2.64,2.64,0,0,1,190.54,82C191.17,82,191.49,82.63,191.32,83.49Zm-1.19-1c-.83,0-1.59,1-1.88,2.57-.08.49.26.83.82.83s1.36-.75,1.6-2.07C190.82,83.07,190.71,82.47,190.13,82.47Z" transform="translate(-9.84 -17.5)"/><path d="M192.14,85.11l1-5.3c.09-.48-.06-.61-.66-.32-.06,0-.11-.09-.05-.11l1.29-.63c.06,0,.13,0,.12.08l-1.16,6.28c-.09.4,0,.58.16.58s.38-.18.65-.46c.05,0,.13,0,.08.08-.43.5-.77.78-1.12.78S192,85.82,192.14,85.11Z" transform="translate(-9.84 -17.5)"/><path d="M194.7,85.11l.41-2.08c.07-.39,0-.59-.17-.59a1.25,1.25,0,0,0-.69.46s-.13,0-.08-.08c.46-.52.82-.77,1.16-.77s.42.26.29,1l-.41,2.1c-.08.4,0,.58.16.58a1.29,1.29,0,0,0,.68-.44s.13,0,.08.08c-.44.5-.79.76-1.14.76S194.55,85.85,194.7,85.11Zm.49-4.67a.39.39,0,0,1,.43-.41.38.38,0,0,1,.42.41.39.39,0,0,1-.42.43A.39.39,0,0,1,195.19,80.44Z" transform="translate(-9.84 -17.5)"/><path d="M196.72,84a2.34,2.34,0,0,1,2.14-2c.47,0,.9.24.86.59a.31.31,0,0,1-.33.32c-.19,0-.3-.12-.36-.32a.5.5,0,0,0-.52-.37c-.66,0-1,.65-1.18,1.44-.21,1.1.07,2.11,1,2.11a1.69,1.69,0,0,0,1.06-.45s.12,0,.08.09a2.38,2.38,0,0,1-1.56.71C196.79,86.13,196.51,85,196.72,84Z" transform="translate(-9.84 -17.5)"/><path d="M188.05,89.87a2.39,2.39,0,0,0-1.61.74l-1.79,1.58,1,1.79c1,1.84,1.21,1.9,1.71,1.9,0,0,0,.12,0,.12h-.85c-.67,0-.41.06-1.26-1.48l-1.07-1.91-.38.33-.4,2.25c-.1.58-.14.69.52.69,0,0,0,.12,0,.12L183,96l-1,0s0-.12,0-.12c.62,0,.76-.11.86-.69l.82-4.63c.1-.57,0-.69-.61-.69,0,0,0-.12,0-.12.27,0,.62,0,1,0s.77,0,1,0c0,0,0,.12,0,.12-.62,0-.74.14-.85.71l-.38,2.13,2.39-2.16c.52-.49.5-.68-.09-.68,0,0,0-.12,0-.12.27,0,.57,0,1,0s.64,0,.88,0C188.09,89.75,188.09,89.87,188.05,89.87Z" transform="translate(-9.84 -17.5)"/><path d="M188.53,93.86c-.19,1.1.17,1.92,1,1.92a1.64,1.64,0,0,0,1-.33s.11,0,.07.09a2.24,2.24,0,0,1-1.46.58c-1.06,0-1.43-.93-1.23-2A2.6,2.6,0,0,1,190.21,92c.49,0,.74.21.68.54C190.77,93.15,189.72,93.68,188.53,93.86Zm0-.14c.89-.15,1.54-.46,1.66-1s-.18-.48-.45-.48C189.12,92.28,188.71,92.93,188.56,93.72Z" transform="translate(-9.84 -17.5)"/><path d="M195.1,92.59c0,1.67-2.82,6.22-4.24,6.22-.24,0-.44-.11-.4-.42a.36.36,0,0,1,.4-.27,2,2,0,0,0,1.19-.24,4.05,4.05,0,0,0,.81-.91c.06-2.85-.38-4.48-1.13-4.48a.58.58,0,0,0-.5.37c0,.06-.14,0-.12,0,.25-.51.57-.78.93-.78.93,0,1.42,1.91,1.33,4.18a10,10,0,0,0,1.18-2.34,3.1,3.1,0,0,0-.19-1.52.33.33,0,0,1,.36-.33C195,92,195.1,92.26,195.1,92.59Z" transform="translate(-9.84 -17.5)"/><path d="M96.64,85.88c.62,0,.75-.11.86-.69l.81-4.63c.11-.57,0-.69-.6-.69,0,0,0-.12,0-.12.26,0,.61,0,1,0s.76-.06,1.23-.06c1,0,1.88.54,1.65,1.75a2.48,2.48,0,0,1-2.46,1.91,1.32,1.32,0,0,1-.41,0s0-.15,0-.14a1,1,0,0,0,.3,0,1.85,1.85,0,0,0,1.84-1.56c.21-1.15-.42-1.8-1.17-1.8-.6,0-.72,0-.85.71l-.81,4.61c-.1.58,0,.69.61.69,0,0,0,.12,0,.12l-1,0-1,0S96.6,85.88,96.64,85.88Z" transform="translate(-9.84 -17.5)"/><path d="M106,85.32c-.46.52-.82.77-1.17.77s-.4-.26-.28-1l.21-1.21c-.47,1.36-1.15,2.21-1.88,2.21-.57,0-.78-.39-.59-1.32l.36-1.78c.08-.4,0-.58-.16-.58s-.38.18-.66.46c0,0-.13,0-.08-.08.44-.5.78-.78,1.13-.78s.43.26.28,1l-.32,1.59c-.16.77,0,1.12.36,1.12.65,0,1.46-1.28,1.86-3.53,0-.09.13-.15.32-.15s.24,0,.24.06-.09.41-.15.76L105,85.11c-.07.39,0,.59.17.59a1.28,1.28,0,0,0,.69-.46S106,85.28,106,85.32Z" transform="translate(-9.84 -17.5)"/><path d="M110.32,83.49a3.12,3.12,0,0,1-2.66,2.64c-.67,0-1.08-.34-1-.9l1-5.42c.09-.48-.09-.61-.69-.32-.06,0-.1-.09,0-.11l1.29-.63s.12,0,.11.08l-.91,5A2.64,2.64,0,0,1,109.54,82C110.17,82,110.49,82.63,110.32,83.49Zm-1.19-1c-.83,0-1.59,1-1.88,2.57-.08.49.26.83.82.83s1.36-.75,1.6-2.07C109.82,83.07,109.71,82.47,109.13,82.47Z" transform="translate(-9.84 -17.5)"/><path d="M111.14,85.11l1-5.3c.09-.48-.06-.61-.66-.32-.06,0-.11-.09,0-.11l1.29-.63c.06,0,.13,0,.12.08l-1.16,6.28c-.09.4,0,.58.16.58s.38-.18.65-.46c0,0,.13,0,.08.08-.43.5-.77.78-1.12.78S111,85.82,111.14,85.11Z" transform="translate(-9.84 -17.5)"/><path d="M113.7,85.11l.41-2.08c.07-.39,0-.59-.17-.59a1.25,1.25,0,0,0-.69.46s-.13,0-.08-.08c.46-.52.82-.77,1.16-.77s.42.26.29,1l-.41,2.1c-.08.4,0,.58.16.58a1.29,1.29,0,0,0,.68-.44s.13,0,.08.08c-.44.5-.79.76-1.14.76S113.55,85.85,113.7,85.11Zm.49-4.67a.39.39,0,0,1,.43-.41.38.38,0,0,1,.42.41.39.39,0,0,1-.42.43A.39.39,0,0,1,114.19,80.44Z" transform="translate(-9.84 -17.5)"/><path d="M115.72,84a2.34,2.34,0,0,1,2.14-2c.47,0,.9.24.86.59a.31.31,0,0,1-.33.32c-.19,0-.3-.12-.36-.32a.5.5,0,0,0-.52-.37c-.66,0-1,.65-1.18,1.44-.21,1.1.07,2.11,1,2.11a1.69,1.69,0,0,0,1.06-.45s.12,0,.08.09a2.38,2.38,0,0,1-1.56.71C115.79,86.13,115.51,85,115.72,84Z" transform="translate(-9.84 -17.5)"/><path d="M107.05,89.87a2.39,2.39,0,0,0-1.61.74l-1.79,1.58,1,1.79c1,1.84,1.21,1.9,1.71,1.9,0,0,0,.12,0,.12h-.85c-.67,0-.41.06-1.26-1.48l-1.07-1.91-.38.33-.4,2.25c-.1.58-.14.69.52.69,0,0,0,.12,0,.12l-1,0-1,0s0-.12,0-.12c.62,0,.76-.11.86-.69l.82-4.63c.1-.57,0-.69-.61-.69,0,0,0-.12,0-.12.27,0,.62,0,1,0s.77,0,1,0c0,0,0,.12,0,.12-.62,0-.74.14-.85.71l-.38,2.13,2.39-2.16c.52-.49.5-.68-.09-.68,0,0,0-.12,0-.12.27,0,.57,0,1,0s.64,0,.88,0C107.09,89.75,107.09,89.87,107.05,89.87Z" transform="translate(-9.84 -17.5)"/><path d="M107.53,93.86c-.19,1.1.17,1.92,1,1.92a1.64,1.64,0,0,0,1-.33s.11,0,.07.09a2.24,2.24,0,0,1-1.46.58c-1.06,0-1.43-.93-1.23-2A2.6,2.6,0,0,1,109.21,92c.49,0,.74.21.68.54C109.77,93.15,108.72,93.68,107.53,93.86Zm0-.14c.89-.15,1.54-.46,1.66-1s-.18-.48-.45-.48C108.12,92.28,107.71,92.93,107.56,93.72Z" transform="translate(-9.84 -17.5)"/><path d="M114.1,92.59c0,1.67-2.82,6.22-4.24,6.22-.24,0-.44-.11-.4-.42a.36.36,0,0,1,.4-.27,2,2,0,0,0,1.19-.24,4.05,4.05,0,0,0,.81-.91c.06-2.85-.38-4.48-1.13-4.48a.58.58,0,0,0-.5.37c0,.06-.14,0-.12,0,.25-.51.57-.78.93-.78.93,0,1.42,1.91,1.33,4.18a10,10,0,0,0,1.18-2.34,3.1,3.1,0,0,0-.19-1.52.33.33,0,0,1,.36-.33C114,92,114.1,92.26,114.1,92.59Z" transform="translate(-9.84 -17.5)"/><path d="M77.75,112.57a4,4,0,0,1,4-3.25,2.37,2.37,0,0,1,1.37.36c.08.08.06.12,0,.23L83,111c0,.06-.12,0-.12,0a1.47,1.47,0,0,0-1.61-1.48,2.88,2.88,0,0,0-2.83,2.67c-.36,2,.56,3.4,2.15,3.4.81,0,1.14-.19,1.3-1.2s.12-1.07-.8-1.07c-.07,0-.06-.16,0-.16a12.63,12.63,0,0,0,1.94,0s.06.14,0,.14c-.39,0-.44.11-.62,1.17a7.63,7.63,0,0,0-.09.88c0,.08,0,.09-.12.12a7.77,7.77,0,0,1-1.87.28A2.49,2.49,0,0,1,77.75,112.57Z" transform="translate(-9.84 -17.5)"/><path d="M84.3,113.53c-.19,1.1.17,1.92,1,1.92a1.64,1.64,0,0,0,1-.33s.11,0,.07.09a2.24,2.24,0,0,1-1.46.58c-1.05,0-1.42-.93-1.22-2A2.58,2.58,0,0,1,86,111.69c.49,0,.74.21.68.53C86.54,112.82,85.49,113.35,84.3,113.53Zm0-.14c.89-.15,1.54-.46,1.66-1s-.18-.47-.45-.47C84.89,112,84.48,112.6,84.33,113.39Z" transform="translate(-9.84 -17.5)"/><path d="M91.3,115c-.43.5-.77.78-1.12.78s-.42-.27-.29-1l.29-1.59c.15-.76,0-1.12-.37-1.12-.64,0-1.45,1.28-1.85,3.53,0,.09-.14.15-.33.15s-.23,0-.23-.06.09-.41.15-.76L88,112.7c.07-.39,0-.59-.17-.59a1.25,1.25,0,0,0-.69.46c0,.05-.12,0-.08-.08.45-.51.82-.76,1.17-.76s.4.25.28,1l-.21,1.21c.47-1.36,1.15-2.2,1.88-2.2.57,0,.76.38.59,1.31l-.33,1.78c-.07.4,0,.58.17.58s.38-.18.65-.46C91.26,114.85,91.35,114.93,91.3,115Z" transform="translate(-9.84 -17.5)"/><path d="M92.44,113.53c-.19,1.1.17,1.92,1,1.92a1.64,1.64,0,0,0,1-.33s.11,0,.07.09a2.24,2.24,0,0,1-1.46.58c-1.06,0-1.42-.93-1.23-2a2.59,2.59,0,0,1,2.28-2.13c.49,0,.74.21.68.53C94.68,112.82,93.63,113.35,92.44,113.53Zm0-.14c.89-.15,1.54-.46,1.66-1S94,112,93.68,112C93,112,92.62,112.6,92.47,113.39Z" transform="translate(-9.84 -17.5)"/><path d="M98.38,112.26a.33.33,0,0,1-.32.28c-.3,0-.31-.34-.51-.34-.47,0-1.26,2.22-1.49,3.4,0,.09-.13.15-.32.15s-.22,0-.22-.06.1-.45.15-.76l.33-1.85c.15-.79,0-1-.18-1a1.12,1.12,0,0,0-.61.37s-.11,0-.08-.08a1.6,1.6,0,0,1,1.08-.67c.36,0,.49.28.31,1.33l-.21,1.14c.4-1.25,1-2.47,1.53-2.47C98.1,111.73,98.44,112,98.38,112.26Z" transform="translate(-9.84 -17.5)"/><path d="M102.29,115c-.43.5-.78.78-1.12.78s-.41-.26-.28-1l.18-1c-.6,1.23-1.43,2.06-2.14,2.06-.44,0-.7-.29-.6-1,.21-1.44,1.57-3.07,2.63-3.07a.86.86,0,0,1,.66.27.66.66,0,0,0,.24-.36s.13,0,.12,0l-.58,3.16c-.07.39,0,.58.15.58s.39-.18.66-.46C102.25,114.86,102.33,114.94,102.29,115Zm-1.08-2.08c.1-.49-.1-.87-.59-.87-.7,0-1.53,1-1.72,2.28-.1.67,0,1,.39,1C100,115.31,101,114,101.21,112.9Z" transform="translate(-9.84 -17.5)"/><path d="M105.43,111.94c0,.1-.19.31-.32.31s-.6-.08-1.07-.1l-.44,2.48c-.1.54,0,.78.46.78a1.48,1.48,0,0,0,1-.44s.12,0,.08.08a2.25,2.25,0,0,1-1.43.74c-.39,0-.76-.19-.65-.85l.43-2.33c.09-.49,0-.55-.34-.55,0,0,0-.12,0-.12a1,1,0,0,0,.93-.76s.18,0,.17,0l-.13.74c.49,0,1.14-.08,1.27-.08S105.44,111.88,105.43,111.94Z" transform="translate(-9.84 -17.5)"/><path d="M106.33,113.53c-.19,1.1.17,1.92,1,1.92a1.64,1.64,0,0,0,1-.33s.11,0,.07.09a2.24,2.24,0,0,1-1.46.58c-1.06,0-1.43-.93-1.23-2a2.59,2.59,0,0,1,2.28-2.13c.49,0,.74.21.68.53C108.57,112.82,107.52,113.35,106.33,113.53Zm0-.14c.89-.15,1.54-.46,1.66-1s-.18-.47-.45-.47C106.92,112,106.51,112.6,106.36,113.39Z" transform="translate(-9.84 -17.5)"/><path d="M180.38,115.45c-.06,0-.07-.1-.06-.19l.14-1.32c0-.06.11-.06.11,0,0,.87.39,1.69,1.35,1.69a1.3,1.3,0,0,0,1.34-1.17c.17-.93-.45-1.38-1.08-1.81s-1.22-.86-1.06-1.78a2,2,0,0,1,2-1.55,2.69,2.69,0,0,1,1.08.24c.08,0,.13.1.12.17l-.13,1.11s-.11,0-.12,0c0-.65-.27-1.37-1.11-1.37a1.23,1.23,0,0,0-1.23,1.12c-.17.84.44,1.24,1.05,1.65s1.31.9,1.15,1.85a2.13,2.13,0,0,1-2.28,1.7A2.5,2.5,0,0,1,180.38,115.45Z" transform="translate(-9.84 -17.5)"/><path d="M188.75,115c-.43.5-.77.78-1.12.78s-.42-.27-.29-1l.29-1.59c.14-.76,0-1.12-.37-1.12-.63,0-1.43,1.24-1.82,3.43l0,.1c0,.09-.14.15-.33.15s-.23,0-.23-.06.09-.41.15-.76l1-5.44c.09-.48-.08-.61-.68-.32-.06,0-.1-.09-.06-.11l1.29-.63a.12.12,0,0,1,.13.08l-1,5.32c.47-1.33,1.14-2.14,1.85-2.14s.75.38.59,1.31l-.33,1.78c-.07.4,0,.58.16.58s.39-.18.66-.46C188.72,114.85,188.8,114.93,188.75,115Z" transform="translate(-9.84 -17.5)"/><path d="M193.08,115c-.43.5-.78.78-1.12.78s-.41-.26-.28-1l.18-1c-.6,1.23-1.42,2.06-2.13,2.06-.44,0-.7-.29-.6-1,.21-1.44,1.57-3.07,2.62-3.07a.86.86,0,0,1,.66.27.66.66,0,0,0,.24-.36s.13,0,.12,0l-.58,3.16c-.07.39,0,.58.15.58s.39-.18.66-.46C193,114.86,193.12,114.94,193.08,115ZM192,112.9c.1-.49-.1-.87-.58-.87-.71,0-1.53,1-1.72,2.28-.1.67,0,1,.38,1C190.83,115.31,191.77,114,192,112.9Z" transform="translate(-9.84 -17.5)"/><path d="M196.68,112.26a.33.33,0,0,1-.32.28c-.3,0-.31-.34-.51-.34-.47,0-1.26,2.22-1.48,3.4,0,.09-.13.15-.32.15s-.22,0-.22-.06.1-.45.15-.76l.33-1.85c.15-.79,0-1-.19-1a1.13,1.13,0,0,0-.6.37s-.11,0-.08-.08a1.6,1.6,0,0,1,1.08-.67c.36,0,.48.28.31,1.33l-.21,1.14c.39-1.25,1-2.47,1.52-2.47C196.4,111.73,196.74,112,196.68,112.26Z" transform="translate(-9.84 -17.5)"/><path d="M197.4,113.53c-.19,1.1.17,1.92,1,1.92a1.64,1.64,0,0,0,1-.33s.11,0,.07.09a2.24,2.24,0,0,1-1.46.58c-1.06,0-1.42-.93-1.23-2a2.59,2.59,0,0,1,2.28-2.13c.49,0,.74.21.68.53C199.63,112.82,198.58,113.35,197.4,113.53Zm0-.14c.89-.15,1.54-.46,1.66-1s-.18-.47-.45-.47C198,112,197.58,112.6,197.42,113.39Z" transform="translate(-9.84 -17.5)"/><path d="M18.53,63.87c-.48,0-1,0-1.5,0s-.89,0-1.38,0c-.07,0-.07-.14,0-.14.66,0,.75-.21.35-1l-.81-1.62h-3l-.46,1c-.43,1,.07,1.56,1,1.56.07,0,.07.14,0,.14-.48,0-.8,0-1.42,0s-.9,0-1.44,0c-.06,0-.06-.14,0-.14.65,0,.95-.33,1.56-1.68l2.61-5.72s.19-.06.21,0l3,5.9c.56,1.14.88,1.5,1.27,1.5C18.6,63.73,18.6,63.87,18.53,63.87ZM15,60.79l-1.38-2.73-1.24,2.73Z" transform="translate(-9.84 -17.5)"/><path d="M20.9,61c.59.33,1.26.66,1.26,1.48A1.62,1.62,0,0,1,20.37,64a2.45,2.45,0,0,1-1.25-.32s-.07-.07-.07-.14l0-1.19c0-.05.13-.06.14,0a1.93,1.93,0,0,0,1.54,1.43c.32,0,.55-.19.55-.61,0-.66-.52-1-1-1.23s-1.18-.59-1.18-1.43c0-1,.86-1.37,1.73-1.37a2.62,2.62,0,0,1,1,.18.17.17,0,0,1,.11.14c0,.32,0,.64,0,1.06,0,0-.14,0-.14,0a1.45,1.45,0,0,0-1.32-1.15c-.23,0-.49.07-.49.47S20.4,60.65,20.9,61Z" transform="translate(-9.84 -17.5)"/><path d="M24.87,61c.59.33,1.26.66,1.26,1.48A1.62,1.62,0,0,1,24.34,64a2.41,2.41,0,0,1-1.24-.32s-.08-.07-.08-.14l0-1.19c0-.05.13-.06.14,0a2,2,0,0,0,1.54,1.43c.32,0,.55-.19.55-.61,0-.66-.52-1-1-1.23s-1.19-.59-1.19-1.43c0-1,.86-1.37,1.74-1.37a2.6,2.6,0,0,1,1,.18.17.17,0,0,1,.11.14c0,.32,0,.64,0,1.06,0,0-.15,0-.15,0a1.44,1.44,0,0,0-1.32-1.15.43.43,0,0,0-.49.47C23.91,60.33,24.37,60.65,24.87,61Z" transform="translate(-9.84 -17.5)"/><path d="M31.6,63.36l-1.23.58a.24.24,0,0,1-.12,0c-.24,0-.52-.27-.62-.76l-.51.36a1.57,1.57,0,0,1-1.06.39c-.71,0-1-.34-1-.87,0-.79.74-.92,1.5-1.2l1.08-.39v-.69c0-1-.15-1.46-.55-1.46-.6,0-.7.68-.72,1,0,.5-.3.68-.7.68s-.57-.21-.57-.46c0-.78,1.6-1.43,2.48-1.43.66,0,1.19.4,1.19,1.33v2.13c0,.46.18.73.48.73a1,1,0,0,0,.34-.08C31.61,63.2,31.67,63.32,31.6,63.36Zm-2-.35a.81.81,0,0,1,0-.16V61.7l-.52.24c-.2.09-.74.23-.74.77a.59.59,0,0,0,.61.61.66.66,0,0,0,.4-.13Z" transform="translate(-9.84 -17.5)"/><path d="M35.55,63.15A2.42,2.42,0,0,1,33.8,64c-.59,0-1.27-.23-1.27-1.11V60.25c0-.5-.16-.66-.61-.66-.06,0-.06-.21,0-.21a1.58,1.58,0,0,0,1.57-1c0-.06.18-.06.18,0v1c.5,0,1-.05,1.56-.11,0,0,.08.15.08.29s-.07.36-.13.33a9.86,9.86,0,0,0-1.51-.18v2.85a.78.78,0,0,0,.85.88,1.47,1.47,0,0,0,.93-.36S35.61,63.1,35.55,63.15Z" transform="translate(-9.84 -17.5)"/><path d="M40.68,63.36l-1.23.58a.19.19,0,0,1-.12,0c-.24,0-.52-.27-.61-.76l-.52.36a1.56,1.56,0,0,1-1.05.39c-.71,0-1-.34-1-.87,0-.79.75-.92,1.5-1.2l1.08-.39v-.69c0-1-.14-1.46-.55-1.46-.6,0-.7.68-.72,1,0,.5-.3.68-.7.68s-.57-.21-.57-.46c0-.78,1.61-1.43,2.48-1.43.66,0,1.19.4,1.19,1.33v2.13c0,.46.18.73.48.73a1,1,0,0,0,.35-.08C40.7,63.2,40.76,63.32,40.68,63.36Zm-2-.35a.81.81,0,0,1,0-.16V61.7l-.51.24c-.21.09-.75.23-.75.77a.6.6,0,0,0,.61.61.66.66,0,0,0,.4-.13Z" transform="translate(-9.84 -17.5)"/><path d="M41.2,59.9a.67.67,0,0,1,.73-.69.64.64,0,0,1,.71.69.65.65,0,0,1-.71.73A.68.68,0,0,1,41.2,59.9Zm0,3.37a.67.67,0,0,1,.73-.69.64.64,0,0,1,.71.69.65.65,0,0,1-.71.73A.68.68,0,0,1,41.2,63.27Z" transform="translate(-9.84 -17.5)"/><path d="M18.53,289.06c-.48,0-1-.05-1.5-.05s-.89.05-1.38.05c-.07,0-.07-.15,0-.15.66,0,.75-.2.35-1l-.81-1.62h-3l-.46,1c-.43,1,.07,1.56,1,1.56.07,0,.07.15,0,.15-.48,0-.8-.05-1.42-.05s-.9.05-1.44.05c-.06,0-.06-.15,0-.15.65,0,.95-.32,1.56-1.68l2.61-5.72c0-.05.19-.06.21,0l3,5.9c.56,1.14.88,1.5,1.27,1.5C18.6,288.91,18.6,289.06,18.53,289.06ZM15,286l-1.38-2.73L12.39,286Z" transform="translate(-9.84 -17.5)"/><path d="M20.9,286.13c.59.33,1.26.66,1.26,1.49a1.62,1.62,0,0,1-1.79,1.57,2.37,2.37,0,0,1-1.25-.33.19.19,0,0,1-.07-.14l0-1.19s.13-.06.14,0A1.93,1.93,0,0,0,20.71,289c.32,0,.55-.19.55-.61,0-.66-.52-1-1-1.24s-1.18-.59-1.18-1.43c0-1,.86-1.36,1.73-1.36a2.44,2.44,0,0,1,1,.18.15.15,0,0,1,.11.13c0,.32,0,.65,0,1.07,0,0-.14,0-.14,0a1.45,1.45,0,0,0-1.32-1.16.43.43,0,0,0-.49.47C19.94,285.52,20.4,285.83,20.9,286.13Z" transform="translate(-9.84 -17.5)"/><path d="M24.87,286.13c.59.33,1.26.66,1.26,1.49a1.62,1.62,0,0,1-1.79,1.57,2.34,2.34,0,0,1-1.24-.33.17.17,0,0,1-.08-.14l0-1.19s.13-.06.14,0c.26.78.92,1.44,1.54,1.44.32,0,.55-.19.55-.61,0-.66-.52-1-1-1.24s-1.19-.59-1.19-1.43c0-1,.86-1.36,1.74-1.36a2.42,2.42,0,0,1,1,.18.15.15,0,0,1,.11.13c0,.32,0,.65,0,1.07,0,0-.15,0-.15,0a1.44,1.44,0,0,0-1.32-1.16.43.43,0,0,0-.49.47C23.91,285.52,24.37,285.83,24.87,286.13Z" transform="translate(-9.84 -17.5)"/><path d="M31.6,288.54l-1.23.59-.12,0c-.24,0-.52-.26-.62-.75l-.51.36a1.61,1.61,0,0,1-1.06.38c-.71,0-1-.34-1-.86,0-.8.74-.93,1.5-1.2l1.08-.4V286c0-1-.15-1.47-.55-1.47-.6,0-.7.69-.72,1,0,.49-.3.67-.7.67s-.57-.2-.57-.46c0-.78,1.6-1.42,2.48-1.42.66,0,1.19.39,1.19,1.33v2.12c0,.47.18.73.48.73a.79.79,0,0,0,.34-.08C31.61,288.38,31.67,288.5,31.6,288.54Zm-2-.35a.71.71,0,0,1,0-.15v-1.16l-.52.24c-.2.09-.74.23-.74.77a.59.59,0,0,0,.61.61.66.66,0,0,0,.4-.13Z" transform="translate(-9.84 -17.5)"/><path d="M35.55,288.34a2.44,2.44,0,0,1-1.75.86c-.59,0-1.27-.23-1.27-1.1v-2.67c0-.5-.16-.66-.61-.66-.06,0-.06-.21,0-.21a1.58,1.58,0,0,0,1.57-1c0-.06.18-.06.18,0v1c.5,0,1,0,1.56-.11,0,0,.08.15.08.29s-.07.36-.13.34a7.87,7.87,0,0,0-1.51-.18v2.84a.79.79,0,0,0,.85.89,1.53,1.53,0,0,0,.93-.36C35.5,288.18,35.61,288.29,35.55,288.34Z" transform="translate(-9.84 -17.5)"/><path d="M40.68,288.54l-1.23.59-.12,0c-.24,0-.52-.26-.61-.75l-.52.36a1.6,1.6,0,0,1-1.05.38c-.71,0-1-.34-1-.86,0-.8.75-.93,1.5-1.2l1.08-.4V286c0-1-.14-1.47-.55-1.47-.6,0-.7.69-.72,1,0,.49-.3.67-.7.67s-.57-.2-.57-.46c0-.78,1.61-1.42,2.48-1.42.66,0,1.19.39,1.19,1.33v2.12c0,.47.18.73.48.73a.83.83,0,0,0,.35-.08C40.7,288.38,40.76,288.5,40.68,288.54Zm-2-.35a.71.71,0,0,1,0-.15v-1.16l-.51.24c-.21.09-.75.23-.75.77a.6.6,0,0,0,.61.61.66.66,0,0,0,.4-.13Z" transform="translate(-9.84 -17.5)"/><path d="M41.2,285.09a.67.67,0,0,1,.73-.7.65.65,0,0,1,.71.7.66.66,0,0,1-.71.73A.68.68,0,0,1,41.2,285.09Zm0,3.37a.67.67,0,0,1,.73-.7.65.65,0,0,1,.71.7.66.66,0,0,1-.71.73A.68.68,0,0,1,41.2,288.46Z" transform="translate(-9.84 -17.5)"/><path d="M17.73,179.85c0,1.26-1.19,2.22-2.77,2.22-.43,0-1.19-.07-1.73-.07l-1.52,0c-.05,0-.05-.14,0-.14.67,0,.86-.13.86-.83V175.5c0-.68-.18-.83-.85-.83,0,0,0-.14,0-.14.42,0,.94,0,1.51,0s1-.07,1.48-.07c1.44,0,2.29.53,2.29,1.55a1.94,1.94,0,0,1-1.47,1.77C16.88,178,17.73,178.77,17.73,179.85Zm-3.81-4.33v2.28h.47c.87,0,1.3-.74,1.3-1.66s-.42-1.39-1.16-1.39C14.06,174.76,13.92,174.94,13.92,175.52Zm2.41,4.62c0-1.17-.54-2-1.79-2-.12,0-.35,0-.62,0v2.89c0,.48.09.72.83.72C15.86,181.77,16.33,181.18,16.33,180.14Z" transform="translate(-9.84 -17.5)"/><path d="M18.74,179.65a2.48,2.48,0,0,1,2.66-2.41,2.41,2.41,0,0,1,2.44,2.48,2.51,2.51,0,0,1-2.64,2.46A2.42,2.42,0,0,1,18.74,179.65Zm3.78.49c0-1.75-.76-2.65-1.53-2.65-.62,0-.95.55-.95,1.72,0,1.64.67,2.72,1.52,2.72C22.19,181.93,22.52,181.28,22.52,180.14Z" transform="translate(-9.84 -17.5)"/><path d="M30,179.47a2.54,2.54,0,0,1-2.59,2.71,2.81,2.81,0,0,1-1.69-.56l-1.09.49c-.08,0-.11-.09-.05-.11a1.26,1.26,0,0,0,.59-1.21V175c0-.54-.09-.78-.36-.78a1.26,1.26,0,0,0-.45.13c-.06,0-.12-.13-.08-.14l1.75-.83h.06c.08,0,.19.09.19.15V178a2.44,2.44,0,0,1,1.73-.8A2,2,0,0,1,30,179.47Zm-1.24.47c0-1.44-.52-2.07-1.32-2.07a2.12,2.12,0,0,0-1.16.41V180c0,1.43.88,1.9,1.42,1.9C28.42,181.94,28.79,181.2,28.79,179.94Z" transform="translate(-9.84 -17.5)"/><path d="M36.22,179.47a2.54,2.54,0,0,1-2.59,2.71,2.81,2.81,0,0,1-1.69-.56l-1.09.49c-.07,0-.11-.09-.05-.11a1.26,1.26,0,0,0,.59-1.21V175c0-.54-.09-.78-.36-.78a1.26,1.26,0,0,0-.45.13c-.06,0-.12-.13-.08-.14l1.75-.83h.06c.09,0,.19.09.19.15V178a2.46,2.46,0,0,1,1.73-.8A2,2,0,0,1,36.22,179.47Zm-1.23.47c0-1.44-.53-2.07-1.32-2.07a2.15,2.15,0,0,0-1.17.41V180c0,1.43.88,1.9,1.42,1.9S35,181.2,35,179.94Z" transform="translate(-9.84 -17.5)"/><path d="M41.9,177.54c-.54,0-.89.5-1.18,1.28l-1.33,3.54c-.88,2.31-1.59,3-2.51,3-.46,0-.74-.2-.74-.58a.54.54,0,0,1,.58-.57c.4,0,.48.31.87.31s.89-.56,1.54-2.29l-1.92-3.87c-.35-.7-.49-.85-.78-.85,0,0,0-.15,0-.15l1,0c.57,0,1,0,1.34,0,.05,0,.05.15,0,.15-.56,0-.71.11-.53.47l1.42,2.89.72-2.09c.26-.78,0-1.27-.64-1.27,0,0,0-.15,0-.15.39,0,.66,0,1.21,0,.39,0,.58,0,.93,0C41.93,177.39,41.93,177.54,41.9,177.54Z" transform="translate(-9.84 -17.5)"/><path d="M42.26,178.05a.67.67,0,0,1,.73-.69.64.64,0,0,1,.71.69.66.66,0,0,1-.71.74A.69.69,0,0,1,42.26,178.05Zm0,3.37a.67.67,0,0,1,.73-.69.64.64,0,0,1,.71.69.66.66,0,0,1-.71.74A.69.69,0,0,1,42.26,181.42Z" transform="translate(-9.84 -17.5)"/></svg>