<?xml version="1.0" encoding="utf-8"?>
<!-- Generator: Adobe Illustrator 22.1.0, SVG Export Plug-In . SVG Version: 6.00 Build 0)  -->
<svg version="1.1" id="Layer_1" xmlns="http://www.w3.org/2000/svg" xmlns:xlink="http://www.w3.org/1999/xlink" x="0px" y="0px"
	 viewBox="0 0 720 720" style="enable-background:new 0 0 720 720;" xml:space="preserve">
<style type="text/css">
	.st0{fill:#FAFAFA;}
	.st1{enable-background:new    ;}
	.st2{fill:#AA0A3C;stroke:#5C0015;stroke-width:0.2985;stroke-miterlimit:10;}
	.st3{fill:#005AC8;stroke:#153267;stroke-width:0.2985;stroke-miterlimit:10;}
	.st4{fill:#0AB45A;stroke:#006B33;stroke-width:0.2985;stroke-miterlimit:10;}
	.st5{fill:none;stroke:#000000;stroke-miterlimit:10;}
	.st6{fill:none;stroke:#000000;stroke-miterlimit:10;stroke-dasharray:4;}
	.st7{fill:none;stroke:#000000;stroke-miterlimit:10;stroke-dasharray:4.1892;}
	.st8{fill:none;stroke:#000000;stroke-miterlimit:10;stroke-dasharray:6,6;}
	.st9{fill:none;stroke:#AA0A3C;stroke-miterlimit:10;}
	.st10{fill:#AA0A3C;stroke:#5C0015;stroke-width:0.2387;stroke-miterlimit:10;}
	.st11{fill:#590000;stroke:#330000;stroke-width:0.2387;stroke-miterlimit:10;}
	.st12{fill:#005AC8;stroke:#153267;stroke-width:0.2387;stroke-miterlimit:10;}
	.st13{fill:#03003E;stroke:#00001E;stroke-width:0.2387;stroke-miterlimit:10;}
	.st14{fill:#0AB45A;stroke:#006B33;stroke-width:0.239;stroke-miterlimit:10;}
	.st15{fill:#003D11;stroke:#002300;stroke-width:0.2387;stroke-miterlimit:10;}
	.st16{fill:none;stroke:#000000;stroke-miterlimit:10;stroke-dasharray:6;}
	.st17{fill:none;stroke:#005AC8;stroke-miterlimit:10;}
	.st18{fill:none;stroke:#0AB45A;stroke-miterlimit:10;}
	.st19{fill:none;stroke:#000000;stroke-miterlimit:10;stroke-dasharray:4.0382;}
	.st20{fill:#F2F2F2;stroke:#333333;stroke-width:1.25;stroke-miterlimit:10;}
	.st21{fill:none;stroke:#4D4D4D;stroke-miterlimit:10;}
	.st22{fill:#FFFFFF;stroke:#000000;stroke-width:0.6313;stroke-linejoin:round;stroke-miterlimit:10;}
	.st23{fill:#FFFFFF;stroke:#000000;stroke-width:0.5;stroke-linejoin:round;stroke-miterlimit:10;}
	.st24{fill:none;stroke:#000000;stroke-width:2;stroke-linejoin:round;}
	.st25{fill:none;stroke:#000000;stroke-width:2;stroke-linejoin:round;stroke-miterlimit:10;stroke-dasharray:4;}
	.st26{fill:none;stroke:#000000;stroke-width:1.2;stroke-linejoin:round;stroke-miterlimit:10;}
	.st27{fill:none;stroke:#000000;stroke-width:1.1045;stroke-linejoin:round;stroke-miterlimit:10;}
</style>
<rect x="127.4" class="st0" width="157.9" height="720"/>
<rect x="438.2" class="st0" width="157.9" height="720"/>
<g>
	<g>
		<g>
			<path d="M184.8,43.2h6.1V45h-4v1.8h3.4v1.7h-3.4v2.1h4.1v1.7h-6.2L184.8,43.2L184.8,43.2z"/>
			<path d="M193,45.4h1.7l0.2,0.9h0.1c0.6-0.6,1.4-1.1,2.4-1.1c1.6,0,2.3,1.1,2.3,2.8v4.3h-2.1v-4c0-0.9-0.3-1.3-1-1.3
				c-0.6,0-0.9,0.3-1.4,0.7v4.6H193V45.4z"/>
			<path d="M202.8,49.5V47H201v-1.5l1.8-0.1l0.3-2.1h1.7v2.1h2.9V47h-2.9v2.4c0,1.1,0.4,1.5,1.5,1.5c0.5,0,1-0.1,1.4-0.3l0.4,1.5
				c-0.6,0.2-1.3,0.4-2.3,0.4C203.6,52.5,202.8,51.3,202.8,49.5z"/>
			<path d="M210.4,45.4h1.7l0.2,1.5l0,0c0.7-1.1,1.7-1.7,2.8-1.7c0.6,0,0.9,0.1,1.3,0.3l-0.4,1.7c-0.4-0.1-0.7-0.2-1.2-0.2
				c-0.9,0-1.8,0.4-2.3,1.7v3.6h-2.1V45.4z"/>
			<path d="M218.1,55l0.4-1.6c0.2,0.1,0.4,0.1,0.5,0.1c0.8,0,1.2-0.4,1.5-0.9l0.1-0.4l-3-6.8h2l1.2,3c0.3,0.7,0.5,1.4,0.7,2.1h0.1
				c0.2-0.7,0.4-1.4,0.6-2.1l1-3h1.9l-2.7,7c-0.7,1.8-1.5,2.6-3.2,2.6C218.7,55.1,218.4,55,218.1,55z"/>
		</g>
	</g>
	<g>
		<g>
			<g>
				<path d="M339.1,43.2h3.2c1.9,0,3.5,0.7,3.5,2.8c0,1.3-0.7,2.2-1.6,2.6l2.1,3.7H344l-1.8-3.3h-1.1v3.3H339v-9.1H339.1z
					 M342.2,47.4c1.1,0,1.7-0.5,1.7-1.4s-0.6-1.2-1.7-1.2h-1v2.6C341.2,47.4,342.2,47.4,342.2,47.4z"/>
				<path d="M347.3,48.9c0-2.3,1.8-3.6,3.6-3.6c2.1,0,3.3,1.4,3.3,3.3c0,0.4-0.1,0.8-0.1,0.9h-4.7c0.2,1,0.9,1.5,2.1,1.5
					c0.6,0,1.2-0.2,1.8-0.5l0.7,1.2c-0.8,0.5-1.8,0.8-2.8,0.8C349,52.5,347.3,51.2,347.3,48.9z M349.4,48.1h3
					c-0.1-0.9-0.6-1.3-1.4-1.3S349.6,47.3,349.4,48.1z"/>
				<path d="M357.8,49.7v-5.5h-2v-1.6h4.1v7.2c0,0.9,0.5,1.1,1.1,1.1c0.3,0,0.7-0.1,1.1-0.2l0.5,1.5c-0.7,0.2-1.2,0.4-2.1,0.4
					C358.7,52.5,357.8,51.4,357.8,49.7z"/>
				<path d="M364.2,50.4c0-1.6,1.3-2.3,4.6-2.5c-0.1-0.6-0.5-1-1.5-1c-0.7,0-1.3,0.3-2.1,0.6l-0.7-1.3c1-0.5,2.1-0.9,3.2-0.9
					c1.9,0,3.1,1,3.1,3.1v4h-1.7l-0.2-0.8h-0.1c-0.7,0.5-1.6,1-2.5,1C365.1,52.5,364.2,51.6,364.2,50.4z M368.8,50.3v-1.1
					c-2,0.1-2.6,0.5-2.6,1.1c0,0.4,0.4,0.7,1,0.7C367.7,50.9,368.3,50.7,368.8,50.3z"/>
				<path d="M372.7,55l0.4-1.6c0.2,0.1,0.4,0.1,0.5,0.1c0.8,0,1.2-0.4,1.5-0.9l0.1-0.4l-3-6.8h2l1.2,3c0.3,0.7,0.5,1.4,0.7,2.1h0.1
					c0.2-0.7,0.4-1.4,0.6-2.1l1-3h1.9l-2.7,7c-0.7,1.8-1.5,2.6-3.2,2.6C373.3,55.1,373,55,372.7,55z"/>
			</g>
		</g>
	</g>
	<g>
		<g>
			<path d="M502.2,43.2h6.1V45h-4v1.8h3.4v1.7h-3.4v2.1h4.1v1.7h-6.2V43.2z"/>
			<path d="M512.2,48.8l-2.3-3.3h2.2l0.7,1.1c0.2,0.4,0.5,0.8,0.7,1.2h0.1c0.2-0.4,0.4-0.8,0.6-1.2l0.6-1.1h2.2l-2.3,3.6l2.4,3.4
				H515l-0.8-1.1c-0.3-0.4-0.5-0.8-0.8-1.2h-0.1c-0.2,0.4-0.4,0.8-0.6,1.2l-0.7,1.1h-2.2L512.2,48.8z"/>
			<path d="M521.6,47h-2.8v-1.6h4.8v6.9h-2.1L521.6,47L521.6,47z M521.2,43.1c0-0.8,0.6-1.3,1.4-1.3c0.8,0,1.4,0.5,1.4,1.3
				s-0.6,1.2-1.4,1.2C521.7,44.3,521.2,43.8,521.2,43.1z"/>
			<path d="M528.6,49.5V47h-1.8v-1.5l1.8-0.1l0.3-2.1h1.7v2.1h2.9V47h-2.9v2.4c0,1.1,0.4,1.5,1.5,1.5c0.5,0,1-0.1,1.4-0.3l0.4,1.5
				c-0.6,0.2-1.3,0.4-2.3,0.4C529.3,52.5,528.6,51.3,528.6,49.5z"/>
		</g>
	</g>
	<g>
		<g class="st1">
			<path d="M34,49.2c-0.3,0-0.4,0-0.5,0.3L33,51.1c-0.1,0.3-0.1,0.4-0.1,0.5c0,0.1,0.2,0.2,0.6,0.2l0.4,0.1c0.1,0.1,0.1,0.4,0,0.5
				c-0.5,0-1,0-1.6,0c-0.5,0-0.8,0-1.4,0c-0.2-0.1-0.1-0.4,0-0.5l0.4,0c0.3,0,0.6-0.2,0.9-0.7c0.2-0.6,0.5-1.2,0.9-2.2l1.3-3.4
				c0.3-0.9,0.6-1.4,0.5-1.8c0.7-0.2,1.2-0.8,1.2-0.8c0.2,0,0.3,0.1,0.3,0.3c0.1,0.4,0.3,0.9,0.6,1.9l1.9,5.5
				c0.3,0.8,0.4,1.2,0.9,1.2l0.5,0.1c0.1,0.1,0.1,0.4,0,0.5c-0.7,0-1.4,0-2.2,0c-0.7,0-1.2,0-1.9,0c-0.2-0.1-0.2-0.4,0-0.5l0.4-0.1
				c0.3-0.1,0.4-0.2,0.4-0.2c0-0.1-0.1-0.4-0.3-1l-0.4-1.2c-0.1-0.2-0.2-0.3-0.7-0.3H34z M35.6,48.5c0.3,0,0.4,0,0.3-0.4l-0.4-1.1
				c-0.2-0.6-0.4-1.4-0.6-1.7c-0.1,0.3-0.4,1.1-0.6,1.7L34,48c-0.1,0.4-0.1,0.4,0.3,0.4H35.6z"/>
			<path d="M40.5,52.1c-0.2-0.3-0.3-1-0.2-1.6c0.1-0.1,0.4-0.2,0.5,0c0.2,0.6,0.7,1.4,1.4,1.4c0.4,0,0.7-0.3,0.7-0.7
				c0-0.5-0.4-0.8-0.9-1.1c-0.8-0.4-1.4-0.9-1.4-1.8c0-1.2,1-1.8,2.2-1.8c0.7,0,1.3,0.2,1.5,0.3c0.1,0.3,0.2,0.9,0.2,1.4
				c-0.1,0.2-0.4,0.2-0.5,0.1c-0.3-0.8-0.6-1.1-1.1-1.1c-0.4,0-0.7,0.2-0.7,0.6c0,0.3,0.3,0.6,0.9,0.9c1,0.5,1.5,1,1.5,2
				c0,1.2-1.1,1.9-2.4,1.9C41.4,52.6,40.9,52.4,40.5,52.1z"/>
			<path d="M45.5,52.1c-0.2-0.3-0.3-1-0.2-1.6c0.1-0.1,0.4-0.2,0.5,0c0.2,0.6,0.7,1.4,1.4,1.4c0.4,0,0.7-0.3,0.7-0.7
				c0-0.5-0.4-0.8-0.9-1.1c-0.8-0.4-1.4-0.9-1.4-1.8c0-1.2,1-1.8,2.2-1.8c0.7,0,1.3,0.2,1.5,0.3c0.1,0.3,0.2,0.9,0.2,1.4
				c-0.1,0.2-0.4,0.2-0.5,0.1c-0.3-0.8-0.6-1.1-1.1-1.1c-0.4,0-0.7,0.2-0.7,0.6c0,0.3,0.3,0.6,0.9,0.9c1,0.5,1.5,1,1.5,2
				c0,1.2-1.1,1.9-2.4,1.9C46.4,52.6,45.9,52.4,45.5,52.1z"/>
			<path d="M55.1,50.5c-0.1,1,0.4,1.2,0.6,1.2c0.2,0,0.3,0,0.5-0.2c0.1,0,0.2,0.2,0.2,0.3c-0.2,0.2-0.8,0.8-1.6,0.8
				c-0.5,0-0.8-0.2-1.2-0.5C53.6,52,53.5,52,53.4,52c-0.1,0-0.2,0.1-0.3,0.2c-0.3,0.2-0.7,0.4-1.2,0.4c-0.8,0-1.6-0.5-1.6-1.5
				c0-0.7,0.4-1.1,1.5-1.5c0.5-0.2,0.9-0.3,1.3-0.4c0.3-0.1,0.3-0.2,0.3-0.3c0-0.2,0-0.3,0-0.5c0-0.5-0.2-1.2-0.8-1.2
				c-0.3,0-0.6,0.2-0.7,0.8c0,0.2-0.1,0.3-0.2,0.4c-0.2,0.2-0.8,0.3-1,0.3c-0.2,0-0.3-0.2-0.3-0.4c0-0.4,0.3-0.8,0.7-1.1
				c0.5-0.4,1.4-0.9,2.4-0.9c1.2,0,1.9,0.6,1.8,2L55.1,50.5z M53.5,50.1c0-0.2,0-0.3-0.1-0.3c-0.6,0.1-1.2,0.3-1.2,1
				c0,0.4,0.3,0.8,0.7,0.8c0.4,0,0.5-0.3,0.5-0.7L53.5,50.1z"/>
			<path d="M59.2,47.5c-0.2,0-0.2,0-0.2,0.3V50c0,0.8,0,1.7,1,1.7c0.2,0,0.4-0.1,0.6-0.2c0.1,0,0.2,0.2,0.2,0.4
				c-0.4,0.4-1.1,0.8-2,0.8c-1.2,0-1.6-0.7-1.6-1.6v-3.1c0-0.3,0-0.3-0.3-0.3h-0.4c-0.2-0.1-0.2-0.3-0.1-0.4
				c0.4-0.2,0.8-0.4,1.2-0.6c0.3-0.2,0.6-0.5,1-1.1c0.1-0.1,0.4,0,0.4,0.1v1.1c0,0.3,0,0.3,0.3,0.3h1.2c0.1,0.1,0.1,0.1,0.1,0.3
				c0,0.2,0,0.4-0.2,0.5H59.2z"/>
			<path d="M65.9,50.5c-0.1,1,0.3,1.2,0.6,1.2c0.2,0,0.3,0,0.5-0.2c0.1,0,0.2,0.2,0.2,0.3c-0.2,0.2-0.8,0.8-1.6,0.8
				c-0.5,0-0.8-0.2-1.2-0.5C64.3,52,64.2,52,64.2,52S64,52,63.9,52.1c-0.3,0.2-0.7,0.4-1.2,0.4c-0.8,0-1.6-0.5-1.6-1.5
				c0-0.7,0.4-1.1,1.5-1.5c0.5-0.2,0.9-0.3,1.3-0.4c0.3-0.1,0.3-0.2,0.3-0.3c0-0.2,0-0.3,0-0.5c0-0.5-0.2-1.2-0.8-1.2
				c-0.3,0-0.6,0.2-0.7,0.8c0,0.2-0.1,0.3-0.2,0.4c-0.2,0.2-0.8,0.3-1,0.3c-0.2,0-0.3-0.2-0.3-0.4c0-0.4,0.3-0.8,0.7-1.1
				c0.5-0.4,1.4-0.9,2.4-0.9c1.2,0,1.9,0.6,1.8,2L65.9,50.5z M64.2,50.1c0-0.2,0-0.3-0.1-0.3c-0.6,0.1-1.2,0.3-1.2,1
				c0,0.4,0.3,0.8,0.7,0.8c0.4,0,0.5-0.3,0.5-0.7L64.2,50.1z"/>
		</g>
	</g>
	<g class="st1">
		<path d="M671.4,43.7c-0.3,0.1-0.5,0.2-0.6,0.3c-0.2,0.2-0.4,0.7-0.8,1.6c-0.7,1.6-2.2,5.1-2.9,6.9c-0.1,0.1-0.3,0.1-0.5,0.1
			c-0.2,0-0.3,0-0.4-0.1c-0.2-0.3-0.4-0.8-0.5-1.2l-0.6-1.3c-0.2-0.4-0.4-0.9-0.5-1.1c-0.1,0.2-0.3,0.6-0.5,1l-0.6,1.4
			c-0.2,0.4-0.4,0.9-0.6,1.3c-0.1,0.1-0.3,0.1-0.5,0.1c-0.2,0-0.3,0-0.4-0.1c-0.2-0.6-0.8-1.8-1.3-2.9l-2.3-4.9
			c-0.4-0.8-0.5-0.9-0.9-1l-0.3-0.1c-0.1-0.1-0.1-0.4,0.1-0.5c0.5,0,1.1,0,1.8,0c0.6,0,1.2,0,1.7,0c0.1,0.1,0.2,0.4,0,0.5l-0.3,0
			c-0.3,0-0.4,0.1-0.4,0.2c0,0.1,0.3,0.8,0.7,1.7l1.4,3.1c0.4,0.9,0.6,1.3,0.8,1.6c0.2-0.3,0.5-0.9,0.7-1.4l0.2-0.4
			c0.1-0.2,0.1-0.4,0.1-0.5s-0.1-0.4-0.2-0.5l-1.3-3c-0.3-0.7-0.4-0.8-1-0.9l-0.1,0c-0.1-0.1-0.1-0.4,0-0.5c0.6,0,1.1,0,1.8,0
			c0.7,0,1.2,0,1.6,0c0.2,0,0.2,0.4,0.1,0.5l-0.2,0.1c-0.2,0-0.4,0.1-0.4,0.2c0,0.1,0.1,0.3,0.1,0.4l0.4,1c0.1,0.3,0.3,0.7,0.4,0.9
			l0.4-1l0.1-0.3c0.2-0.5,0.4-1,0.4-1c0-0.1-0.1-0.1-0.3-0.2l-0.5-0.1c-0.1-0.1-0.1-0.4,0-0.5c0.4,0,0.9,0,1.4,0c0.5,0,1.1,0,1.4,0
			c0.1,0.1,0.1,0.4,0,0.5l-0.4,0.1c-0.5,0.1-0.6,0.1-1.1,0.9c-0.3,0.6-0.7,1.3-0.9,1.6c-0.1,0.3-0.3,0.7-0.3,0.7c0,0,0,0.1,0.1,0.3
			l0.7,1.4c0.4,0.8,0.6,1.2,0.6,1.4c0.7-1.6,1.4-3.4,2.1-5.1c0.1-0.2,0.4-1,0.4-1.1c0-0.1-0.2-0.2-0.4-0.3l-0.3-0.1
			c-0.1-0.1-0.1-0.4,0-0.5c0.4,0,1,0,1.4,0c0.5,0,0.9,0,1.3,0c0.1,0.1,0.1,0.4,0,0.5L671.4,43.7z"/>
		<path d="M672.3,49.1c-0.3,0-0.3,0-0.3,0.3c0,1,0.7,2.1,2,2.1c0.4,0,0.9-0.1,1.3-0.7c0.2,0,0.4,0.1,0.4,0.3
			c-0.6,1.2-1.6,1.6-2.5,1.6c-1.9,0-2.9-1.3-2.9-2.9c0-1.8,1.3-3.1,3-3.1c1.5,0,2.2,0.9,2.2,2c0,0.3-0.1,0.5-0.5,0.5H672.3z
			 M673.3,48.4c0.2,0,0.4,0,0.6-0.1c0.1,0,0.1-0.2,0.1-0.3c0-0.5-0.3-0.8-0.7-0.8c-0.6,0-1.1,0.6-1.1,1c0,0.2,0.2,0.2,0.6,0.2H673.3
			z"/>
		<path d="M678.4,46.6c0,0.2,0.1,0.3,0.2,0.3c0.4-0.2,0.9-0.4,1.5-0.4c1.6,0,2.6,1.2,2.6,2.8c0,2-1.4,3.2-3.4,3.2
			c-0.6,0-1.2-0.1-1.5-0.3c-0.2-0.1-0.3-0.1-0.4-0.1c-0.1,0-0.4,0.1-0.5,0.2c-0.1,0-0.2,0-0.3-0.1c0-0.2,0-0.7,0-1.4v-6.3
			c0-0.6,0-0.7-0.3-0.9l-0.2-0.1c-0.1-0.1-0.1-0.3,0-0.4c0.6-0.1,1.4-0.5,2.2-0.8c0.1,0,0.2,0,0.2,0.1c0,0.6-0.1,1.2-0.1,2V46.6z
			 M678.4,50.4c0,0.4,0.1,0.7,0.3,1c0.2,0.3,0.5,0.5,0.8,0.5c0.9,0,1.2-1,1.2-2.1c0-1.4-0.7-2.4-1.7-2.4c-0.3,0-0.4,0.1-0.6,0.2
			c-0.1,0.1-0.1,0.3-0.1,0.6V50.4z"/>
	</g>
</g>
<g>
	<polygon class="st2" points="53,119.6 51,119.6 51,118.6 53,118.6 53,115.7 48.9,115.7 48.9,122.5 53,122.5 	"/>
	<rect x="48" y="95.6" class="st2" width="1.9" height="26.9"/>
	<path class="st2" d="M47.6,95.9L47.6,95.9c0-0.1,0.1-0.3,0.3-0.3H50c0.1,0,0.3,0.1,0.3,0.3l0,0c0,0.1-0.1,0.3-0.3,0.3h-2.2
		C47.7,96.2,47.6,96.1,47.6,95.9z"/>
	<path class="st2" d="M47.6,96.5L47.6,96.5c0-0.1,0.1-0.3,0.3-0.3H50c0.1,0,0.3,0.1,0.3,0.3l0,0c0,0.1-0.1,0.3-0.3,0.3h-2.2
		C47.7,96.7,47.6,96.6,47.6,96.5z"/>
	<path class="st2" d="M47.6,115.5L47.6,115.5c0-0.1,0.1-0.3,0.3-0.3H50c0.1,0,0.3,0.1,0.3,0.3l0,0c0,0.1-0.1,0.3-0.3,0.3h-2.2
		C47.7,115.7,47.6,115.6,47.6,115.5z"/>
	<path class="st2" d="M54.3,91.6L54.3,91.6c0-2.2-1.8-4-4-4H50c0-0.6-0.5-1.1-1.1-1.1s-1.1,0.5-1.1,1.1h-0.3c-2.2,0-4,1.8-4,4l0,0
		c0,2.2,1.8,4,4,4h2.7C52.5,95.6,54.3,93.8,54.3,91.6z M48.9,87c0.3,0,0.5,0.2,0.5,0.5S49.2,88,48.9,88s-0.5-0.2-0.5-0.5
		S48.6,87,48.9,87z M47.6,94.2c-1.5,0-2.7-1.2-2.7-2.7l0,0c0-0.9,0.5-1.7,1.1-2.2c0.7-0.5,1.6-0.4,2.3,0.1l0.6,0.5l0.6-0.5
		c0.7-0.5,1.6-0.6,2.3-0.1s1.1,1.3,1.1,2.2l0,0c0,1.5-1.2,2.7-2.7,2.7H47.6z"/>
</g>
<g>
	<polygon class="st3" points="53,243.8 51,243.8 51,242.7 53,242.7 53,239.9 48.9,239.9 48.9,246.6 53,246.6 	"/>
	<rect x="48" y="219.8" class="st3" width="1.9" height="26.9"/>
	<path class="st3" d="M47.6,220.1L47.6,220.1c0-0.1,0.1-0.3,0.3-0.3H50c0.1,0,0.3,0.1,0.3,0.3l0,0c0,0.1-0.1,0.3-0.3,0.3h-2.2
		C47.7,220.4,47.6,220.3,47.6,220.1z"/>
	<path class="st3" d="M47.6,220.6L47.6,220.6c0-0.1,0.1-0.3,0.3-0.3H50c0.1,0,0.3,0.1,0.3,0.3l0,0c0,0.1-0.1,0.3-0.3,0.3h-2.2
		C47.7,220.9,47.6,220.8,47.6,220.6z"/>
	<path class="st3" d="M47.6,239.7L47.6,239.7c0-0.1,0.1-0.3,0.3-0.3H50c0.1,0,0.3,0.1,0.3,0.3l0,0c0,0.1-0.1,0.3-0.3,0.3h-2.2
		C47.7,239.9,47.6,239.8,47.6,239.7z"/>
	<path class="st3" d="M54.3,215.7L54.3,215.7c0-2.2-1.8-4-4-4H50c0-0.6-0.5-1.1-1.1-1.1s-1.1,0.5-1.1,1.1h-0.3c-2.2,0-4,1.8-4,4l0,0
		c0,2.2,1.8,4,4,4h2.7C52.5,219.8,54.3,218,54.3,215.7z M48.9,211.2c0.3,0,0.5,0.2,0.5,0.5s-0.2,0.5-0.5,0.5s-0.5-0.2-0.5-0.5
		S48.6,211.2,48.9,211.2z M47.6,218.4c-1.5,0-2.7-1.2-2.7-2.7l0,0c0-0.9,0.5-1.7,1.1-2.2c0.7-0.5,1.6-0.4,2.3,0.1l0.6,0.5l0.6-0.5
		c0.7-0.5,1.6-0.6,2.3-0.1s1.1,1.3,1.1,2.2l0,0c0,1.5-1.2,2.7-2.7,2.7H47.6z"/>
</g>
<g>
	<polygon class="st3" points="363.2,243.8 361.1,243.8 361.1,242.7 363.2,242.7 363.2,239.9 359.1,239.9 359.1,246.6 363.2,246.6 	
		"/>
	<rect x="358.2" y="219.8" class="st3" width="1.9" height="26.9"/>
	<path class="st3" d="M357.8,220.1L357.8,220.1c0-0.1,0.1-0.3,0.3-0.3h2.2c0.1,0,0.3,0.1,0.3,0.3l0,0c0,0.1-0.1,0.3-0.3,0.3H358
		C357.9,220.4,357.8,220.3,357.8,220.1z"/>
	<path class="st3" d="M357.8,220.6L357.8,220.6c0-0.1,0.1-0.3,0.3-0.3h2.2c0.1,0,0.3,0.1,0.3,0.3l0,0c0,0.1-0.1,0.3-0.3,0.3H358
		C357.9,220.9,357.8,220.8,357.8,220.6z"/>
	<path class="st3" d="M357.8,239.7L357.8,239.7c0-0.1,0.1-0.3,0.3-0.3h2.2c0.1,0,0.3,0.1,0.3,0.3l0,0c0,0.1-0.1,0.3-0.3,0.3H358
		C357.9,239.9,357.8,239.8,357.8,239.7z"/>
	<path class="st3" d="M364.5,215.7L364.5,215.7c0-2.2-1.8-4-4-4h-0.3c0-0.6-0.5-1.1-1.1-1.1s-1.1,0.5-1.1,1.1h-0.3c-2.2,0-4,1.8-4,4
		l0,0c0,2.2,1.8,4,4,4h2.7C362.7,219.8,364.5,218,364.5,215.7z M359.1,211.2c0.3,0,0.5,0.2,0.5,0.5s-0.2,0.5-0.5,0.5
		s-0.5-0.2-0.5-0.5S358.8,211.2,359.1,211.2z M357.8,218.4c-1.5,0-2.7-1.2-2.7-2.7l0,0c0-0.9,0.5-1.7,1.1-2.2
		c0.7-0.5,1.6-0.4,2.3,0.1l0.6,0.5l0.6-0.5c0.7-0.5,1.6-0.6,2.3-0.1c0.7,0.5,1.1,1.3,1.1,2.2l0,0c0,1.5-1.2,2.7-2.7,2.7H357.8z"/>
</g>
<g>
	<polygon class="st4" points="53,410.3 51,410.3 51,409.2 53,409.2 53,406.4 48.9,406.4 48.9,413.1 53,413.1 	"/>
	<rect x="48" y="386.3" class="st4" width="1.9" height="26.9"/>
	<path class="st4" d="M47.6,386.6L47.6,386.6c0-0.1,0.1-0.3,0.3-0.3H50c0.1,0,0.3,0.1,0.3,0.3l0,0c0,0.1-0.1,0.3-0.3,0.3h-2.2
		C47.7,386.9,47.6,386.7,47.6,386.6z"/>
	<path class="st4" d="M47.6,387.1L47.6,387.1c0-0.1,0.1-0.3,0.3-0.3H50c0.1,0,0.3,0.1,0.3,0.3l0,0c0,0.1-0.1,0.3-0.3,0.3h-2.2
		C47.7,387.4,47.6,387.3,47.6,387.1z"/>
	<path class="st4" d="M47.6,406.1L47.6,406.1c0-0.1,0.1-0.3,0.3-0.3H50c0.1,0,0.3,0.1,0.3,0.3l0,0c0,0.1-0.1,0.3-0.3,0.3h-2.2
		C47.7,406.4,47.6,406.3,47.6,406.1z"/>
	<path class="st4" d="M54.3,382.2L54.3,382.2c0-2.2-1.8-4-4-4H50c0-0.6-0.5-1.1-1.1-1.1s-1.1,0.5-1.1,1.1h-0.3c-2.2,0-4,1.8-4,4l0,0
		c0,2.2,1.8,4,4,4h2.7C52.5,386.3,54.3,384.5,54.3,382.2z M48.9,377.7c0.3,0,0.5,0.2,0.5,0.5s-0.2,0.5-0.5,0.5s-0.5-0.2-0.5-0.5
		S48.6,377.7,48.9,377.7z M47.6,384.9c-1.5,0-2.7-1.2-2.7-2.7l0,0c0-0.9,0.5-1.7,1.1-2.2c0.7-0.5,1.6-0.4,2.3,0.1l0.6,0.5l0.6-0.5
		c0.7-0.5,1.6-0.6,2.3-0.1s1.1,1.3,1.1,2.2l0,0c0,1.5-1.2,2.7-2.7,2.7H47.6z"/>
</g>
<g>
	<polygon class="st4" points="521.7,410.3 519.7,410.3 519.7,409.2 521.7,409.2 521.7,406.4 517.7,406.4 517.7,413.1 521.7,413.1 	
		"/>
	<rect x="516.8" y="386.3" class="st4" width="1.9" height="26.9"/>
	<path class="st4" d="M516.3,386.6L516.3,386.6c0-0.1,0.1-0.3,0.3-0.3h2.2c0.1,0,0.3,0.1,0.3,0.3l0,0c0,0.1-0.1,0.3-0.3,0.3h-2.2
		C516.5,386.9,516.3,386.7,516.3,386.6z"/>
	<path class="st4" d="M516.3,387.1L516.3,387.1c0-0.1,0.1-0.3,0.3-0.3h2.2c0.1,0,0.3,0.1,0.3,0.3l0,0c0,0.1-0.1,0.3-0.3,0.3h-2.2
		C516.5,387.4,516.3,387.3,516.3,387.1z"/>
	<path class="st4" d="M516.3,406.1L516.3,406.1c0-0.1,0.1-0.3,0.3-0.3h2.2c0.1,0,0.3,0.1,0.3,0.3l0,0c0,0.1-0.1,0.3-0.3,0.3h-2.2
		C516.5,406.4,516.3,406.3,516.3,406.1z"/>
	<path class="st4" d="M523.1,382.2L523.1,382.2c0-2.2-1.8-4-4-4h-0.3c0-0.6-0.5-1.1-1.1-1.1s-1.1,0.5-1.1,1.1h-0.3c-2.2,0-4,1.8-4,4
		l0,0c0,2.2,1.8,4,4,4h2.7C521.3,386.3,523.1,384.5,523.1,382.2z M517.7,377.7c0.3,0,0.5,0.2,0.5,0.5s-0.2,0.5-0.5,0.5
		s-0.5-0.2-0.5-0.5S517.4,377.7,517.7,377.7z M516.4,384.9c-1.5,0-2.7-1.2-2.7-2.7l0,0c0-0.9,0.5-1.7,1.1-2.2
		c0.7-0.5,1.6-0.4,2.3,0.1l0.6,0.5l0.6-0.5c0.7-0.5,1.6-0.6,2.3-0.1s1.1,1.3,1.1,2.2l0,0c0,1.5-1.2,2.7-2.7,2.7H516.4z"/>
</g>
<g>
	<polygon class="st2" points="208.6,119.6 206.6,119.6 206.6,118.6 208.6,118.6 208.6,115.7 204.5,115.7 204.5,122.5 208.6,122.5 	
		"/>
	<rect x="203.6" y="95.6" class="st2" width="1.9" height="26.9"/>
	<path class="st2" d="M203.2,95.9L203.2,95.9c0-0.1,0.1-0.3,0.3-0.3h2.2c0.1,0,0.3,0.1,0.3,0.3l0,0c0,0.1-0.1,0.3-0.3,0.3h-2.2
		C203.3,96.2,203.2,96.1,203.2,95.9z"/>
	<path class="st2" d="M203.2,96.5L203.2,96.5c0-0.1,0.1-0.3,0.3-0.3h2.2c0.1,0,0.3,0.1,0.3,0.3l0,0c0,0.1-0.1,0.3-0.3,0.3h-2.2
		C203.3,96.7,203.2,96.6,203.2,96.5z"/>
	<path class="st2" d="M203.2,115.5L203.2,115.5c0-0.1,0.1-0.3,0.3-0.3h2.2c0.1,0,0.3,0.1,0.3,0.3l0,0c0,0.1-0.1,0.3-0.3,0.3h-2.2
		C203.3,115.7,203.2,115.6,203.2,115.5z"/>
	<path class="st2" d="M209.9,91.6L209.9,91.6c0-2.2-1.8-4-4-4h-0.3c0-0.6-0.5-1.1-1.1-1.1s-1.1,0.5-1.1,1.1h-0.3c-2.2,0-4,1.8-4,4
		l0,0c0,2.2,1.8,4,4,4h2.7C208.1,95.6,209.9,93.8,209.9,91.6z M204.5,87c0.3,0,0.5,0.2,0.5,0.5s-0.2,0.5-0.5,0.5s-0.5-0.2-0.5-0.5
		S204.2,87,204.5,87z M203.2,94.2c-1.5,0-2.7-1.2-2.7-2.7l0,0c0-0.9,0.5-1.7,1.1-2.2c0.7-0.5,1.6-0.4,2.3,0.1l0.6,0.5l0.6-0.5
		c0.7-0.5,1.6-0.6,2.3-0.1s1.1,1.3,1.1,2.2l0,0c0,1.5-1.2,2.7-2.7,2.7H203.2z"/>
</g>
<g>
	<g>
		<line class="st5" x1="76.4" y1="86.9" x2="177.1" y2="86.9"/>
		<g>
			<path d="M72.7,86.9c1.7,0.6,3.8,1.7,5.1,2.9l-1-2.9l1-2.9C76.6,85.2,74.4,86.2,72.7,86.9z"/>
		</g>
		<g>
			<path d="M180.7,86.9c-1.7,0.6-3.8,1.7-5.1,2.9l1-2.9l-1-2.9C176.9,85.2,179,86.2,180.7,86.9z"/>
		</g>
	</g>
</g>
<g>
	<g>
		<line class="st5" x1="180.7" y1="95.5" x2="76.3" y2="121.5"/>
		<g>
			<path d="M72.7,122.3c1.5-1,3.3-2.6,4.3-4l-0.3,3l1.7,2.5C76.9,123.1,74.6,122.5,72.7,122.3z"/>
		</g>
	</g>
</g>
<g>
	<g>
		<line class="st5" x1="72.7" y1="95.5" x2="177.2" y2="121.5"/>
		<g>
			<path d="M180.7,122.3c-1.8,0.2-4.1,0.7-5.7,1.5l1.7-2.5l-0.3-3C177.5,119.8,179.2,121.3,180.7,122.3z"/>
		</g>
	</g>
</g>
<g>
	<g>
		<line class="st5" x1="180.7" y1="218.4" x2="76.3" y2="244.3"/>
		<g>
			<path d="M72.7,245.2c1.5-1,3.3-2.6,4.3-4l-0.3,3l1.7,2.5C76.9,245.9,74.6,245.4,72.7,245.2z"/>
		</g>
	</g>
</g>
<g>
	<g>
		<line class="st5" x1="72.7" y1="181" x2="177.2" y2="206.9"/>
		<g>
			<path d="M180.7,207.8c-1.8,0.2-4.1,0.7-5.7,1.5l1.7-2.5l-0.3-3C177.5,205.2,179.2,206.8,180.7,207.8z"/>
		</g>
	</g>
</g>
<g>
	<g>
		<line class="st5" x1="226.3" y1="218.4" x2="330.8" y2="244.3"/>
		<g>
			<path d="M334.3,245.2c-1.8,0.2-4.1,0.7-5.7,1.5l1.7-2.5l-0.3-3C331,242.6,332.8,244.2,334.3,245.2z"/>
		</g>
	</g>
</g>
<g>
	<g>
		<line class="st5" x1="334.3" y1="181" x2="229.8" y2="206.9"/>
		<g>
			<path d="M226.3,207.8c1.5-1,3.3-2.6,4.3-4l-0.3,3l1.7,2.5C230.4,208.5,228.1,208,226.3,207.8z"/>
		</g>
	</g>
</g>
<path class="st6" d="M162.2,78.5h15.6c5,0,9,4,9,9v32c0,5-4,9-9,9h-102c-5,0-9-4-9-9v-32c0-5,4-9,9-9h16.8"/>
<g class="st1">
	<path d="M96.6,75.4c0-0.9,0-1.1-0.5-1.2l-0.2,0c-0.1,0-0.1-0.3,0-0.3c0.8,0,1.6-0.1,2.7-0.1c0.8,0,1.6,0.1,2.3,0.3
		c1.3,0.5,2,1.6,2,2.9c0,1.3-0.6,2.4-1.8,3c-0.7,0.3-1.5,0.5-2.5,0.5c-0.5,0-1-0.1-1.3-0.1c-0.5,0-1,0-1.6,0c-0.1-0.1-0.1-0.3,0-0.4
		l0.3,0c0.4-0.1,0.5-0.1,0.5-1.1V75.4z M98,78.5c0,0.5,0,0.9,0.2,1.1c0.2,0.2,0.5,0.3,0.8,0.3c1.7,0,2.3-1.5,2.3-2.9
		c0-1.8-0.9-2.9-2.8-2.9c-0.3,0-0.5,0.1-0.5,0.1c-0.1,0.1-0.1,0.3-0.1,0.6V78.5z"/>
	<path d="M105.4,79.2c0,0.7,0,0.8,0.4,0.8l0.2,0c0.1,0.1,0.1,0.3,0,0.4c-0.3,0-0.7,0-1.2,0c-0.4,0-0.9,0-1.2,0
		c-0.1-0.1-0.1-0.3,0-0.4l0.2,0c0.3,0,0.4-0.1,0.4-0.8v-1.5c0-0.4,0-0.5-0.2-0.6l-0.1-0.1c-0.1-0.1-0.1-0.2,0-0.3
		c0.5-0.1,1.2-0.4,1.5-0.6c0.1,0,0.1,0,0.2,0.1c0,0.3,0,0.7,0,1.2V79.2z M105.5,74.7c0,0.5-0.4,0.7-0.7,0.7c-0.4,0-0.7-0.3-0.7-0.7
		c0-0.4,0.4-0.7,0.7-0.7C105.2,73.9,105.5,74.3,105.5,74.7z"/>
	<path d="M106.4,76.9c-0.1,0-0.1-0.2,0-0.3l0.4-0.2c0.1-0.1,0.2-0.1,0.2-0.3c0-0.2,0.1-0.9,0.3-1.4c0.3-0.7,0.9-1.3,2.1-1.3
		c0.4,0,0.9,0.1,1.2,0.3c0.2-0.2,0.8-0.6,1.7-0.6c1,0,1.7,0.5,1.7,1c0,0.4-0.3,0.6-0.7,0.6c-0.2,0-0.4-0.1-0.4-0.2s-0.2-0.4-0.3-0.5
		c-0.2-0.3-0.4-0.5-0.6-0.5c-0.3,0-0.7,0.3-0.7,1.8v0.6c0,0.3,0,0.2,0.3,0.2h0.8c0.7,0,1.4,0,1.6-0.1c0.1,0,0.2,0.1,0.2,0.2
		c0,0.3,0,0.7,0,1.1v1.6c0,0.7,0,0.8,0.4,0.8l0.2,0c0.1,0.1,0.1,0.3,0,0.3c-0.3,0-0.7,0-1.2,0c-0.4,0-0.8,0-1.1,0
		c-0.1-0.1-0.1-0.3,0-0.3l0.2,0c0.3,0,0.3-0.1,0.3-0.8v-1.4c0-0.8,0-0.9-0.5-0.9h-0.7c-0.2,0-0.3,0-0.3,0.3v2c0,0.7,0,0.8,0.4,0.8
		l0.1,0c0.1,0.1,0.1,0.3,0,0.3c-0.3,0-0.7,0-1.2,0c-0.4,0-0.8,0-1.1,0c-0.1-0.1-0.1-0.3,0-0.3l0.2,0c0.3,0,0.3-0.1,0.3-0.8v-2
		c0-0.3,0-0.3-0.2-0.3h-1c-0.2,0-0.3,0-0.3,0.3v2c0,0.7,0,0.8,0.4,0.8l0.1,0c0.1,0.1,0.1,0.3,0,0.3c-0.3,0-0.7,0-1.2,0
		c-0.4,0-0.8,0-1.1,0c-0.1-0.1-0.1-0.3,0-0.3l0.2,0c0.3,0,0.4-0.1,0.4-0.8v-2c0-0.3,0-0.3-0.2-0.3H106.4z M109.6,76.3
		c0.2,0,0.2,0,0.2-0.2c0-0.4,0-1,0.2-1.5c-0.1-0.3-0.3-0.8-0.7-0.8c-0.4,0-1,0.3-1,2.1v0.1c0,0.3,0,0.3,0.3,0.3H109.6z"/>
	<path d="M116.4,78c-0.2,0-0.2,0-0.2,0.2c0,0.7,0.5,1.5,1.4,1.5c0.3,0,0.7-0.1,0.9-0.5c0.1,0,0.3,0.1,0.3,0.2
		c-0.4,0.8-1.1,1.1-1.7,1.1c-1.3,0-2.1-0.9-2.1-2c0-1.3,0.9-2.2,2.2-2.2c1,0,1.6,0.7,1.6,1.4c0,0.2,0,0.3-0.4,0.3H116.4z
		 M117.1,77.5c0.1,0,0.3,0,0.4-0.1c0,0,0.1-0.1,0.1-0.2c0-0.3-0.2-0.5-0.5-0.5c-0.4,0-0.8,0.4-0.8,0.7c0,0.1,0.1,0.1,0.5,0.1H117.1z
		"/>
	<path d="M121.6,77.7c0.1,0.1,0.1,0.2,0.1,0.4c0,0.1-0.1,0.3-0.1,0.4l-2.4,0.2c-0.1-0.1-0.1-0.2-0.1-0.4c0-0.2,0.1-0.3,0.1-0.4
		L121.6,77.7z"/>
	<path d="M125.1,77.2c-0.4,0-0.4,0-0.4,0.3v1.4c0,0.9,0.1,1,0.5,1.1l0.3,0c0.1,0.1,0.1,0.3,0,0.4c-0.6,0-1.1,0-1.5,0
		c-0.5,0-1,0-1.5,0c-0.1-0.1-0.1-0.3,0-0.4l0.2,0c0.5-0.1,0.5-0.2,0.5-1.1v-3.7c0-0.9,0-1-0.5-1.1l-0.2,0c-0.1-0.1-0.1-0.3,0-0.3
		c0.5,0,1,0,1.5,0c0.4,0,0.9,0,1.4,0c0.1,0.1,0.1,0.3,0,0.3l-0.2,0c-0.4,0.1-0.5,0.2-0.5,1.1v1.2c0,0.3,0,0.3,0.4,0.3h2.1
		c0.4,0,0.4,0,0.4-0.3v-1.2c0-0.9,0-1-0.5-1.1l-0.3,0c-0.1-0.1-0.1-0.3,0-0.3c0.5,0,1,0,1.5,0c0.5,0,0.9,0,1.4,0
		c0.1,0.1,0.1,0.3,0,0.3l-0.2,0c-0.5,0.1-0.5,0.2-0.5,1.1v3.7c0,0.9,0.1,1,0.5,1.1l0.2,0c0.1,0.1,0.1,0.3,0,0.4c-0.5,0-1,0-1.4,0
		c-0.5,0-1,0-1.5,0c-0.1-0.1-0.1-0.3,0-0.4l0.2,0c0.5-0.1,0.5-0.2,0.5-1.1v-1.4c0-0.3,0-0.3-0.4-0.3H125.1z"/>
	<path d="M131.8,78c-0.2,0-0.2,0-0.2,0.2c0,0.7,0.5,1.5,1.4,1.5c0.3,0,0.7-0.1,0.9-0.5c0.1,0,0.3,0.1,0.3,0.2
		c-0.4,0.8-1.1,1.1-1.7,1.1c-1.3,0-2.1-0.9-2.1-2c0-1.3,0.9-2.2,2.2-2.2c1,0,1.6,0.7,1.6,1.4c0,0.2,0,0.3-0.4,0.3H131.8z
		 M132.4,77.5c0.1,0,0.3,0,0.4-0.1c0,0,0.1-0.1,0.1-0.2c0-0.3-0.2-0.5-0.5-0.5c-0.4,0-0.8,0.4-0.8,0.7c0,0.1,0.1,0.1,0.5,0.1H132.4z
		"/>
	<path d="M134.9,74.8c0-0.4,0-0.5-0.2-0.6l-0.2-0.1c-0.1-0.1-0.1-0.2,0-0.3c0.4-0.1,1-0.3,1.5-0.6c0.1,0,0.1,0,0.2,0.1
		c0,0.4,0,0.8,0,1.5v4.5c0,0.7,0,0.8,0.4,0.8l0.2,0c0.1,0.1,0.1,0.3,0,0.4c-0.3,0-0.7,0-1.2,0c-0.4,0-0.8,0-1.2,0
		c-0.1-0.1-0.1-0.3,0-0.4l0.2,0c0.3,0,0.4-0.1,0.4-0.8V74.8z"/>
	<path d="M137.7,74.8c0-0.4,0-0.5-0.2-0.6l-0.2-0.1c-0.1-0.1-0.1-0.2,0-0.3c0.4-0.1,1-0.3,1.5-0.6c0.1,0,0.1,0,0.2,0.1
		c0,0.4,0,0.8,0,1.5v4.5c0,0.7,0,0.8,0.4,0.8l0.2,0c0.1,0.1,0.1,0.3,0,0.4c-0.3,0-0.7,0-1.2,0c-0.4,0-0.8,0-1.2,0
		c-0.1-0.1-0.1-0.3,0-0.4l0.2,0c0.3,0,0.4-0.1,0.4-0.8V74.8z"/>
	<path d="M140.6,77.7c0-0.4,0-0.5-0.2-0.6l-0.1-0.1c-0.1-0.1-0.1-0.2,0-0.3c0.5-0.1,1.2-0.4,1.5-0.6c0.1,0,0.1,0,0.2,0.1
		c0,0.1,0,0.4,0,0.4c0,0.1,0,0.1,0.1,0.1c0,0,0.1,0,0.2-0.1c0.2-0.1,0.7-0.4,1.1-0.4c0.4,0,0.7,0.1,0.9,0.4c0.1,0.1,0.2,0.2,0.2,0.2
		c0,0,0.1-0.1,0.3-0.2c0.2-0.1,0.6-0.4,1.1-0.4c0.8,0,1.2,0.6,1.2,1.3v1.7c0,0.7,0,0.8,0.4,0.8l0.2,0c0.1,0.1,0.1,0.3,0,0.4
		c-0.3,0-0.7,0-1.2,0c-0.4,0-0.8,0-1.1,0c-0.1-0.1-0.1-0.3,0-0.4l0.2,0c0.2,0,0.3-0.1,0.3-0.7v-1.7c0-0.4-0.2-0.7-0.7-0.7
		c-0.3,0-0.5,0.1-0.6,0.2c0,0.1-0.1,0.2-0.1,0.3v1.8c0,0.5,0,0.6,0.3,0.7l0.2,0c0.1,0.1,0.1,0.3,0,0.4c-0.3,0-0.6,0-1.1,0
		c-0.4,0-0.8,0-1.1,0c-0.1-0.1-0.1-0.3,0-0.4l0.2,0c0.2,0,0.3-0.1,0.3-0.7v-1.7c0-0.4-0.2-0.7-0.7-0.7c-0.3,0-0.5,0.1-0.5,0.2
		c-0.1,0.1-0.1,0.2-0.1,0.4v1.8c0,0.5,0,0.6,0.3,0.7l0.2,0c0.1,0.1,0.1,0.3,0,0.4c-0.3,0-0.6,0-1.1,0c-0.4,0-0.8,0-1.1,0
		c-0.1-0.1-0.1-0.3,0-0.4l0.2,0c0.3,0,0.4-0.1,0.4-0.8V77.7z"/>
	<path d="M151.5,79c0,0.7,0.2,0.9,0.4,0.9c0.1,0,0.2,0,0.4-0.1c0.1,0,0.1,0.1,0.1,0.2c-0.1,0.2-0.6,0.5-1.2,0.5
		c-0.3,0-0.6-0.1-0.8-0.3c-0.1-0.1-0.1-0.1-0.2-0.1c0,0-0.1,0-0.2,0.1c-0.2,0.1-0.5,0.3-0.8,0.3c-0.6,0-1.1-0.3-1.1-1
		c0-0.5,0.3-0.8,1-1c0.4-0.1,0.7-0.2,0.9-0.3c0.2,0,0.2-0.1,0.2-0.2c0-0.1,0-0.2,0-0.3c0-0.4-0.1-0.9-0.6-0.9
		c-0.2,0-0.4,0.1-0.5,0.6c0,0.2-0.1,0.2-0.2,0.3c-0.1,0.1-0.5,0.2-0.7,0.2c-0.2,0-0.2-0.1-0.2-0.2c0-0.3,0.2-0.6,0.5-0.8
		c0.3-0.3,1-0.6,1.7-0.6c0.8,0,1.3,0.4,1.3,1.4L151.5,79z M150.3,78.7c0-0.2,0-0.2-0.1-0.2c-0.4,0.1-0.8,0.2-0.8,0.7
		c0,0.3,0.2,0.6,0.5,0.6c0.3,0,0.4-0.2,0.4-0.5L150.3,78.7z"/>
	<path d="M153.1,77.7c0-0.4,0-0.5-0.2-0.6l-0.1-0.1c-0.1-0.1-0.1-0.2,0-0.3c0.5-0.1,1.2-0.4,1.5-0.6c0.1,0,0.1,0,0.2,0.1
		c0,0.1,0,0.4,0,0.4c0,0.1,0,0.1,0.1,0.1c0,0,0.1,0,0.2-0.1c0.2-0.1,0.7-0.4,1.1-0.4c0.8,0,1.2,0.6,1.2,1.3v1.7c0,0.7,0,0.8,0.4,0.8
		l0.2,0c0.1,0.1,0.1,0.3,0,0.4c-0.3,0-0.7,0-1.2,0c-0.4,0-0.8,0-1.1,0c-0.1-0.1-0.1-0.3,0-0.4l0.2,0c0.2,0,0.3-0.1,0.3-0.7v-1.7
		c0-0.4-0.2-0.7-0.7-0.7c-0.3,0-0.5,0.1-0.6,0.2c-0.1,0.1-0.1,0.2-0.1,0.4v1.8c0,0.5,0,0.6,0.3,0.7l0.2,0c0.1,0.1,0.1,0.3,0,0.4
		c-0.3,0-0.6,0-1.1,0c-0.4,0-0.8,0-1.2,0c-0.1-0.1-0.1-0.3,0-0.4l0.2,0c0.4,0,0.4-0.1,0.4-0.8V77.7z"/>
</g>
<g class="st1">
	<path d="M96.6,151.9c0-0.9,0-1.1-0.5-1.2l-0.2,0c-0.1,0-0.1-0.3,0-0.3c0.8,0,1.6-0.1,2.7-0.1c0.8,0,1.6,0.1,2.3,0.3
		c1.3,0.5,2,1.6,2,2.9c0,1.3-0.6,2.4-1.8,3c-0.7,0.3-1.5,0.5-2.5,0.5c-0.5,0-1-0.1-1.3-0.1c-0.5,0-1,0-1.6,0c-0.1-0.1-0.1-0.3,0-0.4
		l0.3,0c0.4-0.1,0.5-0.1,0.5-1.1V151.9z M98,155c0,0.5,0,0.9,0.2,1.1c0.2,0.2,0.5,0.3,0.8,0.3c1.7,0,2.3-1.5,2.3-2.9
		c0-1.8-0.9-2.9-2.8-2.9c-0.3,0-0.5,0.1-0.5,0.1c-0.1,0.1-0.1,0.3-0.1,0.6V155z"/>
	<path d="M105.4,155.7c0,0.7,0,0.8,0.4,0.8l0.2,0c0.1,0.1,0.1,0.3,0,0.4c-0.3,0-0.7,0-1.2,0c-0.4,0-0.9,0-1.2,0
		c-0.1-0.1-0.1-0.3,0-0.4l0.2,0c0.3,0,0.4-0.1,0.4-0.8v-1.5c0-0.4,0-0.5-0.2-0.6l-0.1-0.1c-0.1-0.1-0.1-0.2,0-0.3
		c0.5-0.1,1.2-0.4,1.5-0.6c0.1,0,0.1,0,0.2,0.1c0,0.3,0,0.7,0,1.2V155.7z M105.5,151.2c0,0.5-0.4,0.7-0.7,0.7
		c-0.4,0-0.7-0.3-0.7-0.7c0-0.4,0.4-0.7,0.7-0.7C105.2,150.4,105.5,150.8,105.5,151.2z"/>
	<path d="M106.4,153.4c-0.1,0-0.1-0.2,0-0.3l0.4-0.2c0.1-0.1,0.2-0.1,0.2-0.3c0-0.2,0.1-0.9,0.3-1.4c0.3-0.7,0.9-1.3,2.1-1.3
		c0.4,0,0.9,0.1,1.2,0.3c0.2-0.2,0.8-0.6,1.7-0.6c1,0,1.7,0.5,1.7,1c0,0.4-0.3,0.6-0.7,0.6c-0.2,0-0.4-0.1-0.4-0.2s-0.2-0.4-0.3-0.5
		c-0.2-0.3-0.4-0.5-0.6-0.5c-0.3,0-0.7,0.3-0.7,1.8v0.6c0,0.3,0,0.2,0.3,0.2h0.8c0.7,0,1.4,0,1.6-0.1c0.1,0,0.2,0.1,0.2,0.2
		c0,0.3,0,0.7,0,1.1v1.6c0,0.7,0,0.8,0.4,0.8l0.2,0c0.1,0.1,0.1,0.3,0,0.3c-0.3,0-0.7,0-1.2,0c-0.4,0-0.8,0-1.1,0
		c-0.1-0.1-0.1-0.3,0-0.3l0.2,0c0.3,0,0.3-0.1,0.3-0.8v-1.4c0-0.8,0-0.9-0.5-0.9h-0.7c-0.2,0-0.3,0-0.3,0.3v2c0,0.7,0,0.8,0.4,0.8
		l0.1,0c0.1,0.1,0.1,0.3,0,0.3c-0.3,0-0.7,0-1.2,0c-0.4,0-0.8,0-1.1,0c-0.1-0.1-0.1-0.3,0-0.3l0.2,0c0.3,0,0.3-0.1,0.3-0.8v-2
		c0-0.3,0-0.3-0.2-0.3h-1c-0.2,0-0.3,0-0.3,0.3v2c0,0.7,0,0.8,0.4,0.8l0.1,0c0.1,0.1,0.1,0.3,0,0.3c-0.3,0-0.7,0-1.2,0
		c-0.4,0-0.8,0-1.1,0c-0.1-0.1-0.1-0.3,0-0.3l0.2,0c0.3,0,0.4-0.1,0.4-0.8v-2c0-0.3,0-0.3-0.2-0.3H106.4z M109.6,152.8
		c0.2,0,0.2,0,0.2-0.2c0-0.4,0-1,0.2-1.5c-0.1-0.3-0.3-0.8-0.7-0.8c-0.4,0-1,0.3-1,2.1v0.1c0,0.3,0,0.3,0.3,0.3H109.6z"/>
	<path d="M116.4,154.5c-0.2,0-0.2,0-0.2,0.2c0,0.7,0.5,1.5,1.4,1.5c0.3,0,0.7-0.1,0.9-0.5c0.1,0,0.3,0.1,0.3,0.2
		c-0.4,0.8-1.1,1.1-1.7,1.1c-1.3,0-2.1-0.9-2.1-2c0-1.3,0.9-2.2,2.2-2.2c1,0,1.6,0.7,1.6,1.4c0,0.2,0,0.3-0.4,0.3H116.4z M117.1,154
		c0.1,0,0.3,0,0.4-0.1c0,0,0.1-0.1,0.1-0.2c0-0.3-0.2-0.5-0.5-0.5c-0.4,0-0.8,0.4-0.8,0.7c0,0.1,0.1,0.1,0.5,0.1H117.1z"/>
	<path d="M121.6,154.2c0.1,0.1,0.1,0.2,0.1,0.4c0,0.1-0.1,0.3-0.1,0.4l-2.4,0.2c-0.1-0.1-0.1-0.2-0.1-0.4c0-0.2,0.1-0.3,0.1-0.4
		L121.6,154.2z"/>
	<path d="M125.1,153.7c-0.4,0-0.4,0-0.4,0.3v1.4c0,0.9,0.1,1,0.5,1.1l0.3,0c0.1,0.1,0.1,0.3,0,0.4c-0.6,0-1.1,0-1.5,0
		c-0.5,0-1,0-1.5,0c-0.1-0.1-0.1-0.3,0-0.4l0.2,0c0.5-0.1,0.5-0.2,0.5-1.1v-3.7c0-0.9,0-1-0.5-1.1l-0.2,0c-0.1-0.1-0.1-0.3,0-0.3
		c0.5,0,1,0,1.5,0c0.4,0,0.9,0,1.4,0c0.1,0.1,0.1,0.3,0,0.3l-0.2,0c-0.4,0.1-0.5,0.2-0.5,1.1v1.2c0,0.3,0,0.3,0.4,0.3h2.1
		c0.4,0,0.4,0,0.4-0.3v-1.2c0-0.9,0-1-0.5-1.1l-0.3,0c-0.1-0.1-0.1-0.3,0-0.3c0.5,0,1,0,1.5,0c0.5,0,0.9,0,1.4,0
		c0.1,0.1,0.1,0.3,0,0.3l-0.2,0c-0.5,0.1-0.5,0.2-0.5,1.1v3.7c0,0.9,0.1,1,0.5,1.1l0.2,0c0.1,0.1,0.1,0.3,0,0.4c-0.5,0-1,0-1.4,0
		c-0.5,0-1,0-1.5,0c-0.1-0.1-0.1-0.3,0-0.4l0.2,0c0.5-0.1,0.5-0.2,0.5-1.1V154c0-0.3,0-0.3-0.4-0.3H125.1z"/>
	<path d="M131.8,154.5c-0.2,0-0.2,0-0.2,0.2c0,0.7,0.5,1.5,1.4,1.5c0.3,0,0.7-0.1,0.9-0.5c0.1,0,0.3,0.1,0.3,0.2
		c-0.4,0.8-1.1,1.1-1.7,1.1c-1.3,0-2.1-0.9-2.1-2c0-1.3,0.9-2.2,2.2-2.2c1,0,1.6,0.7,1.6,1.4c0,0.2,0,0.3-0.4,0.3H131.8z M132.4,154
		c0.1,0,0.3,0,0.4-0.1c0,0,0.1-0.1,0.1-0.2c0-0.3-0.2-0.5-0.5-0.5c-0.4,0-0.8,0.4-0.8,0.7c0,0.1,0.1,0.1,0.5,0.1H132.4z"/>
	<path d="M134.9,151.3c0-0.4,0-0.5-0.2-0.6l-0.2-0.1c-0.1-0.1-0.1-0.2,0-0.3c0.4-0.1,1-0.3,1.5-0.6c0.1,0,0.1,0,0.2,0.1
		c0,0.4,0,0.8,0,1.5v4.5c0,0.7,0,0.8,0.4,0.8l0.2,0c0.1,0.1,0.1,0.3,0,0.4c-0.3,0-0.7,0-1.2,0c-0.4,0-0.8,0-1.2,0
		c-0.1-0.1-0.1-0.3,0-0.4l0.2,0c0.3,0,0.4-0.1,0.4-0.8V151.3z"/>
	<path d="M137.7,151.3c0-0.4,0-0.5-0.2-0.6l-0.2-0.1c-0.1-0.1-0.1-0.2,0-0.3c0.4-0.1,1-0.3,1.5-0.6c0.1,0,0.1,0,0.2,0.1
		c0,0.4,0,0.8,0,1.5v4.5c0,0.7,0,0.8,0.4,0.8l0.2,0c0.1,0.1,0.1,0.3,0,0.4c-0.3,0-0.7,0-1.2,0c-0.4,0-0.8,0-1.2,0
		c-0.1-0.1-0.1-0.3,0-0.4l0.2,0c0.3,0,0.4-0.1,0.4-0.8V151.3z"/>
	<path d="M140.6,154.2c0-0.4,0-0.5-0.2-0.6l-0.1-0.1c-0.1-0.1-0.1-0.2,0-0.3c0.5-0.1,1.2-0.4,1.5-0.6c0.1,0,0.1,0,0.2,0.1
		c0,0.1,0,0.4,0,0.4c0,0.1,0,0.1,0.1,0.1c0,0,0.1,0,0.2-0.1c0.2-0.1,0.7-0.4,1.1-0.4c0.4,0,0.7,0.1,0.9,0.4c0.1,0.1,0.2,0.2,0.2,0.2
		c0,0,0.1-0.1,0.3-0.2c0.2-0.1,0.6-0.4,1.1-0.4c0.8,0,1.2,0.6,1.2,1.3v1.7c0,0.7,0,0.8,0.4,0.8l0.2,0c0.1,0.1,0.1,0.3,0,0.4
		c-0.3,0-0.7,0-1.2,0c-0.4,0-0.8,0-1.1,0c-0.1-0.1-0.1-0.3,0-0.4l0.2,0c0.2,0,0.3-0.1,0.3-0.7v-1.7c0-0.4-0.2-0.7-0.7-0.7
		c-0.3,0-0.5,0.1-0.6,0.2c0,0.1-0.1,0.2-0.1,0.3v1.8c0,0.5,0,0.6,0.3,0.7l0.2,0c0.1,0.1,0.1,0.3,0,0.4c-0.3,0-0.6,0-1.1,0
		c-0.4,0-0.8,0-1.1,0c-0.1-0.1-0.1-0.3,0-0.4l0.2,0c0.2,0,0.3-0.1,0.3-0.7v-1.7c0-0.4-0.2-0.7-0.7-0.7c-0.3,0-0.5,0.1-0.5,0.2
		c-0.1,0.1-0.1,0.2-0.1,0.4v1.8c0,0.5,0,0.6,0.3,0.7l0.2,0c0.1,0.1,0.1,0.3,0,0.4c-0.3,0-0.6,0-1.1,0c-0.4,0-0.8,0-1.1,0
		c-0.1-0.1-0.1-0.3,0-0.4l0.2,0c0.3,0,0.4-0.1,0.4-0.8V154.2z"/>
	<path d="M151.5,155.5c0,0.7,0.2,0.9,0.4,0.9c0.1,0,0.2,0,0.4-0.1c0.1,0,0.1,0.1,0.1,0.2c-0.1,0.2-0.6,0.5-1.2,0.5
		c-0.3,0-0.6-0.1-0.8-0.3c-0.1-0.1-0.1-0.1-0.2-0.1c0,0-0.1,0-0.2,0.1c-0.2,0.1-0.5,0.3-0.8,0.3c-0.6,0-1.1-0.3-1.1-1
		c0-0.5,0.3-0.8,1-1c0.4-0.1,0.7-0.2,0.9-0.3c0.2,0,0.2-0.1,0.2-0.2c0-0.1,0-0.2,0-0.3c0-0.4-0.1-0.9-0.6-0.9
		c-0.2,0-0.4,0.1-0.5,0.6c0,0.2-0.1,0.2-0.2,0.3c-0.1,0.1-0.5,0.2-0.7,0.2c-0.2,0-0.2-0.1-0.2-0.2c0-0.3,0.2-0.6,0.5-0.8
		c0.3-0.3,1-0.6,1.7-0.6c0.8,0,1.3,0.4,1.3,1.4L151.5,155.5z M150.3,155.2c0-0.2,0-0.2-0.1-0.2c-0.4,0.1-0.8,0.2-0.8,0.7
		c0,0.3,0.2,0.6,0.5,0.6c0.3,0,0.4-0.2,0.4-0.5L150.3,155.2z"/>
	<path d="M153.1,154.2c0-0.4,0-0.5-0.2-0.6l-0.1-0.1c-0.1-0.1-0.1-0.2,0-0.3c0.5-0.1,1.2-0.4,1.5-0.6c0.1,0,0.1,0,0.2,0.1
		c0,0.1,0,0.4,0,0.4c0,0.1,0,0.1,0.1,0.1c0,0,0.1,0,0.2-0.1c0.2-0.1,0.7-0.4,1.1-0.4c0.8,0,1.2,0.6,1.2,1.3v1.7c0,0.7,0,0.8,0.4,0.8
		l0.2,0c0.1,0.1,0.1,0.3,0,0.4c-0.3,0-0.7,0-1.2,0c-0.4,0-0.8,0-1.1,0c-0.1-0.1-0.1-0.3,0-0.4l0.2,0c0.2,0,0.3-0.1,0.3-0.7v-1.7
		c0-0.4-0.2-0.7-0.7-0.7c-0.3,0-0.5,0.1-0.6,0.2c-0.1,0.1-0.1,0.2-0.1,0.4v1.8c0,0.5,0,0.6,0.3,0.7l0.2,0c0.1,0.1,0.1,0.3,0,0.4
		c-0.3,0-0.6,0-1.1,0c-0.4,0-0.8,0-1.2,0c-0.1-0.1-0.1-0.3,0-0.4l0.2,0c0.4,0,0.4-0.1,0.4-0.8V154.2z"/>
</g>
<g class="st1">
	<path d="M96.6,276.1c0-0.9,0-1.1-0.5-1.2l-0.2,0c-0.1,0-0.1-0.3,0-0.3c0.8,0,1.6-0.1,2.7-0.1c0.8,0,1.6,0.1,2.3,0.3
		c1.3,0.5,2,1.6,2,2.9c0,1.3-0.6,2.4-1.8,3c-0.7,0.3-1.5,0.5-2.5,0.5c-0.5,0-1-0.1-1.3-0.1c-0.5,0-1,0-1.6,0c-0.1-0.1-0.1-0.3,0-0.4
		l0.3,0c0.4-0.1,0.5-0.1,0.5-1.1V276.1z M98,279.3c0,0.5,0,0.9,0.2,1.1c0.2,0.2,0.5,0.3,0.8,0.3c1.7,0,2.3-1.5,2.3-2.9
		c0-1.8-0.9-2.9-2.8-2.9c-0.3,0-0.5,0.1-0.5,0.1c-0.1,0.1-0.1,0.3-0.1,0.6V279.3z"/>
	<path d="M105.4,280c0,0.7,0,0.8,0.4,0.8l0.2,0c0.1,0.1,0.1,0.3,0,0.4c-0.3,0-0.7,0-1.2,0c-0.4,0-0.9,0-1.2,0
		c-0.1-0.1-0.1-0.3,0-0.4l0.2,0c0.3,0,0.4-0.1,0.4-0.8v-1.5c0-0.4,0-0.5-0.2-0.6l-0.1-0.1c-0.1-0.1-0.1-0.2,0-0.3
		c0.5-0.1,1.2-0.4,1.5-0.6c0.1,0,0.1,0,0.2,0.1c0,0.3,0,0.7,0,1.2V280z M105.5,275.4c0,0.5-0.4,0.7-0.7,0.7c-0.4,0-0.7-0.3-0.7-0.7
		c0-0.4,0.4-0.7,0.7-0.7C105.2,274.7,105.5,275,105.5,275.4z"/>
	<path d="M106.4,277.7c-0.1,0-0.1-0.2,0-0.3l0.4-0.2c0.1-0.1,0.2-0.1,0.2-0.3c0-0.2,0.1-0.9,0.3-1.4c0.3-0.7,0.9-1.3,2.1-1.3
		c0.4,0,0.9,0.1,1.2,0.3c0.2-0.2,0.8-0.6,1.7-0.6c1,0,1.7,0.5,1.7,1c0,0.4-0.3,0.6-0.7,0.6c-0.2,0-0.4-0.1-0.4-0.2s-0.2-0.4-0.3-0.5
		c-0.2-0.3-0.4-0.5-0.6-0.5c-0.3,0-0.7,0.3-0.7,1.8v0.6c0,0.3,0,0.2,0.3,0.2h0.8c0.7,0,1.4,0,1.6-0.1c0.1,0,0.2,0.1,0.2,0.2
		c0,0.3,0,0.7,0,1.1v1.6c0,0.7,0,0.8,0.4,0.8l0.2,0c0.1,0.1,0.1,0.3,0,0.3c-0.3,0-0.7,0-1.2,0c-0.4,0-0.8,0-1.1,0
		c-0.1-0.1-0.1-0.3,0-0.3l0.2,0c0.3,0,0.3-0.1,0.3-0.8v-1.4c0-0.8,0-0.9-0.5-0.9h-0.7c-0.2,0-0.3,0-0.3,0.3v2c0,0.7,0,0.8,0.4,0.8
		l0.1,0c0.1,0.1,0.1,0.3,0,0.3c-0.3,0-0.7,0-1.2,0c-0.4,0-0.8,0-1.1,0c-0.1-0.1-0.1-0.3,0-0.3l0.2,0c0.3,0,0.3-0.1,0.3-0.8v-2
		c0-0.3,0-0.3-0.2-0.3h-1c-0.2,0-0.3,0-0.3,0.3v2c0,0.7,0,0.8,0.4,0.8l0.1,0c0.1,0.1,0.1,0.3,0,0.3c-0.3,0-0.7,0-1.2,0
		c-0.4,0-0.8,0-1.1,0c-0.1-0.1-0.1-0.3,0-0.3l0.2,0c0.3,0,0.4-0.1,0.4-0.8v-2c0-0.3,0-0.3-0.2-0.3H106.4z M109.6,277.1
		c0.2,0,0.2,0,0.2-0.2c0-0.4,0-1,0.2-1.5c-0.1-0.3-0.3-0.8-0.7-0.8c-0.4,0-1,0.3-1,2.1v0.1c0,0.3,0,0.3,0.3,0.3H109.6z"/>
	<path d="M116.4,278.7c-0.2,0-0.2,0-0.2,0.2c0,0.7,0.5,1.5,1.4,1.5c0.3,0,0.7-0.1,0.9-0.5c0.1,0,0.3,0.1,0.3,0.2
		c-0.4,0.8-1.1,1.1-1.7,1.1c-1.3,0-2.1-0.9-2.1-2c0-1.3,0.9-2.2,2.2-2.2c1,0,1.6,0.7,1.6,1.4c0,0.2,0,0.3-0.4,0.3H116.4z
		 M117.1,278.3c0.1,0,0.3,0,0.4-0.1c0,0,0.1-0.1,0.1-0.2c0-0.3-0.2-0.5-0.5-0.5c-0.4,0-0.8,0.4-0.8,0.7c0,0.1,0.1,0.1,0.5,0.1H117.1
		z"/>
	<path d="M121.6,278.5c0.1,0.1,0.1,0.2,0.1,0.4c0,0.1-0.1,0.3-0.1,0.4l-2.4,0.2c-0.1-0.1-0.1-0.2-0.1-0.4c0-0.2,0.1-0.3,0.1-0.4
		L121.6,278.5z"/>
	<path d="M125.1,277.9c-0.4,0-0.4,0-0.4,0.3v1.4c0,0.9,0.1,1,0.5,1.1l0.3,0c0.1,0.1,0.1,0.3,0,0.4c-0.6,0-1.1,0-1.5,0
		c-0.5,0-1,0-1.5,0c-0.1-0.1-0.1-0.3,0-0.4l0.2,0c0.5-0.1,0.5-0.2,0.5-1.1V276c0-0.9,0-1-0.5-1.1l-0.2,0c-0.1-0.1-0.1-0.3,0-0.3
		c0.5,0,1,0,1.5,0c0.4,0,0.9,0,1.4,0c0.1,0.1,0.1,0.3,0,0.3l-0.2,0c-0.4,0.1-0.5,0.2-0.5,1.1v1.2c0,0.3,0,0.3,0.4,0.3h2.1
		c0.4,0,0.4,0,0.4-0.3V276c0-0.9,0-1-0.5-1.1l-0.3,0c-0.1-0.1-0.1-0.3,0-0.3c0.5,0,1,0,1.5,0c0.5,0,0.9,0,1.4,0
		c0.1,0.1,0.1,0.3,0,0.3l-0.2,0c-0.5,0.1-0.5,0.2-0.5,1.1v3.7c0,0.9,0.1,1,0.5,1.1l0.2,0c0.1,0.1,0.1,0.3,0,0.4c-0.5,0-1,0-1.4,0
		c-0.5,0-1,0-1.5,0c-0.1-0.1-0.1-0.3,0-0.4l0.2,0c0.5-0.1,0.5-0.2,0.5-1.1v-1.4c0-0.3,0-0.3-0.4-0.3H125.1z"/>
	<path d="M131.8,278.7c-0.2,0-0.2,0-0.2,0.2c0,0.7,0.5,1.5,1.4,1.5c0.3,0,0.7-0.1,0.9-0.5c0.1,0,0.3,0.1,0.3,0.2
		c-0.4,0.8-1.1,1.1-1.7,1.1c-1.3,0-2.1-0.9-2.1-2c0-1.3,0.9-2.2,2.2-2.2c1,0,1.6,0.7,1.6,1.4c0,0.2,0,0.3-0.4,0.3H131.8z
		 M132.4,278.3c0.1,0,0.3,0,0.4-0.1c0,0,0.1-0.1,0.1-0.2c0-0.3-0.2-0.5-0.5-0.5c-0.4,0-0.8,0.4-0.8,0.7c0,0.1,0.1,0.1,0.5,0.1H132.4
		z"/>
	<path d="M134.9,275.6c0-0.4,0-0.5-0.2-0.6l-0.2-0.1c-0.1-0.1-0.1-0.2,0-0.3c0.4-0.1,1-0.3,1.5-0.6c0.1,0,0.1,0,0.2,0.1
		c0,0.4,0,0.8,0,1.5v4.5c0,0.7,0,0.8,0.4,0.8l0.2,0c0.1,0.1,0.1,0.3,0,0.4c-0.3,0-0.7,0-1.2,0c-0.4,0-0.8,0-1.2,0
		c-0.1-0.1-0.1-0.3,0-0.4l0.2,0c0.3,0,0.4-0.1,0.4-0.8V275.6z"/>
	<path d="M137.7,275.6c0-0.4,0-0.5-0.2-0.6l-0.2-0.1c-0.1-0.1-0.1-0.2,0-0.3c0.4-0.1,1-0.3,1.5-0.6c0.1,0,0.1,0,0.2,0.1
		c0,0.4,0,0.8,0,1.5v4.5c0,0.7,0,0.8,0.4,0.8l0.2,0c0.1,0.1,0.1,0.3,0,0.4c-0.3,0-0.7,0-1.2,0c-0.4,0-0.8,0-1.2,0
		c-0.1-0.1-0.1-0.3,0-0.4l0.2,0c0.3,0,0.4-0.1,0.4-0.8V275.6z"/>
	<path d="M140.6,278.4c0-0.4,0-0.5-0.2-0.6l-0.1-0.1c-0.1-0.1-0.1-0.2,0-0.3c0.5-0.1,1.2-0.4,1.5-0.6c0.1,0,0.1,0,0.2,0.1
		c0,0.1,0,0.4,0,0.4c0,0.1,0,0.1,0.1,0.1c0,0,0.1,0,0.2-0.1c0.2-0.1,0.7-0.4,1.1-0.4c0.4,0,0.7,0.1,0.9,0.4c0.1,0.1,0.2,0.2,0.2,0.2
		c0,0,0.1-0.1,0.3-0.2c0.2-0.1,0.6-0.4,1.1-0.4c0.8,0,1.2,0.6,1.2,1.3v1.7c0,0.7,0,0.8,0.4,0.8l0.2,0c0.1,0.1,0.1,0.3,0,0.4
		c-0.3,0-0.7,0-1.2,0c-0.4,0-0.8,0-1.1,0c-0.1-0.1-0.1-0.3,0-0.4l0.2,0c0.2,0,0.3-0.1,0.3-0.7v-1.7c0-0.4-0.2-0.7-0.7-0.7
		c-0.3,0-0.5,0.1-0.6,0.2c0,0.1-0.1,0.2-0.1,0.3v1.8c0,0.5,0,0.6,0.3,0.7l0.2,0c0.1,0.1,0.1,0.3,0,0.4c-0.3,0-0.6,0-1.1,0
		c-0.4,0-0.8,0-1.1,0c-0.1-0.1-0.1-0.3,0-0.4l0.2,0c0.2,0,0.3-0.1,0.3-0.7v-1.7c0-0.4-0.2-0.7-0.7-0.7c-0.3,0-0.5,0.1-0.5,0.2
		c-0.1,0.1-0.1,0.2-0.1,0.4v1.8c0,0.5,0,0.6,0.3,0.7l0.2,0c0.1,0.1,0.1,0.3,0,0.4c-0.3,0-0.6,0-1.1,0c-0.4,0-0.8,0-1.1,0
		c-0.1-0.1-0.1-0.3,0-0.4l0.2,0c0.3,0,0.4-0.1,0.4-0.8V278.4z"/>
	<path d="M151.5,279.7c0,0.7,0.2,0.9,0.4,0.9c0.1,0,0.2,0,0.4-0.1c0.1,0,0.1,0.1,0.1,0.2c-0.1,0.2-0.6,0.5-1.2,0.5
		c-0.3,0-0.6-0.1-0.8-0.3c-0.1-0.1-0.1-0.1-0.2-0.1c0,0-0.1,0-0.2,0.1c-0.2,0.1-0.5,0.3-0.8,0.3c-0.6,0-1.1-0.3-1.1-1
		c0-0.5,0.3-0.8,1-1c0.4-0.1,0.7-0.2,0.9-0.3c0.2,0,0.2-0.1,0.2-0.2c0-0.1,0-0.2,0-0.3c0-0.4-0.1-0.9-0.6-0.9
		c-0.2,0-0.4,0.1-0.5,0.6c0,0.2-0.1,0.2-0.2,0.3c-0.1,0.1-0.5,0.2-0.7,0.2c-0.2,0-0.2-0.1-0.2-0.2c0-0.3,0.2-0.6,0.5-0.8
		c0.3-0.3,1-0.6,1.7-0.6c0.8,0,1.3,0.4,1.3,1.4L151.5,279.7z M150.3,279.5c0-0.2,0-0.2-0.1-0.2c-0.4,0.1-0.8,0.2-0.8,0.7
		c0,0.3,0.2,0.6,0.5,0.6c0.3,0,0.4-0.2,0.4-0.5L150.3,279.5z"/>
	<path d="M153.1,278.4c0-0.4,0-0.5-0.2-0.6l-0.1-0.1c-0.1-0.1-0.1-0.2,0-0.3c0.5-0.1,1.2-0.4,1.5-0.6c0.1,0,0.1,0,0.2,0.1
		c0,0.1,0,0.4,0,0.4c0,0.1,0,0.1,0.1,0.1c0,0,0.1,0,0.2-0.1c0.2-0.1,0.7-0.4,1.1-0.4c0.8,0,1.2,0.6,1.2,1.3v1.7c0,0.7,0,0.8,0.4,0.8
		l0.2,0c0.1,0.1,0.1,0.3,0,0.4c-0.3,0-0.7,0-1.2,0c-0.4,0-0.8,0-1.1,0c-0.1-0.1-0.1-0.3,0-0.4l0.2,0c0.2,0,0.3-0.1,0.3-0.7v-1.7
		c0-0.4-0.2-0.7-0.7-0.7c-0.3,0-0.5,0.1-0.6,0.2c-0.1,0.1-0.1,0.2-0.1,0.4v1.8c0,0.5,0,0.6,0.3,0.7l0.2,0c0.1,0.1,0.1,0.3,0,0.4
		c-0.3,0-0.6,0-1.1,0c-0.4,0-0.8,0-1.2,0c-0.1-0.1-0.1-0.3,0-0.4l0.2,0c0.4,0,0.4-0.1,0.4-0.8V278.4z"/>
</g>
<g>
	<g>
		<line class="st5" x1="76.4" y1="170.4" x2="177.1" y2="170.4"/>
		<g>
			<path d="M72.7,170.4c1.7,0.6,3.8,1.7,5.1,2.9l-1-2.9l1-2.9C76.6,168.7,74.4,169.7,72.7,170.4z"/>
		</g>
		<g>
			<path d="M180.7,170.4c-1.7,0.6-3.8,1.7-5.1,2.9l1-2.9l-1-2.9C176.9,168.7,179,169.7,180.7,170.4z"/>
		</g>
	</g>
</g>
<g>
	<g>
		<line class="st5" x1="181.4" y1="386.3" x2="76.9" y2="412.3"/>
		<g>
			<path d="M73.4,413.1c1.5-1,3.3-2.6,4.3-4l-0.3,3l1.7,2.5C77.5,413.9,75.2,413.3,73.4,413.1z"/>
		</g>
	</g>
</g>
<g>
	<g>
		<line class="st5" x1="72.7" y1="307.4" x2="177.2" y2="333.3"/>
		<g>
			<path d="M180.7,334.2c-1.8,0.2-4.1,0.7-5.7,1.5l1.7-2.5l-0.3-3C177.5,331.6,179.2,333.2,180.7,334.2z"/>
		</g>
	</g>
</g>
<g>
	<g>
		<line class="st5" x1="231.3" y1="346.8" x2="335.8" y2="372.7"/>
		<g>
			<path d="M339.3,373.6c-1.8,0.2-4.1,0.7-5.7,1.5l1.7-2.5l-0.3-3C336,371,337.8,372.5,339.3,373.6z"/>
		</g>
	</g>
</g>
<g>
	<g>
		<line class="st5" x1="76.4" y1="298.2" x2="177.1" y2="298.2"/>
		<g>
			<path d="M72.7,298.2c1.7,0.6,3.8,1.7,5.1,2.9l-1-2.9l1-2.9C76.6,296.5,74.4,297.6,72.7,298.2z"/>
		</g>
		<g>
			<path d="M180.7,298.2c-1.7,0.6-3.8,1.7-5.1,2.9l1-2.9l-1-2.9C176.9,296.5,179,297.6,180.7,298.2z"/>
		</g>
	</g>
</g>
<g>
	<g>
		<line class="st5" x1="389.6" y1="386.1" x2="494.1" y2="412"/>
		<g>
			<path d="M497.6,412.9c-1.8,0.2-4.1,0.7-5.7,1.5l1.7-2.5l-0.3-3C494.3,410.3,496.1,411.9,497.6,412.9z"/>
		</g>
	</g>
</g>
<g>
	<g>
		<line class="st5" x1="497.9" y1="305.8" x2="393.4" y2="331.7"/>
		<g>
			<path d="M389.9,332.6c1.5-1,3.3-2.6,4.3-4l-0.3,3l1.7,2.5C394,333.4,391.7,332.8,389.9,332.6z"/>
		</g>
	</g>
</g>
<g>
	<g>
		<line class="st5" x1="339.3" y1="346.8" x2="234.8" y2="372.7"/>
		<g>
			<path d="M231.3,373.6c1.5-1,3.3-2.6,4.3-4l-0.3,3l1.7,2.5C235.4,374.3,233.1,373.8,231.3,373.6z"/>
		</g>
	</g>
</g>
<g>
	<g>
		<line class="st5" x1="494.2" y1="297.8" x2="393.5" y2="297.8"/>
		<g>
			<path d="M497.9,297.8c-1.7-0.6-3.8-1.7-5.1-2.9l1,2.9l-1,2.9C494,299.5,496.2,298.4,497.9,297.8z"/>
		</g>
		<g>
			<path d="M389.9,297.8c1.7-0.6,3.8-1.7,5.1-2.9l-1,2.9l1,2.9C393.7,299.5,391.6,298.4,389.9,297.8z"/>
		</g>
	</g>
</g>
<g>
	<g>
		<line class="st5" x1="335.7" y1="297.8" x2="234.9" y2="297.8"/>
		<g>
			<path d="M339.3,297.8c-1.7-0.6-3.8-1.7-5.1-2.9l1,2.9l-1,2.9C335.5,299.5,337.6,298.4,339.3,297.8z"/>
		</g>
		<g>
			<path d="M231.3,297.8c1.7-0.6,3.8-1.7,5.1-2.9l-1,2.9l1,2.9C235.1,299.5,233,298.4,231.3,297.8z"/>
		</g>
	</g>
</g>
<g>
	<g>
		<line class="st5" x1="229.9" y1="170.4" x2="330.7" y2="170.4"/>
		<g>
			<path d="M226.3,170.4c1.7,0.6,3.8,1.7,5.1,2.9l-1-2.9l1-2.9C230.1,168.7,228,169.7,226.3,170.4z"/>
		</g>
		<g>
			<path d="M334.3,170.4c-1.7,0.6-3.8,1.7-5.1,2.9l1-2.9l-1-2.9C330.5,168.7,332.6,169.7,334.3,170.4z"/>
		</g>
	</g>
</g>
<path class="st7" d="M162.1,155H335c5.2,0,9.4,4.2,9.4,9.4v82.2c0,5.2-4.2,9.4-9.4,9.4H73.1c-5.2,0-9.4-4.2-9.4-9.4v-82.2
	c0-5.2,4.2-9.4,9.4-9.4H89"/>
<line class="st8" x1="223.3" y1="208.5" x2="183.8" y2="217.7"/>
<line class="st8" x1="183.8" y1="208.5" x2="223.3" y2="217.7"/>
<line class="st8" x1="183.8" y1="170.4" x2="223.3" y2="170.4"/>
<rect x="68.7" y="163" class="st9" width="135.9" height="87.7"/>
<g>
	<path class="st10" d="M79.2,197.4c-2.6,0-4.7,2.1-4.7,4.7s2.1,4.7,4.7,4.7s4.7-2.1,4.7-4.7S81.8,197.4,79.2,197.4z M79.2,205.2
		c-1.7,0-3.1-1.4-3.1-3.1s1.4-3.1,3.1-3.1s3.1,1.4,3.1,3.1S81,205.2,79.2,205.2z"/>
	<path class="st10" d="M79.2,214.5L79.2,214.5c-3.5,0-6.3-2.8-6.3-6.3v-4.7c0-0.9,0.7-1.6,1.6-1.6h9.4c0.9,0,1.6,0.7,1.6,1.6v4.7
		C85.5,211.7,82.7,214.5,79.2,214.5z"/>
	<path class="st11" d="M80.5,206.9c0-0.7-0.6-1.3-1.3-1.3s-1.3,0.6-1.3,1.3c0,0.4,0.2,0.7,0.5,1v2.7H80v-2.7
		C80.3,207.7,80.5,207.3,80.5,206.9z"/>
</g>
<g>
	<path class="st10" d="M79.2,336.4c-2.6,0-4.7,2.1-4.7,4.7s2.1,4.7,4.7,4.7s4.7-2.1,4.7-4.7C83.9,338.5,81.8,336.4,79.2,336.4z
		 M79.2,344.3c-1.7,0-3.1-1.4-3.1-3.1s1.4-3.1,3.1-3.1s3.1,1.4,3.1,3.1S81,344.3,79.2,344.3z"/>
	<path class="st10" d="M79.2,353.6L79.2,353.6c-3.5,0-6.3-2.8-6.3-6.3v-4.7c0-0.9,0.7-1.6,1.6-1.6h9.4c0.9,0,1.6,0.7,1.6,1.6v4.7
		C85.5,350.8,82.7,353.6,79.2,353.6z"/>
	<path class="st11" d="M80.5,346c0-0.7-0.6-1.3-1.3-1.3S78,345.3,78,346c0,0.4,0.2,0.7,0.5,1v2.7H80V347
		C80.3,346.8,80.5,346.4,80.5,346z"/>
</g>
<g>
	<path class="st10" d="M82.5,495.1c-2.6,0-4.7,2.1-4.7,4.7s2.1,4.7,4.7,4.7s4.7-2.1,4.7-4.7S85.1,495.1,82.5,495.1z M82.5,502.9
		c-1.7,0-3.1-1.4-3.1-3.1s1.4-3.1,3.1-3.1s3.1,1.4,3.1,3.1S84.2,502.9,82.5,502.9z"/>
	<path class="st10" d="M82.5,512.3L82.5,512.3c-3.5,0-6.3-2.8-6.3-6.3v-4.7c0-0.9,0.7-1.6,1.6-1.6h9.4c0.9,0,1.6,0.7,1.6,1.6v4.7
		C88.7,509.5,85.9,512.3,82.5,512.3z"/>
	<path class="st11" d="M83.7,504.7c0-0.7-0.6-1.3-1.3-1.3s-1.3,0.6-1.3,1.3c0,0.4,0.2,0.7,0.5,1v2.7h1.6v-2.7
		C83.5,505.4,83.7,505,83.7,504.7z"/>
</g>
<g>
	<path class="st12" d="M79.2,355.9c-2.6,0-4.7,2.1-4.7,4.7s2.1,4.7,4.7,4.7s4.7-2.1,4.7-4.7C83.9,358,81.8,355.9,79.2,355.9z
		 M79.2,363.7c-1.7,0-3.1-1.4-3.1-3.1s1.4-3.1,3.1-3.1s3.1,1.4,3.1,3.1S81,363.7,79.2,363.7z"/>
	<path class="st12" d="M79.2,373.1L79.2,373.1c-3.5,0-6.3-2.8-6.3-6.3v-4.7c0-0.9,0.7-1.6,1.6-1.6h9.4c0.9,0,1.6,0.7,1.6,1.6v4.7
		C85.5,370.3,82.7,373.1,79.2,373.1z"/>
	<path class="st13" d="M80.5,365.5c0-0.7-0.6-1.3-1.3-1.3s-1.3,0.6-1.3,1.3c0,0.4,0.2,0.7,0.5,1v2.7H80v-2.7
		C80.3,366.2,80.5,365.9,80.5,365.5z"/>
</g>
<g>
	<path class="st12" d="M79.2,520.8c-2.6,0-4.7,2.1-4.7,4.7c0,2.6,2.1,4.7,4.7,4.7s4.7-2.1,4.7-4.7C83.9,522.9,81.8,520.8,79.2,520.8
		z M79.2,528.6c-1.7,0-3.1-1.4-3.1-3.1c0-1.7,1.4-3.1,3.1-3.1s3.1,1.4,3.1,3.1C82.4,527.2,81,528.6,79.2,528.6z"/>
	<path class="st12" d="M79.2,538L79.2,538c-3.5,0-6.3-2.8-6.3-6.3V527c0-0.9,0.7-1.6,1.6-1.6h9.4c0.9,0,1.6,0.7,1.6,1.6v4.7
		C85.5,535.2,82.7,538,79.2,538z"/>
	<path class="st13" d="M80.5,530.4c0-0.7-0.6-1.3-1.3-1.3s-1.3,0.6-1.3,1.3c0,0.4,0.2,0.7,0.5,1v2.7H80v-2.7
		C80.3,531.1,80.5,530.7,80.5,530.4z"/>
</g>
<g>
	<path class="st12" d="M232.8,495.9c-2.6,0-4.7,2.1-4.7,4.7s2.1,4.7,4.7,4.7s4.7-2.1,4.7-4.7S235.4,495.9,232.8,495.9z M232.8,503.7
		c-1.7,0-3.1-1.4-3.1-3.1s1.4-3.1,3.1-3.1c1.7,0,3.1,1.4,3.1,3.1S234.6,503.7,232.8,503.7z"/>
	<path class="st12" d="M232.8,513L232.8,513c-3.5,0-6.3-2.8-6.3-6.3V502c0-0.9,0.7-1.6,1.6-1.6h9.4c0.9,0,1.6,0.7,1.6,1.6v4.7
		C239.1,510.2,236.3,513,232.8,513z"/>
	<path class="st13" d="M234.1,505.4c0-0.7-0.6-1.3-1.3-1.3s-1.3,0.6-1.3,1.3c0,0.4,0.2,0.7,0.5,1v2.7h1.6v-2.7
		C233.9,506.2,234.1,505.8,234.1,505.4z"/>
</g>
<g>
	<path class="st14" d="M74.6,546.5c-2.6,0-4.7,2.1-4.7,4.7s2.1,4.7,4.7,4.7s4.7-2.1,4.7-4.7S77.1,546.5,74.6,546.5z M74.6,554.3
		c-1.7,0-3.1-1.4-3.1-3.1c0-1.7,1.4-3.1,3.1-3.1s3.1,1.4,3.1,3.1C77.7,552.9,76.3,554.3,74.6,554.3z"/>
	<path class="st14" d="M74.6,563.7L74.6,563.7c-3.5,0-6.3-2.8-6.3-6.3v-4.7c0-0.9,0.7-1.6,1.6-1.6h9.4c0.9,0,1.6,0.7,1.6,1.6v4.7
		C80.8,560.9,78,563.7,74.6,563.7z"/>
	<path class="st15" d="M75.8,556.1c0-0.7-0.6-1.3-1.3-1.3s-1.3,0.6-1.3,1.3c0,0.4,0.2,0.7,0.5,1v2.7h1.6V557
		C75.6,556.8,75.8,556.5,75.8,556.1z"/>
</g>
<g>
	<path class="st14" d="M229.7,520.5c-2.6,0-4.7,2.1-4.7,4.7c0,2.6,2.1,4.7,4.7,4.7s4.7-2.1,4.7-4.7S232.3,520.5,229.7,520.5z
		 M229.7,528.3c-1.7,0-3.1-1.4-3.1-3.1c0-1.7,1.4-3.1,3.1-3.1s3.1,1.4,3.1,3.1C232.8,526.9,231.4,528.3,229.7,528.3z"/>
	<path class="st14" d="M229.7,537.7L229.7,537.7c-3.5,0-6.3-2.8-6.3-6.3v-4.7c0-0.9,0.7-1.6,1.6-1.6h9.4c0.9,0,1.6,0.7,1.6,1.6v4.7
		C236,534.9,233.2,537.7,229.7,537.7z"/>
	<path class="st15" d="M231,530.1c0-0.7-0.6-1.3-1.3-1.3s-1.3,0.6-1.3,1.3c0,0.4,0.2,0.7,0.5,1v2.7h1.6v-2.7
		C230.8,530.8,231,530.5,231,530.1z"/>
</g>
<g>
	<path class="st14" d="M384.1,495.1c-2.6,0-4.7,2.1-4.7,4.7s2.1,4.7,4.7,4.7s4.7-2.1,4.7-4.7C388.8,497.2,386.7,495.1,384.1,495.1z
		 M384.1,502.9c-1.7,0-3.1-1.4-3.1-3.1s1.4-3.1,3.1-3.1s3.1,1.4,3.1,3.1C387.3,501.5,385.9,502.9,384.1,502.9z"/>
	<path class="st14" d="M384.1,512.3L384.1,512.3c-3.5,0-6.3-2.8-6.3-6.3v-4.7c0-0.9,0.7-1.6,1.6-1.6h9.4c0.9,0,1.6,0.7,1.6,1.6v4.7
		C390.4,509.5,387.6,512.3,384.1,512.3z"/>
	<path class="st15" d="M385.4,504.7c0-0.7-0.6-1.3-1.3-1.3c-0.7,0-1.3,0.6-1.3,1.3c0,0.4,0.2,0.7,0.5,1v2.7h1.6v-2.7
		C385.2,505.4,385.4,505,385.4,504.7z"/>
</g>
<line class="st16" x1="225.8" y1="375" x2="185.3" y2="385.3"/>
<line class="st16" x1="386.6" y1="333.5" x2="343.5" y2="345.6"/>
<line class="st16" x1="386.6" y1="297.8" x2="343.5" y2="297.8"/>
<line class="st16" x1="385.4" y1="385" x2="343.2" y2="374.5"/>
<line class="st16" x1="225.5" y1="345.3" x2="184.5" y2="335.1"/>
<line class="st16" x1="226.2" y1="297.8" x2="183.8" y2="298.2"/>
<rect x="68.7" y="291.2" class="st9" width="136.8" height="126.9"/>
<rect x="71.9" y="478.3" class="st9" width="124.7" height="37.8"/>
<rect x="223" y="478.3" class="st17" width="124.7" height="37.8"/>
<rect x="374.3" y="478.3" class="st18" width="124.7" height="37.8"/>
<rect x="64.8" y="286.8" class="st17" width="298.4" height="135.5"/>
<path class="st19" d="M162.2,279H497c5,0,9.1,4.1,9.1,9.1v130.1c0,5-4.1,9.1-9.1,9.1H68.9c-5,0-9.1-4.1-9.1-9.1V288.1
	c0-5,4.1-9.1,9.1-9.1H91"/>
<g>
	<circle class="st20" cx="19.7" cy="101.3" r="9"/>
	<g class="st1">
		<path d="M20.8,104.2c0,1.2,0.1,1.3,0.8,1.4l0.6,0c0.1,0.1,0.1,0.5,0,0.5c-0.5,0-1.4,0-2.4,0c-1,0-1.9,0-2.4,0
			c-0.1,0-0.2-0.4,0-0.5l0.6,0c0.7-0.1,0.8-0.2,0.8-1.4v-4.8c0-1-0.1-1.2-0.7-1.3L17.4,98c-0.1-0.1-0.1-0.4,0-0.5
			c0.6-0.1,1.3-0.3,1.9-0.4c0.7-0.2,1.2-0.5,1.3-0.5c0.1,0,0.2,0,0.2,0.2c0,0.3,0,1,0,1.8V104.2z"/>
	</g>
</g>
<g>
	<circle class="st20" cx="19.7" cy="202.9" r="9"/>
	<g class="st1">
		<path d="M21,206.1c1.1,0,1.3,0,1.7-0.8c0.1-0.1,0.4-0.1,0.5,0.1c-0.1,0.9-0.5,2-0.7,2.3c-0.6,0-1.1,0-2.1,0H18c-0.8,0-1.4,0-1.7,0
			c-0.1,0-0.2-0.2-0.2-0.3c0.6-0.5,1.4-1.3,2.3-2.3c1-1.1,2-2.4,2-4c0-1-0.6-1.8-1.6-1.8c-0.9,0-1.5,0.6-1.9,1.4
			c-0.2,0.1-0.5,0-0.5-0.2c0.6-1.5,2-2.3,3.4-2.3c1.8,0,2.8,1.1,2.8,2.5c0,1.2-0.5,2-2.3,3.7l-0.7,0.7c-0.7,0.6-0.8,0.8-0.8,0.9
			c0,0.1,0.1,0.2,0.3,0.2H21z"/>
	</g>
</g>
<g>
	<circle class="st20" cx="19.7" cy="351.6" r="9"/>
	<g class="st1">
		<path d="M17.2,349.1c-0.2,0.1-0.4-0.1-0.4-0.3c0.6-1.2,1.8-1.9,3.1-1.9c1.5,0,2.4,0.7,2.4,1.7c0,0.6-0.3,1.2-1.9,1.9
			c-0.2,0.1-0.1,0.2,0.1,0.2c1.4,0,2.5,0.9,2.5,2.3c0,1.1-0.5,2.2-1.7,3.1c-1.3,0.9-2.7,1.2-3.5,1.2s-1.6-0.3-1.6-1.1
			c0-0.4,0.3-0.8,0.9-0.8c0.5,0,0.9,0.6,1,0.8c0.2,0.3,0.4,0.3,0.6,0.3c0.6,0,2-0.9,2-2.7c0-1.3-0.7-2.3-1.8-2.3
			c-0.6,0-1.1,0.3-1.5,0.6c-0.3-0.1-0.5-0.4-0.3-0.7c0.6-0.2,1.8-0.7,2.4-1.2c0.3-0.2,0.6-0.7,0.6-1.3c0-0.6-0.5-1.1-1.2-1.1
			C18.3,347.8,17.6,348.4,17.2,349.1z"/>
	</g>
</g>
<g>
	<circle class="st20" cx="19.7" cy="489.9" r="9"/>
	<g class="st1">
		<path d="M20,492.3c0-0.4,0-0.4-0.3-0.4h-3.5c-0.2-0.1-0.2-0.3-0.2-0.5l4.9-7c0.2-0.2,0.3-0.4,0.5-0.4h0.4c0.3,0,0.4,0.1,0.1,0.4
			l-4.5,6.2c-0.1,0.2-0.1,0.3,0.3,0.3h1.8c0.3,0,0.3,0,0.3-0.4v-2.1c0-0.3,0.1-0.4,0.3-0.5c0.4-0.2,1.2-0.5,1.5-0.5
			c0.1,0,0.2,0.1,0.2,0.3v2.9c0,0.4,0,0.4,0.3,0.4h1c0.2,0.1,0.2,0.7,0,0.8h-1c-0.3,0-0.3,0-0.3,0.4v0.4c0,1.2,0.1,1.4,0.8,1.4
			l0.3,0c0.1,0.1,0.1,0.5,0,0.5c-0.5,0-1.3,0-2,0c-1,0-1.9,0-2.4,0c-0.2,0-0.2-0.4,0-0.5l0.6,0c0.7-0.1,0.8-0.2,0.8-1.4V492.3z"/>
	</g>
</g>
<g>
	<circle class="st20" cx="19.7" cy="624.9" r="9"/>
	<g class="st1">
		<path d="M22.3,619.9c0.1,0,0.2,0.1,0.2,0.2c-0.1,0.6-0.5,1.2-0.8,1.5l-3.4,0.4c-0.2,0-0.3,0.2-0.3,0.4l-0.1,0.3
			c-0.1,0.3,0.1,0.4,0.4,0.4c0.8,0.1,2.2,0.3,3.1,0.7c0.8,0.4,1.6,1.3,1.6,2.5c0,1.6-0.9,2.6-2.2,3.2c-1.2,0.7-2.8,1-4.1,1
			c-0.2-0.1-0.3-0.6-0.1-0.7c1.1,0,2.3-0.3,3-0.7c0.9-0.5,1.4-1.2,1.4-2c0-2.1-2.2-2.4-3.7-2.5c-0.5,0-0.5-0.2-0.5-0.5l0.9-3.5
			c0.1-0.4,0.2-0.4,0.7-0.5L22.3,619.9z"/>
	</g>
</g>
<polyline class="st21" points="44.9,69 36.3,69 36.3,133.7 44.9,133.7 "/>
<polyline class="st21" points="44.9,146.1 36.3,146.1 36.3,259 44.9,259 "/>
<polyline class="st21" points="44.9,271.3 36.3,271.3 36.3,430.4 44.9,430.4 "/>
<g>
	<path class="st22" d="M40.7,497.5l4.9,4.9H60v-22.2c0-1.6-1.3-2.8-2.8-2.8H40.7V497.5z"/>
	<g>
		<g>
			<path d="M42.5,484.3c0-2,0.9-3,2.3-3s2.3,1,2.3,3s-0.9,3.1-2.3,3.1S42.5,486.3,42.5,484.3z M45.8,484.3c0-1.5-0.5-2-1-2
				s-1,0.4-1,2s0.5,2,1,2S45.8,485.9,45.8,484.3z M44.1,484.3c0-0.4,0.3-0.7,0.7-0.7s0.7,0.3,0.7,0.7s-0.3,0.7-0.7,0.7
				S44.1,484.7,44.1,484.3z"/>
			<path d="M48.3,486.2h1.5v-3.4h-1.2V482c0.7-0.1,1.2-0.3,1.6-0.5h1v4.8h1.3v1.1h-4.2C48.3,487.4,48.3,486.2,48.3,486.2z"/>
			<path d="M53.9,486.2h1.5v-3.4h-1.2V482c0.7-0.1,1.2-0.3,1.6-0.5h1v4.8h1.3v1.1h-4.2C53.9,487.4,53.9,486.2,53.9,486.2z"/>
			<path d="M42.5,495.4c0-2,0.9-3,2.3-3s2.3,1,2.3,3s-0.9,3.1-2.3,3.1S42.5,497.4,42.5,495.4z M45.8,495.4c0-1.5-0.5-2-1-2
				s-1,0.4-1,2s0.5,2,1,2S45.8,497,45.8,495.4z M44.1,495.4c0-0.4,0.3-0.7,0.7-0.7s0.7,0.3,0.7,0.7s-0.3,0.7-0.7,0.7
				S44.1,495.9,44.1,495.4z"/>
			<path d="M48.3,497.3h1.5v-3.4h-1.2v-0.8c0.7-0.1,1.2-0.3,1.6-0.5h1v4.8h1.3v1.1h-4.2C48.3,498.5,48.3,497.3,48.3,497.3z"/>
			<path d="M53.6,495.4c0-2,0.9-3,2.3-3s2.3,1,2.3,3s-0.9,3.1-2.3,3.1S53.6,497.4,53.6,495.4z M56.9,495.4c0-1.5-0.5-2-1-2
				s-1,0.4-1,2s0.5,2,1,2S56.9,497,56.9,495.4z M55.2,495.4c0-0.4,0.3-0.7,0.7-0.7s0.7,0.3,0.7,0.7s-0.3,0.7-0.7,0.7
				S55.2,495.9,55.2,495.4z"/>
		</g>
	</g>
	<polygon class="st23" points="40.7,497.5 45.6,497.5 45.6,502.4 	"/>
</g>
<g>
	<path class="st22" d="M40.7,632.5l4.9,4.9H60v-22.2c0-1.6-1.3-2.8-2.8-2.8H40.7V632.5z"/>
	<g>
		<g>
			<path d="M42.5,619.3c0-2,0.9-3,2.3-3s2.3,1,2.3,3s-0.9,3.1-2.3,3.1S42.5,621.3,42.5,619.3z M45.8,619.3c0-1.5-0.5-2-1-2
				s-1,0.4-1,2s0.5,2,1,2S45.8,620.9,45.8,619.3z M44.1,619.3c0-0.4,0.3-0.7,0.7-0.7s0.7,0.3,0.7,0.7s-0.3,0.7-0.7,0.7
				S44.1,619.7,44.1,619.3z"/>
			<path d="M48.3,621.2h1.5v-3.4h-1.2V617c0.7-0.1,1.2-0.3,1.6-0.5h1v4.8h1.3v1.1h-4.2C48.3,622.4,48.3,621.2,48.3,621.2z"/>
			<path d="M53.9,621.2h1.5v-3.4h-1.2V617c0.7-0.1,1.2-0.3,1.6-0.5h1v4.8h1.3v1.1h-4.2C53.9,622.4,53.9,621.2,53.9,621.2z"/>
			<path d="M42.5,630.4c0-2,0.9-3,2.3-3s2.3,1,2.3,3s-0.9,3.1-2.3,3.1S42.5,632.4,42.5,630.4z M45.8,630.4c0-1.5-0.5-2-1-2
				s-1,0.4-1,2s0.5,2,1,2S45.8,632,45.8,630.4z M44.1,630.4c0-0.4,0.3-0.7,0.7-0.7s0.7,0.3,0.7,0.7s-0.3,0.7-0.7,0.7
				S44.1,630.9,44.1,630.4z"/>
			<path d="M48.3,632.3h1.5v-3.4h-1.2v-0.8c0.7-0.1,1.2-0.3,1.6-0.5h1v4.8h1.3v1.1h-4.2C48.3,633.5,48.3,632.3,48.3,632.3z"/>
			<path d="M53.6,630.4c0-2,0.9-3,2.3-3s2.3,1,2.3,3s-0.9,3.1-2.3,3.1S53.6,632.4,53.6,630.4z M56.9,630.4c0-1.5-0.5-2-1-2
				s-1,0.4-1,2s0.5,2,1,2S56.9,632,56.9,630.4z M55.2,630.4c0-0.4,0.3-0.7,0.7-0.7s0.7,0.3,0.7,0.7s-0.3,0.7-0.7,0.7
				S55.2,630.9,55.2,630.4z"/>
		</g>
	</g>
	<polygon class="st23" points="40.7,632.5 45.6,632.5 45.6,637.4 	"/>
</g>
<g>
	<g>
		<line class="st24" x1="76" y1="489.9" x2="186.2" y2="489.9"/>
		<g>
			<path d="M193.4,489.9c-3.4,1.3-7.6,3.4-10.3,5.7l2.1-5.7l-2.1-5.7C185.8,486.5,190,488.6,193.4,489.9z"/>
		</g>
	</g>
</g>
<g>
	<g>
		<line class="st24" x1="226.6" y1="489.9" x2="336.8" y2="489.9"/>
		<g>
			<path d="M344,489.9c-3.4,1.3-7.6,3.4-10.3,5.7l2.1-5.7l-2.1-5.7C336.4,486.5,340.6,488.6,344,489.9z"/>
		</g>
	</g>
</g>
<g>
	<g>
		<line class="st24" x1="377.9" y1="489.9" x2="488.1" y2="489.9"/>
		<g>
			<path d="M495.3,489.9c-3.4,1.3-7.6,3.4-10.3,5.7l2.1-5.7l-2.1-5.7C487.7,486.5,491.9,488.6,495.3,489.9z"/>
		</g>
	</g>
</g>
<rect x="68.7" y="474.9" class="st17" width="132.1" height="67.1"/>
<rect x="219.3" y="474.9" class="st18" width="132.1" height="67.1"/>
<rect x="65" y="471.2" class="st18" width="140" height="95.7"/>
<line class="st25" x1="194.6" y1="489.9" x2="224.9" y2="489.9"/>
<line class="st25" x1="345.7" y1="489.9" x2="376" y2="489.9"/>
<g>
	<g>
		<line class="st24" x1="529" y1="489.9" x2="636.8" y2="489.9"/>
		<g>
			<path d="M644.1,489.9c-3.4,1.3-7.6,3.4-10.3,5.7l2.1-5.7l-2.1-5.7C636.4,486.5,640.6,488.6,644.1,489.9z"/>
		</g>
	</g>
</g>
<line class="st25" x1="496.9" y1="489.9" x2="527.2" y2="489.9"/>
<g>
	<circle class="st26" cx="674" cy="489.9" r="21.6"/>
	<ellipse class="st27" cx="674" cy="489.9" rx="12.3" ry="21.6"/>
	<line class="st26" x1="674" y1="468.3" x2="674" y2="511.5"/>
	<line class="st27" x1="652.4" y1="489.9" x2="695.6" y2="489.9"/>
	<line class="st27" x1="655.8" y1="501.5" x2="692.7" y2="501.5"/>
	<line class="st27" x1="692.7" y1="479.1" x2="655.8" y2="479.1"/>
</g>
<g>
	<path class="st10" d="M82.5,634.4c-2.6,0-4.7,2.1-4.7,4.7c0,2.6,2.1,4.7,4.7,4.7s4.7-2.1,4.7-4.7S85.1,634.4,82.5,634.4z
		 M82.5,642.2c-1.7,0-3.1-1.4-3.1-3.1c0-1.7,1.4-3.1,3.1-3.1s3.1,1.4,3.1,3.1S84.2,642.2,82.5,642.2z"/>
	<path class="st10" d="M82.5,651.6L82.5,651.6c-3.5,0-6.3-2.8-6.3-6.3v-4.7c0-0.9,0.7-1.6,1.6-1.6h9.4c0.9,0,1.6,0.7,1.6,1.6v4.7
		C88.7,648.8,85.9,651.6,82.5,651.6z"/>
	<path class="st11" d="M83.7,644c0-0.7-0.6-1.3-1.3-1.3s-1.3,0.6-1.3,1.3c0,0.4,0.2,0.7,0.5,1v2.7h1.6V645
		C83.5,644.7,83.7,644.4,83.7,644z"/>
</g>
<g>
	<path class="st12" d="M79.2,660.1c-2.6,0-4.7,2.1-4.7,4.7s2.1,4.7,4.7,4.7s4.7-2.1,4.7-4.7S81.8,660.1,79.2,660.1z M79.2,667.9
		c-1.7,0-3.1-1.4-3.1-3.1c0-1.7,1.4-3.1,3.1-3.1s3.1,1.4,3.1,3.1C82.4,666.5,81,667.9,79.2,667.9z"/>
	<path class="st12" d="M79.2,677.3L79.2,677.3c-3.5,0-6.3-2.8-6.3-6.3v-4.7c0-0.9,0.7-1.6,1.6-1.6h9.4c0.9,0,1.6,0.7,1.6,1.6v4.7
		C85.5,674.5,82.7,677.3,79.2,677.3z"/>
	<path class="st13" d="M80.5,669.7c0-0.7-0.6-1.3-1.3-1.3S78,669,78,669.7c0,0.4,0.2,0.7,0.5,1v2.7H80v-2.7
		C80.3,670.4,80.5,670.1,80.5,669.7z"/>
</g>
<g>
	<path class="st12" d="M232.8,635.2c-2.6,0-4.7,2.1-4.7,4.7c0,2.6,2.1,4.7,4.7,4.7s4.7-2.1,4.7-4.7S235.4,635.2,232.8,635.2z
		 M232.8,643c-1.7,0-3.1-1.4-3.1-3.1c0-1.7,1.4-3.1,3.1-3.1c1.7,0,3.1,1.4,3.1,3.1C236,641.6,234.6,643,232.8,643z"/>
	<path class="st12" d="M232.8,652.4L232.8,652.4c-3.5,0-6.3-2.8-6.3-6.3v-4.7c0-0.9,0.7-1.6,1.6-1.6h9.4c0.9,0,1.6,0.7,1.6,1.6v4.7
		C239.1,649.6,236.3,652.4,232.8,652.4z"/>
	<path class="st13" d="M234.1,644.7c0-0.7-0.6-1.3-1.3-1.3s-1.3,0.6-1.3,1.3c0,0.4,0.2,0.7,0.5,1v2.7h1.6v-2.7
		C233.9,645.5,234.1,645.1,234.1,644.7z"/>
</g>
<g>
	<path class="st14" d="M74.6,685.8c-2.6,0-4.7,2.1-4.7,4.7c0,2.6,2.1,4.7,4.7,4.7s4.7-2.1,4.7-4.7C79.2,687.9,77.1,685.8,74.6,685.8
		z M74.6,693.6c-1.7,0-3.1-1.4-3.1-3.1c0-1.7,1.4-3.1,3.1-3.1s3.1,1.4,3.1,3.1C77.7,692.2,76.3,693.6,74.6,693.6z"/>
	<path class="st14" d="M74.6,703L74.6,703c-3.5,0-6.3-2.8-6.3-6.3V692c0-0.9,0.7-1.6,1.6-1.6h9.4c0.9,0,1.6,0.7,1.6,1.6v4.7
		C80.8,700.2,78,703,74.6,703z"/>
	<path class="st15" d="M75.8,695.4c0-0.7-0.6-1.3-1.3-1.3s-1.3,0.6-1.3,1.3c0,0.4,0.2,0.7,0.5,1v2.7h1.6v-2.7
		C75.6,696.1,75.8,695.8,75.8,695.4z"/>
</g>
<g>
	<path class="st14" d="M229.7,659.8c-2.6,0-4.7,2.1-4.7,4.7s2.1,4.7,4.7,4.7s4.7-2.1,4.7-4.7S232.3,659.8,229.7,659.8z M229.7,667.6
		c-1.7,0-3.1-1.4-3.1-3.1c0-1.7,1.4-3.1,3.1-3.1s3.1,1.4,3.1,3.1C232.8,666.2,231.4,667.6,229.7,667.6z"/>
	<path class="st14" d="M229.7,677L229.7,677c-3.5,0-6.3-2.8-6.3-6.3V666c0-0.9,0.7-1.6,1.6-1.6h9.4c0.9,0,1.6,0.7,1.6,1.6v4.7
		C236,674.2,233.2,677,229.7,677z"/>
	<path class="st15" d="M231,669.4c0-0.7-0.6-1.3-1.3-1.3s-1.3,0.6-1.3,1.3c0,0.4,0.2,0.7,0.5,1v2.7h1.6v-2.7
		C230.8,670.1,231,669.8,231,669.4z"/>
</g>
<g>
	<path class="st14" d="M384.1,634.4c-2.6,0-4.7,2.1-4.7,4.7c0,2.6,2.1,4.7,4.7,4.7s4.7-2.1,4.7-4.7
		C388.8,636.5,386.7,634.4,384.1,634.4z M384.1,642.2c-1.7,0-3.1-1.4-3.1-3.1c0-1.7,1.4-3.1,3.1-3.1s3.1,1.4,3.1,3.1
		C387.3,640.8,385.9,642.2,384.1,642.2z"/>
	<path class="st14" d="M384.1,651.6L384.1,651.6c-3.5,0-6.3-2.8-6.3-6.3v-4.7c0-0.9,0.7-1.6,1.6-1.6h9.4c0.9,0,1.6,0.7,1.6,1.6v4.7
		C390.4,648.8,387.6,651.6,384.1,651.6z"/>
	<path class="st15" d="M385.4,644c0-0.7-0.6-1.3-1.3-1.3c-0.7,0-1.3,0.6-1.3,1.3c0,0.4,0.2,0.7,0.5,1v2.7h1.6V645
		C385.2,644.7,385.4,644.4,385.4,644z"/>
</g>
<rect x="71.9" y="613.3" class="st9" width="124.7" height="42.1"/>
<rect x="223" y="613.3" class="st17" width="124.7" height="42.1"/>
<rect x="374.3" y="613.3" class="st18" width="124.7" height="42.1"/>
<g>
	<g>
		<line class="st24" x1="83.2" y1="624.9" x2="193.4" y2="624.9"/>
		<g>
			<path d="M76,624.9c3.4,1.3,7.6,3.4,10.3,5.7l-2.1-5.7l2.1-5.7C83.6,621.5,79.4,623.6,76,624.9z"/>
		</g>
	</g>
</g>
<g>
	<g>
		<line class="st24" x1="233.8" y1="624.9" x2="344" y2="624.9"/>
		<g>
			<path d="M226.6,624.9c3.4,1.3,7.6,3.4,10.3,5.7l-2.1-5.7l2.1-5.7C234.2,621.5,230,623.6,226.6,624.9z"/>
		</g>
	</g>
</g>
<g>
	<g>
		<line class="st24" x1="385.1" y1="624.9" x2="495.3" y2="624.9"/>
		<g>
			<path d="M377.9,624.9c3.4,1.3,7.6,3.4,10.3,5.7l-2.1-5.7l2.1-5.7C385.5,621.5,381.3,623.6,377.9,624.9z"/>
		</g>
	</g>
</g>
<rect x="68.7" y="609.9" class="st17" width="132.1" height="71.4"/>
<rect x="219.3" y="609.9" class="st18" width="132.1" height="71.4"/>
<rect x="65" y="606.2" class="st18" width="140" height="100"/>
<line class="st25" x1="224.9" y1="624.9" x2="194.6" y2="624.9"/>
<line class="st25" x1="376" y1="624.9" x2="345.7" y2="624.9"/>
<g>
	<g>
		<line class="st24" x1="536.3" y1="624.9" x2="644.1" y2="624.9"/>
		<g>
			<path d="M529,624.9c3.4,1.3,7.6,3.4,10.3,5.7l-2.1-5.7l2.1-5.7C536.7,621.5,532.5,623.6,529,624.9z"/>
		</g>
	</g>
</g>
<line class="st25" x1="527.2" y1="624.9" x2="496.9" y2="624.9"/>
<g>
	<circle class="st26" cx="674" cy="624.9" r="21.6"/>
	<ellipse class="st27" cx="674" cy="624.9" rx="12.3" ry="21.6"/>
	<line class="st26" x1="674" y1="603.3" x2="674" y2="646.5"/>
	<line class="st27" x1="652.4" y1="624.9" x2="695.6" y2="624.9"/>
	<line class="st27" x1="655.8" y1="636.5" x2="692.7" y2="636.5"/>
	<line class="st27" x1="692.7" y1="614.1" x2="655.8" y2="614.1"/>
</g>
<g>
	<g class="st1">
		<path d="M347.8,13.4c0-0.4,0-0.5-0.4-0.5h-1c-1.2,0-1.5,0.6-2,1.8c-0.2,0.1-0.5,0.1-0.6-0.1c0.3-1.1,0.4-2.1,0.5-2.7
			c0.1,0,0.1-0.1,0.2-0.1s0.2,0,0.2,0.1c0.1,0.3,0.1,0.3,1.3,0.3h6c1.1,0,1.3,0,1.4-0.4c0.1,0,0.1,0,0.2,0c0.1,0,0.2,0.1,0.2,0.1
			c-0.2,0.5-0.3,1.8-0.2,2.8c-0.1,0.1-0.5,0.2-0.6,0c-0.3-1-0.5-1.8-1.7-1.8h-1c-0.4,0-0.4,0-0.4,0.5v7.1c0,1.5,0.1,1.6,0.8,1.7
			l0.6,0.1c0.1,0.1,0.1,0.5,0,0.6c-1,0-1.8,0-2.6,0c-0.8,0-1.6,0-2.7,0c-0.1-0.1-0.1-0.5,0-0.6l0.7-0.1c0.7-0.1,0.8-0.2,0.8-1.7
			V13.4z"/>
		<path d="M365.4,17.4c0,3.5-2.3,5.6-5.8,5.6c-3.2,0-5.6-2.1-5.6-5.5c0-3.2,2.4-5.6,5.7-5.6C363.2,11.9,365.4,14.1,365.4,17.4z
			 M359.7,12.6c-2,0-3,1.8-3,4.5c0,2,0.7,5.1,3.3,5.1c2.1,0,2.9-2,2.9-4.6C362.9,14.9,361.7,12.6,359.7,12.6z"/>
		<path d="M367.9,14.7c0-1.6,0-1.8-0.7-1.9l-0.4-0.1c-0.2-0.1-0.2-0.5,0-0.6c1.2-0.1,2.4-0.1,4-0.1c1.4,0,2.5,0.2,3.1,0.6
			c0.9,0.5,1.4,1.3,1.4,2.4c0,1.4-1,2-1.7,2.4c-0.2,0.1-0.2,0.2-0.1,0.4c1.1,2.1,1.7,3.3,2.5,4c0.4,0.3,0.8,0.4,1.1,0.4
			c0.1,0.1,0.1,0.3,0.1,0.4c-0.3,0.1-0.8,0.1-1.3,0.1c-1.5,0-2.4-0.5-3.1-1.7c-0.5-0.8-0.9-1.6-1.2-2.5c-0.2-0.4-0.4-0.6-0.8-0.6
			c-0.6,0-0.6,0-0.6,0.4v2c0,1.5,0.1,1.6,0.8,1.7l0.4,0.1c0.1,0.1,0.1,0.5,0,0.6c-0.8,0-1.6,0-2.4,0c-0.8,0-1.5,0-2.3,0
			c-0.1-0.1-0.1-0.5,0-0.6l0.4-0.1c0.7-0.1,0.8-0.2,0.8-1.7V14.7z M370.1,16.8c0,0.6,0,0.6,1,0.6c0.6,0,0.9-0.1,1.2-0.4
			c0.3-0.3,0.6-0.8,0.6-1.7c0-1.4-0.8-2.4-2.1-2.4c-0.7,0-0.7,0-0.7,0.8V16.8z"/>
	</g>
</g>
<polyline class="st5" points="334.3,17.3 127.4,17.3 127.4,35.5 "/>
<polyline class="st5" points="389.2,17.3 596.1,17.3 596.1,35.5 "/>
</svg>
