<?xml version="1.0" encoding="utf-8"?>
<!-- Generator: Adobe Illustrator 22.1.0, SVG Export Plug-In . SVG Version: 6.00 Build 0)  -->
<svg version="1.1" id="Layer_1" xmlns="http://www.w3.org/2000/svg" xmlns:xlink="http://www.w3.org/1999/xlink" x="0px" y="0px"
	 viewBox="0 0 720 540" style="enable-background:new 0 0 720 540;" xml:space="preserve">
<style type="text/css">
	.st0{fill:#00A0FA;stroke:#245A80;stroke-width:0.5;stroke-miterlimit:10;}
	.st1{fill:#A0FA82;stroke:#617D46;stroke-width:0.5;stroke-miterlimit:10;}
	.st2{fill:#FA7850;stroke:#8E432A;stroke-width:0.5;stroke-miterlimit:10;}
	.st3{fill:#F0F032;stroke:#87881F;stroke-width:0.5;stroke-miterlimit:10;}
	.st4{fill:#005AC8;stroke:#153267;stroke-width:0.5;stroke-miterlimit:10;}
	.st5{fill:#AA0A3C;stroke:#5C0015;stroke-width:0.5;stroke-miterlimit:10;}
	.st6{fill:#006E82;stroke:#000000;stroke-width:0.5;stroke-miterlimit:10;}
	.st7{fill:#AEA389;stroke:#000000;stroke-width:0.5;stroke-miterlimit:10;}
	.st8{fill:none;stroke:#000000;stroke-width:0.5;stroke-miterlimit:10;}
	.st9{fill:#FBB03B;stroke:#91661B;stroke-width:0.5;stroke-miterlimit:10;}
	.st10{fill:#0AB45A;stroke:#006B33;stroke-width:0.5;stroke-miterlimit:10;}
	.st11{fill:#8CC63F;stroke:#4C7521;stroke-width:0.5;stroke-miterlimit:10;}
	.st12{fill:#736357;stroke:#000000;stroke-width:0.5;stroke-miterlimit:10;}
	.st13{fill:none;stroke:#000000;stroke-miterlimit:10;}
	.st14{fill:none;stroke:#000000;stroke-width:0.75;stroke-miterlimit:10;}
	.st15{fill:#006E82;stroke:#003B48;stroke-width:0.5;stroke-miterlimit:10;}
	.st16{fill:#AEA389;stroke:#656050;stroke-width:0.5;stroke-miterlimit:10;}
</style>
<g>
	<path class="st0" d="M555,246.5"/>
	<path class="st0" d="M582,207.5v24c0,5-12.1,9-27,9c-14.9,0-27-4-27-9v-24"/>
	<ellipse class="st0" cx="555" cy="207.5" rx="27" ry="9"/>
</g>
<g>
	<path class="st1" d="M159,355.3"/>
	<path class="st1" d="M186,316.3v24c0,5-12.1,9-27,9s-27-4-27-9v-24"/>
	<ellipse class="st1" cx="159" cy="316.3" rx="27" ry="9"/>
</g>
<g>
	<path class="st2" d="M159,246.5"/>
	<path class="st2" d="M186,207.5v24c0,5-12.1,9-27,9s-27-4-27-9v-24"/>
	<ellipse class="st2" cx="159" cy="207.5" rx="27" ry="9"/>
</g>
<g>
	<path class="st1" d="M555,353.9"/>
	<path class="st1" d="M582,314.9v24c0,5-12.1,9-27,9c-14.9,0-27-4-27-9v-24"/>
	<ellipse class="st1" cx="555" cy="314.9" rx="27" ry="9"/>
</g>
<g>
	<path class="st3" d="M555,133.9"/>
	<path class="st3" d="M582,106.9v12c0,5-12.1,9-27,9c-14.9,0-27-4-27-9v-12"/>
	<ellipse class="st3" cx="555" cy="106.9" rx="27" ry="9"/>
</g>
<g>
	<path class="st3" d="M159,133.9"/>
	<path class="st3" d="M186,106.9v12c0,5-12.1,9-27,9s-27-4-27-9v-12"/>
	<ellipse class="st3" cx="159" cy="106.9" rx="27" ry="9"/>
</g>
<g>
	<path class="st4" d="M555,179.1"/>
	<path class="st4" d="M582,152.1v12c0,5-12.1,9-27,9c-14.9,0-27-4-27-9v-12"/>
	<ellipse class="st4" cx="555" cy="152.1" rx="27" ry="9"/>
</g>
<g>
	<path class="st4" d="M555,398.1"/>
	<path class="st4" d="M582,371.1v12c0,5-12.1,9-27,9s-27-4-27-9v-12"/>
	<ellipse class="st4" cx="555" cy="371.1" rx="27" ry="9"/>
</g>
<g>
	<path class="st5" d="M159,179.1"/>
	<path class="st5" d="M186,152.1v12c0,5-12.1,9-27,9s-27-4-27-9v-12"/>
	<ellipse class="st5" cx="159" cy="152.1" rx="27" ry="9"/>
</g>
<g>
	<path class="st5" d="M159,399.7"/>
	<path class="st5" d="M186,372.7v12c0,5-12.1,9-27,9s-27-4-27-9v-12"/>
	<ellipse class="st5" cx="159" cy="372.7" rx="27" ry="9"/>
</g>
<g>
	<path class="st6" d="M555,442.4"/>
	<path class="st6" d="M582,415.4v36c0,5-12.1,9-27,9c-14.9,0-27-4-27-9v-36"/>
	<ellipse class="st6" cx="555" cy="415.4" rx="27" ry="9"/>
</g>
<g>
	<path class="st7" d="M159,444"/>
	<path class="st7" d="M186,417v36c0,5-12.1,9-27,9s-27-4-27-9v-36"/>
	<ellipse class="st7" cx="159" cy="417" rx="27" ry="9"/>
</g>
<g>
	<ellipse class="st8" cx="555" cy="302.9" rx="27" ry="9"/>
	<path class="st8" d="M555,329.9"/>
	<path class="st8" d="M582,302.9v36c0,5-12.1,9-27,9c-14.9,0-27-4-27-9v-36"/>
</g>
<g>
	<ellipse class="st8" cx="555" cy="83" rx="27" ry="9"/>
	<path class="st8" d="M555,110"/>
	<path class="st8" d="M582,83v36c0,5-12.1,9-27,9c-14.9,0-27-4-27-9V83"/>
</g>
<g>
	<ellipse class="st8" cx="555" cy="195.5" rx="27" ry="9"/>
	<path class="st8" d="M555,222.5"/>
	<path class="st8" d="M582,195.5v36c0,5-12.1,9-27,9c-14.9,0-27-4-27-9v-36"/>
</g>
<g>
	<ellipse class="st8" cx="159" cy="83" rx="27" ry="9"/>
	<path class="st8" d="M159,110"/>
	<path class="st8" d="M186,83v36c0,5-12.1,9-27,9s-27-4-27-9V83"/>
</g>
<g>
	<ellipse class="st8" cx="159" cy="195.5" rx="27" ry="9"/>
	<path class="st8" d="M159,222.5"/>
	<path class="st8" d="M186,195.5v36c0,5-12.1,9-27,9s-27-4-27-9v-36"/>
</g>
<g>
	<ellipse class="st8" cx="159" cy="304.5" rx="27" ry="9"/>
	<path class="st8" d="M159,331.5"/>
	<path class="st8" d="M186,304.5v36c0,5-12.1,9-27,9s-27-4-27-9v-36"/>
</g>
<g>
	<path d="M144,50.5c-0.3,0-0.4,0-0.5,0.3l-0.5,1.6c-0.1,0.3-0.1,0.4-0.1,0.5c0,0.1,0.2,0.2,0.6,0.2l0.4,0.1c0.1,0.1,0.1,0.4,0,0.5
		c-0.5,0-1,0-1.6,0c-0.5,0-0.8,0-1.4,0c-0.2-0.1-0.1-0.4,0-0.5l0.4,0c0.3,0,0.6-0.2,0.9-0.7c0.2-0.6,0.5-1.2,0.9-2.2l1.3-3.4
		c0.3-0.9,0.6-1.4,0.5-1.8c0.7-0.2,1.2-0.8,1.2-0.8c0.2,0,0.3,0.1,0.3,0.3c0.1,0.4,0.3,0.9,0.6,1.9l1.9,5.5c0.3,0.8,0.4,1.2,0.9,1.2
		l0.5,0.1c0.1,0.1,0.1,0.4,0,0.5c-0.7,0-1.4,0-2.2,0c-0.7,0-1.2,0-1.9,0c-0.2-0.1-0.2-0.4,0-0.5l0.4-0.1c0.3-0.1,0.4-0.2,0.4-0.2
		c0-0.1-0.1-0.4-0.3-1l-0.4-1.2c-0.1-0.2-0.2-0.3-0.7-0.3H144z M145.6,49.8c0.3,0,0.4,0,0.3-0.4l-0.4-1.1c-0.2-0.6-0.4-1.4-0.6-1.7
		c-0.1,0.3-0.4,1.1-0.6,1.7l-0.4,1.1c-0.1,0.4-0.1,0.4,0.3,0.4H145.6z"/>
	<path d="M150.5,53.5c-0.2-0.3-0.3-1-0.2-1.6c0.1-0.1,0.4-0.2,0.5,0c0.2,0.6,0.7,1.4,1.4,1.4c0.4,0,0.7-0.3,0.7-0.7
		c0-0.5-0.4-0.8-0.9-1.1c-0.8-0.4-1.4-0.9-1.4-1.8c0-1.2,1-1.8,2.2-1.8c0.7,0,1.3,0.2,1.5,0.3c0.1,0.3,0.2,0.9,0.2,1.4
		c-0.1,0.2-0.4,0.2-0.5,0.1c-0.3-0.8-0.6-1.1-1.1-1.1c-0.4,0-0.7,0.2-0.7,0.6c0,0.3,0.3,0.6,0.9,0.9c1,0.5,1.5,1.1,1.5,2
		c0,1.2-1.1,1.9-2.4,1.9C151.4,53.9,150.9,53.7,150.5,53.5z"/>
	<path d="M155.5,53.5c-0.2-0.3-0.3-1-0.2-1.6c0.1-0.1,0.4-0.2,0.5,0c0.2,0.6,0.7,1.4,1.4,1.4c0.4,0,0.7-0.3,0.7-0.7
		c0-0.5-0.4-0.8-0.9-1.1c-0.8-0.4-1.4-0.9-1.4-1.8c0-1.2,1-1.8,2.2-1.8c0.7,0,1.3,0.2,1.5,0.3c0.1,0.3,0.2,0.9,0.2,1.4
		c-0.1,0.2-0.4,0.2-0.5,0.1c-0.3-0.8-0.6-1.1-1.1-1.1c-0.4,0-0.7,0.2-0.7,0.6c0,0.3,0.3,0.6,0.9,0.9c1,0.5,1.5,1.1,1.5,2
		c0,1.2-1.1,1.9-2.4,1.9C156.4,53.9,155.9,53.7,155.5,53.5z"/>
	<path d="M165.2,51.8c-0.1,1,0.4,1.2,0.6,1.2c0.2,0,0.3,0,0.5-0.2c0.1,0,0.2,0.2,0.2,0.3c-0.2,0.2-0.8,0.8-1.6,0.8
		c-0.5,0-0.8-0.2-1.2-0.5c-0.1-0.1-0.2-0.1-0.2-0.1c-0.1,0-0.2,0.1-0.3,0.2c-0.3,0.2-0.7,0.4-1.2,0.4c-0.8,0-1.6-0.5-1.6-1.5
		c0-0.7,0.4-1.1,1.5-1.5c0.5-0.2,0.9-0.3,1.3-0.4c0.3-0.1,0.3-0.2,0.3-0.3c0-0.2,0-0.3,0-0.5c0-0.5-0.2-1.2-0.8-1.2
		c-0.3,0-0.6,0.2-0.7,0.8c0,0.2-0.1,0.4-0.2,0.4c-0.2,0.2-0.8,0.3-1,0.3c-0.2,0-0.3-0.2-0.3-0.4c0-0.4,0.3-0.8,0.7-1.1
		c0.5-0.4,1.4-0.9,2.4-0.9c1.2,0,1.9,0.6,1.8,2L165.2,51.8z M163.5,51.4c0-0.2,0-0.3-0.1-0.3c-0.6,0.1-1.2,0.3-1.2,1
		c0,0.4,0.3,0.8,0.7,0.8c0.4,0,0.5-0.3,0.5-0.7L163.5,51.4z"/>
	<path d="M169.3,48.8c-0.2,0-0.2,0-0.2,0.3v2.1c0,0.8,0,1.7,1,1.7c0.2,0,0.4-0.1,0.6-0.2c0.1,0,0.2,0.2,0.2,0.4
		c-0.4,0.4-1.1,0.8-2,0.8c-1.2,0-1.6-0.7-1.6-1.6v-3.1c0-0.3,0-0.3-0.3-0.3h-0.4c-0.2-0.1-0.2-0.3-0.1-0.4c0.4-0.2,0.8-0.4,1.2-0.6
		c0.3-0.2,0.6-0.5,1-1.1c0.1-0.1,0.4,0,0.4,0.1v1.1c0,0.3,0,0.3,0.3,0.3h1.2c0.1,0.1,0.1,0.1,0.1,0.3c0,0.2,0,0.4-0.2,0.5H169.3z"/>
	<path d="M175.9,51.8c-0.1,1,0.3,1.2,0.6,1.2c0.2,0,0.3,0,0.5-0.2c0.1,0,0.2,0.2,0.2,0.3c-0.2,0.2-0.8,0.8-1.6,0.8
		c-0.5,0-0.8-0.2-1.2-0.5c-0.1-0.1-0.2-0.1-0.2-0.1s-0.2,0.1-0.3,0.2c-0.3,0.2-0.7,0.4-1.2,0.4c-0.8,0-1.6-0.5-1.6-1.5
		c0-0.7,0.4-1.1,1.5-1.5c0.5-0.2,0.9-0.3,1.3-0.4c0.3-0.1,0.3-0.2,0.3-0.3c0-0.2,0-0.3,0-0.5c0-0.5-0.2-1.2-0.8-1.2
		c-0.3,0-0.6,0.2-0.7,0.8c0,0.2-0.1,0.4-0.2,0.4c-0.2,0.2-0.8,0.3-1,0.3c-0.2,0-0.3-0.2-0.3-0.4c0-0.4,0.3-0.8,0.7-1.1
		c0.5-0.4,1.4-0.9,2.4-0.9c1.2,0,1.9,0.6,1.8,2L175.9,51.8z M174.2,51.4c0-0.2,0-0.3-0.1-0.3c-0.6,0.1-1.2,0.3-1.2,1
		c0,0.4,0.3,0.8,0.7,0.8c0.4,0,0.5-0.3,0.5-0.7L174.2,51.4z"/>
</g>
<g>
	<path d="M537.8,46.7c0-1.4,0-1.6-0.6-1.6l-0.4-0.1c-0.1-0.1-0.2-0.5,0.1-0.5c1.1-0.1,2.1-0.1,3.5-0.1c1.3,0,2.2,0.2,2.9,0.5
		c0.6,0.4,1,1,1,1.8c0,1.2-1,1.6-1.4,1.8c-0.1,0-0.3,0.1-0.3,0.2c0,0,0.1,0.1,0.2,0.1c1.1,0.2,2,1,2.1,2.3c0,1.3-0.8,2-1.6,2.4
		c-0.9,0.3-1.9,0.4-2.8,0.4c-0.5,0-1-0.1-1.4-0.1c-0.7,0-1.4,0-2.2,0c-0.1-0.1-0.1-0.4,0-0.5l0.4-0.1c0.6-0.1,0.7-0.2,0.7-1.5V46.7z
		 M539.7,48.1c0,0.4,0,0.4,0.7,0.4c1.2,0,1.7-0.8,1.7-1.6c0-1.2-0.8-1.8-1.7-1.8c-0.7,0-0.7,0.1-0.7,0.7V48.1z M539.7,51.3
		c0,1.1,0.1,1.8,1.2,1.8c1,0,1.6-0.8,1.6-1.9c0-1.2-0.7-2.1-2-2.1c-0.8,0-0.8,0-0.8,0.6V51.3z"/>
	<path d="M545.6,51c0-2,1.6-3.1,3.2-3.1c1.7,0,3.1,1,3.1,3c0,2-1.5,3-3.2,3C547.1,53.9,545.6,52.9,545.6,51z M547.6,50.7
		c0,1.5,0.5,2.5,1.3,2.5c0.8,0,1.1-0.9,1.1-2.2c0-1.4-0.4-2.5-1.2-2.5C548.1,48.5,547.6,49.2,547.6,50.7z"/>
	<path d="M555.2,47.9c0,0.2,0.1,0.3,0.2,0.4c0.4-0.2,0.9-0.4,1.5-0.4c1.6,0,2.6,1.2,2.6,2.8c0,2-1.4,3.2-3.4,3.2
		c-0.6,0-1.2-0.1-1.5-0.3c-0.2-0.1-0.3-0.1-0.4-0.1c-0.1,0-0.4,0.1-0.5,0.2c-0.1,0-0.2,0-0.3-0.1c0-0.2,0-0.7,0-1.4v-6.3
		c0-0.6,0-0.7-0.3-0.9l-0.2-0.1c-0.1-0.1-0.1-0.3,0-0.4c0.6-0.1,1.4-0.5,2.2-0.8c0.1,0,0.2,0,0.2,0.1c0,0.6-0.1,1.2-0.1,2V47.9z
		 M555.2,51.7c0,0.4,0.1,0.7,0.3,1.1c0.2,0.3,0.5,0.5,0.8,0.5c0.9,0,1.2-1,1.2-2.1c0-1.4-0.7-2.4-1.7-2.4c-0.3,0-0.4,0.1-0.6,0.2
		c-0.1,0.1-0.1,0.3-0.1,0.6V51.7z"/>
	<path d="M562.6,47.9c0,0.2,0.1,0.3,0.2,0.4c0.4-0.2,0.9-0.4,1.5-0.4c1.6,0,2.6,1.2,2.6,2.8c0,2-1.4,3.2-3.4,3.2
		c-0.6,0-1.2-0.1-1.5-0.3c-0.2-0.1-0.3-0.1-0.4-0.1c-0.1,0-0.4,0.1-0.5,0.2c-0.1,0-0.2,0-0.3-0.1c0-0.2,0-0.7,0-1.4v-6.3
		c0-0.6,0-0.7-0.3-0.9l-0.2-0.1c-0.1-0.1-0.1-0.3,0-0.4c0.6-0.1,1.4-0.5,2.2-0.8c0.1,0,0.2,0,0.2,0.1c0,0.6-0.1,1.2-0.1,2V47.9z
		 M562.6,51.7c0,0.4,0.1,0.7,0.3,1.1c0.2,0.3,0.5,0.5,0.8,0.5c0.9,0,1.2-1,1.2-2.1c0-1.4-0.7-2.4-1.7-2.4c-0.3,0-0.4,0.1-0.6,0.2
		c-0.1,0.1-0.1,0.3-0.1,0.6V51.7z"/>
	<path d="M567.1,48.5c-0.1-0.1-0.1-0.4,0-0.5c0.5,0,1.1,0,1.8,0c0.5,0,1.1,0,1.6,0c0.1,0.1,0.2,0.4,0,0.5l-0.3,0.1
		c-0.4,0.1-0.4,0.1-0.4,0.3c0,0.2,0.2,0.5,0.4,1.2c0.2,0.4,0.5,1.2,0.6,1.6c0.2-0.3,0.3-0.6,0.4-0.9l0.3-0.6
		c0.3-0.7,0.5-1.3,0.5-1.4c0-0.1-0.1-0.2-0.3-0.2l-0.3-0.1c-0.1-0.1-0.1-0.4,0-0.5c0.3,0,0.7,0,1.4,0c0.4,0,0.7,0,1.1,0
		c0.1,0.1,0.2,0.4,0,0.5l-0.3,0c-0.3,0-0.5,0.1-0.6,0.3c-0.2,0.2-0.5,0.8-0.8,1.5l-0.7,1.5l-2.1,4.4c-0.3,0.6-0.7,0.9-1.2,0.9
		c-0.8,0-0.9-0.5-0.9-0.8c0-0.4,0.3-0.7,0.8-0.7h0.3c0.3,0,0.5-0.1,0.7-0.3c0.2-0.2,0.3-0.5,0.4-0.8c0.1-0.2,0.2-0.4,0.2-0.6
		c0-0.2,0-0.4-0.3-1l-1.3-3.4c-0.3-0.7-0.4-0.9-0.8-1L567.1,48.5z"/>
</g>
<g>
	<path d="M552.6,399.5v-0.9h4.8v0.9H552.6z M552.6,401.2v-0.9h4.8v0.9H552.6z"/>
</g>
<g>
	<path d="M552.6,179.6v-0.9h4.8v0.9H552.6z M552.6,181.4v-0.9h4.8v0.9H552.6z"/>
</g>
<g>
	<path d="M156.6,179.6v-0.9h4.8v0.9H156.6z M156.6,181.4v-0.9h4.8v0.9H156.6z"/>
</g>
<g>
	<path d="M156.6,401.1v-0.9h4.8v0.9H156.6z M156.6,402.8V402h4.8v0.9H156.6z"/>
</g>
<g>
	<path d="M601.1,113.7c0-0.6,0-0.7-0.3-0.9l-0.2-0.1c-0.1-0.1-0.1-0.3,0-0.4c0.6-0.2,1.6-0.6,2-0.9c0.1,0,0.2,0,0.3,0.2
		c0,0.2,0,0.3,0,0.5c0,0.1,0.1,0.2,0.1,0.2c0.4-0.2,1-0.6,1.8-0.6c1.5,0,2.4,1.2,2.4,2.7c0,2-1.4,3.3-3.4,3.3c-0.2,0-0.5,0-0.6,0
		c-0.1,0-0.2,0.1-0.2,0.4v1.4c0,1,0.1,1.1,0.5,1.1l0.5,0c0.1,0.1,0.1,0.4,0,0.5c-0.7,0-1.3,0-1.9,0c-0.6,0-1.2,0-1.7,0
		c-0.1-0.1-0.1-0.4,0-0.5l0.3,0c0.5,0,0.5-0.2,0.5-1.1V113.7z M602.9,115.8c0,0.3,0.1,0.6,0.3,0.8c0.2,0.2,0.4,0.3,0.7,0.3
		c0.9,0,1.3-0.9,1.3-2.2c0-1.4-0.7-2.2-1.6-2.2c-0.2,0-0.5,0.1-0.6,0.2c-0.1,0.1-0.2,0.3-0.2,0.8V115.8z"/>
</g>
<g>
	<path d="M107.5,113.7c0-0.6,0-0.7-0.3-0.9l-0.2-0.1c-0.1-0.1-0.1-0.3,0-0.4c0.6-0.2,1.6-0.6,2-0.9c0.1,0,0.2,0,0.3,0.2
		c0,0.2,0,0.3,0,0.5c0,0.1,0.1,0.2,0.1,0.2c0.4-0.2,1-0.6,1.8-0.6c1.5,0,2.4,1.2,2.4,2.7c0,2-1.4,3.3-3.4,3.3c-0.2,0-0.5,0-0.6,0
		c-0.1,0-0.2,0.1-0.2,0.4v1.4c0,1,0.1,1.1,0.5,1.1l0.5,0c0.1,0.1,0.1,0.4,0,0.5c-0.7,0-1.3,0-1.9,0c-0.6,0-1.2,0-1.7,0
		c-0.1-0.1-0.1-0.4,0-0.5l0.3,0c0.5,0,0.5-0.2,0.5-1.1V113.7z M109.3,115.8c0,0.3,0.1,0.6,0.3,0.8c0.2,0.2,0.4,0.3,0.7,0.3
		c0.9,0,1.3-0.9,1.3-2.2c0-1.4-0.7-2.2-1.6-2.2c-0.2,0-0.5,0.1-0.6,0.2c-0.1,0.1-0.2,0.3-0.2,0.8V115.8z"/>
</g>
<g>
	<path d="M601.1,220.3c0-0.6,0-0.7-0.3-0.9l-0.2-0.1c-0.1-0.1-0.1-0.3,0-0.4c0.6-0.2,1.6-0.6,2-0.9c0.1,0,0.2,0,0.3,0.2
		c0,0.2,0,0.3,0,0.5c0,0.1,0.1,0.2,0.1,0.2c0.4-0.2,1-0.6,1.8-0.6c1.5,0,2.4,1.2,2.4,2.7c0,2-1.4,3.3-3.4,3.3c-0.2,0-0.5,0-0.6,0
		c-0.1,0-0.2,0.1-0.2,0.4v1.4c0,1,0.1,1.1,0.5,1.1l0.5,0c0.1,0.1,0.1,0.4,0,0.5c-0.7,0-1.3,0-1.9,0c-0.6,0-1.2,0-1.7,0
		c-0.1-0.1-0.1-0.4,0-0.5l0.3,0c0.5,0,0.5-0.2,0.5-1.1V220.3z M602.9,222.4c0,0.3,0.1,0.6,0.3,0.8c0.2,0.2,0.4,0.3,0.7,0.3
		c0.9,0,1.3-0.9,1.3-2.2c0-1.4-0.7-2.2-1.6-2.2c-0.2,0-0.5,0.1-0.6,0.2c-0.1,0.1-0.2,0.3-0.2,0.8V222.4z"/>
	<path d="M623.8,218.2c0,0.2,0.1,0.3,0.2,0.4c0.4-0.2,0.9-0.4,1.5-0.4c1.6,0,2.6,1.2,2.6,2.8c0,2-1.4,3.2-3.4,3.2
		c-0.6,0-1.2-0.1-1.5-0.3c-0.2-0.1-0.3-0.1-0.4-0.1c-0.1,0-0.4,0.1-0.5,0.2c-0.1,0-0.2,0-0.3-0.1c0-0.2,0-0.7,0-1.4v-6.3
		c0-0.6,0-0.7-0.3-0.9l-0.2-0.1c-0.1-0.1-0.1-0.3,0-0.4c0.6-0.1,1.4-0.5,2.2-0.8c0.1,0,0.2,0,0.2,0.1c0,0.6-0.1,1.2-0.1,2V218.2z
		 M623.8,222c0,0.4,0.1,0.7,0.3,1.1c0.2,0.3,0.5,0.5,0.8,0.5c0.9,0,1.2-1,1.2-2.1c0-1.4-0.7-2.4-1.7-2.4c-0.3,0-0.4,0.1-0.6,0.2
		c-0.1,0.1-0.1,0.3-0.1,0.6V222z"/>
</g>
<g>
	<path d="M602.7,156.8c0,0.2,0.1,0.3,0.2,0.4c0.4-0.2,0.9-0.4,1.5-0.4c1.6,0,2.6,1.2,2.6,2.8c0,2-1.4,3.2-3.4,3.2
		c-0.6,0-1.2-0.1-1.5-0.3c-0.2-0.1-0.3-0.1-0.4-0.1c-0.1,0-0.4,0.1-0.5,0.2c-0.1,0-0.2,0-0.3-0.1c0-0.2,0-0.7,0-1.4v-6.3
		c0-0.6,0-0.7-0.3-0.9l-0.2-0.1c-0.1-0.1-0.1-0.3,0-0.4c0.6-0.1,1.4-0.5,2.2-0.8c0.1,0,0.2,0,0.2,0.1c0,0.6-0.1,1.2-0.1,2V156.8z
		 M602.7,160.6c0,0.4,0.1,0.7,0.3,1.1c0.2,0.3,0.5,0.5,0.8,0.5c0.9,0,1.2-1,1.2-2.1c0-1.4-0.7-2.4-1.7-2.4c-0.3,0-0.4,0.1-0.6,0.2
		c-0.1,0.1-0.1,0.3-0.1,0.6V160.6z"/>
</g>
<g>
	<path d="M601,330.8c0-0.6,0-0.7-0.3-0.9l-0.2-0.1c-0.1-0.1-0.1-0.3,0-0.4c0.6-0.2,1.6-0.6,2-0.9c0.1,0,0.2,0,0.3,0.2
		c0,0.2,0,0.3,0,0.5c0,0.1,0.1,0.2,0.1,0.2c0.4-0.2,1-0.6,1.8-0.6c1.5,0,2.4,1.2,2.4,2.7c0,2-1.4,3.3-3.4,3.3c-0.2,0-0.5,0-0.6,0
		c-0.1,0-0.2,0.1-0.2,0.4v1.4c0,1,0.1,1.1,0.5,1.1l0.5,0c0.1,0.1,0.1,0.4,0,0.5c-0.7,0-1.3,0-1.9,0c-0.6,0-1.2,0-1.7,0
		c-0.1-0.1-0.1-0.4,0-0.5l0.3,0c0.5,0,0.5-0.2,0.5-1.1V330.8z M602.9,332.9c0,0.3,0.1,0.6,0.3,0.8c0.2,0.2,0.4,0.3,0.7,0.3
		c0.9,0,1.3-0.9,1.3-2.2c0-1.4-0.7-2.2-1.6-2.2c-0.2,0-0.5,0.1-0.6,0.2c-0.1,0.1-0.2,0.3-0.2,0.8V332.9z"/>
	<path d="M623.5,331.2c-0.3,0-0.4,0-0.4,0.3c0,1.1,0.7,2.1,2,2.1c0.4,0,0.9-0.1,1.3-0.7c0.2,0,0.4,0.1,0.4,0.3
		c-0.6,1.2-1.6,1.6-2.5,1.6c-1.9,0-2.9-1.3-2.9-2.9c0-1.8,1.3-3.1,3-3.1c1.5,0,2.2,0.9,2.2,2c0,0.3-0.1,0.5-0.5,0.5H623.5z
		 M624.4,330.6c0.2,0,0.4,0,0.6-0.1c0.1,0,0.1-0.2,0.1-0.3c0-0.5-0.3-0.8-0.7-0.8c-0.6,0-1.1,0.6-1.1,1c0,0.2,0.2,0.2,0.6,0.2H624.4
		z"/>
</g>
<g>
	<path d="M604.6,384.5c0,0.1-0.1,0.3-0.2,0.3c-2.2-1.2-3.2-3.7-3.2-6.1c0-2.4,1-4.9,3.2-6.1c0.2,0,0.2,0.1,0.2,0.3
		c-1.5,1.4-2.1,3.8-2.1,5.8S603.1,383.2,604.6,384.5z"/>
	<path d="M605.8,378.8c0-0.6,0-0.7-0.3-0.9l-0.2-0.1c-0.1-0.1-0.1-0.3,0-0.4c0.6-0.2,1.6-0.6,2-0.9c0.1,0,0.2,0,0.3,0.2
		c0,0.2,0,0.3,0,0.5c0,0.1,0.1,0.2,0.1,0.2c0.4-0.2,1-0.6,1.8-0.6c1.5,0,2.4,1.2,2.4,2.7c0,2-1.4,3.3-3.4,3.3c-0.2,0-0.5,0-0.6,0
		c-0.1,0-0.2,0.1-0.2,0.4v1.4c0,1,0.1,1.1,0.5,1.1l0.5,0c0.1,0.1,0.1,0.4,0,0.5c-0.7,0-1.3,0-1.9,0c-0.6,0-1.2,0-1.7,0
		c-0.1-0.1-0.1-0.4,0-0.5l0.3,0c0.5,0,0.5-0.2,0.5-1.1V378.8z M607.6,380.9c0,0.3,0.1,0.6,0.3,0.8c0.2,0.2,0.4,0.3,0.7,0.3
		c0.9,0,1.3-0.9,1.3-2.2c0-1.4-0.7-2.2-1.6-2.2c-0.2,0-0.5,0.1-0.6,0.2c-0.1,0.1-0.2,0.3-0.2,0.8V380.9z"/>
	<path d="M628.3,379.2c-0.3,0-0.4,0-0.4,0.3c0,1.1,0.7,2.1,2,2.1c0.4,0,0.9-0.1,1.3-0.7c0.2,0,0.4,0.1,0.4,0.3
		c-0.6,1.2-1.6,1.6-2.5,1.6c-1.9,0-2.9-1.3-2.9-2.9c0-1.8,1.3-3.1,3-3.1c1.5,0,2.2,0.9,2.2,2c0,0.3-0.1,0.5-0.5,0.5H628.3z
		 M629.2,378.6c0.2,0,0.4,0,0.6-0.1c0.1,0,0.1-0.2,0.1-0.3c0-0.5-0.3-0.8-0.7-0.8c-0.6,0-1.1,0.6-1.1,1c0,0.2,0.2,0.2,0.6,0.2H629.2
		z"/>
	<path d="M631.8,372.9c0-0.1,0.1-0.3,0.2-0.3c2.2,1.2,3.2,3.7,3.2,6.1c0,2.4-1,4.9-3.2,6.1c-0.2,0-0.2-0.1-0.2-0.3
		c1.5-1.4,2.1-3.8,2.1-5.8S633.3,374.3,631.8,372.9z"/>
	<path d="M652.6,376.7c0,0.2,0.1,0.3,0.2,0.4c0.4-0.2,0.9-0.4,1.5-0.4c1.6,0,2.6,1.2,2.6,2.8c0,2-1.4,3.2-3.4,3.2
		c-0.6,0-1.2-0.1-1.5-0.3c-0.2-0.1-0.3-0.1-0.4-0.1c-0.1,0-0.4,0.1-0.5,0.2c-0.1,0-0.2,0-0.3-0.1c0-0.2,0-0.7,0-1.4v-6.3
		c0-0.6,0-0.7-0.3-0.9l-0.2-0.1c-0.1-0.1-0.1-0.3,0-0.4c0.6-0.1,1.4-0.5,2.2-0.8c0.1,0,0.2,0,0.2,0.1c0,0.6-0.1,1.2-0.1,2V376.7z
		 M652.6,380.5c0,0.4,0.1,0.7,0.3,1.1c0.2,0.3,0.5,0.5,0.8,0.5c0.9,0,1.2-1,1.2-2.1c0-1.4-0.7-2.4-1.7-2.4c-0.3,0-0.4,0.1-0.6,0.2
		c-0.1,0.1-0.1,0.3-0.1,0.6V380.5z"/>
</g>
<g>
	<path d="M601,435c0-0.6,0-0.7-0.3-0.9l-0.2-0.1c-0.1-0.1-0.1-0.3,0-0.4c0.6-0.2,1.6-0.6,2-0.9c0.1,0,0.2,0,0.3,0.2
		c0,0.2,0,0.3,0,0.5c0,0.1,0.1,0.2,0.1,0.2c0.4-0.2,1-0.6,1.8-0.6c1.5,0,2.4,1.2,2.4,2.7c0,2-1.4,3.3-3.4,3.3c-0.2,0-0.5,0-0.6,0
		c-0.1,0-0.2,0.1-0.2,0.4v1.4c0,1,0.1,1.1,0.5,1.1l0.5,0c0.1,0.1,0.1,0.4,0,0.5c-0.7,0-1.3,0-1.9,0c-0.6,0-1.2,0-1.7,0
		c-0.1-0.1-0.1-0.4,0-0.5l0.3,0c0.5,0,0.5-0.2,0.5-1.1V435z M602.9,437.2c0,0.3,0.1,0.6,0.3,0.8c0.2,0.2,0.4,0.3,0.7,0.3
		c0.9,0,1.3-0.9,1.3-2.2c0-1.4-0.7-2.2-1.6-2.2c-0.2,0-0.5,0.1-0.6,0.2c-0.1,0.1-0.2,0.3-0.2,0.8V437.2z"/>
	<path d="M623.5,435.4c-0.3,0-0.4,0-0.4,0.3c0,1.1,0.7,2.1,2,2.1c0.4,0,0.9-0.1,1.3-0.7c0.2,0,0.4,0.1,0.4,0.3
		c-0.6,1.2-1.6,1.6-2.5,1.6c-1.9,0-2.9-1.3-2.9-2.9c0-1.8,1.3-3.1,3-3.1c1.5,0,2.2,0.9,2.2,2c0,0.3-0.1,0.5-0.5,0.5H623.5z
		 M624.4,434.8c0.2,0,0.4,0,0.6-0.1c0.1,0,0.1-0.2,0.1-0.3c0-0.5-0.3-0.8-0.7-0.8c-0.6,0-1.1,0.6-1.1,1c0,0.2,0.2,0.2,0.6,0.2H624.4
		z"/>
	<path d="M643.1,433c0,0.2,0.1,0.3,0.2,0.4c0.4-0.2,0.9-0.4,1.5-0.4c1.6,0,2.6,1.2,2.6,2.8c0,2-1.4,3.2-3.4,3.2
		c-0.6,0-1.2-0.1-1.5-0.3c-0.2-0.1-0.3-0.1-0.4-0.1c-0.1,0-0.4,0.1-0.5,0.2c-0.1,0-0.2,0-0.3-0.1c0-0.2,0-0.7,0-1.4V431
		c0-0.6,0-0.7-0.3-0.9l-0.2-0.1c-0.1-0.1-0.1-0.3,0-0.4c0.6-0.1,1.4-0.5,2.2-0.8c0.1,0,0.2,0,0.2,0.1c0,0.6-0.1,1.2-0.1,2V433z
		 M643.1,436.8c0,0.4,0.1,0.7,0.3,1.1c0.2,0.3,0.5,0.5,0.8,0.5c0.9,0,1.2-1,1.2-2.1c0-1.4-0.7-2.4-1.7-2.4c-0.3,0-0.4,0.1-0.6,0.2
		c-0.1,0.1-0.1,0.3-0.1,0.6V436.8z"/>
</g>
<g>
	<g>
		<path d="M87.8,220.3c0-0.6,0-0.7-0.3-0.9l-0.2-0.1c-0.1-0.1-0.1-0.3,0-0.4c0.6-0.2,1.6-0.6,2-0.9c0.1,0,0.2,0,0.3,0.2
			c0,0.2,0,0.3,0,0.5c0,0.1,0.1,0.2,0.1,0.2c0.4-0.2,1-0.6,1.8-0.6c1.5,0,2.4,1.2,2.4,2.7c0,2-1.4,3.3-3.4,3.3c-0.2,0-0.5,0-0.6,0
			c-0.1,0-0.2,0.1-0.2,0.4v1.4c0,1,0.1,1.1,0.5,1.1l0.5,0c0.1,0.1,0.1,0.4,0,0.5c-0.7,0-1.3,0-1.9,0c-0.6,0-1.2,0-1.7,0
			c-0.1-0.1-0.1-0.4,0-0.5l0.3,0c0.5,0,0.5-0.2,0.5-1.1V220.3z M89.7,222.4c0,0.3,0.1,0.6,0.3,0.8c0.2,0.2,0.4,0.3,0.7,0.3
			c0.9,0,1.3-0.9,1.3-2.2c0-1.4-0.7-2.2-1.6-2.2c-0.2,0-0.5,0.1-0.6,0.2c-0.1,0.1-0.2,0.3-0.2,0.8V222.4z"/>
		<path d="M113,222.1c-0.1,1,0.3,1.2,0.6,1.2c0.2,0,0.3,0,0.5-0.2c0.1,0,0.2,0.2,0.2,0.3c-0.2,0.2-0.8,0.8-1.6,0.8
			c-0.5,0-0.8-0.2-1.2-0.5c-0.1-0.1-0.2-0.1-0.2-0.1s-0.2,0.1-0.3,0.2c-0.3,0.2-0.7,0.4-1.2,0.4c-0.8,0-1.6-0.5-1.6-1.5
			c0-0.7,0.4-1.1,1.5-1.5c0.5-0.2,0.9-0.3,1.3-0.4c0.3-0.1,0.3-0.2,0.3-0.3c0-0.2,0-0.3,0-0.5c0-0.5-0.2-1.2-0.8-1.2
			c-0.3,0-0.6,0.2-0.7,0.8c0,0.2-0.1,0.4-0.2,0.4c-0.2,0.2-0.8,0.3-1,0.3c-0.2,0-0.3-0.2-0.3-0.4c0-0.4,0.3-0.8,0.7-1.1
			c0.5-0.4,1.4-0.9,2.4-0.9c1.2,0,1.9,0.6,1.8,2L113,222.1z M111.3,221.7c0-0.2,0-0.3-0.1-0.3c-0.6,0.1-1.2,0.3-1.2,1
			c0,0.4,0.3,0.8,0.7,0.8c0.4,0,0.5-0.3,0.5-0.7L111.3,221.7z"/>
	</g>
</g>
<g>
	<g>
		<path d="M88.2,330.9c0-0.6,0-0.7-0.3-0.9l-0.2-0.1c-0.1-0.1-0.1-0.3,0-0.4c0.6-0.2,1.6-0.6,2-0.9c0.1,0,0.2,0,0.3,0.2
			c0,0.2,0,0.3,0,0.5c0,0.1,0.1,0.2,0.1,0.2c0.4-0.2,1-0.6,1.8-0.6c1.5,0,2.4,1.2,2.4,2.7c0,2-1.4,3.3-3.4,3.3c-0.2,0-0.5,0-0.6,0
			c-0.1,0-0.2,0.1-0.2,0.4v1.4c0,1,0.1,1.1,0.5,1.1l0.5,0c0.1,0.1,0.1,0.4,0,0.5c-0.7,0-1.3,0-1.9,0c-0.6,0-1.2,0-1.7,0
			c-0.1-0.1-0.1-0.4,0-0.5l0.3,0c0.5,0,0.5-0.2,0.5-1.1V330.9z M90,333.1c0,0.3,0.1,0.6,0.3,0.8c0.2,0.2,0.4,0.3,0.7,0.3
			c0.9,0,1.3-0.9,1.3-2.2c0-1.4-0.7-2.2-1.6-2.2c-0.2,0-0.5,0.1-0.6,0.2c-0.1,0.1-0.2,0.3-0.2,0.8V333.1z"/>
		<path d="M110.6,331.3c-0.3,0-0.4,0-0.4,0.3c0,1.1,0.7,2.1,2,2.1c0.4,0,0.9-0.1,1.3-0.7c0.2,0,0.4,0.1,0.4,0.3
			c-0.6,1.2-1.6,1.6-2.5,1.6c-1.9,0-2.9-1.3-2.9-2.9c0-1.8,1.3-3.1,3-3.1c1.5,0,2.2,0.9,2.2,2c0,0.3-0.1,0.5-0.5,0.5H110.6z
			 M111.6,330.7c0.2,0,0.4,0,0.6-0.1c0.1,0,0.1-0.2,0.1-0.3c0-0.5-0.3-0.8-0.7-0.8c-0.6,0-1.1,0.6-1.1,1c0,0.2,0.2,0.2,0.6,0.2
			H111.6z"/>
	</g>
</g>
<g>
	<g>
		<path d="M245.1,330.9c0-0.6,0-0.7-0.3-0.9l-0.2-0.1c-0.1-0.1-0.1-0.3,0-0.4c0.6-0.2,1.6-0.6,2-0.9c0.1,0,0.2,0,0.3,0.2
			c0,0.2,0,0.3,0,0.5c0,0.1,0.1,0.2,0.1,0.2c0.4-0.2,1-0.6,1.8-0.6c1.5,0,2.4,1.2,2.4,2.7c0,2-1.4,3.3-3.4,3.3c-0.2,0-0.5,0-0.6,0
			c-0.1,0-0.2,0.1-0.2,0.4v1.4c0,1,0.1,1.1,0.5,1.1l0.5,0c0.1,0.1,0.1,0.4,0,0.5c-0.7,0-1.3,0-1.9,0c-0.6,0-1.2,0-1.7,0
			c-0.1-0.1-0.1-0.4,0-0.5l0.3,0c0.5,0,0.5-0.2,0.5-1.1V330.9z M246.9,333.1c0,0.3,0.1,0.6,0.3,0.8c0.2,0.2,0.4,0.3,0.7,0.3
			c0.9,0,1.3-0.9,1.3-2.2c0-1.4-0.7-2.2-1.6-2.2c-0.2,0-0.5,0.1-0.6,0.2c-0.1,0.1-0.2,0.3-0.2,0.8V333.1z"/>
		<path d="M270.2,332.7c-0.1,1,0.3,1.2,0.6,1.2c0.2,0,0.3,0,0.5-0.2c0.1,0,0.2,0.2,0.2,0.3c-0.2,0.2-0.8,0.8-1.6,0.8
			c-0.5,0-0.8-0.2-1.2-0.5c-0.1-0.1-0.2-0.1-0.2-0.1s-0.2,0.1-0.3,0.2c-0.3,0.2-0.7,0.4-1.2,0.4c-0.8,0-1.6-0.5-1.6-1.5
			c0-0.7,0.4-1.1,1.5-1.5c0.5-0.2,0.9-0.3,1.3-0.4c0.3-0.1,0.3-0.2,0.3-0.3c0-0.2,0-0.3,0-0.5c0-0.5-0.2-1.2-0.8-1.2
			c-0.3,0-0.6,0.2-0.7,0.8c0,0.2-0.1,0.4-0.2,0.4c-0.2,0.2-0.8,0.3-1,0.3c-0.2,0-0.3-0.2-0.3-0.4c0-0.4,0.3-0.8,0.7-1.1
			c0.5-0.4,1.4-0.9,2.4-0.9c1.2,0,1.9,0.6,1.8,2L270.2,332.7z M268.6,332.4c0-0.2,0-0.3-0.1-0.3c-0.6,0.1-1.2,0.3-1.2,1
			c0,0.4,0.3,0.8,0.7,0.8c0.4,0,0.5-0.3,0.5-0.7L268.6,332.4z"/>
	</g>
</g>
<g>
	<g>
		<path d="M62.5,384.9c0,0.1-0.1,0.3-0.2,0.3c-2.2-1.2-3.2-3.7-3.2-6.1c0-2.4,1-4.9,3.2-6.1c0.2,0,0.2,0.1,0.2,0.3
			c-1.5,1.4-2.1,3.8-2.1,5.8C60.5,381.1,61,383.6,62.5,384.9z"/>
		<path d="M63.8,379.2c0-0.6,0-0.7-0.3-0.9l-0.2-0.1c-0.1-0.1-0.1-0.3,0-0.4c0.6-0.2,1.6-0.6,2-0.9c0.1,0,0.2,0,0.3,0.2
			c0,0.2,0,0.3,0,0.5c0,0.1,0.1,0.2,0.1,0.2c0.4-0.2,1-0.6,1.8-0.6c1.5,0,2.4,1.2,2.4,2.7c0,2-1.4,3.3-3.4,3.3c-0.2,0-0.5,0-0.6,0
			c-0.1,0-0.2,0.1-0.2,0.4v1.4c0,1,0.1,1.1,0.5,1.1l0.5,0c0.1,0.1,0.1,0.4,0,0.5c-0.7,0-1.3,0-1.9,0c-0.6,0-1.2,0-1.7,0
			c-0.1-0.1-0.1-0.4,0-0.5l0.3,0c0.5,0,0.5-0.2,0.5-1.1V379.2z M65.6,381.3c0,0.3,0.1,0.6,0.3,0.8c0.2,0.2,0.4,0.3,0.7,0.3
			c0.9,0,1.3-0.9,1.3-2.2c0-1.4-0.7-2.2-1.6-2.2c-0.2,0-0.5,0.1-0.6,0.2c-0.1,0.1-0.2,0.3-0.2,0.8V381.3z"/>
		<path d="M86.2,379.6c-0.3,0-0.4,0-0.4,0.3c0,1.1,0.7,2.1,2,2.1c0.4,0,0.9-0.1,1.3-0.7c0.2,0,0.4,0.1,0.4,0.3
			c-0.6,1.2-1.6,1.6-2.5,1.6c-1.9,0-2.9-1.3-2.9-2.9c0-1.8,1.3-3.1,3-3.1c1.5,0,2.2,0.9,2.2,2c0,0.3-0.1,0.5-0.5,0.5H86.2z
			 M87.2,379c0.2,0,0.4,0,0.6-0.1c0.1,0,0.1-0.2,0.1-0.3c0-0.5-0.3-0.8-0.7-0.8c-0.6,0-1.1,0.6-1.1,1c0,0.2,0.2,0.2,0.6,0.2H87.2z"
			/>
		<path d="M89.7,373.3c0-0.1,0.1-0.3,0.2-0.3c2.2,1.2,3.2,3.7,3.2,6.1c0,2.4-1,4.9-3.2,6.1c-0.2,0-0.2-0.1-0.2-0.3
			c1.5-1.4,2.1-3.8,2.1-5.8C91.8,377.1,91.2,374.7,89.7,373.3z"/>
		<path d="M113,381c-0.1,1,0.3,1.2,0.6,1.2c0.2,0,0.3,0,0.5-0.2c0.1,0,0.2,0.2,0.2,0.3c-0.2,0.2-0.8,0.8-1.6,0.8
			c-0.5,0-0.8-0.2-1.2-0.5c-0.1-0.1-0.2-0.1-0.2-0.1s-0.2,0.1-0.3,0.2c-0.3,0.2-0.7,0.4-1.2,0.4c-0.8,0-1.6-0.5-1.6-1.5
			c0-0.7,0.4-1.1,1.5-1.5c0.5-0.2,0.9-0.3,1.3-0.4c0.3-0.1,0.3-0.2,0.3-0.3c0-0.2,0-0.3,0-0.5c0-0.5-0.2-1.2-0.8-1.2
			c-0.3,0-0.6,0.2-0.7,0.8c0,0.2-0.1,0.4-0.2,0.4c-0.2,0.2-0.8,0.3-1,0.3c-0.2,0-0.3-0.2-0.3-0.4c0-0.4,0.3-0.8,0.7-1.1
			c0.5-0.4,1.4-0.9,2.4-0.9c1.2,0,1.9,0.6,1.8,2L113,381z M111.3,380.6c0-0.2,0-0.3-0.1-0.3c-0.6,0.1-1.2,0.3-1.2,1
			c0,0.4,0.3,0.8,0.7,0.8c0.4,0,0.5-0.3,0.5-0.7L111.3,380.6z"/>
	</g>
</g>
<g>
	<g>
		<path d="M219.8,384.9c0,0.1-0.1,0.3-0.2,0.3c-2.2-1.2-3.2-3.7-3.2-6.1c0-2.4,1-4.9,3.2-6.1c0.2,0,0.2,0.1,0.2,0.3
			c-1.5,1.4-2.1,3.8-2.1,5.8C217.7,381.1,218.3,383.6,219.8,384.9z"/>
		<path d="M221,379.2c0-0.6,0-0.7-0.3-0.9l-0.2-0.1c-0.1-0.1-0.1-0.3,0-0.4c0.6-0.2,1.6-0.6,2-0.9c0.1,0,0.2,0,0.3,0.2
			c0,0.2,0,0.3,0,0.5c0,0.1,0.1,0.2,0.1,0.2c0.4-0.2,1-0.6,1.8-0.6c1.5,0,2.4,1.2,2.4,2.7c0,2-1.4,3.3-3.4,3.3c-0.2,0-0.5,0-0.6,0
			c-0.1,0-0.2,0.1-0.2,0.4v1.4c0,1,0.1,1.1,0.5,1.1l0.5,0c0.1,0.1,0.1,0.4,0,0.5c-0.7,0-1.3,0-1.9,0c-0.6,0-1.2,0-1.7,0
			c-0.1-0.1-0.1-0.4,0-0.5l0.3,0c0.5,0,0.5-0.2,0.5-1.1V379.2z M222.8,381.3c0,0.3,0.1,0.6,0.3,0.8c0.2,0.2,0.4,0.3,0.7,0.3
			c0.9,0,1.3-0.9,1.3-2.2c0-1.4-0.7-2.2-1.6-2.2c-0.2,0-0.5,0.1-0.6,0.2c-0.1,0.1-0.2,0.3-0.2,0.8V381.3z"/>
		<path d="M246.2,381c-0.1,1,0.3,1.2,0.6,1.2c0.2,0,0.3,0,0.5-0.2c0.1,0,0.2,0.2,0.2,0.3c-0.2,0.2-0.8,0.8-1.6,0.8
			c-0.5,0-0.8-0.2-1.2-0.5c-0.1-0.1-0.2-0.1-0.2-0.1s-0.2,0.1-0.3,0.2c-0.3,0.2-0.7,0.4-1.2,0.4c-0.8,0-1.6-0.5-1.6-1.5
			c0-0.7,0.4-1.1,1.5-1.5c0.5-0.2,0.9-0.3,1.3-0.4c0.3-0.1,0.3-0.2,0.3-0.3c0-0.2,0-0.3,0-0.5c0-0.5-0.2-1.2-0.8-1.2
			c-0.3,0-0.6,0.2-0.7,0.8c0,0.2-0.1,0.4-0.2,0.4c-0.2,0.2-0.8,0.3-1,0.3c-0.2,0-0.3-0.2-0.3-0.4c0-0.4,0.3-0.8,0.7-1.1
			c0.5-0.4,1.4-0.9,2.4-0.9c1.2,0,1.9,0.6,1.8,2L246.2,381z M244.5,380.6c0-0.2,0-0.3-0.1-0.3c-0.6,0.1-1.2,0.3-1.2,1
			c0,0.4,0.3,0.8,0.7,0.8c0.4,0,0.5-0.3,0.5-0.7L244.5,380.6z"/>
		<path d="M247.3,373.3c0-0.1,0.1-0.3,0.2-0.3c2.2,1.2,3.2,3.7,3.2,6.1c0,2.4-1,4.9-3.2,6.1c-0.2,0-0.2-0.1-0.2-0.3
			c1.5-1.4,2.1-3.8,2.1-5.8C249.4,377.1,248.8,374.7,247.3,373.3z"/>
		<path d="M267.9,379.6c-0.3,0-0.4,0-0.4,0.3c0,1.1,0.7,2.1,2,2.1c0.4,0,0.9-0.1,1.3-0.7c0.2,0,0.4,0.1,0.4,0.3
			c-0.6,1.2-1.6,1.6-2.5,1.6c-1.9,0-2.9-1.3-2.9-2.9c0-1.8,1.3-3.1,3-3.1c1.5,0,2.2,0.9,2.2,2c0,0.3-0.1,0.5-0.5,0.5H267.9z
			 M268.8,379c0.2,0,0.4,0,0.6-0.1c0.1,0,0.1-0.2,0.1-0.3c0-0.5-0.3-0.8-0.7-0.8c-0.6,0-1.1,0.6-1.1,1c0,0.2,0.2,0.2,0.6,0.2H268.8z
			"/>
	</g>
</g>
<g>
	<g>
		<path d="M68.5,435.4c0-0.6,0-0.7-0.3-0.9l-0.2-0.1c-0.1-0.1-0.1-0.3,0-0.4c0.6-0.2,1.6-0.6,2-0.9c0.1,0,0.2,0,0.3,0.2
			c0,0.2,0,0.3,0,0.5c0,0.1,0.1,0.2,0.1,0.2c0.4-0.2,1-0.6,1.8-0.6c1.5,0,2.4,1.2,2.4,2.7c0,2-1.4,3.3-3.4,3.3c-0.2,0-0.5,0-0.6,0
			c-0.1,0-0.2,0.1-0.2,0.4v1.4c0,1,0.1,1.1,0.5,1.1l0.5,0c0.1,0.1,0.1,0.4,0,0.5c-0.7,0-1.3,0-1.9,0c-0.6,0-1.2,0-1.7,0
			c-0.1-0.1-0.1-0.4,0-0.5l0.3,0c0.5,0,0.5-0.2,0.5-1.1V435.4z M70.3,437.6c0,0.3,0.1,0.6,0.3,0.8c0.2,0.2,0.4,0.3,0.7,0.3
			c0.9,0,1.3-0.9,1.3-2.2c0-1.4-0.7-2.2-1.6-2.2c-0.2,0-0.5,0.1-0.6,0.2c-0.1,0.1-0.2,0.3-0.2,0.8V437.6z"/>
		<path d="M91,435.8c-0.3,0-0.4,0-0.4,0.3c0,1.1,0.7,2.1,2,2.1c0.4,0,0.9-0.1,1.3-0.7c0.2,0,0.4,0.1,0.4,0.3
			c-0.6,1.2-1.6,1.6-2.5,1.6c-1.9,0-2.9-1.3-2.9-2.9c0-1.8,1.3-3.1,3-3.1c1.5,0,2.2,0.9,2.2,2c0,0.3-0.1,0.5-0.5,0.5H91z
			 M91.9,435.2c0.2,0,0.4,0,0.6-0.1c0.1,0,0.1-0.2,0.1-0.3c0-0.5-0.3-0.8-0.7-0.8c-0.6,0-1.1,0.6-1.1,1c0,0.2,0.2,0.2,0.6,0.2H91.9z
			"/>
		<path d="M113,437.2c-0.1,1,0.3,1.2,0.6,1.2c0.2,0,0.3,0,0.5-0.2c0.1,0,0.2,0.2,0.2,0.3c-0.2,0.2-0.8,0.8-1.6,0.8
			c-0.5,0-0.8-0.2-1.2-0.5c-0.1-0.1-0.2-0.1-0.2-0.1s-0.2,0.1-0.3,0.2c-0.3,0.2-0.7,0.4-1.2,0.4c-0.8,0-1.6-0.5-1.6-1.5
			c0-0.7,0.4-1.1,1.5-1.5c0.5-0.2,0.9-0.3,1.3-0.4c0.3-0.1,0.3-0.2,0.3-0.3c0-0.2,0-0.3,0-0.5c0-0.5-0.2-1.2-0.8-1.2
			c-0.3,0-0.6,0.2-0.7,0.8c0,0.2-0.1,0.4-0.2,0.4c-0.2,0.2-0.8,0.3-1,0.3c-0.2,0-0.3-0.2-0.3-0.4c0-0.4,0.3-0.8,0.7-1.1
			c0.5-0.4,1.4-0.9,2.4-0.9c1.2,0,1.9,0.6,1.8,2L113,437.2z M111.3,436.9c0-0.2,0-0.3-0.1-0.3c-0.6,0.1-1.2,0.3-1.2,1
			c0,0.4,0.3,0.8,0.7,0.8c0.4,0,0.5-0.3,0.5-0.7L111.3,436.9z"/>
	</g>
</g>
<g>
	<g>
		<path d="M225.8,435.4c0-0.6,0-0.7-0.3-0.9l-0.2-0.1c-0.1-0.1-0.1-0.3,0-0.4c0.6-0.2,1.6-0.6,2-0.9c0.1,0,0.2,0,0.3,0.2
			c0,0.2,0,0.3,0,0.5c0,0.1,0.1,0.2,0.1,0.2c0.4-0.2,1-0.6,1.8-0.6c1.5,0,2.4,1.2,2.4,2.7c0,2-1.4,3.3-3.4,3.3c-0.2,0-0.5,0-0.6,0
			c-0.1,0-0.2,0.1-0.2,0.4v1.4c0,1,0.1,1.1,0.5,1.1l0.5,0c0.1,0.1,0.1,0.4,0,0.5c-0.7,0-1.3,0-1.9,0c-0.6,0-1.2,0-1.7,0
			c-0.1-0.1-0.1-0.4,0-0.5l0.3,0c0.5,0,0.5-0.2,0.5-1.1V435.4z M227.6,437.6c0,0.3,0.1,0.6,0.3,0.8c0.2,0.2,0.4,0.3,0.7,0.3
			c0.9,0,1.3-0.9,1.3-2.2c0-1.4-0.7-2.2-1.6-2.2c-0.2,0-0.5,0.1-0.6,0.2c-0.1,0.1-0.2,0.3-0.2,0.8V437.6z"/>
		<path d="M250.9,437.2c-0.1,1,0.3,1.2,0.6,1.2c0.2,0,0.3,0,0.5-0.2c0.1,0,0.2,0.2,0.2,0.3c-0.2,0.2-0.8,0.8-1.6,0.8
			c-0.5,0-0.8-0.2-1.2-0.5c-0.1-0.1-0.2-0.1-0.2-0.1s-0.2,0.1-0.3,0.2c-0.3,0.2-0.7,0.4-1.2,0.4c-0.8,0-1.6-0.5-1.6-1.5
			c0-0.7,0.4-1.1,1.5-1.5c0.5-0.2,0.9-0.3,1.3-0.4c0.3-0.1,0.3-0.2,0.3-0.3c0-0.2,0-0.3,0-0.5c0-0.5-0.2-1.2-0.8-1.2
			c-0.3,0-0.6,0.2-0.7,0.8c0,0.2-0.1,0.4-0.2,0.4c-0.2,0.2-0.8,0.3-1,0.3c-0.2,0-0.3-0.2-0.3-0.4c0-0.4,0.3-0.8,0.7-1.1
			c0.5-0.4,1.4-0.9,2.4-0.9c1.2,0,1.9,0.6,1.8,2L250.9,437.2z M249.2,436.9c0-0.2,0-0.3-0.1-0.3c-0.6,0.1-1.2,0.3-1.2,1
			c0,0.4,0.3,0.8,0.7,0.8c0.4,0,0.5-0.3,0.5-0.7L249.2,436.9z"/>
		<path d="M267.9,435.8c-0.3,0-0.4,0-0.4,0.3c0,1.1,0.7,2.1,2,2.1c0.4,0,0.9-0.1,1.3-0.7c0.2,0,0.4,0.1,0.4,0.3
			c-0.6,1.2-1.6,1.6-2.5,1.6c-1.9,0-2.9-1.3-2.9-2.9c0-1.8,1.3-3.1,3-3.1c1.5,0,2.2,0.9,2.2,2c0,0.3-0.1,0.5-0.5,0.5H267.9z
			 M268.8,435.2c0.2,0,0.4,0,0.6-0.1c0.1,0,0.1-0.2,0.1-0.3c0-0.5-0.3-0.8-0.7-0.8c-0.6,0-1.1,0.6-1.1,1c0,0.2,0.2,0.2,0.6,0.2
			H268.8z"/>
	</g>
</g>
<g>
	<path d="M113,159.2c-0.1,1,0.4,1.2,0.6,1.2c0.2,0,0.3,0,0.5-0.2c0.1,0,0.2,0.2,0.2,0.3c-0.2,0.2-0.8,0.8-1.6,0.8
		c-0.5,0-0.8-0.2-1.2-0.5c-0.1-0.1-0.2-0.1-0.2-0.1c-0.1,0-0.2,0.1-0.3,0.2c-0.3,0.2-0.7,0.4-1.2,0.4c-0.8,0-1.6-0.5-1.6-1.5
		c0-0.7,0.4-1.1,1.5-1.5c0.5-0.2,0.9-0.3,1.3-0.4c0.3-0.1,0.3-0.2,0.3-0.3c0-0.2,0-0.3,0-0.5c0-0.5-0.2-1.2-0.8-1.2
		c-0.3,0-0.6,0.2-0.7,0.8c0,0.2-0.1,0.4-0.2,0.4c-0.2,0.2-0.8,0.3-1,0.3c-0.2,0-0.3-0.2-0.3-0.4c0-0.4,0.3-0.8,0.7-1.1
		c0.5-0.4,1.4-0.9,2.4-0.9c1.2,0,1.9,0.6,1.8,2L113,159.2z M111.3,158.8c0-0.2,0-0.3-0.1-0.3c-0.6,0.1-1.2,0.3-1.2,1
		c0,0.4,0.3,0.8,0.7,0.8c0.4,0,0.5-0.3,0.5-0.7L111.3,158.8z"/>
</g>
<g>
	<path class="st1" d="M357,246.5"/>
	<path class="st1" d="M384,207.5v24c0,5-12.1,9-27,9s-27-4-27-9v-24"/>
	<ellipse class="st1" cx="357" cy="207.5" rx="27" ry="9"/>
</g>
<path class="st9" d="M315.7,354.5"/>
<path class="st2" d="M339,315.5v24c0,5-12.1,9-27,9s-27-4-27-9v-24"/>
<ellipse class="st2" cx="312" cy="315.5" rx="27" ry="9"/>
<g>
	<path class="st10" d="M357,179.1"/>
	<path class="st10" d="M384,152.1v12c0,5-12.1,9-27,9s-27-4-27-9v-12"/>
	<ellipse class="st10" cx="357" cy="152.1" rx="27" ry="9"/>
</g>
<path class="st11" d="M315.7,398.8"/>
<path class="st10" d="M339,371.8v12c0,5-12.1,9-27,9s-27-4-27-9v-12"/>
<ellipse class="st10" cx="312" cy="371.8" rx="27" ry="9"/>
<path class="st12" d="M315.7,443"/>
<g>
	<path class="st7" d="M339,416v36c0,5-12.1,9-27,9s-27-4-27-9v-36"/>
	<ellipse class="st7" cx="312" cy="416" rx="27" ry="9"/>
</g>
<ellipse class="st8" cx="312" cy="303.5" rx="27" ry="9"/>
<path class="st8" d="M315.7,330.5"/>
<path class="st8" d="M339,303.5v36c0,5-12.1,9-27,9s-27-4-27-9v-36"/>
<g>
	<ellipse class="st8" cx="357" cy="195.5" rx="27" ry="9"/>
	<path class="st0" d="M357,222.5"/>
	<path class="st8" d="M384,195.5v36c0,5-12.1,9-27,9s-27-4-27-9v-36"/>
</g>
<g>
	<path d="M309.6,400.1v-0.9h4.8v0.9H309.6z M309.6,401.9V401h4.8v0.9H309.6z"/>
</g>
<g>
	<path d="M354.6,179.6v-0.9h4.8v0.9H354.6z M354.6,181.4v-0.9h4.8v0.9H354.6z"/>
</g>
<g>
	<path class="st0" d="M402,354.5"/>
	<path class="st0" d="M429,315.5v24c0,5-12.1,9-27,9s-27-4-27-9v-24"/>
	<ellipse class="st0" cx="402" cy="315.5" rx="27" ry="9"/>
</g>
<g>
	<path class="st10" d="M402,398.8"/>
	<path class="st10" d="M429,371.8v12c0,5-12.1,9-27,9s-27-4-27-9v-12"/>
	<ellipse class="st10" cx="402" cy="371.8" rx="27" ry="9"/>
</g>
<g>
	<path class="st6" d="M402,443"/>
	<path class="st6" d="M429,416v36c0,5-12.1,9-27,9s-27-4-27-9v-36"/>
	<ellipse class="st6" cx="402" cy="416" rx="27" ry="9"/>
</g>
<g>
	<ellipse class="st8" cx="402" cy="303.5" rx="27" ry="9"/>
	<path class="st8" d="M402,330.5"/>
	<path class="st8" d="M429,303.5v36c0,5-12.1,9-27,9s-27-4-27-9v-36"/>
</g>
<g>
	<path d="M399.6,400.1v-0.9h4.8v0.9H399.6z M399.6,401.9V401h4.8v0.9H399.6z"/>
</g>
<g>
	<g>
		<path d="M343.7,48.1c0,0.4,0,0.4,0.4,0.4h1c0.7,0,0.9-0.1,1-0.8l0.1-0.4c0.1-0.1,0.4-0.1,0.5,0c0,0.4,0,1,0,1.5s0,1,0,1.5
			c-0.1,0.1-0.4,0.1-0.5,0l-0.1-0.4c-0.1-0.7-0.3-0.8-1-0.8h-1c-0.4,0-0.4,0-0.4,0.4v1.7c0,0.6,0.1,1.1,0.2,1.3
			c0.2,0.3,0.4,0.4,1.5,0.4c1.2,0,1.7,0,2.5-1.6c0.1-0.2,0.5-0.1,0.5,0.1c-0.1,0.7-0.4,1.9-0.6,2.2c-0.7,0-2.1,0-3.2,0h-1.8
			c-0.7,0-1.4,0-2.4,0c-0.1-0.1-0.1-0.4,0-0.5l0.7-0.1c0.6-0.1,0.7-0.2,0.7-1.5v-5.2c0-1.3-0.1-1.4-0.7-1.5l-0.4-0.1
			c-0.1-0.1-0.1-0.4,0-0.5c0.7,0,1.3,0,2,0h3c0.9,0,1.7,0,1.9,0c0,0.2,0.1,1.2,0.2,2.2c-0.1,0.2-0.4,0.2-0.5,0.1
			c-0.2-0.5-0.4-0.9-0.5-1.1c-0.3-0.3-0.7-0.4-1.4-0.4h-1.1c-0.5,0-0.5,0-0.5,0.5V48.1z"/>
		<path d="M354.8,51.4c0,1.3,0.1,1.6,0.3,1.6c0.3,0,0.4,0,0.6-0.1c0.2,0.1,0.2,0.5,0,0.6c-1.4,0.1-2.5,0.5-2.5,0.5
			c-0.1,0-0.2-0.1-0.2-0.2l0-0.4c0-0.1-0.1-0.2-0.1-0.1c-0.5,0.3-1,0.6-1.5,0.6c-1.6,0-2.7-1.2-2.7-2.8c0-2,1.5-3.2,3.3-3.2
			c0.3,0,0.6,0,0.8,0.1c0.1,0,0.1-0.2,0.1-0.3v-1.8c0-0.6,0-0.7-0.3-0.9l-0.2-0.1c-0.1-0.1-0.1-0.3,0-0.4c0.6-0.1,1.5-0.5,2.1-0.8
			c0.1,0,0.2,0,0.2,0.1c0,0.6,0,1.2,0,2V51.4z M353,49.5c0-0.2,0-0.4-0.1-0.5c-0.2-0.3-0.5-0.5-0.8-0.5c-0.7,0-1.4,0.7-1.4,2.2
			c0,0.9,0.4,2.2,1.6,2.2c0.2,0,0.4-0.1,0.6-0.2c0.2-0.1,0.2-0.3,0.2-0.5V49.5z"/>
		<path d="M362.7,48.4c0.1,0.1,0.1,0.2,0.1,0.4c0,0.2-0.1,0.5-0.2,0.6h-1c0,0.1,0,0.3,0,0.5c0,1.1-0.7,2.5-2.9,2.5
			c-0.2,0-0.4,0-0.6,0c-0.1,0.1-0.2,0.2-0.2,0.3c0,0.3,0.3,0.5,0.7,0.5c0.5,0,1.1,0,1.7,0c1.1,0,2.2,0.3,2.2,1.7
			c0,0.9-0.5,1.7-1.3,2.1c-0.7,0.4-1.6,0.6-2.5,0.6c-2,0-2.7-0.9-2.7-1.8c0-0.3,0.2-0.6,0.4-0.7c0.3-0.2,0.5-0.4,0.7-0.4
			c0.2-0.1,0.1-0.2,0-0.2c-0.5-0.2-0.9-0.6-0.9-1.1c0-0.1,0-0.2,0.1-0.3c0.4-0.3,0.8-0.6,0.9-0.7c0.1-0.1,0.2-0.2,0.1-0.3
			c-0.7-0.3-1.2-1-1.2-1.8c0-1.2,0.9-2.3,2.7-2.3c0.8,0,1.6,0.2,2.1,0.5H362.7z M358.8,54.5c-0.4,0-0.7,0.1-0.8,0.2
			c-0.1,0.1-0.2,0.3-0.2,0.5c0,1,0.7,1.6,1.8,1.6c0.9,0,1.5-0.4,1.5-1.1c0-0.8-0.6-1.1-1.4-1.1H358.8z M359.1,51.6
			c0.4,0,0.8-0.4,0.8-1.4c0-1.1-0.4-1.7-0.9-1.7c-0.4,0-0.9,0.4-0.9,1.4C358.1,51,358.5,51.6,359.1,51.6z"/>
		<path d="M367.7,51.8c-0.1,1,0.3,1.2,0.6,1.2c0.2,0,0.3,0,0.5-0.2c0.1,0,0.2,0.2,0.2,0.3c-0.2,0.2-0.8,0.8-1.6,0.8
			c-0.5,0-0.8-0.2-1.2-0.5c-0.1-0.1-0.2-0.1-0.2-0.1s-0.2,0.1-0.3,0.2c-0.3,0.2-0.7,0.4-1.2,0.4c-0.8,0-1.6-0.5-1.6-1.5
			c0-0.7,0.4-1.1,1.5-1.5c0.5-0.2,0.9-0.3,1.3-0.4c0.3-0.1,0.3-0.2,0.3-0.3c0-0.2,0-0.3,0-0.5c0-0.5-0.2-1.2-0.8-1.2
			c-0.3,0-0.6,0.2-0.7,0.8c0,0.2-0.1,0.4-0.2,0.4c-0.2,0.2-0.8,0.3-1,0.3c-0.2,0-0.3-0.2-0.3-0.4c0-0.4,0.3-0.8,0.7-1.1
			c0.5-0.4,1.4-0.9,2.4-0.9c1.2,0,1.9,0.6,1.8,2L367.7,51.8z M366,51.4c0-0.2,0-0.3-0.1-0.3c-0.6,0.1-1.2,0.3-1.2,1
			c0,0.4,0.3,0.8,0.7,0.8c0.4,0,0.5-0.3,0.5-0.7L366,51.4z"/>
		<path d="M369.9,50c0-0.6,0-0.7-0.3-0.9l-0.2-0.1c-0.1-0.1-0.1-0.3,0-0.4c0.6-0.2,1.6-0.6,2-0.8c0.1,0,0.2,0,0.3,0.1
			c0,0.3-0.1,0.5-0.1,0.6c0,0.1,0,0.1,0.1,0.2c0.4-0.2,0.8-0.7,1.4-0.7c0.4,0,0.8,0.3,0.8,0.8c0,0.6-0.4,0.9-0.9,0.9
			c-0.2,0-0.4-0.1-0.5-0.3c-0.3-0.3-0.4-0.3-0.5-0.3c-0.2,0-0.3,0.3-0.3,0.8v2.1c0,1,0.1,1.1,0.5,1.1l0.4,0c0.1,0.1,0.1,0.4,0,0.5
			c-0.7,0-1.2,0-1.9,0c-0.6,0-1.2,0-1.7,0c-0.1-0.1-0.1-0.4,0-0.5l0.3,0c0.5,0,0.5-0.2,0.5-1.1V50z"/>
	</g>
</g>
<g>
	<path class="st3" d="M357,133.6"/>
	<path class="st3" d="M384,106.6v12c0,5-12.1,9-27,9s-27-4-27-9v-12"/>
	<ellipse class="st3" cx="357" cy="106.6" rx="27" ry="9"/>
</g>
<g>
	<ellipse class="st8" cx="357" cy="82.7" rx="27" ry="9"/>
	<path class="st8" d="M357,109.7"/>
	<path class="st8" d="M384,82.7v36c0,5-12.1,9-27,9s-27-4-27-9v-36"/>
</g>
<g>
	<path d="M403.1,113.3c0-0.6,0-0.7-0.3-0.9l-0.2-0.1c-0.1-0.1-0.1-0.3,0-0.4c0.6-0.2,1.6-0.6,2-0.9c0.1,0,0.2,0,0.3,0.2
		c0,0.2,0,0.3,0,0.5c0,0.1,0.1,0.2,0.1,0.2c0.4-0.2,1-0.6,1.8-0.6c1.5,0,2.4,1.2,2.4,2.7c0,2-1.4,3.3-3.4,3.3c-0.2,0-0.5,0-0.6,0
		c-0.1,0-0.2,0.1-0.2,0.4v1.4c0,1,0.1,1.1,0.5,1.1l0.5,0c0.1,0.1,0.1,0.4,0,0.5c-0.7,0-1.3,0-1.9,0c-0.6,0-1.2,0-1.7,0
		c-0.1-0.1-0.1-0.4,0-0.5l0.3,0c0.5,0,0.5-0.2,0.5-1.1V113.3z M404.9,115.5c0,0.3,0.1,0.6,0.3,0.8c0.2,0.2,0.4,0.3,0.7,0.3
		c0.9,0,1.3-0.9,1.3-2.2c0-1.4-0.7-2.2-1.6-2.2c-0.2,0-0.5,0.1-0.6,0.2c-0.1,0.1-0.2,0.3-0.2,0.8V115.5z"/>
</g>
<g>
	<g>
		<path d="M404.5,157.8c-0.3,0-0.4,0-0.4,0.3c0,1.1,0.7,2.1,2,2.1c0.4,0,0.9-0.1,1.3-0.7c0.2,0,0.4,0.1,0.4,0.3
			c-0.6,1.2-1.6,1.6-2.5,1.6c-1.9,0-2.9-1.3-2.9-2.9c0-1.8,1.3-3.1,3-3.1c1.5,0,2.2,0.9,2.2,2c0,0.3-0.1,0.5-0.5,0.5H404.5z
			 M405.4,157.2c0.2,0,0.4,0,0.6-0.1c0.1,0,0.1-0.2,0.1-0.3c0-0.5-0.3-0.8-0.7-0.8c-0.6,0-1.1,0.6-1.1,1c0,0.2,0.2,0.2,0.6,0.2
			H405.4z"/>
	</g>
</g>
<g>
	<path d="M403.1,220.3c0-0.6,0-0.7-0.3-0.9l-0.2-0.1c-0.1-0.1-0.1-0.3,0-0.4c0.6-0.2,1.6-0.6,2-0.9c0.1,0,0.2,0,0.3,0.2
		c0,0.2,0,0.3,0,0.5c0,0.1,0.1,0.2,0.1,0.2c0.4-0.2,1-0.6,1.8-0.6c1.5,0,2.4,1.2,2.4,2.7c0,2-1.4,3.3-3.4,3.3c-0.2,0-0.5,0-0.6,0
		c-0.1,0-0.2,0.1-0.2,0.4v1.4c0,1,0.1,1.1,0.5,1.1l0.5,0c0.1,0.1,0.1,0.4,0,0.5c-0.7,0-1.3,0-1.9,0c-0.6,0-1.2,0-1.7,0
		c-0.1-0.1-0.1-0.4,0-0.5l0.3,0c0.5,0,0.5-0.2,0.5-1.1V220.3z M404.9,222.4c0,0.3,0.1,0.6,0.3,0.8c0.2,0.2,0.4,0.3,0.7,0.3
		c0.9,0,1.3-0.9,1.3-2.2c0-1.4-0.7-2.2-1.6-2.2c-0.2,0-0.5,0.1-0.6,0.2c-0.1,0.1-0.2,0.3-0.2,0.8V222.4z"/>
	<path d="M425.6,220.7c-0.3,0-0.4,0-0.4,0.3c0,1.1,0.7,2.1,2,2.1c0.4,0,0.9-0.1,1.3-0.7c0.2,0,0.4,0.1,0.4,0.3
		c-0.6,1.2-1.6,1.6-2.5,1.6c-1.9,0-2.9-1.3-2.9-2.9c0-1.8,1.3-3.1,3-3.1c1.5,0,2.2,0.9,2.2,2c0,0.3-0.1,0.5-0.5,0.5H425.6z
		 M426.5,220.1c0.2,0,0.4,0,0.6-0.1c0.1,0,0.1-0.2,0.1-0.3c0-0.5-0.3-0.8-0.7-0.8c-0.6,0-1.1,0.6-1.1,1c0,0.2,0.2,0.2,0.6,0.2H426.5
		z"/>
</g>
<g>
	<path d="M444.4,330.8c0-0.6,0-0.7-0.3-0.9l-0.2-0.1c-0.1-0.1-0.1-0.3,0-0.4c0.6-0.2,1.6-0.6,2-0.9c0.1,0,0.2,0,0.3,0.2
		c0,0.2,0,0.3,0,0.5c0,0.1,0.1,0.2,0.1,0.2c0.4-0.2,1-0.6,1.8-0.6c1.5,0,2.4,1.2,2.4,2.7c0,2-1.4,3.3-3.4,3.3c-0.2,0-0.5,0-0.6,0
		c-0.1,0-0.2,0.1-0.2,0.4v1.4c0,1,0.1,1.1,0.5,1.1l0.5,0c0.1,0.1,0.1,0.4,0,0.5c-0.7,0-1.3,0-1.9,0c-0.6,0-1.2,0-1.7,0
		c-0.1-0.1-0.1-0.4,0-0.5l0.3,0c0.5,0,0.5-0.2,0.5-1.1V330.8z M446.2,332.9c0,0.3,0.1,0.6,0.3,0.8c0.2,0.2,0.4,0.3,0.7,0.3
		c0.9,0,1.3-0.9,1.3-2.2c0-1.4-0.7-2.2-1.6-2.2c-0.2,0-0.5,0.1-0.6,0.2c-0.1,0.1-0.2,0.3-0.2,0.8V332.9z"/>
	<path d="M467.1,328.7c0,0.2,0.1,0.3,0.2,0.4c0.4-0.2,0.9-0.4,1.5-0.4c1.6,0,2.6,1.2,2.6,2.8c0,2-1.4,3.2-3.4,3.2
		c-0.6,0-1.2-0.1-1.5-0.3c-0.2-0.1-0.3-0.1-0.4-0.1c-0.1,0-0.4,0.1-0.5,0.2c-0.1,0-0.2,0-0.3-0.1c0-0.2,0-0.7,0-1.4v-6.3
		c0-0.6,0-0.7-0.3-0.9l-0.2-0.1c-0.1-0.1-0.1-0.3,0-0.4c0.6-0.1,1.4-0.5,2.2-0.8c0.1,0,0.2,0,0.2,0.1c0,0.6-0.1,1.2-0.1,2V328.7z
		 M467.1,332.5c0,0.4,0.1,0.7,0.3,1.1c0.2,0.3,0.5,0.5,0.8,0.5c0.9,0,1.2-1,1.2-2.1c0-1.4-0.7-2.4-1.7-2.4c-0.3,0-0.4,0.1-0.6,0.2
		c-0.1,0.1-0.1,0.3-0.1,0.6V332.5z"/>
</g>
<g>
	<path d="M448,384.5c0,0.1-0.1,0.3-0.2,0.3c-2.2-1.2-3.2-3.7-3.2-6.1c0-2.4,1-4.9,3.2-6.1c0.2,0,0.2,0.1,0.2,0.3
		c-1.5,1.4-2.1,3.8-2.1,5.8S446.4,383.2,448,384.5z"/>
	<path d="M449.2,378.8c0-0.6,0-0.7-0.3-0.9l-0.2-0.1c-0.1-0.1-0.1-0.3,0-0.4c0.6-0.2,1.6-0.6,2-0.9c0.1,0,0.2,0,0.3,0.2
		c0,0.2,0,0.3,0,0.5c0,0.1,0.1,0.2,0.1,0.2c0.4-0.2,1-0.6,1.8-0.6c1.5,0,2.4,1.2,2.4,2.7c0,2-1.4,3.3-3.4,3.3c-0.2,0-0.5,0-0.6,0
		c-0.1,0-0.2,0.1-0.2,0.4v1.4c0,1,0.1,1.1,0.5,1.1l0.5,0c0.1,0.1,0.1,0.4,0,0.5c-0.7,0-1.3,0-1.9,0c-0.6,0-1.2,0-1.7,0
		c-0.1-0.1-0.1-0.4,0-0.5l0.3,0c0.5,0,0.5-0.2,0.5-1.1V378.8z M451,380.9c0,0.3,0.1,0.6,0.3,0.8c0.2,0.2,0.4,0.3,0.7,0.3
		c0.9,0,1.3-0.9,1.3-2.2c0-1.4-0.7-2.2-1.6-2.2c-0.2,0-0.5,0.1-0.6,0.2c-0.1,0.1-0.2,0.3-0.2,0.8V380.9z"/>
	<path d="M471.9,376.7c0,0.2,0.1,0.3,0.2,0.4c0.4-0.2,0.9-0.4,1.5-0.4c1.6,0,2.6,1.2,2.6,2.8c0,2-1.4,3.2-3.4,3.2
		c-0.6,0-1.2-0.1-1.5-0.3c-0.2-0.1-0.3-0.1-0.4-0.1c-0.1,0-0.4,0.1-0.5,0.2c-0.1,0-0.2,0-0.3-0.1c0-0.2,0-0.7,0-1.4v-6.3
		c0-0.6,0-0.7-0.3-0.9l-0.2-0.1c-0.1-0.1-0.1-0.3,0-0.4c0.6-0.1,1.4-0.5,2.2-0.8c0.1,0,0.2,0,0.2,0.1c0,0.6-0.1,1.2-0.1,2V376.7z
		 M471.9,380.5c0,0.4,0.1,0.7,0.3,1.1c0.2,0.3,0.5,0.5,0.8,0.5c0.9,0,1.2-1,1.2-2.1c0-1.4-0.7-2.4-1.7-2.4c-0.3,0-0.4,0.1-0.6,0.2
		c-0.1,0.1-0.1,0.3-0.1,0.6V380.5z"/>
	<path d="M476.7,372.9c0-0.1,0.1-0.3,0.2-0.3c2.2,1.2,3.2,3.7,3.2,6.1c0,2.4-1,4.9-3.2,6.1c-0.2,0-0.2-0.1-0.2-0.3
		c1.5-1.4,2.1-3.8,2.1-5.8S478.2,374.3,476.7,372.9z"/>
	<path d="M497.3,379.2c-0.3,0-0.4,0-0.4,0.3c0,1.1,0.7,2.1,2,2.1c0.4,0,0.9-0.1,1.3-0.7c0.2,0,0.4,0.1,0.4,0.3
		c-0.6,1.2-1.6,1.6-2.5,1.6c-1.9,0-2.9-1.3-2.9-2.9c0-1.8,1.3-3.1,3-3.1c1.5,0,2.2,0.9,2.2,2c0,0.3-0.1,0.5-0.5,0.5H497.3z
		 M498.2,378.6c0.2,0,0.4,0,0.6-0.1c0.1,0,0.1-0.2,0.1-0.3c0-0.5-0.3-0.8-0.7-0.8c-0.6,0-1.1,0.6-1.1,1c0,0.2,0.2,0.2,0.6,0.2H498.2
		z"/>
</g>
<g>
	<path d="M444.4,435c0-0.6,0-0.7-0.3-0.9l-0.2-0.1c-0.1-0.1-0.1-0.3,0-0.4c0.6-0.2,1.6-0.6,2-0.9c0.1,0,0.2,0,0.3,0.2
		c0,0.2,0,0.3,0,0.5c0,0.1,0.1,0.2,0.1,0.2c0.4-0.2,1-0.6,1.8-0.6c1.5,0,2.4,1.2,2.4,2.7c0,2-1.4,3.3-3.4,3.3c-0.2,0-0.5,0-0.6,0
		c-0.1,0-0.2,0.1-0.2,0.4v1.4c0,1,0.1,1.1,0.5,1.1l0.5,0c0.1,0.1,0.1,0.4,0,0.5c-0.7,0-1.3,0-1.9,0c-0.6,0-1.2,0-1.7,0
		c-0.1-0.1-0.1-0.4,0-0.5l0.3,0c0.5,0,0.5-0.2,0.5-1.1V435z M446.2,437.2c0,0.3,0.1,0.6,0.3,0.8c0.2,0.2,0.4,0.3,0.7,0.3
		c0.9,0,1.3-0.9,1.3-2.2c0-1.4-0.7-2.2-1.6-2.2c-0.2,0-0.5,0.1-0.6,0.2c-0.1,0.1-0.2,0.3-0.2,0.8V437.2z"/>
	<path d="M467.1,433c0,0.2,0.1,0.3,0.2,0.4c0.4-0.2,0.9-0.4,1.5-0.4c1.6,0,2.6,1.2,2.6,2.8c0,2-1.4,3.2-3.4,3.2
		c-0.6,0-1.2-0.1-1.5-0.3c-0.2-0.1-0.3-0.1-0.4-0.1c-0.1,0-0.4,0.1-0.5,0.2c-0.1,0-0.2,0-0.3-0.1c0-0.2,0-0.7,0-1.4V431
		c0-0.6,0-0.7-0.3-0.9l-0.2-0.1c-0.1-0.1-0.1-0.3,0-0.4c0.6-0.1,1.4-0.5,2.2-0.8c0.1,0,0.2,0,0.2,0.1c0,0.6-0.1,1.2-0.1,2V433z
		 M467.1,436.8c0,0.4,0.1,0.7,0.3,1.1c0.2,0.3,0.5,0.5,0.8,0.5c0.9,0,1.2-1,1.2-2.1c0-1.4-0.7-2.4-1.7-2.4c-0.3,0-0.4,0.1-0.6,0.2
		c-0.1,0.1-0.1,0.3-0.1,0.6V436.8z"/>
	<path d="M487.8,435.4c-0.3,0-0.4,0-0.4,0.3c0,1.1,0.7,2.1,2,2.1c0.4,0,0.9-0.1,1.3-0.7c0.2,0,0.4,0.1,0.4,0.3
		c-0.6,1.2-1.6,1.6-2.5,1.6c-1.9,0-2.9-1.3-2.9-2.9c0-1.8,1.3-3.1,3-3.1c1.5,0,2.2,0.9,2.2,2c0,0.3-0.1,0.5-0.5,0.5H487.8z
		 M488.7,434.8c0.2,0,0.4,0,0.6-0.1c0.1,0,0.1-0.2,0.1-0.3c0-0.5-0.3-0.8-0.7-0.8c-0.6,0-1.1,0.6-1.1,1c0,0.2,0.2,0.2,0.6,0.2H488.7
		z"/>
</g>
<g>
	<g>
		<line class="st13" x1="524.8" y1="240.5" x2="436.7" y2="292.4"/>
		<g>
			<path d="M433,294.5c1.3-1.6,2.8-4,3.5-5.9l0.7,3.5l2.7,2.3C437.9,294,435.1,294.1,433,294.5z"/>
		</g>
	</g>
</g>
<g>
	<g>
		<line class="st13" x1="327.8" y1="240.5" x2="194.6" y2="291.8"/>
		<g>
			<path d="M190.6,293.3c1.6-1.4,3.4-3.5,4.4-5.3l0.1,3.5l2.3,2.7C195.5,293.5,192.7,293.2,190.6,293.3z"/>
		</g>
	</g>
</g>
<g>
	<g>
		<line class="st13" x1="387.5" y1="240.5" x2="518.1" y2="293.9"/>
		<g>
			<path d="M522,295.5c-2.1-0.1-4.9,0.2-6.8,0.8l2.4-2.6l0.1-3.5C518.6,291.9,520.4,294,522,295.5z"/>
		</g>
	</g>
</g>
<g>
	<g>
		<line class="st13" x1="190.8" y1="240.5" x2="276.4" y2="291.1"/>
		<g>
			<path d="M280,293.3c-2.1-0.4-4.9-0.5-6.8-0.2l2.7-2.3l0.7-3.5C277.2,289.3,278.7,291.6,280,293.3z"/>
		</g>
	</g>
</g>
<polygon class="st14" points="457.9,326.8 459.3,329.5 462.2,330 460.1,332.1 460.6,335 457.9,333.6 455.3,335 455.8,332.1 
	453.6,330 456.6,329.5 "/>
<polygon class="st14" points="555,350.9 556.3,353.6 559.3,354 557.1,356.1 557.6,359.1 555,357.7 552.3,359.1 552.8,356.1 
	550.7,354 553.7,353.6 "/>
<polygon class="st14" points="159,352.5 160.3,355.2 163.3,355.6 161.2,357.7 161.7,360.7 159,359.3 156.3,360.7 156.8,357.7 
	154.7,355.6 157.7,355.2 "/>
<polygon class="st14" points="402,351.5 403.3,354.2 406.3,354.7 404.2,356.8 404.7,359.7 402,358.3 399.3,359.7 399.8,356.8 
	397.7,354.7 400.7,354.2 "/>
<polygon class="st14" points="312,351.5 313.3,354.2 316.3,354.7 314.2,356.8 314.7,359.7 312,358.3 309.3,359.7 309.9,356.8 
	307.7,354.7 310.7,354.2 "/>
<polygon class="st14" points="416.2,216 417.6,218.7 420.5,219.1 418.4,221.2 418.9,224.2 416.2,222.8 413.6,224.2 414.1,221.2 
	411.9,219.1 414.9,218.7 "/>
<polygon class="st14" points="101.3,216 102.7,218.7 105.6,219.1 103.5,221.2 104,224.2 101.3,222.8 98.7,224.2 99.2,221.2 
	97,219.1 100,218.7 "/>
<polygon class="st14" points="159,131.5 160.3,134.2 163.3,134.6 161.2,136.7 161.7,139.6 159,138.2 156.3,139.6 156.9,136.7 
	154.7,134.6 157.7,134.2 "/>
<polygon class="st14" points="357,131.5 358.3,134.2 361.3,134.6 359.2,136.7 359.7,139.6 357,138.2 354.3,139.6 354.9,136.7 
	352.7,134.6 355.7,134.2 "/>
<polygon class="st14" points="555,131.5 556.3,134.2 559.3,134.6 557.2,136.7 557.7,139.6 555,138.2 552.3,139.6 552.9,136.7 
	550.7,134.6 553.7,134.2 "/>
<polygon class="st14" points="614.8,216 616.1,218.7 619.1,219.1 616.9,221.2 617.4,224.2 614.8,222.8 612.1,224.2 612.6,221.2 
	610.5,219.1 613.4,218.7 "/>
<polygon class="st14" points="258.5,326.8 259.8,329.5 262.8,330 260.7,332.1 261.2,335 258.5,333.6 255.8,335 256.3,332.1 
	254.2,330 257.2,329.5 "/>
<polygon class="st14" points="101.3,326.8 102.7,329.5 105.6,330 103.5,332.1 104,335 101.3,333.6 98.7,335 99.2,332.1 97,330 
	100,329.5 "/>
<polygon class="st14" points="614.8,326.8 616.1,329.5 619.1,330 616.9,332.1 617.4,335 614.8,333.6 612.1,335 612.6,332.1 
	610.5,330 613.4,329.5 "/>
<polygon class="st14" points="462.2,374.6 463.6,377.3 466.5,377.8 464.4,379.9 464.9,382.8 462.2,381.4 459.6,382.8 460.1,379.9 
	457.9,377.8 460.9,377.3 "/>
<polygon class="st14" points="258.5,374.6 259.8,377.3 262.8,377.8 260.7,379.9 261.2,382.8 258.5,381.4 255.8,382.8 256.3,379.9 
	254.2,377.8 257.2,377.3 "/>
<polygon class="st14" points="234.4,374.6 235.7,377.3 238.7,377.8 236.6,379.9 237.1,382.8 234.4,381.4 231.7,382.8 232.2,379.9 
	230.1,377.8 233.1,377.3 "/>
<polygon class="st14" points="101.3,374.6 102.7,377.3 105.6,377.8 103.5,379.9 104,382.8 101.3,381.4 98.7,382.8 99.2,379.9 
	97,377.8 100,377.3 "/>
<polygon class="st14" points="77,374.6 78.3,377.3 81.3,377.8 79.1,379.9 79.6,382.8 77,381.4 74.3,382.8 74.8,379.9 72.7,377.8 
	75.7,377.3 "/>
<polygon class="st14" points="487.8,374.6 489.2,377.3 492.1,377.8 490,379.9 490.5,382.8 487.8,381.4 485.2,382.8 485.7,379.9 
	483.5,377.8 486.5,377.3 "/>
<polygon class="st14" points="619.4,374.6 620.7,377.3 623.7,377.7 621.5,379.8 622,382.8 619.4,381.4 616.7,382.8 617.2,379.8 
	615.1,377.7 618,377.3 "/>
<polygon class="st14" points="642.7,374.6 644.1,377.3 647,377.7 644.9,379.8 645.4,382.8 642.7,381.4 640.1,382.8 640.6,379.8 
	638.4,377.7 641.4,377.3 "/>
<polygon class="st14" points="478.5,430.7 479.8,433.4 482.8,433.9 480.6,436 481.1,438.9 478.5,437.5 475.8,438.9 476.3,436 
	474.2,433.9 477.1,433.4 "/>
<polygon class="st14" points="614.3,430.7 615.6,433.4 618.6,433.9 616.4,436 616.9,438.9 614.3,437.5 611.6,438.9 612.1,436 
	610,433.9 612.9,433.4 "/>
<polygon class="st14" points="633.8,430.7 635.2,433.4 638.1,433.9 636,436 636.5,438.9 633.8,437.5 631.2,438.9 631.7,436 
	629.5,433.9 632.5,433.4 "/>
<polygon class="st14" points="457.9,430.7 459.3,433.4 462.2,433.9 460.1,436 460.6,438.9 457.9,437.5 455.3,438.9 455.8,436 
	453.6,433.9 456.6,433.4 "/>
<polygon class="st14" points="259.1,430.7 260.4,433.4 263.4,433.9 261.2,436 261.7,438.9 259.1,437.5 256.4,438.9 256.9,436 
	254.8,433.9 257.8,433.4 "/>
<polygon class="st14" points="238.7,430.7 240,433.4 243,433.9 240.9,436 241.4,438.9 238.7,437.5 236,438.9 236.6,436 234.4,433.9 
	237.4,433.4 "/>
<polygon class="st14" points="101.3,430.7 102.7,433.4 105.6,433.9 103.5,436 104,438.9 101.3,437.5 98.7,438.9 99.2,436 97,433.9 
	100,433.4 "/>
<polygon class="st14" points="81.7,430.7 83,433.4 86,433.9 83.8,436 84.3,438.9 81.7,437.5 79,438.9 79.5,436 77.4,433.9 
	80.3,433.4 "/>
<g>
	<g>
		<line class="st14" x1="312" y1="469.2" x2="312" y2="476.7"/>
		<g>
			<path d="M312,479.9c-0.6-1.5-1.5-3.3-2.5-4.5l2.5,0.9l2.5-0.9C313.5,476.6,312.6,478.4,312,479.9z"/>
		</g>
	</g>
</g>
<g>
	<g>
		<line class="st14" x1="159" y1="470.2" x2="159" y2="477.7"/>
		<g>
			<path d="M159,480.9c-0.6-1.5-1.5-3.3-2.5-4.5l2.5,0.9l2.5-0.9C160.5,477.6,159.6,479.4,159,480.9z"/>
		</g>
	</g>
</g>
<g>
	<g>
		<line class="st14" x1="554.8" y1="468.6" x2="554.8" y2="476.1"/>
		<g>
			<path d="M554.8,479.3c-0.6-1.5-1.5-3.3-2.5-4.5l2.5,0.9l2.5-0.9C556.3,475.9,555.4,477.8,554.8,479.3z"/>
		</g>
	</g>
</g>
<g>
	<g>
		<line class="st14" x1="402.4" y1="469.2" x2="402.4" y2="476.7"/>
		<g>
			<path d="M402.4,479.9c-0.6-1.5-1.5-3.3-2.5-4.5l2.5,0.9l2.5-0.9C403.9,476.5,402.9,478.4,402.4,479.9z"/>
		</g>
	</g>
</g>
<g>
	<rect x="387.5" y="488" class="st15" width="41.7" height="2.9"/>
	<path class="st15" d="M381.8,481.2c-3.4,0-6.2,3.7-6.2,8.2c0,4.6,2.8,8.2,6.2,8.2s6.2-3.7,6.2-8.2
		C388,484.9,385.2,481.2,381.8,481.2z M379.6,489.4c-2.6-2.6-0.7-5.9,2.2-5.9c2.1,0,4.9,2.9,1.9,5.9c2.9,3.3,0.3,5.9-1.9,5.9
		C379,495.3,377,492,379.6,489.4z"/>
	<polygon class="st15" points="425.2,483.9 425.2,486.3 422.9,486.3 422.9,483.9 418.9,483.9 418.9,488 429.2,488 429.2,483.9 	"/>
	<path class="st15" d="M388.4,491.6L388.4,491.6c-0.2,0-0.4-0.2-0.4-0.4v-3.4c0-0.2,0.2-0.4,0.4-0.4l0,0c0.2,0,0.4,0.2,0.4,0.4v3.4
		C388.8,491.4,388.6,491.6,388.4,491.6z"/>
	<path class="st15" d="M389.2,491.6L389.2,491.6c-0.2,0-0.4-0.2-0.4-0.4v-3.4c0-0.2,0.2-0.4,0.4-0.4l0,0c0.2,0,0.4,0.2,0.4,0.4v3.4
		C389.6,491.4,389.4,491.6,389.2,491.6z"/>
	<path class="st15" d="M418.5,491.6L418.5,491.6c-0.2,0-0.4-0.2-0.4-0.4v-3.4c0-0.2,0.2-0.4,0.4-0.4l0,0c0.2,0,0.4,0.2,0.4,0.4v3.4
		C418.9,491.4,418.7,491.6,418.5,491.6z"/>
</g>
<g>
	<rect x="540" y="488" class="st15" width="41.7" height="2.9"/>
	<path class="st15" d="M534.2,481.2c-3.4,0-6.2,3.7-6.2,8.2c0,4.6,2.8,8.2,6.2,8.2c3.4,0,6.2-3.7,6.2-8.2
		C540.4,484.9,537.6,481.2,534.2,481.2z M532,489.4c-2.6-2.6-0.7-5.9,2.2-5.9c2.1,0,4.9,2.9,1.9,5.9c2.9,3.3,0.3,5.9-1.9,5.9
		C531.4,495.3,529.5,492,532,489.4z"/>
	<polygon class="st15" points="577.7,483.9 577.7,486.3 575.3,486.3 575.3,483.9 571.3,483.9 571.3,488 581.6,488 581.6,483.9 	"/>
	<path class="st15" d="M540.8,491.6L540.8,491.6c-0.2,0-0.4-0.2-0.4-0.4v-3.4c0-0.2,0.2-0.4,0.4-0.4l0,0c0.2,0,0.4,0.2,0.4,0.4v3.4
		C541.2,491.4,541.1,491.6,540.8,491.6z"/>
	<path class="st15" d="M541.7,491.6L541.7,491.6c-0.2,0-0.4-0.2-0.4-0.4v-3.4c0-0.2,0.2-0.4,0.4-0.4l0,0c0.2,0,0.4,0.2,0.4,0.4v3.4
		C542.1,491.4,541.9,491.6,541.7,491.6z"/>
	<path class="st15" d="M570.9,491.6L570.9,491.6c-0.2,0-0.4-0.2-0.4-0.4v-3.4c0-0.2,0.2-0.4,0.4-0.4l0,0c0.2,0,0.4,0.2,0.4,0.4v3.4
		C571.3,491.4,571.1,491.6,570.9,491.6z"/>
</g>
<g>
	<polygon class="st16" points="334,483.4 334,484.9 332.4,484.9 332.4,483.4 328.2,483.4 328.2,486.4 330.6,486.4 330.6,489.4 
		335.8,489.4 335.8,486.4 338.2,486.4 338.2,483.4 	"/>
	<rect x="297.6" y="488" class="st16" width="40.6" height="2.8"/>
	<path class="st16" d="M291.8,481.4L291.8,481.4c-3.3,0-6,2.7-6,6v4c0,3.3,2.7,6,6,6l0,0c3.3,0,6-2.7,6-6v-4
		C297.8,484.1,295.1,481.4,291.8,481.4z M290,491.5c-1.1,0-2-0.9-2-2s0.9-2,2-2s2,0.9,2,2S291.2,491.5,290,491.5z"/>
	<path class="st16" d="M298.3,491.5L298.3,491.5c-0.2,0-0.4-0.2-0.4-0.4v-3.3c0-0.2,0.2-0.4,0.4-0.4l0,0c0.2,0,0.4,0.2,0.4,0.4v3.3
		C298.7,491.3,298.6,491.5,298.3,491.5z"/>
	<path class="st16" d="M299.1,491.5L299.1,491.5c-0.2,0-0.4-0.2-0.4-0.4v-3.3c0-0.2,0.2-0.4,0.4-0.4l0,0c0.2,0,0.4,0.2,0.4,0.4v3.3
		C299.5,491.3,299.4,491.5,299.1,491.5z"/>
	<path class="st16" d="M327.6,491.5L327.6,491.5c-0.2,0-0.4-0.2-0.4-0.4v-3.3c0-0.2,0.2-0.4,0.4-0.4l0,0c0.2,0,0.4,0.2,0.4,0.4v3.3
		C328,491.3,327.8,491.5,327.6,491.5z"/>
</g>
<g>
	<polygon class="st16" points="181,483.4 181,484.9 179.4,484.9 179.4,483.4 175.2,483.4 175.2,486.4 177.6,486.4 177.6,489.4 
		182.8,489.4 182.8,486.4 185.2,486.4 185.2,483.4 	"/>
	<rect x="144.6" y="488" class="st16" width="40.6" height="2.8"/>
	<path class="st16" d="M138.8,481.4L138.8,481.4c-3.3,0-6,2.7-6,6v4c0,3.3,2.7,6,6,6h0c3.3,0,6-2.7,6-6v-4
		C144.8,484.1,142.1,481.4,138.8,481.4z M137,491.5c-1.1,0-2-0.9-2-2s0.9-2,2-2s2,0.9,2,2S138.1,491.5,137,491.5z"/>
	<path class="st16" d="M145.3,491.5L145.3,491.5c-0.2,0-0.4-0.2-0.4-0.4v-3.3c0-0.2,0.2-0.4,0.4-0.4l0,0c0.2,0,0.4,0.2,0.4,0.4v3.3
		C145.7,491.3,145.6,491.5,145.3,491.5z"/>
	<path class="st16" d="M146.1,491.5L146.1,491.5c-0.2,0-0.4-0.2-0.4-0.4v-3.3c0-0.2,0.2-0.4,0.4-0.4l0,0c0.2,0,0.4,0.2,0.4,0.4v3.3
		C146.5,491.3,146.4,491.5,146.1,491.5z"/>
	<path class="st16" d="M174.6,491.5L174.6,491.5c-0.2,0-0.4-0.2-0.4-0.4v-3.3c0-0.2,0.2-0.4,0.4-0.4l0,0c0.2,0,0.4,0.2,0.4,0.4v3.3
		C175,491.3,174.8,491.5,174.6,491.5z"/>
</g>
</svg>
