<?xml version="1.0" encoding="utf-8"?>
<!-- Generator: Adobe Illustrator 22.1.0, SVG Export Plug-In . SVG Version: 6.00 Build 0)  -->
<svg version="1.1" id="Layer_1" xmlns="http://www.w3.org/2000/svg" xmlns:xlink="http://www.w3.org/1999/xlink" x="0px" y="0px"
	 viewBox="0 0 432 432" style="enable-background:new 0 0 432 432;" xml:space="preserve">
<style type="text/css">
	.st0{enable-background:new    ;}
	.st1{fill:#153267;}
	.st2{fill:#005AC8;stroke:#153267;stroke-width:0.6045;stroke-miterlimit:10;}
	.st3{fill:#5C0015;}
	.st4{fill:#AA0A3C;stroke:#5C0015;stroke-width:0.6045;stroke-miterlimit:10;}
	.st5{fill:#006B33;}
	.st6{fill:#0AB45A;stroke:#006B33;stroke-width:0.6045;stroke-miterlimit:10;}
	.st7{fill:#005AC8;}
	.st8{fill:#AA0A3C;}
	.st9{fill:none;stroke:#000000;stroke-miterlimit:10;}
	.st10{fill:none;stroke:#000000;stroke-width:0.9342;stroke-miterlimit:10;}
	.st11{fill:#0AB45A;}
	.st12{fill:none;stroke:#AA0A3C;stroke-width:2;stroke-miterlimit:10;}
	.st13{fill:none;stroke:#0AB45A;stroke-width:2;stroke-miterlimit:10;}
</style>
<g id="Assata">
	<g class="st0">
		<path class="st1" d="M98.4,15c-0.3,0-0.3,0-0.4,0.2l-0.5,1.4c-0.1,0.2-0.1,0.3-0.1,0.4c0,0.1,0.2,0.1,0.5,0.2l0.4,0.1
			c0.1,0.1,0.1,0.4,0,0.4c-0.4,0-0.9,0-1.4,0c-0.4,0-0.7,0-1.2,0c-0.1-0.1-0.1-0.3,0-0.4l0.3,0c0.3,0,0.5-0.1,0.7-0.6
			c0.2-0.5,0.4-1.1,0.8-1.9l1.1-2.9c0.3-0.8,0.5-1.2,0.4-1.5c0.6-0.1,1-0.7,1-0.7c0.2,0,0.2,0.1,0.3,0.2c0.1,0.3,0.2,0.8,0.5,1.6
			l1.6,4.7c0.3,0.7,0.4,1,0.8,1.1l0.5,0.1c0.1,0.1,0.1,0.3,0,0.4c-0.6,0-1.2,0-1.8,0c-0.6,0-1.1,0-1.6,0c-0.1-0.1-0.2-0.3,0-0.4
			l0.4-0.1c0.3,0,0.3-0.1,0.3-0.2c0-0.1-0.1-0.4-0.2-0.8l-0.3-1c-0.1-0.2-0.2-0.2-0.6-0.2H98.4z M99.8,14.3c0.3,0,0.3,0,0.2-0.3
			l-0.3-1c-0.2-0.5-0.4-1.2-0.5-1.4c-0.1,0.3-0.3,0.9-0.5,1.5L98.4,14c-0.1,0.3,0,0.4,0.3,0.4H99.8z"/>
		<path class="st1" d="M104,17.5c-0.1-0.2-0.2-0.8-0.2-1.4c0.1-0.1,0.3-0.1,0.4,0c0.2,0.5,0.6,1.2,1.2,1.2c0.4,0,0.6-0.2,0.6-0.6
			c0-0.4-0.4-0.7-0.8-0.9c-0.7-0.4-1.2-0.8-1.2-1.5c0-1,0.9-1.5,1.9-1.5c0.6,0,1.2,0.2,1.3,0.3c0.1,0.3,0.2,0.7,0.2,1.2
			c0,0.1-0.3,0.1-0.4,0c-0.2-0.7-0.5-0.9-0.9-0.9c-0.3,0-0.6,0.2-0.6,0.5c0,0.3,0.2,0.5,0.8,0.8c0.8,0.4,1.3,0.9,1.3,1.7
			c0,1.1-0.9,1.6-2.1,1.6C104.8,17.8,104.3,17.7,104,17.5z"/>
		<path class="st1" d="M108.3,17.5c-0.1-0.2-0.2-0.8-0.2-1.4c0.1-0.1,0.3-0.1,0.4,0c0.2,0.5,0.6,1.2,1.2,1.2c0.4,0,0.6-0.2,0.6-0.6
			c0-0.4-0.4-0.7-0.8-0.9c-0.7-0.4-1.2-0.8-1.2-1.5c0-1,0.9-1.5,1.9-1.5c0.6,0,1.2,0.2,1.3,0.3c0.1,0.3,0.2,0.7,0.2,1.2
			c0,0.1-0.3,0.1-0.4,0c-0.2-0.7-0.5-0.9-0.9-0.9c-0.3,0-0.6,0.2-0.6,0.5c0,0.3,0.2,0.5,0.8,0.8c0.8,0.4,1.3,0.9,1.3,1.7
			c0,1.1-0.9,1.6-2.1,1.6C109.1,17.8,108.6,17.7,108.3,17.5z"/>
		<path class="st1" d="M116.6,16c0,0.8,0.3,1,0.5,1c0.1,0,0.3,0,0.5-0.1c0.1,0,0.2,0.2,0.1,0.3c-0.1,0.2-0.7,0.6-1.4,0.6
			c-0.4,0-0.7-0.1-1-0.4c-0.1-0.1-0.1-0.1-0.2-0.1c-0.1,0-0.1,0-0.3,0.1c-0.2,0.2-0.6,0.4-1,0.4c-0.7,0-1.3-0.4-1.3-1.3
			c0-0.6,0.4-1,1.2-1.2c0.5-0.1,0.8-0.2,1.1-0.3c0.2-0.1,0.3-0.1,0.3-0.2c0-0.1,0-0.3,0-0.4c0-0.5-0.2-1-0.7-1
			c-0.3,0-0.5,0.2-0.6,0.7c0,0.2-0.1,0.3-0.2,0.4c-0.2,0.1-0.6,0.3-0.9,0.3c-0.2,0-0.3-0.1-0.3-0.3c0-0.3,0.3-0.7,0.6-0.9
			c0.4-0.3,1.2-0.7,2-0.7c1,0,1.6,0.5,1.5,1.7L116.6,16z M115.1,15.7c0-0.2,0-0.2-0.1-0.2c-0.5,0.1-1,0.3-1,0.8
			c0,0.4,0.3,0.7,0.6,0.7c0.4,0,0.4-0.2,0.5-0.6L115.1,15.7z"/>
		<path class="st1" d="M120.1,13.5c-0.2,0-0.2,0-0.2,0.3v1.8c0,0.7,0,1.4,0.8,1.4c0.2,0,0.4-0.1,0.5-0.2c0.1,0,0.2,0.2,0.2,0.3
			c-0.3,0.4-1,0.7-1.7,0.7c-1,0-1.3-0.6-1.3-1.4v-2.7c0-0.3,0-0.3-0.2-0.3h-0.4c-0.1,0-0.2-0.3-0.1-0.4c0.4-0.1,0.7-0.3,1-0.5
			c0.2-0.2,0.5-0.4,0.9-0.9c0.1,0,0.3,0,0.4,0.1v0.9c0,0.2,0,0.2,0.2,0.2h1.1c0.1,0,0.1,0.1,0.1,0.2c0,0.1,0,0.3-0.2,0.4H120.1z"/>
		<path class="st1" d="M125.7,16c0,0.8,0.3,1,0.5,1c0.1,0,0.3,0,0.5-0.1c0.1,0,0.2,0.2,0.1,0.3c-0.1,0.2-0.7,0.6-1.4,0.6
			c-0.4,0-0.7-0.1-1-0.4c-0.1-0.1-0.1-0.1-0.2-0.1c-0.1,0-0.1,0-0.3,0.1c-0.2,0.2-0.6,0.4-1,0.4c-0.7,0-1.3-0.4-1.3-1.3
			c0-0.6,0.4-1,1.2-1.2c0.5-0.1,0.8-0.2,1.1-0.3c0.2-0.1,0.3-0.1,0.3-0.2c0-0.1,0-0.3,0-0.4c0-0.5-0.2-1-0.7-1
			c-0.3,0-0.5,0.2-0.6,0.7c0,0.2-0.1,0.3-0.2,0.4c-0.2,0.1-0.6,0.3-0.9,0.3c-0.2,0-0.3-0.1-0.3-0.3c0-0.3,0.3-0.7,0.6-0.9
			c0.4-0.3,1.2-0.7,2-0.7c1,0,1.6,0.5,1.5,1.7L125.7,16z M124.3,15.7c0-0.2,0-0.2-0.1-0.2c-0.5,0.1-1,0.3-1,0.8
			c0,0.4,0.3,0.7,0.6,0.7c0.4,0,0.4-0.2,0.5-0.6L124.3,15.7z"/>
	</g>
	<g>
		<polygon class="st2" points="119.4,93.3 115.3,93.3 115.3,91.2 119.4,91.2 119.4,85.5 111.2,85.5 111.2,99.1 119.4,99.1 		"/>
		<rect x="109.3" y="44.6" class="st2" width="3.8" height="54.4"/>
		<path class="st2" d="M108.5,45.3L108.5,45.3c0-0.3,0.2-0.5,0.5-0.5h4.5c0.3,0,0.5,0.2,0.5,0.5l0,0c0,0.3-0.2,0.5-0.5,0.5H109
			C108.7,45.9,108.5,45.6,108.5,45.3z"/>
		<path class="st2" d="M108.5,46.4L108.5,46.4c0-0.3,0.2-0.5,0.5-0.5h4.5c0.3,0,0.5,0.2,0.5,0.5l0,0c0,0.3-0.2,0.5-0.5,0.5H109
			C108.7,47,108.5,46.7,108.5,46.4z"/>
		<path class="st2" d="M108.5,84.9L108.5,84.9c0-0.3,0.2-0.5,0.5-0.5h4.5c0.3,0,0.5,0.2,0.5,0.5l0,0c0,0.3-0.2,0.5-0.5,0.5H109
			C108.7,85.5,108.5,85.2,108.5,84.9z"/>
		<path class="st2" d="M122.1,36.5L122.1,36.5c0-4.5-3.7-8.2-8.2-8.2h-0.5c0-1.2-1-2.2-2.2-2.2s-2.2,1-2.2,2.2h-0.5
			c-4.5,0-8.2,3.7-8.2,8.2l0,0c0,4.5,3.7,8.2,8.2,8.2h5.4C118.5,44.6,122.1,41,122.1,36.5z M111.2,27.2c0.6,0,1.1,0.5,1.1,1.1
			s-0.5,1.1-1.1,1.1s-1.1-0.5-1.1-1.1C110.2,27.7,110.6,27.2,111.2,27.2z M108.5,41.9c-3,0-5.4-2.4-5.4-5.4l0,0
			c0-1.8,0.9-3.5,2.3-4.5s3.3-0.9,4.6,0.2l1.3,1l1.3-1c1.3-1.1,3.2-1.2,4.6-0.2s2.3,2.6,2.3,4.5l0,0c0,3-2.4,5.4-5.4,5.4H108.5z"/>
	</g>
</g>
<g id="Assata_1_">
	<g class="st0">
		<path class="st1" d="M95.1,231.3c-0.3,0-0.3,0-0.4,0.2l-0.5,1.4c-0.1,0.2-0.1,0.3-0.1,0.4c0,0.1,0.2,0.1,0.5,0.2l0.4,0.1
			c0.1,0.1,0.1,0.4,0,0.4c-0.4,0-0.9,0-1.4,0c-0.4,0-0.7,0-1.2,0c-0.1-0.1-0.1-0.3,0-0.4l0.3,0c0.3,0,0.5-0.1,0.7-0.6
			c0.2-0.5,0.4-1.1,0.8-1.9l1.1-2.9c0.3-0.8,0.5-1.2,0.4-1.5c0.6-0.1,1-0.7,1-0.7c0.2,0,0.2,0.1,0.3,0.2c0.1,0.3,0.2,0.8,0.5,1.6
			l1.6,4.7c0.3,0.7,0.4,1,0.8,1.1l0.5,0.1c0.1,0.1,0.1,0.3,0,0.4c-0.6,0-1.2,0-1.8,0c-0.6,0-1.1,0-1.6,0c-0.1-0.1-0.2-0.3,0-0.4
			l0.4-0.1c0.3,0,0.3-0.1,0.3-0.2c0-0.1-0.1-0.4-0.2-0.8l-0.3-1c-0.1-0.2-0.2-0.2-0.6-0.2H95.1z M96.5,230.7c0.3,0,0.3,0,0.2-0.3
			l-0.3-1c-0.2-0.5-0.4-1.2-0.5-1.4c-0.1,0.3-0.3,0.9-0.5,1.5l-0.3,0.9c-0.1,0.3,0,0.4,0.3,0.4H96.5z"/>
		<path class="st1" d="M100.7,233.8c-0.1-0.2-0.2-0.8-0.2-1.4c0.1-0.1,0.3-0.1,0.4,0c0.2,0.5,0.6,1.2,1.2,1.2c0.4,0,0.6-0.2,0.6-0.6
			c0-0.4-0.4-0.7-0.8-0.9c-0.7-0.4-1.2-0.8-1.2-1.5c0-1,0.9-1.5,1.9-1.5c0.6,0,1.2,0.2,1.3,0.3c0.1,0.3,0.2,0.7,0.2,1.2
			c0,0.1-0.3,0.1-0.4,0c-0.2-0.7-0.5-0.9-0.9-0.9c-0.3,0-0.6,0.2-0.6,0.5c0,0.3,0.2,0.5,0.8,0.8c0.8,0.4,1.3,0.9,1.3,1.7
			c0,1.1-0.9,1.6-2.1,1.6C101.5,234.2,101.1,234,100.7,233.8z"/>
		<path class="st1" d="M105,233.8c-0.1-0.2-0.2-0.8-0.2-1.4c0.1-0.1,0.3-0.1,0.4,0c0.2,0.5,0.6,1.2,1.2,1.2c0.4,0,0.6-0.2,0.6-0.6
			c0-0.4-0.4-0.7-0.8-0.9c-0.7-0.4-1.2-0.8-1.2-1.5c0-1,0.9-1.5,1.9-1.5c0.6,0,1.2,0.2,1.3,0.3c0.1,0.3,0.2,0.7,0.2,1.2
			c0,0.1-0.3,0.1-0.4,0c-0.2-0.7-0.5-0.9-0.9-0.9c-0.3,0-0.6,0.2-0.6,0.5c0,0.3,0.2,0.5,0.8,0.8c0.8,0.4,1.3,0.9,1.3,1.7
			c0,1.1-0.9,1.6-2.1,1.6C105.8,234.2,105.3,234,105,233.8z"/>
		<path class="st1" d="M113.3,232.4c0,0.8,0.3,1,0.5,1c0.1,0,0.3,0,0.5-0.1c0.1,0,0.2,0.2,0.1,0.3c-0.1,0.2-0.7,0.6-1.4,0.6
			c-0.4,0-0.7-0.1-1-0.4c-0.1-0.1-0.1-0.1-0.2-0.1c-0.1,0-0.1,0-0.3,0.1c-0.2,0.2-0.6,0.4-1,0.4c-0.7,0-1.3-0.4-1.3-1.3
			c0-0.6,0.4-1,1.2-1.2c0.5-0.1,0.8-0.2,1.1-0.3c0.2-0.1,0.3-0.1,0.3-0.2c0-0.1,0-0.3,0-0.4c0-0.5-0.2-1-0.7-1
			c-0.3,0-0.5,0.2-0.6,0.7c0,0.2-0.1,0.3-0.2,0.4c-0.2,0.1-0.6,0.3-0.9,0.3c-0.2,0-0.3-0.1-0.3-0.3c0-0.3,0.3-0.7,0.6-0.9
			c0.4-0.3,1.2-0.7,2-0.7c1,0,1.6,0.5,1.5,1.7L113.3,232.4z M111.8,232c0-0.2,0-0.2-0.1-0.2c-0.5,0.1-1,0.3-1,0.8
			c0,0.4,0.3,0.7,0.6,0.7c0.4,0,0.4-0.2,0.5-0.6L111.8,232z"/>
		<path class="st1" d="M116.8,229.9c-0.2,0-0.2,0-0.2,0.3v1.8c0,0.7,0,1.4,0.8,1.4c0.2,0,0.4-0.1,0.5-0.2c0.1,0,0.2,0.2,0.2,0.3
			c-0.3,0.4-1,0.7-1.7,0.7c-1,0-1.3-0.6-1.3-1.4v-2.7c0-0.3,0-0.3-0.2-0.3h-0.4c-0.1,0-0.2-0.3-0.1-0.4c0.4-0.1,0.7-0.3,1-0.5
			c0.2-0.2,0.5-0.4,0.9-0.9c0.1,0,0.3,0,0.4,0.1v0.9c0,0.2,0,0.2,0.2,0.2h1.1c0.1,0,0.1,0.1,0.1,0.2c0,0.1,0,0.3-0.2,0.4H116.8z"/>
		<path class="st1" d="M122.5,232.4c0,0.8,0.3,1,0.5,1c0.1,0,0.3,0,0.5-0.1c0.1,0,0.2,0.2,0.1,0.3c-0.1,0.2-0.7,0.6-1.4,0.6
			c-0.4,0-0.7-0.1-1-0.4c-0.1-0.1-0.1-0.1-0.2-0.1c-0.1,0-0.1,0-0.3,0.1c-0.2,0.2-0.6,0.4-1,0.4c-0.7,0-1.3-0.4-1.3-1.3
			c0-0.6,0.4-1,1.2-1.2c0.5-0.1,0.8-0.2,1.1-0.3c0.2-0.1,0.3-0.1,0.3-0.2c0-0.1,0-0.3,0-0.4c0-0.5-0.2-1-0.7-1
			c-0.3,0-0.5,0.2-0.6,0.7c0,0.2-0.1,0.3-0.2,0.4c-0.2,0.1-0.6,0.3-0.9,0.3c-0.2,0-0.3-0.1-0.3-0.3c0-0.3,0.3-0.7,0.6-0.9
			c0.4-0.3,1.2-0.7,2-0.7c1,0,1.6,0.5,1.5,1.7L122.5,232.4z M121,232c0-0.2,0-0.2-0.1-0.2c-0.5,0.1-1,0.3-1,0.8
			c0,0.4,0.3,0.7,0.6,0.7c0.4,0,0.4-0.2,0.5-0.6L121,232z"/>
	</g>
	<g>
		<polygon class="st2" points="116.1,310.4 112.1,310.4 112.1,308.2 116.1,308.2 116.1,302.5 108,302.5 108,316.1 116.1,316.1 		"/>
		<rect x="106.1" y="261.7" class="st2" width="3.8" height="54.4"/>
		<path class="st2" d="M105.2,262.3L105.2,262.3c0-0.3,0.2-0.5,0.5-0.5h4.5c0.3,0,0.5,0.2,0.5,0.5l0,0c0,0.3-0.2,0.5-0.5,0.5h-4.5
			C105.4,262.9,105.2,262.6,105.2,262.3z"/>
		<path class="st2" d="M105.2,263.4L105.2,263.4c0-0.3,0.2-0.5,0.5-0.5h4.5c0.3,0,0.5,0.2,0.5,0.5l0,0c0,0.3-0.2,0.5-0.5,0.5h-4.5
			C105.4,264,105.2,263.7,105.2,263.4z"/>
		<path class="st2" d="M105.2,301.9L105.2,301.9c0-0.3,0.2-0.5,0.5-0.5h4.5c0.3,0,0.5,0.2,0.5,0.5l0,0c0,0.3-0.2,0.5-0.5,0.5h-4.5
			C105.4,302.5,105.2,302.2,105.2,301.9z"/>
		<path class="st2" d="M118.9,253.5L118.9,253.5c0-4.5-3.7-8.2-8.2-8.2h-0.5c0-1.2-1-2.2-2.2-2.2s-2.2,1-2.2,2.2h-0.5
			c-4.5,0-8.2,3.7-8.2,8.2l0,0c0,4.5,3.7,8.2,8.2,8.2h5.4C115.2,261.7,118.9,258,118.9,253.5z M108,244.3c0.6,0,1.1,0.5,1.1,1.1
			s-0.5,1.1-1.1,1.1s-1.1-0.5-1.1-1.1S107.4,244.3,108,244.3z M105.3,258.9c-3,0-5.4-2.4-5.4-5.4l0,0c0-1.8,0.9-3.5,2.3-4.5
			s3.3-0.9,4.6,0.2l1.3,1l1.3-1c1.3-1.1,3.2-1.2,4.6-0.2s2.3,2.6,2.3,4.5l0,0c0,3-2.4,5.4-5.4,5.4H105.3z"/>
	</g>
</g>
<g id="Bobby">
	<g class="st0">
		<path class="st3" d="M306,11.7c0-1.2,0-1.3-0.5-1.4l-0.3,0c-0.1-0.1-0.1-0.4,0-0.4c0.9-0.1,1.8-0.1,3-0.1c1.2,0,1.9,0.1,2.4,0.4
			c0.5,0.3,0.8,0.8,0.8,1.5c0,1-0.9,1.4-1.2,1.5c-0.1,0-0.2,0.1-0.2,0.1c0,0,0.1,0.1,0.2,0.1c0.9,0.2,1.8,0.8,1.8,2
			c0,1.1-0.6,1.8-1.4,2c-0.8,0.3-1.7,0.3-2.4,0.3c-0.4,0-0.9,0-1.2,0c-0.6,0-1.2,0-1.9,0c-0.1-0.1-0.1-0.4,0-0.4l0.3-0.1
			c0.5-0.1,0.6-0.2,0.6-1.3V11.7z M307.6,12.9c0,0.3,0,0.3,0.6,0.3c1,0,1.4-0.7,1.4-1.4c0-1-0.6-1.6-1.5-1.6c-0.6,0-0.6,0.1-0.6,0.6
			V12.9z M307.6,15.6c0,0.9,0.1,1.5,1.1,1.5c0.9,0,1.4-0.7,1.4-1.7c0-1-0.6-1.8-1.8-1.8c-0.7,0-0.7,0-0.7,0.5V15.6z"/>
		<path class="st3" d="M312.7,15.4c0-1.7,1.3-2.7,2.8-2.7s2.7,0.9,2.7,2.6c0,1.8-1.3,2.6-2.8,2.6C313.9,17.8,312.7,17,312.7,15.4z
			 M314.4,15.1c0,1.3,0.4,2.2,1.1,2.2c0.7,0,0.9-0.8,0.9-1.9c0-1.2-0.3-2.2-1-2.2C314.8,13.3,314.4,13.8,314.4,15.1z"/>
		<path class="st3" d="M320.8,12.7c0,0.2,0.1,0.3,0.1,0.3c0.3-0.2,0.8-0.3,1.3-0.3c1.4,0,2.2,1,2.2,2.4c0,1.7-1.2,2.7-3,2.7
			c-0.5,0-1.1-0.1-1.3-0.2c-0.2-0.1-0.3-0.1-0.4-0.1c-0.1,0-0.3,0.1-0.4,0.2c-0.1,0-0.2,0-0.2-0.1c0-0.2,0-0.6,0-1.2V11
			c0-0.5,0-0.6-0.2-0.8l-0.2-0.1c-0.1-0.1-0.1-0.3,0-0.4c0.5-0.1,1.2-0.4,1.8-0.7c0.1,0,0.2,0,0.2,0.1c0,0.5,0,1,0,1.8V12.7z
			 M320.8,16c0,0.3,0.1,0.6,0.2,0.9c0.2,0.2,0.4,0.4,0.7,0.4c0.8,0,1.1-0.9,1.1-1.8c0-1.2-0.6-2-1.4-2c-0.2,0-0.4,0.1-0.5,0.1
			c-0.1,0.1-0.1,0.3-0.1,0.6V16z"/>
		<path class="st3" d="M327.2,12.7c0,0.2,0.1,0.3,0.1,0.3c0.3-0.2,0.8-0.3,1.3-0.3c1.4,0,2.2,1,2.2,2.4c0,1.7-1.2,2.7-3,2.7
			c-0.5,0-1.1-0.1-1.3-0.2c-0.2-0.1-0.3-0.1-0.4-0.1c-0.1,0-0.3,0.1-0.4,0.2c-0.1,0-0.2,0-0.2-0.1c0-0.2,0-0.6,0-1.2V11
			c0-0.5,0-0.6-0.2-0.8l-0.2-0.1c-0.1-0.1-0.1-0.3,0-0.4c0.5-0.1,1.2-0.4,1.8-0.7c0.1,0,0.2,0,0.2,0.1c0,0.5,0,1,0,1.8V12.7z
			 M327.2,16c0,0.3,0.1,0.6,0.2,0.9c0.2,0.2,0.4,0.4,0.7,0.4c0.8,0,1.1-0.9,1.1-1.8c0-1.2-0.6-2-1.4-2c-0.2,0-0.4,0.1-0.5,0.1
			c-0.1,0.1-0.1,0.3-0.1,0.6V16z"/>
		<path class="st3" d="M331.1,13.3c-0.1-0.1-0.1-0.4,0-0.4c0.4,0,0.9,0,1.6,0c0.4,0,0.9,0,1.3,0c0.1,0,0.1,0.3,0,0.4l-0.2,0
			c-0.3,0.1-0.4,0.1-0.4,0.2c0,0.1,0.1,0.5,0.4,1.1c0.1,0.3,0.4,1.1,0.5,1.4c0.1-0.3,0.3-0.5,0.4-0.8l0.2-0.5
			c0.3-0.6,0.4-1.1,0.4-1.2c0-0.1-0.1-0.1-0.3-0.2l-0.2,0c-0.1-0.1-0.1-0.4,0-0.4c0.3,0,0.6,0,1.2,0c0.3,0,0.6,0,0.9,0
			c0.1,0,0.1,0.3,0,0.4l-0.2,0c-0.2,0-0.4,0.1-0.6,0.3c-0.1,0.2-0.4,0.7-0.7,1.3l-0.6,1.3l-1.8,3.8c-0.3,0.5-0.6,0.8-1,0.8
			c-0.6,0-0.8-0.4-0.8-0.7c0-0.4,0.3-0.6,0.7-0.6h0.3c0.3,0,0.5-0.1,0.6-0.3c0.1-0.2,0.2-0.4,0.3-0.7c0.1-0.1,0.2-0.4,0.2-0.5
			c0-0.2,0-0.4-0.2-0.9l-1.2-2.9c-0.2-0.6-0.3-0.8-0.7-0.9L331.1,13.3z"/>
	</g>
	<g>
		<polygon class="st4" points="328.9,94 324.8,94 324.8,91.9 328.9,91.9 328.9,86.1 320.7,86.1 320.7,99.7 328.9,99.7 		"/>
		<rect x="318.8" y="45.3" class="st4" width="3.8" height="54.4"/>
		<path class="st4" d="M317.9,46L317.9,46c0-0.3,0.2-0.5,0.5-0.5h4.5c0.3,0,0.5,0.2,0.5,0.5l0,0c0,0.3-0.2,0.5-0.5,0.5h-4.5
			C318.2,46.6,317.9,46.3,317.9,46z"/>
		<path class="st4" d="M317.9,47.1L317.9,47.1c0-0.3,0.2-0.5,0.5-0.5h4.5c0.3,0,0.5,0.2,0.5,0.5l0,0c0,0.3-0.2,0.5-0.5,0.5h-4.5
			C318.2,47.7,317.9,47.4,317.9,47.1z"/>
		<path class="st4" d="M317.9,85.6L317.9,85.6c0-0.3,0.2-0.5,0.5-0.5h4.5c0.3,0,0.5,0.2,0.5,0.5l0,0c0,0.3-0.2,0.5-0.5,0.5h-4.5
			C318.2,86.1,317.9,85.9,317.9,85.6z"/>
		<path class="st4" d="M331.6,37.2L331.6,37.2c0-4.5-3.7-8.2-8.2-8.2h-0.5c0-1.2-1-2.2-2.2-2.2s-2.2,1-2.2,2.2H318
			c-4.5,0-8.2,3.7-8.2,8.2l0,0c0,4.5,3.7,8.2,8.2,8.2h5.4C327.9,45.3,331.6,41.7,331.6,37.2z M320.7,27.9c0.6,0,1.1,0.5,1.1,1.1
			s-0.5,1.1-1.1,1.1s-1.1-0.5-1.1-1.1S320.1,27.9,320.7,27.9z M318,42.6c-3,0-5.4-2.4-5.4-5.4l0,0c0-1.8,0.9-3.5,2.3-4.5
			s3.3-0.9,4.6,0.2l1.3,1l1.3-1c1.3-1.1,3.2-1.2,4.6-0.2s2.3,2.6,2.3,4.5l0,0c0,3-2.4,5.4-5.4,5.4H318z"/>
	</g>
</g>
<g id="Bobby_1_">
	<g class="st0">
		<path class="st3" d="M309.2,228c0-1.2,0-1.3-0.5-1.4l-0.3,0c-0.1-0.1-0.1-0.4,0-0.4c0.9-0.1,1.8-0.1,3-0.1c1.2,0,1.9,0.1,2.4,0.4
			c0.5,0.3,0.8,0.8,0.8,1.5c0,1-0.9,1.4-1.2,1.5c-0.1,0-0.2,0.1-0.2,0.1c0,0,0.1,0.1,0.2,0.1c0.9,0.2,1.8,0.8,1.8,2
			c0,1.1-0.6,1.8-1.4,2s-1.7,0.3-2.4,0.3c-0.4,0-0.9,0-1.2,0c-0.6,0-1.2,0-1.9,0c-0.1-0.1-0.1-0.4,0-0.4l0.3-0.1
			c0.5-0.1,0.6-0.2,0.6-1.3V228z M310.9,229.2c0,0.3,0,0.3,0.6,0.3c1,0,1.4-0.7,1.4-1.4c0-1-0.6-1.6-1.5-1.6c-0.6,0-0.6,0.1-0.6,0.6
			V229.2z M310.9,232c0,0.9,0.1,1.5,1.1,1.5c0.9,0,1.4-0.7,1.4-1.7c0-1-0.6-1.8-1.8-1.8c-0.7,0-0.7,0-0.7,0.5V232z"/>
		<path class="st3" d="M315.9,231.7c0-1.7,1.3-2.7,2.8-2.7c1.4,0,2.7,0.9,2.7,2.6c0,1.8-1.3,2.6-2.8,2.6
			C317.2,234.2,316,233.4,315.9,231.7z M317.7,231.4c0,1.3,0.4,2.2,1.1,2.2c0.7,0,0.9-0.8,0.9-1.9c0-1.2-0.3-2.2-1-2.2
			C318.1,229.6,317.7,230.1,317.7,231.4z"/>
		<path class="st3" d="M324.1,229.1c0,0.2,0.1,0.3,0.1,0.3c0.3-0.2,0.8-0.3,1.3-0.3c1.4,0,2.2,1,2.2,2.4c0,1.7-1.2,2.7-3,2.7
			c-0.5,0-1.1-0.1-1.3-0.2c-0.2-0.1-0.3-0.1-0.4-0.1c-0.1,0-0.3,0.1-0.4,0.2c-0.1,0-0.2,0-0.2-0.1c0-0.2,0-0.6,0-1.2v-5.4
			c0-0.5,0-0.6-0.2-0.8l-0.2-0.1c-0.1-0.1-0.1-0.3,0-0.4c0.5-0.1,1.2-0.4,1.8-0.7c0.1,0,0.2,0,0.2,0.1c0,0.5,0,1,0,1.8V229.1z
			 M324.1,232.3c0,0.3,0.1,0.6,0.2,0.9c0.2,0.2,0.4,0.4,0.7,0.4c0.8,0,1.1-0.9,1.1-1.8c0-1.2-0.6-2-1.4-2c-0.2,0-0.4,0.1-0.5,0.1
			c-0.1,0.1-0.1,0.3-0.1,0.6V232.3z"/>
		<path class="st3" d="M330.5,229.1c0,0.2,0.1,0.3,0.1,0.3c0.3-0.2,0.8-0.3,1.3-0.3c1.4,0,2.2,1,2.2,2.4c0,1.7-1.2,2.7-3,2.7
			c-0.5,0-1.1-0.1-1.3-0.2c-0.2-0.1-0.3-0.1-0.4-0.1c-0.1,0-0.3,0.1-0.4,0.2c-0.1,0-0.2,0-0.2-0.1c0-0.2,0-0.6,0-1.2v-5.4
			c0-0.5,0-0.6-0.2-0.8l-0.2-0.1c-0.1-0.1-0.1-0.3,0-0.4c0.5-0.1,1.2-0.4,1.8-0.7c0.1,0,0.2,0,0.2,0.1c0,0.5,0,1,0,1.8V229.1z
			 M330.5,232.3c0,0.3,0.1,0.6,0.2,0.9c0.2,0.2,0.4,0.4,0.7,0.4c0.8,0,1.1-0.9,1.1-1.8c0-1.2-0.6-2-1.4-2c-0.2,0-0.4,0.1-0.5,0.1
			c-0.1,0.1-0.1,0.3-0.1,0.6V232.3z"/>
		<path class="st3" d="M334.4,229.6c-0.1-0.1-0.1-0.4,0-0.4c0.4,0,0.9,0,1.6,0c0.4,0,0.9,0,1.3,0c0.1,0,0.1,0.3,0,0.4l-0.2,0
			c-0.3,0.1-0.4,0.1-0.4,0.2c0,0.1,0.1,0.5,0.4,1.1c0.1,0.3,0.4,1.1,0.5,1.4c0.1-0.3,0.3-0.5,0.4-0.8l0.2-0.5
			c0.3-0.6,0.4-1.1,0.4-1.2c0-0.1-0.1-0.1-0.3-0.2l-0.2,0c-0.1-0.1-0.1-0.4,0-0.4c0.3,0,0.6,0,1.2,0c0.3,0,0.6,0,0.9,0
			c0.1,0,0.1,0.3,0,0.4l-0.2,0c-0.2,0-0.4,0.1-0.6,0.3c-0.1,0.2-0.4,0.7-0.7,1.3l-0.6,1.3l-1.8,3.8c-0.3,0.5-0.6,0.8-1,0.8
			c-0.6,0-0.8-0.4-0.8-0.7c0-0.4,0.3-0.6,0.7-0.6h0.3c0.3,0,0.5-0.1,0.6-0.3c0.1-0.2,0.2-0.4,0.3-0.7c0.1-0.1,0.2-0.4,0.2-0.5
			c0-0.2,0-0.4-0.2-0.9l-1.2-2.9c-0.2-0.6-0.3-0.8-0.7-0.9L334.4,229.6z"/>
	</g>
	<g>
		<polygon class="st4" points="332.1,310.4 328.1,310.4 328.1,308.2 332.1,308.2 332.1,302.5 324,302.5 324,316.1 332.1,316.1 		"/>
		<rect x="322.1" y="261.7" class="st4" width="3.8" height="54.4"/>
		<path class="st4" d="M321.2,262.3L321.2,262.3c0-0.3,0.2-0.5,0.5-0.5h4.5c0.3,0,0.5,0.2,0.5,0.5l0,0c0,0.3-0.2,0.5-0.5,0.5h-4.5
			C321.4,262.9,321.2,262.6,321.2,262.3z"/>
		<path class="st4" d="M321.2,263.4L321.2,263.4c0-0.3,0.2-0.5,0.5-0.5h4.5c0.3,0,0.5,0.2,0.5,0.5l0,0c0,0.3-0.2,0.5-0.5,0.5h-4.5
			C321.4,264,321.2,263.7,321.2,263.4z"/>
		<path class="st4" d="M321.2,301.9L321.2,301.9c0-0.3,0.2-0.5,0.5-0.5h4.5c0.3,0,0.5,0.2,0.5,0.5l0,0c0,0.3-0.2,0.5-0.5,0.5h-4.5
			C321.4,302.5,321.2,302.2,321.2,301.9z"/>
		<path class="st4" d="M334.9,253.5L334.9,253.5c0-4.5-3.7-8.2-8.2-8.2h-0.5c0-1.2-1-2.2-2.2-2.2s-2.2,1-2.2,2.2h-0.5
			c-4.5,0-8.2,3.7-8.2,8.2l0,0c0,4.5,3.7,8.2,8.2,8.2h5.4C331.2,261.7,334.9,258,334.9,253.5z M324,244.3c0.6,0,1.1,0.5,1.1,1.1
			s-0.5,1.1-1.1,1.1s-1.1-0.5-1.1-1.1S323.4,244.3,324,244.3z M321.3,258.9c-3,0-5.4-2.4-5.4-5.4l0,0c0-1.8,0.9-3.5,2.3-4.5
			s3.3-0.9,4.6,0.2l1.3,1l1.3-1c1.3-1.1,3.2-1.2,4.6-0.2s2.3,2.6,2.3,4.5l0,0c0,3-2.4,5.4-5.4,5.4H321.3z"/>
	</g>
</g>
<g id="Edgar">
	<g class="st0">
		<path class="st5" d="M204.5,229.2c0,0.3,0,0.4,0.3,0.4h0.8c0.6,0,0.8-0.1,0.9-0.7l0.1-0.3c0.1-0.1,0.4-0.1,0.4,0
			c0,0.4,0,0.8,0,1.3c0,0.5,0,0.9,0,1.3c-0.1,0.1-0.4,0.1-0.4,0l-0.1-0.3c-0.1-0.6-0.3-0.7-0.9-0.7h-0.8c-0.3,0-0.3,0-0.3,0.4v1.4
			c0,0.6,0,0.9,0.2,1.1c0.2,0.2,0.4,0.3,1.3,0.3c1,0,1.5,0,2.1-1.4c0.1-0.1,0.4-0.1,0.4,0.1c0,0.6-0.3,1.6-0.5,1.9
			c-0.6,0-1.8,0-2.8,0h-1.6c-0.6,0-1.2,0-2.1,0c-0.1-0.1-0.1-0.4,0-0.4l0.6-0.1c0.5-0.1,0.6-0.2,0.6-1.3v-4.5c0-1.1-0.1-1.2-0.6-1.3
			l-0.3-0.1c-0.1-0.1-0.1-0.3,0-0.4c0.6,0,1.2,0,1.7,0h2.5c0.8,0,1.5,0,1.6,0c0,0.2,0.1,1.1,0.2,1.9c0,0.1-0.3,0.2-0.4,0
			c-0.1-0.4-0.3-0.8-0.5-0.9c-0.2-0.2-0.6-0.4-1.2-0.4h-1c-0.4,0-0.4,0-0.4,0.5V229.2z"/>
		<path class="st5" d="M214.1,232c0,1.1,0,1.4,0.3,1.4c0.2,0,0.3,0,0.5-0.1c0.1,0.1,0.1,0.4,0,0.5c-1.2,0.1-2.1,0.4-2.2,0.4
			c-0.1,0-0.2-0.1-0.2-0.2l0-0.4c0-0.1-0.1-0.1-0.1-0.1c-0.4,0.3-0.9,0.5-1.3,0.5c-1.4,0-2.3-1.1-2.3-2.4c0-1.7,1.3-2.8,2.9-2.8
			c0.3,0,0.6,0,0.7,0.1c0.1,0,0.1-0.1,0.1-0.2v-1.5c0-0.5,0-0.6-0.2-0.8l-0.2-0.1c-0.1-0.1-0.1-0.3,0-0.4c0.5-0.1,1.2-0.4,1.8-0.7
			c0.1,0,0.2,0,0.2,0.1c0,0.5,0,1,0,1.8V232z M212.5,230.4c0-0.2,0-0.3-0.1-0.4c-0.1-0.3-0.4-0.4-0.7-0.4c-0.6,0-1.2,0.6-1.2,1.9
			c0,0.8,0.4,1.9,1.3,1.9c0.2,0,0.3,0,0.5-0.1c0.1-0.1,0.1-0.2,0.1-0.5V230.4z"/>
		<path class="st5" d="M220.8,229.5c0.1,0.1,0.1,0.2,0.1,0.3c0,0.2-0.1,0.4-0.2,0.5h-0.9c0,0.1,0,0.2,0,0.4c0,0.9-0.6,2.1-2.5,2.1
			c-0.2,0-0.4,0-0.5,0c-0.1,0-0.2,0.1-0.2,0.3c0,0.3,0.3,0.4,0.6,0.4c0.4,0,0.9,0,1.5,0c0.9,0,1.9,0.2,1.9,1.5
			c0,0.8-0.5,1.4-1.1,1.8c-0.6,0.4-1.4,0.5-2.1,0.5c-1.7,0-2.4-0.8-2.4-1.5c0-0.3,0.2-0.5,0.4-0.6c0.2-0.1,0.5-0.3,0.6-0.4
			c0.1-0.1,0.1-0.1,0-0.2c-0.4-0.1-0.7-0.5-0.7-1c0-0.1,0-0.2,0.1-0.3c0.3-0.2,0.7-0.5,0.8-0.6c0.1-0.1,0.2-0.2,0.1-0.3
			c-0.6-0.2-1-0.8-1-1.5c0-1,0.8-1.9,2.3-1.9c0.7,0,1.3,0.2,1.8,0.4H220.8z M217.5,234.7c-0.3,0-0.6,0.1-0.7,0.2
			c-0.1,0.1-0.2,0.3-0.2,0.4c0,0.8,0.6,1.3,1.6,1.3c0.8,0,1.3-0.4,1.3-0.9c0-0.7-0.5-1-1.2-1H217.5z M217.7,232.2
			c0.4,0,0.7-0.3,0.7-1.2c0-1-0.3-1.4-0.8-1.4c-0.4,0-0.7,0.4-0.7,1.2C216.9,231.7,217.2,232.2,217.7,232.2z"/>
		<path class="st5" d="M225.1,232.4c0,0.8,0.3,1,0.5,1c0.1,0,0.3,0,0.5-0.1c0.1,0,0.2,0.2,0.1,0.3c-0.1,0.2-0.7,0.6-1.4,0.6
			c-0.4,0-0.7-0.1-1-0.4c-0.1-0.1-0.1-0.1-0.2-0.1c-0.1,0-0.1,0-0.3,0.1c-0.2,0.2-0.6,0.4-1,0.4c-0.7,0-1.3-0.4-1.3-1.3
			c0-0.6,0.4-1,1.2-1.2c0.5-0.1,0.8-0.2,1.1-0.3c0.2-0.1,0.3-0.1,0.3-0.2c0-0.1,0-0.3,0-0.4c0-0.5-0.2-1-0.7-1
			c-0.3,0-0.5,0.2-0.6,0.7c0,0.2-0.1,0.3-0.2,0.4c-0.2,0.1-0.6,0.3-0.9,0.3c-0.2,0-0.3-0.1-0.3-0.3c0-0.3,0.3-0.7,0.6-0.9
			c0.4-0.3,1.2-0.7,2-0.7c1,0,1.6,0.5,1.5,1.7L225.1,232.4z M223.7,232c0-0.2,0-0.2-0.1-0.2c-0.5,0.1-1,0.3-1,0.8
			c0,0.4,0.3,0.7,0.6,0.7c0.4,0,0.4-0.2,0.5-0.6L223.7,232z"/>
		<path class="st5" d="M227,230.8c0-0.5,0-0.6-0.2-0.8l-0.2-0.1c-0.1-0.1-0.1-0.3,0-0.4c0.6-0.2,1.4-0.5,1.8-0.7
			c0.1,0,0.2,0,0.2,0.1c0,0.2,0,0.4,0,0.5c0,0.1,0,0.1,0.1,0.1c0.3-0.2,0.7-0.6,1.2-0.6c0.3,0,0.7,0.3,0.7,0.7
			c0,0.6-0.4,0.8-0.8,0.8c-0.2,0-0.3-0.1-0.5-0.2c-0.3-0.2-0.4-0.2-0.5-0.2c-0.2,0-0.2,0.3-0.2,0.7v1.8c0,0.8,0,0.9,0.4,1l0.4,0
			c0.1,0.1,0.1,0.3,0,0.4c-0.6,0-1.1,0-1.6,0c-0.5,0-1,0-1.4,0c-0.1-0.1-0.1-0.3,0-0.4l0.2,0c0.4,0,0.4-0.1,0.4-1V230.8z"/>
	</g>
	<g>
		<polygon class="st6" points="224.1,310.4 220.1,310.4 220.1,308.2 224.1,308.2 224.1,302.5 216,302.5 216,316.1 224.1,316.1 		"/>
		<rect x="214.1" y="261.7" class="st6" width="3.8" height="54.4"/>
		<path class="st6" d="M213.2,262.3L213.2,262.3c0-0.3,0.2-0.5,0.5-0.5h4.5c0.3,0,0.5,0.2,0.5,0.5l0,0c0,0.3-0.2,0.5-0.5,0.5h-4.5
			C213.4,262.9,213.2,262.6,213.2,262.3z"/>
		<path class="st6" d="M213.2,263.4L213.2,263.4c0-0.3,0.2-0.5,0.5-0.5h4.5c0.3,0,0.5,0.2,0.5,0.5l0,0c0,0.3-0.2,0.5-0.5,0.5h-4.5
			C213.4,264,213.2,263.7,213.2,263.4z"/>
		<path class="st6" d="M213.2,301.9L213.2,301.9c0-0.3,0.2-0.5,0.5-0.5h4.5c0.3,0,0.5,0.2,0.5,0.5l0,0c0,0.3-0.2,0.5-0.5,0.5h-4.5
			C213.4,302.5,213.2,302.2,213.2,301.9z"/>
		<path class="st6" d="M226.9,253.5L226.9,253.5c0-4.5-3.7-8.2-8.2-8.2h-0.5c0-1.2-1-2.2-2.2-2.2s-2.2,1-2.2,2.2h-0.5
			c-4.5,0-8.2,3.7-8.2,8.2l0,0c0,4.5,3.7,8.2,8.2,8.2h5.4C223.2,261.7,226.9,258,226.9,253.5z M216,244.3c0.6,0,1.1,0.5,1.1,1.1
			s-0.5,1.1-1.1,1.1s-1.1-0.5-1.1-1.1S215.4,244.3,216,244.3z M213.3,258.9c-3,0-5.4-2.4-5.4-5.4l0,0c0-1.8,0.9-3.5,2.3-4.5
			c1.4-1,3.3-0.9,4.6,0.2l1.3,1l1.3-1c1.3-1.1,3.2-1.2,4.6-0.2c1.4,1,2.3,2.6,2.3,4.5l0,0c0,3-2.4,5.4-5.4,5.4H213.3z"/>
	</g>
</g>
<g>
	<g>
		<path d="M100.4,118.9c0-0.4,0.1-1,0.2-1.4c0.1-0.1,0.3-0.1,0.4,0c0,0.3,0.1,0.7,0.3,1c0.3,0.5,0.8,0.8,1.3,0.8
			c0.6,0,1.2-0.4,1.2-1.2c0-0.5-0.3-0.9-0.8-1.3l-0.2-0.2c-0.6-0.4-1.1-1-1.1-1.7c0-1.3,1.1-2.1,2.4-2.1c0.7,0,1.4,0.2,1.8,0.5
			c-0.1,0.3-0.3,0.7-0.4,1.3c-0.1,0.1-0.3,0.1-0.4,0c0.1-0.7-0.2-1.4-1.1-1.4c-0.8,0-1.2,0.6-1.2,1.1c0,0.3,0.1,0.7,0.8,1.2l0.3,0.2
			c0.6,0.4,1.1,1,1.1,1.9c0,1.2-0.9,2.1-2.7,2.1C101.4,119.8,100.6,119.3,100.4,118.9z"/>
		<path d="M109.5,116.3c0,1-1.7,1.5-2.5,1.7c0,0.1,0,0.3,0,0.5c0,0.3,0.1,0.5,0.4,0.5c0.4,0,0.8-0.2,1.3-0.7c0.1,0,0.2,0.1,0.2,0.2
			c-0.5,0.7-1.3,1.2-2.2,1.2c-0.7,0-1.1-0.5-1.1-1.1c0-0.9,0.6-1.9,1.3-2.5c0.6-0.4,1.1-0.6,1.6-0.6
			C109.1,115.5,109.5,115.8,109.5,116.3z M107.8,116.2c-0.4,0.4-0.6,1-0.7,1.4c0.3-0.1,0.7-0.3,0.9-0.6c0.2-0.2,0.4-0.6,0.4-0.8
			c0-0.1-0.1-0.2-0.2-0.2C108.1,115.9,107.9,116,107.8,116.2z"/>
		<path d="M111.9,116.1l-0.5,1.2l0,0c0.6-0.8,1.4-1.9,2.3-1.9c0.4,0,0.6,0.3,0.6,0.6c0,0.2-0.1,0.6-0.2,0.9
			c-0.2,0.5-0.4,1.1-0.7,1.8c-0.1,0.1,0,0.2,0,0.2c0.1,0,0.6-0.4,0.9-0.7c0.1,0,0.2,0.1,0.2,0.2c-0.3,0.5-1.1,1.3-2.1,1.3
			c-0.2,0-0.4-0.2-0.4-0.4c0-0.1,0.1-0.3,0.1-0.5c0.3-0.7,0.6-1.4,0.8-2.1c0.1-0.2,0.1-0.4,0.1-0.5s0-0.1-0.1-0.1s-0.4,0.2-0.8,0.6
			c-0.6,0.7-1.1,1.8-1.5,2.8c-0.1,0.1-0.3,0.2-0.5,0.2s-0.6-0.1-0.5-0.4l1-2.7c0.1-0.2,0.1-0.4,0-0.4c-0.2,0-0.6,0.3-0.8,0.5
			c-0.1,0-0.2-0.1-0.2-0.2c0.3-0.5,1.1-1.2,1.9-1.2C112.1,115.5,112,115.9,111.9,116.1z"/>
		<path d="M118.7,115.7l0.6-1.9c0.1-0.4,0.1-0.5-0.1-0.6L119,113c0-0.1,0-0.2,0.1-0.2c0.3-0.1,1.3-0.3,1.8-0.3c0.1,0,0.1,0,0.1,0.1
			c-0.2,0.4-0.3,0.8-0.5,1.3l-1.4,4.3c-0.1,0.3-0.2,0.5-0.2,0.6s0,0.1,0.1,0.1s0.6-0.3,0.9-0.6c0.1,0,0.2,0.1,0.2,0.2
			c-0.2,0.3-1,1.2-2,1.2c-0.3,0-0.4-0.2-0.4-0.4c0-0.2,0.1-0.4,0.2-0.7l0.2-0.7l0,0c-0.5,0.7-1.2,1.8-2.3,1.8
			c-0.4,0-0.7-0.4-0.7-0.9c0-0.8,0.5-1.8,1.3-2.5c0.7-0.6,1.3-0.8,1.9-0.8C118.4,115.5,118.6,115.6,118.7,115.7z M116.1,118.9
			c0,0.1,0,0.2,0.1,0.2c0.2,0,0.9-0.5,1.3-1.1c0.3-0.4,0.6-0.9,0.8-1.5c0.1-0.4,0-0.7-0.1-0.7s-0.1,0-0.4,0.2
			c-0.2,0.1-0.5,0.5-1,1.1C116.5,117.8,116.1,118.7,116.1,118.9z"/>
		<path d="M121.8,118.8c0,0.5-0.4,0.9-0.8,0.9s-0.7-0.3-0.7-0.7c0-0.5,0.3-0.9,0.9-0.9C121.5,118.1,121.8,118.4,121.8,118.8z
			 M122.5,116.4c0,0.5-0.4,0.9-0.8,0.9s-0.7-0.3-0.7-0.7c0-0.5,0.4-0.9,0.9-0.9C122.3,115.7,122.5,115.9,122.5,116.4z"/>
		<path d="M40.2,124.5H41v1.9v1.1l0,0c0.5-0.5,1.1-0.9,1.8-0.9c1.1,0,1.7,0.7,1.7,2v3h-0.8v-2.9c0-0.9-0.3-1.4-1.1-1.4
			c-0.6,0-1,0.3-1.5,0.9v3.4h-0.8v-7.1H40.2z"/>
		<path d="M46.1,130.3c0-1.1,1-1.6,3.5-1.8c0-0.7-0.3-1.2-1.3-1.2c-0.6,0-1.2,0.3-1.7,0.6l-0.3-0.6c0.5-0.3,1.3-0.7,2.2-0.7
			c1.3,0,2,0.8,2,2v3h-0.7l-0.1-0.7l0,0c-0.5,0.4-1.2,0.8-1.9,0.8C46.8,131.7,46.1,131.2,46.1,130.3z M49.6,130.3V129
			c-2.1,0.2-2.7,0.6-2.7,1.2c0,0.5,0.5,0.8,1.1,0.8C48.5,131.1,49,130.8,49.6,130.3z"/>
		<path d="M52,131l0.4-0.5c0.6,0.4,1.2,0.7,2.1,0.7c0.8,0,1.2-0.4,1.2-0.8c0-0.4-0.2-0.6-1.5-0.9c-1.3-0.3-1.9-0.7-1.9-1.4
			c0-0.8,0.7-1.4,2-1.4c0.7,0,1.5,0.3,2,0.6l-0.4,0.5c-0.4-0.3-1-0.5-1.6-0.5c-0.8,0-1.1,0.3-1.1,0.7s0.4,0.6,1.4,0.8
			c1.6,0.4,2,0.8,2,1.5c0,0.8-0.8,1.4-2.2,1.4C53.4,131.7,52.5,131.4,52,131z"/>
		<path d="M58.2,124.5H59v1.9v1.1l0,0c0.5-0.5,1.1-0.9,1.8-0.9c1.1,0,1.7,0.7,1.7,2v3h-0.8v-2.9c0-0.9-0.3-1.4-1.1-1.4
			c-0.6,0-1,0.3-1.5,0.9v3.4h-0.8v-7.1H58.2z"/>
		<path d="M65.3,128.8c0-1.9,0.9-3.5,2.2-4.5l0.4,0.4c-1.3,1.1-2,2.4-2,4.1s0.6,3,2,4.1l-0.4,0.4C66.2,132.3,65.3,130.7,65.3,128.8z
			"/>
		<path d="M70.2,126.9c0-1,0.5-1.8,1.4-2.3l0.3,0.5c-0.6,0.4-1,0.9-1,1.6c0.1,0,0.2-0.1,0.3-0.1c0.4,0,0.7,0.3,0.7,0.7
			c0,0.5-0.3,0.8-0.7,0.8C70.6,128.1,70.2,127.6,70.2,126.9z M72.5,126.9c0-1,0.5-1.8,1.4-2.3l0.3,0.5c-0.6,0.4-1,0.9-1,1.6
			c0.1,0,0.2-0.1,0.3-0.1c0.4,0,0.7,0.3,0.7,0.7c0,0.5-0.3,0.8-0.7,0.8C72.9,128.1,72.5,127.6,72.5,126.9z"/>
		<path class="st7" d="M76.3,124.5h0.8v4.8l0,0l2.6-2.6h0.9l-1.9,1.9l2.2,2.9H80l-1.8-2.4l-1.1,1.1v1.3h-0.8
			C76.3,131.5,76.3,124.5,76.3,124.5z"/>
		<path class="st7" d="M81.9,129.2c0-1.6,1.2-2.5,2.5-2.5c1.4,0,2.2,0.9,2.2,2.3c0,0.2,0,0.4,0,0.5h-3.8c0.1,1.1,0.9,1.7,1.9,1.7
			c0.6,0,1-0.2,1.5-0.5l0.3,0.5c-0.5,0.3-1.1,0.6-1.9,0.6C83.1,131.7,81.9,130.8,81.9,129.2z M82.8,128.8h3.1
			c-0.1-1-0.6-1.5-1.4-1.5C83.6,127.3,82.9,127.8,82.8,128.8z"/>
		<path class="st7" d="M87.9,133.6l0.2-0.6c0.1,0,0.3,0.1,0.4,0.1c0.7,0,1.1-0.4,1.3-1l0.1-0.4l-2.3-4.9h0.8l1.2,2.7
			c0.2,0.4,0.4,0.9,0.6,1.4l0,0c0.2-0.5,0.4-1,0.5-1.4l1.1-2.7h0.8l-2.1,5.3c-0.4,1-1,1.7-2.1,1.7C88.3,133.7,88.1,133.6,87.9,133.6
			z"/>
		<path class="st7" d="M94.1,128h4.3v0.6h-4.3V128z"/>
		<path class="st7" d="M100.1,130.3c0-1.1,1-1.6,3.5-1.8c0-0.7-0.3-1.2-1.3-1.2c-0.6,0-1.2,0.3-1.7,0.6l-0.3-0.6
			c0.5-0.3,1.3-0.7,2.2-0.7c1.3,0,2,0.8,2,2v3h-0.7l-0.1-0.7l0,0c-0.5,0.4-1.2,0.8-1.9,0.8C100.8,131.7,100.1,131.2,100.1,130.3z
			 M103.6,130.3V129c-2.1,0.2-2.7,0.6-2.7,1.2c0,0.5,0.5,0.8,1.1,0.8C102.5,131.1,103,130.8,103.6,130.3z"/>
		<path d="M106.3,127.6c0.6-0.3,1-0.9,1-1.6c-0.1,0-0.2,0.1-0.3,0.1c-0.4,0-0.7-0.3-0.7-0.7c0-0.5,0.3-0.8,0.7-0.8
			c0.5,0,0.9,0.4,0.9,1.2c0,1-0.5,1.8-1.4,2.3L106.3,127.6z M108.6,127.6c0.6-0.3,1-0.9,1-1.6c-0.1,0-0.2,0.1-0.3,0.1
			c-0.4,0-0.7-0.3-0.7-0.7c0-0.5,0.3-0.8,0.7-0.8c0.5,0,0.9,0.4,0.9,1.2c0,1-0.5,1.8-1.4,2.3L108.6,127.6z"/>
		<path d="M113.2,133.2c0.8-0.4,1.2-0.9,1.3-1.7c-0.1,0-0.1,0-0.2,0c-0.4,0-0.8-0.2-0.8-0.7s0.4-0.8,0.8-0.8c0.6,0,0.9,0.5,0.9,1.3
			c0,1.2-0.7,2-1.8,2.4L113.2,133.2z"/>
		<path d="M124.2,126.9c0-1,0.5-1.8,1.4-2.3l0.3,0.5c-0.6,0.4-1,0.9-1,1.6c0.1,0,0.2-0.1,0.3-0.1c0.4,0,0.7,0.3,0.7,0.7
			c0,0.5-0.3,0.8-0.7,0.8C124.6,128.1,124.2,127.6,124.2,126.9z M126.5,126.9c0-1,0.5-1.8,1.4-2.3l0.3,0.5c-0.6,0.4-1,0.9-1,1.6
			c0.1,0,0.2-0.1,0.3-0.1c0.4,0,0.7,0.3,0.7,0.7c0,0.5-0.3,0.8-0.7,0.8C126.9,128.1,126.5,127.6,126.5,126.9z"/>
		<path d="M130,132.5c0-0.4,0.3-0.8,0.8-1.1l0,0c-0.3-0.1-0.5-0.4-0.5-0.8c0-0.3,0.2-0.7,0.6-0.9l0,0c-0.3-0.2-0.6-0.7-0.6-1.3
			c0-1.1,0.9-1.7,1.9-1.7c0.3,0,0.5,0,0.7,0.1h2v0.7h-1.3c0.2,0.2,0.4,0.6,0.4,1c0,1-0.8,1.7-1.9,1.7c-0.2,0-0.5-0.1-0.8-0.2
			c-0.2,0.1-0.4,0.3-0.4,0.6c0,0.4,0.4,0.6,1,0.6h1.1c1.2,0,1.8,0.3,1.8,1.1c0,0.9-1,1.7-2.7,1.7C130.8,133.8,130,133.3,130,132.5z
			 M134.1,132.3c0-0.5-0.4-0.6-1.1-0.6h-1c-0.3,0-0.5,0-0.7-0.1c-0.5,0.2-0.6,0.5-0.6,0.8c0,0.5,0.5,0.8,1.6,0.8
			C133.4,133.2,134.1,132.8,134.1,132.3z M133.3,128.4c0-0.7-0.5-1.1-1.1-1.1s-1.1,0.5-1.1,1.1c0,0.7,0.5,1.1,1.1,1.1
			S133.3,129.1,133.3,128.4z"/>
		<path d="M135.8,129.2c0-1.6,1.1-2.6,2.4-2.6s2.4,0.9,2.4,2.6c0,1.6-1.1,2.5-2.4,2.5S135.8,130.8,135.8,129.2z M139.8,129.2
			c0-1.1-0.6-1.9-1.5-1.9s-1.5,0.8-1.5,1.9s0.6,1.9,1.5,1.9C139.2,131,139.8,130.3,139.8,129.2z"/>
		<path d="M143.7,130v-4.8H142v-0.7h2.5v5.5c0,0.7,0.4,1,1,1c0.3,0,0.6-0.1,0.9-0.2l0.2,0.6c-0.4,0.2-0.8,0.3-1.3,0.3
			C144.3,131.7,143.7,131.1,143.7,130z"/>
		<path d="M147.8,129.2c0-1.6,1.1-2.6,2.2-2.6c0.6,0,1,0.2,1.4,0.6l0,0v-0.9v-1.9h0.8v7.1h-0.7l-0.1-0.6l0,0c-0.4,0.4-1,0.8-1.6,0.8
			C148.7,131.7,147.8,130.8,147.8,129.2z M151.5,130.3v-2.4c-0.4-0.4-0.9-0.6-1.3-0.6c-0.8,0-1.5,0.7-1.5,1.9s0.5,1.9,1.4,1.9
			C150.6,131,151.1,130.8,151.5,130.3z"/>
		<path d="M153.8,126.7h0.7l0.1,0.6l0,0c0.2-0.4,0.5-0.8,1.1-0.8c0.5,0,0.8,0.3,0.9,0.8c0.3-0.5,0.6-0.8,1.1-0.8
			c0.7,0,1.1,0.5,1.1,1.5v3.5H158v-3.4c0-0.6-0.2-0.8-0.5-0.8s-0.5,0.2-0.8,0.7v3.5h-0.8v-3.4c0-0.6-0.1-0.8-0.5-0.8
			c-0.3,0-0.6,0.2-0.8,0.7v3.5h-0.8L153.8,126.7L153.8,126.7z"/>
		<path d="M160.1,130.3c0-1.1,1-1.6,3.5-1.8c0-0.7-0.3-1.2-1.3-1.2c-0.6,0-1.2,0.3-1.7,0.6l-0.3-0.6c0.5-0.3,1.3-0.7,2.2-0.7
			c1.3,0,2,0.8,2,2v3h-0.7l-0.1-0.7l0,0c-0.5,0.4-1.2,0.8-1.9,0.8C160.8,131.7,160.1,131.2,160.1,130.3z M163.6,130.3V129
			c-2.1,0.2-2.7,0.6-2.7,1.2c0,0.5,0.5,0.8,1.1,0.8C162.5,131.1,163,130.8,163.6,130.3z"/>
		<path d="M166.2,126.7h0.7l0.1,0.8l0,0c0.5-0.5,1.1-0.9,1.8-0.9c1.1,0,1.7,0.7,1.7,2v3h-0.8v-2.9c0-0.9-0.3-1.4-1.1-1.4
			c-0.6,0-1,0.3-1.5,0.9v3.4h-0.8L166.2,126.7L166.2,126.7z"/>
		<path d="M172.3,127.6c0.6-0.3,1-0.9,1-1.6c-0.1,0-0.2,0.1-0.3,0.1c-0.4,0-0.7-0.3-0.7-0.7c0-0.5,0.3-0.8,0.7-0.8
			c0.5,0,0.9,0.4,0.9,1.2c0,1-0.5,1.8-1.4,2.3L172.3,127.6z M174.6,127.6c0.6-0.3,1-0.9,1-1.6c-0.1,0-0.2,0.1-0.3,0.1
			c-0.4,0-0.7-0.3-0.7-0.7c0-0.5,0.3-0.8,0.7-0.8c0.5,0,0.9,0.4,0.9,1.2c0,1-0.5,1.8-1.4,2.3L174.6,127.6z"/>
		<path d="M178.5,132.9c1.3-1.1,2-2.4,2-4.1c0-1.7-0.6-3-2-4.1l0.4-0.4c1.4,1.1,2.2,2.6,2.2,4.5c0,1.9-0.9,3.5-2.2,4.5L178.5,132.9z
			"/>
	</g>
</g>
<g>
	<g>
		<path d="M97.1,336.7c0-0.4,0.1-1,0.2-1.4c0.1-0.1,0.3-0.1,0.4,0c0,0.3,0.1,0.7,0.3,1c0.3,0.5,0.8,0.8,1.3,0.8
			c0.6,0,1.2-0.4,1.2-1.2c0-0.5-0.3-0.9-0.8-1.3l-0.2-0.2c-0.6-0.4-1.1-1-1.1-1.7c0-1.3,1.1-2.1,2.4-2.1c0.7,0,1.4,0.2,1.8,0.5
			c-0.1,0.3-0.3,0.7-0.4,1.3c-0.1,0.1-0.3,0.1-0.4,0c0.1-0.7-0.2-1.4-1.1-1.4c-0.8,0-1.2,0.6-1.2,1.1c0,0.3,0.1,0.7,0.8,1.2l0.3,0.2
			c0.6,0.4,1.1,1,1.1,1.9c0,1.2-0.9,2.1-2.7,2.1C98.1,337.6,97.3,337.1,97.1,336.7z"/>
		<path d="M106.2,334.1c0,1-1.7,1.5-2.5,1.7c0,0.1,0,0.3,0,0.5c0,0.3,0.1,0.5,0.4,0.5c0.4,0,0.8-0.2,1.3-0.7c0.1,0,0.2,0.1,0.2,0.2
			c-0.5,0.8-1.3,1.2-2.2,1.2c-0.7,0-1.1-0.5-1.1-1.1c0-0.9,0.6-1.9,1.3-2.5c0.6-0.4,1.1-0.6,1.6-0.6
			C105.9,333.3,106.2,333.7,106.2,334.1z M104.5,334c-0.4,0.4-0.6,1-0.7,1.4c0.3-0.1,0.7-0.3,0.9-0.6c0.2-0.2,0.4-0.6,0.4-0.8
			c0-0.1-0.1-0.2-0.2-0.2C104.8,333.7,104.6,333.8,104.5,334z"/>
		<path d="M108.7,333.9l-0.5,1.2l0,0c0.6-0.8,1.4-1.9,2.3-1.9c0.4,0,0.6,0.3,0.6,0.6c0,0.2-0.1,0.6-0.2,0.9
			c-0.2,0.5-0.4,1.1-0.7,1.8c-0.1,0.1,0,0.2,0,0.2c0.1,0,0.6-0.4,0.9-0.7c0.1,0,0.2,0.1,0.2,0.2c-0.3,0.5-1.1,1.3-2.1,1.3
			c-0.2,0-0.4-0.2-0.4-0.4c0-0.1,0.1-0.3,0.1-0.5c0.3-0.7,0.6-1.4,0.8-2.1c0.1-0.2,0.1-0.4,0.1-0.5s0-0.1-0.1-0.1s-0.4,0.2-0.8,0.6
			c-0.6,0.7-1.1,1.8-1.5,2.8c-0.1,0.1-0.3,0.2-0.5,0.2s-0.6-0.1-0.5-0.4l1-2.7c0.1-0.2,0.1-0.4,0-0.4c-0.2,0-0.6,0.3-0.8,0.5
			c-0.1,0-0.2-0.1-0.2-0.2c0.3-0.5,1.1-1.2,1.9-1.2C108.8,333.3,108.7,333.7,108.7,333.9z"/>
		<path d="M115.5,333.6l0.6-1.9c0.1-0.4,0.1-0.5-0.1-0.6l-0.3-0.2c0-0.1,0-0.2,0.1-0.2c0.3-0.1,1.3-0.3,1.8-0.3c0.1,0,0.1,0,0.1,0.1
			c-0.2,0.4-0.3,0.8-0.5,1.3l-1.4,4.3c-0.1,0.3-0.2,0.5-0.2,0.6s0,0.1,0.1,0.1s0.6-0.3,0.9-0.6c0.1,0,0.2,0.1,0.2,0.2
			c-0.2,0.3-1,1.2-2,1.2c-0.3,0-0.4-0.2-0.4-0.4c0-0.2,0.1-0.4,0.2-0.7l0.2-0.7l0,0c-0.5,0.7-1.2,1.8-2.3,1.8c-0.4,0-0.7-0.4-0.7-1
			c0-0.8,0.5-1.8,1.3-2.5c0.7-0.6,1.3-0.8,1.9-0.8C115.2,333.3,115.4,333.4,115.5,333.6z M112.9,336.8c0,0.2,0,0.2,0.1,0.2
			c0.2,0,0.9-0.5,1.3-1.1c0.3-0.4,0.6-0.9,0.8-1.5c0.1-0.4,0-0.7-0.1-0.7s-0.1,0-0.4,0.2c-0.2,0.1-0.5,0.5-1,1.1
			C113.2,335.7,112.9,336.5,112.9,336.8z"/>
		<path d="M118.5,336.7c0,0.5-0.4,0.9-0.8,0.9s-0.7-0.3-0.7-0.7c0-0.5,0.3-0.9,0.9-0.9C118.3,335.9,118.5,336.2,118.5,336.7z
			 M119.3,334.2c0,0.5-0.4,0.9-0.8,0.9s-0.7-0.3-0.7-0.7c0-0.5,0.4-0.9,0.9-0.9C119,333.5,119.3,333.8,119.3,334.2z"/>
		<path d="M36.9,342.3h0.8v1.9v1.1l0,0c0.5-0.5,1.1-0.9,1.8-0.9c1.1,0,1.7,0.7,1.7,2v3h-0.8v-2.9c0-0.9-0.3-1.4-1.1-1.4
			c-0.6,0-1,0.3-1.5,0.9v3.4H37v-7.1H36.9z"/>
		<path d="M42.8,348.2c0-1.1,1-1.6,3.5-1.8c0-0.7-0.3-1.2-1.3-1.2c-0.6,0-1.2,0.3-1.7,0.6l-0.3-0.6c0.5-0.3,1.3-0.7,2.2-0.7
			c1.3,0,2,0.8,2,2v3h-0.7l-0.1-0.7l0,0c-0.5,0.4-1.2,0.8-1.9,0.8C43.5,349.6,42.8,349.1,42.8,348.2z M46.3,348.2v-1.3
			c-2.1,0.2-2.7,0.6-2.7,1.2c0,0.5,0.5,0.8,1.1,0.8C45.2,348.9,45.8,348.6,46.3,348.2z"/>
		<path d="M48.7,348.8l0.4-0.5c0.6,0.4,1.2,0.7,2.1,0.7c0.8,0,1.2-0.3,1.2-0.8c0-0.4-0.2-0.6-1.5-0.9s-1.9-0.7-1.9-1.4
			c0-0.8,0.7-1.4,2-1.4c0.7,0,1.5,0.3,2,0.6l-0.4,0.5c-0.4-0.3-1-0.5-1.6-0.5c-0.8,0-1.1,0.3-1.1,0.7c0,0.4,0.4,0.6,1.4,0.8
			c1.6,0.3,2,0.8,2,1.5c0,0.8-0.8,1.4-2.2,1.4C50.1,349.6,49.3,349.2,48.7,348.8z"/>
		<path d="M54.9,342.3h0.8v1.9v1.1l0,0c0.5-0.5,1.1-0.9,1.8-0.9c1.1,0,1.7,0.7,1.7,2v3h-0.8v-2.9c0-0.9-0.3-1.4-1.1-1.4
			c-0.6,0-1,0.3-1.5,0.9v3.4H55v-7.1H54.9z"/>
		<path d="M62.1,346.7c0-1.9,0.9-3.5,2.2-4.5l0.4,0.4c-1.3,1.1-2,2.4-2,4.1s0.6,3,2,4.1l-0.4,0.4C62.9,350.1,62.1,348.6,62.1,346.7z
			"/>
		<path d="M66.9,344.7c0-1,0.5-1.8,1.4-2.3l0.3,0.5c-0.6,0.4-1,0.9-1,1.6c0.1,0,0.2-0.1,0.3-0.1c0.4,0,0.7,0.3,0.7,0.7
			c0,0.5-0.3,0.8-0.7,0.8C67.3,345.9,66.9,345.5,66.9,344.7z M69.2,344.7c0-1,0.5-1.8,1.4-2.3l0.3,0.5c-0.6,0.4-1,0.9-1,1.6
			c0.1,0,0.2-0.1,0.3-0.1c0.4,0,0.7,0.3,0.7,0.7c0,0.5-0.3,0.8-0.7,0.8C69.6,345.9,69.2,345.5,69.2,344.7z"/>
		<path class="st7" d="M73,342.3h0.8v4.8l0,0l2.6-2.6h0.9l-1.9,1.9l2.2,2.9h-0.9L75,347l-1.1,1.1v1.3H73V342.3z"/>
		<path class="st7" d="M78.7,347c0-1.6,1.2-2.5,2.5-2.5c1.4,0,2.2,0.9,2.2,2.3c0,0.2,0,0.4,0,0.5h-3.8c0.1,1.1,0.9,1.7,1.9,1.7
			c0.6,0,1-0.2,1.5-0.5l0.3,0.5c-0.5,0.3-1.1,0.6-1.9,0.6C79.8,349.6,78.7,348.6,78.7,347z M79.5,346.6h3.1c-0.1-1-0.6-1.5-1.4-1.5
			C80.4,345.1,79.7,345.6,79.5,346.6z"/>
		<path class="st7" d="M84.7,351.4l0.2-0.6c0.1,0,0.3,0.1,0.4,0.1c0.7,0,1.1-0.4,1.3-1l0.1-0.4l-2.3-4.9h0.8l1.2,2.7
			c0.2,0.4,0.4,0.9,0.6,1.4l0,0c0.2-0.5,0.4-1,0.5-1.4l1.1-2.7h0.8l-2.1,5.3c-0.4,1-1,1.7-2.1,1.7C85.1,351.5,84.8,351.5,84.7,351.4
			z"/>
		<path class="st7" d="M90.8,345.8h4.3v0.6h-4.3V345.8z"/>
		<path class="st7" d="M96.8,348.2c0-1.1,1-1.6,3.5-1.8c0-0.7-0.3-1.2-1.3-1.2c-0.6,0-1.2,0.3-1.7,0.6l-0.3-0.6
			c0.5-0.3,1.3-0.7,2.2-0.7c1.3,0,2,0.8,2,2v3h-0.7l-0.1-0.7l0,0c-0.5,0.4-1.2,0.8-1.9,0.8C97.5,349.6,96.8,349.1,96.8,348.2z
			 M100.3,348.2v-1.3c-2.1,0.2-2.7,0.6-2.7,1.2c0,0.5,0.5,0.8,1.1,0.8C99.2,348.9,99.8,348.6,100.3,348.2z"/>
		<path d="M103,345.5c0.6-0.3,1-0.9,1-1.6c-0.1,0-0.2,0.1-0.3,0.1c-0.4,0-0.7-0.3-0.7-0.7c0-0.5,0.3-0.8,0.7-0.8
			c0.5,0,0.9,0.5,0.9,1.2c0,1-0.5,1.8-1.4,2.3L103,345.5z M105.3,345.5c0.6-0.3,1-0.9,1-1.6c-0.1,0-0.2,0.1-0.3,0.1
			c-0.4,0-0.7-0.3-0.7-0.7c0-0.5,0.3-0.8,0.7-0.8c0.5,0,0.9,0.5,0.9,1.2c0,1-0.5,1.8-1.4,2.3L105.3,345.5z"/>
		<path d="M110,351.1c0.8-0.4,1.2-0.9,1.3-1.7c-0.1,0-0.1,0-0.2,0c-0.4,0-0.8-0.2-0.8-0.7s0.4-0.8,0.8-0.8c0.6,0,0.9,0.5,0.9,1.3
			c0,1.2-0.7,2-1.8,2.4L110,351.1z"/>
		<path d="M120.9,344.7c0-1,0.5-1.8,1.4-2.3l0.3,0.5c-0.6,0.4-1,0.9-1,1.6c0.1,0,0.2-0.1,0.3-0.1c0.4,0,0.7,0.3,0.7,0.7
			c0,0.5-0.3,0.8-0.7,0.8C121.3,345.9,120.9,345.5,120.9,344.7z M123.2,344.7c0-1,0.5-1.8,1.4-2.3l0.3,0.5c-0.6,0.4-1,0.9-1,1.6
			c0.1,0,0.2-0.1,0.3-0.1c0.4,0,0.7,0.3,0.7,0.7c0,0.5-0.3,0.8-0.7,0.8C123.6,345.9,123.2,345.5,123.2,344.7z"/>
		<path d="M126.7,350.3c0-0.4,0.3-0.8,0.8-1.1l0,0c-0.3-0.1-0.5-0.4-0.5-0.8c0-0.3,0.2-0.7,0.6-0.9l0,0c-0.3-0.2-0.6-0.7-0.6-1.3
			c0-1.1,0.9-1.7,1.9-1.7c0.3,0,0.5,0,0.7,0.1h2v0.7h-1.3c0.2,0.2,0.4,0.6,0.4,1c0,1-0.8,1.7-1.9,1.7c-0.2,0-0.5-0.1-0.8-0.2
			c-0.2,0.1-0.4,0.3-0.4,0.6c0,0.4,0.4,0.6,1,0.6h1.1c1.2,0,1.8,0.3,1.8,1.1c0,0.9-1,1.7-2.7,1.7
			C127.5,351.7,126.7,351.2,126.7,350.3z M130.8,350.1c0-0.5-0.4-0.6-1.1-0.6h-0.9c-0.3,0-0.5,0-0.7-0.1c-0.5,0.2-0.6,0.5-0.6,0.8
			c0,0.5,0.5,0.8,1.6,0.8C130.1,351.1,130.8,350.6,130.8,350.1z M130,346.2c0-0.7-0.5-1.1-1.1-1.1s-1.1,0.5-1.1,1.1
			c0,0.7,0.5,1.1,1.1,1.1C129.5,347.4,130,346.9,130,346.2z"/>
		<path d="M132.6,347c0-1.6,1.1-2.6,2.4-2.6s2.4,0.9,2.4,2.6c0,1.6-1.1,2.5-2.4,2.5S132.6,348.6,132.6,347z M136.5,347
			c0-1.1-0.6-1.9-1.5-1.9s-1.5,0.8-1.5,1.9s0.6,1.9,1.5,1.9S136.5,348.1,136.5,347z"/>
		<path d="M140.5,347.8V343h-1.7v-0.7h2.5v5.5c0,0.7,0.4,1,1,1c0.3,0,0.6-0.1,0.9-0.2l0.2,0.6c-0.4,0.2-0.8,0.3-1.3,0.3
			C141,349.6,140.5,349,140.5,347.8z"/>
		<path d="M144.6,347c0-1.6,1.1-2.6,2.2-2.6c0.6,0,1,0.2,1.4,0.6l0,0v-0.9v-1.9h0.8v7.1h-0.7l-0.1-0.6l0,0c-0.4,0.4-1,0.8-1.6,0.8
			C145.4,349.6,144.6,348.6,144.6,347z M148.2,348.1v-2.4c-0.4-0.4-0.9-0.6-1.3-0.6c-0.8,0-1.5,0.7-1.5,1.9c0,1.2,0.5,1.9,1.4,1.9
			C147.3,348.9,147.8,348.6,148.2,348.1z"/>
		<path d="M150.6,344.6h0.7l0.1,0.6l0,0c0.2-0.4,0.5-0.8,1.1-0.8c0.5,0,0.8,0.3,0.9,0.8c0.3-0.5,0.6-0.8,1.1-0.8
			c0.7,0,1.1,0.5,1.1,1.5v3.5h-0.8V346c0-0.6-0.2-0.8-0.5-0.8s-0.5,0.2-0.8,0.8v3.5h-0.8V346c0-0.6-0.1-0.8-0.5-0.8
			c-0.3,0-0.6,0.2-0.8,0.8v3.5h-0.8V344.6z"/>
		<path d="M156.8,348.2c0-1.1,1-1.6,3.5-1.8c0-0.7-0.3-1.2-1.3-1.2c-0.6,0-1.2,0.3-1.7,0.6l-0.3-0.6c0.5-0.3,1.3-0.7,2.2-0.7
			c1.3,0,2,0.8,2,2v3h-0.7l-0.1-0.7l0,0c-0.5,0.4-1.2,0.8-1.9,0.8C157.5,349.6,156.8,349.1,156.8,348.2z M160.3,348.2v-1.3
			c-2.1,0.2-2.7,0.6-2.7,1.2c0,0.5,0.5,0.8,1.1,0.8C159.2,348.9,159.8,348.6,160.3,348.2z"/>
		<path d="M162.9,344.6h0.7l0.1,0.8l0,0c0.5-0.5,1.1-0.9,1.8-0.9c1.1,0,1.7,0.7,1.7,2v3h-0.8v-2.9c0-0.9-0.3-1.4-1.1-1.4
			c-0.6,0-1,0.3-1.5,0.9v3.4H163L162.9,344.6L162.9,344.6z"/>
		<path d="M169,345.5c0.6-0.3,1-0.9,1-1.6c-0.1,0-0.2,0.1-0.3,0.1c-0.4,0-0.7-0.3-0.7-0.7c0-0.5,0.3-0.8,0.7-0.8
			c0.5,0,0.9,0.5,0.9,1.2c0,1-0.5,1.8-1.4,2.3L169,345.5z M171.3,345.5c0.6-0.3,1-0.9,1-1.6c-0.1,0-0.2,0.1-0.3,0.1
			c-0.4,0-0.7-0.3-0.7-0.7c0-0.5,0.3-0.8,0.7-0.8c0.5,0,0.9,0.5,0.9,1.2c0,1-0.5,1.8-1.4,2.3L171.3,345.5z"/>
		<path d="M175.2,350.8c1.3-1.1,2-2.4,2-4.1s-0.6-3-2-4.1l0.4-0.4c1.4,1.1,2.2,2.6,2.2,4.5s-0.9,3.5-2.2,4.5L175.2,350.8z"/>
	</g>
</g>
<g>
	<g>
		<path d="M298.1,123c0.6-0.6,1.7-1.2,3.2-1.2c1,0,1.7,0.2,2,0.4c-0.2,0.5-0.3,1-0.5,1.5c-0.1,0.1-0.3,0.1-0.4,0
			c0.1-1-0.3-1.5-1.2-1.5c-1.7,0-3.1,2.1-3.1,3.9c0,1.6,0.8,2.1,1.6,2.1c0.8,0,1.4-0.5,2.1-1.4c0.1-0.1,0.3,0,0.4,0.1
			c-0.2,0.6-0.5,1.3-0.7,1.6c-0.4,0-0.9,0.2-1.8,0.2c-2,0-3.1-1.1-3-2.6C296.7,124.8,297.4,123.7,298.1,123z"/>
		<path d="M306.9,125.9c0,0.7-0.3,1.6-0.9,2.1c-0.5,0.5-1.1,0.7-1.7,0.7c-1,0-1.5-0.7-1.4-1.4c0-0.8,0.4-1.7,1-2.3
			c0.6-0.5,1.1-0.6,1.6-0.6C306.5,124.5,306.9,125.2,306.9,125.9z M304.9,125.3c-0.4,0.4-1,1.6-1,2.6c0,0.2,0.1,0.4,0.3,0.4
			c0.2,0,0.5-0.2,0.7-0.7c0.3-0.5,0.8-1.5,0.8-2.3c0-0.2-0.1-0.4-0.3-0.4C305.3,124.9,305.1,125,304.9,125.3z"/>
		<path d="M309.7,125.1l-0.4,1.2l0,0c0.5-0.8,1.4-1.8,2.2-1.8c0.4,0,0.5,0.3,0.5,0.6c0,0.2-0.2,0.6-0.4,1.2l0,0
			c0.7-1.1,1.5-1.8,2.2-1.8c0.5,0,0.7,0.3,0.7,0.6c0,0.2-0.1,0.5-0.2,0.9c-0.2,0.5-0.4,1.1-0.7,1.8c-0.1,0.1,0,0.2,0,0.2
			c0.2,0,0.6-0.4,0.9-0.7c0.1,0,0.2,0.1,0.2,0.2c-0.3,0.5-1.1,1.3-2.1,1.3c-0.2,0-0.4-0.2-0.4-0.4c0-0.1,0.1-0.3,0.1-0.5
			c0.3-0.7,0.6-1.4,0.8-2.1c0.1-0.2,0.1-0.4,0.1-0.5s0-0.1-0.1-0.1s-0.4,0.2-0.7,0.6c-0.6,0.7-1.1,1.8-1.5,2.8
			c-0.1,0.2-0.2,0.2-0.4,0.2c-0.4,0-0.8-0.1-0.7-0.3c0-0.1,0.6-1.6,1-2.7c0.1-0.2,0.1-0.4,0.1-0.5s-0.1-0.1-0.1-0.1
			c-0.1,0-0.4,0.2-0.8,0.7c-0.5,0.7-1,1.8-1.4,2.8c-0.1,0.1-0.2,0.2-0.4,0.2c-0.4,0-0.7-0.1-0.7-0.3c0-0.1,0.8-2.4,1-2.8
			c0.1-0.3,0.1-0.4-0.1-0.4c-0.3,0-0.6,0.4-0.8,0.6c-0.1,0-0.2-0.1-0.2-0.2c0.3-0.6,0.9-1.1,1.9-1.1
			C309.8,124.5,309.8,124.8,309.7,125.1z"/>
		<path d="M317.7,124.6c0.1,0,0.2,0,0.3,0c1.3,0,1.7,0.7,1.7,1.5c0,0.5-0.3,1.3-0.8,1.7c-0.5,0.5-1.2,0.9-2.1,0.9
			c-0.1,0-0.3-0.1-0.4-0.1s-0.1,0.1-0.1,0.2l-0.4,1.3c-0.1,0.3-0.1,0.6,0.2,0.6h0.4c0.1,0,0.1,0.3,0,0.3h-0.7c-0.6,0-1.2,0-2.1,0.1
			c-0.1-0.1-0.1-0.3,0-0.3l0.3-0.1c0.4-0.1,0.5-0.2,0.7-0.9l1.6-4.6c-0.2,0-0.8,0.3-1,0.4c-0.1,0-0.2-0.2-0.1-0.3
			c0.2-0.2,1-0.6,1.3-0.7l0.3-0.7c0.1-0.1,0.2-0.1,0.5-0.1s0.6,0.1,0.7,0.2L317.7,124.6z M316.7,127.7c0,0.1-0.1,0.3,0,0.4
			c0.1,0.1,0.2,0.2,0.3,0.2c0.1,0,0.4-0.1,0.6-0.4c0.4-0.5,0.8-1.3,0.8-2c0-0.6-0.3-0.8-0.7-0.8c0,0-0.1,0-0.2,0L316.7,127.7z"/>
		<path d="M323.7,124.8l0.2-0.5c0.1,0,0.2-0.1,0.3-0.1c0.1,0,0.2,0,0.4,0.1c0.2,0,0.3,0.2,0.4,0.3c-0.4,0.9-0.8,2-1.2,3.2
			c0,0.1,0,0.2,0,0.2c0.1,0,0.6-0.3,0.9-0.6c0.1,0,0.2,0.1,0.2,0.2c-0.4,0.6-1.3,1.2-2,1.2c-0.3,0-0.4-0.2-0.4-0.4
			c0-0.1,0-0.3,0.1-0.4l0.3-0.8l0,0c-0.6,0.8-1.5,1.6-2.3,1.6c-0.3,0-0.6-0.3-0.6-0.6c0-0.6,0.6-1.8,1.5-2.7
			c0.7-0.6,1.2-0.9,1.8-0.9C323.4,124.6,323.6,124.7,323.7,124.8z M323,125c-0.2,0-0.3,0.1-0.7,0.5c-0.5,0.6-1,1.6-1,2.2v0.1
			c0,0.1,0.1,0.2,0.1,0.2c0.2,0,0.8-0.6,1.1-1c0.4-0.5,0.8-1.2,0.9-1.6C323.3,125.1,323.2,125,323,125z"/>
		<path d="M329.3,125.1c0,0.6-0.4,1-0.7,1c-0.2,0-0.2-0.2-0.3-0.5c0-0.2-0.1-0.2-0.2-0.2c-0.2,0-0.4,0.4-0.7,0.9
			c-0.4,0.8-0.7,1.6-1,2.3c-0.1,0.1-0.3,0.2-0.5,0.2s-0.6-0.1-0.5-0.4c0.3-0.9,0.7-2,0.9-2.8c0.1-0.2,0.1-0.3,0-0.3
			c-0.2,0-0.5,0.3-0.8,0.6c-0.1,0-0.2-0.1-0.2-0.2c0.2-0.4,0.8-1.1,1.6-1.1c0.6,0,0.6,0.4,0.4,1l-0.4,1.1l0,0c0.3-0.6,0.6-1,0.8-1.3
			c0.3-0.4,0.6-0.7,1-0.7C329.1,124.5,329.3,124.6,329.3,125.1z"/>
		<path d="M333.1,125.3c0,1-1.7,1.5-2.5,1.7c0,0.1,0,0.3,0,0.5c0,0.3,0.1,0.5,0.4,0.5c0.4,0,0.8-0.2,1.3-0.7c0.1,0,0.2,0.1,0.2,0.2
			c-0.5,0.7-1.3,1.2-2.2,1.2c-0.7,0-1.1-0.5-1.1-1.1c0-0.9,0.6-1.9,1.3-2.5c0.6-0.4,1.1-0.6,1.6-0.6
			C332.7,124.5,333.1,124.8,333.1,125.3z M331.4,125.2c-0.4,0.4-0.6,1-0.7,1.4c0.3-0.1,0.7-0.3,0.9-0.6c0.2-0.2,0.4-0.6,0.4-0.8
			c0-0.1-0.1-0.2-0.2-0.2C331.7,124.9,331.5,125,331.4,125.2z"/>
		<path d="M338,125.1l-0.9,2.6c0,0.1,0,0.2,0.1,0.2c0.2,0,0.7-0.4,1.1-0.8c0.1,0,0.2,0.1,0.2,0.2c-0.3,0.5-1.4,1.3-2.2,1.3
			c-0.3,0-0.5-0.2-0.5-0.4c0-0.1,0-0.3,0.1-0.5l0.9-2.6H336c-0.1-0.1,0-0.3,0.1-0.4l0.9-0.2l0.7-1c0.1-0.1,0.2-0.1,0.3-0.1
			c0.1,0,0.3,0.1,0.4,0.2l-0.3,0.9h0.9c0.2,0.1,0,0.5,0,0.5L338,125.1L338,125.1z"/>
		<path d="M343,125.9c0,0.7-0.3,1.6-0.9,2.1c-0.5,0.5-1.1,0.7-1.7,0.7c-1,0-1.5-0.7-1.4-1.4c0-0.8,0.4-1.7,1-2.3
			c0.6-0.5,1.1-0.6,1.6-0.6C342.6,124.5,343,125.2,343,125.9z M341.1,125.3c-0.4,0.4-1,1.6-1,2.6c0,0.2,0.1,0.4,0.3,0.4
			c0.2,0,0.5-0.2,0.7-0.7c0.3-0.5,0.8-1.5,0.8-2.3c0-0.2-0.1-0.4-0.3-0.4C341.4,124.9,341.3,125,341.1,125.3z"/>
		<path d="M345,127.8c0,0.5-0.4,0.9-0.8,0.9s-0.7-0.3-0.7-0.7c0-0.5,0.3-0.9,0.9-0.9C344.7,127.1,345,127.4,345,127.8z M345.7,125.4
			c0,0.5-0.4,0.9-0.8,0.9s-0.7-0.3-0.7-0.7c0-0.5,0.4-0.9,0.9-0.9C345.4,124.7,345.7,124.9,345.7,125.4z"/>
		<path d="M249.6,133.5h0.8v1.9v1.1l0,0c0.5-0.5,1.1-0.9,1.8-0.9c1.1,0,1.7,0.7,1.7,2v3h-0.8v-2.9c0-0.9-0.3-1.4-1.1-1.4
			c-0.6,0-1,0.3-1.5,0.9v3.4h-0.8L249.6,133.5L249.6,133.5z"/>
		<path d="M255.5,139.3c0-1.1,1-1.6,3.5-1.8c0-0.7-0.3-1.2-1.3-1.2c-0.6,0-1.2,0.3-1.7,0.6l-0.3-0.6c0.5-0.3,1.3-0.7,2.2-0.7
			c1.3,0,2,0.8,2,2v3h-0.7l-0.1-0.7l0,0c-0.5,0.4-1.2,0.8-1.9,0.8C256.3,140.7,255.5,140.2,255.5,139.3z M259,139.3V138
			c-2.1,0.2-2.7,0.6-2.7,1.2c0,0.5,0.5,0.8,1.1,0.8C257.9,140.1,258.5,139.8,259,139.3z"/>
		<path d="M261.4,140l0.4-0.5c0.6,0.4,1.2,0.7,2.1,0.7c0.8,0,1.2-0.4,1.2-0.8c0-0.4-0.2-0.6-1.5-0.9c-1.3-0.3-1.9-0.7-1.9-1.4
			c0-0.8,0.7-1.4,2-1.4c0.7,0,1.5,0.3,2,0.6l-0.4,0.5c-0.4-0.3-1-0.5-1.6-0.5c-0.8,0-1.1,0.3-1.1,0.7s0.4,0.6,1.4,0.8
			c1.6,0.4,2,0.8,2,1.5c0,0.8-0.8,1.4-2.2,1.4C262.9,140.7,262,140.4,261.4,140z"/>
		<path d="M267.6,133.5h0.8v1.9v1.1l0,0c0.5-0.5,1.1-0.9,1.8-0.9c1.1,0,1.7,0.7,1.7,2v3h-0.8v-2.9c0-0.9-0.3-1.4-1.1-1.4
			c-0.6,0-1,0.3-1.5,0.9v3.4h-0.8v-7.1H267.6z"/>
		<path d="M274.8,137.8c0-1.9,0.9-3.5,2.2-4.5l0.4,0.4c-1.3,1.1-2,2.4-2,4.1c0,1.7,0.6,3,2,4.1l-0.4,0.4
			C275.7,141.3,274.8,139.7,274.8,137.8z"/>
		<path d="M279.7,135.9c0-1,0.5-1.8,1.4-2.3l0.3,0.5c-0.6,0.4-1,0.9-1,1.6c0.1,0,0.2-0.1,0.3-0.1c0.4,0,0.7,0.3,0.7,0.7
			c0,0.5-0.3,0.8-0.7,0.8C280,137.1,279.7,136.6,279.7,135.9z M282,135.9c0-1,0.5-1.8,1.4-2.3l0.3,0.5c-0.6,0.4-1,0.9-1,1.6
			c0.1,0,0.2-0.1,0.3-0.1c0.4,0,0.7,0.3,0.7,0.7c0,0.5-0.3,0.8-0.7,0.8C282.3,137.1,282,136.6,282,135.9z"/>
		<path class="st8" d="M285.8,133.5h0.8v4.8l0,0l2.6-2.6h0.9l-1.9,1.9l2.2,2.9h-0.9l-1.8-2.4l-1.1,1.1v1.3h-0.8L285.8,133.5
			L285.8,133.5z"/>
		<path class="st8" d="M291.4,138.2c0-1.6,1.2-2.5,2.5-2.5c1.4,0,2.2,0.9,2.2,2.3c0,0.2,0,0.4,0,0.5h-3.8c0.1,1.1,0.9,1.7,1.9,1.7
			c0.6,0,1-0.2,1.5-0.5l0.3,0.5c-0.5,0.3-1.1,0.6-1.9,0.6C292.6,140.7,291.4,139.8,291.4,138.2z M292.2,137.8h3.1
			c-0.1-1-0.6-1.5-1.4-1.5C293.1,136.3,292.4,136.8,292.2,137.8z"/>
		<path class="st8" d="M297.4,142.6l0.2-0.6c0.1,0,0.3,0.1,0.4,0.1c0.7,0,1.1-0.4,1.3-1l0.1-0.4l-2.3-4.9h0.8l1.2,2.7
			c0.2,0.4,0.4,0.9,0.6,1.4l0,0c0.2-0.5,0.4-1,0.5-1.4l1.1-2.7h0.8l-2.1,5.3c-0.4,1-1,1.7-2.1,1.7
			C297.8,142.7,297.6,142.6,297.4,142.6z"/>
		<path class="st8" d="M303.6,137h4.3v0.6h-4.3V137z"/>
		<path class="st8" d="M310.4,140.1L310.4,140.1l-0.1,0.5h-0.7v-7.1h0.8v1.9v0.9l0,0c0.4-0.4,1.1-0.7,1.6-0.7c1.3,0,2,1,2,2.5
			c0,1.7-1,2.6-2.2,2.6C311.4,140.7,310.9,140.5,310.4,140.1z M313.3,138.1c0-1.1-0.4-1.8-1.4-1.8c-0.4,0-0.9,0.2-1.4,0.7v2.4
			c0.5,0.4,1,0.6,1.3,0.6C312.6,140,313.3,139.3,313.3,138.1z"/>
		<path d="M315.7,136.6c0.6-0.3,1-0.9,1-1.6c-0.1,0-0.2,0.1-0.3,0.1c-0.4,0-0.7-0.3-0.7-0.7c0-0.5,0.3-0.8,0.7-0.8
			c0.5,0,0.9,0.4,0.9,1.2c0,1-0.5,1.8-1.4,2.3L315.7,136.6z M318,136.6c0.6-0.3,1-0.9,1-1.6c-0.1,0-0.2,0.1-0.3,0.1
			c-0.4,0-0.7-0.3-0.7-0.7c0-0.5,0.3-0.8,0.7-0.8c0.5,0,0.9,0.4,0.9,1.2c0,1-0.5,1.8-1.4,2.3L318,136.6z"/>
		<path d="M322.7,142.2c0.8-0.4,1.2-0.9,1.3-1.7c-0.1,0-0.1,0-0.2,0c-0.4,0-0.8-0.2-0.8-0.7s0.4-0.8,0.8-0.8c0.6,0,0.9,0.5,0.9,1.3
			c0,1.2-0.7,2-1.8,2.4L322.7,142.2z"/>
		<path d="M333.7,135.9c0-1,0.5-1.8,1.4-2.3l0.3,0.5c-0.6,0.4-1,0.9-1,1.6c0.1,0,0.2-0.1,0.3-0.1c0.4,0,0.7,0.3,0.7,0.7
			c0,0.5-0.3,0.8-0.7,0.8C334,137.1,333.7,136.6,333.7,135.9z M336,135.9c0-1,0.5-1.8,1.4-2.3l0.3,0.5c-0.6,0.4-1,0.9-1,1.6
			c0.1,0,0.2-0.1,0.3-0.1c0.4,0,0.7,0.3,0.7,0.7c0,0.5-0.3,0.8-0.7,0.8C336.3,137.1,336,136.6,336,135.9z"/>
		<path d="M339.4,141.5c0-0.4,0.3-0.8,0.8-1.1l0,0c-0.3-0.1-0.5-0.4-0.5-0.8c0-0.3,0.2-0.7,0.6-0.9l0,0c-0.3-0.2-0.6-0.7-0.6-1.3
			c0-1.1,0.9-1.7,1.9-1.7c0.3,0,0.5,0,0.7,0.1h2v0.7H343c0.2,0.2,0.4,0.6,0.4,1c0,1-0.8,1.7-1.9,1.7c-0.2,0-0.5-0.1-0.8-0.2
			c-0.2,0.1-0.4,0.3-0.4,0.6c0,0.4,0.4,0.6,1,0.6h1.1c1.2,0,1.8,0.3,1.8,1.1c0,0.9-1,1.7-2.7,1.7
			C340.3,142.8,339.4,142.3,339.4,141.5z M343.6,141.3c0-0.5-0.4-0.6-1.1-0.6h-0.9c-0.3,0-0.5,0-0.7-0.1c-0.5,0.2-0.6,0.5-0.6,0.8
			c0,0.5,0.5,0.8,1.6,0.8C342.9,142.2,343.6,141.8,343.6,141.3z M342.7,137.4c0-0.7-0.5-1.1-1.1-1.1s-1.1,0.5-1.1,1.1
			c0,0.7,0.5,1.1,1.1,1.1S342.7,138.1,342.7,137.4z"/>
		<path d="M345.3,138.2c0-1.6,1.1-2.6,2.4-2.6s2.4,0.9,2.4,2.6c0,1.6-1.1,2.5-2.4,2.5S345.3,139.8,345.3,138.2z M349.3,138.2
			c0-1.1-0.6-1.9-1.5-1.9s-1.5,0.8-1.5,1.9c0,1.1,0.6,1.9,1.5,1.9C348.6,140,349.3,139.3,349.3,138.2z"/>
		<path d="M353.2,139v-4.8h-1.7v-0.7h2.5v5.5c0,0.7,0.4,1,1,1c0.3,0,0.6-0.1,0.9-0.2l0.2,0.6c-0.4,0.2-0.8,0.3-1.3,0.3
			C353.8,140.7,353.2,140.1,353.2,139z"/>
		<path d="M357.3,138.2c0-1.6,1.1-2.6,2.2-2.6c0.6,0,1,0.2,1.4,0.6l0,0v-0.9v-1.9h0.8v7.1H361l0-0.5l0,0c-0.4,0.4-1,0.8-1.6,0.8
			C358.2,140.7,357.3,139.8,357.3,138.2z M361,139.3v-2.4c-0.4-0.4-0.9-0.6-1.3-0.6c-0.8,0-1.5,0.7-1.5,1.9s0.5,1.9,1.4,1.9
			C360.1,140,360.5,139.8,361,139.3z"/>
		<path d="M363.3,135.7h0.7l0.1,0.6l0,0c0.2-0.4,0.5-0.8,1.1-0.8c0.5,0,0.8,0.3,0.9,0.8c0.3-0.5,0.6-0.8,1.1-0.8
			c0.7,0,1.1,0.5,1.1,1.5v3.5h-0.8v-3.4c0-0.6-0.2-0.8-0.5-0.8s-0.5,0.2-0.8,0.7v3.5h-0.8v-3.4c0-0.6-0.1-0.8-0.5-0.8
			c-0.3,0-0.6,0.2-0.8,0.7v3.5h-0.8L363.3,135.7L363.3,135.7z"/>
		<path d="M369.5,139.3c0-1.1,1-1.6,3.5-1.8c0-0.7-0.3-1.2-1.3-1.2c-0.6,0-1.2,0.3-1.7,0.6l-0.3-0.6c0.5-0.3,1.3-0.7,2.2-0.7
			c1.3,0,2,0.8,2,2v3h-0.7l-0.1-0.7l0,0c-0.5,0.4-1.2,0.8-1.9,0.8C370.3,140.7,369.5,140.2,369.5,139.3z M373,139.3V138
			c-2.1,0.2-2.7,0.6-2.7,1.2c0,0.5,0.5,0.8,1.1,0.8C371.9,140.1,372.5,139.8,373,139.3z"/>
		<path d="M375.6,135.7h0.7l0.1,0.8l0,0c0.5-0.5,1.1-0.9,1.8-0.9c1.1,0,1.7,0.7,1.7,2v3h-0.8v-2.9c0-0.9-0.3-1.4-1.1-1.4
			c-0.6,0-1,0.3-1.5,0.9v3.4h-0.8v-4.9H375.6z"/>
		<path d="M381.7,136.6c0.6-0.3,1-0.9,1-1.6c-0.1,0-0.2,0.1-0.3,0.1c-0.4,0-0.7-0.3-0.7-0.7c0-0.5,0.3-0.8,0.7-0.8
			c0.5,0,0.9,0.4,0.9,1.2c0,1-0.5,1.8-1.4,2.3L381.7,136.6z M384,136.6c0.6-0.3,1-0.9,1-1.6c-0.1,0-0.2,0.1-0.3,0.1
			c-0.4,0-0.7-0.3-0.7-0.7c0-0.5,0.3-0.8,0.7-0.8c0.5,0,0.9,0.4,0.9,1.2c0,1-0.5,1.8-1.4,2.3L384,136.6z"/>
		<path d="M387.9,141.9c1.3-1.1,2-2.4,2-4.1c0-1.7-0.6-3-2-4.1l0.5-0.4c1.4,1.1,2.2,2.6,2.2,4.5s-0.9,3.5-2.2,4.5L387.9,141.9z"/>
	</g>
</g>
<g>
	<g>
		<path d="M300.8,340.8c0.6-0.6,1.7-1.2,3.2-1.2c1,0,1.7,0.2,2,0.4c-0.2,0.5-0.3,1-0.5,1.5c-0.1,0.1-0.3,0.1-0.4,0
			c0.1-1-0.3-1.5-1.2-1.5c-1.7,0-3.1,2.1-3.1,3.9c0,1.6,0.8,2.1,1.6,2.1c0.8,0,1.4-0.5,2.1-1.4c0.1-0.1,0.3,0,0.4,0.1
			c-0.2,0.6-0.5,1.3-0.7,1.6c-0.4,0-0.9,0.2-1.8,0.2c-2,0-3.1-1.1-3-2.6C299.3,342.7,300,341.5,300.8,340.8z"/>
		<path d="M309.5,343.8c0,0.7-0.3,1.6-0.9,2.1c-0.5,0.5-1.1,0.7-1.7,0.7c-1,0-1.5-0.7-1.4-1.4c0-0.8,0.4-1.7,1-2.3
			c0.6-0.5,1.1-0.6,1.6-0.6C309.1,342.3,309.5,343,309.5,343.8z M307.6,343.1c-0.4,0.4-1,1.6-1,2.6c0,0.2,0.1,0.4,0.3,0.4
			c0.2,0,0.5-0.2,0.7-0.7c0.3-0.5,0.8-1.5,0.8-2.3c0-0.2-0.1-0.4-0.3-0.4C307.9,342.7,307.8,342.9,307.6,343.1z"/>
		<path d="M312.3,342.9l-0.5,1.2l0,0c0.5-0.8,1.4-1.8,2.2-1.8c0.4,0,0.5,0.3,0.5,0.6c0,0.2-0.2,0.6-0.4,1.2l0,0
			c0.7-1.1,1.5-1.8,2.2-1.8c0.5,0,0.7,0.3,0.7,0.6c0,0.2-0.1,0.5-0.2,0.9c-0.2,0.5-0.4,1.1-0.7,1.8c-0.1,0.1,0,0.2,0,0.2
			c0.2,0,0.6-0.4,0.9-0.7c0.1,0,0.2,0.1,0.2,0.2c-0.3,0.5-1.1,1.3-2.1,1.3c-0.2,0-0.4-0.2-0.4-0.4c0-0.2,0.1-0.3,0.2-0.5
			c0.3-0.7,0.6-1.4,0.8-2.1c0.1-0.2,0.1-0.4,0.1-0.5s0-0.1-0.1-0.1s-0.4,0.2-0.7,0.6c-0.6,0.7-1.1,1.8-1.5,2.8
			c-0.1,0.2-0.2,0.2-0.4,0.2c-0.4,0-0.8-0.1-0.7-0.3c0-0.1,0.6-1.6,1-2.7c0.1-0.2,0.1-0.4,0.1-0.5s-0.1-0.1-0.1-0.1
			c-0.1,0-0.4,0.2-0.8,0.7c-0.5,0.7-1,1.8-1.4,2.8c-0.1,0.1-0.2,0.2-0.4,0.2c-0.4,0-0.8-0.1-0.7-0.3c0-0.1,0.8-2.4,1-2.8
			c0.1-0.3,0.1-0.4-0.1-0.4c-0.3,0-0.6,0.4-0.8,0.6c-0.1,0-0.2-0.1-0.2-0.2c0.3-0.6,0.9-1.1,1.9-1.1
			C312.4,342.3,312.4,342.7,312.3,342.9z"/>
		<path d="M320.4,342.5c0.1,0,0.2,0,0.3,0c1.3,0,1.7,0.7,1.7,1.5c0,0.5-0.3,1.3-0.7,1.7c-0.5,0.5-1.2,0.9-2.1,0.9
			c-0.1,0-0.3,0-0.4-0.1c-0.1,0-0.1,0.1-0.1,0.2l-0.5,1.3c-0.1,0.3-0.1,0.6,0.2,0.6h0.4c0.1,0,0.1,0.3,0,0.3h-0.7
			c-0.6,0-1.2,0-2.1,0.1c-0.1-0.1-0.1-0.3,0-0.3l0.3-0.1c0.4-0.1,0.5-0.2,0.8-0.9l1.6-4.6c-0.2,0-0.8,0.3-1,0.4
			c-0.1,0-0.2-0.2-0.1-0.3c0.2-0.2,1-0.6,1.3-0.7l0.3-0.8c0.1-0.1,0.2-0.1,0.5-0.1s0.6,0.1,0.7,0.2L320.4,342.5z M319.3,345.6
			c0,0.1-0.1,0.3,0.1,0.4c0.1,0.1,0.2,0.2,0.3,0.2c0.1,0,0.3-0.1,0.6-0.4c0.4-0.5,0.8-1.3,0.8-2c0-0.6-0.3-0.8-0.7-0.8
			c0,0-0.1,0-0.2,0L319.3,345.6z"/>
		<path d="M326.3,342.7l0.2-0.5c0.1,0,0.2-0.1,0.3-0.1c0.1,0,0.2,0,0.4,0.1c0.2,0,0.3,0.2,0.4,0.3c-0.4,0.9-0.8,2-1.2,3.2
			c0,0.1,0,0.2,0,0.2c0.1,0,0.6-0.3,0.9-0.6c0.1,0,0.2,0.1,0.2,0.2c-0.4,0.6-1.3,1.2-2,1.2c-0.3,0-0.4-0.2-0.4-0.4
			c0-0.1,0-0.3,0.1-0.4l0.3-0.8l0,0c-0.6,0.8-1.5,1.6-2.3,1.6c-0.3,0-0.6-0.3-0.6-0.6c0-0.6,0.6-1.8,1.5-2.7
			c0.7-0.6,1.2-0.9,1.8-0.9C326,342.4,326.2,342.5,326.3,342.7z M325.7,342.9c-0.1,0-0.3,0.1-0.7,0.5c-0.5,0.6-1,1.6-1,2.2v0.1
			c0,0.1,0.1,0.2,0.1,0.2c0.2,0,0.8-0.6,1.1-1c0.4-0.5,0.7-1.2,0.9-1.6C326,343,325.8,342.9,325.7,342.9z"/>
		<path d="M331.9,342.9c0,0.6-0.4,1-0.7,1c-0.2,0-0.2-0.2-0.3-0.5c0-0.2-0.1-0.2-0.2-0.2c-0.2,0-0.4,0.4-0.7,0.9
			c-0.5,0.8-0.7,1.6-1,2.3c-0.1,0.1-0.3,0.2-0.5,0.2s-0.7-0.1-0.5-0.4c0.3-0.9,0.7-2,0.9-2.8c0.1-0.2,0.1-0.3,0-0.3
			c-0.2,0-0.5,0.3-0.8,0.6c-0.1,0-0.2-0.1-0.2-0.2c0.2-0.4,0.8-1.1,1.6-1.1c0.6,0,0.6,0.4,0.4,1l-0.4,1.1l0,0c0.3-0.6,0.6-1,0.8-1.3
			c0.3-0.4,0.6-0.7,1-0.7C331.7,342.3,331.9,342.5,331.9,342.9z"/>
		<path d="M335.7,343.1c0,1-1.7,1.5-2.5,1.7c0,0.1,0,0.3,0,0.5c0,0.3,0.1,0.5,0.4,0.5c0.4,0,0.8-0.2,1.3-0.7c0.1,0,0.2,0.1,0.2,0.2
			c-0.5,0.7-1.3,1.2-2.2,1.2c-0.7,0-1.1-0.5-1.1-1.1c0-0.9,0.6-1.9,1.3-2.5c0.6-0.4,1.1-0.6,1.6-0.6
			C335.4,342.3,335.7,342.7,335.7,343.1z M334,343c-0.4,0.4-0.6,1-0.7,1.4c0.3-0.1,0.7-0.3,0.9-0.6c0.2-0.2,0.3-0.6,0.4-0.8
			c0-0.1-0.1-0.2-0.2-0.2C334.3,342.7,334.1,342.8,334,343z"/>
		<path d="M340.7,343l-0.9,2.6c0,0.1,0,0.2,0.1,0.2c0.2,0,0.7-0.4,1.1-0.8c0.2,0,0.2,0.1,0.2,0.2c-0.3,0.5-1.4,1.3-2.2,1.3
			c-0.3,0-0.5-0.2-0.5-0.4c0-0.1,0-0.3,0.1-0.5l0.9-2.6h-0.7c-0.1-0.1,0-0.3,0.1-0.4l0.9-0.2l0.7-1c0.1-0.1,0.2-0.1,0.3-0.1
			c0.1,0,0.3,0.1,0.4,0.2l-0.3,0.9h0.9c0.2,0.1,0.1,0.5,0,0.5L340.7,343L340.7,343z"/>
		<path d="M345.6,343.8c0,0.7-0.3,1.6-0.9,2.1c-0.5,0.5-1.1,0.7-1.7,0.7c-1,0-1.5-0.7-1.4-1.4c0-0.8,0.4-1.7,1-2.3
			c0.6-0.5,1.1-0.6,1.6-0.6C345.2,342.3,345.6,343,345.6,343.8z M343.7,343.1c-0.4,0.4-1,1.6-1,2.6c0,0.2,0.1,0.4,0.3,0.4
			c0.2,0,0.5-0.2,0.7-0.7c0.3-0.5,0.8-1.5,0.8-2.3c0-0.2-0.1-0.4-0.3-0.4C344.1,342.7,343.9,342.9,343.7,343.1z"/>
		<path d="M347.6,345.7c0,0.5-0.4,0.9-0.8,0.9s-0.7-0.3-0.7-0.7c0-0.5,0.3-0.9,0.9-0.9C347.3,344.9,347.6,345.2,347.6,345.7z
			 M348.3,343.2c0,0.5-0.4,0.9-0.8,0.9s-0.7-0.3-0.7-0.7c0-0.5,0.3-0.9,0.9-0.9C348.1,342.5,348.3,342.8,348.3,343.2z"/>
		<path d="M252.3,351.3h0.8v1.9v1.1l0,0c0.5-0.5,1.1-0.9,1.8-0.9c1.1,0,1.7,0.7,1.7,2v3h-0.8v-2.9c0-0.9-0.3-1.4-1.1-1.4
			c-0.6,0-1,0.3-1.5,0.9v3.4h-0.8L252.3,351.3L252.3,351.3z"/>
		<path d="M258.2,357.2c0-1.1,1-1.6,3.5-1.8c0-0.7-0.3-1.2-1.3-1.2c-0.6,0-1.2,0.3-1.7,0.6l-0.3-0.6c0.5-0.3,1.3-0.7,2.2-0.7
			c1.3,0,2,0.8,2,2v3h-0.7l-0.1-0.7l0,0c-0.5,0.4-1.2,0.8-1.9,0.8C258.9,358.6,258.2,358.1,258.2,357.2z M261.7,357.2v-1.3
			c-2.1,0.2-2.7,0.6-2.7,1.2c0,0.5,0.5,0.8,1.1,0.8C260.6,357.9,261.1,357.6,261.7,357.2z"/>
		<path d="M264.1,357.8l0.4-0.5c0.6,0.4,1.2,0.7,2.1,0.7c0.8,0,1.2-0.4,1.2-0.8s-0.2-0.6-1.5-0.9s-1.9-0.7-1.9-1.4
			c0-0.8,0.7-1.4,2-1.4c0.7,0,1.5,0.3,2,0.6l-0.4,0.5c-0.5-0.3-1-0.5-1.6-0.5c-0.8,0-1.1,0.3-1.1,0.7c0,0.4,0.4,0.6,1.4,0.8
			c1.6,0.4,2,0.8,2,1.5c0,0.8-0.8,1.4-2.2,1.4C265.5,358.6,264.7,358.2,264.1,357.8z"/>
		<path d="M270.3,351.3h0.8v1.9v1.1l0,0c0.5-0.5,1.1-0.9,1.8-0.9c1.1,0,1.7,0.7,1.7,2v3h-0.8v-2.9c0-0.9-0.3-1.4-1.1-1.4
			c-0.6,0-1,0.3-1.5,0.9v3.4h-0.8v-7.1H270.3z"/>
		<path d="M277.4,355.7c0-1.9,0.9-3.5,2.2-4.5l0.5,0.4c-1.3,1.1-2,2.4-2,4.1s0.6,3,2,4.1l-0.5,0.4
			C278.3,359.1,277.4,357.6,277.4,355.7z"/>
		<path d="M282.3,353.7c0-1,0.5-1.8,1.4-2.3l0.3,0.5c-0.6,0.4-1,0.9-1,1.6c0.1,0,0.2-0.1,0.3-0.1c0.4,0,0.7,0.3,0.7,0.7
			c0,0.5-0.3,0.8-0.7,0.8C282.7,354.9,282.3,354.5,282.3,353.7z M284.6,353.7c0-1,0.5-1.8,1.4-2.3l0.3,0.5c-0.6,0.4-1,0.9-1,1.6
			c0.1,0,0.2-0.1,0.3-0.1c0.4,0,0.7,0.3,0.7,0.7c0,0.5-0.3,0.8-0.7,0.8C285,354.9,284.6,354.5,284.6,353.7z"/>
		<path class="st8" d="M288.4,351.3h0.8v4.8l0,0l2.6-2.6h0.9l-1.9,1.9l2.2,2.9h-0.9l-1.8-2.4l-1.1,1.1v1.3h-0.8L288.4,351.3
			L288.4,351.3z"/>
		<path class="st8" d="M294,356c0-1.6,1.2-2.5,2.5-2.5c1.4,0,2.2,0.9,2.2,2.3c0,0.2,0,0.4,0,0.5h-3.8c0.1,1.1,0.9,1.7,1.9,1.7
			c0.6,0,1-0.2,1.5-0.5l0.3,0.5c-0.5,0.3-1.1,0.6-1.9,0.6C295.2,358.6,294,357.6,294,356z M294.9,355.6h3.1c-0.1-1-0.6-1.5-1.4-1.5
			C295.7,354.1,295,354.6,294.9,355.6z"/>
		<path class="st8" d="M300,360.4l0.2-0.6c0.1,0,0.3,0.1,0.4,0.1c0.7,0,1.1-0.4,1.3-1l0.2-0.4l-2.3-4.9h0.8l1.2,2.7
			c0.2,0.4,0.4,0.9,0.6,1.4l0,0c0.2-0.5,0.4-1,0.5-1.4l1.1-2.7h0.8l-2.1,5.3c-0.4,1-1,1.7-2.1,1.7
			C300.4,360.5,300.2,360.5,300,360.4z"/>
		<path class="st8" d="M306.2,354.8h4.3v0.6h-4.3V354.8z"/>
		<path class="st8" d="M313,357.9L313,357.9l-0.1,0.5h-0.7v-7.1h0.8v1.9v0.9l0,0c0.4-0.4,1.1-0.7,1.6-0.7c1.3,0,2,1,2,2.5
			c0,1.7-1,2.6-2.2,2.6C314.1,358.6,313.5,358.3,313,357.9z M315.9,355.9c0-1.1-0.4-1.8-1.4-1.8c-0.4,0-0.9,0.2-1.4,0.7v2.4
			c0.5,0.4,1,0.6,1.3,0.6C315.3,357.9,315.9,357.1,315.9,355.9z"/>
		<path d="M318.4,354.5c0.6-0.3,1-0.9,1-1.6c-0.1,0-0.2,0.1-0.3,0.1c-0.4,0-0.7-0.3-0.7-0.7c0-0.5,0.3-0.8,0.7-0.8
			c0.5,0,0.9,0.4,0.9,1.2c0,1-0.5,1.8-1.4,2.3L318.4,354.5z M320.7,354.5c0.6-0.3,1-0.9,1-1.6c-0.1,0-0.2,0.1-0.3,0.1
			c-0.4,0-0.7-0.3-0.7-0.7c0-0.5,0.3-0.8,0.7-0.8c0.5,0,0.9,0.4,0.9,1.2c0,1-0.5,1.8-1.4,2.3L320.7,354.5z"/>
		<path d="M325.3,360.1c0.8-0.4,1.2-0.9,1.3-1.7c-0.1,0-0.1,0-0.2,0c-0.4,0-0.8-0.2-0.8-0.8c0-0.5,0.4-0.8,0.8-0.8
			c0.6,0,0.9,0.5,0.9,1.3c0,1.2-0.7,2-1.8,2.4L325.3,360.1z"/>
		<path d="M336.3,353.7c0-1,0.5-1.8,1.4-2.3l0.3,0.5c-0.6,0.4-1,0.9-1,1.6c0.1,0,0.2-0.1,0.3-0.1c0.4,0,0.7,0.3,0.7,0.7
			c0,0.5-0.3,0.8-0.7,0.8C336.7,354.9,336.3,354.5,336.3,353.7z M338.6,353.7c0-1,0.5-1.8,1.4-2.3l0.3,0.5c-0.6,0.4-1,0.9-1,1.6
			c0.1,0,0.2-0.1,0.3-0.1c0.4,0,0.7,0.3,0.7,0.7c0,0.5-0.3,0.8-0.7,0.8C339,354.9,338.6,354.5,338.6,353.7z"/>
		<path d="M342.1,359.3c0-0.4,0.3-0.8,0.8-1.1l0,0c-0.3-0.1-0.5-0.4-0.5-0.8c0-0.3,0.2-0.7,0.6-0.9l0,0c-0.3-0.2-0.6-0.7-0.6-1.3
			c0-1.1,0.9-1.7,1.9-1.7c0.3,0,0.5,0,0.7,0.1h2v0.7h-1.3c0.2,0.2,0.4,0.6,0.4,1c0,1-0.8,1.7-1.9,1.7c-0.2,0-0.5-0.1-0.8-0.2
			c-0.2,0.2-0.4,0.3-0.4,0.6c0,0.4,0.4,0.6,1,0.6h1.1c1.2,0,1.8,0.3,1.8,1.1c0,0.9-1,1.7-2.7,1.7
			C342.9,360.7,342.1,360.2,342.1,359.3z M346.2,359.1c0-0.5-0.4-0.6-1.1-0.6h-0.9c-0.3,0-0.5,0-0.7-0.1c-0.5,0.2-0.6,0.5-0.6,0.8
			c0,0.5,0.5,0.8,1.6,0.8C345.5,360.1,346.2,359.6,346.2,359.1z M345.4,355.2c0-0.7-0.5-1.1-1.1-1.1s-1.1,0.5-1.1,1.1
			c0,0.7,0.5,1.1,1.1,1.1C344.9,356.4,345.4,355.9,345.4,355.2z"/>
		<path d="M348,356c0-1.6,1.1-2.6,2.4-2.6s2.4,0.9,2.4,2.6c0,1.6-1.1,2.5-2.4,2.5S348,357.6,348,356z M351.9,356
			c0-1.1-0.6-1.9-1.5-1.9s-1.5,0.8-1.5,1.9s0.6,1.9,1.5,1.9S351.9,357.1,351.9,356z"/>
		<path d="M355.8,356.8V352h-1.7v-0.7h2.5v5.5c0,0.7,0.4,1,1,1c0.3,0,0.6-0.1,0.9-0.2l0.2,0.6c-0.5,0.2-0.8,0.3-1.3,0.3
			C356.4,358.6,355.8,358,355.8,356.8z"/>
		<path d="M360,356c0-1.6,1.1-2.6,2.2-2.6c0.6,0,1,0.2,1.4,0.6l0,0v-0.9v-1.9h0.8v7.1h-0.7l-0.1-0.6l0,0c-0.4,0.4-1,0.8-1.6,0.8
			C360.8,358.6,360,357.6,360,356z M363.6,357.1v-2.4c-0.4-0.4-0.9-0.6-1.3-0.6c-0.8,0-1.5,0.8-1.5,1.9c0,1.2,0.5,1.9,1.4,1.9
			C362.7,357.9,363.2,357.6,363.6,357.1z"/>
		<path d="M365.9,353.6h0.7l0.1,0.6l0,0c0.2-0.5,0.5-0.8,1.1-0.8c0.5,0,0.8,0.3,0.9,0.8c0.3-0.5,0.6-0.8,1.1-0.8
			c0.7,0,1.1,0.5,1.1,1.5v3.5h-0.8V355c0-0.6-0.2-0.8-0.5-0.8s-0.5,0.2-0.8,0.7v3.5H368V355c0-0.6-0.1-0.8-0.5-0.8
			c-0.3,0-0.6,0.2-0.8,0.7v3.5h-0.8L365.9,353.6L365.9,353.6z"/>
		<path d="M372.2,357.2c0-1.1,1-1.6,3.5-1.8c0-0.7-0.3-1.2-1.3-1.2c-0.6,0-1.2,0.3-1.7,0.6l-0.3-0.6c0.5-0.3,1.3-0.7,2.2-0.7
			c1.3,0,2,0.8,2,2v3h-0.7l-0.1-0.7l0,0c-0.5,0.4-1.2,0.8-1.9,0.8C372.9,358.6,372.2,358.1,372.2,357.2z M375.7,357.2v-1.3
			c-2.1,0.2-2.7,0.6-2.7,1.2c0,0.5,0.5,0.8,1.1,0.8C374.6,357.9,375.1,357.6,375.7,357.2z"/>
		<path d="M378.3,353.6h0.7l0.1,0.8l0,0c0.5-0.5,1.1-0.9,1.8-0.9c1.1,0,1.7,0.7,1.7,2v3h-0.8v-2.9c0-0.9-0.3-1.4-1.1-1.4
			c-0.6,0-1,0.3-1.5,0.9v3.4h-0.8v-4.9H378.3z"/>
		<path d="M384.4,354.5c0.6-0.3,1-0.9,1-1.6c-0.1,0-0.2,0.1-0.3,0.1c-0.4,0-0.7-0.3-0.7-0.7c0-0.5,0.3-0.8,0.7-0.8
			c0.5,0,0.9,0.4,0.9,1.2c0,1-0.5,1.8-1.4,2.3L384.4,354.5z M386.7,354.5c0.6-0.3,1-0.9,1-1.6c-0.1,0-0.2,0.1-0.3,0.1
			c-0.4,0-0.7-0.3-0.7-0.7c0-0.5,0.3-0.8,0.7-0.8c0.5,0,0.9,0.4,0.9,1.2c0,1-0.5,1.8-1.4,2.3L386.7,354.5z"/>
		<path d="M390.6,359.8c1.3-1.1,2-2.4,2-4.1s-0.6-3-2-4.1l0.4-0.4c1.4,1.1,2.2,2.6,2.2,4.5s-0.9,3.5-2.2,4.5L390.6,359.8z"/>
	</g>
</g>
<g>
	<g>
		<line class="st9" x1="146.3" y1="71.8" x2="281.9" y2="71.8"/>
		<g>
			<path d="M142.1,71.8c2,0.7,4.5,2,6,3.3l-1.2-3.3l1.2-3.3C146.6,69.9,144.1,71.1,142.1,71.8z"/>
		</g>
		<g>
			<path d="M286.1,71.8c-2,0.7-4.5,2-6,3.3l1.2-3.3l-1.2-3.3C281.6,69.9,284.1,71.1,286.1,71.8z"/>
		</g>
	</g>
</g>
<g>
	<g>
		<line class="st9" x1="126.3" y1="288.9" x2="200.9" y2="288.9"/>
		<g>
			<path d="M122.1,288.9c2,0.7,4.5,2,6,3.3l-1.2-3.3l1.2-3.3C126.5,286.9,124,288.1,122.1,288.9z"/>
		</g>
		<g>
			<path d="M205.1,288.9c-2,0.7-4.5,2-6,3.3l1.2-3.3l-1.2-3.3C200.6,286.9,203.1,288.1,205.1,288.9z"/>
		</g>
	</g>
</g>
<g>
	<g>
		<line class="st9" x1="231.1" y1="288.9" x2="305.7" y2="288.9"/>
		<g>
			<path d="M226.9,288.9c2,0.7,4.5,2,6,3.3l-1.2-3.3l1.2-3.3C231.3,286.9,228.9,288.1,226.9,288.9z"/>
		</g>
		<g>
			<path d="M309.9,288.9c-2,0.7-4.5,2-6,3.3l1.2-3.3l-1.2-3.3C305.5,286.9,307.9,288.1,309.9,288.9z"/>
		</g>
	</g>
</g>
<g class="st0">
	<path d="M145.6,59.4c0-0.8-0.1-1.1-0.6-1.2l-0.3,0c-0.1-0.1-0.1-0.3,0-0.3c1-0.1,2-0.1,3-0.1c1,0,1.9,0.1,2.6,0.4
		c1.6,0.6,2.4,2,2.4,3.5c0,1.5-0.7,2.8-2.1,3.6c-0.8,0.4-1.8,0.6-2.7,0.6c-0.8,0-1.5-0.1-2-0.1c-0.5,0-0.9,0-1.5,0
		c-0.1,0-0.1-0.2,0-0.3l0.3,0c0.7-0.1,0.7-0.2,0.7-1.5V59.4z M146.6,63.7c0,0.6,0,1,0.2,1.3c0.3,0.4,0.7,0.5,1.5,0.5
		c2.3,0,3.4-1.5,3.4-3.8c0-1.3-0.6-3.6-3.8-3.6c-0.7,0-1.1,0.1-1.2,0.2c-0.1,0.1-0.1,0.4-0.1,0.9V63.7z"/>
	<path d="M154.5,62.3c0-0.5,0-0.5-0.3-0.7l-0.1-0.1c0,0,0-0.2,0-0.2c0.3-0.1,1-0.4,1.2-0.6c0.1,0,0.1,0,0.1,0.1c0,0.4,0,1,0,1.5v2.2
		c0,0.9,0,1,0.5,1l0.3,0c0.1,0.1,0.1,0.3,0,0.3c-0.4,0-0.7,0-1.1,0c-0.4,0-0.8,0-1.1,0c-0.1,0-0.1-0.2,0-0.3l0.3,0
		c0.4-0.1,0.5-0.2,0.5-1V62.3z M155.5,58.9c0,0.4-0.3,0.6-0.6,0.6c-0.4,0-0.6-0.3-0.6-0.6c0-0.4,0.3-0.6,0.6-0.6
		S155.5,58.6,155.5,58.9z"/>
	<path d="M157.5,61.9c0-0.3,0-0.3-0.2-0.3h-0.4c-0.1,0-0.1-0.2,0-0.2l0.5-0.3c0.1,0,0.2-0.1,0.2-0.2c0-0.4,0.1-1.2,0.4-1.9
		c0.3-0.7,1-1.5,2.2-1.5c0.7,0,1.2,0.3,1.4,0.5c0.3-0.4,1-0.8,1.9-0.8c0.8,0,1.5,0.4,1.5,0.9c0,0.4-0.3,0.5-0.5,0.5
		c-0.2,0-0.3-0.1-0.3-0.2c-0.3-0.6-0.8-0.8-1.1-0.8c-0.9,0-1.4,1-1.4,2.9v0.1c0,0.3,0,0.4,0.2,0.4h1.3c0.5,0,1.3-0.1,1.6-0.2
		c0,0,0.1,0,0.1,0.1c0,0.4,0,1,0,1.5v2c0,0.9,0,1,0.5,1l0.3,0c0.1,0.1,0.1,0.3,0,0.3c-0.4,0-0.7,0-1.1,0c-0.4,0-0.8,0-1.1,0
		c-0.1,0-0.1-0.2,0-0.3l0.3,0c0.4-0.1,0.5-0.2,0.5-1v-2.1c0-0.7-0.1-0.8-0.6-0.8h-1.5c-0.2,0-0.2,0.1-0.2,0.4v2.5c0,0.9,0,1,0.5,1
		l0.4,0c0.1,0.1,0.1,0.3,0,0.3c-0.5,0-0.8,0-1.3,0c-0.4,0-0.8,0-1.2,0c-0.1,0-0.1-0.2,0-0.3l0.3,0c0.4-0.1,0.5-0.2,0.5-1v-2.5
		c0-0.3,0-0.3-0.2-0.3h-1.9c-0.2,0-0.2,0-0.2,0.3v2.5c0,0.9,0,1,0.5,1l0.4,0c0.1,0.1,0.1,0.3,0,0.3c-0.5,0-0.9,0-1.3,0
		c-0.4,0-0.8,0-1.2,0c-0.1,0-0.1-0.2,0-0.3l0.3,0c0.4-0.1,0.5-0.2,0.5-1V61.9z M160.6,61c0.1,0,0.2-0.1,0.2-0.2
		c0-0.7,0.1-1.4,0.3-2.1c-0.1-0.4-0.6-0.9-1.2-0.9c-1.3,0-1.4,1.5-1.4,2.7v0.1c0,0.3,0,0.3,0.3,0.3H160.6z"/>
	<path d="M167.4,62.7c-0.3,0-0.3,0-0.3,0.3c0,1.2,0.7,2.2,2,2.2c0.4,0,0.7-0.1,1.1-0.6c0.1,0,0.2,0,0.2,0.1
		c-0.4,0.8-1.3,1.1-1.9,1.1c-0.8,0-1.4-0.3-1.7-0.8c-0.4-0.5-0.5-1-0.5-1.6c0-1.5,1-2.7,2.4-2.7c1,0,1.7,0.7,1.7,1.4
		c0,0.2,0,0.3,0,0.3c0,0.1-0.2,0.1-0.7,0.1H167.4z M168.2,62.3c0.9,0,1.2,0,1.2-0.1c0,0,0.1-0.1,0.1-0.2c0-0.3-0.2-0.8-0.9-0.8
		c-0.7,0-1.3,0.6-1.3,1c0,0,0,0.1,0.1,0.1H168.2z"/>
	<path d="M173.9,62.8c0.1,0.1,0.2,0.2,0.2,0.4c0,0.1,0,0.2-0.1,0.3l-2.8,0.3c-0.1-0.1-0.2-0.3-0.2-0.4s0-0.2,0.1-0.3L173.9,62.8z"/>
	<path d="M177.6,61.9c-0.6,0-0.6,0-0.6,0.4V64c0,1.3,0.1,1.4,0.7,1.5l0.3,0c0.1,0,0,0.3,0,0.3c-0.6,0-1.1,0-1.5,0
		c-0.5,0-0.9,0-1.4,0c-0.1,0-0.1-0.2,0-0.3l0.2,0c0.7-0.1,0.7-0.2,0.7-1.5v-4.3c0-1.3-0.1-1.5-0.7-1.5l-0.3,0c-0.1,0,0-0.3,0-0.3
		c0.6,0,1,0,1.5,0c0.5,0,0.9,0,1.4,0c0.1,0,0.1,0.3,0,0.3l-0.2,0c-0.7,0.1-0.7,0.3-0.7,1.5V61c0,0.4,0,0.4,0.6,0.4h3.4
		c0.6,0,0.6,0,0.6-0.4v-1.4c0-1.3,0-1.4-0.7-1.5l-0.2,0c-0.1,0,0-0.3,0-0.3c0.6,0,1,0,1.5,0c0.5,0,0.9,0,1.4,0c0.1,0,0.1,0.3,0,0.3
		l-0.3,0c-0.7,0.1-0.7,0.3-0.7,1.5V64c0,1.3,0,1.4,0.7,1.5l0.3,0c0.1,0,0,0.3,0,0.3c-0.6,0-1,0-1.5,0c-0.5,0-0.9,0-1.5,0
		c-0.1,0-0.1-0.2,0-0.3l0.2,0c0.7-0.1,0.7-0.2,0.7-1.5v-1.7c0-0.4,0-0.4-0.6-0.4H177.6z"/>
	<path d="M185.5,62.7c-0.3,0-0.3,0-0.3,0.3c0,1.2,0.7,2.2,2,2.2c0.4,0,0.7-0.1,1.1-0.6c0.1,0,0.2,0,0.2,0.1
		c-0.4,0.8-1.3,1.1-1.9,1.1c-0.8,0-1.4-0.3-1.7-0.8c-0.4-0.5-0.5-1-0.5-1.6c0-1.5,1-2.7,2.4-2.7c1,0,1.7,0.7,1.7,1.4
		c0,0.2,0,0.3,0,0.3c0,0.1-0.2,0.1-0.7,0.1H185.5z M186.2,62.3c0.9,0,1.2,0,1.2-0.1c0,0,0.1-0.1,0.1-0.2c0-0.3-0.2-0.8-0.9-0.8
		c-0.7,0-1.3,0.6-1.3,1c0,0,0,0.1,0.1,0.1H186.2z"/>
	<path d="M190.6,64.4c0,0.9,0,1,0.5,1l0.3,0c0.1,0.1,0.1,0.3,0,0.3c-0.4,0-0.7,0-1.2,0c-0.4,0-0.8,0-1.2,0c-0.1,0-0.1-0.2,0-0.3
		l0.3,0c0.4-0.1,0.5-0.2,0.5-1V59c0-0.7,0-0.8-0.4-1l-0.1-0.1c-0.1,0-0.1-0.2,0-0.2c0.3-0.1,0.9-0.3,1.3-0.5c0,0,0.1,0,0.1,0.1
		c0,0.4,0,1,0,1.5V64.4z"/>
	<path d="M193.6,64.4c0,0.9,0,1,0.5,1l0.3,0c0.1,0.1,0.1,0.3,0,0.3c-0.4,0-0.7,0-1.2,0c-0.4,0-0.8,0-1.2,0c-0.1,0-0.1-0.2,0-0.3
		l0.3,0c0.4-0.1,0.5-0.2,0.5-1V59c0-0.7,0-0.8-0.4-1l-0.1-0.1c-0.1,0-0.1-0.2,0-0.2c0.3-0.1,0.9-0.3,1.3-0.5c0,0,0.1,0,0.1,0.1
		c0,0.4,0,1,0,1.5V64.4z"/>
	<path d="M202.1,62.7c0-0.8-0.4-1.2-1.1-1.2c-0.5,0-0.8,0.2-1,0.4c-0.1,0.2-0.2,0.3-0.2,0.7v1.8c0,0.9,0,1,0.5,1l0.3,0
		c0.1,0.1,0.1,0.3,0,0.3c-0.4,0-0.7,0-1.1,0c-0.4,0-0.8,0-1.1,0c-0.1,0-0.1-0.2,0-0.3l0.2,0c0.4-0.1,0.5-0.2,0.5-1v-1.7
		c0-0.8-0.4-1.2-1.1-1.2c-0.5,0-0.8,0.2-1,0.4c-0.1,0.1-0.2,0.3-0.2,0.7v1.9c0,0.9,0,1,0.5,1l0.2,0c0.1,0.1,0.1,0.3,0,0.3
		c-0.3,0-0.7,0-1.1,0c-0.4,0-0.8,0-1.2,0c-0.1,0-0.1-0.2,0-0.3l0.3,0c0.4-0.1,0.5-0.2,0.5-1v-2.1c0-0.5,0-0.5-0.3-0.7l-0.1-0.1
		c0,0,0-0.2,0-0.2c0.3-0.1,1-0.4,1.2-0.6c0,0,0.1,0,0.1,0.1c0,0.3,0,0.5,0,0.6c0,0.1,0,0.1,0.1,0.1c0.5-0.3,1-0.6,1.6-0.6
		c0.6,0,0.9,0.2,1.3,0.7c0.1,0,0.2,0,0.3-0.1c0.5-0.3,1.1-0.6,1.6-0.6c1,0,1.4,0.7,1.4,1.5v2.1c0,0.9,0,1,0.5,1l0.3,0
		c0.1,0.1,0.1,0.3,0,0.3c-0.4,0-0.7,0-1.2,0c-0.4,0-0.8,0-1.1,0c-0.1,0-0.1-0.2,0-0.3l0.2,0c0.4-0.1,0.5-0.2,0.5-1V62.7z"/>
	<path d="M206.9,63.3c0.2-0.1,0.2-0.2,0.2-0.3l0-0.6c0-0.4-0.1-1-0.9-1c-0.3,0-0.7,0.2-0.8,0.5c0,0.2,0,0.3-0.1,0.4
		c-0.2,0.1-0.5,0.2-0.7,0.2c-0.1,0-0.2-0.1-0.2-0.2c0-0.6,1.4-1.5,2.2-1.5c0.9,0,1.3,0.5,1.2,1.4l-0.1,2.1c0,0.6,0.1,1,0.6,1
		c0.1,0,0.2,0,0.3-0.1c0.1,0,0.1-0.1,0.2-0.1c0,0,0.1,0.1,0.1,0.2c0,0.1-0.4,0.5-1,0.5c-0.3,0-0.6-0.1-0.8-0.4
		c0-0.1-0.1-0.2-0.2-0.2c-0.1,0-0.2,0.1-0.5,0.2c-0.3,0.1-0.5,0.3-0.9,0.3c-0.3,0-0.6-0.1-0.8-0.3c-0.2-0.2-0.4-0.5-0.4-0.8
		c0-0.5,0.2-0.7,1-1L206.9,63.3z M206.2,65.4c0.2,0,0.6-0.2,0.7-0.3c0.1-0.1,0.1-0.3,0.2-0.6l0-0.7c0-0.1,0-0.2-0.1-0.2
		c-0.1,0-0.3,0-0.5,0.1c-0.7,0.2-1.1,0.4-1.1,0.9C205.4,64.9,205.5,65.4,206.2,65.4z"/>
	<path d="M210.1,62.3c0-0.5,0-0.5-0.3-0.7l-0.1-0.1c0,0,0-0.2,0-0.2c0.3-0.1,1-0.4,1.2-0.6c0,0,0.1,0,0.1,0.1c0,0.3,0,0.5,0,0.6
		c0,0.1,0,0.1,0.1,0.1c0.5-0.3,1.1-0.6,1.7-0.6c1,0,1.4,0.7,1.4,1.5v2.1c0,0.9,0,1,0.5,1l0.3,0c0.1,0.1,0.1,0.3,0,0.3
		c-0.4,0-0.7,0-1.1,0c-0.4,0-0.8,0-1.1,0c-0.1,0-0.1-0.2,0-0.3l0.2,0c0.4-0.1,0.5-0.2,0.5-1v-1.8c0-0.7-0.3-1.2-1.1-1.2
		c-0.5,0-0.9,0.2-1,0.4c-0.2,0.2-0.2,0.4-0.2,0.7v1.8c0,0.9,0,1,0.5,1l0.2,0c0.1,0.1,0.1,0.3,0,0.3c-0.3,0-0.7,0-1.1,0
		c-0.4,0-0.8,0-1.1,0c-0.1,0-0.1-0.2,0-0.3l0.3,0c0.4-0.1,0.5-0.2,0.5-1V62.3z"/>
	<path d="M219.7,59.6c0-1.3,0-1.5-0.7-1.5l-0.3,0c-0.1,0,0-0.3,0-0.3c0.6,0,1,0,1.5,0c0.5,0,0.9,0,1.4,0c0.1,0,0.1,0.3,0,0.3l-0.2,0
		c-0.7,0.1-0.7,0.3-0.7,1.5V61c0,0.2,0,0.5,0.2,0.5c0.1,0,0.3-0.1,0.3-0.1c0.2-0.1,0.5-0.5,0.6-0.6l1.3-1.3c0.2-0.2,0.8-0.8,0.9-1
		c0.1-0.1,0.1-0.1,0.1-0.2s0-0.1-0.2-0.1l-0.3-0.1c-0.1-0.1-0.1-0.2,0-0.3c0.4,0,0.9,0,1.3,0c0.4,0,0.8,0,1.2,0
		c0.1,0.1,0.1,0.2,0,0.3c-0.3,0-0.8,0.1-1.1,0.3c-0.3,0.2-1,0.8-1.7,1.4l-1.1,1c-0.2,0.2-0.3,0.3-0.3,0.4c0,0.1,0.1,0.2,0.2,0.4
		c1.1,1.3,2.1,2.4,3,3.4c0.3,0.3,0.6,0.4,1,0.5l0.3,0c0.1,0.1,0.1,0.3,0,0.3c-0.3,0-0.8,0-1.3,0c-0.5,0-0.9,0-1.5,0
		c-0.1,0-0.1-0.2,0-0.3l0.3,0c0.2,0,0.3-0.1,0.3-0.1c0-0.1-0.1-0.2-0.2-0.3c-0.2-0.3-0.5-0.6-1-1.1l-1-1.1c-0.7-0.8-0.9-1-1.2-1
		c-0.2,0-0.2,0.2-0.2,0.6V64c0,1.3,0,1.4,0.7,1.5l0.3,0c0.1,0,0,0.3,0,0.3c-0.6,0-1,0-1.5,0c-0.5,0-0.9,0-1.4,0
		c-0.1,0-0.1-0.2,0-0.3l0.2,0c0.6-0.1,0.7-0.2,0.7-1.5V59.6z"/>
	<path d="M227.8,62.7c-0.3,0-0.3,0-0.3,0.3c0,1.2,0.7,2.2,2,2.2c0.4,0,0.7-0.1,1.1-0.6c0.1,0,0.2,0,0.2,0.1
		c-0.4,0.8-1.3,1.1-1.9,1.1c-0.8,0-1.4-0.3-1.7-0.8c-0.4-0.5-0.5-1-0.5-1.6c0-1.5,1-2.7,2.4-2.7c1,0,1.7,0.7,1.7,1.4
		c0,0.2,0,0.3,0,0.3c0,0.1-0.2,0.1-0.7,0.1H227.8z M228.5,62.3c0.9,0,1.2,0,1.2-0.1c0,0,0.1-0.1,0.1-0.2c0-0.3-0.2-0.8-0.9-0.8
		c-0.7,0-1.3,0.6-1.3,1c0,0,0,0.1,0.1,0.1H228.5z"/>
	<path d="M231.3,68.2c0-0.3,0.2-0.5,0.5-0.5h0.2c0.2,0,0.3-0.1,0.4-0.2c0.3-0.5,0.6-1,0.7-1.3c0-0.1,0.1-0.3,0.1-0.5
		c0-0.2,0-0.4-0.2-0.8l-0.9-2.6c-0.2-0.6-0.3-0.9-0.7-0.9l-0.3-0.1c-0.1-0.1-0.1-0.3,0-0.3c0.4,0,0.7,0,1.1,0c0.3,0,0.7,0,1,0
		c0.1,0,0.1,0.2,0,0.3l-0.3,0.1c-0.2,0-0.3,0.1-0.3,0.2c0,0.1,0.3,0.9,0.3,1.1l0.4,1.1c0.1,0.2,0.3,0.8,0.3,0.9c0,0,0.2-0.4,0.4-0.9
		l0.4-0.9c0.3-0.6,0.4-1.1,0.4-1.2c0-0.1-0.1-0.2-0.3-0.2l-0.4-0.1c-0.1-0.1-0.1-0.3,0-0.3c0.4,0,0.7,0,1.1,0c0.3,0,0.6,0,0.9,0
		c0.1,0,0.1,0.2,0,0.3l-0.2,0c-0.4,0.1-0.6,0.4-1,1.3l-0.7,1.4c-0.4,0.8-1.4,2.9-2,4.2c-0.2,0.5-0.5,0.6-0.8,0.6
		C231.5,68.7,231.3,68.5,231.3,68.2z"/>
	<path d="M240.8,59.6c0-1.2,0-1.4-0.7-1.5l-0.2,0c-0.1,0,0-0.3,0-0.3c0.5,0,0.9,0,1.4,0h2.3c0.8,0,1.5,0,1.6,0
		c0.1,0.2,0.1,1.1,0.2,1.6c0,0.1-0.2,0.1-0.3,0c-0.2-0.6-0.3-1-0.9-1.1c-0.3-0.1-0.6-0.1-1.2-0.1h-0.9c-0.4,0-0.4,0-0.4,0.5v2.4
		c0,0.3,0,0.3,0.4,0.3h0.7c0.5,0,0.9,0,1-0.1c0.1,0,0.2-0.1,0.3-0.4l0.1-0.5c0.1-0.1,0.3-0.1,0.3,0c0,0.3,0,0.8,0,1.2
		c0,0.4,0,0.9,0,1.2c0,0.1-0.3,0.1-0.3,0l-0.1-0.5c0-0.2-0.1-0.4-0.4-0.5c-0.2,0-0.5-0.1-0.9-0.1h-0.7c-0.4,0-0.4,0-0.4,0.3v1.7
		c0,0.6,0,1,0.2,1.2c0.1,0.1,0.4,0.3,1.5,0.3c0.9,0,1.3,0,1.5-0.2c0.2-0.1,0.5-0.5,0.9-1.2c0.1-0.1,0.3,0,0.3,0.1
		c-0.1,0.4-0.4,1.3-0.5,1.7c-1.1,0-2.1,0-3.2,0h-1.1c-0.5,0-0.9,0-1.6,0c-0.1,0-0.1-0.2,0-0.3l0.4,0c0.7-0.1,0.7-0.2,0.7-1.5V59.6z"
		/>
	<path d="M247.2,61.8c-0.2-0.3-0.4-0.5-0.7-0.5l-0.2,0c-0.1-0.1-0.1-0.3,0-0.3c0.5,0,0.7,0,1,0c0.3,0,0.6,0,1,0c0.1,0,0.1,0.2,0,0.3
		l-0.2,0c-0.3,0.1-0.3,0.1-0.1,0.4l0.6,0.8c0,0.1,0.1,0.2,0.2,0.2c0,0,0.4-0.6,0.7-1c0.2-0.3,0.2-0.4-0.1-0.4l-0.1,0
		c-0.1-0.1,0-0.3,0-0.3c0.3,0,0.6,0,0.9,0c0.3,0,0.6,0,0.9,0c0.1,0,0.1,0.2,0,0.3l-0.2,0c-0.3,0.1-0.5,0.1-0.6,0.2
		c-0.2,0.2-0.6,0.7-1.1,1.4c-0.1,0.2-0.1,0.2,0,0.4l1.1,1.6c0.3,0.4,0.5,0.5,0.8,0.6l0.2,0c0.1,0.1,0.1,0.3,0,0.3
		c-0.4,0-0.8,0-1.2,0c-0.4,0-0.8,0-1.1,0c-0.1,0-0.1-0.2,0-0.3l0.3,0c0.3,0,0.4-0.1,0.2-0.4l-0.6-0.9c-0.1-0.2-0.2-0.3-0.3-0.3
		c0,0-0.1,0.2-0.2,0.3l-0.5,0.8c-0.2,0.4-0.3,0.5,0,0.5l0.2,0c0.1,0.1,0.1,0.3,0,0.3c-0.3,0-0.6,0-0.9,0c-0.3,0-0.6,0-0.9,0
		c-0.1,0-0.1-0.3,0-0.3l0.3,0c0.2,0,0.4-0.1,0.6-0.4c0.3-0.3,0.8-1.1,1.1-1.4c0.1-0.1,0.1-0.2,0-0.3L247.2,61.8z"/>
	<path d="M255.6,61.1c0.1,0.1,0.2,0.3,0.2,0.5c0,0.2-0.1,0.4-0.3,0.4c-0.1,0-0.1,0-0.2-0.1c-0.3-0.3-0.7-0.6-1.2-0.6
		c-0.8,0-1.7,0.7-1.7,1.9c0,0.9,0.6,2.1,1.9,2.1c0.7,0,1.1-0.3,1.3-0.7c0.1,0,0.2,0.1,0.2,0.2c-0.4,0.9-1.3,1.2-2,1.2
		c-0.6,0-1.2-0.2-1.6-0.6c-0.4-0.4-0.7-1-0.7-1.8c0-1.3,0.9-2.7,2.9-2.7C254.8,60.9,255.3,60.9,255.6,61.1z"/>
	<path d="M257.1,59c0-0.7,0-0.8-0.4-1l-0.1-0.1c-0.1,0-0.1-0.2,0-0.2c0.3-0.1,0.9-0.3,1.3-0.5c0,0,0.1,0,0.1,0.1c0,0.4,0,1,0,1.5
		v2.5c0,0.1,0,0.2,0,0.2c0.4-0.3,1-0.6,1.6-0.6c1.1,0,1.5,0.7,1.5,1.5v2c0,0.9,0,1,0.5,1l0.3,0c0.1,0.1,0.1,0.3,0,0.3
		c-0.4,0-0.8,0-1.2,0c-0.4,0-0.8,0-1.1,0c-0.1,0-0.1-0.2,0-0.3l0.2,0c0.4-0.1,0.5-0.2,0.5-1v-1.7c0-0.8-0.4-1.3-1.1-1.3
		c-0.4,0-0.7,0.1-0.9,0.3S258,62,258,62.4v2c0,0.9,0,1,0.5,1l0.3,0c0.1,0,0.1,0.3,0,0.3c-0.4,0-0.7,0-1.1,0c-0.4,0-0.8,0-1.2,0
		c-0.1,0-0.1-0.2,0-0.3l0.3,0c0.4,0,0.5-0.2,0.5-1V59z"/>
	<path d="M265,63.3c0.2-0.1,0.2-0.2,0.2-0.3l0-0.6c0-0.4-0.1-1-0.9-1c-0.3,0-0.7,0.2-0.8,0.5c0,0.2,0,0.3-0.1,0.4
		c-0.2,0.1-0.5,0.2-0.7,0.2c-0.1,0-0.2-0.1-0.2-0.2c0-0.6,1.4-1.5,2.2-1.5c0.9,0,1.3,0.5,1.2,1.4l-0.1,2.1c0,0.6,0.1,1,0.6,1
		c0.1,0,0.2,0,0.3-0.1c0.1,0,0.1-0.1,0.2-0.1c0,0,0.1,0.1,0.1,0.2c0,0.1-0.4,0.5-1,0.5c-0.3,0-0.6-0.1-0.8-0.4
		c0-0.1-0.1-0.2-0.2-0.2c-0.1,0-0.2,0.1-0.5,0.2c-0.3,0.1-0.5,0.3-0.9,0.3c-0.3,0-0.6-0.1-0.8-0.3c-0.2-0.2-0.4-0.5-0.4-0.8
		c0-0.5,0.2-0.7,1-1L265,63.3z M264.3,65.4c0.2,0,0.6-0.2,0.7-0.3c0.1-0.1,0.1-0.3,0.2-0.6l0-0.7c0-0.1,0-0.2-0.1-0.2
		c-0.1,0-0.3,0-0.5,0.1c-0.7,0.2-1.1,0.4-1.1,0.9C263.5,64.9,263.7,65.4,264.3,65.4z"/>
	<path d="M268.2,62.3c0-0.5,0-0.5-0.3-0.7l-0.1-0.1c0,0,0-0.2,0-0.2c0.3-0.1,1-0.4,1.2-0.6c0,0,0.1,0,0.1,0.1c0,0.3,0,0.5,0,0.6
		c0,0.1,0,0.1,0.1,0.1c0.5-0.3,1.1-0.6,1.7-0.6c1,0,1.4,0.7,1.4,1.5v2.1c0,0.9,0,1,0.5,1l0.3,0c0.1,0.1,0.1,0.3,0,0.3
		c-0.4,0-0.7,0-1.1,0c-0.4,0-0.8,0-1.1,0c-0.1,0-0.1-0.2,0-0.3l0.2,0c0.4-0.1,0.5-0.2,0.5-1v-1.8c0-0.7-0.3-1.2-1.1-1.2
		c-0.5,0-0.9,0.2-1,0.4c-0.2,0.2-0.2,0.4-0.2,0.7v1.8c0,0.9,0,1,0.5,1l0.2,0c0.1,0.1,0.1,0.3,0,0.3c-0.3,0-0.7,0-1.1,0
		c-0.4,0-0.8,0-1.1,0c-0.1,0-0.1-0.2,0-0.3l0.3,0c0.4-0.1,0.5-0.2,0.5-1V62.3z"/>
	<path d="M278.7,61.3c0.1,0.1,0.1,0.5-0.1,0.5h-0.9c0,0.2,0,0.4,0,0.6c0,0.8-0.5,1.9-2,1.9c-0.2,0-0.4,0-0.5,0
		c-0.1,0.1-0.5,0.3-0.5,0.7c0,0.3,0.3,0.5,0.8,0.5c0.4,0,0.9,0,1.4,0c0.7,0,1.7,0.1,1.7,1.3c0,1.3-1.4,2.3-3,2.3c-1.5,0-2-0.8-2-1.4
		c0-0.2,0-0.3,0.1-0.4c0.2-0.2,0.5-0.5,0.8-0.8c0.1-0.1,0.2-0.2,0.1-0.3c-0.5-0.1-0.9-0.5-0.9-0.9c0-0.1,0-0.1,0.2-0.2
		c0.2-0.1,0.4-0.3,0.6-0.6c0.1-0.1,0.1-0.2,0.1-0.2c-0.4-0.2-0.9-0.7-0.9-1.5c0-1,0.9-1.8,2-1.8c0.5,0,0.9,0.1,1.2,0.2
		c0.4,0.2,0.5,0.2,0.7,0.2H278.7z M276.2,66.1c-0.4,0-0.9,0-1,0.1c-0.3,0.2-0.6,0.6-0.6,1c0,0.6,0.5,1.2,1.6,1.2
		c1.1,0,1.8-0.6,1.8-1.3c0-0.7-0.5-1-1.4-1H276.2z M276.9,62.7c0-0.8-0.3-1.5-1.1-1.5c-0.6,0-1,0.5-1,1.3c0,0.9,0.5,1.4,1.1,1.4
		C276.6,64,276.9,63.4,276.9,62.7z"/>
	<path d="M280.3,62.7c-0.3,0-0.3,0-0.3,0.3c0,1.2,0.7,2.2,2,2.2c0.4,0,0.7-0.1,1.1-0.6c0.1,0,0.2,0,0.2,0.1
		c-0.4,0.8-1.3,1.1-1.9,1.1c-0.8,0-1.4-0.3-1.7-0.8c-0.4-0.5-0.5-1-0.5-1.6c0-1.5,1-2.7,2.4-2.7c1,0,1.7,0.7,1.7,1.4
		c0,0.2,0,0.3,0,0.3c0,0.1-0.2,0.1-0.7,0.1H280.3z M281,62.3c0.9,0,1.2,0,1.2-0.1c0,0,0.1-0.1,0.1-0.2c0-0.3-0.2-0.8-0.9-0.8
		c-0.7,0-1.3,0.6-1.3,1c0,0,0,0.1,0.1,0.1H281z"/>
</g>
<g>
	<g>
		<polyline class="st9" points="320.7,152.4 320.7,165.1 111.2,165.1 111.2,140.9 		"/>
		<g>
			<path d="M320.7,148.7c-0.6,1.7-1.7,3.8-2.9,5.1l2.9-1l2.9,1C322.4,152.6,321.3,150.4,320.7,148.7z"/>
		</g>
	</g>
</g>
<g class="st0">
	<path d="M126.8,277.1c0-0.7,0-0.9-0.5-1l-0.2,0c-0.1,0-0.1-0.2,0-0.2c0.8,0,1.7-0.1,2.5-0.1c0.8,0,1.5,0.1,2.2,0.3
		c1.3,0.5,2,1.6,2,2.9c0,1.3-0.6,2.4-1.7,3c-0.6,0.3-1.5,0.5-2.2,0.5c-0.6,0-1.3-0.1-1.6-0.1c-0.4,0-0.8,0-1.2,0
		c-0.1,0-0.1-0.2,0-0.2l0.2,0c0.6-0.1,0.6-0.2,0.6-1.2V277.1z M127.6,280.7c0,0.5,0,0.8,0.2,1.1c0.2,0.3,0.6,0.4,1.2,0.4
		c1.9,0,2.8-1.3,2.8-3.1c0-1.1-0.5-3-3.1-3c-0.6,0-0.9,0.1-1,0.1c-0.1,0.1-0.1,0.3-0.1,0.8V280.7z"/>
	<path d="M136,279.9c0.1,0.1,0.1,0.2,0.1,0.3c0,0.1,0,0.2-0.1,0.2l-2.3,0.2c-0.1-0.1-0.1-0.2-0.1-0.3s0-0.2,0.1-0.2L136,279.9z"/>
	<path d="M139.1,279.2c-0.5,0-0.5,0-0.5,0.3v1.4c0,1,0.1,1.2,0.6,1.2l0.3,0c0.1,0,0,0.2,0,0.2c-0.5,0-0.9,0-1.3,0
		c-0.4,0-0.8,0-1.2,0c-0.1,0-0.1-0.2,0-0.2l0.2,0c0.6-0.1,0.6-0.2,0.6-1.2v-3.6c0-1-0.1-1.2-0.6-1.3l-0.3,0c-0.1,0,0-0.2,0-0.2
		c0.5,0,0.8,0,1.3,0c0.4,0,0.7,0,1.2,0c0.1,0,0.1,0.2,0,0.2l-0.2,0c-0.6,0.1-0.6,0.2-0.6,1.3v1.1c0,0.3,0,0.3,0.5,0.3h2.9
		c0.5,0,0.5,0,0.5-0.3v-1.1c0-1,0-1.2-0.6-1.3l-0.2,0c-0.1,0,0-0.2,0-0.2c0.5,0,0.8,0,1.2,0c0.4,0,0.7,0,1.2,0c0.1,0,0.1,0.2,0,0.2
		l-0.2,0c-0.6,0.1-0.6,0.2-0.6,1.3v3.6c0,1,0,1.2,0.6,1.2l0.2,0c0.1,0,0,0.2,0,0.2c-0.5,0-0.8,0-1.2,0c-0.4,0-0.8,0-1.2,0
		c-0.1,0-0.1-0.2,0-0.2l0.2,0c0.6-0.1,0.6-0.2,0.6-1.2v-1.4c0-0.3,0-0.3-0.5-0.3H139.1z"/>
	<path d="M148.3,277.3c0-1,0-1.2-0.6-1.3l-0.2,0c-0.1,0,0-0.2,0-0.2c0.5,0,0.8,0,1.3,0c0.4,0,0.7,0,1.2,0c0.1,0,0.1,0.2,0,0.2
		l-0.2,0c-0.6,0.1-0.6,0.2-0.6,1.3v1.1c0,0.2,0,0.4,0.1,0.4c0.1,0,0.2-0.1,0.3-0.1c0.1-0.1,0.4-0.4,0.5-0.5l1.1-1.1
		c0.2-0.2,0.7-0.7,0.8-0.8c0-0.1,0.1-0.1,0.1-0.2s0-0.1-0.2-0.1l-0.3-0.1c-0.1-0.1-0.1-0.2,0-0.2c0.4,0,0.7,0,1.1,0c0.3,0,0.7,0,1,0
		c0.1,0,0.1,0.2,0,0.2c-0.3,0-0.6,0.1-0.9,0.3s-0.8,0.6-1.4,1.2l-0.9,0.8c-0.1,0.1-0.2,0.2-0.2,0.3c0,0.1,0.1,0.2,0.2,0.3
		c0.9,1.1,1.7,2,2.5,2.8c0.2,0.2,0.5,0.4,0.8,0.4l0.3,0c0.1,0,0.1,0.2,0,0.2c-0.3,0-0.6,0-1.1,0c-0.4,0-0.8,0-1.2,0
		c-0.1,0-0.1-0.2,0-0.2l0.2,0c0.1,0,0.2,0,0.2-0.1c0-0.1-0.1-0.1-0.1-0.2c-0.2-0.2-0.4-0.5-0.8-0.9l-0.8-0.9c-0.6-0.6-0.7-0.8-1-0.8
		c-0.1,0-0.2,0.1-0.2,0.5v1.3c0,1,0,1.2,0.6,1.2l0.3,0c0.1,0,0,0.2,0,0.2c-0.5,0-0.8,0-1.2,0c-0.4,0-0.7,0-1.2,0
		c-0.1,0-0.1-0.2,0-0.2l0.2,0c0.5-0.1,0.5-0.2,0.5-1.2V277.3z"/>
	<path d="M155,279.9c-0.3,0-0.3,0-0.3,0.3c0,1,0.6,1.9,1.7,1.9c0.3,0,0.6-0.1,0.9-0.5c0.1,0,0.2,0,0.2,0.1c-0.3,0.7-1,0.9-1.6,0.9
		c-0.6,0-1.2-0.3-1.4-0.7c-0.3-0.4-0.4-0.9-0.4-1.3c0-1.2,0.8-2.3,2-2.3c0.9,0,1.4,0.6,1.4,1.2c0,0.1,0,0.2,0,0.3
		c0,0.1-0.2,0.1-0.6,0.1H155z M155.7,279.6c0.7,0,1,0,1-0.1c0,0,0.1-0.1,0.1-0.2c0-0.3-0.2-0.6-0.8-0.6c-0.6,0-1.1,0.5-1.1,0.9
		c0,0,0,0,0.1,0H155.7z"/>
	<path d="M157.9,284.5c0-0.3,0.2-0.4,0.4-0.4h0.2c0.2,0,0.3-0.1,0.3-0.2c0.3-0.5,0.5-0.9,0.6-1.1c0-0.1,0.1-0.3,0.1-0.4
		c0-0.2,0-0.3-0.2-0.7l-0.8-2.1c-0.2-0.5-0.2-0.7-0.6-0.8l-0.2,0c-0.1,0,0-0.2,0-0.2c0.3,0,0.6,0,0.9,0c0.3,0,0.5,0,0.9,0
		c0.1,0,0.1,0.2,0,0.2l-0.2,0c-0.1,0-0.2,0.1-0.2,0.1c0,0.1,0.2,0.8,0.3,0.9l0.3,0.9c0.1,0.2,0.2,0.7,0.3,0.7c0,0,0.2-0.3,0.4-0.7
		l0.3-0.8c0.2-0.5,0.4-0.9,0.4-1c0-0.1-0.1-0.1-0.2-0.2l-0.3,0c-0.1,0-0.1-0.2,0-0.2c0.3,0,0.6,0,0.9,0c0.2,0,0.5,0,0.8,0
		c0.1,0,0.1,0.2,0,0.2l-0.2,0c-0.3,0.1-0.5,0.3-0.8,1.1l-0.6,1.1c-0.3,0.7-1.1,2.4-1.6,3.5c-0.2,0.4-0.4,0.5-0.6,0.5
		C158.1,284.9,157.9,284.7,157.9,284.5z"/>
	<path d="M165.9,277.3c0-1,0-1.2-0.6-1.3l-0.2,0c-0.1,0,0-0.2,0-0.2c0.4,0,0.8,0,1.2,0h1.9c0.6,0,1.2,0,1.3,0
		c0.1,0.2,0.1,0.9,0.2,1.3c0,0.1-0.2,0.1-0.2,0c-0.1-0.5-0.2-0.8-0.8-0.9c-0.2,0-0.5-0.1-1-0.1H167c-0.3,0-0.3,0-0.3,0.4v2
		c0,0.3,0,0.3,0.3,0.3h0.6c0.4,0,0.7,0,0.8-0.1s0.2-0.1,0.2-0.3l0.1-0.4c0-0.1,0.2-0.1,0.3,0c0,0.2,0,0.6,0,1c0,0.4,0,0.7,0,1
		c0,0.1-0.2,0.1-0.3,0l-0.1-0.4c0-0.2-0.1-0.3-0.3-0.4c-0.1,0-0.4,0-0.8,0H167c-0.3,0-0.3,0-0.3,0.3v1.4c0,0.5,0,0.9,0.2,1
		c0.1,0.1,0.3,0.2,1.2,0.2c0.8,0,1.1,0,1.3-0.2c0.2-0.1,0.4-0.4,0.7-1c0.1,0,0.2,0,0.2,0.1c-0.1,0.3-0.3,1.1-0.4,1.4
		c-0.9,0-1.8,0-2.7,0h-0.9c-0.4,0-0.8,0-1.4,0c-0.1,0-0.1-0.2,0-0.2l0.3,0c0.6,0,0.6-0.2,0.6-1.2V277.3z"/>
	<path d="M171.2,279.2c-0.1-0.2-0.3-0.4-0.6-0.4l-0.2,0c-0.1,0,0-0.2,0-0.2c0.4,0,0.6,0,0.9,0c0.2,0,0.5,0,0.8,0
		c0.1,0,0.1,0.2,0,0.2l-0.1,0c-0.3,0-0.3,0.1-0.1,0.3l0.5,0.7c0,0.1,0.1,0.1,0.1,0.2c0,0,0.4-0.5,0.6-0.8c0.2-0.3,0.1-0.3-0.1-0.4
		l-0.1,0c-0.1-0.1,0-0.2,0-0.2c0.2,0,0.5,0,0.7,0c0.2,0,0.5,0,0.7,0c0.1,0,0.1,0.2,0,0.2l-0.1,0c-0.2,0-0.4,0.1-0.5,0.2
		c-0.2,0.1-0.5,0.6-0.9,1.1c-0.1,0.2-0.1,0.2,0,0.4l0.9,1.3c0.2,0.3,0.4,0.4,0.7,0.5l0.2,0c0.1,0.1,0,0.2,0,0.2c-0.4,0-0.7,0-1,0
		c-0.4,0-0.6,0-0.9,0c-0.1,0-0.1-0.2,0-0.2l0.3,0c0.3,0,0.3-0.1,0.2-0.3l-0.5-0.7c-0.1-0.2-0.2-0.3-0.2-0.3c0,0-0.1,0.1-0.2,0.2
		l-0.4,0.7c-0.2,0.3-0.2,0.4,0,0.4l0.2,0c0.1,0,0.1,0.2,0,0.2c-0.2,0-0.5,0-0.7,0c-0.2,0-0.5,0-0.7,0c-0.1,0-0.1-0.2,0-0.2l0.2,0
		c0.2,0,0.3-0.1,0.5-0.3c0.2-0.2,0.7-0.9,0.9-1.2c0.1-0.1,0.1-0.1,0-0.3L171.2,279.2z"/>
	<path d="M178.2,278.5c0.1,0.1,0.1,0.2,0.1,0.4c0,0.2-0.1,0.4-0.2,0.4c-0.1,0-0.1,0-0.1-0.1c-0.2-0.3-0.6-0.5-1-0.5
		c-0.7,0-1.4,0.5-1.4,1.6c0,0.8,0.5,1.7,1.6,1.7c0.6,0,0.9-0.3,1.1-0.6c0.1,0,0.2,0,0.2,0.1c-0.3,0.7-1.1,1-1.7,1
		c-0.5,0-1-0.2-1.4-0.5s-0.6-0.8-0.6-1.5c0-1.1,0.8-2.2,2.4-2.2C177.6,278.3,178,278.4,178.2,278.5z"/>
	<path d="M179.4,276.8c0-0.6,0-0.6-0.3-0.8l-0.1-0.1c0,0,0-0.2,0-0.2c0.2-0.1,0.7-0.2,1.1-0.4c0,0,0.1,0,0.1,0.1c0,0.3,0,0.8,0,1.2
		v2.1c0,0.1,0,0.2,0,0.2c0.4-0.3,0.8-0.5,1.3-0.5c0.9,0,1.3,0.6,1.3,1.3v1.7c0,0.7,0,0.8,0.4,0.9l0.3,0c0.1,0,0,0.2,0,0.2
		c-0.4,0-0.6,0-1,0c-0.4,0-0.7,0-0.9,0c-0.1,0-0.1-0.2,0-0.2l0.2,0c0.4-0.1,0.4-0.1,0.4-0.9v-1.4c0-0.6-0.3-1.1-0.9-1.1
		c-0.3,0-0.6,0.1-0.8,0.3c-0.2,0.2-0.2,0.2-0.2,0.5v1.7c0,0.7,0,0.8,0.4,0.9l0.2,0c0.1,0,0,0.2,0,0.2c-0.3,0-0.6,0-0.9,0
		c-0.4,0-0.7,0-1,0c-0.1,0-0.1-0.2,0-0.2l0.2,0c0.4,0,0.4-0.1,0.4-0.9V276.8z"/>
	<path d="M186.1,280.3c0.1,0,0.2-0.1,0.2-0.3l0-0.5c0-0.4-0.1-0.9-0.7-0.9c-0.3,0-0.6,0.1-0.6,0.4c0,0.2,0,0.3-0.1,0.3
		c-0.1,0.1-0.4,0.2-0.6,0.2c-0.1,0-0.1,0-0.1-0.1c0-0.5,1.1-1.2,1.9-1.2c0.7,0,1.1,0.4,1,1.2l-0.1,1.7c0,0.5,0.1,0.9,0.5,0.9
		c0.1,0,0.2,0,0.2-0.1c0,0,0.1-0.1,0.1-0.1c0,0,0.1,0.1,0.1,0.1c0,0-0.3,0.4-0.8,0.4c-0.2,0-0.5-0.1-0.6-0.3c0-0.1-0.1-0.1-0.2-0.1
		c-0.1,0-0.2,0.1-0.4,0.2c-0.2,0.1-0.4,0.2-0.7,0.2c-0.3,0-0.5-0.1-0.7-0.2c-0.2-0.2-0.3-0.4-0.3-0.7c0-0.4,0.2-0.6,0.8-0.8
		L186.1,280.3z M185.5,282.1c0.2,0,0.5-0.2,0.6-0.2c0.1-0.1,0.1-0.3,0.1-0.5l0-0.6c0-0.1,0-0.1-0.1-0.1s-0.2,0-0.4,0.1
		c-0.6,0.2-0.9,0.4-0.9,0.7C184.8,281.7,185,282.1,185.5,282.1z"/>
	<path d="M188.7,279.5c0-0.4,0-0.4-0.3-0.6l-0.1-0.1c0,0,0-0.2,0-0.2c0.2-0.1,0.8-0.3,1-0.5c0,0,0.1,0,0.1,0.1c0,0.2,0,0.4,0,0.5
		c0,0.1,0,0.1,0.1,0.1c0.4-0.3,0.9-0.5,1.4-0.5c0.8,0,1.2,0.6,1.2,1.2v1.7c0,0.7,0,0.8,0.4,0.9l0.2,0c0.1,0,0.1,0.2,0,0.2
		c-0.3,0-0.6,0-0.9,0c-0.4,0-0.7,0-0.9,0c-0.1,0-0.1-0.2,0-0.2l0.2,0c0.4-0.1,0.4-0.1,0.4-0.9v-1.5c0-0.6-0.3-1-0.9-1
		c-0.4,0-0.7,0.2-0.8,0.3c-0.1,0.2-0.1,0.3-0.1,0.6v1.5c0,0.7,0,0.8,0.4,0.9l0.2,0c0.1,0,0,0.2,0,0.2c-0.3,0-0.6,0-0.9,0
		c-0.4,0-0.7,0-0.9,0c-0.1,0-0.1-0.2,0-0.2l0.2,0c0.4,0,0.4-0.1,0.4-0.9V279.5z"/>
	<path d="M197.5,278.7c0.1,0,0.1,0.4-0.1,0.4h-0.7c0,0.2,0,0.3,0,0.5c0,0.7-0.4,1.6-1.7,1.6c-0.2,0-0.3,0-0.4,0
		c-0.1,0.1-0.4,0.3-0.4,0.5c0,0.2,0.2,0.4,0.7,0.4c0.3,0,0.7,0,1.2,0c0.6,0,1.4,0.1,1.4,1.1c0,1.1-1.2,1.9-2.5,1.9
		c-1.2,0-1.7-0.7-1.7-1.2c0-0.2,0-0.3,0.1-0.4c0.2-0.2,0.4-0.4,0.7-0.7c0.1-0.1,0.2-0.2,0.1-0.2c-0.4-0.1-0.7-0.4-0.7-0.8
		c0,0,0-0.1,0.1-0.2c0.2-0.1,0.4-0.3,0.5-0.5c0-0.1,0.1-0.1,0.1-0.2c-0.3-0.2-0.7-0.6-0.7-1.2c0-0.9,0.7-1.5,1.6-1.5
		c0.4,0,0.7,0.1,1,0.2c0.3,0.1,0.4,0.2,0.6,0.2H197.5z M195.4,282.7c-0.3,0-0.7,0-0.9,0.1c-0.2,0.2-0.5,0.5-0.5,0.8
		c0,0.5,0.4,1,1.3,1c0.9,0,1.5-0.5,1.5-1.1c0-0.6-0.4-0.9-1.1-0.9H195.4z M196,279.9c0-0.7-0.3-1.2-0.9-1.2c-0.5,0-0.8,0.4-0.8,1.1
		c0,0.7,0.4,1.2,0.9,1.2C195.7,280.9,196,280.5,196,279.9z"/>
	<path d="M198.8,279.9c-0.3,0-0.3,0-0.3,0.3c0,1,0.6,1.9,1.7,1.9c0.3,0,0.6-0.1,0.9-0.5c0.1,0,0.2,0,0.2,0.1c-0.3,0.7-1,0.9-1.6,0.9
		c-0.6,0-1.2-0.3-1.4-0.7c-0.3-0.4-0.4-0.9-0.4-1.3c0-1.2,0.8-2.3,2-2.3c0.9,0,1.4,0.6,1.4,1.2c0,0.1,0,0.2,0,0.3
		c0,0.1-0.2,0.1-0.6,0.1H198.8z M199.4,279.6c0.7,0,1,0,1-0.1c0,0,0.1-0.1,0.1-0.2c0-0.3-0.2-0.6-0.8-0.6c-0.6,0-1.1,0.5-1.1,0.9
		c0,0,0,0,0.1,0H199.4z"/>
</g>
<g class="st0">
	<path d="M231.6,277.1c0-0.7,0-0.9-0.5-1l-0.2,0c-0.1,0-0.1-0.2,0-0.2c0.8,0,1.7-0.1,2.5-0.1c0.8,0,1.5,0.1,2.2,0.3
		c1.3,0.5,2,1.6,2,2.9c0,1.3-0.6,2.4-1.7,3c-0.6,0.3-1.5,0.5-2.2,0.5c-0.6,0-1.3-0.1-1.6-0.1c-0.4,0-0.8,0-1.2,0
		c-0.1,0-0.1-0.2,0-0.2l0.2,0c0.6-0.1,0.6-0.2,0.6-1.2V277.1z M232.4,280.7c0,0.5,0,0.8,0.2,1.1c0.2,0.3,0.6,0.4,1.2,0.4
		c1.9,0,2.8-1.3,2.8-3.1c0-1.1-0.5-3-3.1-3c-0.6,0-0.9,0.1-1,0.1c-0.1,0.1-0.1,0.3-0.1,0.8V280.7z"/>
	<path d="M240.8,279.9c0.1,0.1,0.2,0.2,0.2,0.3c0,0.1,0,0.2-0.1,0.2l-2.3,0.2c-0.1-0.1-0.1-0.2-0.1-0.3s0-0.2,0.1-0.2L240.8,279.9z"
		/>
	<path d="M243.9,279.2c-0.5,0-0.5,0-0.5,0.3v1.4c0,1,0.1,1.2,0.6,1.2l0.3,0c0.1,0,0,0.2,0,0.2c-0.5,0-0.9,0-1.3,0
		c-0.4,0-0.8,0-1.2,0c-0.1,0-0.1-0.2,0-0.2l0.2,0c0.6-0.1,0.6-0.2,0.6-1.2v-3.6c0-1-0.1-1.2-0.6-1.3l-0.3,0c-0.1,0,0-0.2,0-0.2
		c0.5,0,0.8,0,1.3,0c0.4,0,0.7,0,1.2,0c0.1,0,0.1,0.2,0,0.2l-0.2,0c-0.6,0.1-0.6,0.2-0.6,1.3v1.1c0,0.3,0,0.3,0.5,0.3h2.9
		c0.5,0,0.5,0,0.5-0.3v-1.1c0-1,0-1.2-0.6-1.3l-0.2,0c-0.1,0,0-0.2,0-0.2c0.5,0,0.8,0,1.2,0c0.4,0,0.7,0,1.2,0c0.1,0,0.1,0.2,0,0.2
		l-0.2,0c-0.6,0.1-0.6,0.2-0.6,1.3v3.6c0,1,0,1.2,0.6,1.2l0.2,0c0.1,0,0,0.2,0,0.2c-0.5,0-0.8,0-1.2,0c-0.4,0-0.8,0-1.2,0
		c-0.1,0-0.1-0.2,0-0.2l0.2,0c0.6-0.1,0.6-0.2,0.6-1.2v-1.4c0-0.3,0-0.3-0.5-0.3H243.9z"/>
	<path d="M253.1,277.3c0-1,0-1.2-0.6-1.3l-0.2,0c-0.1,0,0-0.2,0-0.2c0.5,0,0.8,0,1.3,0c0.4,0,0.7,0,1.2,0c0.1,0,0.1,0.2,0,0.2
		l-0.2,0c-0.6,0.1-0.6,0.2-0.6,1.3v1.1c0,0.2,0,0.4,0.1,0.4c0.1,0,0.2-0.1,0.3-0.1c0.1-0.1,0.4-0.4,0.5-0.5l1.1-1.1
		c0.2-0.2,0.7-0.7,0.8-0.8c0-0.1,0.1-0.1,0.1-0.2s0-0.1-0.2-0.1l-0.3-0.1c-0.1-0.1-0.1-0.2,0-0.2c0.3,0,0.7,0,1.1,0c0.3,0,0.7,0,1,0
		c0.1,0,0.1,0.2,0,0.2c-0.3,0-0.6,0.1-0.9,0.3c-0.3,0.2-0.8,0.6-1.4,1.2l-0.9,0.8c-0.1,0.1-0.2,0.2-0.2,0.3c0,0.1,0.1,0.2,0.2,0.3
		c0.9,1.1,1.7,2,2.5,2.8c0.2,0.2,0.5,0.4,0.8,0.4l0.3,0c0.1,0,0.1,0.2,0,0.2c-0.3,0-0.6,0-1.1,0c-0.4,0-0.8,0-1.2,0
		c-0.1,0-0.1-0.2,0-0.2l0.2,0c0.1,0,0.2,0,0.2-0.1c0-0.1-0.1-0.1-0.1-0.2c-0.2-0.2-0.5-0.5-0.8-0.9l-0.8-0.9c-0.6-0.6-0.7-0.8-1-0.8
		c-0.2,0-0.2,0.1-0.2,0.5v1.3c0,1,0,1.2,0.6,1.2l0.3,0c0.1,0,0,0.2,0,0.2c-0.5,0-0.8,0-1.2,0c-0.4,0-0.8,0-1.2,0
		c-0.1,0-0.1-0.2,0-0.2l0.2,0c0.5-0.1,0.5-0.2,0.5-1.2V277.3z"/>
	<path d="M259.9,279.9c-0.3,0-0.3,0-0.3,0.3c0,1,0.6,1.9,1.7,1.9c0.3,0,0.6-0.1,0.9-0.5c0.1,0,0.2,0,0.2,0.1c-0.3,0.7-1,0.9-1.6,0.9
		c-0.6,0-1.2-0.3-1.4-0.7c-0.3-0.4-0.4-0.9-0.4-1.3c0-1.2,0.8-2.3,2-2.3c0.9,0,1.4,0.6,1.4,1.2c0,0.1,0,0.2,0,0.3
		c0,0.1-0.2,0.1-0.6,0.1H259.9z M260.5,279.6c0.7,0,1,0,1-0.1c0,0,0.1-0.1,0.1-0.2c0-0.3-0.2-0.6-0.8-0.6c-0.6,0-1.1,0.5-1.1,0.9
		c0,0,0,0,0.1,0H260.5z"/>
	<path d="M262.8,284.5c0-0.3,0.2-0.4,0.4-0.4h0.2c0.2,0,0.3-0.1,0.3-0.2c0.3-0.5,0.5-0.9,0.6-1.1c0-0.1,0.1-0.3,0.1-0.4
		c0-0.2,0-0.3-0.2-0.7l-0.8-2.1c-0.2-0.5-0.2-0.7-0.6-0.8l-0.2,0c-0.1,0,0-0.2,0-0.2c0.3,0,0.6,0,0.9,0c0.3,0,0.5,0,0.9,0
		c0.1,0,0.1,0.2,0,0.2l-0.2,0c-0.1,0-0.2,0.1-0.2,0.1c0,0.1,0.2,0.8,0.3,0.9l0.3,0.9c0.1,0.2,0.2,0.7,0.3,0.7c0,0,0.2-0.3,0.4-0.7
		l0.3-0.8c0.2-0.5,0.3-0.9,0.3-1c0-0.1-0.1-0.1-0.2-0.2l-0.3,0c-0.1,0-0.1-0.2,0-0.2c0.3,0,0.6,0,0.9,0c0.2,0,0.5,0,0.8,0
		c0.1,0,0.1,0.2,0,0.2l-0.2,0c-0.3,0.1-0.5,0.3-0.8,1.1l-0.6,1.1c-0.3,0.7-1.1,2.4-1.6,3.5c-0.2,0.4-0.4,0.5-0.6,0.5
		C262.9,284.9,262.8,284.7,262.8,284.5z"/>
	<path d="M270.7,277.3c0-1,0-1.2-0.6-1.3l-0.2,0c-0.1,0,0-0.2,0-0.2c0.4,0,0.8,0,1.2,0h1.9c0.6,0,1.2,0,1.3,0
		c0.1,0.2,0.1,0.9,0.2,1.3c0,0.1-0.2,0.1-0.2,0c-0.2-0.5-0.2-0.8-0.8-0.9c-0.2,0-0.5-0.1-1-0.1h-0.7c-0.3,0-0.3,0-0.3,0.4v2
		c0,0.3,0,0.3,0.3,0.3h0.6c0.4,0,0.7,0,0.8-0.1s0.2-0.1,0.2-0.3l0.1-0.4c0-0.1,0.2-0.1,0.3,0c0,0.2,0,0.6,0,1c0,0.4,0,0.7,0,1
		c0,0.1-0.2,0.1-0.3,0l-0.1-0.4c0-0.2-0.1-0.3-0.3-0.4c-0.1,0-0.4,0-0.8,0h-0.6c-0.3,0-0.3,0-0.3,0.3v1.4c0,0.5,0,0.9,0.2,1
		c0.1,0.1,0.3,0.2,1.2,0.2c0.8,0,1.1,0,1.3-0.2c0.2-0.1,0.5-0.4,0.7-1c0.1,0,0.2,0,0.2,0.1c-0.1,0.3-0.3,1.1-0.5,1.4
		c-0.9,0-1.8,0-2.7,0h-0.9c-0.4,0-0.8,0-1.4,0c-0.1,0-0.1-0.2,0-0.2l0.3,0c0.6,0,0.6-0.2,0.6-1.2V277.3z"/>
	<path d="M276,279.2c-0.1-0.2-0.3-0.4-0.6-0.4l-0.2,0c-0.1,0,0-0.2,0-0.2c0.4,0,0.6,0,0.9,0c0.2,0,0.5,0,0.8,0c0.1,0,0.1,0.2,0,0.2
		l-0.1,0c-0.3,0-0.3,0.1-0.1,0.3l0.5,0.7c0,0.1,0.1,0.1,0.1,0.2c0,0,0.4-0.5,0.6-0.8c0.2-0.3,0.1-0.3-0.1-0.4l-0.1,0
		c-0.1-0.1,0-0.2,0-0.2c0.2,0,0.5,0,0.7,0c0.2,0,0.5,0,0.7,0c0.1,0,0.1,0.2,0,0.2l-0.2,0c-0.2,0-0.4,0.1-0.5,0.2
		c-0.2,0.1-0.5,0.6-0.9,1.1c-0.1,0.2-0.1,0.2,0,0.4l0.9,1.3c0.2,0.3,0.4,0.4,0.7,0.5l0.2,0c0.1,0.1,0,0.2,0,0.2c-0.4,0-0.7,0-1,0
		c-0.4,0-0.6,0-0.9,0c-0.1,0-0.1-0.2,0-0.2l0.3,0c0.3,0,0.3-0.1,0.2-0.3l-0.5-0.7c-0.1-0.2-0.2-0.3-0.2-0.3c0,0-0.1,0.1-0.2,0.2
		l-0.4,0.7c-0.2,0.3-0.2,0.4,0,0.4l0.2,0c0.1,0,0,0.2,0,0.2c-0.2,0-0.5,0-0.7,0c-0.2,0-0.5,0-0.7,0c-0.1,0-0.1-0.2,0-0.2l0.2,0
		c0.2,0,0.3-0.1,0.5-0.3c0.2-0.2,0.7-0.9,0.9-1.2c0.1-0.1,0.1-0.1,0-0.3L276,279.2z"/>
	<path d="M283,278.5c0.1,0.1,0.1,0.2,0.1,0.4c0,0.2-0.1,0.4-0.2,0.4c0,0-0.1,0-0.1-0.1c-0.2-0.3-0.6-0.5-1-0.5
		c-0.7,0-1.4,0.5-1.4,1.6c0,0.8,0.5,1.7,1.6,1.7c0.6,0,0.9-0.3,1.1-0.6c0.1,0,0.2,0,0.2,0.1c-0.3,0.7-1.1,1-1.7,1
		c-0.5,0-1-0.2-1.4-0.5s-0.6-0.8-0.6-1.5c0-1.1,0.8-2.2,2.4-2.2C282.4,278.3,282.8,278.4,283,278.5z"/>
	<path d="M284.3,276.8c0-0.6,0-0.6-0.3-0.8l-0.1-0.1c0,0,0-0.2,0-0.2c0.2-0.1,0.7-0.2,1.1-0.4c0,0,0.1,0,0.1,0.1c0,0.3,0,0.8,0,1.2
		v2.1c0,0.1,0,0.2,0,0.2c0.4-0.3,0.8-0.5,1.3-0.5c1,0,1.3,0.6,1.3,1.3v1.7c0,0.7,0,0.8,0.4,0.9l0.3,0c0.1,0,0,0.2,0,0.2
		c-0.4,0-0.6,0-1,0c-0.4,0-0.7,0-0.9,0c-0.1,0-0.1-0.2,0-0.2l0.2,0c0.4-0.1,0.4-0.1,0.4-0.9v-1.4c0-0.6-0.3-1.1-0.9-1.1
		c-0.3,0-0.6,0.1-0.8,0.3c-0.2,0.2-0.2,0.2-0.2,0.5v1.7c0,0.7,0,0.8,0.4,0.9l0.2,0c0.1,0,0,0.2,0,0.2c-0.3,0-0.6,0-0.9,0
		c-0.4,0-0.7,0-1,0c-0.1,0-0.1-0.2,0-0.2l0.2,0c0.4,0,0.4-0.1,0.4-0.9V276.8z"/>
	<path d="M290.9,280.3c0.1,0,0.2-0.1,0.2-0.3l0-0.5c0-0.4-0.1-0.9-0.7-0.9c-0.3,0-0.6,0.1-0.6,0.4c0,0.2,0,0.3-0.1,0.3
		c-0.2,0.1-0.4,0.2-0.6,0.2c-0.1,0-0.1,0-0.1-0.1c0-0.5,1.1-1.2,1.9-1.2c0.7,0,1.1,0.4,1,1.2l-0.1,1.7c0,0.5,0.1,0.9,0.5,0.9
		c0.1,0,0.2,0,0.2-0.1c0,0,0.1-0.1,0.1-0.1c0,0,0.1,0.1,0.1,0.1c0,0-0.3,0.4-0.8,0.4c-0.2,0-0.5-0.1-0.6-0.3c0-0.1-0.1-0.1-0.2-0.1
		c-0.1,0-0.2,0.1-0.4,0.2c-0.2,0.1-0.4,0.2-0.7,0.2c-0.3,0-0.5-0.1-0.7-0.2c-0.2-0.2-0.3-0.4-0.3-0.7c0-0.4,0.2-0.6,0.8-0.8
		L290.9,280.3z M290.3,282.1c0.2,0,0.5-0.2,0.6-0.2c0.1-0.1,0.1-0.3,0.1-0.5l0-0.6c0-0.1,0-0.1-0.1-0.1c-0.1,0-0.2,0-0.4,0.1
		c-0.6,0.2-0.9,0.4-0.9,0.7C289.6,281.7,289.8,282.1,290.3,282.1z"/>
	<path d="M293.5,279.5c0-0.4,0-0.4-0.3-0.6l-0.1-0.1c0,0,0-0.2,0-0.2c0.2-0.1,0.8-0.3,1-0.5c0,0,0.1,0,0.1,0.1c0,0.2,0,0.4,0,0.5
		c0,0.1,0,0.1,0.1,0.1c0.4-0.3,0.9-0.5,1.4-0.5c0.8,0,1.2,0.6,1.2,1.2v1.7c0,0.7,0,0.8,0.4,0.9l0.2,0c0.1,0,0.1,0.2,0,0.2
		c-0.3,0-0.6,0-0.9,0c-0.4,0-0.7,0-0.9,0c-0.1,0-0.1-0.2,0-0.2l0.2,0c0.4-0.1,0.4-0.1,0.4-0.9v-1.5c0-0.6-0.3-1-0.9-1
		c-0.4,0-0.7,0.2-0.8,0.3c-0.1,0.2-0.1,0.3-0.1,0.6v1.5c0,0.7,0,0.8,0.4,0.9l0.2,0c0.1,0,0,0.2,0,0.2c-0.3,0-0.6,0-0.9,0
		c-0.4,0-0.7,0-0.9,0c-0.1,0-0.1-0.2,0-0.2l0.2,0c0.4,0,0.4-0.1,0.4-0.9V279.5z"/>
	<path d="M302.3,278.7c0.1,0,0.1,0.4-0.1,0.4h-0.7c0,0.2,0,0.3,0,0.5c0,0.7-0.4,1.6-1.7,1.6c-0.2,0-0.3,0-0.4,0
		c-0.1,0.1-0.4,0.3-0.4,0.5c0,0.2,0.2,0.4,0.7,0.4c0.3,0,0.7,0,1.2,0c0.6,0,1.4,0.1,1.4,1.1c0,1.1-1.2,1.9-2.5,1.9
		c-1.2,0-1.7-0.7-1.7-1.2c0-0.2,0-0.3,0.1-0.4c0.2-0.2,0.4-0.4,0.7-0.7c0.1-0.1,0.2-0.2,0.1-0.2c-0.4-0.1-0.7-0.4-0.7-0.8
		c0,0,0-0.1,0.1-0.2c0.2-0.1,0.4-0.3,0.5-0.5c0-0.1,0.1-0.1,0.1-0.2c-0.3-0.2-0.8-0.6-0.8-1.2c0-0.9,0.7-1.5,1.6-1.5
		c0.4,0,0.7,0.1,1,0.2c0.3,0.1,0.4,0.2,0.6,0.2H302.3z M300.2,282.7c-0.3,0-0.7,0-0.9,0.1c-0.2,0.2-0.5,0.5-0.5,0.8
		c0,0.5,0.4,1,1.3,1c0.9,0,1.5-0.5,1.5-1.1c0-0.6-0.4-0.9-1.1-0.9H300.2z M300.8,279.9c0-0.7-0.3-1.2-0.9-1.2
		c-0.5,0-0.8,0.4-0.8,1.1c0,0.7,0.4,1.2,0.9,1.2C300.5,280.9,300.8,280.5,300.8,279.9z"/>
	<path d="M303.6,279.9c-0.3,0-0.3,0-0.3,0.3c0,1,0.6,1.9,1.7,1.9c0.3,0,0.6-0.1,0.9-0.5c0.1,0,0.2,0,0.2,0.1c-0.3,0.7-1,0.9-1.6,0.9
		c-0.6,0-1.2-0.3-1.4-0.7c-0.3-0.4-0.4-0.9-0.4-1.3c0-1.2,0.8-2.3,2-2.3c0.9,0,1.4,0.6,1.4,1.2c0,0.1,0,0.2,0,0.3
		c0,0.1-0.2,0.1-0.6,0.1H303.6z M304.2,279.6c0.7,0,1,0,1-0.1c0,0,0.1-0.1,0.1-0.2c0-0.3-0.2-0.6-0.8-0.6c-0.6,0-1.1,0.5-1.1,0.9
		c0,0,0,0,0.1,0H304.2z"/>
</g>
<g>
	<g>
		<polyline class="st10" points="229.2,395 324,395 324,372 		"/>
		<g>
			<path d="M324,368c0.7,1.9,1.9,4.2,3.1,5.6l-3.1-1.1l-3.1,1.1C322.1,372.2,323.3,369.9,324,368z"/>
		</g>
	</g>
</g>
<g>
	<g>
		<polyline class="st10" points="108,359 108,395 200.5,395 		"/>
		<g>
			<path d="M204.4,395c-1.9,0.7-4.2,1.9-5.6,3.1l1.1-3.1l-1.1-3.1C200.3,393.2,202.6,394.4,204.4,395z"/>
		</g>
	</g>
</g>
<g>
	<g>
		<path d="M214.3,391.3c0.4,0,0.6-0.1,0.7-0.3c0.1-0.1,0.3,0,0.3,0c-0.2,0.4-0.5,1.2-0.6,1.7c-0.1,0.1-0.3,0.1-0.4,0
			c0-0.4,0-0.7-0.1-0.9c-0.2-0.1-0.5-0.2-0.7-0.2h-0.4c-0.3,0-0.3,0-0.4,0.3l-1.4,4.4c-0.2,0.8-0.3,1,0.2,1.1h0.4
			c0.1,0.1,0,0.3-0.1,0.4c-0.6,0-1.1,0-1.6,0s-0.9,0-1.5,0c-0.1-0.1-0.1-0.3,0-0.4h0.4c0.4-0.1,0.5-0.1,0.8-1.1l1.4-4.4
			c0.1-0.2,0.1-0.3-0.3-0.3h-0.4c-0.3,0-0.6,0-0.8,0.2s-0.4,0.4-0.7,0.8c-0.1,0.1-0.4,0-0.4-0.1c0.3-0.6,0.6-1.2,0.7-1.7
			c0.1-0.1,0.2-0.1,0.3,0c0,0.2,0.1,0.3,0.8,0.3h3.8V391.3z"/>
		<path d="M218.3,394.4c0,0.6-0.4,1-0.7,1c-0.2,0-0.2-0.2-0.3-0.5c0-0.2-0.1-0.2-0.2-0.2c-0.2,0-0.4,0.4-0.7,0.9
			c-0.4,0.8-0.7,1.6-1,2.3c-0.1,0.1-0.3,0.2-0.5,0.2s-0.6-0.1-0.5-0.4c0.3-0.9,0.7-2,0.9-2.8c0.1-0.2,0.1-0.3,0-0.3
			c-0.2,0-0.5,0.3-0.8,0.6c-0.1,0-0.2-0.1-0.2-0.2c0.2-0.4,0.8-1.1,1.6-1.1c0.6,0,0.6,0.5,0.4,1l-0.4,1.1h0.1c0.3-0.6,0.6-1,0.8-1.3
			c0.3-0.4,0.6-0.7,1-0.7C218.1,393.8,218.3,394,218.3,394.4z"/>
		<path d="M220.4,395.6c0,0.7,0,1.3-0.1,2l0,0c0.5-0.9,0.8-1.8,0.9-2.8c0-0.2,0.1-0.5,0.1-0.6c0-0.3,0.2-0.4,0.3-0.4
			c0.3,0,0.6,0.1,0.6,0.5c0,0.2-0.3,1.4-1,2.6c-0.6,1.1-1.3,2.2-1.9,2.9c-0.7,0.7-1.3,0.9-1.7,0.9s-0.8-0.2-0.8-0.7
			c0-0.4,0.3-0.6,0.6-0.6c0.2,0,0.3,0.1,0.4,0.3c0.2,0.3,0.3,0.3,0.5,0.3c0.1,0,0.2-0.1,0.4-0.3c0.2-0.2,0.3-0.5,0.4-0.9
			c0.1-0.4,0.2-1,0.1-2.1c0-1.2-0.1-2-0.4-2c-0.2,0-0.5,0.5-0.6,0.8c-0.1,0.1-0.3,0-0.3-0.1c0.2-0.5,0.7-1.6,1.5-1.6
			C220.1,393.8,220.4,394.2,220.4,395.6z"/>
		<path d="M223.9,397.2c0,0.5-0.4,0.9-0.8,0.9c-0.4,0-0.7-0.3-0.7-0.7c0-0.5,0.3-0.9,0.9-0.9C223.6,396.4,223.9,396.7,223.9,397.2z
			 M224.6,394.7c0,0.5-0.4,0.9-0.8,0.9c-0.4,0-0.7-0.3-0.7-0.7c0-0.5,0.3-0.9,0.9-0.9C224.4,394,224.6,394.3,224.6,394.7z"/>
		<path d="M147.9,402.8h0.8v1.9v1.1l0,0c0.5-0.5,1.1-1,1.8-1c1.1,0,1.7,0.7,1.7,2v3h-0.8V407c0-0.9-0.3-1.4-1.1-1.4
			c-0.6,0-1,0.3-1.5,0.9v3.4H148L147.9,402.8L147.9,402.8z"/>
		<path d="M153.8,408.7c0-1.1,1-1.6,3.5-1.8c0-0.7-0.3-1.2-1.3-1.2c-0.6,0-1.2,0.3-1.7,0.6l-0.3-0.6c0.5-0.3,1.3-0.7,2.2-0.7
			c1.3,0,2,0.8,2,2v3h-0.7l-0.1-0.7l0,0c-0.5,0.4-1.2,0.8-1.9,0.8C154.6,410,153.8,409.5,153.8,408.7z M157.3,408.7v-1.3
			c-2.1,0.2-2.7,0.6-2.7,1.2c0,0.5,0.5,0.8,1.1,0.8C156.2,409.4,156.8,409.1,157.3,408.7z"/>
		<path d="M159.7,409.3l0.4-0.5c0.6,0.4,1.2,0.7,2.1,0.7c0.8,0,1.2-0.3,1.2-0.8c0-0.4-0.2-0.6-1.5-0.9s-1.9-0.7-1.9-1.4
			c0-0.8,0.7-1.4,2-1.4c0.7,0,1.5,0.3,2,0.6l-0.4,0.5c-0.4-0.3-1-0.5-1.6-0.5c-0.8,0-1.1,0.3-1.1,0.7c0,0.4,0.4,0.6,1.4,0.8
			c1.6,0.3,2,0.8,2,1.5c0,0.8-0.8,1.4-2.2,1.4C161.1,410,160.3,409.7,159.7,409.3z"/>
		<path d="M165.9,402.8h0.8v1.9v1.1l0,0c0.5-0.5,1.1-1,1.8-1c1.1,0,1.7,0.7,1.7,2v3h-0.8V407c0-0.9-0.3-1.4-1.1-1.4
			c-0.6,0-1,0.3-1.5,0.9v3.4H166L165.9,402.8L165.9,402.8z"/>
		<path d="M173.1,407.1c0-1.9,0.9-3.5,2.2-4.5l0.4,0.4c-1.3,1.1-2,2.4-2,4.1s0.6,3,2,4.1l-0.4,0.4
			C173.9,410.6,173.1,409.1,173.1,407.1z"/>
		<path d="M177.9,405.2c0-1,0.5-1.8,1.4-2.3l0.3,0.5c-0.6,0.4-1,0.9-1,1.6c0.1,0,0.2-0.1,0.3-0.1c0.4,0,0.7,0.3,0.7,0.7
			c0,0.5-0.3,0.8-0.7,0.8C178.3,406.4,177.9,406,177.9,405.2z M180.2,405.2c0-1,0.5-1.8,1.4-2.3l0.3,0.5c-0.6,0.4-1,0.9-1,1.6
			c0.1,0,0.2-0.1,0.3-0.1c0.4,0,0.7,0.3,0.7,0.7c0,0.5-0.3,0.8-0.7,0.8C180.6,406.4,180.2,406,180.2,405.2z"/>
		<path class="st11" d="M184.1,402.8h0.8v4.8l0,0l2.6-2.6h0.9l-1.9,1.9l2.2,2.9h-0.9l-1.8-2.4l-1.1,1.1v1.3h-0.8V402.8z"/>
		<path class="st11" d="M189.7,407.5c0-1.6,1.2-2.5,2.5-2.5c1.4,0,2.2,0.9,2.2,2.3c0,0.2,0,0.4,0,0.5h-3.8c0.1,1.1,0.9,1.7,1.9,1.7
			c0.6,0,1-0.2,1.5-0.5l0.3,0.5c-0.5,0.3-1.1,0.6-1.9,0.6C190.8,410,189.7,409.1,189.7,407.5z M190.5,407.1h3.1
			c-0.1-1-0.6-1.5-1.4-1.5C191.4,405.6,190.7,406.1,190.5,407.1z"/>
		<path class="st11" d="M195.7,411.9l0.2-0.7c0.1,0,0.3,0.1,0.4,0.1c0.7,0,1.1-0.4,1.3-1l0.2-0.4l-2.3-4.9h0.8l1.2,2.7
			c0.2,0.4,0.4,0.9,0.6,1.4l0,0c0.2-0.5,0.4-1,0.5-1.4l1.1-2.7h0.8l-2.1,5.3c-0.4,1-1,1.7-2.1,1.7C196.1,412,195.8,412,195.7,411.9z
			"/>
		<path class="st11" d="M201.8,406.3h4.3v0.6h-4.3V406.3z"/>
		<path class="st11" d="M207.7,407.5c0-1.6,1.2-2.5,2.5-2.5c1.4,0,2.2,0.9,2.2,2.3c0,0.2,0,0.4,0,0.5h-3.8c0.1,1.1,0.9,1.7,1.9,1.7
			c0.6,0,1-0.2,1.5-0.5l0.3,0.5c-0.5,0.3-1.1,0.6-1.9,0.6C208.8,410,207.7,409.1,207.7,407.5z M208.5,407.1h3.1
			c-0.1-1-0.6-1.5-1.4-1.5C209.4,405.6,208.7,406.1,208.5,407.1z"/>
		<path d="M214,405.9c0.6-0.3,1-0.9,1-1.6c-0.1,0-0.2,0.1-0.3,0.1c-0.4,0-0.7-0.3-0.7-0.7c0-0.5,0.3-0.8,0.7-0.8
			c0.5,0,0.9,0.5,0.9,1.2c0,1-0.5,1.8-1.4,2.3L214,405.9z M216.3,405.9c0.6-0.3,1-0.9,1-1.6c-0.1,0-0.2,0.1-0.3,0.1
			c-0.4,0-0.7-0.3-0.7-0.7c0-0.5,0.3-0.8,0.7-0.8c0.5,0,0.9,0.5,0.9,1.2c0,1-0.5,1.8-1.4,2.3L216.3,405.9z"/>
		<path d="M221,411.5c0.8-0.4,1.2-0.9,1.3-1.7c-0.1,0-0.1,0-0.2,0c-0.4,0-0.8-0.2-0.8-0.8c0-0.5,0.4-0.8,0.8-0.8
			c0.6,0,0.9,0.5,0.9,1.3c0,1.2-0.7,2-1.8,2.4L221,411.5z"/>
		<path d="M231.9,405.2c0-1,0.5-1.8,1.4-2.3l0.3,0.5c-0.6,0.4-1,0.9-1,1.6c0.1,0,0.2-0.1,0.3-0.1c0.4,0,0.7,0.3,0.7,0.7
			c0,0.5-0.3,0.8-0.7,0.8C232.3,406.4,231.9,406,231.9,405.2z M234.2,405.2c0-1,0.5-1.8,1.4-2.3l0.3,0.5c-0.6,0.4-1,0.9-1,1.6
			c0.1,0,0.2-0.1,0.3-0.1c0.4,0,0.7,0.3,0.7,0.7c0,0.5-0.3,0.8-0.7,0.8C234.6,406.4,234.2,406,234.2,405.2z"/>
		<path d="M237.9,402.8h0.8v1.9v1.1l0,0c0.5-0.5,1.1-1,1.8-1c1.1,0,1.7,0.7,1.7,2v3h-0.8V407c0-0.9-0.3-1.4-1.1-1.4
			c-0.6,0-1,0.3-1.5,0.9v3.4H238L237.9,402.8L237.9,402.8z"/>
		<path d="M243.6,407.5c0-1.6,1.1-2.6,2.4-2.6s2.4,0.9,2.4,2.6c0,1.6-1.1,2.5-2.4,2.5S243.6,409.1,243.6,407.5z M247.5,407.5
			c0-1.1-0.6-1.9-1.5-1.9s-1.5,0.8-1.5,1.9s0.6,1.9,1.5,1.9S247.5,408.6,247.5,407.5z"/>
		<path d="M249.6,407.5c0-1.6,1.1-2.6,2.4-2.6s2.4,0.9,2.4,2.6c0,1.6-1.1,2.5-2.4,2.5S249.6,409.1,249.6,407.5z M253.5,407.5
			c0-1.1-0.6-1.9-1.5-1.9s-1.5,0.8-1.5,1.9s0.6,1.9,1.5,1.9S253.5,408.6,253.5,407.5z"/>
		<path d="M255.5,405.1h0.8l1.1,2.8c0.2,0.5,0.4,1,0.5,1.4l0,0c0.2-0.5,0.3-0.9,0.5-1.4l1.1-2.8h0.8l-2,4.9h-0.9L255.5,405.1z"/>
		<path d="M261.7,407.5c0-1.6,1.2-2.5,2.5-2.5c1.4,0,2.2,0.9,2.2,2.3c0,0.2,0,0.4,0,0.5h-3.8c0.1,1.1,0.9,1.7,1.9,1.7
			c0.6,0,1-0.2,1.5-0.5l0.3,0.5c-0.5,0.3-1.1,0.6-1.9,0.6C262.8,410,261.7,409.1,261.7,407.5z M262.5,407.1h3.1
			c-0.1-1-0.6-1.5-1.4-1.5C263.4,405.6,262.7,406.1,262.5,407.1z"/>
		<path d="M268.5,405.1h0.7l0.1,1.1l0,0c0.5-0.8,1.3-1.3,2.2-1.3c0.4,0,0.7,0,1,0.2l-0.2,0.7c-0.3-0.1-0.5-0.2-0.9-0.2
			c-0.7,0-1.4,0.4-2,1.4v2.8h-0.8v-4.7H268.5z"/>
		<path d="M274,405.9c0.6-0.3,1-0.9,1-1.6c-0.1,0-0.2,0.1-0.3,0.1c-0.4,0-0.7-0.3-0.7-0.7c0-0.5,0.3-0.8,0.7-0.8
			c0.5,0,0.9,0.5,0.9,1.2c0,1-0.5,1.8-1.4,2.3L274,405.9z M276.3,405.9c0.6-0.3,1-0.9,1-1.6c-0.1,0-0.2,0.1-0.3,0.1
			c-0.4,0-0.7-0.3-0.7-0.7c0-0.5,0.3-0.8,0.7-0.8c0.5,0,0.9,0.5,0.9,1.2c0,1-0.5,1.8-1.4,2.3L276.3,405.9z"/>
		<path d="M280.2,411.3c1.3-1.1,2-2.4,2-4.1s-0.6-3-2-4.1l0.4-0.4c1.4,1.1,2.2,2.6,2.2,4.5s-0.9,3.5-2.2,4.5L280.2,411.3z"/>
	</g>
</g>
<g>
	<line class="st12" x1="208.8" y1="371.7" x2="223.2" y2="386.1"/>
	<line class="st12" x1="223.2" y1="371.7" x2="208.8" y2="386.1"/>
</g>
<g>
	<line class="st12" x1="316.8" y1="321.6" x2="331.2" y2="336"/>
	<line class="st12" x1="331.2" y1="321.6" x2="316.8" y2="336"/>
</g>
<polyline class="st13" points="313.2,112.1 318.3,117.2 329.4,106.1 "/>
</svg>
