<?xml version="1.0" encoding="utf-8"?>
<!-- Generator: Adobe Illustrator 22.1.0, SVG Export Plug-In . SVG Version: 6.00 Build 0)  -->
<svg version="1.1" id="Layer_1" xmlns="http://www.w3.org/2000/svg" xmlns:xlink="http://www.w3.org/1999/xlink" x="0px" y="0px"
	 viewBox="0 0 216 360" style="enable-background:new 0 0 216 360;" xml:space="preserve">
<style type="text/css">
	.st0{fill:#005AC8;stroke:#153267;stroke-width:0.3841;stroke-miterlimit:10;}
	.st1{fill:#333333;stroke:#000000;stroke-width:0.3841;stroke-miterlimit:10;}
	.st2{fill:none;stroke:#000000;stroke-miterlimit:10;}
	.st3{fill:none;stroke:#000000;stroke-miterlimit:10;stroke-dasharray:4;}
	.st4{fill:#005AC8;stroke:#153267;stroke-width:0.3002;stroke-miterlimit:10;}
	.st5{fill:#FFFFFF;stroke:#000000;stroke-width:0.9908;stroke-linejoin:round;stroke-miterlimit:10;}
	.st6{fill:none;stroke:#000000;stroke-width:1.1062;stroke-linejoin:round;stroke-miterlimit:10;}
	.st7{fill:#005AC8;stroke:#153267;stroke-width:0.2265;stroke-miterlimit:10;}
	.st8{fill:#03003E;stroke:#00001E;stroke-width:0.2265;stroke-miterlimit:10;}
	.st9{fill:#333333;stroke:#000000;stroke-width:0.3041;stroke-miterlimit:10;}
	.st10{fill:#FFFFFF;stroke:#000000;stroke-width:0.9718;stroke-linejoin:round;stroke-miterlimit:10;}
</style>
<g>
	<g>
		<path d="M13.1,61.2c-0.3,0-0.3,0-0.4,0.2l-0.5,1.4c-0.1,0.2-0.1,0.3-0.1,0.4c0,0.1,0.2,0.1,0.5,0.2l0.4,0.1c0.1,0.1,0.1,0.4,0,0.4
			c-0.4,0-0.9,0-1.4,0c-0.4,0-0.7,0-1.2,0c-0.1-0.1-0.1-0.3,0-0.4l0.3,0c0.3,0,0.5-0.1,0.7-0.6c0.2-0.5,0.4-1.1,0.8-1.9l1.1-2.9
			c0.3-0.8,0.5-1.2,0.4-1.5c0.6-0.1,1-0.7,1-0.7c0.2,0,0.2,0.1,0.3,0.2c0.1,0.3,0.2,0.8,0.5,1.6l1.6,4.7c0.3,0.7,0.4,1,0.8,1.1
			l0.5,0.1c0.1,0.1,0.1,0.3,0,0.4c-0.6,0-1.2,0-1.8,0c-0.6,0-1.1,0-1.6,0c-0.1-0.1-0.2-0.3,0-0.4l0.4-0.1c0.3,0,0.3-0.1,0.3-0.2
			c0-0.1-0.1-0.4-0.2-0.8l-0.3-1c-0.1-0.2-0.2-0.2-0.6-0.2H13.1z M14.5,60.5c0.3,0,0.3,0,0.2-0.3l-0.3-1c-0.2-0.5-0.4-1.2-0.5-1.4
			c-0.1,0.3-0.3,0.9-0.5,1.5l-0.3,0.9c-0.1,0.3,0,0.4,0.3,0.4H14.5z"/>
		<path d="M18.7,63.7c-0.1-0.2-0.2-0.8-0.2-1.4c0.1-0.1,0.3-0.1,0.4,0c0.2,0.5,0.6,1.2,1.2,1.2c0.4,0,0.6-0.2,0.6-0.6
			c0-0.4-0.4-0.7-0.8-0.9c-0.7-0.4-1.2-0.8-1.2-1.5c0-1,0.9-1.5,1.9-1.5c0.6,0,1.2,0.2,1.3,0.3c0.1,0.3,0.2,0.7,0.2,1.2
			c0,0.1-0.3,0.1-0.4,0c-0.2-0.7-0.5-0.9-0.9-0.9c-0.3,0-0.6,0.2-0.6,0.5c0,0.3,0.2,0.5,0.8,0.8c0.8,0.4,1.3,0.9,1.3,1.7
			c0,1.1-0.9,1.6-2.1,1.6C19.5,64,19,63.9,18.7,63.7z"/>
		<path d="M23,63.7c-0.1-0.2-0.2-0.8-0.2-1.4c0.1-0.1,0.3-0.1,0.4,0c0.2,0.5,0.6,1.2,1.2,1.2c0.4,0,0.6-0.2,0.6-0.6
			c0-0.4-0.4-0.7-0.8-0.9c-0.7-0.4-1.2-0.8-1.2-1.5c0-1,0.9-1.5,1.9-1.5c0.6,0,1.2,0.2,1.3,0.3c0.1,0.3,0.2,0.7,0.2,1.2
			c0,0.1-0.3,0.1-0.4,0c-0.2-0.7-0.5-0.9-0.9-0.9c-0.3,0-0.6,0.2-0.6,0.5c0,0.3,0.2,0.5,0.8,0.8c0.8,0.4,1.3,0.9,1.3,1.7
			c0,1.1-0.9,1.6-2.1,1.6C23.8,64,23.3,63.9,23,63.7z"/>
		<path d="M31.3,62.2c0,0.8,0.3,1,0.5,1c0.1,0,0.3,0,0.5-0.1c0.1,0,0.2,0.2,0.1,0.3C32.3,63.6,31.7,64,31,64c-0.4,0-0.7-0.1-1-0.4
			c-0.1-0.1-0.1-0.1-0.2-0.1c-0.1,0-0.1,0-0.3,0.1c-0.2,0.2-0.6,0.4-1,0.4c-0.7,0-1.3-0.4-1.3-1.3c0-0.6,0.4-1,1.2-1.2
			c0.5-0.1,0.8-0.2,1.1-0.3c0.2-0.1,0.3-0.1,0.3-0.2c0-0.1,0-0.3,0-0.4c0-0.5-0.2-1-0.7-1c-0.3,0-0.5,0.2-0.6,0.7
			c0,0.2-0.1,0.3-0.2,0.4c-0.2,0.1-0.6,0.3-0.9,0.3c-0.2,0-0.3-0.1-0.3-0.3c0-0.3,0.3-0.7,0.6-0.9c0.4-0.3,1.2-0.7,2-0.7
			c1,0,1.6,0.5,1.5,1.7L31.3,62.2z M29.8,61.9c0-0.2,0-0.2-0.1-0.2c-0.5,0.1-1,0.3-1,0.8c0,0.4,0.3,0.7,0.6,0.7
			c0.4,0,0.4-0.2,0.5-0.6L29.8,61.9z"/>
		<path d="M34.8,59.7c-0.2,0-0.2,0-0.2,0.3v1.8c0,0.7,0,1.4,0.8,1.4c0.2,0,0.4-0.1,0.5-0.2c0.1,0,0.2,0.2,0.2,0.3
			c-0.3,0.4-1,0.7-1.7,0.7c-1,0-1.3-0.6-1.3-1.4V60c0-0.3,0-0.3-0.2-0.3h-0.4c-0.1,0-0.2-0.3-0.1-0.4c0.4-0.1,0.7-0.3,1-0.5
			c0.2-0.2,0.5-0.4,0.9-0.9c0.1,0,0.3,0,0.4,0.1v0.9c0,0.2,0,0.2,0.2,0.2h1.1c0.1,0,0.1,0.1,0.1,0.2c0,0.1,0,0.3-0.2,0.4H34.8z"/>
		<path d="M40.5,62.2c0,0.8,0.3,1,0.5,1c0.1,0,0.3,0,0.5-0.1c0.1,0,0.2,0.2,0.1,0.3c-0.1,0.2-0.7,0.6-1.4,0.6c-0.4,0-0.7-0.1-1-0.4
			c-0.1-0.1-0.1-0.1-0.2-0.1c-0.1,0-0.1,0-0.3,0.1c-0.2,0.2-0.6,0.4-1,0.4c-0.7,0-1.3-0.4-1.3-1.3c0-0.6,0.4-1,1.2-1.2
			c0.5-0.1,0.8-0.2,1.1-0.3c0.2-0.1,0.3-0.1,0.3-0.2c0-0.1,0-0.3,0-0.4c0-0.5-0.2-1-0.7-1c-0.3,0-0.5,0.2-0.6,0.7
			c0,0.2-0.1,0.3-0.2,0.4c-0.2,0.1-0.6,0.3-0.9,0.3c-0.2,0-0.3-0.1-0.3-0.3c0-0.3,0.3-0.7,0.6-0.9c0.4-0.3,1.2-0.7,2-0.7
			c1,0,1.6,0.5,1.5,1.7L40.5,62.2z M39,61.9c0-0.2,0-0.2-0.1-0.2c-0.5,0.1-1,0.3-1,0.8c0,0.4,0.3,0.7,0.6,0.7c0.4,0,0.4-0.2,0.5-0.6
			L39,61.9z"/>
		<path d="M41.9,60.2c0-0.6,0.4-1,1-1c0.6,0,1,0.5,1,1c0,0.5-0.4,0.9-1,0.9C42.4,61.1,41.9,60.8,41.9,60.2z M41.9,63.1
			c0-0.6,0.4-1,1-1c0.6,0,1,0.5,1,1c0,0.6-0.4,1-1,1C42.4,64,41.9,63.7,41.9,63.1z"/>
	</g>
	<g>
		<polygon class="st0" points="112.9,69.6 110.3,69.6 110.3,68.2 112.9,68.2 112.9,64.6 107.7,64.6 107.7,73.2 112.9,73.2 		"/>
		<rect x="106.5" y="38.6" class="st0" width="2.4" height="34.6"/>
		<path class="st0" d="M105.9,39.1L105.9,39.1c0-0.2,0.2-0.3,0.3-0.3h2.8c0.2,0,0.3,0.2,0.3,0.3l0,0c0,0.2-0.2,0.3-0.3,0.3h-2.8
			C106.1,39.4,105.9,39.3,105.9,39.1z"/>
		<path class="st0" d="M105.9,39.8L105.9,39.8c0-0.2,0.2-0.3,0.3-0.3h2.8c0.2,0,0.3,0.2,0.3,0.3l0,0c0,0.2-0.2,0.3-0.3,0.3h-2.8
			C106.1,40.1,105.9,40,105.9,39.8z"/>
		<path class="st0" d="M105.9,64.2L105.9,64.2c0-0.2,0.2-0.3,0.3-0.3h2.8c0.2,0,0.3,0.2,0.3,0.3l0,0c0,0.2-0.2,0.3-0.3,0.3h-2.8
			C106.1,64.6,105.9,64.4,105.9,64.2z"/>
		<path class="st0" d="M114.6,33.5L114.6,33.5c0-2.9-2.3-5.2-5.2-5.2H109c0-0.8-0.6-1.4-1.4-1.4c-0.8,0-1.4,0.6-1.4,1.4h-0.3
			c-2.9,0-5.2,2.3-5.2,5.2v0c0,2.9,2.3,5.2,5.2,5.2h3.5C112.3,38.6,114.6,36.3,114.6,33.5z M107.7,27.6c0.4,0,0.7,0.3,0.7,0.7
			S108,29,107.7,29c-0.4,0-0.7-0.3-0.7-0.7S107.3,27.6,107.7,27.6z M105.9,36.9c-1.9,0-3.5-1.5-3.5-3.5v0c0-1.2,0.6-2.2,1.5-2.8
			c0.9-0.6,2.1-0.6,2.9,0.1l0.8,0.6l0.8-0.6c0.8-0.7,2-0.7,2.9-0.1c0.9,0.6,1.5,1.7,1.5,2.8v0c0,1.9-1.5,3.5-3.5,3.5H105.9z"/>
	</g>
	<g>
		<path d="M99.6,83.3c0,0.8,0,0.9,0.5,1l0.2,0c0,0,0,0.2,0,0.2c-0.5,0-0.7,0-1,0c-0.3,0-0.6,0-1,0c0,0-0.1-0.2,0-0.2l0.2,0
			c0.5-0.1,0.5-0.2,0.5-1v-3c0-0.7,0-0.8-0.4-0.9l-0.3,0c-0.1,0,0-0.2,0-0.2c0.4-0.1,0.9-0.1,1.6-0.1s1.2,0.1,1.5,0.3
			c0.4,0.2,0.6,0.6,0.6,1.2c0,0.7-0.5,1.1-0.8,1.3c-0.4,0.2-0.8,0.2-1.1,0.2c-0.1,0-0.1-0.1,0-0.2c0.9-0.2,1.2-0.6,1.2-1.3
			c0-0.8-0.5-1.3-1.3-1.3c-0.4,0-0.4,0-0.4,0.3V83.3z"/>
		<path d="M103.3,83.3c0,0.6,0.1,0.9,0.7,0.9c0.2,0,0.5-0.1,0.6-0.2c0.1-0.1,0.2-0.2,0.2-0.5v-1.3c0-0.5-0.1-0.5-0.3-0.6l-0.1,0
			c-0.1,0-0.1-0.1,0-0.2c0.3,0,0.8-0.1,0.9-0.1c0,0,0.1,0,0.1,0.1c0,0.2,0,0.4,0,0.7v1.3c0,0.6,0,0.9,0.2,0.9c0.1,0,0.2,0,0.3,0
			c0,0,0.1,0.2,0,0.2c-0.3,0.1-0.8,0.1-1,0.3c0,0-0.1,0-0.1-0.1v-0.3c0-0.1,0-0.1-0.1-0.1c-0.2,0.2-0.6,0.4-1.1,0.4
			c-0.7,0-1-0.4-1-1v-1.3c0-0.5,0-0.6-0.2-0.7l-0.1,0c0,0,0-0.2,0-0.2c0.4,0,0.7-0.1,0.9-0.1c0,0,0.1,0,0.1,0.1c0,0.1,0,0.3,0,0.7
			V83.3z"/>
		<path d="M106.8,80c0-0.5,0-0.5-0.2-0.7l-0.1,0c0,0,0-0.1,0-0.2c0.2-0.1,0.6-0.2,0.9-0.3c0,0,0.1,0,0.1,0c0,0.3,0,0.6,0,1v1.5
			c0,0.1,0,0.2,0.1,0.2c0.2-0.1,0.5-0.3,0.9-0.3c0.9,0,1.5,0.7,1.5,1.6c0,1.1-0.8,1.8-1.8,1.8c-0.3,0-0.5-0.1-0.7-0.1
			c-0.2-0.1-0.3-0.1-0.3-0.1c-0.1,0-0.1,0.1-0.2,0.1c0,0,0,0,0,0c0,0-0.1,0-0.1,0c0-0.1,0-0.3,0-0.7V80z M107.4,83.4
			c0,0.3,0.1,0.5,0.2,0.7c0.1,0.2,0.4,0.3,0.6,0.3c0.8,0,1-0.6,1-1.3c0-0.8-0.4-1.5-1.2-1.5c-0.2,0-0.4,0.1-0.5,0.1
			c-0.1,0.1-0.1,0.1-0.1,0.5V83.4z"/>
		<path d="M111.5,83.6c0,0.6,0,0.7,0.3,0.7l0.2,0c0.1,0,0,0.2,0,0.2c-0.3,0-0.5,0-0.8,0c-0.3,0-0.5,0-0.8,0c-0.1,0-0.1-0.2,0-0.2
			l0.2,0c0.3,0,0.3-0.1,0.3-0.7V80c0-0.5,0-0.5-0.2-0.7l-0.1,0c0,0,0-0.1,0-0.2c0.2-0.1,0.6-0.2,0.9-0.3c0,0,0.1,0,0.1,0
			c0,0.2,0,0.6,0,1V83.6z"/>
		<path d="M112.9,82.2c0-0.3,0-0.4-0.2-0.5l-0.1,0c0,0,0-0.1,0-0.1c0.2-0.1,0.6-0.3,0.8-0.4c0,0,0.1,0,0.1,0c0,0.3,0,0.7,0,1v1.4
			c0,0.6,0,0.7,0.3,0.7l0.2,0c0.1,0,0,0.2,0,0.2c-0.2,0-0.5,0-0.8,0c-0.3,0-0.5,0-0.8,0c-0.1,0-0.1-0.2,0-0.2l0.2,0
			c0.3,0,0.3-0.1,0.3-0.7V82.2z M113.6,79.9c0,0.3-0.2,0.4-0.4,0.4c-0.2,0-0.4-0.2-0.4-0.4c0-0.3,0.2-0.4,0.4-0.4
			C113.4,79.5,113.6,79.7,113.6,79.9z"/>
		<path d="M117.1,81.4c0.1,0.1,0.1,0.2,0.1,0.3c0,0.1-0.1,0.3-0.2,0.3c0,0-0.1,0-0.1-0.1c-0.2-0.2-0.5-0.4-0.8-0.4
			c-0.6,0-1.1,0.4-1.1,1.3c0,0.6,0.4,1.4,1.3,1.4c0.5,0,0.7-0.2,0.9-0.5c0.1,0,0.1,0,0.1,0.1c-0.3,0.6-0.9,0.8-1.3,0.8
			c-0.4,0-0.8-0.1-1.1-0.4c-0.3-0.3-0.5-0.7-0.5-1.2c0-0.9,0.6-1.8,1.9-1.8C116.6,81.3,116.9,81.3,117.1,81.4z"/>
		<path d="M102.7,90c0-0.8,0-1-0.5-1l-0.2,0c0,0,0-0.2,0-0.2c0.4,0,0.6,0,1,0c0.3,0,0.6,0,0.9,0c0,0,0.1,0.2,0,0.2l-0.2,0
			c-0.5,0-0.5,0.2-0.5,1V91c0,0.2,0,0.3,0.1,0.3c0.1,0,0.2,0,0.2-0.1c0.1-0.1,0.3-0.3,0.4-0.4l0.9-0.9c0.2-0.1,0.5-0.6,0.6-0.7
			c0-0.1,0.1-0.1,0.1-0.1c0,0,0-0.1-0.1-0.1l-0.2,0c-0.1-0.1,0-0.2,0-0.2c0.3,0,0.6,0,0.9,0s0.6,0,0.8,0c0.1,0,0.1,0.2,0,0.2
			c-0.2,0-0.5,0.1-0.7,0.2c-0.2,0.1-0.7,0.5-1.1,0.9l-0.7,0.7c-0.1,0.1-0.2,0.2-0.2,0.2c0,0.1,0,0.1,0.2,0.2c0.8,0.9,1.4,1.6,2,2.2
			c0.2,0.2,0.4,0.3,0.6,0.3l0.2,0c0.1,0,0,0.2,0,0.2c-0.2,0-0.5,0-0.9,0c-0.3,0-0.6,0-1,0c-0.1,0-0.1-0.2,0-0.2l0.2,0
			c0.1,0,0.2,0,0.2-0.1c0,0-0.1-0.1-0.1-0.2c-0.2-0.2-0.4-0.4-0.7-0.8l-0.6-0.7c-0.5-0.5-0.6-0.7-0.8-0.7c-0.1,0-0.1,0.1-0.1,0.4v1
			c0,0.8,0,1,0.5,1l0.2,0c0,0,0,0.2,0,0.2c-0.4,0-0.7,0-1,0c-0.3,0-0.6,0-0.9,0c0,0-0.1-0.1,0-0.2l0.2,0c0.4-0.1,0.4-0.2,0.4-1V90z"
			/>
		<path d="M108,92.1c-0.2,0-0.2,0-0.2,0.2c0,0.8,0.5,1.5,1.3,1.5c0.3,0,0.5-0.1,0.7-0.4c0.1,0,0.1,0,0.1,0.1
			c-0.3,0.5-0.8,0.7-1.3,0.7c-0.5,0-0.9-0.2-1.2-0.5c-0.2-0.3-0.3-0.7-0.3-1c0-1,0.6-1.8,1.6-1.8c0.7,0,1.1,0.5,1.1,1
			c0,0.1,0,0.2,0,0.2c0,0-0.1,0.1-0.5,0.1H108z M108.5,91.8c0.6,0,0.8,0,0.8-0.1c0,0,0,0,0-0.2c0-0.2-0.2-0.5-0.6-0.5
			c-0.5,0-0.9,0.4-0.9,0.7c0,0,0,0,0.1,0H108.5z"/>
		<path d="M110.4,95.8c0-0.2,0.1-0.3,0.3-0.3h0.2c0.1,0,0.2-0.1,0.3-0.1c0.2-0.4,0.4-0.7,0.5-0.9c0-0.1,0.1-0.2,0.1-0.3
			c0-0.2,0-0.3-0.1-0.6l-0.6-1.7c-0.1-0.4-0.2-0.6-0.5-0.6l-0.2,0c0,0,0-0.2,0-0.2c0.3,0,0.5,0,0.8,0c0.2,0,0.4,0,0.7,0
			c0.1,0,0.1,0.2,0,0.2l-0.2,0c-0.1,0-0.2,0-0.2,0.1c0,0.1,0.2,0.6,0.2,0.8l0.3,0.7c0,0.1,0.2,0.6,0.2,0.6c0,0,0.2-0.3,0.3-0.6
			l0.3-0.6c0.2-0.4,0.3-0.7,0.3-0.8c0-0.1,0-0.1-0.2-0.1l-0.2,0c-0.1,0,0-0.2,0-0.2c0.3,0,0.5,0,0.7,0c0.2,0,0.4,0,0.6,0
			c0.1,0,0.1,0.2,0,0.2l-0.1,0c-0.3,0-0.4,0.3-0.7,0.8l-0.4,0.9c-0.3,0.5-0.9,1.9-1.3,2.8c-0.1,0.3-0.3,0.4-0.5,0.4
			C110.5,96.1,110.4,96,110.4,95.8z"/>
	</g>
	<g>
		<polygon class="st0" points="193.9,69.6 191.3,69.6 191.3,68.2 193.9,68.2 193.9,64.6 188.7,64.6 188.7,73.2 193.9,73.2 		"/>
		<rect x="187.5" y="38.6" class="st0" width="2.4" height="34.6"/>
		<path class="st0" d="M186.9,39.1L186.9,39.1c0-0.2,0.2-0.3,0.3-0.3h2.8c0.2,0,0.3,0.2,0.3,0.3l0,0c0,0.2-0.2,0.3-0.3,0.3h-2.8
			C187.1,39.4,186.9,39.3,186.9,39.1z"/>
		<path class="st0" d="M186.9,39.8L186.9,39.8c0-0.2,0.2-0.3,0.3-0.3h2.8c0.2,0,0.3,0.2,0.3,0.3l0,0c0,0.2-0.2,0.3-0.3,0.3h-2.8
			C187.1,40.1,186.9,40,186.9,39.8z"/>
		<path class="st0" d="M186.9,64.2L186.9,64.2c0-0.2,0.2-0.3,0.3-0.3h2.8c0.2,0,0.3,0.2,0.3,0.3l0,0c0,0.2-0.2,0.3-0.3,0.3h-2.8
			C187.1,64.6,186.9,64.4,186.9,64.2z"/>
		<path class="st0" d="M195.6,33.5L195.6,33.5c0-2.9-2.3-5.2-5.2-5.2H190c0-0.8-0.6-1.4-1.4-1.4c-0.8,0-1.4,0.6-1.4,1.4h-0.3
			c-2.9,0-5.2,2.3-5.2,5.2v0c0,2.9,2.3,5.2,5.2,5.2h3.5C193.3,38.6,195.6,36.3,195.6,33.5z M188.7,27.6c0.4,0,0.7,0.3,0.7,0.7
			S189,29,188.7,29c-0.4,0-0.7-0.3-0.7-0.7S188.3,27.6,188.7,27.6z M186.9,36.9c-1.9,0-3.5-1.5-3.5-3.5v0c0-1.2,0.6-2.2,1.5-2.8
			c0.9-0.6,2.1-0.6,2.9,0.1l0.8,0.6l0.8-0.6c0.8-0.7,2-0.7,2.9-0.1c0.9,0.6,1.5,1.7,1.5,2.8v0c0,1.9-1.5,3.5-3.5,3.5H186.9z"/>
	</g>
	<g>
		<path d="M180.6,83.3c0,0.8,0,0.9,0.5,1l0.2,0c0,0,0,0.2,0,0.2c-0.5,0-0.7,0-1,0c-0.3,0-0.6,0-1,0c0,0-0.1-0.2,0-0.2l0.2,0
			c0.5-0.1,0.5-0.2,0.5-1v-3c0-0.7,0-0.8-0.4-0.9l-0.3,0c-0.1,0,0-0.2,0-0.2c0.4-0.1,0.9-0.1,1.6-0.1c0.7,0,1.2,0.1,1.5,0.3
			c0.4,0.2,0.6,0.6,0.6,1.2c0,0.7-0.5,1.1-0.8,1.3c-0.4,0.2-0.8,0.2-1.1,0.2c-0.1,0-0.1-0.1,0-0.2c0.9-0.2,1.2-0.6,1.2-1.3
			c0-0.8-0.5-1.3-1.3-1.3c-0.4,0-0.4,0-0.4,0.3V83.3z"/>
		<path d="M184.3,83.3c0,0.6,0.1,0.9,0.7,0.9c0.2,0,0.5-0.1,0.6-0.2c0.1-0.1,0.2-0.2,0.2-0.5v-1.3c0-0.5-0.1-0.5-0.3-0.6l-0.1,0
			c-0.1,0-0.1-0.1,0-0.2c0.3,0,0.8-0.1,0.9-0.1c0,0,0.1,0,0.1,0.1c0,0.2,0,0.4,0,0.7v1.3c0,0.6,0,0.9,0.2,0.9c0.1,0,0.2,0,0.3,0
			c0,0,0.1,0.2,0,0.2c-0.3,0.1-0.8,0.1-1,0.3c0,0-0.1,0-0.1-0.1v-0.3c0-0.1,0-0.1-0.1-0.1c-0.2,0.2-0.6,0.4-1.1,0.4
			c-0.7,0-1-0.4-1-1v-1.3c0-0.5,0-0.6-0.2-0.7l-0.1,0c0,0,0-0.2,0-0.2c0.4,0,0.7-0.1,0.9-0.1c0,0,0.1,0,0.1,0.1c0,0.1,0,0.3,0,0.7
			V83.3z"/>
		<path d="M187.8,80c0-0.5,0-0.5-0.2-0.7l-0.1,0c0,0,0-0.1,0-0.2c0.2-0.1,0.6-0.2,0.9-0.3c0,0,0.1,0,0.1,0c0,0.3,0,0.6,0,1v1.5
			c0,0.1,0,0.2,0.1,0.2c0.2-0.1,0.5-0.3,0.9-0.3c0.9,0,1.5,0.7,1.5,1.6c0,1.1-0.8,1.8-1.8,1.8c-0.3,0-0.5-0.1-0.7-0.1
			c-0.2-0.1-0.3-0.1-0.3-0.1c-0.1,0-0.1,0.1-0.2,0.1c0,0,0,0,0,0c0,0-0.1,0-0.1,0c0-0.1,0-0.3,0-0.7V80z M188.4,83.4
			c0,0.3,0.1,0.5,0.2,0.7c0.1,0.2,0.4,0.3,0.6,0.3c0.8,0,1-0.6,1-1.3c0-0.8-0.4-1.5-1.2-1.5c-0.2,0-0.4,0.1-0.5,0.1
			c-0.1,0.1-0.1,0.1-0.1,0.5V83.4z"/>
		<path d="M192.5,83.6c0,0.6,0,0.7,0.3,0.7l0.2,0c0.1,0,0,0.2,0,0.2c-0.3,0-0.5,0-0.8,0c-0.3,0-0.5,0-0.8,0c-0.1,0-0.1-0.2,0-0.2
			l0.2,0c0.3,0,0.3-0.1,0.3-0.7V80c0-0.5,0-0.5-0.2-0.7l-0.1,0c0,0,0-0.1,0-0.2c0.2-0.1,0.6-0.2,0.9-0.3c0,0,0.1,0,0.1,0
			c0,0.2,0,0.6,0,1V83.6z"/>
		<path d="M193.9,82.2c0-0.3,0-0.4-0.2-0.5l-0.1,0c0,0,0-0.1,0-0.1c0.2-0.1,0.6-0.3,0.8-0.4c0,0,0.1,0,0.1,0c0,0.3,0,0.7,0,1v1.4
			c0,0.6,0,0.7,0.3,0.7l0.2,0c0.1,0,0,0.2,0,0.2c-0.2,0-0.5,0-0.8,0c-0.3,0-0.5,0-0.8,0c-0.1,0-0.1-0.2,0-0.2l0.2,0
			c0.3,0,0.3-0.1,0.3-0.7V82.2z M194.6,79.9c0,0.3-0.2,0.4-0.4,0.4c-0.2,0-0.4-0.2-0.4-0.4c0-0.3,0.2-0.4,0.4-0.4
			C194.4,79.5,194.6,79.7,194.6,79.9z"/>
		<path d="M198.1,81.4c0.1,0.1,0.1,0.2,0.1,0.3c0,0.1-0.1,0.3-0.2,0.3c0,0-0.1,0-0.1-0.1c-0.2-0.2-0.5-0.4-0.8-0.4
			c-0.6,0-1.1,0.4-1.1,1.3c0,0.6,0.4,1.4,1.3,1.4c0.5,0,0.7-0.2,0.9-0.5c0.1,0,0.1,0,0.1,0.1c-0.3,0.6-0.9,0.8-1.3,0.8
			c-0.4,0-0.8-0.1-1.1-0.4c-0.3-0.3-0.5-0.7-0.5-1.2c0-0.9,0.6-1.8,1.9-1.8C197.6,81.3,197.9,81.3,198.1,81.4z"/>
		<path d="M183.7,90c0-0.8,0-1-0.5-1l-0.2,0c0,0,0-0.2,0-0.2c0.4,0,0.6,0,1,0c0.3,0,0.6,0,0.9,0c0,0,0.1,0.2,0,0.2l-0.2,0
			c-0.5,0-0.5,0.2-0.5,1V91c0,0.2,0,0.3,0.1,0.3c0.1,0,0.2,0,0.2-0.1c0.1-0.1,0.3-0.3,0.4-0.4l0.9-0.9c0.2-0.1,0.5-0.6,0.6-0.7
			c0-0.1,0.1-0.1,0.1-0.1c0,0,0-0.1-0.1-0.1l-0.2,0c-0.1-0.1,0-0.2,0-0.2c0.3,0,0.6,0,0.9,0c0.3,0,0.6,0,0.8,0c0.1,0,0.1,0.2,0,0.2
			c-0.2,0-0.5,0.1-0.7,0.2s-0.7,0.5-1.1,0.9l-0.7,0.7c-0.1,0.1-0.2,0.2-0.2,0.2c0,0.1,0,0.1,0.2,0.2c0.8,0.9,1.4,1.6,2,2.2
			c0.2,0.2,0.4,0.3,0.6,0.3l0.2,0c0.1,0,0,0.2,0,0.2c-0.2,0-0.5,0-0.9,0c-0.3,0-0.6,0-1,0c-0.1,0-0.1-0.2,0-0.2l0.2,0
			c0.1,0,0.2,0,0.2-0.1c0,0-0.1-0.1-0.1-0.2c-0.2-0.2-0.4-0.4-0.7-0.8l-0.6-0.7c-0.5-0.5-0.6-0.7-0.8-0.7c-0.1,0-0.1,0.1-0.1,0.4v1
			c0,0.8,0,1,0.5,1l0.2,0c0,0,0,0.2,0,0.2c-0.4,0-0.7,0-1,0c-0.3,0-0.6,0-0.9,0c0,0-0.1-0.1,0-0.2l0.2,0c0.4-0.1,0.4-0.2,0.4-1V90z"
			/>
		<path d="M189,92.1c-0.2,0-0.2,0-0.2,0.2c0,0.8,0.5,1.5,1.3,1.5c0.3,0,0.5-0.1,0.7-0.4c0.1,0,0.1,0,0.1,0.1
			c-0.3,0.5-0.8,0.7-1.3,0.7c-0.5,0-0.9-0.2-1.2-0.5c-0.2-0.3-0.3-0.7-0.3-1c0-1,0.6-1.8,1.6-1.8c0.7,0,1.1,0.5,1.1,1
			c0,0.1,0,0.2,0,0.2c0,0-0.1,0.1-0.5,0.1H189z M189.5,91.8c0.6,0,0.8,0,0.8-0.1c0,0,0,0,0-0.2c0-0.2-0.2-0.5-0.6-0.5
			c-0.5,0-0.9,0.4-0.9,0.7c0,0,0,0,0.1,0H189.5z"/>
		<path d="M191.4,95.8c0-0.2,0.1-0.3,0.3-0.3h0.2c0.1,0,0.2-0.1,0.3-0.1c0.2-0.4,0.4-0.7,0.5-0.9c0-0.1,0.1-0.2,0.1-0.3
			c0-0.2,0-0.3-0.1-0.6l-0.6-1.7c-0.1-0.4-0.2-0.6-0.5-0.6l-0.2,0c0,0,0-0.2,0-0.2c0.3,0,0.5,0,0.8,0c0.2,0,0.4,0,0.7,0
			c0.1,0,0.1,0.2,0,0.2l-0.2,0c-0.1,0-0.2,0-0.2,0.1c0,0.1,0.2,0.6,0.2,0.8l0.3,0.7c0,0.1,0.2,0.6,0.2,0.6c0,0,0.2-0.3,0.3-0.6
			l0.3-0.6c0.2-0.4,0.3-0.7,0.3-0.8c0-0.1,0-0.1-0.2-0.1l-0.2,0c-0.1,0,0-0.2,0-0.2c0.3,0,0.5,0,0.7,0c0.2,0,0.4,0,0.6,0
			c0.1,0,0.1,0.2,0,0.2l-0.1,0c-0.3,0-0.4,0.3-0.7,0.8l-0.4,0.9c-0.3,0.5-0.9,1.9-1.3,2.8c-0.1,0.3-0.3,0.4-0.5,0.4
			C191.5,96.1,191.4,96,191.4,95.8z"/>
	</g>
	<g>
		<path d="M68.7,83.3c0,0.8,0,0.9,0.5,1l0.2,0c0,0,0,0.2,0,0.2c-0.5,0-0.7,0-1,0c-0.3,0-0.6,0-1,0c0,0-0.1-0.2,0-0.2l0.2,0
			c0.5-0.1,0.5-0.2,0.5-1v-3c0-0.7,0-0.8-0.4-0.9l-0.3,0c-0.1,0,0-0.2,0-0.2c0.4-0.1,0.9-0.1,1.6-0.1c0.7,0,1.2,0.1,1.5,0.3
			c0.4,0.2,0.6,0.6,0.6,1.2c0,0.7-0.5,1.1-0.8,1.3c-0.4,0.2-0.8,0.2-1.1,0.2c-0.1,0-0.1-0.1,0-0.2c0.9-0.2,1.2-0.6,1.2-1.3
			c0-0.8-0.5-1.3-1.3-1.3c-0.4,0-0.4,0-0.4,0.3V83.3z"/>
		<path d="M71.9,82.2c0-0.3,0-0.4-0.2-0.5l-0.1,0c0,0,0-0.1,0-0.1c0.2-0.1,0.6-0.3,0.8-0.4c0,0,0.1,0,0.1,0.1v0.5c0,0,0,0.1,0,0.1
			c0.3-0.2,0.6-0.5,0.9-0.5c0.2,0,0.4,0.1,0.4,0.3c0,0.3-0.2,0.4-0.3,0.4c-0.1,0-0.1,0-0.2-0.1c-0.1-0.1-0.2-0.1-0.4-0.1
			c-0.1,0-0.2,0.1-0.3,0.2c-0.1,0.1-0.1,0.3-0.1,0.6v1.1c0,0.6,0,0.7,0.3,0.7l0.3,0c0.1,0,0,0.2,0,0.2c-0.4,0-0.6,0-0.9,0
			c-0.3,0-0.5,0-0.7,0c-0.1,0-0.1-0.2,0-0.2l0.2,0c0.3,0,0.3-0.1,0.3-0.7V82.2z"/>
		<path d="M74.6,82.2c0-0.3,0-0.4-0.2-0.5l-0.1,0c0,0,0-0.1,0-0.1c0.2-0.1,0.6-0.3,0.8-0.4c0,0,0.1,0,0.1,0c0,0.3,0,0.7,0,1v1.4
			c0,0.6,0,0.7,0.3,0.7l0.2,0c0.1,0,0,0.2,0,0.2c-0.2,0-0.5,0-0.8,0c-0.3,0-0.5,0-0.8,0c-0.1,0-0.1-0.2,0-0.2l0.2,0
			c0.3,0,0.3-0.1,0.3-0.7V82.2z M75.3,79.9c0,0.3-0.2,0.4-0.4,0.4c-0.2,0-0.4-0.2-0.4-0.4c0-0.3,0.2-0.4,0.4-0.4
			C75.1,79.5,75.3,79.7,75.3,79.9z"/>
		<path d="M76.5,82.2c-0.1-0.3-0.2-0.6-0.5-0.6l-0.2,0c0-0.1,0-0.2,0-0.2c0.2,0,0.5,0,0.8,0c0.2,0,0.4,0,0.6,0c0.1,0,0.1,0.2,0,0.2
			l-0.1,0c-0.2,0-0.3,0.1-0.2,0.3c0.2,0.6,0.4,1.1,0.6,1.5c0.1,0.2,0.1,0.2,0.1,0.3c0,0,0.1-0.1,0.2-0.3l0.5-1.2
			c0.1-0.3,0.1-0.4,0.1-0.5c0-0.1,0-0.1-0.1-0.1l-0.2,0c0-0.1,0-0.2,0-0.2c0.2,0,0.4,0,0.6,0c0.2,0,0.3,0,0.6,0c0.1,0,0.1,0.2,0,0.2
			l-0.1,0c-0.3,0-0.4,0.2-0.6,0.7c-0.1,0.2-0.6,1.4-0.7,1.7c-0.1,0.2-0.2,0.4-0.3,0.7c0,0,0,0-0.1,0c0,0-0.1,0-0.1,0
			c-0.1-0.2-0.2-0.5-0.3-0.8L76.5,82.2z"/>
		<path d="M81.2,82.9c0.1,0,0.1-0.1,0.1-0.2l0-0.4c0-0.3-0.1-0.7-0.6-0.7c-0.2,0-0.5,0.1-0.5,0.4c0,0.1,0,0.2-0.1,0.3
			c-0.1,0.1-0.3,0.2-0.5,0.2c-0.1,0-0.1,0-0.1-0.1c0-0.4,0.9-1,1.5-1c0.6,0,0.9,0.3,0.8,0.9l0,1.4c0,0.4,0.1,0.7,0.4,0.7
			c0.1,0,0.2,0,0.2,0c0,0,0.1-0.1,0.1-0.1c0,0,0.1,0,0.1,0.1c0,0-0.3,0.4-0.7,0.4c-0.2,0-0.4-0.1-0.5-0.2c0,0-0.1-0.1-0.1-0.1
			c-0.1,0-0.2,0.1-0.3,0.2c-0.2,0.1-0.4,0.2-0.6,0.2c-0.2,0-0.4-0.1-0.6-0.2c-0.2-0.1-0.2-0.3-0.2-0.6c0-0.3,0.2-0.5,0.7-0.7
			L81.2,82.9z M80.7,84.3c0.2,0,0.4-0.1,0.5-0.2c0.1-0.1,0.1-0.2,0.1-0.4l0-0.5c0-0.1,0-0.1-0.1-0.1s-0.2,0-0.3,0.1
			c-0.5,0.2-0.7,0.3-0.7,0.6C80.2,83.9,80.3,84.3,80.7,84.3z"/>
		<path d="M83.9,81.7c-0.1,0-0.1,0-0.1,0.2v1.5c0,0.5,0.1,0.9,0.6,0.9c0.1,0,0.2,0,0.2,0c0.1,0,0.2-0.1,0.2-0.1
			c0.1,0,0.1,0.1,0.1,0.1c-0.1,0.2-0.4,0.4-0.8,0.4c-0.7,0-0.8-0.4-0.8-0.9v-1.8c0-0.2,0-0.2-0.2-0.2h-0.2c0,0-0.1-0.1,0-0.2
			c0.2-0.1,0.4-0.2,0.5-0.2c0.1-0.1,0.3-0.3,0.3-0.5c0,0,0.1,0,0.2,0v0.4c0,0.1,0,0.2,0.1,0.2h0.9c0.1,0.1,0.1,0.3,0,0.3H83.9z"/>
		<path d="M86,82.5c-0.2,0-0.2,0-0.2,0.2c0,0.8,0.5,1.5,1.3,1.5c0.3,0,0.5-0.1,0.7-0.4c0.1,0,0.1,0,0.1,0.1
			c-0.3,0.5-0.8,0.7-1.3,0.7c-0.5,0-0.9-0.2-1.2-0.5c-0.2-0.3-0.3-0.7-0.3-1c0-1,0.6-1.8,1.6-1.8c0.7,0,1.1,0.5,1.1,1
			c0,0.1,0,0.2,0,0.2c0,0-0.1,0.1-0.5,0.1H86z M86.5,82.2c0.6,0,0.8,0,0.8-0.1c0,0,0,0,0-0.2c0-0.2-0.2-0.5-0.6-0.5
			c-0.5,0-0.9,0.4-0.9,0.7c0,0,0,0,0.1,0H86.5z"/>
		<path d="M72.6,90c0-0.8,0-1-0.5-1l-0.2,0c0,0,0-0.2,0-0.2c0.4,0,0.6,0,1,0c0.3,0,0.6,0,0.9,0c0,0,0.1,0.2,0,0.2l-0.2,0
			c-0.5,0-0.5,0.2-0.5,1V91c0,0.2,0,0.3,0.1,0.3c0.1,0,0.2,0,0.2-0.1c0.1-0.1,0.3-0.3,0.4-0.4l0.9-0.9c0.2-0.1,0.5-0.6,0.6-0.7
			c0-0.1,0.1-0.1,0.1-0.1c0,0,0-0.1-0.1-0.1l-0.2,0c-0.1-0.1,0-0.2,0-0.2c0.3,0,0.6,0,0.9,0c0.3,0,0.6,0,0.8,0c0.1,0,0.1,0.2,0,0.2
			c-0.2,0-0.5,0.1-0.7,0.2s-0.7,0.5-1.1,0.9l-0.7,0.7c-0.1,0.1-0.2,0.2-0.2,0.2c0,0.1,0,0.1,0.2,0.2c0.8,0.9,1.4,1.6,2,2.2
			c0.2,0.2,0.4,0.3,0.6,0.3l0.2,0c0.1,0,0,0.2,0,0.2c-0.2,0-0.5,0-0.9,0c-0.3,0-0.6,0-1,0c-0.1,0-0.1-0.2,0-0.2l0.2,0
			c0.1,0,0.2,0,0.2-0.1c0,0-0.1-0.1-0.1-0.2c-0.2-0.2-0.4-0.4-0.7-0.8l-0.6-0.7c-0.5-0.5-0.6-0.7-0.8-0.7c-0.1,0-0.1,0.1-0.1,0.4v1
			c0,0.8,0,1,0.5,1l0.2,0c0,0,0,0.2,0,0.2c-0.4,0-0.7,0-1,0c-0.3,0-0.6,0-0.9,0c0,0-0.1-0.1,0-0.2l0.2,0c0.4-0.1,0.4-0.2,0.4-1V90z"
			/>
		<path d="M77.9,92.1c-0.2,0-0.2,0-0.2,0.2c0,0.8,0.5,1.5,1.3,1.5c0.3,0,0.5-0.1,0.7-0.4c0.1,0,0.1,0,0.1,0.1
			c-0.3,0.5-0.8,0.7-1.3,0.7c-0.5,0-0.9-0.2-1.2-0.5c-0.2-0.3-0.3-0.7-0.3-1c0-1,0.6-1.8,1.6-1.8c0.7,0,1.1,0.5,1.1,1
			c0,0.1,0,0.2,0,0.2c0,0-0.1,0.1-0.5,0.1H77.9z M78.4,91.8c0.6,0,0.8,0,0.8-0.1c0,0,0,0,0-0.2c0-0.2-0.2-0.5-0.6-0.5
			c-0.5,0-0.9,0.4-0.9,0.7c0,0,0,0,0.1,0H78.4z"/>
		<path d="M80.3,95.8c0-0.2,0.1-0.3,0.3-0.3h0.2c0.1,0,0.2-0.1,0.3-0.1c0.2-0.4,0.4-0.7,0.5-0.9c0-0.1,0.1-0.2,0.1-0.3
			c0-0.2,0-0.3-0.1-0.6l-0.6-1.7c-0.1-0.4-0.2-0.6-0.5-0.6l-0.2,0c0,0,0-0.2,0-0.2c0.3,0,0.5,0,0.8,0c0.2,0,0.4,0,0.7,0
			c0.1,0,0.1,0.2,0,0.2l-0.2,0c-0.1,0-0.2,0-0.2,0.1c0,0.1,0.2,0.6,0.2,0.8l0.3,0.7c0,0.1,0.2,0.6,0.2,0.6c0,0,0.2-0.3,0.3-0.6
			l0.3-0.6c0.2-0.4,0.3-0.7,0.3-0.8c0-0.1,0-0.1-0.2-0.1l-0.2,0c-0.1,0,0-0.2,0-0.2c0.3,0,0.5,0,0.7,0c0.2,0,0.4,0,0.6,0
			c0.1,0,0.1,0.2,0,0.2l-0.1,0c-0.3,0-0.4,0.3-0.7,0.8l-0.4,0.9c-0.3,0.5-0.9,1.9-1.3,2.8c-0.1,0.3-0.3,0.4-0.5,0.4
			C80.4,96.1,80.3,96,80.3,95.8z"/>
	</g>
	<g>
		<polygon class="st0" points="82.8,69.6 82.8,69.6 82.8,68.2 82.8,68.2 82.8,64.6 77.6,64.6 77.6,73.2 82.8,73.2 		"/>
		<rect x="76.4" y="38.6" class="st1" width="2.4" height="34.6"/>
		<path class="st1" d="M75.8,39.1L75.8,39.1c0-0.2,0.2-0.3,0.3-0.3H79c0.2,0,0.3,0.2,0.3,0.3l0,0c0,0.2-0.2,0.3-0.3,0.3h-2.8
			C76,39.4,75.8,39.3,75.8,39.1z"/>
		<path class="st1" d="M75.8,39.8L75.8,39.8c0-0.2,0.2-0.3,0.3-0.3H79c0.2,0,0.3,0.2,0.3,0.3v0c0,0.2-0.2,0.3-0.3,0.3h-2.8
			C76,40.1,75.8,40,75.8,39.8z"/>
		<path class="st1" d="M75.8,64.2L75.8,64.2c0-0.2,0.2-0.3,0.3-0.3H79c0.2,0,0.3,0.2,0.3,0.3l0,0c0,0.2-0.2,0.3-0.3,0.3h-2.8
			C76,64.6,75.8,64.4,75.8,64.2z"/>
		<path class="st1" d="M84.5,33.5L84.5,33.5c0-2.9-2.3-5.2-5.2-5.2H79c0-0.8-0.6-1.4-1.4-1.4s-1.4,0.6-1.4,1.4h-0.3
			c-2.9,0-5.2,2.3-5.2,5.2v0c0,2.9,2.3,5.2,5.2,5.2h3.5C82.2,38.6,84.5,36.3,84.5,33.5z M77.6,27.6c0.4,0,0.7,0.3,0.7,0.7
			c0,0.4-0.3,0.7-0.7,0.7s-0.7-0.3-0.7-0.7C76.9,27.9,77.2,27.6,77.6,27.6z M75.8,36.9c-1.9,0-3.5-1.5-3.5-3.5v0
			c0-1.2,0.6-2.2,1.5-2.8c0.9-0.6,2.1-0.6,2.9,0.1l0.8,0.6l0.8-0.6c0.8-0.7,2-0.7,2.9-0.1c0.9,0.6,1.5,1.7,1.5,2.8v0
			c0,1.9-1.5,3.5-3.5,3.5H75.8z"/>
	</g>
	<path class="st2" d="M120,103.1H65.9c-5,0-9-4-9-9V27c0-5,4-9,9-9H120c5,0,9,4,9,9v67.1C129,99,125,103.1,120,103.1z"/>
	<g>
		<path d="M82.1,113.8c0.2-0.7,0.2-0.9-0.4-0.9l-0.4-0.1c-0.1-0.1-0.1-0.2,0-0.2c0.4,0,0.8,0,1.2,0c0.4,0,0.9,0,1.1,0
			c0.1,0,0.1,0.2,0,0.2l-0.2,0.1c-0.4,0.1-0.4,0.1-0.7,0.9l-0.3,1c0,0.1,0,0.2,0.1,0.3c0,0,0,0.1,0,0.1c-0.7,0.2-1.6,0.5-2.1,0.5
			c-1.8,0-2.8-1-2.8-2.6c0-1,0.4-2.2,1.4-3.1c1-0.8,2.1-1.2,3.5-1.2c0.8,0,1.5,0.2,1.7,0.3c-0.2,0.4-0.4,0.9-0.5,1.3
			c0,0.1-0.2,0.1-0.2,0c0.2-0.9-0.1-1.3-1.1-1.3c-1.2,0-2,0.4-2.6,1.1c-0.7,0.7-1.3,2-1.3,3.1c0,1.6,1,2.1,2,2.1
			c0.7,0,1.1-0.1,1.3-0.7L82.1,113.8z"/>
		<path d="M87.2,112c0,0.8-1,1.3-2.4,1.7c-0.1,0.2-0.1,0.5-0.1,0.9c0,0.3,0.2,0.6,0.5,0.6c0.4,0,0.6-0.2,1-0.6
			c0.1,0,0.1,0.1,0.1,0.2c-0.6,0.7-1.2,0.9-1.6,0.9c-0.6,0-0.8-0.6-0.8-1c0-0.6,0.4-1.8,1.5-2.7c0.5-0.4,0.9-0.5,1.2-0.5
			C87,111.4,87.2,111.8,87.2,112z M85.6,112.2c-0.4,0.4-0.6,0.9-0.7,1.2c0.7-0.2,1-0.4,1.3-0.7c0.3-0.3,0.4-0.6,0.4-0.7
			c0-0.1,0-0.2-0.2-0.2C86.3,111.7,86,111.8,85.6,112.2z"/>
		<path d="M88.7,113.6L88.7,113.6c0.7-1.1,1.7-2.2,2.5-2.2c0.4,0,0.6,0.2,0.6,0.5c0,0.2-0.1,0.5-0.2,0.7c-0.2,0.5-0.9,2.1-0.9,2.2
			c0,0.1,0,0.2,0,0.2c0.2,0,0.6-0.3,0.9-0.7c0.1,0,0.2,0.1,0.2,0.1c-0.4,0.6-1.2,1.1-1.7,1.1c-0.1,0-0.2-0.1-0.2-0.2
			c0-0.1,0-0.2,0.2-0.7c0.2-0.5,0.6-1.5,0.8-2c0.1-0.2,0.2-0.5,0.2-0.7c0-0.1,0-0.2-0.2-0.2c-0.2,0-0.8,0.5-1.4,1.2
			c-0.5,0.7-0.9,1.4-1.5,2.5c0,0.1-0.1,0.1-0.2,0.1c-0.1,0-0.4,0-0.3-0.3l1.2-3.1c0.1-0.1,0.1-0.2,0-0.2c-0.2,0-0.6,0.2-0.9,0.5
			c-0.1,0-0.1-0.1-0.1-0.1c0.4-0.5,1-0.9,1.5-0.9c0.2,0,0.3,0.2,0.3,0.4L88.7,113.6z"/>
		<path d="M95.7,112c0,0.8-1,1.3-2.4,1.7c-0.1,0.2-0.1,0.5-0.1,0.9c0,0.3,0.2,0.6,0.5,0.6c0.4,0,0.6-0.2,1-0.6
			c0.1,0,0.1,0.1,0.1,0.2c-0.6,0.7-1.2,0.9-1.6,0.9c-0.6,0-0.8-0.6-0.8-1c0-0.6,0.4-1.8,1.5-2.7c0.5-0.4,0.9-0.5,1.2-0.5
			C95.5,111.4,95.7,111.8,95.7,112z M94.1,112.2c-0.4,0.4-0.6,0.9-0.7,1.2c0.7-0.2,1-0.4,1.3-0.7c0.3-0.3,0.4-0.6,0.4-0.7
			c0-0.1,0-0.2-0.2-0.2C94.7,111.7,94.5,111.8,94.1,112.2z"/>
		<path d="M97.5,112.4l-0.4,1.3h0.1c0.3-0.6,0.8-1.4,1-1.7c0.2-0.3,0.5-0.5,0.7-0.5c0.3,0,0.4,0.3,0.4,0.5s-0.1,0.4-0.2,0.6
			c-0.1,0.1-0.3,0.2-0.3,0c0-0.3-0.1-0.4-0.2-0.4c-0.1,0-0.2,0.1-0.3,0.3c-0.6,0.8-1.2,2-1.7,3.1c0,0.1-0.1,0.1-0.2,0.1
			c-0.1,0-0.4,0-0.3-0.3c0.1-0.4,0.8-2.2,1-3.1c0-0.1,0-0.2-0.1-0.2c-0.3,0-0.5,0.3-0.7,0.5c-0.1,0-0.2,0-0.2-0.2
			c0.3-0.5,0.7-1,1.2-1C97.8,111.4,97.6,112.1,97.5,112.4z"/>
		<path d="M102.5,111.2c0.2-0.1,0.4,0,0.5,0.1c-0.1,0.4-1,2.6-1.3,3.5c-0.1,0.2,0,0.2,0.1,0.2c0.2,0,0.5-0.2,1-0.7
			c0.1,0,0.1,0,0.1,0.1c-0.4,0.6-1.1,1.1-1.7,1.1c-0.2,0-0.3-0.2-0.3-0.3c0-0.1,0-0.2,0.1-0.4l0.3-0.9l0,0c-0.7,0.9-1.7,1.6-2.2,1.6
			c-0.3,0-0.4-0.3-0.4-0.6c0-0.2,0.2-1,0.9-1.9c0.5-0.7,0.9-1.1,1.3-1.3c0.4-0.2,0.6-0.3,0.9-0.3c0.1,0,0.2,0,0.2,0.1
			c0,0,0.1,0.1,0.2,0.2L102.5,111.2z M100.8,112.3c-0.6,0.6-1.2,1.9-1.2,2.6c0,0.1,0.1,0.2,0.1,0.2c0.1,0,0.4-0.1,1-0.6
			c0.8-0.7,1.2-1.6,1.3-2.2c-0.1-0.2-0.2-0.4-0.5-0.4C101.3,112,101.1,112.1,100.8,112.3z"/>
		<path d="M105.3,112l-0.9,2.7c-0.1,0.2,0,0.2,0.1,0.2c0.1,0,0.8-0.5,1.1-0.9c0.1,0,0.2,0.1,0.1,0.2c-0.6,0.8-1.5,1.4-1.9,1.4
			c-0.1,0-0.3-0.1-0.3-0.3c0-0.1,0-0.3,0.1-0.6l1-2.8h-0.8c0-0.1,0-0.2,0.1-0.3l0.8-0.1l0.6-1c0.1-0.1,0.3,0,0.4,0.1l-0.3,1h1.1
			c0.1,0.1,0,0.3-0.1,0.4H105.3z"/>
		<path d="M109.5,112c0,0.8-1,1.3-2.4,1.7c-0.1,0.2-0.1,0.5-0.1,0.9c0,0.3,0.2,0.6,0.5,0.6c0.4,0,0.6-0.2,1-0.6
			c0.1,0,0.2,0.1,0.1,0.2c-0.6,0.7-1.2,0.9-1.6,0.9c-0.6,0-0.8-0.6-0.8-1c0-0.6,0.4-1.8,1.5-2.7c0.5-0.4,0.9-0.5,1.2-0.5
			C109.3,111.4,109.5,111.8,109.5,112z M108,112.2c-0.4,0.4-0.6,0.9-0.7,1.2c0.7-0.2,1-0.4,1.3-0.7c0.3-0.3,0.4-0.6,0.4-0.7
			c0-0.1,0-0.2-0.2-0.2C108.6,111.7,108.3,111.8,108,112.2z"/>
	</g>
	<path class="st3" d="M197.6,103.1h-18.8c-5,0-9-4-9-9V27c0-5,4-9,9-9h18.8c5,0,9,4,9,9v67.1C206.6,99,202.6,103.1,197.6,103.1z"/>
	<g>
		<path d="M178.8,115c0-0.4,0.1-0.9,0.2-1.2c0.1,0,0.2,0,0.2,0c0.1,0.9,0.5,1.5,1.5,1.5c0.6,0,1.5-0.4,1.5-1.4c0-0.7-0.5-1.1-1-1.6
			c-0.5-0.4-1-1-1-1.7c0-1.1,0.9-1.9,2.2-1.9c0.6,0,1.2,0.2,1.4,0.4c-0.1,0.2-0.3,0.8-0.4,1.2c-0.1,0.1-0.2,0.1-0.3,0
			c0.1-0.7,0-1.2-0.9-1.2c-0.9,0-1.3,0.6-1.3,1.3c0,0.7,0.6,1.2,1,1.4c0.6,0.5,1.1,1,1.1,1.8c0,1.2-0.9,2.1-2.3,2.1
			C179.8,115.7,179.1,115.5,178.8,115z"/>
		<path d="M186.4,108.4l-0.7,2l-1,3l0,0c0.7-1,1.2-1.4,1.6-1.6c0.4-0.3,0.7-0.4,1-0.4c0.4,0,0.6,0.3,0.6,0.7c0,0.7-0.4,1.7-0.8,2.3
			c-0.2,0.3-0.4,0.6-0.7,0.8c-0.3,0.3-0.6,0.4-0.7,0.4c-0.3,0-0.4-0.2-0.4-0.3c0-0.2,0.1-0.3,0.3-0.3c0,0,0.1,0,0.1,0.1
			c0.1,0.1,0.2,0.1,0.3,0.1c0.2,0,0.2-0.1,0.4-0.5c0.3-0.6,0.7-2,0.7-2.6c0-0.2-0.1-0.3-0.2-0.3c-0.1,0-0.4,0.1-0.5,0.3
			c-0.4,0.3-0.8,0.6-1.3,1.3c-0.4,0.6-0.9,1.6-1.2,2.1c0,0.1-0.1,0.1-0.2,0.1c-0.1,0-0.4,0-0.3-0.3l1.9-5.6c0.2-0.7,0.3-0.8,0.1-0.9
			l-0.2-0.1c0-0.1,0-0.1,0-0.1C185.3,108.5,186,108.4,186.4,108.4L186.4,108.4z"/>
		<path d="M191.8,111.2c0.2-0.1,0.4,0,0.5,0.1c-0.2,0.4-1,2.6-1.3,3.5c-0.1,0.2,0,0.2,0.1,0.2c0.2,0,0.5-0.2,1-0.7
			c0.1,0,0.1,0,0.1,0.1c-0.4,0.6-1.1,1.1-1.7,1.1c-0.2,0-0.3-0.2-0.3-0.3c0-0.1,0-0.2,0.1-0.4l0.3-0.9l0,0c-0.7,0.9-1.7,1.6-2.2,1.6
			c-0.3,0-0.4-0.3-0.4-0.6c0-0.2,0.2-1,0.9-1.9c0.5-0.7,0.9-1.1,1.3-1.3c0.4-0.2,0.6-0.3,0.9-0.3c0.1,0,0.2,0,0.2,0.1
			c0,0,0.1,0.1,0.2,0.2L191.8,111.2z M190.1,112.3c-0.6,0.6-1.2,1.9-1.2,2.6c0,0.1,0.1,0.2,0.2,0.2c0.1,0,0.4-0.1,1-0.6
			c0.8-0.7,1.2-1.6,1.3-2.2c-0.1-0.2-0.2-0.4-0.5-0.4C190.5,112,190.4,112.1,190.1,112.3z"/>
		<path d="M194.3,112.4l-0.4,1.3h0c0.3-0.6,0.8-1.4,1-1.7c0.2-0.3,0.5-0.5,0.7-0.5c0.4,0,0.4,0.3,0.4,0.5s-0.1,0.4-0.2,0.6
			c-0.1,0.1-0.3,0.2-0.3-0.1c0-0.3-0.1-0.4-0.2-0.4c-0.1,0-0.2,0.1-0.4,0.3c-0.6,0.8-1.2,2-1.7,3.1c0,0.1-0.1,0.1-0.2,0.1
			c-0.1,0-0.4,0-0.3-0.3c0.1-0.4,0.8-2.2,1-3.1c0-0.1,0-0.2-0.1-0.2c-0.3,0-0.5,0.3-0.7,0.5c-0.1,0-0.2,0-0.2-0.2
			c0.3-0.5,0.7-1,1.2-1C194.6,111.4,194.4,112.1,194.3,112.4z"/>
		<path d="M199.2,112c0,0.8-1,1.3-2.4,1.7c-0.1,0.2-0.1,0.5-0.1,0.9c0,0.3,0.2,0.6,0.5,0.6c0.4,0,0.6-0.2,1-0.6
			c0.1,0,0.1,0.1,0.1,0.2c-0.6,0.7-1.2,0.9-1.6,0.9c-0.6,0-0.8-0.6-0.8-1c0-0.6,0.4-1.8,1.5-2.7c0.5-0.4,0.9-0.5,1.2-0.5
			C199,111.4,199.2,111.8,199.2,112z M197.6,112.2c-0.4,0.4-0.6,0.9-0.7,1.2c0.7-0.2,1-0.4,1.3-0.7c0.3-0.3,0.4-0.6,0.4-0.7
			c0-0.1,0-0.2-0.2-0.2C198.2,111.7,198,111.8,197.6,112.2z"/>
	</g>
	<g>
		<g>
			<line class="st2" x1="135" y1="60.5" x2="160.2" y2="60.5"/>
			<g>
				<path d="M163.9,60.5c-1.7,0.6-3.8,1.7-5.1,2.9l1-2.9l-1-2.9C160,58.8,162.2,59.9,163.9,60.5z"/>
			</g>
		</g>
	</g>
</g>
<g>
	<g>
		<path d="M12,175.7c0-1.2,0-1.3-0.5-1.4l-0.3,0c-0.1-0.1-0.1-0.4,0-0.4c0.9-0.1,1.8-0.1,3-0.1c1.2,0,1.9,0.1,2.4,0.4
			c0.5,0.3,0.8,0.8,0.8,1.5c0,1-0.9,1.4-1.2,1.5c-0.1,0-0.2,0.1-0.2,0.1c0,0,0.1,0.1,0.2,0.1c0.9,0.2,1.8,0.8,1.8,2
			c0,1.1-0.6,1.8-1.4,2c-0.8,0.3-1.7,0.3-2.4,0.3c-0.4,0-0.9,0-1.2,0c-0.6,0-1.2,0-1.9,0c-0.1-0.1-0.1-0.4,0-0.4l0.3-0.1
			c0.5-0.1,0.6-0.2,0.6-1.3V175.7z M13.7,176.9c0,0.3,0,0.3,0.6,0.3c1,0,1.4-0.7,1.4-1.4c0-1-0.6-1.6-1.5-1.6
			c-0.6,0-0.6,0.1-0.6,0.6V176.9z M13.7,179.6c0,0.9,0.1,1.5,1.1,1.5c0.9,0,1.4-0.7,1.4-1.7c0-1-0.6-1.8-1.8-1.8
			c-0.7,0-0.7,0-0.7,0.5V179.6z"/>
		<path d="M18.7,179.4c0-1.7,1.3-2.7,2.8-2.7c1.4,0,2.7,0.9,2.7,2.6c0,1.8-1.3,2.6-2.8,2.6C20,181.8,18.7,181,18.7,179.4z
			 M20.5,179.1c0,1.3,0.4,2.2,1.1,2.2c0.7,0,0.9-0.8,0.9-1.9c0-1.2-0.3-2.2-1-2.2C20.9,177.3,20.5,177.8,20.5,179.1z"/>
		<path d="M26.9,176.7c0,0.2,0.1,0.3,0.1,0.3c0.3-0.2,0.8-0.3,1.3-0.3c1.4,0,2.2,1,2.2,2.4c0,1.7-1.2,2.7-3,2.7
			c-0.5,0-1.1-0.1-1.3-0.2c-0.2-0.1-0.3-0.1-0.4-0.1c-0.1,0-0.3,0.1-0.4,0.2c-0.1,0-0.2,0-0.2-0.1c0-0.2,0-0.6,0-1.2V175
			c0-0.5,0-0.6-0.2-0.8l-0.2-0.1c-0.1-0.1-0.1-0.3,0-0.4c0.5-0.1,1.2-0.4,1.8-0.7c0.1,0,0.2,0,0.2,0.1c0,0.5,0,1,0,1.8V176.7z
			 M26.9,180c0,0.3,0.1,0.6,0.2,0.9c0.2,0.2,0.4,0.4,0.7,0.4c0.8,0,1.1-0.9,1.1-1.8c0-1.2-0.6-2-1.4-2c-0.2,0-0.4,0.1-0.5,0.1
			c-0.1,0.1-0.1,0.3-0.1,0.6V180z"/>
		<path d="M33.3,176.7c0,0.2,0.1,0.3,0.1,0.3c0.3-0.2,0.8-0.3,1.3-0.3c1.4,0,2.2,1,2.2,2.4c0,1.7-1.2,2.7-3,2.7
			c-0.5,0-1.1-0.1-1.3-0.2c-0.2-0.1-0.3-0.1-0.4-0.1c-0.1,0-0.3,0.1-0.4,0.2c-0.1,0-0.2,0-0.2-0.1c0-0.2,0-0.6,0-1.2V175
			c0-0.5,0-0.6-0.2-0.8l-0.2-0.1c-0.1-0.1-0.1-0.3,0-0.4c0.5-0.1,1.2-0.4,1.8-0.7c0.1,0,0.2,0,0.2,0.1c0,0.5,0,1,0,1.8V176.7z
			 M33.3,180c0,0.3,0.1,0.6,0.2,0.9c0.2,0.2,0.4,0.4,0.7,0.4c0.8,0,1.1-0.9,1.1-1.8c0-1.2-0.6-2-1.4-2c-0.2,0-0.4,0.1-0.5,0.1
			c-0.1,0.1-0.1,0.3-0.1,0.6V180z"/>
		<path d="M37.2,177.3c-0.1-0.1-0.1-0.4,0-0.4c0.4,0,0.9,0,1.6,0c0.4,0,0.9,0,1.3,0c0.1,0,0.1,0.3,0,0.4l-0.2,0
			c-0.3,0.1-0.4,0.1-0.4,0.2c0,0.1,0.1,0.5,0.4,1.1c0.1,0.3,0.4,1.1,0.5,1.4c0.1-0.3,0.3-0.5,0.4-0.8l0.2-0.5
			c0.3-0.6,0.4-1.1,0.4-1.2c0-0.1-0.1-0.1-0.3-0.2l-0.2,0c-0.1-0.1-0.1-0.4,0-0.4c0.3,0,0.6,0,1.2,0c0.3,0,0.6,0,0.9,0
			c0.1,0,0.1,0.3,0,0.4l-0.2,0c-0.2,0-0.4,0.1-0.6,0.3c-0.1,0.2-0.4,0.7-0.7,1.3l-0.6,1.3l-1.8,3.8c-0.3,0.5-0.6,0.8-1,0.8
			c-0.6,0-0.8-0.4-0.8-0.7c0-0.4,0.3-0.6,0.7-0.6h0.3c0.3,0,0.5-0.1,0.6-0.3c0.1-0.2,0.2-0.4,0.3-0.7c0.1-0.1,0.2-0.4,0.2-0.5
			c0-0.2,0-0.4-0.2-0.9l-1.2-2.9c-0.2-0.6-0.3-0.8-0.7-0.9L37.2,177.3z"/>
		<path d="M43.5,178c0-0.6,0.4-1,1-1c0.6,0,1,0.5,1,1c0,0.5-0.4,0.9-1,0.9C44,178.9,43.5,178.5,43.5,178z M43.5,180.9
			c0-0.6,0.4-1,1-1c0.6,0,1,0.5,1,1c0,0.6-0.4,1-1,1C44,181.8,43.5,181.4,43.5,180.9z"/>
	</g>
	<g>
		<polygon class="st4" points="134,192.7 132,192.7 132,191.6 134,191.6 134,188.8 130,188.8 130,195.5 134,195.5 		"/>
		<rect x="129" y="168.5" class="st4" width="1.9" height="27"/>
		<path class="st4" d="M128.6,168.9L128.6,168.9c0-0.1,0.1-0.3,0.3-0.3h2.2c0.1,0,0.3,0.1,0.3,0.3l0,0c0,0.1-0.1,0.3-0.3,0.3h-2.2
			C128.7,169.1,128.6,169,128.6,168.9z"/>
		<path class="st4" d="M128.6,169.4L128.6,169.4c0-0.1,0.1-0.3,0.3-0.3h2.2c0.1,0,0.3,0.1,0.3,0.3l0,0c0,0.1-0.1,0.3-0.3,0.3h-2.2
			C128.7,169.7,128.6,169.5,128.6,169.4z"/>
		<path class="st4" d="M128.6,188.5L128.6,188.5c0-0.1,0.1-0.3,0.3-0.3h2.2c0.1,0,0.3,0.1,0.3,0.3l0,0c0,0.1-0.1,0.3-0.3,0.3h-2.2
			C128.7,188.8,128.6,188.7,128.6,188.5z"/>
		<path class="st4" d="M135.4,164.5L135.4,164.5c0-2.2-1.8-4.1-4.1-4.1h-0.3c0-0.6-0.5-1.1-1.1-1.1s-1.1,0.5-1.1,1.1h-0.3
			c-2.2,0-4.1,1.8-4.1,4.1v0c0,2.2,1.8,4.1,4.1,4.1h2.7C133.6,168.5,135.4,166.7,135.4,164.5z M130,159.9c0.3,0,0.5,0.2,0.5,0.5
			c0,0.3-0.2,0.5-0.5,0.5s-0.5-0.2-0.5-0.5C129.4,160.1,129.7,159.9,130,159.9z M128.6,167.2c-1.5,0-2.7-1.2-2.7-2.7v0
			c0-0.9,0.5-1.7,1.1-2.2c0.7-0.5,1.6-0.4,2.3,0.1l0.6,0.5l0.6-0.5c0.7-0.5,1.6-0.6,2.3-0.1c0.7,0.5,1.1,1.3,1.1,2.2v0
			c0,1.5-1.2,2.7-2.7,2.7H128.6z"/>
	</g>
	<g>
		<path d="M122.6,202.8c-0.1-0.2-0.1-0.2-0.3-0.2h-1.2c-0.2,0-0.2,0-0.3,0.2l-0.3,0.8c-0.1,0.4-0.2,0.6-0.2,0.7c0,0.1,0,0.1,0.2,0.2
			l0.3,0c0.1,0,0.1,0.2,0,0.2c-0.2,0-0.5,0-0.8,0c-0.3,0-0.6,0-0.8,0c0,0-0.1-0.2,0-0.2l0.3,0c0.2,0,0.4-0.1,0.5-0.4
			c0.1-0.4,0.4-0.9,0.7-1.8l0.8-2.2c0.1-0.3,0.2-0.4,0.1-0.6c0.2-0.1,0.3-0.2,0.4-0.3c0,0,0.1,0,0.1,0.1c0.1,0.4,0.2,0.7,0.4,1.1
			l1.1,3.2c0.2,0.7,0.3,0.8,0.7,0.8l0.2,0c0.1,0,0,0.2,0,0.2c-0.3,0-0.6,0-1,0c-0.4,0-0.7,0-0.9,0c-0.1,0-0.1-0.2,0-0.2l0.2,0
			c0.2,0,0.3-0.1,0.3-0.1c0-0.1,0-0.2-0.1-0.4L122.6,202.8z M121,202.1c-0.1,0.2-0.1,0.2,0.2,0.2h1c0.2,0,0.2,0,0.2-0.2l-0.4-1.3
			c-0.1-0.2-0.1-0.4-0.2-0.5h0c0,0-0.1,0.2-0.2,0.5L121,202.1z"/>
		<path d="M126.5,201.5c0.1,0.2,0.1,0.4,0.1,0.6c0,0.1-0.2,0.1-0.2,0c-0.1-0.4-0.4-0.6-0.7-0.6c-0.3,0-0.5,0.2-0.5,0.5
			c0,0.3,0.3,0.5,0.6,0.7c0.4,0.2,0.8,0.5,0.8,1.1c0,0.6-0.6,0.9-1.2,0.9c-0.4,0-0.7-0.1-0.9-0.2c-0.1-0.2-0.1-0.5-0.1-0.8
			c0,0,0.1-0.1,0.2,0c0.1,0.4,0.4,0.8,0.8,0.8c0.3,0,0.5-0.2,0.5-0.5c0-0.4-0.3-0.6-0.6-0.7c-0.5-0.3-0.8-0.5-0.8-1
			c0-0.6,0.5-0.9,1.1-0.9C126.2,201.4,126.5,201.5,126.5,201.5z"/>
		<path d="M129.1,201.5c0.1,0.2,0.1,0.4,0.1,0.6c0,0.1-0.2,0.1-0.2,0c-0.1-0.4-0.4-0.6-0.7-0.6c-0.3,0-0.5,0.2-0.5,0.5
			c0,0.3,0.3,0.5,0.6,0.7c0.4,0.2,0.8,0.5,0.8,1.1c0,0.6-0.6,0.9-1.2,0.9c-0.4,0-0.7-0.1-0.9-0.2c-0.1-0.2-0.1-0.5-0.1-0.8
			c0,0,0.1-0.1,0.2,0c0.1,0.4,0.4,0.8,0.8,0.8c0.3,0,0.5-0.2,0.5-0.5c0-0.4-0.3-0.6-0.6-0.7c-0.5-0.3-0.8-0.5-0.8-1
			c0-0.6,0.5-0.9,1.1-0.9C128.7,201.4,129,201.5,129.1,201.5z"/>
		<path d="M131.4,203c0.1,0,0.1-0.1,0.1-0.2l0-0.4c0-0.3-0.1-0.7-0.6-0.7c-0.2,0-0.5,0.1-0.5,0.4c0,0.1,0,0.2-0.1,0.3
			c-0.1,0.1-0.3,0.2-0.5,0.2c-0.1,0-0.1,0-0.1-0.1c0-0.4,0.9-1,1.5-1c0.6,0,0.9,0.3,0.8,0.9l0,1.4c0,0.4,0.1,0.7,0.4,0.7
			c0.1,0,0.2,0,0.2,0c0,0,0.1-0.1,0.1-0.1c0,0,0.1,0,0.1,0.1c0,0-0.3,0.4-0.7,0.4c-0.2,0-0.4-0.1-0.5-0.2c0,0-0.1-0.1-0.1-0.1
			c-0.1,0-0.2,0.1-0.3,0.2c-0.2,0.1-0.4,0.2-0.6,0.2c-0.2,0-0.4-0.1-0.6-0.2c-0.2-0.1-0.2-0.3-0.2-0.6c0-0.3,0.2-0.5,0.7-0.7
			L131.4,203z M130.9,204.4c0.2,0,0.4-0.1,0.5-0.2c0.1-0.1,0.1-0.2,0.1-0.4l0-0.5c0-0.1,0-0.1-0.1-0.1s-0.2,0-0.3,0.1
			c-0.5,0.2-0.7,0.3-0.7,0.6C130.4,204,130.5,204.4,130.9,204.4z"/>
		<path d="M134.2,201.8c-0.1,0-0.1,0-0.1,0.2v1.5c0,0.5,0.1,0.9,0.6,0.9c0.1,0,0.2,0,0.2,0c0.1,0,0.2-0.1,0.2-0.1
			c0.1,0,0.1,0.1,0.1,0.1c-0.1,0.2-0.4,0.4-0.8,0.4c-0.7,0-0.8-0.4-0.8-0.9v-1.8c0-0.2,0-0.2-0.2-0.2h-0.2c0,0-0.1-0.1,0-0.2
			c0.2-0.1,0.4-0.2,0.5-0.2c0.1-0.1,0.3-0.3,0.3-0.5c0,0,0.1,0,0.2,0v0.4c0,0.1,0,0.2,0.1,0.2h0.9c0.1,0.1,0.1,0.3,0,0.3H134.2z"/>
		<path d="M137.1,203c0.1,0,0.1-0.1,0.1-0.2l0-0.4c0-0.3-0.1-0.7-0.6-0.7c-0.2,0-0.5,0.1-0.5,0.4c0,0.1,0,0.2-0.1,0.3
			c-0.1,0.1-0.3,0.2-0.5,0.2c-0.1,0-0.1,0-0.1-0.1c0-0.4,0.9-1,1.5-1c0.6,0,0.9,0.3,0.8,0.9l0,1.4c0,0.4,0.1,0.7,0.4,0.7
			c0.1,0,0.2,0,0.2,0c0,0,0.1-0.1,0.1-0.1c0,0,0.1,0,0.1,0.1c0,0-0.3,0.4-0.7,0.4c-0.2,0-0.4-0.1-0.5-0.2c0,0-0.1-0.1-0.1-0.1
			c-0.1,0-0.2,0.1-0.3,0.2c-0.2,0.1-0.4,0.2-0.6,0.2c-0.2,0-0.4-0.1-0.6-0.2c-0.2-0.1-0.2-0.3-0.2-0.6c0-0.3,0.2-0.5,0.7-0.7
			L137.1,203z M136.6,204.4c0.2,0,0.4-0.1,0.5-0.2c0.1-0.1,0.1-0.2,0.1-0.4l0-0.5c0-0.1,0-0.1-0.1-0.1c0,0-0.2,0-0.3,0.1
			c-0.5,0.2-0.7,0.3-0.7,0.6C136.1,204,136.2,204.4,136.6,204.4z"/>
		<path d="M139.3,199.8c0,0.6-0.4,0.9-0.9,1.1c-0.1,0-0.1-0.1-0.1-0.2c0.3-0.1,0.6-0.4,0.6-0.7c0-0.3-0.2-0.4-0.4-0.4
			c-0.1,0-0.2-0.1-0.2-0.2c0-0.1,0.1-0.3,0.4-0.3C139,199,139.3,199.4,139.3,199.8z"/>
		<path d="M141.3,201.5c0.1,0.2,0.1,0.4,0.1,0.6c0,0.1-0.2,0.1-0.2,0c-0.1-0.4-0.4-0.6-0.7-0.6c-0.3,0-0.5,0.2-0.5,0.5
			c0,0.3,0.3,0.5,0.6,0.7c0.4,0.2,0.8,0.5,0.8,1.1c0,0.6-0.6,0.9-1.2,0.9c-0.4,0-0.7-0.1-0.9-0.2c-0.1-0.2-0.1-0.5-0.1-0.8
			c0,0,0.1-0.1,0.2,0c0.1,0.4,0.4,0.8,0.8,0.8c0.3,0,0.5-0.2,0.5-0.5c0-0.4-0.3-0.6-0.6-0.7c-0.5-0.3-0.8-0.5-0.8-1
			c0-0.6,0.5-0.9,1.1-0.9C140.9,201.4,141.2,201.5,141.3,201.5z"/>
		<path d="M122.6,209.2c-0.1,0,0-0.1,0-0.2c0.3-0.1,0.8-0.1,1.3-0.1c0.8,0,1.3,0.2,1.6,0.4c0.3,0.3,0.4,0.6,0.4,1
			c0,0.5-0.3,1-0.7,1.2c-0.4,0.3-1,0.4-1.5,0.4c-0.1,0-0.1-0.1,0-0.2c0.6-0.1,1.5-0.5,1.5-1.6c0-0.7-0.4-1-1.1-1
			c-0.3,0-0.3,0-0.4,0.3l-1.1,3.6c-0.2,0.7-0.3,0.9,0.2,1l0.3,0c0,0.1,0,0.2,0,0.2c-0.4,0-0.7,0-1,0c-0.3,0-0.6,0-0.9,0
			c-0.1,0-0.1-0.2,0-0.2l0.2,0c0.4,0,0.5-0.1,0.7-1l1-3.3c0.1-0.4,0.1-0.5-0.2-0.5L122.6,209.2z"/>
		<path d="M126.5,213.5c-0.1,0.2,0,0.3,0.1,0.3c0.1,0,0.4-0.3,0.9-0.7c0.7-0.7,1.1-1.6,1.4-2.1c0.2,0,0.4,0,0.4,0.1
			c-0.1,0.2-0.6,1.5-0.9,2.5c0,0.1,0,0.2,0,0.2c0.2,0,0.6-0.4,0.8-0.6c0.1,0,0.1,0,0.1,0.1c-0.2,0.4-1,1-1.4,1
			c-0.1,0-0.2-0.2-0.2-0.3l0.5-1.5l0,0c-0.6,0.7-1.6,1.8-2,1.8c-0.3,0-0.4-0.3-0.2-0.7l0.7-1.9c0.1-0.2,0.1-0.2,0-0.2
			c-0.2,0-0.6,0.4-0.8,0.6c-0.1,0-0.1,0-0.1-0.1c0.2-0.3,1-1,1.4-1c0.1,0,0.3,0.1,0.2,0.2L126.5,213.5z"/>
		<path d="M130.7,212.4L130.7,212.4c0.6-0.8,1.1-1.4,1.7-1.4c0.5,0,0.7,0.3,0.7,0.7c0,0.6-0.4,1.2-1,1.9c-0.7,0.6-1.2,0.8-1.5,0.8
			c-0.4,0-0.6-0.3-0.6-0.7c0-0.4,0.2-1,0.4-1.6l0.9-2.5c0.2-0.4,0.2-0.6,0.1-0.7l-0.2-0.1c0,0,0-0.1,0-0.1c0.2-0.1,0.6-0.2,1-0.2
			l0,0l-0.4,1.1L130.7,212.4z M131.1,212.1c-0.5,0.6-0.8,1.2-0.8,1.6c0,0.3,0.1,0.4,0.3,0.4c0.1,0,0.4-0.2,0.8-0.5
			c0.5-0.6,1.1-1.6,1.1-2c0-0.2-0.1-0.3-0.3-0.3C132,211.2,131.6,211.5,131.1,212.1z"/>
		<path d="M134,213.7c-0.1,0.2-0.1,0.3,0,0.3c0.2,0,0.6-0.4,0.9-0.8c0.1,0,0.1,0,0.1,0.1c-0.2,0.4-0.7,1.1-1.4,1.1
			c-0.2,0-0.3-0.1-0.3-0.2s0-0.3,0.2-0.7l1.3-3.8c0.2-0.6,0.1-0.6,0-0.7l-0.1-0.1c0,0,0-0.1,0-0.1c0.1-0.1,0.6-0.2,1-0.2l0,0
			c-0.1,0.3-0.2,0.5-0.5,1.4L134,213.7z"/>
		<path d="M136.4,211.6c0-0.1,0-0.2,0-0.2s-0.3,0.1-0.7,0.4c-0.1,0-0.1-0.1-0.1-0.1c0.4-0.5,1.1-0.8,1.3-0.8c0.1,0,0.1,0,0.1,0.1
			c0,0,0,0.1,0,0.4l-1,2.3c0,0.1,0,0.2,0,0.2c0.1,0,0.6-0.3,0.8-0.6c0.1,0,0.1,0.1,0.1,0.1c-0.1,0.2-0.9,1-1.5,1c0,0-0.1,0-0.1-0.1
			c0-0.1-0.1-0.1,0-0.2L136.4,211.6z M137.4,209.6c0,0.2-0.2,0.5-0.4,0.5c-0.2,0-0.3-0.2-0.3-0.3c0-0.2,0.1-0.5,0.4-0.5
			C137.3,209.3,137.4,209.5,137.4,209.6z"/>
		<path d="M140.2,211.4c0,0.3-0.3,0.4-0.4,0.4c-0.1,0-0.1,0-0.2-0.1c0-0.2,0-0.4-0.3-0.4c-0.2,0-0.4,0.2-0.7,0.5
			c-0.3,0.4-0.5,1-0.5,1.7c0,0.4,0.2,0.5,0.3,0.5c0.3,0,0.6-0.2,0.9-0.5c0.1,0,0.1,0.1,0.1,0.1c-0.3,0.4-0.8,0.8-1.3,0.8
			c-0.3,0-0.6-0.2-0.6-0.8c0-0.5,0.3-1.4,1-2.1c0.3-0.3,0.7-0.5,1-0.5C140,211,140.2,211.2,140.2,211.4z"/>
		<path d="M127.2,219.7c0.2-0.8,0.3-0.9-0.1-0.9l-0.2,0c0-0.1,0-0.2,0-0.2c0.3,0,0.5,0,0.9,0c0.3,0,0.6,0,1,0c0.1,0,0.1,0.2,0,0.2
			l-0.2,0c-0.5,0.1-0.5,0.2-0.8,0.9l-0.3,1.1c-0.1,0.2,0,0.2,0.1,0.2c0.1,0,0.2,0,0.3-0.1c0.2-0.1,0.5-0.4,0.8-0.7l0.8-0.8
			c0.4-0.4,0.5-0.5,0.5-0.6c0,0-0.1-0.1-0.2-0.1l-0.2,0c-0.1,0,0-0.2,0-0.2c0.3,0,0.5,0,0.9,0c0.4,0,0.6,0,0.9,0
			c0.1,0,0.1,0.2,0,0.2l-0.2,0c-0.1,0-0.3,0.1-0.5,0.1c-0.2,0.1-0.6,0.3-1.4,1.1l-1,0.9c-0.1,0.1-0.2,0.1-0.1,0.3l0.9,1.8
			c0.2,0.4,0.3,0.6,0.7,0.7l0.2,0c0.1,0,0,0.2,0,0.2c-0.3,0-0.6,0-0.8,0c-0.3,0-0.6,0-0.9,0c0-0.1,0-0.2,0-0.2l0.2,0
			c0.3,0,0.2-0.1,0.1-0.4l-0.8-1.6c-0.2-0.3-0.2-0.4-0.3-0.4c-0.2,0-0.2,0.1-0.3,0.2l-0.4,1.3c-0.2,0.7-0.3,0.9,0.2,1l0.2,0
			c0,0.1,0,0.2,0,0.2c-0.4,0-0.6,0-1,0c-0.3,0-0.6,0-0.9,0c-0.1,0-0.1-0.2,0-0.2l0.2,0c0.4,0,0.5-0.1,0.7-1L127.2,219.7z"/>
		<path d="M133.2,221.1c0,0.6-0.8,1-1.9,1.3c-0.1,0.1-0.1,0.4-0.1,0.7c0,0.3,0.2,0.5,0.4,0.5c0.3,0,0.5-0.2,0.8-0.5
			c0.1,0,0.1,0.1,0.1,0.1c-0.5,0.6-0.9,0.7-1.3,0.7c-0.5,0-0.6-0.4-0.6-0.8c0-0.5,0.3-1.5,1.2-2.2c0.4-0.3,0.7-0.4,1-0.4
			C133,220.6,133.2,220.8,133.2,221.1z M131.9,221.2c-0.3,0.3-0.5,0.7-0.6,0.9c0.5-0.2,0.8-0.3,1.1-0.6c0.2-0.2,0.3-0.5,0.3-0.5
			c0-0.1,0-0.2-0.2-0.2C132.4,220.8,132.2,220.9,131.9,221.2z"/>
		<path d="M134.7,221.9c0,0.5,0,1.1-0.1,1.8h0c0.3-0.4,0.5-0.9,0.7-1.4c0.2-0.5,0.3-1.3,0.3-1.5c0-0.2,0.1-0.2,0.2-0.2
			c0.1,0,0.2,0,0.2,0.1c0,0,0.1,0.1,0.1,0.2c0,0.2-0.2,1.2-0.9,2.4c-0.4,0.7-0.7,1.2-1.3,1.9c-0.6,0.7-1,0.8-1.2,0.8
			s-0.4-0.2-0.4-0.4s0.1-0.3,0.3-0.3c0.1,0,0.2,0,0.2,0.1c0,0,0.1,0.1,0.2,0.1c0.1,0,0.2-0.1,0.4-0.2c0.2-0.2,0.6-0.7,0.7-1.2
			c0.1-0.4,0.2-1.1,0.2-1.8c0-0.9-0.2-1.2-0.3-1.2c-0.2,0-0.3,0.3-0.5,0.6c-0.1,0-0.1,0-0.2-0.1c0.2-0.5,0.5-1,0.9-1
			C134.6,220.6,134.6,221.4,134.7,221.9z"/>
	</g>
	<g>
		<g>
			<line class="st2" x1="93" y1="179.9" x2="120.2" y2="179.9"/>
			<g>
				<path d="M123.9,179.9c-1.7,0.6-3.8,1.7-5.1,2.9l1-2.9l-1-2.9C120,178.2,122.2,179.3,123.9,179.9z"/>
			</g>
		</g>
	</g>
	<g>
		<g>
			<line class="st2" x1="137.4" y1="179.9" x2="164.8" y2="179.9"/>
			<g>
				<path d="M168.4,179.9c-1.7,0.6-3.8,1.7-5.1,2.9l1-2.9l-1-2.9C164.6,178.2,166.7,179.3,168.4,179.9z"/>
			</g>
		</g>
	</g>
	<g>
		<path class="st5" d="M173.5,190.1l7.7,7.7h22.6v-34.8c0-2.5-2-4.5-4.5-4.5h-25.9V190.1z"/>
		<g>
			<path d="M176.7,165.3c0-1.5,0.7-2.3,1.7-2.3c1,0,1.7,0.8,1.7,2.3c0,1.5-0.7,2.3-1.7,2.3C177.3,167.6,176.7,166.8,176.7,165.3z
				 M179.2,165.3c0-1.2-0.4-1.5-0.8-1.5s-0.8,0.3-0.8,1.5s0.3,1.5,0.8,1.5S179.2,166.5,179.2,165.3z M177.9,165.3
				c0-0.3,0.2-0.5,0.5-0.5c0.3,0,0.5,0.2,0.5,0.5s-0.2,0.5-0.5,0.5C178.1,165.8,177.9,165.6,177.9,165.3z"/>
			<path d="M181,166.7h1.1v-2.6h-0.9v-0.6c0.5-0.1,0.9-0.2,1.2-0.4h0.8v3.6h1v0.8H181V166.7z"/>
			<path d="M186.2,163h1.2l1.4,4.6h-1.1l-0.3-1.1h-1.4l-0.3,1.1h-1.1L186.2,163z M186.3,165.6h1l-0.1-0.4c-0.1-0.5-0.3-1-0.4-1.5h0
				c-0.1,0.5-0.2,1-0.4,1.5L186.3,165.6z"/>
			<path d="M189,166.8l1.3-1.2l0.4,0.3l-1.1,1.4L189,166.8z M189.1,164.2c0-0.7,0.4-1.2,1-1.2s1,0.4,1,1.2c0,0.7-0.4,1.2-1,1.2
				S189.1,164.9,189.1,164.2z M190.4,164.2c0-0.5-0.2-0.6-0.3-0.6s-0.3,0.1-0.3,0.6c0,0.5,0.2,0.6,0.3,0.6S190.4,164.6,190.4,164.2z
				 M190.8,166.4c0-0.7,0.4-1.2,1-1.2c0.6,0,1,0.4,1,1.2c0,0.7-0.4,1.2-1,1.2C191.3,167.6,190.8,167.2,190.8,166.4z M191.3,164.6
				l1.1-1.4l0.5,0.5l-1.3,1.2L191.3,164.6z M192.2,166.4c0-0.5-0.2-0.6-0.3-0.6c-0.2,0-0.3,0.1-0.3,0.6s0.2,0.6,0.3,0.6
				C192,167.1,192.2,166.9,192.2,166.4z"/>
			<path d="M176.6,173.7c0-1.5,0.9-2.4,2.1-2.4c0.6,0,1,0.3,1.3,0.6l-0.6,0.6c-0.2-0.2-0.4-0.3-0.8-0.3c-0.6,0-1,0.6-1,1.5
				c0,0.9,0.4,1.5,1.1,1.5c0.2,0,0.4,0,0.4-0.1v-0.8h-0.7v-0.8h1.6v2.1c-0.3,0.3-0.8,0.6-1.4,0.6C177.5,176,176.6,175.2,176.6,173.7
				z"/>
			<path d="M182.8,174.6h-0.7l-0.2,1.3h-0.6l0.2-1.3H181V174h0.6l0.1-0.8h-0.6v-0.7h0.6l0.1-1.2h0.6l-0.1,1.2h0.7l0.1-1.2h0.6
				l-0.1,1.2h0.6v0.7h-0.6l-0.1,0.8h0.6v0.7h-0.7l-0.2,1.3h-0.6L182.8,174.6z M183,173.2h-0.7l-0.1,0.8h0.7L183,173.2z"/>
			<path d="M185,175.4l0.5-0.7c0.3,0.3,0.7,0.4,1.1,0.4c0.5,0,0.8-0.2,0.8-0.5c0-0.4-0.3-0.6-1.3-0.6v-0.7c0.9,0,1.2-0.2,1.2-0.6
				c0-0.3-0.3-0.5-0.7-0.5c-0.4,0-0.6,0.1-0.9,0.4l-0.5-0.6c0.4-0.4,0.9-0.6,1.5-0.6c1,0,1.6,0.4,1.6,1.2c0,0.5-0.3,0.8-0.8,1v0
				c0.6,0.1,1,0.5,1,1.1c0,0.8-0.8,1.3-1.8,1.3C185.9,176,185.3,175.8,185,175.4z"/>
			<path d="M189.3,173.7c0-1.5,0.7-2.3,1.7-2.3s1.7,0.8,1.7,2.3c0,1.5-0.7,2.3-1.7,2.3S189.3,175.2,189.3,173.7z M191.8,173.7
				c0-1.2-0.3-1.5-0.8-1.5s-0.8,0.3-0.8,1.5s0.4,1.5,0.8,1.5S191.8,174.9,191.8,173.7z M190.5,173.7c0-0.3,0.2-0.5,0.5-0.5
				s0.5,0.2,0.5,0.5c0,0.3-0.2,0.5-0.5,0.5S190.5,174,190.5,173.7z"/>
			<path d="M193.6,175.1h1.1v-2.6h-0.9v-0.6c0.5-0.1,0.9-0.2,1.2-0.4h0.8v3.6h1v0.8h-3.2V175.1z"/>
			<path d="M197.7,173.7c0-1.5,0.7-2.3,1.7-2.3s1.7,0.8,1.7,2.3c0,1.5-0.7,2.3-1.7,2.3S197.7,175.2,197.7,173.7z M200.2,173.7
				c0-1.2-0.3-1.5-0.8-1.5s-0.8,0.3-0.8,1.5s0.4,1.5,0.8,1.5S200.2,174.9,200.2,173.7z M198.9,173.7c0-0.3,0.2-0.5,0.5-0.5
				s0.5,0.2,0.5,0.5c0,0.3-0.2,0.5-0.5,0.5S198.9,174,198.9,173.7z"/>
			<path d="M177.2,182.8c0.4,0.3,0.8,0.4,1.3,0.4c0.3,0,0.5-0.1,0.5-0.3c0-0.6-2-0.5-2-1.8c0-0.6,0.4-1,1.1-1.1v-0.9h0.7v0.9
				c0.5,0.1,0.8,0.3,1.1,0.6l-0.5,0.6c-0.3-0.2-0.6-0.4-1-0.4c-0.3,0-0.5,0.1-0.5,0.3c0,0.5,2,0.4,2,1.7c0,0.6-0.4,1.1-1.2,1.2v1
				h-0.7v-1c-0.5,0-1-0.2-1.3-0.6L177.2,182.8z"/>
			<path d="M181,179.8h1v1.9h0l1.4-1.9h1.1l-1.4,1.8l1.5,2.8h-1.1l-1-1.9l-0.5,0.7v1.2h-1V179.8z"/>
			<path d="M184.9,182.6c0-1.9,1-2.7,2.1-2.7c1.1,0,1.5,0.7,1.5,1.7v2.1H188l-0.1-0.4h0c-0.2,0.3-0.5,0.4-0.8,0.4
				c-0.5,0-0.9-0.4-0.9-1c0-0.8,0.7-1.1,1.7-1.2v-0.1c0-0.5-0.3-1-0.9-1c-0.7,0-1.4,0.6-1.4,2.1c0,1.5,0.7,2.2,1.5,2.2
				c0.4,0,0.7-0.1,0.9-0.3l0.3,0.5c-0.4,0.2-0.8,0.4-1.3,0.4C185.9,185.4,184.9,184.5,184.9,182.6z M187.8,182.8v-0.6
				c-0.7,0.1-0.9,0.3-0.9,0.6c0,0.2,0.1,0.3,0.4,0.3C187.5,183,187.6,183,187.8,182.8z"/>
			<path d="M190.1,182.4c0-1.3,0.6-2.4,1.5-3.2l0.6,0.5c-0.8,0.8-1.2,1.6-1.2,2.7s0.4,1.9,1.2,2.7l-0.6,0.5
				C190.7,184.8,190.1,183.7,190.1,182.4z"/>
			<path d="M194,185.1c0.8-0.8,1.2-1.6,1.2-2.7s-0.4-1.9-1.2-2.7l0.6-0.5c0.9,0.8,1.5,1.9,1.5,3.2c0,1.3-0.6,2.4-1.5,3.2L194,185.1z
				"/>
			<path d="M197.7,183.7l0.6-0.6c0.3,0.3,0.6,0.5,0.9,0.5c0.5,0,0.7-0.2,0.7-0.8v-2.1h-1.8v-0.9h2.8v3c0,0.9-0.4,1.6-1.7,1.6
				C198.7,184.4,198.1,184.2,197.7,183.7z"/>
			<path d="M176.9,188.2h3v0.9h-2v0.9h1.7v0.9H178v1.1h2.1v0.9h-3.1V188.2z"/>
			<path d="M181.9,192.1c0-0.4,0.3-0.7,0.7-0.7s0.7,0.3,0.7,0.7c0,0.4-0.3,0.7-0.7,0.7S181.9,192.5,181.9,192.1z M182.1,189l0-0.9h1
				l0,0.9l-0.1,2h-0.7L182.1,189z"/>
			<path d="M186.3,191.2l-1.5-3h1.1l0.5,1.1c0.1,0.4,0.3,0.7,0.4,1h0c0.1-0.4,0.3-0.7,0.4-1l0.5-1.1h1.1l-1.5,3v1.5h-1V191.2z"/>
			<path d="M189.3,192.3l0.5-0.6c0.2,0.2,0.5,0.3,0.8,0.3c0.5,0,1-0.4,1.1-1.4c-0.3,0.3-0.7,0.5-1.1,0.5c-0.8,0-1.4-0.4-1.4-1.4
				c0-0.9,0.7-1.5,1.6-1.5c0.9,0,1.8,0.6,1.8,2.2c0,1.7-0.9,2.4-1.9,2.4C190.1,192.8,189.6,192.6,189.3,192.3z M191.7,189.9
				c-0.1-0.7-0.5-0.9-0.8-0.9s-0.7,0.2-0.7,0.7c0,0.5,0.3,0.6,0.7,0.6C191.1,190.3,191.4,190.2,191.7,189.9z"/>
			<path d="M193.5,190.6c0-1.7,0.9-2.4,1.9-2.4c0.6,0,1.1,0.2,1.4,0.5l-0.5,0.6c-0.2-0.2-0.5-0.3-0.8-0.3c-0.5,0-1,0.4-1.1,1.4
				c0.3-0.3,0.7-0.5,1.1-0.5c0.8,0,1.4,0.4,1.4,1.4c0,0.9-0.7,1.5-1.6,1.5C194.4,192.8,193.5,192.2,193.5,190.6z M196,191.3
				c0-0.5-0.3-0.6-0.7-0.6c-0.3,0-0.5,0.1-0.8,0.4c0.1,0.7,0.4,0.9,0.8,0.9C195.6,192.1,196,191.8,196,191.3z"/>
			<path d="M199,190.8h-1.2v-0.7h1.2v-1.3h0.8v1.3h1.2v0.7h-1.2v1.3H199V190.8z"/>
		</g>
		<polygon class="st5" points="173.5,190.1 181.2,190.1 181.2,197.8 		"/>
	</g>
	<g>
		<path class="st5" d="M57.2,190.1l7.7,7.7h22.6v-34.8c0-2.5-2-4.5-4.5-4.5H57.2V190.1z"/>
		<line class="st6" x1="60.6" y1="164.3" x2="81" y2="164.3"/>
		<line class="st6" x1="60.6" y1="168.2" x2="77.4" y2="168.2"/>
		<line class="st6" x1="60.6" y1="172.1" x2="82.4" y2="172.1"/>
		<line class="st6" x1="60.6" y1="176" x2="83.3" y2="176"/>
		<line class="st6" x1="60.6" y1="179.9" x2="81.6" y2="179.9"/>
		<line class="st6" x1="60.6" y1="183.8" x2="82.4" y2="183.8"/>
		<line class="st6" x1="60.6" y1="187.7" x2="84.2" y2="187.7"/>
		<line class="st6" x1="64.9" y1="191.7" x2="81.6" y2="191.7"/>
		<polygon class="st5" points="57.2,190.1 64.9,190.1 64.9,197.8 		"/>
	</g>
	<g>
		<path class="st7" d="M198.8,154.2c-2.5,0-4.4,2-4.4,4.4c0,2.5,2,4.4,4.4,4.4s4.4-2,4.4-4.4C203.3,156.2,201.3,154.2,198.8,154.2z
			 M198.8,161.6c-1.6,0-3-1.3-3-3c0-1.6,1.3-3,3-3s3,1.3,3,3C201.8,160.3,200.5,161.6,198.8,161.6z"/>
		<path class="st7" d="M198.8,170.5L198.8,170.5c-3.3,0-5.9-2.7-5.9-5.9v-4.4c0-0.8,0.7-1.5,1.5-1.5h8.9c0.8,0,1.5,0.7,1.5,1.5v4.4
			C204.8,167.9,202.1,170.5,198.8,170.5z"/>
		<path class="st8" d="M200,163.3c0-0.7-0.5-1.2-1.2-1.2s-1.2,0.5-1.2,1.2c0,0.4,0.2,0.7,0.4,0.9v2.6h1.5v-2.6
			C199.8,164,200,163.7,200,163.3z"/>
	</g>
</g>
<g>
	<g>
		<path d="M13.1,286.3c-0.3,0-0.3,0-0.4,0.2l-0.5,1.4c-0.1,0.2-0.1,0.3-0.1,0.4c0,0.1,0.2,0.1,0.5,0.2l0.4,0.1
			c0.1,0.1,0.1,0.4,0,0.4c-0.4,0-0.9,0-1.4,0c-0.4,0-0.7,0-1.2,0c-0.1-0.1-0.1-0.3,0-0.4l0.3,0c0.3,0,0.5-0.1,0.7-0.6
			c0.2-0.5,0.4-1.1,0.8-1.9l1.1-2.9c0.3-0.8,0.5-1.2,0.4-1.5c0.6-0.1,1-0.7,1-0.7c0.2,0,0.2,0.1,0.3,0.2c0.1,0.3,0.2,0.8,0.5,1.6
			l1.6,4.7c0.3,0.7,0.4,1,0.8,1.1l0.5,0.1c0.1,0.1,0.1,0.3,0,0.4c-0.6,0-1.2,0-1.8,0c-0.6,0-1.1,0-1.6,0c-0.1-0.1-0.2-0.3,0-0.4
			l0.4-0.1c0.3,0,0.3-0.1,0.3-0.2c0-0.1-0.1-0.4-0.2-0.8l-0.3-1c-0.1-0.2-0.2-0.2-0.6-0.2H13.1z M14.5,285.7c0.3,0,0.3,0,0.2-0.3
			l-0.3-1c-0.2-0.5-0.4-1.2-0.5-1.4c-0.1,0.3-0.3,0.9-0.5,1.5l-0.3,0.9c-0.1,0.3,0,0.4,0.3,0.4H14.5z"/>
		<path d="M18.7,288.9c-0.1-0.2-0.2-0.8-0.2-1.4c0.1-0.1,0.3-0.1,0.4,0c0.2,0.5,0.6,1.2,1.2,1.2c0.4,0,0.6-0.2,0.6-0.6
			c0-0.4-0.4-0.7-0.8-0.9c-0.7-0.4-1.2-0.8-1.2-1.5c0-1,0.9-1.5,1.9-1.5c0.6,0,1.2,0.2,1.3,0.3c0.1,0.3,0.2,0.7,0.2,1.2
			c0,0.1-0.3,0.1-0.4,0c-0.2-0.7-0.5-0.9-0.9-0.9c-0.3,0-0.6,0.2-0.6,0.5c0,0.3,0.2,0.5,0.8,0.8c0.8,0.4,1.3,0.9,1.3,1.7
			c0,1.1-0.9,1.6-2.1,1.6C19.5,289.2,19,289.1,18.7,288.9z"/>
		<path d="M23,288.9c-0.1-0.2-0.2-0.8-0.2-1.4c0.1-0.1,0.3-0.1,0.4,0c0.2,0.5,0.6,1.2,1.2,1.2c0.4,0,0.6-0.2,0.6-0.6
			c0-0.4-0.4-0.7-0.8-0.9c-0.7-0.4-1.2-0.8-1.2-1.5c0-1,0.9-1.5,1.9-1.5c0.6,0,1.2,0.2,1.3,0.3c0.1,0.3,0.2,0.7,0.2,1.2
			c0,0.1-0.3,0.1-0.4,0c-0.2-0.7-0.5-0.9-0.9-0.9c-0.3,0-0.6,0.2-0.6,0.5c0,0.3,0.2,0.5,0.8,0.8c0.8,0.4,1.3,0.9,1.3,1.7
			c0,1.1-0.9,1.6-2.1,1.6C23.8,289.2,23.3,289.1,23,288.9z"/>
		<path d="M31.3,287.4c0,0.8,0.3,1,0.5,1c0.1,0,0.3,0,0.5-0.1c0.1,0,0.2,0.2,0.1,0.3c-0.1,0.2-0.7,0.6-1.4,0.6c-0.4,0-0.7-0.1-1-0.4
			c-0.1-0.1-0.1-0.1-0.2-0.1c-0.1,0-0.1,0-0.3,0.1c-0.2,0.2-0.6,0.4-1,0.4c-0.7,0-1.3-0.4-1.3-1.3c0-0.6,0.4-1,1.2-1.2
			c0.5-0.1,0.8-0.2,1.1-0.3c0.2-0.1,0.3-0.1,0.3-0.2c0-0.1,0-0.3,0-0.4c0-0.5-0.2-1-0.7-1c-0.3,0-0.5,0.2-0.6,0.7
			c0,0.2-0.1,0.3-0.2,0.4c-0.2,0.1-0.6,0.3-0.9,0.3c-0.2,0-0.3-0.1-0.3-0.3c0-0.3,0.3-0.7,0.6-0.9c0.4-0.3,1.2-0.7,2-0.7
			c1,0,1.6,0.5,1.5,1.7L31.3,287.4z M29.8,287.1c0-0.2,0-0.2-0.1-0.2c-0.5,0.1-1,0.3-1,0.8c0,0.4,0.3,0.7,0.6,0.7
			c0.4,0,0.4-0.2,0.5-0.6L29.8,287.1z"/>
		<path d="M34.8,284.9c-0.2,0-0.2,0-0.2,0.3v1.8c0,0.7,0,1.4,0.8,1.4c0.2,0,0.4-0.1,0.5-0.2c0.1,0,0.2,0.2,0.2,0.3
			c-0.3,0.4-1,0.7-1.7,0.7c-1,0-1.3-0.6-1.3-1.4v-2.7c0-0.3,0-0.3-0.2-0.3h-0.4c-0.1,0-0.2-0.3-0.1-0.4c0.4-0.1,0.7-0.3,1-0.5
			c0.2-0.2,0.5-0.4,0.9-0.9c0.1,0,0.3,0,0.4,0.1v0.9c0,0.2,0,0.2,0.2,0.2h1.1c0.1,0,0.1,0.1,0.1,0.2c0,0.1,0,0.3-0.2,0.4H34.8z"/>
		<path d="M40.5,287.4c0,0.8,0.3,1,0.5,1c0.1,0,0.3,0,0.5-0.1c0.1,0,0.2,0.2,0.1,0.3c-0.1,0.2-0.7,0.6-1.4,0.6c-0.4,0-0.7-0.1-1-0.4
			c-0.1-0.1-0.1-0.1-0.2-0.1c-0.1,0-0.1,0-0.3,0.1c-0.2,0.2-0.6,0.4-1,0.4c-0.7,0-1.3-0.4-1.3-1.3c0-0.6,0.4-1,1.2-1.2
			c0.5-0.1,0.8-0.2,1.1-0.3c0.2-0.1,0.3-0.1,0.3-0.2c0-0.1,0-0.3,0-0.4c0-0.5-0.2-1-0.7-1c-0.3,0-0.5,0.2-0.6,0.7
			c0,0.2-0.1,0.3-0.2,0.4c-0.2,0.1-0.6,0.3-0.9,0.3c-0.2,0-0.3-0.1-0.3-0.3c0-0.3,0.3-0.7,0.6-0.9c0.4-0.3,1.2-0.7,2-0.7
			c1,0,1.6,0.5,1.5,1.7L40.5,287.4z M39,287.1c0-0.2,0-0.2-0.1-0.2c-0.5,0.1-1,0.3-1,0.8c0,0.4,0.3,0.7,0.6,0.7
			c0.4,0,0.4-0.2,0.5-0.6L39,287.1z"/>
		<path d="M41.9,285.4c0-0.6,0.4-1,1-1c0.6,0,1,0.5,1,1c0,0.5-0.4,0.9-1,0.9C42.4,286.3,41.9,285.9,41.9,285.4z M41.9,288.3
			c0-0.6,0.4-1,1-1c0.6,0,1,0.5,1,1c0,0.6-0.4,1-1,1C42.4,289.2,41.9,288.8,41.9,288.3z"/>
	</g>
	<g>
		<polygon class="st0" points="134.1,302.8 134.1,302.8 134.1,301.7 134.1,301.7 134.1,298.9 130,298.9 130,305.7 134.1,305.7 		"/>
		<rect x="129" y="278.3" class="st9" width="1.9" height="27.4"/>
		<path class="st9" d="M128.6,278.7L128.6,278.7c0-0.2,0.1-0.3,0.3-0.3h2.2c0.2,0,0.3,0.1,0.3,0.3l0,0c0,0.2-0.1,0.3-0.3,0.3h-2.2
			C128.7,279,128.6,278.8,128.6,278.7z"/>
		<path class="st9" d="M128.6,279.2L128.6,279.2c0-0.2,0.1-0.3,0.3-0.3h2.2c0.2,0,0.3,0.1,0.3,0.3l0,0c0,0.2-0.1,0.3-0.3,0.3h-2.2
			C128.7,279.5,128.6,279.4,128.6,279.2z"/>
		<path class="st9" d="M128.6,298.6L128.6,298.6c0-0.2,0.1-0.3,0.3-0.3h2.2c0.2,0,0.3,0.1,0.3,0.3l0,0c0,0.2-0.1,0.3-0.3,0.3h-2.2
			C128.7,298.9,128.6,298.7,128.6,298.6z"/>
		<path class="st9" d="M135.5,274.2L135.5,274.2c0-2.3-1.8-4.1-4.1-4.1h-0.3c0-0.6-0.5-1.1-1.1-1.1c-0.6,0-1.1,0.5-1.1,1.1h-0.3
			c-2.3,0-4.1,1.8-4.1,4.1l0,0c0,2.3,1.8,4.1,4.1,4.1h2.7C133.6,278.3,135.5,276.5,135.5,274.2z M130,269.6c0.3,0,0.5,0.2,0.5,0.5
			c0,0.3-0.2,0.5-0.5,0.5s-0.5-0.2-0.5-0.5C129.4,269.8,129.7,269.6,130,269.6z M128.6,277c-1.5,0-2.7-1.2-2.7-2.7l0,0
			c0-0.9,0.5-1.7,1.2-2.2c0.7-0.5,1.6-0.4,2.3,0.1l0.6,0.5l0.6-0.5c0.7-0.5,1.6-0.6,2.3-0.1c0.7,0.5,1.2,1.3,1.2,2.2l0,0
			c0,1.5-1.2,2.7-2.7,2.7H128.6z"/>
	</g>
	<g>
		<path d="M122.6,313.6c-0.1-0.2-0.1-0.2-0.3-0.2h-1.2c-0.2,0-0.2,0-0.3,0.2l-0.3,0.8c-0.1,0.4-0.2,0.6-0.2,0.7c0,0.1,0,0.1,0.2,0.2
			l0.3,0c0.1,0,0.1,0.2,0,0.2c-0.2,0-0.5,0-0.8,0c-0.3,0-0.6,0-0.8,0c0,0-0.1-0.2,0-0.2l0.3,0c0.2,0,0.4-0.1,0.5-0.4
			c0.1-0.4,0.4-0.9,0.7-1.8l0.8-2.2c0.1-0.3,0.2-0.4,0.1-0.6c0.2-0.1,0.3-0.2,0.4-0.3c0,0,0.1,0,0.1,0.1c0.1,0.4,0.2,0.7,0.4,1.1
			l1.1,3.2c0.2,0.7,0.3,0.8,0.7,0.8l0.2,0c0.1,0,0,0.2,0,0.2c-0.3,0-0.6,0-1,0c-0.4,0-0.7,0-0.9,0c-0.1,0-0.1-0.2,0-0.2l0.2,0
			c0.2,0,0.3-0.1,0.3-0.1c0-0.1,0-0.2-0.1-0.4L122.6,313.6z M121,312.9c-0.1,0.2-0.1,0.2,0.2,0.2h1c0.2,0,0.2,0,0.2-0.2l-0.4-1.3
			c-0.1-0.2-0.1-0.4-0.2-0.5h0c0,0-0.1,0.2-0.2,0.5L121,312.9z"/>
		<path d="M126.5,312.3c0.1,0.2,0.1,0.4,0.1,0.6c0,0.1-0.2,0.1-0.2,0c-0.1-0.4-0.4-0.6-0.7-0.6c-0.3,0-0.5,0.2-0.5,0.5
			c0,0.3,0.3,0.5,0.6,0.7c0.4,0.2,0.8,0.5,0.8,1.1c0,0.6-0.6,0.9-1.2,0.9c-0.4,0-0.7-0.1-0.9-0.2c-0.1-0.2-0.1-0.5-0.1-0.8
			c0,0,0.1-0.1,0.2,0c0.1,0.4,0.4,0.8,0.8,0.8c0.3,0,0.5-0.2,0.5-0.5c0-0.4-0.3-0.6-0.6-0.7c-0.5-0.3-0.8-0.5-0.8-1
			c0-0.6,0.5-0.9,1.1-0.9C126.2,312.2,126.5,312.2,126.5,312.3z"/>
		<path d="M129.1,312.3c0.1,0.2,0.1,0.4,0.1,0.6c0,0.1-0.2,0.1-0.2,0c-0.1-0.4-0.4-0.6-0.7-0.6c-0.3,0-0.5,0.2-0.5,0.5
			c0,0.3,0.3,0.5,0.6,0.7c0.4,0.2,0.8,0.5,0.8,1.1c0,0.6-0.6,0.9-1.2,0.9c-0.4,0-0.7-0.1-0.9-0.2c-0.1-0.2-0.1-0.5-0.1-0.8
			c0,0,0.1-0.1,0.2,0c0.1,0.4,0.4,0.8,0.8,0.8c0.3,0,0.5-0.2,0.5-0.5c0-0.4-0.3-0.6-0.6-0.7c-0.5-0.3-0.8-0.5-0.8-1
			c0-0.6,0.5-0.9,1.1-0.9C128.7,312.2,129,312.2,129.1,312.3z"/>
		<path d="M131.4,313.8c0.1,0,0.1-0.1,0.1-0.2l0-0.4c0-0.3-0.1-0.7-0.6-0.7c-0.2,0-0.5,0.1-0.5,0.4c0,0.1,0,0.2-0.1,0.3
			c-0.1,0.1-0.3,0.2-0.5,0.2c-0.1,0-0.1,0-0.1-0.1c0-0.4,0.9-1,1.5-1c0.6,0,0.9,0.3,0.8,0.9l0,1.4c0,0.4,0.1,0.7,0.4,0.7
			c0.1,0,0.2,0,0.2,0c0,0,0.1-0.1,0.1-0.1c0,0,0.1,0,0.1,0.1c0,0-0.3,0.4-0.7,0.4c-0.2,0-0.4-0.1-0.5-0.2c0,0-0.1-0.1-0.1-0.1
			c-0.1,0-0.2,0.1-0.3,0.2c-0.2,0.1-0.4,0.2-0.6,0.2c-0.2,0-0.4-0.1-0.6-0.2c-0.2-0.1-0.2-0.3-0.2-0.6c0-0.3,0.2-0.5,0.7-0.7
			L131.4,313.8z M130.9,315.2c0.2,0,0.4-0.1,0.5-0.2c0.1-0.1,0.1-0.2,0.1-0.4l0-0.5c0-0.1,0-0.1-0.1-0.1c0,0-0.2,0-0.3,0.1
			c-0.5,0.2-0.7,0.3-0.7,0.6C130.4,314.8,130.5,315.2,130.9,315.2z"/>
		<path d="M134.2,312.6c-0.1,0-0.1,0-0.1,0.2v1.5c0,0.5,0.1,0.9,0.6,0.9c0.1,0,0.2,0,0.2,0c0.1,0,0.2-0.1,0.2-0.1
			c0.1,0,0.1,0.1,0.1,0.1c-0.1,0.2-0.4,0.4-0.8,0.4c-0.7,0-0.8-0.4-0.8-0.9v-1.8c0-0.2,0-0.2-0.2-0.2h-0.2c0,0-0.1-0.1,0-0.2
			c0.2-0.1,0.4-0.2,0.5-0.2c0.1-0.1,0.3-0.3,0.3-0.5c0,0,0.1,0,0.2,0v0.4c0,0.1,0,0.2,0.1,0.2h0.9c0.1,0.1,0.1,0.3,0,0.3H134.2z"/>
		<path d="M137.1,313.8c0.1,0,0.1-0.1,0.1-0.2l0-0.4c0-0.3-0.1-0.7-0.6-0.7c-0.2,0-0.5,0.1-0.5,0.4c0,0.1,0,0.2-0.1,0.3
			c-0.1,0.1-0.3,0.2-0.5,0.2c-0.1,0-0.1,0-0.1-0.1c0-0.4,0.9-1,1.5-1c0.6,0,0.9,0.3,0.8,0.9l0,1.4c0,0.4,0.1,0.7,0.4,0.7
			c0.1,0,0.2,0,0.2,0c0,0,0.1-0.1,0.1-0.1c0,0,0.1,0,0.1,0.1c0,0-0.3,0.4-0.7,0.4c-0.2,0-0.4-0.1-0.5-0.2c0,0-0.1-0.1-0.1-0.1
			c-0.1,0-0.2,0.1-0.3,0.2c-0.2,0.1-0.4,0.2-0.6,0.2c-0.2,0-0.4-0.1-0.6-0.2c-0.2-0.1-0.2-0.3-0.2-0.6c0-0.3,0.2-0.5,0.7-0.7
			L137.1,313.8z M136.6,315.2c0.2,0,0.4-0.1,0.5-0.2c0.1-0.1,0.1-0.2,0.1-0.4l0-0.5c0-0.1,0-0.1-0.1-0.1s-0.2,0-0.3,0.1
			c-0.5,0.2-0.7,0.3-0.7,0.6C136.1,314.8,136.2,315.2,136.6,315.2z"/>
		<path d="M139.3,310.6c0,0.6-0.4,0.9-0.9,1.1c-0.1,0-0.1-0.1-0.1-0.2c0.3-0.1,0.6-0.4,0.6-0.7c0-0.3-0.2-0.4-0.4-0.4
			c-0.1,0-0.2-0.1-0.2-0.2c0-0.1,0.1-0.3,0.4-0.3C139,309.8,139.3,310.2,139.3,310.6z"/>
		<path d="M141.3,312.3c0.1,0.2,0.1,0.4,0.1,0.6c0,0.1-0.2,0.1-0.2,0c-0.1-0.4-0.4-0.6-0.7-0.6c-0.3,0-0.5,0.2-0.5,0.5
			c0,0.3,0.3,0.5,0.6,0.7c0.4,0.2,0.8,0.5,0.8,1.1c0,0.6-0.6,0.9-1.2,0.9c-0.4,0-0.7-0.1-0.9-0.2c-0.1-0.2-0.1-0.5-0.1-0.8
			c0,0,0.1-0.1,0.2,0c0.1,0.4,0.4,0.8,0.8,0.8c0.3,0,0.5-0.2,0.5-0.5c0-0.4-0.3-0.6-0.6-0.7c-0.5-0.3-0.8-0.5-0.8-1
			c0-0.6,0.5-0.9,1.1-0.9C140.9,312.2,141.2,312.2,141.3,312.3z"/>
		<path d="M121.5,320c-0.1,0,0-0.1,0-0.2c0.3-0.1,0.8-0.1,1.3-0.1c0.8,0,1.3,0.2,1.6,0.4c0.3,0.3,0.4,0.6,0.4,1c0,0.5-0.3,1-0.7,1.2
			c-0.4,0.3-1,0.4-1.5,0.4c-0.1,0-0.1-0.1,0-0.2c0.6-0.1,1.5-0.5,1.5-1.6c0-0.7-0.4-1-1.1-1c-0.3,0-0.3,0-0.4,0.3l-1.1,3.6
			c-0.2,0.7-0.3,0.9,0.2,1l0.3,0c0,0.1,0,0.2,0,0.2c-0.4,0-0.7,0-1,0c-0.3,0-0.6,0-0.9,0c-0.1,0-0.1-0.2,0-0.2l0.2,0
			c0.4,0,0.5-0.1,0.7-1l1-3.3c0.1-0.4,0.1-0.5-0.2-0.5L121.5,320z"/>
		<path d="M125.9,322.5l-0.3,1h0c0.2-0.4,0.6-1.1,0.8-1.4c0.2-0.2,0.4-0.4,0.6-0.4c0.3,0,0.3,0.3,0.3,0.4s-0.1,0.4-0.2,0.5
			c-0.1,0.1-0.2,0.1-0.3,0c0-0.2-0.1-0.3-0.2-0.3c-0.1,0-0.2,0.1-0.3,0.2c-0.5,0.6-0.9,1.6-1.4,2.5c0,0.1-0.1,0.1-0.1,0.1
			c-0.1,0-0.3,0-0.3-0.2c0.1-0.3,0.6-1.7,0.8-2.5c0-0.1,0-0.2-0.1-0.2c-0.2,0-0.4,0.2-0.6,0.4c-0.1,0-0.1,0-0.1-0.1
			c0.3-0.4,0.6-0.8,0.9-0.8C126.1,321.8,126,322.3,125.9,322.5z"/>
		<path d="M128.3,322.4c0-0.1,0-0.2,0-0.2c-0.1,0-0.3,0.1-0.7,0.4c-0.1,0-0.1-0.1-0.1-0.1c0.4-0.5,1.1-0.8,1.3-0.8
			c0.1,0,0.1,0,0.1,0.1c0,0,0,0.1,0,0.4l-1,2.3c0,0.1,0,0.2,0,0.2c0.1,0,0.6-0.3,0.8-0.6c0.1,0,0.1,0.1,0.1,0.1
			c-0.1,0.2-0.9,1-1.5,1c0,0-0.1,0-0.1-0.1c0-0.1-0.1-0.1,0-0.2L128.3,322.4z M129.3,320.4c0,0.2-0.2,0.5-0.4,0.5
			c-0.2,0-0.3-0.2-0.3-0.3c0-0.2,0.1-0.5,0.4-0.5C129.2,320.1,129.3,320.2,129.3,320.4z"/>
		<path d="M130.5,322.5c0.1-0.2,0-0.2-0.1-0.2c-0.2,0-0.5,0.3-0.7,0.6c-0.1,0-0.1-0.1-0.1-0.1c0.3-0.4,0.8-0.9,1.3-0.9
			c0.2,0,0.4,0.2,0.2,0.5l-0.7,1.8c0,0.1-0.1,0.3-0.1,0.4c0,0.1,0.1,0.3,0.2,0.3c0.2,0,0.5-0.2,0.9-0.6c0.5-0.5,0.7-1.2,0.7-1.5
			c0-0.2,0-0.4-0.1-0.6c0-0.2,0.1-0.3,0.3-0.3c0.3,0,0.3,0.3,0.3,0.5c0,0.6-0.6,1.7-1.3,2.3c-0.6,0.5-1.1,0.6-1.2,0.6
			c-0.2,0-0.4-0.2-0.4-0.5c0-0.2,0.1-0.5,0.2-0.8L130.5,322.5z"/>
		<path d="M135.7,321.6c0.1-0.1,0.3,0,0.4,0.1c-0.1,0.3-0.8,2.1-1.1,2.8c0,0.1,0,0.2,0.1,0.2c0.1,0,0.4-0.1,0.8-0.5
			c0.1,0,0.1,0,0.1,0.1c-0.3,0.4-0.9,0.9-1.3,0.9c-0.2,0-0.2-0.2-0.2-0.2c0-0.1,0-0.1,0.1-0.3l0.3-0.7l0,0c-0.6,0.7-1.4,1.3-1.8,1.3
			c-0.2,0-0.4-0.2-0.4-0.4c0-0.2,0.2-0.8,0.7-1.6c0.4-0.5,0.7-0.8,1.1-1c0.3-0.2,0.5-0.2,0.7-0.2c0.1,0,0.1,0,0.2,0
			c0,0,0.1,0.1,0.2,0.2L135.7,321.6z M134.3,322.5c-0.5,0.5-1,1.5-1,2.1c0,0.1,0,0.2,0.1,0.2c0.1,0,0.3-0.1,0.8-0.5
			c0.6-0.6,0.9-1.3,1.1-1.7c-0.1-0.2-0.2-0.3-0.4-0.3C134.7,322.2,134.6,322.3,134.3,322.5z"/>
		<path d="M137.9,322.2l-0.7,2.2c0,0.2,0,0.2,0.1,0.2c0.1,0,0.6-0.4,0.9-0.7c0.1,0,0.1,0,0.1,0.1c-0.4,0.7-1.2,1.2-1.5,1.2
			c-0.1,0-0.2-0.1-0.2-0.2c0-0.1,0-0.2,0.1-0.5l0.8-2.3h-0.6c0-0.1,0-0.2,0.1-0.2l0.6-0.1l0.4-0.8c0.1,0,0.2,0,0.3,0l-0.2,0.8h0.9
			c0.1,0.1,0,0.2-0.1,0.3H137.9z"/>
		<path d="M141.3,322.2c0,0.6-0.8,1-1.9,1.3c-0.1,0.1-0.1,0.4-0.1,0.7c0,0.3,0.2,0.5,0.4,0.5c0.3,0,0.5-0.2,0.8-0.5
			c0.1,0,0.1,0.1,0.1,0.1c-0.5,0.6-0.9,0.7-1.3,0.7c-0.5,0-0.6-0.4-0.6-0.8c0-0.5,0.3-1.5,1.2-2.2c0.4-0.3,0.7-0.4,1-0.4
			C141.1,321.8,141.3,322,141.3,322.2z M140.1,322.4c-0.3,0.3-0.5,0.7-0.6,0.9c0.5-0.2,0.8-0.3,1.1-0.6c0.2-0.2,0.3-0.5,0.3-0.5
			c0-0.1,0-0.2-0.2-0.2C140.6,322,140.3,322.1,140.1,322.4z"/>
		<path d="M127.2,330.5c0.2-0.8,0.3-0.9-0.1-0.9l-0.2,0c0-0.1,0-0.2,0-0.2c0.3,0,0.5,0,0.9,0c0.3,0,0.6,0,1,0c0.1,0,0.1,0.2,0,0.2
			l-0.2,0c-0.5,0.1-0.5,0.2-0.8,0.9l-0.3,1.1c-0.1,0.2,0,0.2,0.1,0.2c0.1,0,0.2,0,0.3-0.1c0.2-0.1,0.5-0.4,0.8-0.7l0.8-0.8
			c0.4-0.4,0.5-0.5,0.5-0.6c0,0-0.1-0.1-0.2-0.1l-0.2,0c-0.1,0,0-0.2,0-0.2c0.3,0,0.5,0,0.9,0c0.4,0,0.6,0,0.9,0
			c0.1,0,0.1,0.2,0,0.2l-0.2,0c-0.1,0-0.3,0.1-0.5,0.1c-0.2,0.1-0.6,0.3-1.4,1.1l-1,0.9c-0.1,0.1-0.2,0.1-0.1,0.3l0.9,1.8
			c0.2,0.4,0.3,0.6,0.7,0.7l0.2,0c0.1,0,0,0.2,0,0.2c-0.3,0-0.6,0-0.8,0c-0.3,0-0.6,0-0.9,0c0-0.1,0-0.2,0-0.2l0.2,0
			c0.3,0,0.2-0.1,0.1-0.4l-0.8-1.6c-0.2-0.3-0.2-0.4-0.3-0.4c-0.2,0-0.2,0.1-0.3,0.2l-0.4,1.3c-0.2,0.7-0.3,0.9,0.2,1l0.2,0
			c0,0.1,0,0.2,0,0.2c-0.4,0-0.6,0-1,0c-0.3,0-0.6,0-0.9,0c-0.1,0-0.1-0.2,0-0.2l0.2,0c0.4,0,0.5-0.1,0.7-1L127.2,330.5z"/>
		<path d="M133.2,331.8c0,0.6-0.8,1-1.9,1.3c-0.1,0.1-0.1,0.4-0.1,0.7c0,0.3,0.2,0.5,0.4,0.5c0.3,0,0.5-0.2,0.8-0.5
			c0.1,0,0.1,0.1,0.1,0.1c-0.5,0.6-0.9,0.7-1.3,0.7c-0.5,0-0.6-0.4-0.6-0.8c0-0.5,0.3-1.5,1.2-2.2c0.4-0.3,0.7-0.4,1-0.4
			C133,331.4,133.2,331.6,133.2,331.8z M131.9,332c-0.3,0.3-0.5,0.7-0.6,0.9c0.5-0.2,0.8-0.3,1.1-0.6c0.2-0.2,0.3-0.5,0.3-0.5
			c0-0.1,0-0.2-0.2-0.2C132.4,331.6,132.2,331.7,131.9,332z"/>
		<path d="M134.7,332.7c0,0.5,0,1.1-0.1,1.8h0c0.3-0.4,0.5-0.9,0.7-1.4c0.2-0.5,0.3-1.3,0.3-1.5c0-0.2,0.1-0.2,0.2-0.2
			c0.1,0,0.2,0,0.2,0.1c0,0,0.1,0.1,0.1,0.2c0,0.2-0.2,1.2-0.9,2.4c-0.4,0.7-0.7,1.2-1.3,1.9c-0.6,0.7-1,0.8-1.2,0.8
			s-0.4-0.2-0.4-0.4c0-0.2,0.1-0.3,0.3-0.3c0.1,0,0.2,0,0.2,0.1c0,0,0.1,0.1,0.2,0.1c0.1,0,0.2-0.1,0.4-0.2c0.2-0.2,0.6-0.7,0.7-1.2
			c0.1-0.4,0.2-1.1,0.2-1.8c0-0.9-0.2-1.2-0.3-1.2c-0.2,0-0.3,0.3-0.5,0.6c-0.1,0-0.1,0-0.2-0.1c0.2-0.5,0.5-1,0.9-1
			C134.6,331.4,134.6,332.2,134.7,332.7z"/>
	</g>
	<g>
		<g>
			<line class="st2" x1="93" y1="287.4" x2="120.2" y2="287.4"/>
			<g>
				<path d="M123.9,287.4c-1.7,0.6-3.8,1.7-5.1,2.9l1-2.9l-1-2.9C120,285.7,122.2,286.7,123.9,287.4z"/>
			</g>
		</g>
	</g>
	<g>
		<g>
			<line class="st2" x1="137.4" y1="287.4" x2="164.8" y2="287.4"/>
			<g>
				<path d="M168.4,287.4c-1.7,0.6-3.8,1.7-5.1,2.9l1-2.9l-1-2.9C164.6,285.7,166.7,286.7,168.4,287.4z"/>
			</g>
		</g>
	</g>
	<g>
		<path class="st5" d="M174.2,299.3l7.7,7.7h22.6v-34.8c0-2.5-2-4.5-4.5-4.5h-25.9V299.3z"/>
		<line class="st6" x1="177.5" y1="273.4" x2="191.7" y2="273.4"/>
		<line class="st6" x1="177.5" y1="277.3" x2="193.2" y2="277.3"/>
		<line class="st6" x1="177.5" y1="281.2" x2="196.3" y2="281.2"/>
		<line class="st6" x1="177.5" y1="285.1" x2="200.3" y2="285.1"/>
		<line class="st6" x1="177.5" y1="289.1" x2="198.6" y2="289.1"/>
		<line class="st6" x1="177.5" y1="293" x2="199.4" y2="293"/>
		<line class="st6" x1="177.5" y1="296.9" x2="201.2" y2="296.9"/>
		<line class="st6" x1="181.9" y1="300.8" x2="198.6" y2="300.8"/>
		<polygon class="st5" points="174.2,299.3 181.9,299.3 181.9,307 		"/>
	</g>
</g>
<polygon class="st10" points="173.5,190.3 181.1,190.3 181.1,197.8 "/>
<g>
	<path class="st5" d="M56.3,299.3L64,307h22.6v-34.8c0-2.5-2-4.5-4.5-4.5H56.3V299.3z"/>
	<g>
		<path d="M59.5,274.4c0-1.5,0.7-2.3,1.7-2.3c1,0,1.7,0.8,1.7,2.3c0,1.5-0.7,2.3-1.7,2.3C60.2,276.8,59.5,276,59.5,274.4z M62,274.4
			c0-1.2-0.4-1.5-0.8-1.5s-0.8,0.3-0.8,1.5c0,1.2,0.4,1.5,0.8,1.5S62,275.6,62,274.4z M60.7,274.4c0-0.3,0.2-0.5,0.5-0.5
			c0.3,0,0.5,0.2,0.5,0.5s-0.2,0.5-0.5,0.5C60.9,275,60.7,274.8,60.7,274.4z"/>
		<path d="M63.9,275.9H65v-2.6h-0.9v-0.6c0.5-0.1,0.9-0.2,1.2-0.4H66v3.6h1v0.8h-3.2V275.9z"/>
		<path d="M69,272.1h1.2l1.4,4.6h-1.1l-0.3-1.1h-1.4l-0.3,1.1h-1.1L69,272.1z M69.1,274.8h1l-0.1-0.4c-0.1-0.5-0.3-1-0.4-1.5h0
			c-0.1,0.5-0.2,1-0.4,1.5L69.1,274.8z"/>
		<path d="M71.8,276l1.3-1.2l0.4,0.3l-1.1,1.4L71.8,276z M71.9,273.3c0-0.7,0.4-1.2,1-1.2c0.6,0,1,0.4,1,1.2c0,0.7-0.4,1.2-1,1.2
			C72.3,274.5,71.9,274,71.9,273.3z M73.2,273.3c0-0.5-0.2-0.6-0.3-0.6c-0.2,0-0.3,0.1-0.3,0.6s0.2,0.6,0.3,0.6
			C73.1,273.9,73.2,273.8,73.2,273.3z M73.6,275.6c0-0.7,0.4-1.2,1-1.2s1,0.4,1,1.2c0,0.7-0.4,1.2-1,1.2S73.6,276.3,73.6,275.6z
			 M74.1,273.7l1.1-1.4l0.5,0.5l-1.3,1.2L74.1,273.7z M75,275.6c0-0.5-0.2-0.6-0.3-0.6c-0.2,0-0.3,0.1-0.3,0.6
			c0,0.5,0.2,0.6,0.3,0.6C74.9,276.2,75,276.1,75,275.6z"/>
		<path d="M59.4,282.8c0-1.5,0.9-2.4,2.1-2.4c0.6,0,1,0.3,1.3,0.6l-0.6,0.6c-0.2-0.2-0.4-0.3-0.8-0.3c-0.6,0-1,0.6-1,1.5
			c0,0.9,0.4,1.5,1.1,1.5c0.2,0,0.4,0,0.4-0.1v-0.8h-0.7v-0.8h1.6v2.1c-0.3,0.3-0.8,0.6-1.4,0.6C60.3,285.2,59.4,284.4,59.4,282.8z"
			/>
		<path d="M65.6,283.8h-0.7l-0.2,1.3h-0.6l0.2-1.3h-0.5v-0.7h0.6l0.1-0.8h-0.6v-0.7h0.6l0.1-1.2h0.6l-0.1,1.2h0.7l0.1-1.2h0.6
			l-0.1,1.2H67v0.7h-0.6l-0.1,0.8h0.6v0.7h-0.7l-0.2,1.3h-0.6L65.6,283.8z M65.8,282.3h-0.7l-0.1,0.8h0.7L65.8,282.3z"/>
		<path d="M67.8,284.5l0.5-0.7c0.3,0.3,0.7,0.4,1.1,0.4c0.5,0,0.8-0.2,0.8-0.5c0-0.4-0.3-0.6-1.3-0.6v-0.7c0.9,0,1.2-0.2,1.2-0.6
			c0-0.3-0.3-0.5-0.7-0.5c-0.4,0-0.6,0.1-0.9,0.4l-0.5-0.6c0.4-0.4,0.9-0.6,1.5-0.6c1,0,1.6,0.4,1.6,1.2c0,0.5-0.3,0.8-0.8,1v0
			c0.6,0.1,1,0.5,1,1.1c0,0.8-0.8,1.3-1.8,1.3C68.7,285.2,68.1,284.9,67.8,284.5z"/>
		<path d="M72.1,282.8c0-1.5,0.7-2.3,1.7-2.3c1,0,1.7,0.8,1.7,2.3c0,1.5-0.7,2.3-1.7,2.3C72.8,285.2,72.1,284.3,72.1,282.8z
			 M74.6,282.8c0-1.2-0.4-1.5-0.8-1.5s-0.8,0.3-0.8,1.5c0,1.2,0.4,1.5,0.8,1.5S74.6,284,74.6,282.8z M73.3,282.8
			c0-0.3,0.2-0.5,0.5-0.5c0.3,0,0.5,0.2,0.5,0.5s-0.2,0.5-0.5,0.5C73.5,283.4,73.3,283.2,73.3,282.8z"/>
		<path d="M76.5,284.3h1.1v-2.6h-0.9V281c0.5-0.1,0.9-0.2,1.2-0.4h0.8v3.6h1v0.8h-3.2V284.3z"/>
		<path d="M80.5,282.8c0-1.5,0.7-2.3,1.7-2.3c1,0,1.7,0.8,1.7,2.3c0,1.5-0.7,2.3-1.7,2.3C81.2,285.2,80.5,284.3,80.5,282.8z
			 M83,282.8c0-1.2-0.4-1.5-0.8-1.5s-0.8,0.3-0.8,1.5c0,1.2,0.4,1.5,0.8,1.5S83,284,83,282.8z M81.7,282.8c0-0.3,0.2-0.5,0.5-0.5
			c0.3,0,0.5,0.2,0.5,0.5s-0.2,0.5-0.5,0.5C81.9,283.4,81.7,283.2,81.7,282.8z"/>
		<path d="M60,292c0.4,0.3,0.8,0.4,1.3,0.4c0.3,0,0.5-0.1,0.5-0.3c0-0.6-2-0.5-2-1.8c0-0.6,0.4-1,1.1-1.1v-0.9h0.7v0.9
			c0.5,0.1,0.8,0.3,1.1,0.6l-0.5,0.6c-0.3-0.2-0.6-0.4-1-0.4c-0.3,0-0.5,0.1-0.5,0.3c0,0.5,2,0.4,2,1.7c0,0.6-0.4,1.1-1.2,1.2v1
			h-0.7v-1c-0.5,0-1-0.2-1.3-0.6L60,292z"/>
		<path d="M63.8,288.9h1v1.9h0l1.4-1.9h1.1l-1.4,1.8l1.5,2.8h-1.1l-1-1.9l-0.5,0.7v1.2h-1V288.9z"/>
		<path d="M67.7,291.7c0-1.9,1-2.7,2.1-2.7c1.1,0,1.5,0.7,1.5,1.7v2.1h-0.5l-0.1-0.4h0c-0.2,0.3-0.5,0.4-0.8,0.4
			c-0.5,0-0.9-0.4-0.9-1c0-0.8,0.7-1.1,1.7-1.2v-0.1c0-0.5-0.3-1-0.9-1c-0.7,0-1.4,0.6-1.4,2.1c0,1.5,0.7,2.2,1.5,2.2
			c0.4,0,0.7-0.1,0.9-0.3l0.3,0.5c-0.4,0.2-0.8,0.4-1.3,0.4C68.7,294.5,67.7,293.6,67.7,291.7z M70.6,291.9v-0.6
			c-0.7,0.1-0.9,0.3-0.9,0.6c0,0.2,0.1,0.3,0.4,0.3C70.3,292.2,70.5,292.1,70.6,291.9z"/>
		<path d="M73,291.5c0-1.3,0.6-2.4,1.5-3.2l0.6,0.5c-0.8,0.8-1.2,1.6-1.2,2.7s0.4,1.9,1.2,2.7l-0.6,0.5
			C73.5,293.9,73,292.9,73,291.5z"/>
		<path d="M76.8,294.3c0.8-0.8,1.2-1.6,1.2-2.7s-0.4-1.9-1.2-2.7l0.6-0.5c0.9,0.8,1.5,1.9,1.5,3.2c0,1.3-0.6,2.4-1.5,3.2L76.8,294.3
			z"/>
		<path d="M80.5,292.8l0.6-0.6c0.3,0.3,0.6,0.5,0.9,0.5c0.5,0,0.7-0.2,0.7-0.8v-2.1h-1.8v-0.9h2.8v3c0,0.9-0.4,1.6-1.7,1.6
			C81.5,293.6,80.9,293.4,80.5,292.8z"/>
		<path d="M59.7,297.3h3v0.9h-2v0.9h1.7v0.9h-1.7v1.1h2.1v0.9h-3.1V297.3z"/>
		<path d="M64.7,301.3c0-0.4,0.3-0.7,0.7-0.7c0.4,0,0.7,0.3,0.7,0.7c0,0.4-0.3,0.7-0.7,0.7C65,302,64.7,301.7,64.7,301.3z
			 M64.9,298.1l0-0.9h1l0,0.9l-0.1,2h-0.7L64.9,298.1z"/>
		<path d="M69.1,300.3l-1.5-3h1.1l0.5,1.1c0.1,0.4,0.3,0.7,0.4,1h0c0.1-0.4,0.3-0.7,0.4-1l0.5-1.1h1.1l-1.5,3v1.5h-1V300.3z"/>
		<path d="M72.1,301.4l0.5-0.6c0.2,0.2,0.5,0.3,0.8,0.3c0.5,0,1-0.4,1.1-1.4c-0.3,0.3-0.7,0.5-1.1,0.5c-0.8,0-1.4-0.4-1.4-1.4
			c0-0.9,0.7-1.5,1.6-1.5c0.9,0,1.8,0.6,1.8,2.2c0,1.7-0.9,2.4-1.9,2.4C72.9,302,72.4,301.7,72.1,301.4z M74.5,299
			c-0.1-0.7-0.5-0.9-0.8-0.9c-0.4,0-0.7,0.2-0.7,0.7c0,0.5,0.3,0.6,0.7,0.6C73.9,299.5,74.2,299.4,74.5,299z"/>
		<path d="M76.3,299.8c0-1.7,0.9-2.4,1.9-2.4c0.6,0,1.1,0.2,1.4,0.5l-0.5,0.6c-0.2-0.2-0.5-0.3-0.8-0.3c-0.5,0-1,0.4-1.1,1.4
			c0.3-0.3,0.7-0.5,1.1-0.5c0.8,0,1.4,0.4,1.4,1.4c0,0.9-0.7,1.5-1.6,1.5C77.2,302,76.3,301.3,76.3,299.8z M78.8,300.5
			c0-0.5-0.3-0.6-0.7-0.6c-0.3,0-0.5,0.1-0.8,0.4c0.1,0.7,0.4,0.9,0.8,0.9C78.5,301.2,78.8,301,78.8,300.5z"/>
		<path d="M81.8,299.9h-1.2v-0.7h1.2v-1.3h0.8v1.3h1.2v0.7h-1.2v1.3h-0.8V299.9z"/>
	</g>
	<polygon class="st5" points="56.3,299.3 64,299.3 64,307 	"/>
</g>
<g>
	<path class="st7" d="M81.6,263.6c-2.5,0-4.4,2-4.4,4.4c0,2.5,2,4.4,4.4,4.4s4.4-2,4.4-4.4C86.1,265.6,84.1,263.6,81.6,263.6z
		 M81.6,271c-1.6,0-3-1.3-3-3c0-1.6,1.3-3,3-3s3,1.3,3,3C84.6,269.7,83.3,271,81.6,271z"/>
	<path class="st7" d="M81.6,279.9L81.6,279.9c-3.3,0-5.9-2.7-5.9-5.9v-4.4c0-0.8,0.7-1.5,1.5-1.5h8.9c0.8,0,1.5,0.7,1.5,1.5v4.4
		C87.6,277.2,84.9,279.9,81.6,279.9z"/>
	<path class="st8" d="M82.8,272.7c0-0.7-0.5-1.2-1.2-1.2s-1.2,0.5-1.2,1.2c0,0.4,0.2,0.7,0.4,0.9v2.6h1.5v-2.6
		C82.6,273.4,82.8,273.1,82.8,272.7z"/>
</g>
<g>
	<path class="st7" d="M197,266.6c0-1.6-1.3-2.9-2.9-2.9c-1.6,0-2.9,1.2-2.9,2.9l0,0.9l-0.5,0.5l0.5,0.5l0,0.2l-1.5,0l0-2.2
		c0-2.3,2-4.3,4.3-4.3c2.4,0,4.4,1.9,4.4,4.3l0,3.7h-1.4L197,266.6z"/>
	<path class="st7" d="M199.7,279.5L199.7,279.5c-3.2,0-5.8-2.6-5.8-5.8v-4.4c0-0.8,0.7-1.5,1.5-1.5h8.8c0.8,0,1.5,0.7,1.5,1.5v4.4
		C205.5,276.9,202.9,279.5,199.7,279.5z"/>
	<path class="st8" d="M200.8,272.4c0-0.6-0.5-1.2-1.2-1.2s-1.2,0.5-1.2,1.2c0,0.4,0.2,0.7,0.4,0.9v2.5h1.5v-2.5
		C200.7,273.1,200.8,272.8,200.8,272.4z"/>
</g>
</svg>
