<?xml version="1.0" encoding="utf-8"?>
<!-- Generator: Adobe Illustrator 22.1.0, SVG Export Plug-In . SVG Version: 6.00 Build 0)  -->
<svg version="1.1" id="Layer_1" xmlns="http://www.w3.org/2000/svg" xmlns:xlink="http://www.w3.org/1999/xlink" x="0px" y="0px"
	 viewBox="0 0 360 288" style="enable-background:new 0 0 360 288;" xml:space="preserve">
<style type="text/css">
	.st0{fill:#153267;}
	.st1{fill:#005AC8;stroke:#153267;stroke-width:0.4905;stroke-miterlimit:10;}
	.st2{fill:#5C0015;}
	.st3{fill:#AA0A3C;stroke:#5C0015;stroke-width:0.4914;stroke-miterlimit:10;}
	.st4{fill:#999999;stroke:#000000;stroke-width:0.2513;stroke-miterlimit:10;}
	.st5{fill:#CCCCCC;stroke:#000000;stroke-width:0.25;stroke-miterlimit:10;}
	.st6{fill:#E6E6E6;stroke:#000000;stroke-width:0.25;stroke-miterlimit:10;}
	.st7{fill:#005AC8;stroke:#153267;stroke-width:0.2673;stroke-miterlimit:10;}
	.st8{fill:#000037;stroke:#00001E;stroke-width:0.2673;stroke-miterlimit:10;}
	.st9{fill:#AA0A3C;stroke:#5C0015;stroke-width:0.2673;stroke-miterlimit:10;}
	.st10{fill:#500000;stroke:#2A0000;stroke-width:0.2673;stroke-miterlimit:10;}
	.st11{fill:#FAE6BE;stroke:#000000;stroke-width:0.25;stroke-miterlimit:10;}
	.st12{fill:#CCCCCC;stroke:#000000;stroke-width:0.2236;stroke-miterlimit:10;}
	.st13{fill:#333333;stroke:#000000;stroke-width:0.25;stroke-miterlimit:10;}
	.st14{fill:none;stroke:#000000;stroke-width:2;stroke-miterlimit:10;}
	.st15{fill:#F2F2F2;stroke:#333333;stroke-miterlimit:10;}
</style>
<g>
	<g>
		<path class="st0" d="M85.7,35.9c-0.3,0-0.3,0-0.4,0.2l-0.5,1.4c-0.1,0.2-0.1,0.3-0.1,0.4c0,0.1,0.2,0.1,0.5,0.2l0.4,0.1
			c0.1,0.1,0.1,0.4,0,0.4c-0.4,0-0.9,0-1.4,0c-0.4,0-0.7,0-1.2,0c-0.1-0.1-0.1-0.3,0-0.4l0.3,0c0.3,0,0.5-0.1,0.7-0.6
			c0.2-0.5,0.4-1.1,0.8-1.9l1.1-2.9c0.3-0.8,0.5-1.2,0.4-1.5c0.6-0.1,1-0.7,1-0.7c0.2,0,0.2,0.1,0.3,0.2c0.1,0.3,0.2,0.8,0.5,1.6
			l1.6,4.7c0.3,0.7,0.4,1,0.8,1.1l0.5,0.1c0.1,0.1,0.1,0.3,0,0.4c-0.6,0-1.2,0-1.8,0c-0.6,0-1.1,0-1.6,0c-0.1-0.1-0.2-0.3,0-0.4
			l0.4-0.1c0.3,0,0.3-0.1,0.3-0.2c0-0.1-0.1-0.4-0.2-0.8l-0.3-1c-0.1-0.2-0.2-0.2-0.6-0.2H85.7z M87.1,35.3c0.3,0,0.3,0,0.2-0.3
			L87,34c-0.2-0.5-0.4-1.2-0.5-1.4c-0.1,0.3-0.3,0.9-0.5,1.5l-0.3,0.9c-0.1,0.3,0,0.4,0.3,0.4H87.1z"/>
		<path class="st0" d="M91.3,38.4c-0.1-0.2-0.2-0.8-0.2-1.4c0.1-0.1,0.3-0.1,0.4,0c0.2,0.5,0.6,1.2,1.2,1.2c0.4,0,0.6-0.2,0.6-0.6
			c0-0.4-0.4-0.7-0.8-0.9c-0.7-0.4-1.2-0.8-1.2-1.5c0-1,0.9-1.5,1.9-1.5c0.6,0,1.2,0.2,1.3,0.3c0.1,0.3,0.2,0.7,0.2,1.2
			c0,0.1-0.3,0.1-0.4,0c-0.2-0.7-0.5-0.9-0.9-0.9c-0.3,0-0.6,0.2-0.6,0.5c0,0.3,0.2,0.5,0.8,0.8c0.8,0.4,1.3,0.9,1.3,1.7
			c0,1.1-0.9,1.6-2.1,1.6C92.1,38.8,91.6,38.7,91.3,38.4z"/>
		<path class="st0" d="M95.6,38.4c-0.1-0.2-0.2-0.8-0.2-1.4c0.1-0.1,0.3-0.1,0.4,0c0.2,0.5,0.6,1.2,1.2,1.2c0.4,0,0.6-0.2,0.6-0.6
			c0-0.4-0.4-0.7-0.8-0.9c-0.7-0.4-1.2-0.8-1.2-1.5c0-1,0.9-1.5,1.9-1.5c0.6,0,1.2,0.2,1.3,0.3c0.1,0.3,0.2,0.7,0.2,1.2
			c0,0.1-0.3,0.1-0.4,0c-0.2-0.7-0.5-0.9-0.9-0.9c-0.3,0-0.6,0.2-0.6,0.5c0,0.3,0.2,0.5,0.8,0.8c0.8,0.4,1.3,0.9,1.3,1.7
			c0,1.1-0.9,1.6-2.1,1.6C96.4,38.8,95.9,38.7,95.6,38.4z"/>
		<path class="st0" d="M103.9,37c0,0.8,0.3,1,0.5,1c0.1,0,0.3,0,0.5-0.1c0.1,0,0.2,0.2,0.1,0.3c-0.1,0.2-0.7,0.6-1.4,0.6
			c-0.4,0-0.7-0.1-1-0.4c-0.1-0.1-0.1-0.1-0.2-0.1c-0.1,0-0.1,0-0.3,0.1c-0.2,0.2-0.6,0.4-1,0.4c-0.7,0-1.3-0.4-1.3-1.3
			c0-0.6,0.4-1,1.2-1.2c0.5-0.1,0.8-0.2,1.1-0.3c0.2-0.1,0.3-0.1,0.3-0.2c0-0.1,0-0.3,0-0.4c0-0.5-0.2-1-0.7-1
			c-0.3,0-0.5,0.2-0.6,0.7c0,0.2-0.1,0.3-0.2,0.4c-0.2,0.1-0.6,0.3-0.9,0.3c-0.2,0-0.3-0.1-0.3-0.3c0-0.3,0.3-0.7,0.6-0.9
			c0.4-0.3,1.2-0.7,2-0.7c1,0,1.6,0.5,1.5,1.7L103.9,37z M102.4,36.7c0-0.2,0-0.2-0.1-0.2c-0.5,0.1-1,0.3-1,0.8
			c0,0.4,0.3,0.7,0.6,0.7c0.4,0,0.4-0.2,0.5-0.6L102.4,36.7z"/>
		<path class="st0" d="M107.4,34.5c-0.2,0-0.2,0-0.2,0.3v1.8c0,0.7,0,1.4,0.8,1.4c0.2,0,0.4-0.1,0.5-0.2c0.1,0,0.2,0.2,0.2,0.3
			c-0.3,0.4-1,0.7-1.7,0.7c-1,0-1.3-0.6-1.3-1.4v-2.7c0-0.3,0-0.3-0.2-0.3H105c-0.1,0-0.2-0.3-0.1-0.4c0.4-0.1,0.7-0.3,1-0.5
			c0.2-0.2,0.5-0.4,0.9-0.9c0.1,0,0.3,0,0.4,0.1v0.9c0,0.2,0,0.2,0.2,0.2h1.1c0.1,0,0.1,0.1,0.1,0.2c0,0.1,0,0.3-0.2,0.4H107.4z"/>
		<path class="st0" d="M113,37c0,0.8,0.3,1,0.5,1c0.1,0,0.3,0,0.5-0.1c0.1,0,0.2,0.2,0.1,0.3c-0.1,0.2-0.7,0.6-1.4,0.6
			c-0.4,0-0.7-0.1-1-0.4c-0.1-0.1-0.1-0.1-0.2-0.1c-0.1,0-0.1,0-0.3,0.1c-0.2,0.2-0.6,0.4-1,0.4c-0.7,0-1.3-0.4-1.3-1.3
			c0-0.6,0.4-1,1.2-1.2c0.5-0.1,0.8-0.2,1.1-0.3c0.2-0.1,0.3-0.1,0.3-0.2c0-0.1,0-0.3,0-0.4c0-0.5-0.2-1-0.7-1
			c-0.3,0-0.5,0.2-0.6,0.7c0,0.2-0.1,0.3-0.2,0.4c-0.2,0.1-0.6,0.3-0.9,0.3c-0.2,0-0.3-0.1-0.3-0.3c0-0.3,0.3-0.7,0.6-0.9
			c0.4-0.3,1.2-0.7,2-0.7c1,0,1.6,0.5,1.5,1.7L113,37z M111.6,36.7c0-0.2,0-0.2-0.1-0.2c-0.5,0.1-1,0.3-1,0.8c0,0.4,0.3,0.7,0.6,0.7
			c0.4,0,0.4-0.2,0.5-0.6L111.6,36.7z"/>
	</g>
	<g>
		<polygon class="st1" points="123.5,53.1 123.5,56.4 121.8,56.4 121.8,53.1 117.1,53.1 117.1,59.7 128.2,59.7 128.2,53.1 		"/>
		<rect x="84" y="58.1" class="st1" width="44.1" height="3.1"/>
		<path class="st1" d="M84.6,61.9L84.6,61.9c-0.2,0-0.4-0.2-0.4-0.4v-3.6c0-0.2,0.2-0.4,0.4-0.4l0,0c0.2,0,0.4,0.2,0.4,0.4v3.6
			C85,61.7,84.8,61.9,84.6,61.9z"/>
		<path class="st1" d="M85.4,61.9L85.4,61.9c-0.2,0-0.4-0.2-0.4-0.4v-3.6c0-0.2,0.2-0.4,0.4-0.4l0,0c0.2,0,0.4,0.2,0.4,0.4v3.6
			C85.9,61.7,85.7,61.9,85.4,61.9z"/>
		<path class="st1" d="M116.7,61.9L116.7,61.9c-0.2,0-0.4-0.2-0.4-0.4v-3.6c0-0.2,0.2-0.4,0.4-0.4l0,0c0.2,0,0.4,0.2,0.4,0.4v3.6
			C117.1,61.7,116.9,61.9,116.7,61.9z"/>
		<path class="st1" d="M77.4,50.8L77.4,50.8c-3.7,0-6.6,3-6.6,6.6v0.4c-1,0-1.8,0.8-1.8,1.8s0.8,1.8,1.8,1.8v0.4
			c0,3.7,3,6.6,6.6,6.6h0c3.7,0,6.6-3,6.6-6.6v-4.4C84,53.8,81.1,50.8,77.4,50.8z M69.9,59.7c0-0.5,0.4-0.9,0.9-0.9
			c0.5,0,0.9,0.4,0.9,0.9s-0.4,0.9-0.9,0.9C70.3,60.6,69.9,60.2,69.9,59.7z M81.8,61.9c0,2.4-2,4.4-4.4,4.4h0
			c-1.5,0-2.8-0.7-3.6-1.9c-0.8-1.1-0.7-2.7,0.2-3.7l0.8-1l-0.8-1c-0.9-1.1-1-2.6-0.2-3.7c0.8-1.1,2.1-1.9,3.6-1.9h0
			c2.4,0,4.4,2,4.4,4.4V61.9z"/>
	</g>
</g>
<g>
	<g>
		<path class="st2" d="M264,32.7c0-1.2,0-1.3-0.5-1.4l-0.3,0c-0.1-0.1-0.1-0.4,0-0.4c0.9-0.1,1.8-0.1,3-0.1c1.2,0,1.9,0.1,2.4,0.4
			c0.5,0.3,0.8,0.8,0.8,1.5c0,1-0.9,1.4-1.2,1.5c-0.1,0-0.2,0.1-0.2,0.1c0,0,0.1,0.1,0.2,0.1c0.9,0.2,1.8,0.8,1.8,2
			c0,1.1-0.6,1.8-1.4,2c-0.8,0.3-1.7,0.3-2.4,0.3c-0.4,0-0.9,0-1.2,0c-0.6,0-1.2,0-1.9,0c-0.1-0.1-0.1-0.4,0-0.4l0.3-0.1
			c0.5-0.1,0.6-0.2,0.6-1.3V32.7z M265.7,33.8c0,0.3,0,0.3,0.6,0.3c1,0,1.4-0.7,1.4-1.4c0-1-0.6-1.6-1.5-1.6c-0.6,0-0.6,0.1-0.6,0.6
			V33.8z M265.7,36.6c0,0.9,0.1,1.5,1.1,1.5c0.9,0,1.4-0.7,1.4-1.7c0-1-0.6-1.8-1.8-1.8c-0.7,0-0.7,0-0.7,0.5V36.6z"/>
		<path class="st2" d="M270.7,36.3c0-1.7,1.3-2.7,2.8-2.7s2.7,0.9,2.7,2.6c0,1.8-1.3,2.6-2.8,2.6C272,38.8,270.8,38,270.7,36.3z
			 M272.5,36.1c0,1.3,0.4,2.2,1.1,2.2c0.7,0,0.9-0.8,0.9-1.9c0-1.2-0.3-2.2-1-2.2C272.9,34.2,272.5,34.8,272.5,36.1z"/>
		<path class="st2" d="M278.9,33.7c0,0.2,0.1,0.3,0.1,0.3c0.3-0.2,0.8-0.3,1.3-0.3c1.4,0,2.2,1,2.2,2.4c0,1.7-1.2,2.7-3,2.7
			c-0.5,0-1.1-0.1-1.3-0.2c-0.2-0.1-0.3-0.1-0.4-0.1c-0.1,0-0.3,0.1-0.4,0.2c-0.1,0-0.2,0-0.2-0.1c0-0.2,0-0.6,0-1.2V32
			c0-0.5,0-0.6-0.2-0.8l-0.2-0.1c-0.1-0.1-0.1-0.3,0-0.4c0.5-0.1,1.2-0.4,1.8-0.7c0.1,0,0.2,0,0.2,0.1c0,0.5,0,1,0,1.8V33.7z
			 M278.9,36.9c0,0.3,0.1,0.6,0.2,0.9c0.2,0.2,0.4,0.4,0.7,0.4c0.8,0,1.1-0.9,1.1-1.8c0-1.2-0.6-2-1.4-2c-0.2,0-0.4,0.1-0.5,0.1
			c-0.1,0.1-0.1,0.3-0.1,0.6V36.9z"/>
		<path class="st2" d="M285.3,33.7c0,0.2,0.1,0.3,0.1,0.3c0.3-0.2,0.8-0.3,1.3-0.3c1.4,0,2.2,1,2.2,2.4c0,1.7-1.2,2.7-3,2.7
			c-0.5,0-1.1-0.1-1.3-0.2c-0.2-0.1-0.3-0.1-0.4-0.1c-0.1,0-0.3,0.1-0.4,0.2c-0.1,0-0.2,0-0.2-0.1c0-0.2,0-0.6,0-1.2V32
			c0-0.5,0-0.6-0.2-0.8l-0.2-0.1c-0.1-0.1-0.1-0.3,0-0.4c0.5-0.1,1.2-0.4,1.8-0.7c0.1,0,0.2,0,0.2,0.1c0,0.5,0,1,0,1.8V33.7z
			 M285.3,36.9c0,0.3,0.1,0.6,0.2,0.9c0.2,0.2,0.4,0.4,0.7,0.4c0.8,0,1.1-0.9,1.1-1.8c0-1.2-0.6-2-1.4-2c-0.2,0-0.4,0.1-0.5,0.1
			c-0.1,0.1-0.1,0.3-0.1,0.6V36.9z"/>
		<path class="st2" d="M289.2,34.2c-0.1-0.1-0.1-0.4,0-0.4c0.4,0,0.9,0,1.6,0c0.4,0,0.9,0,1.3,0c0.1,0,0.1,0.3,0,0.4l-0.2,0
			c-0.3,0.1-0.4,0.1-0.4,0.2c0,0.1,0.1,0.5,0.4,1.1c0.1,0.3,0.4,1.1,0.5,1.4c0.1-0.3,0.3-0.5,0.4-0.8l0.2-0.5
			c0.3-0.6,0.4-1.1,0.4-1.2c0-0.1-0.1-0.1-0.3-0.2l-0.2,0c-0.1-0.1-0.1-0.4,0-0.4c0.3,0,0.6,0,1.2,0c0.3,0,0.6,0,0.9,0
			c0.1,0,0.1,0.3,0,0.4l-0.2,0c-0.2,0-0.4,0.1-0.6,0.3c-0.1,0.2-0.4,0.7-0.7,1.3l-0.6,1.3l-1.8,3.8c-0.3,0.5-0.6,0.8-1,0.8
			c-0.6,0-0.8-0.4-0.8-0.7c0-0.4,0.3-0.6,0.7-0.6h0.3c0.3,0,0.5-0.1,0.6-0.3c0.1-0.2,0.2-0.4,0.3-0.7c0.1-0.1,0.2-0.4,0.2-0.5
			c0-0.2,0-0.4-0.2-0.9l-1.2-2.9c-0.2-0.6-0.3-0.8-0.7-0.9L289.2,34.2z"/>
	</g>
	<g>
		<polygon class="st3" points="303.7,53 303.7,56.4 302,56.4 302,53 297.3,53 297.3,59.7 308.4,59.7 308.4,53 		"/>
		<rect x="264.1" y="58.1" class="st3" width="44.2" height="3.1"/>
		<path class="st3" d="M264.7,61.9L264.7,61.9c-0.2,0-0.4-0.2-0.4-0.4v-3.6c0-0.2,0.2-0.4,0.4-0.4l0,0c0.2,0,0.4,0.2,0.4,0.4v3.6
			C265.1,61.7,264.9,61.9,264.7,61.9z"/>
		<path class="st3" d="M265.6,61.9L265.6,61.9c-0.2,0-0.4-0.2-0.4-0.4v-3.6c0-0.2,0.2-0.4,0.4-0.4l0,0c0.2,0,0.4,0.2,0.4,0.4v3.6
			C266,61.7,265.8,61.9,265.6,61.9z"/>
		<path class="st3" d="M296.9,61.9L296.9,61.9c-0.2,0-0.4-0.2-0.4-0.4v-3.6c0-0.2,0.2-0.4,0.4-0.4h0c0.2,0,0.4,0.2,0.4,0.4v3.6
			C297.3,61.7,297.1,61.9,296.9,61.9z"/>
		<path class="st3" d="M257.5,50.8L257.5,50.8c-3.7,0-6.6,3-6.6,6.6v0.4c-1,0-1.8,0.8-1.8,1.8c0,1,0.8,1.8,1.8,1.8v0.4
			c0,3.7,3,6.6,6.6,6.6l0,0c3.7,0,6.6-3,6.6-6.6v-4.4C264.1,53.8,261.2,50.8,257.5,50.8z M250,59.7c0-0.5,0.4-0.9,0.9-0.9
			s0.9,0.4,0.9,0.9c0,0.5-0.4,0.9-0.9,0.9S250,60.2,250,59.7z M261.9,61.9c0,2.4-2,4.4-4.4,4.4l0,0c-1.5,0-2.8-0.7-3.6-1.9
			c-0.8-1.1-0.7-2.7,0.2-3.7l0.8-1l-0.8-1c-0.9-1.1-1-2.6-0.2-3.7c0.8-1.1,2.1-1.9,3.6-1.9l0,0c2.4,0,4.4,2,4.4,4.4V61.9z"/>
	</g>
</g>
<g>
	<rect x="64.1" y="106.2" class="st4" width="69.1" height="30.6"/>
	<path class="st5" d="M133.7,106.2H63.5c-0.5,0-0.9-0.4-0.9-0.9v-3.6c0-0.5,0.4-0.9,0.9-0.9h70.2c0.5,0,0.9,0.4,0.9,0.9v3.6
		C134.6,105.8,134.2,106.2,133.7,106.2z"/>
	<path class="st5" d="M133.7,100.8H63.5c-0.5,0-0.9-0.4-0.9-0.9v-5.4c0-0.5,0.4-0.9,0.9-0.9h70.2c0.5,0,0.9,0.4,0.9,0.9v5.4
		C134.6,100.4,134.2,100.8,133.7,100.8z"/>
	<path class="st5" d="M133.7,144H63.5c-0.5,0-0.9-0.4-0.9-0.9v-5.4c0-0.5,0.4-0.9,0.9-0.9h70.2c0.5,0,0.9,0.4,0.9,0.9v5.4
		C134.6,143.6,134.2,144,133.7,144z"/>
	<rect x="243.3" y="128.7" class="st4" width="69.1" height="30.6"/>
	<path class="st5" d="M312.9,128.7h-70.2c-0.5,0-0.9-0.4-0.9-0.9v-3.6c0-0.5,0.4-0.9,0.9-0.9h70.2c0.5,0,0.9,0.4,0.9,0.9v3.6
		C313.8,128.3,313.4,128.7,312.9,128.7z"/>
	<path class="st5" d="M312.9,123.3h-70.2c-0.5,0-0.9-0.4-0.9-0.9V117c0-0.5,0.4-0.9,0.9-0.9h70.2c0.5,0,0.9,0.4,0.9,0.9v5.4
		C313.8,122.9,313.4,123.3,312.9,123.3z"/>
	<path class="st5" d="M312.9,166.5h-70.2c-0.5,0-0.9-0.4-0.9-0.9v-5.4c0-0.5,0.4-0.9,0.9-0.9h70.2c0.5,0,0.9,0.4,0.9,0.9v5.4
		C313.8,166.1,313.4,166.5,312.9,166.5z"/>
	<path class="st6" d="M280.9,137.7h-4.3c-2.8,0-5.1-2.3-5.1-5.1v-9.3H286v9.3C286,135.4,283.7,137.7,280.9,137.7z"/>
	<g>
		<path class="st7" d="M275.1,131c-2.7-1.2-5.8,0-6.9,2.7s0,5.8,2.7,6.9c2.7,1.2,5.8,0,6.9-2.7S277.7,132.1,275.1,131z M271.6,139
			c-1.8-0.8-2.6-2.8-1.8-4.6c0.8-1.8,2.8-2.6,4.6-1.8c1.8,0.8,2.6,2.8,1.8,4.6C275.4,139,273.3,139.8,271.6,139z"/>
		<path class="st7" d="M267.4,148.6L267.4,148.6c-3.5-1.5-5.2-5.7-3.6-9.2l2.1-4.8c0.4-0.9,1.4-1.3,2.3-0.9l9.6,4.2
			c0.9,0.4,1.3,1.4,0.9,2.3l-2.1,4.8C275,148.6,270.9,150.2,267.4,148.6z"/>
		<path class="st8" d="M272.1,141.4c0.3-0.7,0-1.5-0.7-1.8c-0.7-0.3-1.5,0-1.8,0.7c-0.2,0.4-0.1,0.8,0,1.2l-1.2,2.8l1.6,0.7l1.2-2.8
			C271.5,142.1,271.9,141.8,272.1,141.4z"/>
	</g>
	<g>
		<path class="st9" d="M282.8,130.7c-2.7,0.9-4.2,3.9-3.3,6.7s3.9,4.2,6.7,3.3c2.7-0.9,4.2-3.9,3.3-6.7
			C288.5,131.3,285.5,129.8,282.8,130.7z M285.6,139c-1.8,0.6-3.8-0.4-4.4-2.2s0.4-3.8,2.2-4.4s3.8,0.4,4.4,2.2
			S287.4,138.4,285.6,139z"/>
		<path class="st9" d="M288.9,149L288.9,149c-3.7,1.2-7.6-0.7-8.9-4.4l-1.7-5c-0.3-0.9,0.2-1.9,1.1-2.2l10-3.4
			c0.9-0.3,1.9,0.2,2.2,1.1l1.7,5C294.6,143.7,292.6,147.7,288.9,149z"/>
		<path class="st10" d="M287.5,140.4c-0.2-0.7-1-1.1-1.8-0.9s-1.1,1-0.9,1.8c0.1,0.4,0.5,0.7,0.8,0.9l1,2.9l1.7-0.6l-1-2.9
			C287.6,141.3,287.7,140.8,287.5,140.4z"/>
	</g>
	<path class="st11" d="M282.6,134.2h-7.8c-0.2,0-0.5-0.2-0.5-0.4l0,0c0-0.2,0.2-0.5,0.5-0.5h7.8c0.2,0,0.5,0.2,0.5,0.5l0,0
		C283.1,134,282.9,134.2,282.6,134.2z"/>
	<rect x="64.1" y="192.6" class="st4" width="69.1" height="30.6"/>
	<path class="st5" d="M133.7,192.6H63.5c-0.5,0-0.9-0.4-0.9-0.9v-3.6c0-0.5,0.4-0.9,0.9-0.9h70.2c0.5,0,0.9,0.4,0.9,0.9v3.6
		C134.6,192.2,134.2,192.6,133.7,192.6z"/>
	<path class="st5" d="M133.7,187.2H63.5c-0.5,0-0.9-0.4-0.9-0.9v-5.4c0-0.5,0.4-0.9,0.9-0.9h70.2c0.5,0,0.9,0.4,0.9,0.9v5.4
		C134.6,186.8,134.2,187.2,133.7,187.2z"/>
	<path class="st5" d="M133.7,230.4H63.5c-0.5,0-0.9-0.4-0.9-0.9v-5.4c0-0.5,0.4-0.9,0.9-0.9h70.2c0.5,0,0.9,0.4,0.9,0.9v5.4
		C134.6,230,134.2,230.4,133.7,230.4z"/>
	<g>
		<rect x="243.3" y="215.1" class="st4" width="69.1" height="30.6"/>
		<path class="st5" d="M312.9,215.1h-70.2c-0.5,0-0.9-0.4-0.9-0.9v-3.6c0-0.5,0.4-0.9,0.9-0.9h70.2c0.5,0,0.9,0.4,0.9,0.9v3.6
			C313.8,214.7,313.4,215.1,312.9,215.1z"/>
		<path class="st11" d="M281.8,220.6h-7.8c-0.2,0-0.5-0.2-0.5-0.4l0,0c0-0.2,0.2-0.4,0.5-0.4h7.8c0.2,0,0.4,0.2,0.4,0.4l0,0
			C282.2,220.4,282,220.6,281.8,220.6z"/>
		<path class="st12" d="M313,199.7h-70.4c-0.4,0-0.8-0.4-0.8-0.8l0.6-4.2c0-0.4,0.4-0.8,0.8-0.8h69.1c0.4,0,0.8,0.4,0.8,0.8l0.6,4.2
			C313.8,199.3,313.5,199.7,313,199.7z"/>
		<path class="st5" d="M312.9,252.9h-70.2c-0.5,0-0.9-0.4-0.9-0.9v-5.4c0-0.5,0.4-0.9,0.9-0.9h70.2c0.5,0,0.9,0.4,0.9,0.9v5.4
			C313.8,252.5,313.4,252.9,312.9,252.9z"/>
		<path class="st6" d="M280,185.3h-4.3c-2.8,0-5.1,2.3-5.1,5.1v9.3h14.5v-9.3C285.1,187.6,282.8,185.3,280,185.3z M281.8,189.8h-7.8
			c-0.2,0-0.5-0.2-0.5-0.5s0.2-0.5,0.5-0.5h7.8c0.2,0,0.5,0.2,0.5,0.5S282,189.8,281.8,189.8z"/>
		<polygon class="st13" points="310.2,209.7 245.4,209.7 243.3,199.7 312.4,199.7 		"/>
	</g>
	<path class="st6" d="M101,115.2h-4.3c-2.8,0-5.1-2.3-5.1-5.1v-9.3h14.5v9.3C106.1,112.9,103.8,115.2,101,115.2z"/>
	<g>
		<path class="st7" d="M95.2,108.5c-2.7-1.2-5.8,0-6.9,2.7c-1.2,2.7,0,5.8,2.7,6.9c2.7,1.2,5.8,0,6.9-2.7
			C99,112.7,97.8,109.6,95.2,108.5z M91.7,116.5c-1.8-0.8-2.6-2.8-1.8-4.6s2.8-2.6,4.6-1.8c1.8,0.8,2.6,2.8,1.8,4.6
			S93.4,117.3,91.7,116.5z"/>
		<path class="st7" d="M87.5,126.1L87.5,126.1c-3.5-1.5-5.2-5.7-3.6-9.2l2.1-4.8c0.4-0.9,1.4-1.3,2.3-0.9l9.6,4.2
			c0.9,0.4,1.3,1.4,0.9,2.3l-2.1,4.8C95.1,126.1,91,127.7,87.5,126.1z"/>
		<path class="st8" d="M92.2,118.9c0.3-0.7,0-1.5-0.7-1.8c-0.7-0.3-1.5,0-1.8,0.7c-0.2,0.4-0.1,0.8,0,1.2l-1.2,2.8l1.6,0.7l1.2-2.8
			C91.6,119.6,92,119.3,92.2,118.9z"/>
	</g>
	<path class="st11" d="M102.7,111.7h-7.8c-0.2,0-0.4-0.2-0.4-0.5l0,0c0-0.2,0.2-0.4,0.4-0.4h7.8c0.2,0,0.4,0.2,0.4,0.4l0,0
		C103.2,111.5,103,111.7,102.7,111.7z"/>
	<path class="st6" d="M100.9,201.6h-4.3c-2.8,0-5.1-2.3-5.1-5.1v-9.3H106v9.3C106,199.3,103.7,201.6,100.9,201.6z"/>
	<g>
		<path class="st9" d="M102.8,194.6c-2.7,0.9-4.2,3.9-3.3,6.7c0.9,2.7,3.9,4.2,6.7,3.3c2.7-0.9,4.2-3.9,3.3-6.7
			S105.5,193.7,102.8,194.6z M105.6,202.9c-1.8,0.6-3.8-0.4-4.4-2.2c-0.6-1.8,0.4-3.8,2.2-4.4c1.8-0.6,3.8,0.4,4.4,2.2
			C108.4,200.3,107.4,202.3,105.6,202.9z"/>
		<path class="st9" d="M108.9,212.9L108.9,212.9c-3.7,1.2-7.6-0.7-8.9-4.4l-1.7-5c-0.3-0.9,0.2-1.9,1.1-2.2l10-3.4
			c0.9-0.3,1.9,0.2,2.2,1.1l1.7,5C114.6,207.6,112.6,211.6,108.9,212.9z"/>
		<path class="st10" d="M107.5,204.3c-0.2-0.7-1-1.1-1.8-0.9c-0.7,0.2-1.1,1-0.9,1.8c0.1,0.4,0.5,0.7,0.8,0.9l1,2.9l1.7-0.6l-1-2.9
			C107.6,205.2,107.7,204.7,107.5,204.3z"/>
	</g>
	<path class="st11" d="M102.6,198.1h-7.8c-0.2,0-0.4-0.2-0.4-0.4l0,0c0-0.2,0.2-0.4,0.4-0.4h7.8c0.2,0,0.5,0.2,0.5,0.4l0,0
		C103.1,197.9,102.9,198.1,102.6,198.1z"/>
</g>
<g>
	<g>
		<line class="st14" x1="152.6" y1="121.5" x2="219.9" y2="142.6"/>
		<g>
			<path d="M224.6,144c-2.4,0.1-5.5,0.7-7.7,1.6l2.4-3.2l-0.2-4C220.4,140.3,222.6,142.5,224.6,144z"/>
		</g>
	</g>
</g>
<g>
	<g>
		<line class="st14" x1="222.2" y1="161.5" x2="156.5" y2="188.6"/>
		<g>
			<path d="M152,190.4c1.8-1.6,3.8-4,4.9-6.1l0.2,4l2.7,3C157.6,190.6,154.4,190.3,152,190.4z"/>
		</g>
	</g>
</g>
<g>
	<g>
		<line class="st14" x1="151.4" y1="207.9" x2="218.8" y2="229"/>
		<g>
			<path d="M223.4,230.4c-2.4,0.1-5.5,0.7-7.7,1.6l2.4-3.2l-0.2-4C219.2,226.7,221.4,228.9,223.4,230.4z"/>
		</g>
	</g>
</g>
<circle class="st15" cx="53.6" cy="82.8" r="7.2"/>
<circle class="st15" cx="231.8" cy="105.3" r="7.2"/>
<circle class="st15" cx="231.8" cy="193.9" r="7.2"/>
<circle class="st15" cx="53.6" cy="171.4" r="7.2"/>
<g>
	<path d="M54.5,85.1c0,1,0.1,1.1,0.7,1.1l0.5,0c0.1,0.1,0.1,0.4,0,0.4c-0.4,0-1.2,0-1.9,0c-0.8,0-1.5,0-1.9,0c-0.1,0-0.1-0.3,0-0.4
		l0.5,0c0.6,0,0.7-0.2,0.7-1.1v-3.9c0-0.8,0-1-0.6-1l-0.6-0.1c-0.1-0.1-0.1-0.3,0-0.4c0.5-0.1,1.1-0.2,1.5-0.3
		c0.5-0.2,1-0.4,1.1-0.4c0.1,0,0.1,0,0.2,0.1c0,0.3,0,0.8,0,1.4V85.1z"/>
</g>
<g>
	<path d="M232.7,107.9c0.9,0,1,0,1.4-0.7c0.1-0.1,0.4-0.1,0.4,0.1c-0.1,0.7-0.4,1.6-0.6,1.9c-0.5,0-0.9,0-1.7,0h-1.9
		c-0.6,0-1.1,0-1.3,0c-0.1,0-0.1-0.2-0.1-0.3c0.5-0.4,1.1-1.1,1.9-1.8c0.8-0.9,1.6-1.9,1.6-3.2c0-0.8-0.5-1.5-1.3-1.5
		c-0.7,0-1.2,0.4-1.5,1.1c-0.1,0.1-0.4,0-0.4-0.2c0.5-1.2,1.6-1.9,2.8-1.9c1.4,0,2.3,0.9,2.3,2c0,0.9-0.4,1.6-1.8,3l-0.6,0.5
		c-0.5,0.5-0.6,0.7-0.6,0.8c0,0.1,0.1,0.1,0.2,0.1H232.7z"/>
</g>
<g>
	<path d="M51.6,169.4c-0.2,0-0.3-0.1-0.3-0.2c0.5-1,1.4-1.5,2.5-1.5c1.2,0,1.9,0.6,1.9,1.4c0,0.5-0.2,1-1.5,1.5
		c-0.1,0.1,0,0.2,0.1,0.2c1.1,0,2,0.7,2,1.9c0,0.9-0.4,1.7-1.4,2.4c-1,0.7-2.1,1-2.8,1s-1.3-0.2-1.3-0.9c0-0.3,0.2-0.7,0.7-0.7
		c0.4,0,0.7,0.5,0.8,0.6c0.1,0.2,0.3,0.3,0.5,0.3c0.5,0,1.6-0.7,1.6-2.2c0-1.1-0.6-1.8-1.4-1.8c-0.5,0-0.9,0.2-1.2,0.5
		c-0.2,0-0.4-0.3-0.3-0.6c0.5-0.2,1.5-0.6,1.9-1c0.2-0.2,0.5-0.5,0.5-1.1c0-0.4-0.4-0.9-1-0.9C52.5,168.4,52,168.8,51.6,169.4z"/>
</g>
<g>
	<path d="M232,195.9c0-0.3,0-0.3-0.3-0.3h-2.8c-0.1-0.1-0.2-0.2-0.1-0.4l3.9-5.6c0.1-0.2,0.2-0.3,0.4-0.3h0.3c0.2,0,0.3,0.1,0.1,0.3
		l-3.6,5c-0.1,0.2-0.1,0.3,0.3,0.3h1.5c0.3,0,0.3,0,0.3-0.3v-1.7c0-0.3,0.1-0.4,0.3-0.4c0.3-0.1,1-0.4,1.2-0.4
		c0.1,0,0.2,0.1,0.2,0.2v2.3c0,0.3,0,0.3,0.3,0.3h0.8c0.2,0.1,0.2,0.6,0,0.7h-0.8c-0.3,0-0.3,0-0.3,0.3v0.3c0,1,0.1,1.1,0.6,1.1
		l0.3,0c0.1,0.1,0.1,0.4,0,0.4c-0.4,0-1.1,0-1.6,0c-0.8,0-1.5,0-1.9,0c-0.1,0-0.1-0.3,0-0.4l0.5,0c0.6,0,0.7-0.1,0.7-1.1V195.9z"/>
</g>
</svg>
