<?xml version="1.0" encoding="utf-8"?>
<!-- Generator: Adobe Illustrator 22.1.0, SVG Export Plug-In . SVG Version: 6.00 Build 0)  -->
<svg version="1.1" id="Layer_1" xmlns="http://www.w3.org/2000/svg" xmlns:xlink="http://www.w3.org/1999/xlink" x="0px" y="0px"
	 viewBox="0 0 504 648" style="enable-background:new 0 0 504 648;" xml:space="preserve">
<style type="text/css">
	.st0{fill:#153267;}
	.st1{fill:#005AC8;stroke:#153267;stroke-width:0.4911;stroke-miterlimit:10;}
	.st2{fill:#006B33;}
	.st3{fill:#0AB45A;stroke:#006B33;stroke-width:0.4905;stroke-miterlimit:10;}
	.st4{fill:#999999;stroke:#000000;stroke-width:0.2513;stroke-miterlimit:10;}
	.st5{fill:#CCCCCC;stroke:#000000;stroke-width:0.25;stroke-miterlimit:10;}
	.st6{fill:#E6E6E6;stroke:#000000;stroke-width:0.25;stroke-miterlimit:10;}
	.st7{fill:#0AB45A;stroke:#006B33;stroke-width:0.1964;stroke-miterlimit:10;}
	.st8{fill:#004F21;stroke:#002D0A;stroke-width:0.1964;stroke-miterlimit:10;}
	.st9{fill:#FAE6BE;stroke:#000000;stroke-width:0.25;stroke-miterlimit:10;}
	.st10{fill:#F2F2F2;stroke:#333333;stroke-miterlimit:10;}
	.st11{fill:none;stroke:#000000;stroke-width:2;stroke-miterlimit:10;}
	.st12{fill:none;stroke:#000000;stroke-width:2;stroke-miterlimit:10;stroke-dasharray:8,6;}
	.st13{fill:none;stroke:#AA0A3C;stroke-width:2;stroke-miterlimit:10;}
	.st14{fill:#5C0015;}
	.st15{fill:#AA0A3C;stroke:#5C0015;stroke-width:0.4914;stroke-miterlimit:10;}
	.st16{fill:#005AC8;stroke:#153267;stroke-width:0.2673;stroke-miterlimit:10;}
	.st17{fill:#000037;stroke:#00001E;stroke-width:0.2673;stroke-miterlimit:10;}
	.st18{fill:#CCCCCC;stroke:#000000;stroke-width:0.2236;stroke-miterlimit:10;}
	.st19{fill:#333333;stroke:#000000;stroke-width:0.25;stroke-miterlimit:10;}
	.st20{fill:#AA0A3C;stroke:#5C0015;stroke-width:0.2673;stroke-miterlimit:10;}
	.st21{fill:#500000;stroke:#2A0000;stroke-width:0.2673;stroke-miterlimit:10;}
</style>
<g id="Assata">
	<g>
		<path class="st0" d="M50.9,20.5c-0.3,0-0.3,0-0.4,0.2l-0.5,1.4C50,22.3,50,22.4,50,22.5c0,0.1,0.2,0.1,0.5,0.2l0.4,0.1
			c0.1,0.1,0.1,0.4,0,0.4c-0.4,0-0.9,0-1.4,0c-0.4,0-0.7,0-1.2,0c-0.1-0.1-0.1-0.3,0-0.4l0.3,0c0.3,0,0.5-0.1,0.7-0.6
			c0.2-0.5,0.4-1.1,0.8-1.9l1.1-2.9c0.3-0.8,0.5-1.2,0.4-1.5c0.6-0.1,1-0.7,1-0.7c0.2,0,0.2,0.1,0.3,0.2c0.1,0.3,0.2,0.8,0.5,1.6
			l1.6,4.7c0.3,0.7,0.4,1,0.8,1.1l0.5,0.1c0.1,0.1,0.1,0.3,0,0.4c-0.6,0-1.2,0-1.8,0c-0.6,0-1.1,0-1.6,0c-0.1-0.1-0.2-0.3,0-0.4
			l0.4-0.1c0.3,0,0.3-0.1,0.3-0.2c0-0.1-0.1-0.4-0.2-0.8l-0.3-1c-0.1-0.2-0.2-0.2-0.6-0.2H50.9z M52.3,19.8c0.3,0,0.3,0,0.2-0.3
			l-0.3-1c-0.2-0.5-0.4-1.2-0.5-1.4c-0.1,0.3-0.3,0.9-0.5,1.5l-0.3,0.9c-0.1,0.3,0,0.4,0.3,0.4H52.3z"/>
		<path class="st0" d="M56.5,23c-0.1-0.2-0.2-0.8-0.2-1.4c0.1-0.1,0.3-0.1,0.4,0c0.2,0.5,0.6,1.2,1.2,1.2c0.4,0,0.6-0.2,0.6-0.6
			c0-0.4-0.4-0.7-0.8-0.9c-0.7-0.4-1.2-0.8-1.2-1.5c0-1,0.9-1.5,1.9-1.5c0.6,0,1.2,0.2,1.3,0.3c0.1,0.3,0.2,0.7,0.2,1.2
			c0,0.1-0.3,0.1-0.4,0c-0.2-0.7-0.5-0.9-0.9-0.9c-0.3,0-0.6,0.2-0.6,0.5c0,0.3,0.2,0.5,0.8,0.8c0.8,0.4,1.3,0.9,1.3,1.7
			c0,1.1-0.9,1.6-2.1,1.6C57.3,23.3,56.8,23.2,56.5,23z"/>
		<path class="st0" d="M60.8,23c-0.1-0.2-0.2-0.8-0.2-1.4c0.1-0.1,0.3-0.1,0.4,0c0.2,0.5,0.6,1.2,1.2,1.2c0.4,0,0.6-0.2,0.6-0.6
			c0-0.4-0.4-0.7-0.8-0.9c-0.7-0.4-1.2-0.8-1.2-1.5c0-1,0.9-1.5,1.9-1.5c0.6,0,1.2,0.2,1.3,0.3c0.1,0.3,0.2,0.7,0.2,1.2
			c0,0.1-0.3,0.1-0.4,0c-0.2-0.7-0.5-0.9-0.9-0.9c-0.3,0-0.6,0.2-0.6,0.5c0,0.3,0.2,0.5,0.8,0.8c0.8,0.4,1.3,0.9,1.3,1.7
			c0,1.1-0.9,1.6-2.1,1.6C61.6,23.3,61.1,23.2,60.8,23z"/>
		<path class="st0" d="M69.1,21.5c0,0.8,0.3,1,0.5,1c0.1,0,0.3,0,0.5-0.1c0.1,0,0.2,0.2,0.1,0.3c-0.1,0.2-0.7,0.6-1.4,0.6
			c-0.4,0-0.7-0.1-1-0.4c-0.1-0.1-0.1-0.1-0.2-0.1c-0.1,0-0.1,0-0.3,0.1c-0.2,0.2-0.6,0.4-1,0.4c-0.7,0-1.3-0.4-1.3-1.3
			c0-0.6,0.4-1,1.2-1.2c0.5-0.1,0.8-0.2,1.1-0.3c0.2-0.1,0.3-0.1,0.3-0.2c0-0.1,0-0.3,0-0.4c0-0.5-0.2-1-0.7-1
			c-0.3,0-0.5,0.2-0.6,0.7c0,0.2-0.1,0.3-0.2,0.4c-0.2,0.1-0.6,0.3-0.9,0.3c-0.2,0-0.3-0.1-0.3-0.3c0-0.3,0.3-0.7,0.6-0.9
			c0.4-0.3,1.2-0.7,2-0.7c1,0,1.6,0.5,1.5,1.7L69.1,21.5z M67.6,21.2c0-0.2,0-0.2-0.1-0.2c-0.5,0.1-1,0.3-1,0.8
			c0,0.4,0.3,0.7,0.6,0.7c0.4,0,0.4-0.2,0.5-0.6L67.6,21.2z"/>
		<path class="st0" d="M72.6,19c-0.2,0-0.2,0-0.2,0.3v1.8c0,0.7,0,1.4,0.8,1.4c0.2,0,0.4-0.1,0.5-0.2c0.1,0,0.2,0.2,0.2,0.3
			c-0.3,0.4-1,0.7-1.7,0.7c-1,0-1.3-0.6-1.3-1.4v-2.7c0-0.3,0-0.3-0.2-0.3h-0.4c-0.1,0-0.2-0.3-0.1-0.4c0.4-0.1,0.7-0.3,1-0.5
			c0.2-0.2,0.5-0.4,0.9-0.9c0.1,0,0.3,0,0.4,0.1v0.9c0,0.2,0,0.2,0.2,0.2h1.1c0.1,0,0.1,0.1,0.1,0.2c0,0.1,0,0.3-0.2,0.4H72.6z"/>
		<path class="st0" d="M78.3,21.5c0,0.8,0.3,1,0.5,1c0.1,0,0.3,0,0.5-0.1c0.1,0,0.2,0.2,0.1,0.3c-0.1,0.2-0.7,0.6-1.4,0.6
			c-0.4,0-0.7-0.1-1-0.4c-0.1-0.1-0.1-0.1-0.2-0.1c-0.1,0-0.1,0-0.3,0.1c-0.2,0.2-0.6,0.4-1,0.4c-0.7,0-1.3-0.4-1.3-1.3
			c0-0.6,0.4-1,1.2-1.2c0.5-0.1,0.8-0.2,1.1-0.3c0.2-0.1,0.3-0.1,0.3-0.2c0-0.1,0-0.3,0-0.4c0-0.5-0.2-1-0.7-1
			c-0.3,0-0.5,0.2-0.6,0.7c0,0.2-0.1,0.3-0.2,0.4c-0.2,0.1-0.6,0.3-0.9,0.3c-0.2,0-0.3-0.1-0.3-0.3c0-0.3,0.3-0.7,0.6-0.9
			c0.4-0.3,1.2-0.7,2-0.7c1,0,1.6,0.5,1.5,1.7L78.3,21.5z M76.8,21.2c0-0.2,0-0.2-0.1-0.2c-0.5,0.1-1,0.3-1,0.8
			c0,0.4,0.3,0.7,0.6,0.7c0.4,0,0.4-0.2,0.5-0.6L76.8,21.2z"/>
	</g>
	<g>
		<polygon class="st1" points="88.7,37.9 88.7,41.2 87,41.2 87,37.9 82.3,37.9 82.3,44.6 93.4,44.6 93.4,37.9 		"/>
		<rect x="49.2" y="43" class="st1" width="44.2" height="3.1"/>
		<path class="st1" d="M49.7,46.8L49.7,46.8c-0.2,0-0.4-0.2-0.4-0.4v-3.6c0-0.2,0.2-0.4,0.4-0.4l0,0c0.2,0,0.4,0.2,0.4,0.4v3.6
			C50.2,46.6,50,46.8,49.7,46.8z"/>
		<path class="st1" d="M50.6,46.8L50.6,46.8c-0.2,0-0.4-0.2-0.4-0.4v-3.6c0-0.2,0.2-0.4,0.4-0.4l0,0c0.2,0,0.4,0.2,0.4,0.4v3.6
			C51,46.6,50.8,46.8,50.6,46.8z"/>
		<path class="st1" d="M81.9,46.8L81.9,46.8c-0.2,0-0.4-0.2-0.4-0.4v-3.6c0-0.2,0.2-0.4,0.4-0.4l0,0c0.2,0,0.4,0.2,0.4,0.4v3.6
			C82.3,46.6,82.1,46.8,81.9,46.8z"/>
		<path class="st1" d="M42.5,35.7L42.5,35.7c-3.7,0-6.6,3-6.6,6.6v0.4c-1,0-1.8,0.8-1.8,1.8c0,1,0.8,1.8,1.8,1.8v0.4
			c0,3.7,3,6.6,6.6,6.6h0c3.7,0,6.6-3,6.6-6.6v-4.4C49.2,38.7,46.2,35.7,42.5,35.7z M35,44.6c0-0.5,0.4-0.9,0.9-0.9s0.9,0.4,0.9,0.9
			s-0.4,0.9-0.9,0.9S35,45,35,44.6z M47,46.8c0,2.4-2,4.4-4.4,4.4h0c-1.5,0-2.8-0.7-3.6-1.9c-0.8-1.1-0.7-2.7,0.2-3.7l0.8-1l-0.8-1
			c-0.9-1.1-1-2.6-0.2-3.7c0.8-1.1,2.1-1.9,3.6-1.9h0c2.4,0,4.4,2,4.4,4.4V46.8z"/>
	</g>
</g>
<g id="Edgar">
	<g>
		<path class="st2" d="M231.3,18.4c0,0.3,0,0.4,0.3,0.4h0.8c0.6,0,0.8-0.1,0.9-0.7l0.1-0.3c0.1-0.1,0.4-0.1,0.4,0c0,0.4,0,0.8,0,1.3
			s0,0.9,0,1.3c-0.1,0.1-0.4,0.1-0.4,0l-0.1-0.3c-0.1-0.6-0.3-0.7-0.9-0.7h-0.8c-0.3,0-0.3,0-0.3,0.4v1.4c0,0.6,0,0.9,0.2,1.1
			c0.2,0.2,0.4,0.3,1.3,0.3c1,0,1.5,0,2.1-1.4c0.1-0.1,0.4-0.1,0.4,0.1c0,0.6-0.3,1.6-0.5,1.9c-0.6,0-1.8,0-2.8,0h-1.6
			c-0.6,0-1.2,0-2.1,0c-0.1-0.1-0.1-0.4,0-0.4l0.6-0.1c0.5-0.1,0.6-0.2,0.6-1.3V17c0-1.1-0.1-1.2-0.6-1.3l-0.3-0.1
			c-0.1-0.1-0.1-0.3,0-0.4c0.6,0,1.2,0,1.7,0h2.5c0.8,0,1.5,0,1.6,0c0,0.2,0.1,1.1,0.2,1.9c0,0.1-0.3,0.2-0.4,0
			c-0.1-0.4-0.3-0.8-0.5-0.9c-0.2-0.2-0.6-0.4-1.2-0.4h-1c-0.4,0-0.4,0-0.4,0.5V18.4z"/>
		<path class="st2" d="M240.9,21.2c0,1.1,0,1.4,0.3,1.4c0.2,0,0.3,0,0.5-0.1c0.1,0.1,0.1,0.4,0,0.5c-1.2,0.1-2.1,0.4-2.2,0.4
			c-0.1,0-0.2-0.1-0.2-0.2l0-0.4c0-0.1-0.1-0.1-0.1-0.1c-0.4,0.3-0.9,0.5-1.3,0.5c-1.4,0-2.3-1.1-2.3-2.4c0-1.7,1.3-2.8,2.9-2.8
			c0.3,0,0.6,0,0.7,0.1c0.1,0,0.1-0.1,0.1-0.2v-1.5c0-0.5,0-0.6-0.2-0.8l-0.2-0.1c-0.1-0.1-0.1-0.3,0-0.4c0.5-0.1,1.2-0.4,1.8-0.7
			c0.1,0,0.2,0,0.2,0.1c0,0.5,0,1,0,1.8V21.2z M239.3,19.6c0-0.2,0-0.3-0.1-0.4c-0.1-0.3-0.4-0.4-0.7-0.4c-0.6,0-1.2,0.6-1.2,1.9
			c0,0.8,0.4,1.9,1.3,1.9c0.2,0,0.3,0,0.5-0.1c0.1-0.1,0.1-0.2,0.1-0.5V19.6z"/>
		<path class="st2" d="M247.6,18.7c0.1,0.1,0.1,0.2,0.1,0.3c0,0.2-0.1,0.4-0.2,0.5h-0.9c0,0.1,0,0.2,0,0.4c0,0.9-0.6,2.1-2.5,2.1
			c-0.2,0-0.4,0-0.5,0c-0.1,0-0.2,0.1-0.2,0.3c0,0.3,0.3,0.4,0.6,0.4c0.4,0,0.9,0,1.5,0c0.9,0,1.9,0.2,1.9,1.5
			c0,0.8-0.5,1.4-1.1,1.8c-0.6,0.4-1.4,0.5-2.1,0.5c-1.7,0-2.4-0.8-2.4-1.5c0-0.3,0.2-0.5,0.4-0.6c0.2-0.1,0.5-0.3,0.6-0.4
			c0.1-0.1,0.1-0.1,0-0.2c-0.4-0.1-0.7-0.5-0.7-1c0-0.1,0-0.2,0.1-0.3c0.3-0.2,0.7-0.5,0.8-0.6c0.1-0.1,0.2-0.2,0.1-0.3
			c-0.6-0.2-1-0.8-1-1.5c0-1,0.8-1.9,2.3-1.9c0.7,0,1.3,0.2,1.8,0.4H247.6z M244.3,23.8c-0.3,0-0.6,0.1-0.7,0.2
			c-0.1,0.1-0.2,0.3-0.2,0.4c0,0.8,0.6,1.3,1.6,1.3c0.8,0,1.3-0.4,1.3-0.9c0-0.7-0.5-1-1.2-1H244.3z M244.5,21.4
			c0.4,0,0.7-0.3,0.7-1.2c0-1-0.3-1.4-0.8-1.4c-0.4,0-0.7,0.4-0.7,1.2C243.7,20.8,244,21.4,244.5,21.4z"/>
		<path class="st2" d="M251.9,21.5c0,0.8,0.3,1,0.5,1c0.1,0,0.3,0,0.5-0.1c0.1,0,0.2,0.2,0.1,0.3c-0.1,0.2-0.7,0.6-1.4,0.6
			c-0.4,0-0.7-0.1-1-0.4c-0.1-0.1-0.1-0.1-0.2-0.1s-0.1,0-0.3,0.1c-0.2,0.2-0.6,0.4-1,0.4c-0.7,0-1.3-0.4-1.3-1.3
			c0-0.6,0.4-1,1.2-1.2c0.5-0.1,0.8-0.2,1.1-0.3c0.2-0.1,0.3-0.1,0.3-0.2c0-0.1,0-0.3,0-0.4c0-0.5-0.2-1-0.7-1
			c-0.3,0-0.5,0.2-0.6,0.7c0,0.2-0.1,0.3-0.2,0.4c-0.2,0.1-0.6,0.3-0.9,0.3c-0.2,0-0.3-0.1-0.3-0.3c0-0.3,0.3-0.7,0.6-0.9
			c0.4-0.3,1.2-0.7,2-0.7c1,0,1.6,0.5,1.5,1.7L251.9,21.5z M250.5,21.2c0-0.2,0-0.2-0.1-0.2c-0.5,0.1-1,0.3-1,0.8
			c0,0.4,0.3,0.7,0.6,0.7c0.4,0,0.4-0.2,0.5-0.6L250.5,21.2z"/>
		<path class="st2" d="M253.8,20c0-0.5,0-0.6-0.2-0.8l-0.2-0.1c-0.1-0.1-0.1-0.3,0-0.4c0.6-0.2,1.4-0.5,1.8-0.7c0.1,0,0.2,0,0.2,0.1
			c0,0.2,0,0.4,0,0.5c0,0.1,0,0.1,0.1,0.1c0.3-0.2,0.7-0.6,1.2-0.6c0.3,0,0.7,0.3,0.7,0.7c0,0.6-0.4,0.8-0.8,0.8
			c-0.2,0-0.3-0.1-0.5-0.2c-0.3-0.2-0.4-0.2-0.5-0.2c-0.2,0-0.2,0.3-0.2,0.7v1.8c0,0.8,0,0.9,0.4,1l0.4,0c0.1,0.1,0.1,0.3,0,0.4
			c-0.6,0-1.1,0-1.6,0c-0.5,0-1,0-1.4,0c-0.1-0.1-0.1-0.3,0-0.4l0.2,0c0.4,0,0.4-0.1,0.4-1V20z"/>
	</g>
	<g>
		<polygon class="st3" points="267.7,37.9 267.7,41.2 265.9,41.2 265.9,37.9 261.3,37.9 261.3,44.6 272.3,44.6 272.3,37.9 		"/>
		<rect x="228.2" y="43" class="st3" width="44.1" height="3.1"/>
		<path class="st3" d="M228.7,46.8L228.7,46.8c-0.2,0-0.4-0.2-0.4-0.4v-3.6c0-0.2,0.2-0.4,0.4-0.4l0,0c0.2,0,0.4,0.2,0.4,0.4v3.6
			C229.2,46.6,229,46.8,228.7,46.8z"/>
		<path class="st3" d="M229.6,46.8L229.6,46.8c-0.2,0-0.4-0.2-0.4-0.4v-3.6c0-0.2,0.2-0.4,0.4-0.4l0,0c0.2,0,0.4,0.2,0.4,0.4v3.6
			C230.1,46.6,229.9,46.8,229.6,46.8z"/>
		<path class="st3" d="M260.8,46.8L260.8,46.8c-0.2,0-0.4-0.2-0.4-0.4v-3.6c0-0.2,0.2-0.4,0.4-0.4l0,0c0.2,0,0.4,0.2,0.4,0.4v3.6
			C261.3,46.6,261.1,46.8,260.8,46.8z"/>
		<path class="st3" d="M221.6,35.7L221.6,35.7c-3.7,0-6.6,3-6.6,6.6v0.4c-1,0-1.8,0.8-1.8,1.8c0,1,0.8,1.8,1.8,1.8v0.4
			c0,3.7,3,6.6,6.6,6.6h0c3.7,0,6.6-3,6.6-6.6v-4.4C228.2,38.7,225.2,35.7,221.6,35.7z M214,44.6c0-0.5,0.4-0.9,0.9-0.9
			s0.9,0.4,0.9,0.9c0,0.5-0.4,0.9-0.9,0.9S214,45,214,44.6z M226,46.8c0,2.4-2,4.4-4.4,4.4h0c-1.5,0-2.8-0.7-3.6-1.9
			c-0.8-1.1-0.7-2.7,0.2-3.7l0.8-1l-0.8-1c-0.9-1.1-1-2.6-0.2-3.7c0.8-1.1,2.1-1.9,3.6-1.9h0c2.4,0,4.4,2,4.4,4.4V46.8z"/>
	</g>
</g>
<g>
	<rect x="29.2" y="227.1" class="st4" width="69.1" height="30.6"/>
	<path class="st5" d="M98.9,227.1H28.7c-0.5,0-0.9-0.4-0.9-0.9v-3.6c0-0.5,0.4-0.9,0.9-0.9h70.2c0.5,0,0.9,0.4,0.9,0.9v3.6
		C99.8,226.7,99.3,227.1,98.9,227.1z"/>
	<path class="st5" d="M98.9,221.7H28.7c-0.5,0-0.9-0.4-0.9-0.9v-5.4c0-0.5,0.4-0.9,0.9-0.9h70.2c0.5,0,0.9,0.4,0.9,0.9v5.4
		C99.8,221.3,99.3,221.7,98.9,221.7z"/>
	<path class="st5" d="M98.9,264.9H28.7c-0.5,0-0.9-0.4-0.9-0.9v-5.4c0-0.5,0.4-0.9,0.9-0.9h70.2c0.5,0,0.9,0.4,0.9,0.9v5.4
		C99.8,264.5,99.3,264.9,98.9,264.9z"/>
	<path class="st6" d="M65.8,236.1h-4.3c-2.8,0-5.1-2.3-5.1-5.1v-9.3H71v9.3C71,233.9,68.7,236.1,65.8,236.1z"/>
	<g>
		<path class="st7" d="M67.7,229.1c-2.7,0.9-4.2,3.9-3.3,6.7c0.9,2.7,3.9,4.2,6.7,3.3c2.7-0.9,4.2-3.9,3.3-6.7
			S70.5,228.2,67.7,229.1z M70.5,237.4c-1.8,0.6-3.8-0.4-4.4-2.2c-0.6-1.8,0.4-3.8,2.2-4.4c1.8-0.6,3.8,0.4,4.4,2.2
			S72.4,236.8,70.5,237.4z"/>
		<path class="st7" d="M73.9,247.4L73.9,247.4c-3.7,1.2-7.6-0.7-8.9-4.4l-1.7-5c-0.3-0.9,0.2-1.9,1.1-2.2l10-3.4
			c0.9-0.3,1.9,0.2,2.2,1.1l1.7,5C79.5,242.2,77.6,246.2,73.9,247.4z"/>
		<path class="st8" d="M72.5,238.9c-0.2-0.7-1-1.1-1.8-0.9c-0.7,0.2-1.1,1-0.9,1.8c0.1,0.4,0.5,0.7,0.8,0.9l1,2.9l1.7-0.6l-1-2.9
			C72.6,239.7,72.6,239.3,72.5,238.9z"/>
	</g>
	<path class="st9" d="M67.6,232.7h-7.8c-0.2,0-0.5-0.2-0.5-0.5l0,0c0-0.2,0.2-0.4,0.5-0.4h7.8c0.2,0,0.5,0.2,0.5,0.4l0,0
		C68,232.5,67.8,232.7,67.6,232.7z"/>
</g>
<g id="Numbers">
	<g>
		<circle class="st10" cx="18.8" cy="90.3" r="7.2"/>
		<g>
			<path d="M19.6,92.6c0,1,0.1,1.1,0.7,1.1l0.5,0c0.1,0.1,0.1,0.4,0,0.4c-0.4,0-1.2,0-1.9,0c-0.8,0-1.5,0-1.9,0
				c-0.1,0-0.1-0.3,0-0.4l0.5,0c0.6,0,0.7-0.2,0.7-1.1v-3.9c0-0.8,0-1-0.6-1l-0.6-0.1c-0.1-0.1-0.1-0.3,0-0.4
				c0.5-0.1,1.1-0.2,1.5-0.3c0.5-0.2,1-0.4,1.1-0.4c0.1,0,0.1,0,0.2,0.1c0,0.3,0,0.8,0,1.4V92.6z"/>
		</g>
	</g>
	<g>
		<circle class="st10" cx="196.9" cy="153.3" r="7.2"/>
		<g>
			<path d="M197.8,156c0.9,0,1,0,1.4-0.7c0.1-0.1,0.4-0.1,0.4,0.1c-0.1,0.7-0.4,1.6-0.6,1.9c-0.5,0-0.9,0-1.7,0h-1.9
				c-0.6,0-1.1,0-1.3,0c-0.1,0-0.1-0.2-0.1-0.3c0.5-0.4,1.1-1.1,1.9-1.8c0.8-0.9,1.6-1.9,1.6-3.2c0-0.8-0.5-1.5-1.3-1.5
				c-0.7,0-1.2,0.4-1.5,1.1c-0.1,0.1-0.4,0-0.4-0.2c0.5-1.2,1.6-1.9,2.8-1.9c1.4,0,2.3,0.9,2.3,2c0,0.9-0.4,1.6-1.8,3l-0.6,0.5
				c-0.5,0.5-0.6,0.7-0.6,0.8c0,0.1,0.1,0.1,0.2,0.1H197.8z"/>
		</g>
	</g>
	<g>
		<circle class="st10" cx="18.8" cy="206" r="7.2"/>
		<g>
			<path d="M16.7,203.9c-0.2,0-0.3-0.1-0.3-0.2c0.5-1,1.4-1.5,2.5-1.5c1.2,0,1.9,0.6,1.9,1.4c0,0.5-0.2,1-1.5,1.5
				c-0.1,0.1,0,0.2,0.1,0.2c1.1,0,2,0.7,2,1.9c0,0.9-0.4,1.7-1.4,2.4c-1,0.7-2.1,1-2.8,1s-1.3-0.2-1.3-0.9c0-0.3,0.2-0.7,0.7-0.7
				c0.4,0,0.7,0.5,0.8,0.6c0.1,0.2,0.3,0.3,0.5,0.3c0.5,0,1.6-0.7,1.6-2.2c0-1.1-0.6-1.8-1.4-1.8c-0.5,0-0.9,0.2-1.2,0.5
				c-0.2,0-0.4-0.3-0.3-0.6c0.5-0.2,1.5-0.6,1.9-1c0.2-0.2,0.5-0.5,0.5-1.1c0-0.4-0.4-0.9-1-0.9C17.6,202.9,17.1,203.4,16.7,203.9z"
				/>
		</g>
	</g>
	<g>
		<circle class="st10" cx="196.9" cy="269" r="7.2"/>
		<g>
			<path d="M197.1,270.9c0-0.3,0-0.3-0.3-0.3H194c-0.1-0.1-0.2-0.2-0.1-0.4l3.9-5.6c0.1-0.2,0.2-0.3,0.4-0.3h0.3
				c0.2,0,0.3,0.1,0.1,0.3l-3.6,5c-0.1,0.2-0.1,0.3,0.3,0.3h1.5c0.3,0,0.3,0,0.3-0.3v-1.7c0-0.3,0.1-0.4,0.3-0.4
				c0.3-0.1,1-0.4,1.2-0.4c0.1,0,0.2,0.1,0.2,0.2v2.3c0,0.3,0,0.3,0.3,0.3h0.8c0.2,0.1,0.2,0.6,0,0.7h-0.8c-0.3,0-0.3,0-0.3,0.3v0.3
				c0,1,0.1,1.1,0.6,1.1l0.3,0c0.1,0.1,0.1,0.4,0,0.4c-0.4,0-1.1,0-1.6,0c-0.8,0-1.5,0-1.9,0c-0.1,0-0.1-0.3,0-0.4l0.5,0
				c0.6,0,0.7-0.1,0.7-1.1V270.9z"/>
		</g>
	</g>
</g>
<g id="Numbers_1_">
	<g>
		<circle class="st10" cx="198.2" cy="381.5" r="7.2"/>
		<g>
			<path d="M200.3,377.5c0.1,0,0.1,0.1,0.1,0.1c-0.1,0.5-0.4,0.9-0.7,1.2l-2.7,0.3c-0.2,0-0.2,0.1-0.3,0.3l-0.1,0.3
				c-0.1,0.3,0.1,0.3,0.3,0.3c0.6,0.1,1.8,0.2,2.4,0.6c0.7,0.3,1.3,1,1.3,2c0,1.2-0.7,2.1-1.7,2.6s-2.2,0.8-3.2,0.8
				c-0.2-0.1-0.2-0.5-0.1-0.6c0.9,0,1.8-0.2,2.4-0.5c0.7-0.4,1.1-1,1.1-1.6c0-1.7-1.8-1.9-3-2c-0.4,0-0.4-0.1-0.4-0.4l0.7-2.8
				c0.1-0.3,0.2-0.3,0.5-0.4L200.3,377.5z"/>
		</g>
	</g>
	<g>
		<circle class="st10" cx="376.3" cy="444.5" r="7.2"/>
		<g>
			<path d="M375.1,441.7c0.9-0.9,2.4-1.6,3.8-1.6c0.1,0.1,0.2,0.3,0,0.4c-1.5,0.4-2.1,0.9-2.8,1.7c-0.6,0.8-0.9,1.9-0.9,3.1
				c0,1.3,0.4,2.8,1.3,2.8c0.7,0,0.9-0.8,0.9-1.4c0-0.8-0.3-2.3-1.4-2.3c-0.1,0-0.2,0-0.3,0c-0.1,0-0.1-0.1-0.1-0.2
				c0.2-0.3,0.8-0.5,1.2-0.5c1.5,0,2.2,1.1,2.2,2.3c0,1.6-1.1,2.7-2.7,2.7c-1.8,0-2.9-1.3-2.9-3.2
				C373.6,444,374.2,442.6,375.1,441.7z"/>
		</g>
	</g>
	<g>
		<circle class="st10" cx="198.2" cy="497.1" r="7.2"/>
		<g>
			<path d="M199.4,493.5c0.8,0,1.6,0,1.7,0c0.1,0,0.1,0.1,0.1,0.2c-0.3,0.4-0.7,1.1-1.2,2l-3.5,6.1c-0.2,0-0.6-0.1-0.6-0.4l3.2-5.5
				c0.3-0.5,0.4-0.7,0.4-0.9c0-0.2-0.2-0.2-0.3-0.2h-2.5c-0.7,0-0.8,0.1-1.1,0.6c-0.1,0.1-0.4,0-0.4-0.1c0.2-0.6,0.4-1.3,0.5-1.8
				c0.4,0,0.7,0,1.4,0H199.4z"/>
		</g>
	</g>
	<g>
		<circle class="st10" cx="376.3" cy="560.1" r="7.2"/>
		<g>
			<path d="M373.7,562.2c0-0.9,0.6-1.5,1.6-2c-0.7-0.4-1.3-1-1.3-1.8c0-1.2,1-2.1,2.5-2.1c1.4,0,2.3,0.7,2.3,1.9
				c0,0.9-0.7,1.3-1.3,1.7c0.9,0.5,1.6,1.1,1.6,2.2c0,1.1-0.9,2.1-2.8,2.1C374.9,564.1,373.7,563.5,373.7,562.2z M377.5,562.5
				c0-0.9-0.7-1.5-1.7-1.9c-0.4,0.4-0.6,0.9-0.6,1.5c0,0.8,0.5,1.5,1.3,1.5C377,563.6,377.5,563.2,377.5,562.5z M375.4,558
				c0,0.6,0.4,1.1,1.4,1.5c0.4-0.2,0.6-0.7,0.6-1.3c0-0.8-0.5-1.3-1-1.3C375.9,556.9,375.4,557.3,375.4,558z"/>
		</g>
	</g>
</g>
<path class="st9" d="M245.2,523.8h-4.5c-0.2,0-0.4-0.2-0.4-0.4l0,0c0-0.2,0.2-0.5,0.4-0.5h4.5c0.2,0,0.4,0.2,0.4,0.5l0,0
	C245.7,523.6,245.5,523.8,245.2,523.8z"/>
<g>
	<g>
		<line class="st11" x1="243" y1="339.5" x2="243" y2="372.8"/>
		<g>
			<path d="M243,378.8c-1.1-2.8-2.9-6.4-4.8-8.5l4.8,1.7l4.8-1.7C245.8,372.5,244,376,243,378.8z"/>
		</g>
	</g>
</g>
<line class="st11" x1="111.9" y1="127.3" x2="242.9" y2="127.3"/>
<g>
	<g>
		<line class="st12" x1="242.9" y1="127.3" x2="367.9" y2="127.3"/>
		<g>
			<path d="M373.9,127.3c-2.8,1.1-6.4,2.9-8.5,4.8l1.7-4.8l-1.7-4.8C367.5,124.5,371.1,126.3,373.9,127.3z"/>
		</g>
	</g>
</g>
<g>
	<g>
		<line class="st11" x1="241.8" y1="127.3" x2="241.8" y2="144.7"/>
		<g>
			<path d="M241.8,150.8c-1.1-2.8-2.9-6.4-4.8-8.5l4.8,1.7l4.8-1.7C244.6,144.4,242.8,147.9,241.8,150.8z"/>
		</g>
	</g>
</g>
<g>
	<line class="st13" x1="234.6" y1="120.1" x2="249" y2="134.5"/>
	<line class="st13" x1="249" y1="120.1" x2="234.6" y2="134.5"/>
</g>
<line class="st11" x1="376.3" y1="481.3" x2="242.9" y2="481.3"/>
<g>
	<g>
		<line class="st12" x1="242.9" y1="481.3" x2="118" y2="481.3"/>
		<g>
			<path d="M111.9,481.3c2.8-1.1,6.4-2.9,8.5-4.8l-1.7,4.8l1.7,4.8C118.3,484.1,114.8,482.3,111.9,481.3z"/>
		</g>
	</g>
</g>
<g>
	<line class="st13" x1="251.2" y1="474.1" x2="236.8" y2="488.5"/>
	<line class="st13" x1="236.8" y1="474.1" x2="251.2" y2="488.5"/>
</g>
<line class="st11" x1="111.9" y1="242.7" x2="242.9" y2="242.7"/>
<g>
	<g>
		<line class="st12" x1="242.9" y1="242.7" x2="367.9" y2="242.7"/>
		<g>
			<path d="M373.9,242.7c-2.8,1.1-6.4,2.9-8.5,4.8l1.7-4.8l-1.7-4.8C367.5,239.9,371.1,241.7,373.9,242.7z"/>
		</g>
	</g>
</g>
<g>
	<line class="st13" x1="234.6" y1="235.5" x2="249" y2="249.9"/>
	<line class="st13" x1="249" y1="235.5" x2="234.6" y2="249.9"/>
</g>
<g>
	<g>
		<line class="st11" x1="196.9" y1="190.5" x2="117.4" y2="225.7"/>
		<g>
			<path d="M111.9,228.2c2.2-2.1,4.7-5.2,5.9-7.8l0.4,5l3.5,3.6C118.9,228.2,114.9,228,111.9,228.2z"/>
		</g>
	</g>
</g>
<g>
	<g>
		<line class="st11" x1="291.7" y1="429.5" x2="371.1" y2="464.7"/>
		<g>
			<path d="M376.6,467.2c-3-0.2-7,0-9.7,0.9l3.5-3.7l0.4-5C371.9,462,374.4,465.1,376.6,467.2z"/>
		</g>
	</g>
</g>
<g>
	<g>
		<line class="st11" x1="291.7" y1="545.1" x2="371.1" y2="580.4"/>
		<g>
			<path d="M376.6,582.8c-3-0.2-7,0-9.7,0.9l3.5-3.7l0.4-5C371.9,577.6,374.4,580.7,376.6,582.8z"/>
		</g>
	</g>
</g>
<g>
	<g>
		<path class="st14" d="M406,17.6c0-1.2,0-1.3-0.5-1.4l-0.3,0c-0.1-0.1-0.1-0.4,0-0.4c0.9-0.1,1.8-0.1,3-0.1c1.2,0,1.9,0.1,2.4,0.4
			c0.5,0.3,0.8,0.8,0.8,1.5c0,1-0.9,1.4-1.2,1.5c-0.1,0-0.2,0.1-0.2,0.1c0,0,0.1,0.1,0.2,0.1c0.9,0.2,1.8,0.8,1.8,2
			c0,1.1-0.6,1.8-1.4,2c-0.8,0.3-1.7,0.3-2.4,0.3c-0.4,0-0.9,0-1.2,0c-0.6,0-1.2,0-1.9,0c-0.1-0.1-0.1-0.4,0-0.4l0.3-0.1
			c0.5-0.1,0.6-0.2,0.6-1.3V17.6z M407.6,18.7c0,0.3,0,0.3,0.6,0.3c1,0,1.4-0.7,1.4-1.4c0-1-0.6-1.6-1.5-1.6c-0.6,0-0.6,0.1-0.6,0.6
			V18.7z M407.6,21.5c0,0.9,0.1,1.5,1.1,1.5c0.9,0,1.4-0.7,1.4-1.7c0-1-0.6-1.8-1.8-1.8c-0.7,0-0.7,0-0.7,0.5V21.5z"/>
		<path class="st14" d="M412.7,21.2c0-1.7,1.3-2.7,2.8-2.7c1.4,0,2.7,0.9,2.7,2.6c0,1.8-1.3,2.6-2.8,2.6
			C413.9,23.7,412.7,22.9,412.7,21.2z M414.4,20.9c0,1.3,0.4,2.2,1.1,2.2c0.7,0,0.9-0.8,0.9-1.9c0-1.2-0.3-2.2-1-2.2
			C414.8,19.1,414.4,19.6,414.4,20.9z"/>
		<path class="st14" d="M420.9,18.6c0,0.2,0.1,0.3,0.1,0.3c0.3-0.2,0.8-0.3,1.3-0.3c1.4,0,2.2,1,2.2,2.4c0,1.7-1.2,2.7-3,2.7
			c-0.5,0-1.1-0.1-1.3-0.2c-0.2-0.1-0.3-0.1-0.4-0.1c-0.1,0-0.3,0.1-0.4,0.2c-0.1,0-0.2,0-0.2-0.1c0-0.2,0-0.6,0-1.2v-5.4
			c0-0.5,0-0.6-0.2-0.8l-0.2-0.1c-0.1-0.1-0.1-0.3,0-0.4c0.5-0.1,1.2-0.4,1.8-0.7c0.1,0,0.2,0,0.2,0.1c0,0.5,0,1,0,1.8V18.6z
			 M420.9,21.8c0,0.3,0.1,0.6,0.2,0.9c0.2,0.2,0.4,0.4,0.7,0.4c0.8,0,1.1-0.9,1.1-1.8c0-1.2-0.6-2-1.4-2c-0.2,0-0.4,0.1-0.5,0.1
			c-0.1,0.1-0.1,0.3-0.1,0.6V21.8z"/>
		<path class="st14" d="M427.2,18.6c0,0.2,0.1,0.3,0.1,0.3c0.3-0.2,0.8-0.3,1.3-0.3c1.4,0,2.2,1,2.2,2.4c0,1.7-1.2,2.7-3,2.7
			c-0.5,0-1.1-0.1-1.3-0.2c-0.2-0.1-0.3-0.1-0.4-0.1c-0.1,0-0.3,0.1-0.4,0.2c-0.1,0-0.2,0-0.2-0.1c0-0.2,0-0.6,0-1.2v-5.4
			c0-0.5,0-0.6-0.2-0.8l-0.2-0.1c-0.1-0.1-0.1-0.3,0-0.4c0.5-0.1,1.2-0.4,1.8-0.7c0.1,0,0.2,0,0.2,0.1c0,0.5,0,1,0,1.8V18.6z
			 M427.2,21.8c0,0.3,0.1,0.6,0.2,0.9c0.2,0.2,0.4,0.4,0.7,0.4c0.8,0,1.1-0.9,1.1-1.8c0-1.2-0.6-2-1.4-2c-0.2,0-0.4,0.1-0.5,0.1
			c-0.1,0.1-0.1,0.3-0.1,0.6V21.8z"/>
		<path class="st14" d="M431.1,19.1c-0.1-0.1-0.1-0.4,0-0.4c0.4,0,0.9,0,1.6,0c0.4,0,0.9,0,1.3,0c0.1,0,0.1,0.3,0,0.4l-0.2,0
			c-0.3,0.1-0.4,0.1-0.4,0.2c0,0.1,0.1,0.5,0.4,1.1c0.1,0.3,0.4,1.1,0.5,1.4c0.1-0.3,0.3-0.5,0.4-0.8l0.2-0.5
			c0.3-0.6,0.4-1.1,0.4-1.2c0-0.1-0.1-0.1-0.3-0.2l-0.2,0c-0.1-0.1-0.1-0.4,0-0.4c0.3,0,0.6,0,1.2,0c0.3,0,0.6,0,0.9,0
			c0.1,0,0.1,0.3,0,0.4l-0.2,0c-0.2,0-0.4,0.1-0.6,0.3c-0.1,0.2-0.4,0.7-0.7,1.3L435,22l-1.8,3.8c-0.3,0.5-0.6,0.8-1,0.8
			c-0.6,0-0.8-0.4-0.8-0.7c0-0.4,0.3-0.6,0.7-0.6h0.3c0.3,0,0.5-0.1,0.6-0.3c0.1-0.2,0.2-0.4,0.3-0.7c0.1-0.1,0.2-0.4,0.2-0.5
			c0-0.2,0-0.4-0.2-0.9l-1.2-2.9c-0.2-0.6-0.3-0.8-0.7-0.9L431.1,19.1z"/>
	</g>
	<g>
		<polygon class="st15" points="445.7,37.9 445.7,41.2 443.9,41.2 443.9,37.9 439.2,37.9 439.2,44.6 450.3,44.6 450.3,37.9 		"/>
		<rect x="406.1" y="43" class="st15" width="44.2" height="3.1"/>
		<path class="st15" d="M406.6,46.8L406.6,46.8c-0.2,0-0.4-0.2-0.4-0.4v-3.6c0-0.2,0.2-0.4,0.4-0.4h0c0.2,0,0.4,0.2,0.4,0.4v3.6
			C407.1,46.6,406.9,46.8,406.6,46.8z"/>
		<path class="st15" d="M407.5,46.8L407.5,46.8c-0.2,0-0.4-0.2-0.4-0.4v-3.6c0-0.2,0.2-0.4,0.4-0.4l0,0c0.2,0,0.4,0.2,0.4,0.4v3.6
			C408,46.6,407.8,46.8,407.5,46.8z"/>
		<path class="st15" d="M438.8,46.8L438.8,46.8c-0.2,0-0.4-0.2-0.4-0.4v-3.6c0-0.2,0.2-0.4,0.4-0.4l0,0c0.2,0,0.4,0.2,0.4,0.4v3.6
			C439.2,46.6,439,46.8,438.8,46.8z"/>
		<path class="st15" d="M399.4,35.7L399.4,35.7c-3.7,0-6.6,3-6.6,6.6v0.4c-1,0-1.8,0.8-1.8,1.8c0,1,0.8,1.8,1.8,1.8v0.4
			c0,3.7,3,6.6,6.6,6.6h0c3.7,0,6.6-3,6.6-6.6v-4.4C406.1,38.7,403.1,35.7,399.4,35.7z M391.9,44.6c0-0.5,0.4-0.9,0.9-0.9
			c0.5,0,0.9,0.4,0.9,0.9c0,0.5-0.4,0.9-0.9,0.9C392.3,45.4,391.9,45,391.9,44.6z M403.9,46.8c0,2.4-2,4.4-4.4,4.4h0
			c-1.5,0-2.8-0.7-3.6-1.9c-0.8-1.1-0.7-2.7,0.2-3.7l0.8-1l-0.8-1c-0.9-1.1-1-2.6-0.2-3.7c0.8-1.1,2.1-1.9,3.6-1.9h0
			c2.4,0,4.4,2,4.4,4.4V46.8z"/>
	</g>
</g>
<g>
	<rect x="29.1" y="110.1" class="st4" width="69.1" height="30.6"/>
	<path class="st5" d="M98.8,110.1H28.6c-0.5,0-0.9-0.4-0.9-0.9v-3.6c0-0.5,0.4-0.9,0.9-0.9h70.2c0.5,0,0.9,0.4,0.9,0.9v3.6
		C99.7,109.7,99.3,110.1,98.8,110.1z"/>
	<path class="st5" d="M98.8,104.7H28.6c-0.5,0-0.9-0.4-0.9-0.9v-5.4c0-0.5,0.4-0.9,0.9-0.9h70.2c0.5,0,0.9,0.4,0.9,0.9v5.4
		C99.7,104.3,99.3,104.7,98.8,104.7z"/>
	<path class="st5" d="M98.8,147.9H28.6c-0.5,0-0.9-0.4-0.9-0.9v-5.4c0-0.5,0.4-0.9,0.9-0.9h70.2c0.5,0,0.9,0.4,0.9,0.9v5.4
		C99.7,147.5,99.3,147.9,98.8,147.9z"/>
	<path class="st6" d="M66,119.1h-4.3c-2.8,0-5.1-2.3-5.1-5.1v-9.3h14.5v9.3C71.2,116.9,68.9,119.1,66,119.1z"/>
	<g>
		<path class="st16" d="M60.2,112.4c-2.7-1.2-5.8,0-6.9,2.7c-1.2,2.7,0,5.8,2.7,6.9c2.7,1.2,5.8,0,6.9-2.7
			C64.1,116.7,62.9,113.6,60.2,112.4z M56.7,120.4c-1.8-0.8-2.6-2.8-1.8-4.6c0.8-1.8,2.8-2.6,4.6-1.8s2.6,2.8,1.8,4.6
			C60.6,120.4,58.5,121.2,56.7,120.4z"/>
		<path class="st16" d="M52.5,130.1L52.5,130.1c-3.5-1.5-5.2-5.7-3.6-9.2L51,116c0.4-0.9,1.4-1.3,2.3-0.9l9.6,4.2
			c0.9,0.4,1.3,1.4,0.9,2.3l-2.1,4.8C60.2,130,56.1,131.6,52.5,130.1z"/>
		<path class="st17" d="M57.2,122.8c0.3-0.7,0-1.5-0.7-1.8c-0.7-0.3-1.5,0-1.8,0.7c-0.2,0.4-0.1,0.8,0,1.2l-1.2,2.8l1.6,0.7l1.2-2.8
			C56.7,123.5,57,123.2,57.2,122.8z"/>
	</g>
	<path class="st9" d="M67.8,115.7H60c-0.2,0-0.5-0.2-0.5-0.4l0,0c0-0.2,0.2-0.4,0.5-0.4h7.8c0.2,0,0.5,0.2,0.5,0.4l0,0
		C68.2,115.5,68,115.7,67.8,115.7z"/>
</g>
<g>
	<rect x="208.4" y="176.7" class="st4" width="69.1" height="30.6"/>
	<path class="st5" d="M278.1,176.7h-70.2c-0.5,0-0.9-0.4-0.9-0.9v-3.6c0-0.5,0.4-0.9,0.9-0.9h70.2c0.5,0,0.9,0.4,0.9,0.9v3.6
		C279,176.3,278.6,176.7,278.1,176.7z"/>
	<path class="st5" d="M278.1,171.3h-70.2c-0.5,0-0.9-0.4-0.9-0.9V165c0-0.5,0.4-0.9,0.9-0.9h70.2c0.5,0,0.9,0.4,0.9,0.9v5.4
		C279,170.9,278.6,171.3,278.1,171.3z"/>
	<path class="st5" d="M278.1,214.5h-70.2c-0.5,0-0.9-0.4-0.9-0.9v-5.4c0-0.5,0.4-0.9,0.9-0.9h70.2c0.5,0,0.9,0.4,0.9,0.9v5.4
		C279,214.1,278.6,214.5,278.1,214.5z"/>
	<path class="st6" d="M246,185.7h-4.3c-2.8,0-5.1-2.3-5.1-5.1v-9.3h14.5v9.3C251.1,183.5,248.8,185.7,246,185.7z"/>
	<g>
		<path class="st16" d="M240.2,179c-2.7-1.2-5.8,0-6.9,2.7s0,5.8,2.7,6.9s5.8,0,6.9-2.7S242.9,180.2,240.2,179z M236.7,187
			c-1.8-0.8-2.6-2.8-1.8-4.6c0.8-1.8,2.8-2.6,4.6-1.8s2.6,2.8,1.8,4.6C240.5,187,238.5,187.8,236.7,187z"/>
		<path class="st16" d="M232.5,196.7L232.5,196.7c-3.5-1.5-5.2-5.7-3.6-9.2l2.1-4.8c0.4-0.9,1.4-1.3,2.3-0.9l9.6,4.2
			c0.9,0.4,1.3,1.4,0.9,2.3l-2.1,4.8C240.2,196.6,236,198.2,232.5,196.7z"/>
		<path class="st17" d="M237.2,189.4c0.3-0.7,0-1.5-0.7-1.8s-1.5,0-1.8,0.7c-0.2,0.4-0.1,0.8,0,1.2l-1.2,2.8l1.6,0.7l1.2-2.8
			C236.7,190.1,237,189.8,237.2,189.4z"/>
	</g>
	<g>
		<path class="st7" d="M247.9,178.7c-2.7,0.9-4.2,3.9-3.3,6.7s3.9,4.2,6.7,3.3s4.2-3.9,3.3-6.7C253.6,179.3,250.6,177.8,247.9,178.7
			z M250.7,187c-1.8,0.6-3.8-0.4-4.4-2.2c-0.6-1.8,0.4-3.8,2.2-4.4c1.8-0.6,3.8,0.4,4.4,2.2C253.5,184.4,252.5,186.4,250.7,187z"/>
		<path class="st7" d="M254,197L254,197c-3.7,1.2-7.6-0.7-8.9-4.4l-1.7-5c-0.3-0.9,0.2-1.9,1.1-2.2l10-3.4c0.9-0.3,1.9,0.2,2.2,1.1
			l1.7,5C259.7,191.8,257.7,195.8,254,197z"/>
		<path class="st8" d="M252.7,188.5c-0.2-0.7-1-1.1-1.8-0.9c-0.7,0.2-1.1,1-0.9,1.8c0.1,0.4,0.5,0.7,0.8,0.9l1,2.9l1.7-0.6l-1-2.9
			C252.7,189.3,252.8,188.9,252.7,188.5z"/>
	</g>
	<path class="st9" d="M247.8,182.3h-7.8c-0.2,0-0.4-0.2-0.4-0.4l0,0c0-0.2,0.2-0.4,0.4-0.4h7.8c0.2,0,0.5,0.2,0.5,0.4l0,0
		C248.2,182.1,248,182.3,247.8,182.3z"/>
</g>
<g>
	<rect x="207.2" y="290.7" class="st4" width="69.1" height="30.6"/>
	<path class="st5" d="M276.9,290.7h-70.2c-0.5,0-0.9-0.4-0.9-0.9v-3.6c0-0.5,0.4-0.9,0.9-0.9h70.2c0.5,0,0.9,0.4,0.9,0.9v3.6
		C277.8,290.3,277.4,290.7,276.9,290.7z"/>
	<path class="st9" d="M245.7,296.2h-7.8c-0.2,0-0.4-0.2-0.4-0.5l0,0c0-0.2,0.2-0.4,0.4-0.4h7.8c0.2,0,0.4,0.2,0.4,0.4l0,0
		C246.1,296,245.9,296.2,245.7,296.2z"/>
	<path class="st18" d="M277,275.3h-70.4c-0.4,0-0.8-0.4-0.8-0.8l0.6-4.2c0-0.4,0.4-0.8,0.8-0.8h69.1c0.4,0,0.8,0.4,0.8,0.8l0.6,4.2
		C277.8,274.9,277.4,275.3,277,275.3z"/>
	<path class="st5" d="M276.9,328.5h-70.2c-0.5,0-0.9-0.4-0.9-0.9v-5.4c0-0.5,0.4-0.9,0.9-0.9h70.2c0.5,0,0.9,0.4,0.9,0.9v5.4
		C277.8,328.1,277.4,328.5,276.9,328.5z"/>
	<path class="st6" d="M243.9,260.9h-4.3c-2.8,0-5.1,2.3-5.1,5.1v9.3H249V266C249,263.2,246.8,260.9,243.9,260.9z M245.7,265.4h-7.8
		c-0.2,0-0.5-0.2-0.5-0.5s0.2-0.5,0.5-0.5h7.8c0.2,0,0.5,0.2,0.5,0.5S245.9,265.4,245.7,265.4z"/>
	<polygon class="st19" points="274.2,285.3 209.4,285.3 207.2,275.3 276.3,275.3 	"/>
</g>
<g>
	<rect x="387.6" y="581.3" class="st4" width="69.1" height="30.6"/>
	<path class="st5" d="M457.3,581.3h-70.2c-0.5,0-0.9-0.4-0.9-0.9v-3.6c0-0.5,0.4-0.9,0.9-0.9h70.2c0.5,0,0.9,0.4,0.9,0.9v3.6
		C458.2,580.8,457.8,581.3,457.3,581.3z"/>
	<path class="st9" d="M426.1,586.8h-7.8c-0.2,0-0.5-0.2-0.5-0.5l0,0c0-0.2,0.2-0.4,0.5-0.4h7.8c0.2,0,0.4,0.2,0.4,0.4l0,0
		C426.5,586.6,426.3,586.8,426.1,586.8z"/>
	<path class="st18" d="M457.4,565.8H387c-0.4,0-0.8-0.4-0.8-0.8l0.6-4.2c0-0.4,0.4-0.8,0.8-0.8h69.1c0.4,0,0.8,0.4,0.8,0.8l0.6,4.2
		C458.2,565.5,457.8,565.8,457.4,565.8z"/>
	<path class="st5" d="M457.3,619.1h-70.2c-0.5,0-0.9-0.4-0.9-0.9v-5.4c0-0.5,0.4-0.9,0.9-0.9h70.2c0.5,0,0.9,0.4,0.9,0.9v5.4
		C458.2,618.6,457.8,619.1,457.3,619.1z"/>
	<path class="st6" d="M424.3,551.4H420c-2.8,0-5.1,2.3-5.1,5.1v9.3h14.5v-9.3C429.4,553.7,427.1,551.4,424.3,551.4z M426.1,556h-7.8
		c-0.2,0-0.5-0.2-0.5-0.5s0.2-0.5,0.5-0.5h7.8c0.2,0,0.5,0.2,0.5,0.5S426.3,556,426.1,556z"/>
	<polygon class="st19" points="454.6,575.9 389.8,575.9 387.6,565.8 456.7,565.8 	"/>
</g>
<g>
	
		<rect x="208.3" y="401.5" transform="matrix(-1 -4.489576e-11 4.489576e-11 -1 485.7946 833.5659)" class="st4" width="69.1" height="30.6"/>
	<path class="st5" d="M207.8,401.5H278c0.5,0,0.9-0.4,0.9-0.9V397c0-0.5-0.4-0.9-0.9-0.9h-70.2c-0.5,0-0.9,0.4-0.9,0.9v3.6
		C206.9,401.1,207.3,401.5,207.8,401.5z"/>
	<path class="st5" d="M207.8,396.1H278c0.5,0,0.9-0.4,0.9-0.9v-5.4c0-0.5-0.4-0.9-0.9-0.9h-70.2c-0.5,0-0.9,0.4-0.9,0.9v5.4
		C206.9,395.7,207.3,396.1,207.8,396.1z"/>
	<path class="st5" d="M207.8,439.3H278c0.5,0,0.9-0.4,0.9-0.9V433c0-0.5-0.4-0.9-0.9-0.9h-70.2c-0.5,0-0.9,0.4-0.9,0.9v5.4
		C206.9,438.9,207.3,439.3,207.8,439.3z"/>
	<path class="st6" d="M240.8,410.5h4.3c2.8,0,5.1-2.3,5.1-5.1v-9.3h-14.5v9.3C235.7,408.2,238,410.5,240.8,410.5z"/>
	<g>
		<path class="st7" d="M232.3,406.8c-0.9,2.7,0.6,5.7,3.3,6.7c2.7,0.9,5.7-0.6,6.7-3.3c0.9-2.7-0.6-5.7-3.3-6.7
			S233.2,404,232.3,406.8z M233.9,407.3c0.6-1.8,2.6-2.8,4.4-2.2s2.8,2.6,2.2,4.4c-0.6,1.8-2.6,2.8-4.4,2.2
			C234.3,411.2,233.3,409.2,233.9,407.3z"/>
		<path class="st7" d="M232.8,421.7L232.8,421.7c3.7,1.2,7.6-0.7,8.9-4.4l1.7-5c0.3-0.9-0.2-1.9-1.1-2.2l-10-3.4
			c-0.9-0.3-1.9,0.2-2.2,1.1l-1.7,5C227.1,416.5,229.1,420.5,232.8,421.7z"/>
		<path class="st8" d="M234.2,413.2c0.2-0.7,1-1.1,1.8-0.9c0.7,0.2,1.1,1,0.9,1.8c-0.1,0.4-0.5,0.7-0.8,0.9l-1,2.9l-1.7-0.6l1-2.9
			C234.1,414.1,234,413.6,234.2,413.2z"/>
	</g>
	<path class="st9" d="M239.1,407h7.8c0.2,0,0.5-0.2,0.5-0.5l0,0c0-0.2-0.2-0.5-0.5-0.5h-7.8c-0.2,0-0.4,0.2-0.4,0.5l0,0
		C238.6,406.8,238.8,407,239.1,407z"/>
</g>
<g>
	<rect x="387.4" y="466" class="st4" width="69.1" height="30.6"/>
	<path class="st5" d="M457.1,466h-70.2c-0.5,0-0.9-0.4-0.9-0.9v-3.6c0-0.5,0.4-0.9,0.9-0.9h70.2c0.5,0,0.9,0.4,0.9,0.9v3.6
		C458,465.6,457.6,466,457.1,466z"/>
	<path class="st5" d="M457.1,460.6h-70.2c-0.5,0-0.9-0.4-0.9-0.9v-5.4c0-0.5,0.4-0.9,0.9-0.9h70.2c0.5,0,0.9,0.4,0.9,0.9v5.4
		C458,460.2,457.6,460.6,457.1,460.6z"/>
	<path class="st5" d="M457.1,503.8h-70.2c-0.5,0-0.9-0.4-0.9-0.9v-5.4c0-0.5,0.4-0.9,0.9-0.9h70.2c0.5,0,0.9,0.4,0.9,0.9v5.4
		C458,503.4,457.6,503.8,457.1,503.8z"/>
	<path class="st6" d="M424.2,475h-4.3c-2.8,0-5.1-2.3-5.1-5.1v-9.3h14.5v9.3C429.3,472.7,427,475,424.2,475z"/>
	<g>
		<path class="st20" d="M426.1,468c-2.7,0.9-4.2,3.9-3.3,6.7c0.9,2.7,3.9,4.2,6.7,3.3c2.7-0.9,4.2-3.9,3.3-6.7
			C431.8,468.5,428.9,467,426.1,468z M428.9,476.3c-1.8,0.6-3.8-0.4-4.4-2.2s0.4-3.8,2.2-4.4s3.8,0.4,4.4,2.2
			C431.7,473.7,430.7,475.6,428.9,476.3z"/>
		<path class="st20" d="M432.2,486.2L432.2,486.2c-3.7,1.2-7.6-0.7-8.9-4.4l-1.7-5c-0.3-0.9,0.2-1.9,1.1-2.2l10-3.4
			c0.9-0.3,1.9,0.2,2.2,1.1l1.7,5C437.9,481,435.9,485,432.2,486.2z"/>
		<path class="st21" d="M430.9,477.7c-0.2-0.7-1-1.1-1.8-0.9s-1.1,1-0.9,1.8c0.1,0.4,0.5,0.7,0.8,0.9l1,2.9l1.7-0.6l-1-2.9
			C430.9,478.5,431,478.1,430.9,477.7z"/>
	</g>
	<g>
		<path class="st7" d="M410.8,471.3c-0.9,2.7,0.6,5.7,3.3,6.7c2.7,0.9,5.7-0.6,6.7-3.3c0.9-2.7-0.6-5.7-3.3-6.7
			C414.7,467,411.7,468.5,410.8,471.3z M412.5,471.8c0.6-1.8,2.6-2.8,4.4-2.2s2.8,2.6,2.2,4.4s-2.6,2.8-4.4,2.2
			C412.8,475.6,411.9,473.7,412.5,471.8z"/>
		<path class="st7" d="M411.3,486.2L411.3,486.2c3.7,1.2,7.6-0.7,8.9-4.4l1.7-5c0.3-0.9-0.2-1.9-1.1-2.2l-10-3.4
			c-0.9-0.3-1.9,0.2-2.2,1.1l-1.7,5C405.7,481,407.7,485,411.3,486.2z"/>
		<path class="st8" d="M412.7,477.7c0.2-0.7,1-1.1,1.8-0.9s1.1,1,0.9,1.8c-0.1,0.4-0.5,0.7-0.8,0.9l-1,2.9l-1.7-0.6l1-2.9
			C412.6,478.5,412.6,478.1,412.7,477.7z"/>
	</g>
	<path class="st9" d="M426,471.5h-7.8c-0.2,0-0.5-0.2-0.5-0.4l0,0c0-0.2,0.2-0.5,0.5-0.5h7.8c0.2,0,0.5,0.2,0.5,0.5l0,0
		C426.4,471.3,426.2,471.5,426,471.5z"/>
</g>
<rect x="208.4" y="517.8" class="st4" width="69.1" height="30.6"/>
<path class="st5" d="M278.1,517.8h-70.2c-0.5,0-0.9-0.4-0.9-0.9v-3.6c0-0.5,0.4-0.9,0.9-0.9h70.2c0.5,0,0.9,0.4,0.9,0.9v3.6
	C279,517.4,278.6,517.8,278.1,517.8z"/>
<path class="st5" d="M278.1,512.4h-70.2c-0.5,0-0.9-0.4-0.9-0.9v-5.4c0-0.5,0.4-0.9,0.9-0.9h70.2c0.5,0,0.9,0.4,0.9,0.9v5.4
	C279,512,278.6,512.4,278.1,512.4z"/>
<path class="st5" d="M278.1,555.6h-70.2c-0.5,0-0.9-0.4-0.9-0.9v-5.4c0-0.5,0.4-0.9,0.9-0.9h70.2c0.5,0,0.9,0.4,0.9,0.9v5.4
	C279,555.2,278.6,555.6,278.1,555.6z"/>
<path class="st6" d="M245.2,526.8h-4.3c-2.8,0-5.1-2.3-5.1-5.1v-9.3h14.5v9.3C250.3,524.5,248,526.8,245.2,526.8z"/>
<g>
	<path class="st20" d="M247.1,519.8c-2.7,0.9-4.2,3.9-3.3,6.7s3.9,4.2,6.7,3.3s4.2-3.9,3.3-6.7S249.9,518.9,247.1,519.8z
		 M249.9,528.1c-1.8,0.6-3.8-0.4-4.4-2.2c-0.6-1.8,0.4-3.8,2.2-4.4c1.8-0.6,3.8,0.4,4.4,2.2C252.7,525.5,251.7,527.5,249.9,528.1z"
		/>
	<path class="st20" d="M253.3,538.1L253.3,538.1c-3.7,1.2-7.6-0.7-8.9-4.4l-1.7-5c-0.3-0.9,0.2-1.9,1.1-2.2l10-3.4
		c0.9-0.3,1.9,0.2,2.2,1.1l1.7,5C258.9,532.9,256.9,536.8,253.3,538.1z"/>
	<path class="st21" d="M251.9,529.5c-0.2-0.7-1-1.1-1.8-0.9c-0.7,0.2-1.1,1-0.9,1.8c0.1,0.4,0.5,0.7,0.8,0.9l1,2.9l1.7-0.6l-1-2.9
		C251.9,530.4,252,530,251.9,529.5z"/>
</g>
<path class="st9" d="M247,523.3h-7.8c-0.2,0-0.4-0.2-0.4-0.4v0c0-0.2,0.2-0.4,0.4-0.4h7.8c0.2,0,0.5,0.2,0.5,0.4v0
	C247.4,523.1,247.2,523.3,247,523.3z"/>
</svg>
