<?xml version="1.0" encoding="utf-8"?>
<!-- Generator: Adobe Illustrator 22.1.0, SVG Export Plug-In . SVG Version: 6.00 Build 0)  -->
<svg version="1.1" id="Layer_1" xmlns="http://www.w3.org/2000/svg" xmlns:xlink="http://www.w3.org/1999/xlink" x="0px" y="0px"
	 viewBox="0 0 720 360" style="enable-background:new 0 0 720 360;" xml:space="preserve">
<style type="text/css">
	.st0{fill:#F0F0F0;}
	.st1{fill:none;stroke:#0AB45A;stroke-miterlimit:10;}
	.st2{fill:none;stroke:#000000;stroke-miterlimit:10;}
	.st3{display:none;}
	.st4{display:inline;opacity:0.2;fill:#0AB45A;}
	.st5{display:inline;opacity:0.2;fill:#005AC8;}
	.st6{display:inline;opacity:0.2;fill:#AA0A3C;}
	.st7{fill:none;stroke:#000000;stroke-linecap:round;stroke-linejoin:round;stroke-miterlimit:10;}
	.st8{fill:#5C0015;}
	.st9{fill:#153267;}
	.st10{fill:#006B33;}
	.st11{fill:#AA0A3C;stroke:#5C0015;stroke-width:0.2387;stroke-miterlimit:10;}
	.st12{fill:#590000;stroke:#330000;stroke-width:0.2387;stroke-miterlimit:10;}
	.st13{fill:#005AC8;stroke:#153267;stroke-width:0.2387;stroke-miterlimit:10;}
	.st14{fill:#03003E;stroke:#00001E;stroke-width:0.2387;stroke-miterlimit:10;}
	.st15{fill:#0AB45A;stroke:#006B33;stroke-width:0.239;stroke-miterlimit:10;}
	.st16{fill:#003D11;stroke:#002300;stroke-width:0.2387;stroke-miterlimit:10;}
	.st17{fill:#F2F2F2;stroke:#333333;stroke-width:1.25;stroke-miterlimit:10;}
	.st18{fill:#FFFFFF;stroke:#000000;stroke-width:0.6936;stroke-linejoin:round;stroke-miterlimit:10;}
	.st19{fill:none;stroke:#000000;stroke-width:2;stroke-linejoin:round;}
	.st20{fill:none;stroke:#005AC8;stroke-miterlimit:10;}
	.st21{fill:none;stroke:#000000;stroke-width:2;stroke-linejoin:round;stroke-miterlimit:10;stroke-dasharray:4;}
	.st22{fill:none;stroke:#AA0A3C;stroke-width:1.0153;stroke-miterlimit:10;}
	.st23{fill:none;stroke:#AA0A3C;stroke-width:0.9724;stroke-miterlimit:10;}
	.st24{fill:none;stroke:#AA0A3C;stroke-miterlimit:10;}
	.st25{fill:#F2F2F2;stroke:#999999;stroke-width:0.4345;stroke-miterlimit:10;}
	.st26{opacity:0.35;}
	.st27{fill:none;stroke:#5C0015;stroke-miterlimit:10;}
	.st28{fill:none;stroke:#153267;stroke-miterlimit:10;}
	.st29{fill:none;stroke:#006B33;stroke-miterlimit:10;}
</style>
<g>
	<rect x="125.6" class="st0" width="157.9" height="360"/>
	<rect x="436.5" class="st0" width="157.9" height="360"/>
</g>
<rect x="71.3" y="87.3" class="st1" width="445.3" height="55.8"/>
<g>
	<g>
		<path d="M185,46.6h6.1v1.7h-4v1.8h3.4v1.7h-3.4V54h4.1v1.7H185V46.6z"/>
		<path d="M193.1,48.8h1.7l0.2,0.9h0.1c0.6-0.6,1.4-1.1,2.4-1.1c1.6,0,2.3,1.1,2.3,2.8v4.3h-2.1v-4c0-0.9-0.3-1.3-1-1.3
			c-0.6,0-0.9,0.3-1.4,0.7v4.6h-2.1V48.8z"/>
		<path d="M202.9,52.9v-2.5h-1.8v-1.5l1.8-0.1l0.3-2.1h1.7v2.1h2.9v1.6H205v2.4c0,1.1,0.4,1.5,1.5,1.5c0.5,0,1-0.1,1.4-0.3l0.4,1.5
			c-0.6,0.2-1.3,0.4-2.3,0.4C203.7,55.9,202.9,54.7,202.9,52.9z"/>
		<path d="M210.5,48.8h1.7l0.2,1.5h0c0.7-1.1,1.7-1.7,2.8-1.7c0.6,0,0.9,0.1,1.3,0.3l-0.4,1.7c-0.4-0.1-0.7-0.2-1.2-0.2
			c-0.9,0-1.8,0.4-2.3,1.7v3.6h-2.1V48.8z"/>
		<path d="M218.3,58.3l0.4-1.6c0.2,0.1,0.4,0.1,0.5,0.1c0.8,0,1.2-0.4,1.5-0.9l0.1-0.4l-3-6.8h2l1.2,3c0.3,0.7,0.5,1.4,0.7,2.1h0.1
			c0.2-0.7,0.4-1.4,0.6-2.1l1-3h1.9l-2.7,7c-0.7,1.8-1.5,2.6-3.2,2.6C218.9,58.5,218.5,58.4,218.3,58.3z"/>
	</g>
	<g>
		<g>
			<path d="M339.3,46.6h3.2c1.9,0,3.5,0.7,3.5,2.8c0,1.3-0.7,2.2-1.6,2.6l2.1,3.7h-2.3l-1.8-3.3h-1.1v3.3h-2.1V46.6z M342.3,50.8
				c1.1,0,1.7-0.5,1.7-1.4s-0.6-1.2-1.7-1.2h-1v2.6H342.3z"/>
			<path d="M347.5,52.3c0-2.3,1.8-3.6,3.6-3.6c2.1,0,3.3,1.4,3.3,3.3c0,0.4-0.1,0.8-0.1,0.9h-4.7c0.2,1,0.9,1.5,2.1,1.5
				c0.6,0,1.2-0.2,1.8-0.5l0.7,1.2c-0.8,0.5-1.8,0.8-2.8,0.8C349.1,55.9,347.5,54.6,347.5,52.3z M349.6,51.5h3
				c-0.1-0.9-0.6-1.3-1.4-1.3C350.3,50.2,349.8,50.7,349.6,51.5z"/>
			<path d="M358,53.1v-5.5h-2v-1.6h4.1v7.2c0,0.9,0.5,1.1,1.1,1.1c0.3,0,0.7-0.1,1.1-0.2l0.5,1.5c-0.7,0.2-1.2,0.4-2.1,0.4
				C358.9,55.9,358,54.8,358,53.1z"/>
			<path d="M364.3,53.8c0-1.6,1.3-2.3,4.6-2.5c-0.1-0.6-0.5-1-1.5-1c-0.7,0-1.3,0.3-2.1,0.6l-0.7-1.3c1-0.5,2.1-0.9,3.2-0.9
				c1.9,0,3.1,1,3.1,3.1v4h-1.7l-0.2-0.8h-0.1c-0.7,0.5-1.6,1-2.5,1C365.2,55.9,364.3,55,364.3,53.8z M368.9,53.7v-1.1
				c-2,0.1-2.6,0.5-2.6,1.1c0,0.4,0.4,0.7,1,0.7C367.9,54.3,368.4,54.1,368.9,53.7z"/>
			<path d="M372.8,58.3l0.4-1.6c0.2,0.1,0.4,0.1,0.5,0.1c0.8,0,1.2-0.4,1.5-0.9l0.1-0.4l-3-6.8h2l1.2,3c0.3,0.7,0.5,1.4,0.7,2.1h0.1
				c0.2-0.7,0.4-1.4,0.6-2.1l1-3h1.9l-2.7,7c-0.7,1.8-1.5,2.6-3.2,2.6C373.5,58.5,373.1,58.4,372.8,58.3z"/>
		</g>
	</g>
	<g>
		<path d="M502.4,46.6h6.1v1.7h-4v1.8h3.4v1.7h-3.4V54h4.1v1.7h-6.2V46.6z"/>
		<path d="M512.4,52.2l-2.3-3.3h2.2l0.7,1.1c0.2,0.4,0.5,0.8,0.7,1.2h0.1c0.2-0.4,0.4-0.8,0.6-1.2l0.6-1.1h2.2l-2.3,3.6l2.4,3.4
			h-2.2l-0.8-1.1c-0.3-0.4-0.5-0.8-0.8-1.2h-0.1c-0.2,0.4-0.4,0.8-0.6,1.2l-0.7,1.1H510L512.4,52.2z"/>
		<path d="M521.8,50.4H519v-1.6h4.8v6.9h-2.1V50.4z M521.3,46.5c0-0.8,0.6-1.3,1.4-1.3c0.8,0,1.4,0.5,1.4,1.3s-0.6,1.2-1.4,1.2
			C521.9,47.7,521.3,47.2,521.3,46.5z"/>
		<path d="M528.7,52.9v-2.5H527v-1.5l1.8-0.1l0.3-2.1h1.7v2.1h2.9v1.6h-2.9v2.4c0,1.1,0.4,1.5,1.5,1.5c0.5,0,1-0.1,1.4-0.3l0.4,1.5
			c-0.6,0.2-1.3,0.4-2.3,0.4C529.5,55.9,528.7,54.7,528.7,52.9z"/>
	</g>
	<g>
		<g>
			<path d="M45.3,52.6c-0.3,0-0.4,0-0.5,0.3l-0.5,1.6c-0.1,0.3-0.1,0.4-0.1,0.5c0,0.1,0.2,0.2,0.6,0.2l0.4,0.1
				c0.1,0.1,0.1,0.4,0,0.5c-0.5,0-1,0-1.6,0c-0.5,0-0.8,0-1.4,0c-0.2-0.1-0.1-0.4,0-0.5l0.4,0c0.3,0,0.6-0.2,0.9-0.7
				c0.2-0.6,0.5-1.2,0.9-2.2l1.3-3.4c0.3-0.9,0.6-1.4,0.5-1.8c0.7-0.2,1.2-0.8,1.2-0.8c0.2,0,0.3,0.1,0.3,0.3
				c0.1,0.4,0.3,0.9,0.6,1.9l1.9,5.5c0.3,0.8,0.4,1.2,0.9,1.2l0.5,0.1c0.1,0.1,0.1,0.4,0,0.5c-0.7,0-1.4,0-2.2,0c-0.7,0-1.2,0-1.9,0
				c-0.2-0.1-0.2-0.4,0-0.5l0.4-0.1c0.3-0.1,0.4-0.2,0.4-0.2c0-0.1-0.1-0.4-0.3-1l-0.4-1.2c-0.1-0.2-0.2-0.3-0.7-0.3H45.3z
				 M46.9,51.9c0.3,0,0.4,0,0.3-0.4l-0.4-1.1c-0.2-0.6-0.4-1.4-0.6-1.7c-0.1,0.3-0.4,1.1-0.6,1.7l-0.4,1.1c-0.1,0.4-0.1,0.4,0.3,0.4
				H46.9z"/>
			<path d="M51.8,55.5c-0.2-0.3-0.3-1-0.2-1.6c0.1-0.1,0.4-0.2,0.5,0c0.2,0.6,0.7,1.4,1.4,1.4c0.4,0,0.7-0.3,0.7-0.7
				c0-0.5-0.4-0.8-0.9-1.1c-0.8-0.4-1.4-0.9-1.4-1.8c0-1.2,1-1.8,2.2-1.8c0.7,0,1.3,0.2,1.5,0.3c0.1,0.3,0.2,0.9,0.2,1.4
				c-0.1,0.2-0.4,0.2-0.5,0.1c-0.3-0.8-0.6-1.1-1.1-1.1c-0.4,0-0.7,0.2-0.7,0.6c0,0.3,0.3,0.6,0.9,0.9c1,0.5,1.5,1.1,1.5,2
				c0,1.2-1.1,1.9-2.4,1.9C52.8,56,52.2,55.8,51.8,55.5z"/>
			<path d="M56.8,55.5c-0.2-0.3-0.3-1-0.2-1.6c0.1-0.1,0.4-0.2,0.5,0c0.2,0.6,0.7,1.4,1.4,1.4c0.4,0,0.7-0.3,0.7-0.7
				c0-0.5-0.4-0.8-0.9-1.1c-0.8-0.4-1.4-0.9-1.4-1.8c0-1.2,1-1.8,2.2-1.8c0.7,0,1.3,0.2,1.5,0.3c0.1,0.3,0.2,0.9,0.2,1.4
				c-0.1,0.2-0.4,0.2-0.5,0.1c-0.3-0.8-0.6-1.1-1.1-1.1c-0.4,0-0.7,0.2-0.7,0.6c0,0.3,0.3,0.6,0.9,0.9c1,0.5,1.5,1.1,1.5,2
				c0,1.2-1.1,1.9-2.4,1.9C57.8,56,57.2,55.8,56.8,55.5z"/>
			<path d="M66.5,53.8c-0.1,1,0.4,1.2,0.6,1.2c0.2,0,0.3,0,0.5-0.2c0.1,0,0.2,0.2,0.2,0.3C67.7,55.4,67,56,66.2,56
				c-0.5,0-0.8-0.2-1.2-0.5c-0.1-0.1-0.2-0.1-0.2-0.1c-0.1,0-0.2,0.1-0.3,0.2c-0.3,0.2-0.7,0.4-1.2,0.4c-0.8,0-1.6-0.5-1.6-1.5
				c0-0.7,0.4-1.1,1.5-1.5c0.5-0.2,0.9-0.3,1.3-0.4c0.3-0.1,0.3-0.2,0.3-0.3c0-0.2,0-0.3,0-0.5c0-0.5-0.2-1.2-0.8-1.2
				c-0.3,0-0.6,0.2-0.7,0.8c0,0.2-0.1,0.4-0.2,0.4c-0.2,0.2-0.8,0.3-1,0.3c-0.2,0-0.3-0.2-0.3-0.4c0-0.4,0.3-0.8,0.7-1.1
				c0.5-0.4,1.4-0.9,2.4-0.9c1.2,0,1.9,0.6,1.8,2L66.5,53.8z M64.8,53.5c0-0.2,0-0.3-0.1-0.3c-0.6,0.1-1.2,0.3-1.2,1
				c0,0.4,0.3,0.8,0.7,0.8c0.4,0,0.5-0.3,0.5-0.7L64.8,53.5z"/>
			<path d="M70.6,50.9c-0.2,0-0.2,0-0.2,0.3v2.1c0,0.8,0,1.7,1,1.7c0.2,0,0.4-0.1,0.6-0.2c0.1,0,0.2,0.2,0.2,0.4
				c-0.4,0.4-1.1,0.8-2,0.8c-1.2,0-1.6-0.7-1.6-1.6v-3.1c0-0.3,0-0.3-0.3-0.3h-0.4c-0.2-0.1-0.2-0.3-0.1-0.4
				c0.4-0.2,0.8-0.4,1.2-0.6c0.3-0.2,0.6-0.5,1-1.1c0.1-0.1,0.4,0,0.4,0.1v1.1c0,0.3,0,0.3,0.3,0.3h1.2c0.1,0.1,0.1,0.1,0.1,0.3
				c0,0.2,0,0.4-0.2,0.5H70.6z"/>
			<path d="M77.2,53.8c-0.1,1,0.4,1.2,0.6,1.2c0.2,0,0.3,0,0.5-0.2c0.1,0,0.2,0.2,0.2,0.3c-0.2,0.2-0.8,0.8-1.6,0.8
				c-0.5,0-0.8-0.2-1.2-0.5c-0.1-0.1-0.2-0.1-0.2-0.1c-0.1,0-0.2,0.1-0.3,0.2C75,55.7,74.6,56,74,56c-0.8,0-1.6-0.5-1.6-1.5
				c0-0.7,0.4-1.1,1.5-1.5c0.5-0.2,0.9-0.3,1.3-0.4c0.3-0.1,0.3-0.2,0.3-0.3c0-0.2,0-0.3,0-0.5c0-0.5-0.2-1.2-0.8-1.2
				c-0.3,0-0.6,0.2-0.7,0.8c0,0.2-0.1,0.4-0.2,0.4c-0.2,0.2-0.8,0.3-1,0.3c-0.2,0-0.3-0.2-0.3-0.4c0-0.4,0.3-0.8,0.7-1.1
				c0.5-0.4,1.4-0.9,2.4-0.9c1.2,0,1.9,0.6,1.8,2L77.2,53.8z M75.5,53.5c0-0.2,0-0.3-0.1-0.3c-0.6,0.1-1.2,0.3-1.2,1
				c0,0.4,0.3,0.8,0.7,0.8c0.4,0,0.5-0.3,0.5-0.7L75.5,53.5z"/>
		</g>
	</g>
	<g>
		<path d="M661.6,47.1c-0.3,0.1-0.5,0.2-0.6,0.3c-0.2,0.2-0.4,0.7-0.8,1.6c-0.7,1.6-2.2,5.1-2.9,6.9c-0.1,0.1-0.3,0.1-0.5,0.1
			c-0.2,0-0.3,0-0.4-0.1c-0.2-0.3-0.4-0.8-0.5-1.2l-0.6-1.3c-0.2-0.4-0.4-0.9-0.5-1.1c-0.1,0.2-0.3,0.6-0.5,1l-0.6,1.4
			c-0.2,0.4-0.4,0.9-0.6,1.3c-0.1,0.1-0.3,0.1-0.5,0.1c-0.2,0-0.3,0-0.4-0.1c-0.2-0.6-0.8-1.8-1.3-2.9l-2.3-4.9
			c-0.4-0.8-0.5-0.9-0.9-1l-0.4-0.1c-0.1-0.1-0.1-0.4,0.1-0.5c0.5,0,1.1,0,1.8,0c0.6,0,1.2,0,1.7,0c0.1,0.1,0.2,0.4,0,0.5l-0.3,0
			c-0.3,0-0.3,0.1-0.3,0.2c0,0.1,0.3,0.8,0.7,1.7l1.4,3.1c0.4,0.9,0.6,1.3,0.8,1.6c0.2-0.3,0.5-0.9,0.7-1.4l0.2-0.4
			c0.1-0.2,0.1-0.4,0.1-0.5c0-0.1-0.1-0.4-0.2-0.5l-1.3-3c-0.3-0.7-0.4-0.8-1-0.9l-0.1,0c-0.1-0.1-0.1-0.4,0-0.5c0.6,0,1.1,0,1.8,0
			c0.7,0,1.2,0,1.6,0c0.2,0,0.2,0.4,0.1,0.5L655,47c-0.2,0-0.4,0.1-0.4,0.2c0,0.1,0.1,0.3,0.1,0.4l0.4,1c0.1,0.3,0.3,0.7,0.4,0.9
			l0.4-1l0.1-0.3c0.2-0.5,0.4-1,0.4-1c0-0.1-0.1-0.1-0.3-0.2l-0.5-0.1c-0.1-0.1-0.1-0.4,0-0.5c0.4,0,0.9,0,1.4,0c0.5,0,1.1,0,1.4,0
			c0.1,0.1,0.1,0.4,0,0.5l-0.4,0.1c-0.5,0.1-0.6,0.1-1.1,0.9c-0.3,0.6-0.7,1.3-0.9,1.6c-0.1,0.3-0.3,0.7-0.3,0.7c0,0,0,0.1,0.1,0.4
			l0.7,1.4c0.4,0.8,0.6,1.2,0.6,1.4c0.7-1.6,1.4-3.4,2.1-5.1c0.1-0.2,0.4-1,0.4-1.1c0-0.1-0.2-0.2-0.4-0.3l-0.3-0.1
			c-0.1-0.1-0.1-0.4,0-0.5c0.4,0,1,0,1.4,0c0.5,0,0.9,0,1.3,0c0.1,0.1,0.1,0.4,0,0.5L661.6,47.1z"/>
		<path d="M662.5,52.4c-0.3,0-0.4,0-0.4,0.3c0,1.1,0.7,2.1,2,2.1c0.4,0,0.9-0.1,1.3-0.7c0.2,0,0.4,0.1,0.4,0.3
			c-0.6,1.2-1.6,1.6-2.5,1.6c-1.9,0-2.9-1.3-2.9-2.9c0-1.8,1.3-3.1,3-3.1c1.5,0,2.2,0.9,2.2,2c0,0.3-0.1,0.5-0.5,0.5H662.5z
			 M663.4,51.8c0.2,0,0.4,0,0.6-0.1c0.1,0,0.1-0.2,0.1-0.3c0-0.5-0.3-0.8-0.7-0.8c-0.6,0-1.1,0.6-1.1,1c0,0.2,0.2,0.2,0.6,0.2H663.4
			z"/>
		<path d="M668.6,50c0,0.2,0.1,0.3,0.2,0.4c0.4-0.2,0.9-0.4,1.5-0.4c1.6,0,2.6,1.2,2.6,2.8c0,2-1.4,3.2-3.4,3.2
			c-0.6,0-1.2-0.1-1.5-0.3c-0.2-0.1-0.3-0.1-0.4-0.1c-0.1,0-0.4,0.1-0.5,0.2c-0.1,0-0.2,0-0.3-0.1c0-0.2,0-0.7,0-1.4V48
			c0-0.6,0-0.7-0.3-0.9l-0.2-0.1c-0.1-0.1-0.1-0.3,0-0.4c0.6-0.1,1.4-0.5,2.2-0.8c0.1,0,0.2,0,0.2,0.1c0,0.6-0.1,1.2-0.1,2V50z
			 M668.6,53.8c0,0.4,0.1,0.7,0.3,1.1c0.2,0.3,0.5,0.5,0.8,0.5c0.9,0,1.2-1,1.2-2.1c0-1.4-0.7-2.4-1.7-2.4c-0.3,0-0.4,0.1-0.6,0.2
			c-0.1,0.1-0.1,0.3-0.1,0.6V53.8z"/>
	</g>
</g>
<g>
	<g>
		<g>
			<path d="M346.3,16.7c0-0.4,0-0.5-0.4-0.5h-1c-1.2,0-1.5,0.6-2,1.8c-0.2,0.1-0.5,0.1-0.6-0.1c0.3-1.1,0.4-2.1,0.5-2.7
				c0.1,0,0.1-0.1,0.2-0.1s0.2,0,0.2,0.1c0.1,0.3,0.1,0.3,1.3,0.3h6c1.1,0,1.3,0,1.4-0.4c0.1,0,0.1,0,0.2,0c0.1,0,0.2,0.1,0.2,0.1
				c-0.2,0.5-0.3,1.8-0.2,2.8c-0.1,0.1-0.5,0.2-0.6,0c-0.3-1-0.5-1.8-1.7-1.8h-1c-0.4,0-0.4,0-0.4,0.5v7.1c0,1.5,0.1,1.6,0.8,1.7
				l0.6,0.1c0.1,0.1,0.1,0.5,0,0.6c-1,0-1.8,0-2.6,0c-0.8,0-1.6,0-2.7,0c-0.1-0.1-0.1-0.5,0-0.6l0.7-0.1c0.7-0.1,0.8-0.2,0.8-1.7
				V16.7z"/>
			<path d="M364,20.8c0,3.5-2.3,5.6-5.8,5.6c-3.2,0-5.6-2.1-5.6-5.5c0-3.2,2.4-5.6,5.7-5.6C361.7,15.3,364,17.5,364,20.8z M358.2,16
				c-2,0-3,1.8-3,4.5c0,2,0.7,5.1,3.3,5.1c2.1,0,2.9-2,2.9-4.6C361.4,18.3,360.2,16,358.2,16z"/>
			<path d="M366.4,18.1c0-1.6,0-1.8-0.7-1.9l-0.4-0.1c-0.2-0.1-0.2-0.5,0-0.6c1.2-0.1,2.4-0.1,4-0.1c1.4,0,2.5,0.2,3.1,0.6
				c0.9,0.5,1.4,1.3,1.4,2.4c0,1.4-1,2-1.7,2.4c-0.2,0.1-0.2,0.2-0.1,0.4c1.1,2.1,1.7,3.3,2.5,4c0.4,0.3,0.8,0.4,1.1,0.4
				c0.1,0.1,0.1,0.3,0.1,0.4c-0.3,0.1-0.8,0.1-1.3,0.1c-1.5,0-2.4-0.5-3.1-1.7c-0.5-0.8-0.9-1.6-1.2-2.5c-0.2-0.4-0.4-0.6-0.8-0.6
				c-0.6,0-0.6,0-0.6,0.4v2c0,1.5,0.1,1.6,0.8,1.7l0.4,0.1c0.1,0.1,0.1,0.5,0,0.6c-0.8,0-1.6,0-2.4,0c-0.8,0-1.5,0-2.3,0
				c-0.1-0.1-0.1-0.5,0-0.6l0.4-0.1c0.7-0.1,0.8-0.2,0.8-1.7V18.1z M368.6,20.2c0,0.6,0,0.6,1,0.6c0.6,0,0.9-0.1,1.2-0.4
				c0.3-0.3,0.6-0.8,0.6-1.7c0-1.4-0.8-2.4-2.1-2.4c-0.7,0-0.7,0-0.7,0.8V20.2z"/>
		</g>
	</g>
	<polyline class="st2" points="332.5,20.7 125.6,20.7 125.6,38.9 	"/>
	<polyline class="st2" points="387.5,20.7 594.4,20.7 594.4,38.9 	"/>
</g>
<g class="st3">
	<rect x="71.3" y="87.3" class="st4" width="445.3" height="55.8"/>
	<rect x="71.3" y="83.5" class="st5" width="295.6" height="85.1"/>
	<rect x="71.3" y="80.3" class="st6" width="144.5" height="116.3"/>
</g>
<g class="st3">
	<rect x="71.3" y="231.5" class="st4" width="445.3" height="55.8"/>
	<rect x="71.3" y="227.7" class="st5" width="295.6" height="85.1"/>
	<rect x="71.3" y="225" class="st6" width="144.5" height="114.4"/>
</g>
<g>
	<polygon class="st7" points="64,262.9 639.7,262.9 639.8,235.4 60.9,235.4 	"/>
</g>
<g>
	<path class="st8" d="M205.5,174.8V190H87l3.2-7.9l0.1-0.2l0-0.2l0-3.3l0-0.2l-0.1-0.2l-1.1-2.5l-0.1-0.2l-0.2-0.1l-0.5-0.4H205.5
		 M206.5,173.8h-121l2.6,2.2l1.1,2.5l0,3.3l-3.8,9.2h121V173.8L206.5,173.8z"/>
</g>
<g>
	<polygon class="st9" points="206.3,165 85.2,165 89,155.7 89,152.5 87.9,149.9 85.2,147.8 206.3,147.8 	"/>
</g>
<g>
	<polygon class="st10" points="206.3,139 85.2,139 89,129.8 89,126.5 87.9,124 85.2,121.8 206.3,121.8 	"/>
</g>
<g>
	<polygon class="st10" points="356.7,139 235.7,139 239.5,129.8 239.5,126.5 238.3,124 235.7,121.8 356.7,121.8 	"/>
</g>
<g>
	<path class="st11" d="M85.5,173.8c-2.6,0-4.7,2.1-4.7,4.7s2.1,4.7,4.7,4.7s4.7-2.1,4.7-4.7S88.1,173.8,85.5,173.8z M85.5,181.6
		c-1.7,0-3.1-1.4-3.1-3.1s1.4-3.1,3.1-3.1c1.7,0,3.1,1.4,3.1,3.1S87.2,181.6,85.5,181.6z"/>
	<path class="st11" d="M85.5,191L85.5,191c-3.5,0-6.3-2.8-6.3-6.3v-4.7c0-0.9,0.7-1.6,1.6-1.6h9.4c0.9,0,1.6,0.7,1.6,1.6v4.7
		C91.8,188.2,89,191,85.5,191z"/>
	<path class="st12" d="M86.8,183.4c0-0.7-0.6-1.3-1.3-1.3s-1.3,0.6-1.3,1.3c0,0.4,0.2,0.7,0.5,1v2.7h1.6v-2.7
		C86.6,184.2,86.8,183.8,86.8,183.4z"/>
</g>
<g>
	<path class="st13" d="M85.2,147.8c-2.6,0-4.7,2.1-4.7,4.7s2.1,4.7,4.7,4.7s4.7-2.1,4.7-4.7S87.8,147.8,85.2,147.8z M85.2,155.6
		c-1.7,0-3.1-1.4-3.1-3.1s1.4-3.1,3.1-3.1c1.7,0,3.1,1.4,3.1,3.1S87,155.6,85.2,155.6z"/>
	<path class="st13" d="M85.2,165L85.2,165c-3.5,0-6.3-2.8-6.3-6.3V154c0-0.9,0.7-1.6,1.6-1.6h9.4c0.9,0,1.6,0.7,1.6,1.6v4.7
		C91.5,162.2,88.7,165,85.2,165z"/>
	<path class="st14" d="M86.5,157.4c0-0.7-0.6-1.3-1.3-1.3s-1.3,0.6-1.3,1.3c0,0.4,0.2,0.7,0.5,1v2.7H86v-2.7
		C86.3,158.1,86.5,157.8,86.5,157.4z"/>
</g>
<g>
	<path class="st9" d="M355.7,148.8V164H237.2l3.2-7.9l0.1-0.2l0-0.2l0-3.3l0-0.2l-0.1-0.2l-1.1-2.5l-0.1-0.2l-0.2-0.1l-0.5-0.4
		H355.7 M356.7,147.8h-121l2.6,2.2l1.1,2.5l0,3.3l-3.8,9.2h121V147.8L356.7,147.8z"/>
</g>
<g>
	<path class="st13" d="M235.7,147.8c-2.6,0-4.7,2.1-4.7,4.7s2.1,4.7,4.7,4.7s4.7-2.1,4.7-4.7S238.3,147.8,235.7,147.8z M235.7,155.6
		c-1.7,0-3.1-1.4-3.1-3.1s1.4-3.1,3.1-3.1s3.1,1.4,3.1,3.1S237.4,155.6,235.7,155.6z"/>
	<path class="st13" d="M235.7,165L235.7,165c-3.5,0-6.3-2.8-6.3-6.3V154c0-0.9,0.7-1.6,1.6-1.6h9.4c0.9,0,1.6,0.7,1.6,1.6v4.7
		C242,162.2,239.2,165,235.7,165z"/>
	<path class="st14" d="M237,157.4c0-0.7-0.6-1.3-1.3-1.3c-0.7,0-1.3,0.6-1.3,1.3c0,0.4,0.2,0.7,0.5,1v2.7h1.6v-2.7
		C236.8,158.1,237,157.8,237,157.4z"/>
</g>
<g>
	<path class="st15" d="M84.8,121.8c-2.6,0-4.7,2.1-4.7,4.7c0,2.6,2.1,4.7,4.7,4.7c2.6,0,4.7-2.1,4.7-4.7
		C89.5,123.9,87.4,121.8,84.8,121.8z M84.8,129.6c-1.7,0-3.1-1.4-3.1-3.1c0-1.7,1.4-3.1,3.1-3.1c1.7,0,3.1,1.4,3.1,3.1
		C88,128.2,86.6,129.6,84.8,129.6z"/>
	<path class="st15" d="M84.8,139L84.8,139c-3.5,0-6.3-2.8-6.3-6.3v-4.7c0-0.9,0.7-1.6,1.6-1.6h9.4c0.9,0,1.6,0.7,1.6,1.6v4.7
		C91.1,136.2,88.3,139,84.8,139z"/>
	<path class="st16" d="M86.1,131.4c0-0.7-0.6-1.3-1.3-1.3s-1.3,0.6-1.3,1.3c0,0.4,0.2,0.7,0.5,1v2.7h1.6v-2.7
		C85.9,132.1,86.1,131.8,86.1,131.4z"/>
</g>
<g>
	<path class="st10" d="M507.7,123.1v15.2H389.2l3.2-7.9l0.1-0.2l0-0.2l0-3.3l0-0.2l-0.1-0.2l-1.1-2.5l-0.1-0.2l-0.2-0.1l-0.5-0.4
		H507.7 M508.7,122.1h-121l2.6,2.2l1.1,2.5l0,3.3l-3.8,9.2h121V122.1L508.7,122.1z"/>
</g>
<g>
	<path class="st15" d="M235.7,121.8c-2.6,0-4.7,2.1-4.7,4.7c0,2.6,2.1,4.7,4.7,4.7s4.7-2.1,4.7-4.7
		C240.4,123.9,238.3,121.8,235.7,121.8z M235.7,129.6c-1.7,0-3.1-1.4-3.1-3.1c0-1.7,1.4-3.1,3.1-3.1s3.1,1.4,3.1,3.1
		C238.8,128.2,237.4,129.6,235.7,129.6z"/>
	<path class="st15" d="M235.7,139L235.7,139c-3.5,0-6.3-2.8-6.3-6.3v-4.7c0-0.9,0.7-1.6,1.6-1.6h9.4c0.9,0,1.6,0.7,1.6,1.6v4.7
		C242,136.2,239.2,139,235.7,139z"/>
	<path class="st16" d="M237,131.4c0-0.7-0.6-1.3-1.3-1.3c-0.7,0-1.3,0.6-1.3,1.3c0,0.4,0.2,0.7,0.5,1v2.7h1.6v-2.7
		C236.8,132.1,237,131.8,237,131.4z"/>
</g>
<g>
	<path class="st15" d="M387.7,122.1c-2.6,0-4.7,2.1-4.7,4.7s2.1,4.7,4.7,4.7c2.6,0,4.7-2.1,4.7-4.7S390.3,122.1,387.7,122.1z
		 M387.7,129.9c-1.7,0-3.1-1.4-3.1-3.1s1.4-3.1,3.1-3.1s3.1,1.4,3.1,3.1S389.4,129.9,387.7,129.9z"/>
	<path class="st15" d="M387.7,139.3L387.7,139.3c-3.5,0-6.3-2.8-6.3-6.3v-4.7c0-0.9,0.7-1.6,1.6-1.6h9.4c0.9,0,1.6,0.7,1.6,1.6v4.7
		C393.9,136.5,391.1,139.3,387.7,139.3z"/>
	<path class="st16" d="M388.9,131.7c0-0.7-0.6-1.3-1.3-1.3s-1.3,0.6-1.3,1.3c0,0.4,0.2,0.7,0.5,1v2.7h1.6v-2.7
		C388.7,132.4,388.9,132.1,388.9,131.7z"/>
</g>
<g>
	<circle class="st17" cx="25.7" cy="105.2" r="9"/>
	<g>
		<path d="M26.8,108.1c0,1.2,0.1,1.4,0.8,1.4l0.6,0c0.1,0.1,0.1,0.5,0,0.5c-0.5,0-1.4,0-2.4,0c-1,0-1.9,0-2.4,0
			c-0.1,0-0.2-0.4,0-0.5l0.6,0c0.7-0.1,0.8-0.2,0.8-1.4v-4.8c0-1-0.1-1.2-0.7-1.3l-0.7-0.1c-0.1-0.1-0.1-0.4,0-0.5
			c0.6-0.1,1.3-0.3,1.9-0.4c0.7-0.2,1.2-0.5,1.3-0.5c0.1,0,0.2,0,0.2,0.2c0,0.3,0,1,0,1.8V108.1z"/>
	</g>
</g>
<g>
	<circle class="st17" cx="25.7" cy="249.2" r="9"/>
	<g>
		<path d="M27,252.4c1.1,0,1.3,0,1.7-0.8c0.1-0.1,0.4-0.1,0.5,0.1c-0.1,0.9-0.5,2-0.7,2.3c-0.6,0-1.1,0-2.1,0H24c-0.8,0-1.4,0-1.7,0
			c-0.1,0-0.2-0.2-0.2-0.3c0.6-0.5,1.4-1.3,2.3-2.3c1-1.1,2-2.4,2-4c0-1-0.6-1.8-1.6-1.8c-0.9,0-1.5,0.6-1.9,1.4
			c-0.2,0.1-0.5,0-0.5-0.2c0.6-1.5,2-2.3,3.4-2.3c1.8,0,2.8,1.1,2.8,2.5c0,1.2-0.5,2-2.3,3.7l-0.7,0.7c-0.7,0.6-0.8,0.8-0.8,0.9
			c0,0.1,0.1,0.2,0.3,0.2H27z"/>
	</g>
</g>
<g>
	<g>
		<g>
			<path class="st18" d="M42.7,113.5l5.4,5.4H64V94.6c0-1.7-1.4-3.1-3.1-3.1H42.7V113.5z"/>
			<polygon class="st18" points="42.7,113.5 48.1,113.5 48.1,118.9 			"/>
			<g>
				<path d="M44.6,100c0-1.2,0.8-2,1.6-2c0.4,0,0.7,0.1,0.9,0.4h0l-0.1-0.6v-1.3h1.1v5.3h-0.9l-0.1-0.4h0c-0.3,0.3-0.7,0.5-1,0.5
					C45.2,102,44.6,101.3,44.6,100z M47.1,100.7v-1.5C46.9,99,46.7,99,46.5,99c-0.4,0-0.8,0.3-0.8,1c0,0.7,0.3,1.1,0.7,1.1
					C46.7,101.1,46.9,101,47.1,100.7z"/>
				<path d="M49.1,103.1l0.3-0.8c0.3,0.1,0.5,0.2,0.8,0.2c0.5,0,0.7-0.2,0.7-0.8V99h-1.5v-0.9H52v3.5c0,0.9-0.4,1.7-1.7,1.7
					C49.8,103.4,49.4,103.3,49.1,103.1z M50.6,96.9c0-0.4,0.3-0.7,0.7-0.7s0.7,0.3,0.7,0.7c0,0.4-0.3,0.7-0.7,0.7
					S50.6,97.3,50.6,96.9z"/>
				<path d="M53.7,101.3c1.4-1.2,2.3-2,2.3-2.7c0-0.5-0.3-0.7-0.8-0.7c-0.4,0-0.7,0.2-1,0.5l-0.6-0.6c0.5-0.5,1-0.8,1.7-0.8
					c1,0,1.7,0.6,1.7,1.5c0,0.8-0.8,1.7-1.8,2.5c0.3,0,0.6-0.1,0.9-0.1h1.1v0.9h-3.6V101.3z"/>
				<path d="M58.2,99.5c0-1.6,0.7-2.5,1.8-2.5c1.1,0,1.8,0.8,1.8,2.5c0,1.6-0.7,2.5-1.8,2.5C59,102,58.2,101.1,58.2,99.5z
					 M60.9,99.5c0-1.2-0.4-1.6-0.9-1.6c-0.5,0-0.9,0.4-0.9,1.6s0.4,1.6,0.9,1.6C60.5,101.1,60.9,100.7,60.9,99.5z M59.5,99.5
					c0-0.3,0.2-0.6,0.6-0.6c0.3,0,0.6,0.2,0.6,0.6s-0.2,0.6-0.6,0.6C59.7,100,59.5,99.8,59.5,99.5z"/>
				<path d="M45.6,110.2c0-0.5,0.4-0.9,0.9-0.9s0.9,0.4,0.9,0.9c0,0.5-0.4,0.9-0.9,0.9S45.6,110.7,45.6,110.2z"/>
				<path d="M49.1,109.1c0-1.2,0.9-2,1.9-2c1,0,1.9,0.7,1.9,2c0,1.2-0.9,2-1.9,2C50,111,49.1,110.3,49.1,109.1z M51.8,109.1
					c0-0.6-0.3-1.1-0.8-1.1c-0.5,0-0.8,0.4-0.8,1.1s0.3,1.1,0.8,1.1C51.5,110.1,51.8,109.7,51.8,109.1z"/>
				<path d="M54.1,107.2h0.9l0.1,0.8h0c0.4-0.6,0.9-0.9,1.5-0.9c0.3,0,0.5,0.1,0.7,0.2l-0.2,0.9c-0.2-0.1-0.4-0.1-0.7-0.1
					c-0.5,0-0.9,0.2-1.3,0.9v1.9h-1.1V107.2z"/>
				<path d="M58.2,111.6c0-0.3,0.2-0.6,0.6-0.7v0c-0.2-0.1-0.4-0.3-0.4-0.6c0-0.2,0.2-0.5,0.4-0.7v0c-0.3-0.2-0.5-0.5-0.5-1
					c0-0.9,0.8-1.4,1.6-1.4c0.2,0,0.4,0,0.6,0.1h1.5v0.8h-0.8c0.1,0.1,0.2,0.3,0.2,0.5c0,0.9-0.7,1.3-1.5,1.3c-0.2,0-0.3,0-0.5-0.1
					c-0.1,0.1-0.2,0.2-0.2,0.3c0,0.2,0.2,0.3,0.6,0.3h0.7c1,0,1.5,0.3,1.5,0.9c0,0.8-0.9,1.3-2.2,1.3
					C58.9,112.5,58.2,112.2,58.2,111.6z M61.1,111.4c0-0.2-0.2-0.3-0.7-0.3h-0.5c-0.3,0-0.4,0-0.6-0.1c-0.2,0.1-0.3,0.2-0.3,0.4
					c0,0.3,0.4,0.4,0.9,0.4C60.6,111.8,61.1,111.6,61.1,111.4z M60.5,108.5c0-0.4-0.3-0.6-0.6-0.6s-0.6,0.2-0.6,0.6
					c0,0.4,0.2,0.6,0.6,0.6S60.5,108.9,60.5,108.5z"/>
			</g>
		</g>
	</g>
</g>
<g>
	<g>
		<g>
			<path class="st18" d="M42.7,257.5l5.4,5.4H64v-24.3c0-1.7-1.4-3.1-3.1-3.1H42.7V257.5z"/>
			<polygon class="st18" points="42.7,257.5 48.1,257.5 48.1,262.9 			"/>
			<g>
				<path d="M45.3,241h3.3v0.9h-2.2v1.1h1.8v0.9h-1.8v1.9h-1.1V241z"/>
				<path d="M50,244.9l0.7-1.2l-1.2-0.5l0.2-0.5l1.2,0.3l0.1-1.3h0.6l0.1,1.3l1.2-0.3l0.2,0.5l-1.2,0.5l0.7,1.2l-0.5,0.3l-0.9-1.1
					l-0.9,1.1L50,244.9z"/>
				<path d="M54,243.5c0-1.6,1-2.6,2.3-2.6c0.6,0,1.1,0.3,1.5,0.6l-0.6,0.7c-0.2-0.2-0.5-0.4-0.9-0.4c-0.7,0-1.2,0.6-1.2,1.6
					c0,1,0.5,1.6,1.3,1.6c0.4,0,0.6-0.2,0.9-0.4l0.6,0.7c-0.4,0.5-0.9,0.7-1.6,0.7C55.1,246,54,245.1,54,243.5z"/>
				<path d="M58.6,241h1.1v2h0l1.5-2h1.2l-1.5,2l1.6,3h-1.2l-1-2.1l-0.6,0.7v1.3h-1.1V241z"/>
				<path d="M46.2,251h-1.5V250h4.1v0.9h-1.5v4h-1.1V251z"/>
				<path d="M49.6,250h1.7c1,0,1.9,0.4,1.9,1.5c0,0.7-0.4,1.2-0.9,1.4l1.1,2h-1.2l-0.9-1.8h-0.6v1.8h-1.1V250z M51.2,252.3
					c0.6,0,0.9-0.2,0.9-0.7s-0.3-0.6-0.9-0.6h-0.5v1.4H51.2z"/>
				<path d="M54,250h1.2l0.5,1.7l0.2,0.7h0l0.2-0.7l0.5-1.7h1.2v4.9h-0.9v-1.5c0-0.6,0.1-1.7,0.1-2.3h0l-0.4,1.3l-0.4,1.2h-0.5
					l-0.4-1.2l-0.4-1.3h0c0.1,0.5,0.1,1.7,0.1,2.3v1.5H54V250z"/>
				<path d="M58.7,250h1.7c1.1,0,1.9,0.4,1.9,1.6c0,1.2-0.9,1.7-1.9,1.7h-0.6v1.7h-1.1V250z M60.3,252.4c0.6,0,0.9-0.3,0.9-0.8
					s-0.3-0.7-0.9-0.7h-0.6v1.5H60.3z"/>
			</g>
		</g>
	</g>
</g>
<g>
	<g>
		<line class="st19" x1="64" y1="105.2" x2="192.2" y2="105.2"/>
		<g>
			<path d="M199.4,105.2c-3.4,1.3-7.6,3.4-10.3,5.7l2.1-5.7l-2.1-5.7C191.8,101.7,196,103.9,199.4,105.2z"/>
		</g>
	</g>
</g>
<g>
	<g>
		<line class="st19" x1="232.6" y1="105.2" x2="342.8" y2="105.2"/>
		<g>
			<path d="M350,105.2c-3.4,1.3-7.6,3.4-10.3,5.7l2.1-5.7l-2.1-5.7C342.4,101.7,346.6,103.9,350,105.2z"/>
		</g>
	</g>
</g>
<g>
	<g>
		<line class="st19" x1="383.9" y1="105.2" x2="494.1" y2="105.2"/>
		<g>
			<path d="M501.3,105.2c-3.4,1.3-7.6,3.4-10.3,5.7l2.1-5.7l-2.1-5.7C493.7,101.7,497.9,103.9,501.3,105.2z"/>
		</g>
	</g>
</g>
<rect x="71.3" y="83.9" class="st20" width="295.6" height="85.1"/>
<line class="st21" x1="200.6" y1="105.2" x2="230.9" y2="105.2"/>
<line class="st21" x1="351.7" y1="105.2" x2="382" y2="105.2"/>
<g>
	<g>
		<line class="st19" x1="535" y1="105.2" x2="615.8" y2="105.2"/>
		<g>
			<path d="M623.1,105.2c-3.4,1.3-7.6,3.4-10.3,5.7l2.1-5.7l-2.1-5.7C615.4,101.7,619.6,103.9,623.1,105.2z"/>
		</g>
	</g>
</g>
<line class="st21" x1="502.9" y1="105.2" x2="533.2" y2="105.2"/>
<g>
	<g>
		<line class="st19" x1="89.2" y1="249.2" x2="199.4" y2="249.2"/>
		<g>
			<path d="M82,249.2c3.4,1.3,7.6,3.4,10.3,5.7l-2.1-5.7l2.1-5.7C89.6,245.7,85.4,247.9,82,249.2z"/>
		</g>
	</g>
</g>
<g>
	<g>
		<line class="st19" x1="239.8" y1="249.2" x2="350" y2="249.2"/>
		<g>
			<path d="M232.6,249.2c3.4,1.3,7.6,3.4,10.3,5.7l-2.1-5.7l2.1-5.7C240.2,245.7,236,247.9,232.6,249.2z"/>
		</g>
	</g>
</g>
<g>
	<g>
		<line class="st19" x1="391.1" y1="249.2" x2="501.3" y2="249.2"/>
		<g>
			<path d="M383.9,249.2c3.4,1.3,7.6,3.4,10.3,5.7l-2.1-5.7l2.1-5.7C391.5,245.7,387.3,247.9,383.9,249.2z"/>
		</g>
	</g>
</g>
<line class="st21" x1="230.9" y1="249.2" x2="200.6" y2="249.2"/>
<line class="st21" x1="382" y1="249.2" x2="351.7" y2="249.2"/>
<g>
	<g>
		<line class="st19" x1="542.3" y1="249.2" x2="623.1" y2="249.2"/>
		<g>
			<path d="M535,249.2c3.4,1.3,7.6,3.4,10.3,5.7l-2.1-5.7l2.1-5.7C542.7,245.7,538.5,247.9,535,249.2z"/>
		</g>
	</g>
</g>
<line class="st21" x1="533.2" y1="249.2" x2="502.9" y2="249.2"/>
<rect x="71.3" y="80.3" class="st22" width="144.5" height="116.3"/>
<g>
	<path class="st11" d="M86.9,317.9c-2.6,0-4.7,2.1-4.7,4.7c0,2.6,2.1,4.7,4.7,4.7s4.7-2.1,4.7-4.7C91.6,320,89.5,317.9,86.9,317.9z
		 M86.9,325.7c-1.7,0-3.1-1.4-3.1-3.1c0-1.7,1.4-3.1,3.1-3.1c1.7,0,3.1,1.4,3.1,3.1C90,324.3,88.6,325.7,86.9,325.7z"/>
	<path class="st11" d="M86.9,335.1L86.9,335.1c-3.5,0-6.3-2.8-6.3-6.3v-4.7c0-0.9,0.7-1.6,1.6-1.6h9.4c0.9,0,1.6,0.7,1.6,1.6v4.7
		C93.2,332.3,90.4,335.1,86.9,335.1z"/>
	<path class="st12" d="M88.2,327.4c0-0.7-0.6-1.3-1.3-1.3s-1.3,0.6-1.3,1.3c0,0.4,0.2,0.7,0.5,1v2.7h1.6v-2.7
		C88,328.2,88.2,327.8,88.2,327.4z"/>
</g>
<g>
	<path class="st13" d="M86.9,292.4c-2.6,0-4.7,2.1-4.7,4.7c0,2.6,2.1,4.7,4.7,4.7s4.7-2.1,4.7-4.7C91.6,294.5,89.5,292.4,86.9,292.4
		z M86.9,300.3c-1.7,0-3.1-1.4-3.1-3.1s1.4-3.1,3.1-3.1c1.7,0,3.1,1.4,3.1,3.1S88.6,300.3,86.9,300.3z"/>
	<path class="st13" d="M86.9,309.6L86.9,309.6c-3.5,0-6.3-2.8-6.3-6.3v-4.7c0-0.9,0.7-1.6,1.6-1.6h9.4c0.9,0,1.6,0.7,1.6,1.6v4.7
		C93.2,306.8,90.4,309.6,86.9,309.6z"/>
	<path class="st14" d="M88.2,302c0-0.7-0.6-1.3-1.3-1.3s-1.3,0.6-1.3,1.3c0,0.4,0.2,0.7,0.5,1v2.7h1.6V303
		C88,302.8,88.2,302.4,88.2,302z"/>
</g>
<g>
	<path class="st13" d="M235.7,291.4c-2.6,0-4.7,2.1-4.7,4.7c0,2.6,2.1,4.7,4.7,4.7s4.7-2.1,4.7-4.7
		C240.4,293.5,238.3,291.4,235.7,291.4z M235.7,299.3c-1.7,0-3.1-1.4-3.1-3.1s1.4-3.1,3.1-3.1s3.1,1.4,3.1,3.1
		S237.4,299.3,235.7,299.3z"/>
	<path class="st13" d="M235.7,308.6L235.7,308.6c-3.5,0-6.3-2.8-6.3-6.3v-4.7c0-0.9,0.7-1.6,1.6-1.6h9.4c0.9,0,1.6,0.7,1.6,1.6v4.7
		C242,305.8,239.2,308.6,235.7,308.6z"/>
	<path class="st14" d="M237,301c0-0.7-0.6-1.3-1.3-1.3c-0.7,0-1.3,0.6-1.3,1.3c0,0.4,0.2,0.7,0.5,1v2.7h1.6V302
		C236.8,301.8,237,301.4,237,301z"/>
</g>
<g>
	<path class="st15" d="M86.9,265.5c-2.6,0-4.7,2.1-4.7,4.7c0,2.6,2.1,4.7,4.7,4.7s4.7-2.1,4.7-4.7C91.6,267.6,89.5,265.5,86.9,265.5
		z M86.9,273.3c-1.7,0-3.1-1.4-3.1-3.1s1.4-3.1,3.1-3.1c1.7,0,3.1,1.4,3.1,3.1S88.6,273.3,86.9,273.3z"/>
	<path class="st15" d="M86.9,282.6L86.9,282.6c-3.5,0-6.3-2.8-6.3-6.3v-4.7c0-0.9,0.7-1.6,1.6-1.6h9.4c0.9,0,1.6,0.7,1.6,1.6v4.7
		C93.2,279.9,90.4,282.6,86.9,282.6z"/>
	<path class="st16" d="M88.2,275c0-0.7-0.6-1.3-1.3-1.3s-1.3,0.6-1.3,1.3c0,0.4,0.2,0.7,0.5,1v2.7h1.6V276
		C88,275.8,88.2,275.4,88.2,275z"/>
</g>
<g>
	<path class="st15" d="M235.7,266.2c-2.6,0-4.7,2.1-4.7,4.7c0,2.6,2.1,4.7,4.7,4.7s4.7-2.1,4.7-4.7
		C240.4,268.3,238.3,266.2,235.7,266.2z M235.7,274c-1.7,0-3.1-1.4-3.1-3.1s1.4-3.1,3.1-3.1s3.1,1.4,3.1,3.1S237.4,274,235.7,274z"
		/>
	<path class="st15" d="M235.7,283.4L235.7,283.4c-3.5,0-6.3-2.8-6.3-6.3v-4.7c0-0.9,0.7-1.6,1.6-1.6h9.4c0.9,0,1.6,0.7,1.6,1.6v4.7
		C242,280.6,239.2,283.4,235.7,283.4z"/>
	<path class="st16" d="M237,275.8c0-0.7-0.6-1.3-1.3-1.3c-0.7,0-1.3,0.6-1.3,1.3c0,0.4,0.2,0.7,0.5,1v2.7h1.6v-2.7
		C236.8,276.5,237,276.2,237,275.8z"/>
</g>
<g>
	<path class="st15" d="M390.1,266.7c-2.6,0-4.7,2.1-4.7,4.7c0,2.6,2.1,4.7,4.7,4.7c2.6,0,4.7-2.1,4.7-4.7
		C394.8,268.8,392.7,266.7,390.1,266.7z M390.1,274.6c-1.7,0-3.1-1.4-3.1-3.1s1.4-3.1,3.1-3.1c1.7,0,3.1,1.4,3.1,3.1
		S391.9,274.6,390.1,274.6z"/>
	<path class="st15" d="M390.1,283.9L390.1,283.9c-3.5,0-6.3-2.8-6.3-6.3V273c0-0.9,0.7-1.6,1.6-1.6h9.4c0.9,0,1.6,0.7,1.6,1.6v4.7
		C396.4,281.1,393.6,283.9,390.1,283.9z"/>
	<path class="st16" d="M391.4,276.3c0-0.7-0.6-1.3-1.3-1.3c-0.7,0-1.3,0.6-1.3,1.3c0,0.4,0.2,0.7,0.5,1v2.7h1.6v-2.7
		C391.2,277.1,391.4,276.7,391.4,276.3z"/>
</g>
<polyline class="st1" points="516.6,262.9 516.6,287.8 71.3,287.8 71.3,262.9 "/>
<polyline class="st1" points="71.3,235.4 71.3,231.9 516.6,231.9 516.6,235.4 "/>
<polyline class="st20" points="366.5,262.9 366.5,313.7 71.3,313.7 71.3,262.9 "/>
<polyline class="st20" points="71.3,235.4 71.3,228.6 366.5,228.6 366.5,235.4 "/>
<polyline class="st23" points="215.8,262.9 215.8,339.4 71.3,339.4 71.3,262.9 "/>
<polyline class="st24" points="71.3,235.4 71.3,225 215.8,225 215.8,235.4 "/>
<path class="st25" d="M679.4,94.6c-0.8,0-1.7,0.1-2.5,0.2c-0.8-5.6-5.7-9.9-11.5-9.9c-2.1,0-4.1,0.6-5.9,1.6
	c-2.1-2.3-5.2-3.7-8.5-3.7c-6.5,0-11.7,5.2-11.7,11.7c0,0.6,0,1.1,0.1,1.7c-0.1,0-0.1,0-0.2,0c-6.3,0-11.3,5.1-11.3,11.3
	c0,6.3,5.1,11.3,11.3,11.3c0.1,0,0.3,0,0.4,0c1.2,4.2,5,7.3,9.6,7.3c2.7,0,5.1-1.1,6.9-2.8c2,2.4,5,4,8.3,4c4.5,0,8.3-2.8,9.9-6.7
	c1.5,0.6,3.2,0.9,5,0.9c7.5,0,13.5-6.1,13.5-13.5C693,100.7,686.9,94.6,679.4,94.6z"/>
<g>
	<path d="M636.1,108.3c0,0.8,0,1.2,0.3,1.2c0.1,0,0.3-0.1,0.4-0.1c0.1,0,0.1,0.3,0,0.3c-0.4,0.1-1.1,0.2-1.4,0.3
		c-0.1,0-0.1,0-0.1-0.1v-0.2c0-0.2,0-0.3,0-0.3h0c-0.5,0.3-0.8,0.5-1.3,0.5c-1.2,0-1.9-0.9-1.9-2c0-1.5,1.1-2.4,2.5-2.4
		c0.4,0,0.6,0.1,0.7,0.1c0.1,0,0.1-0.1,0.1-0.1V104c0-0.6,0-0.7-0.3-0.9l-0.1-0.1c-0.1,0-0.1-0.2,0-0.2c0.3-0.1,0.8-0.2,1.1-0.4
		c0,0,0.1,0,0.1,0.1c0,0.3,0,0.8,0,1.3V108.3z M635.3,106.8c0-0.2,0-0.3-0.1-0.4c-0.2-0.2-0.5-0.4-0.9-0.4c-0.9,0-1.4,0.8-1.4,1.7
		c0,0.9,0.5,1.8,1.6,1.8c0.3,0,0.6-0.1,0.8-0.3c0.1-0.1,0.1-0.2,0.1-0.4V106.8z"/>
	<path d="M638,106.9c0-0.4,0-0.5-0.3-0.6l-0.1-0.1c0,0,0-0.2,0-0.2c0.2-0.1,0.8-0.4,1.1-0.5c0.1,0,0.1,0,0.1,0.1c0,0.4,0,0.9,0,1.3
		v1.9c0,0.8,0,0.9,0.4,0.9l0.2,0c0.1,0.1,0.1,0.2,0,0.3c-0.3,0-0.6,0-1,0c-0.4,0-0.7,0-1,0c-0.1,0-0.1-0.2,0-0.3l0.2,0
		c0.4-0.1,0.4-0.2,0.4-0.9V106.9z M638.9,103.9c0,0.4-0.3,0.5-0.6,0.5c-0.3,0-0.5-0.2-0.5-0.5c0-0.3,0.2-0.6,0.6-0.6
		S638.9,103.6,638.9,103.9z"/>
	<path d="M642.5,105.8c0.1,0.2,0.2,0.6,0.2,0.8c0,0.1-0.2,0.1-0.2,0c-0.2-0.5-0.5-0.8-0.9-0.8c-0.4,0-0.7,0.3-0.7,0.6
		c0,0.4,0.4,0.7,0.8,0.9c0.6,0.3,1.1,0.7,1.1,1.4c0,0.8-0.7,1.2-1.5,1.2c-0.5,0-0.9-0.1-1.1-0.3c-0.1-0.2-0.1-0.7-0.1-1.1
		c0.1-0.1,0.2-0.1,0.2,0c0.2,0.6,0.5,1.1,1.1,1.1c0.4,0,0.7-0.2,0.7-0.7c0-0.5-0.4-0.7-0.8-1c-0.6-0.3-1-0.7-1-1.3
		c0-0.8,0.6-1.2,1.4-1.2C642,105.6,642.4,105.7,642.5,105.8z"/>
	<path d="M644,106.9c0-0.4,0-0.5-0.3-0.6l-0.1-0.1c0,0,0-0.2,0-0.2c0.2-0.1,0.8-0.4,1.1-0.5c0.1,0,0.1,0,0.1,0.1v0.6
		c0,0.1,0,0.1,0,0.1c0.4-0.3,0.8-0.6,1.1-0.6c0.3,0,0.5,0.2,0.5,0.4c0,0.3-0.3,0.5-0.4,0.5c-0.1,0-0.2,0-0.2-0.1
		c-0.2-0.1-0.3-0.2-0.5-0.2c-0.2,0-0.3,0.1-0.4,0.2c-0.1,0.1-0.1,0.4-0.1,0.8v1.4c0,0.8,0,0.9,0.4,0.9l0.4,0c0.1,0.1,0.1,0.2,0,0.3
		c-0.5,0-0.8,0-1.2,0c-0.4,0-0.7,0-1,0c-0.1,0-0.1-0.2,0-0.3l0.2,0c0.4-0.1,0.4-0.2,0.4-0.9V106.9z"/>
	<path d="M648.2,108.3c0,0.7,0.2,1.2,1,1.2c0.3,0,0.6-0.1,0.8-0.3c0.1-0.1,0.2-0.3,0.2-0.6v-1.7c0-0.7-0.1-0.7-0.4-0.8l-0.1-0.1
		c-0.1,0-0.1-0.2,0-0.2c0.4,0,1-0.1,1.2-0.2c0.1,0,0.1,0,0.1,0.1c0,0.2,0,0.5,0,0.9v1.8c0,0.8,0,1.1,0.3,1.1c0.1,0,0.3,0,0.4-0.1
		c0.1,0.1,0.1,0.3,0,0.3c-0.4,0.1-1,0.2-1.4,0.4c-0.1,0-0.1,0-0.1-0.1v-0.4c0-0.1,0-0.1-0.1-0.1c-0.3,0.2-0.8,0.5-1.4,0.5
		c-0.9,0-1.3-0.5-1.3-1.3V107c0-0.7,0-0.8-0.3-0.9L647,106c-0.1-0.1-0.1-0.2,0-0.2c0.5,0,0.9-0.1,1.1-0.2c0.1,0,0.1,0,0.1,0.1
		c0,0.2,0,0.4,0,0.9V108.3z"/>
	<path d="M652.8,106.9c0-0.4,0-0.5-0.3-0.6l-0.1-0.1c0,0,0-0.2,0-0.2c0.3-0.1,0.8-0.4,1-0.6c0.1,0,0.1,0,0.1,0.1c0,0.2,0,0.3,0,0.5
		c0,0.1,0,0.1,0.1,0.1c0.1-0.1,0.8-0.5,1.5-0.5c1.1,0,1.7,0.9,1.7,1.9c0,1.4-1.1,2.5-2.5,2.5c-0.2,0-0.5,0-0.6,0
		c-0.1,0-0.1,0.1-0.1,0.3v1.1c0,0.7,0,0.8,0.4,0.9l0.4,0.1c0.1,0.1,0.1,0.2,0,0.3c-0.5,0-0.8,0-1.2,0c-0.4,0-0.7,0-1,0
		c-0.1,0-0.1-0.2,0-0.3l0.2,0c0.4-0.1,0.4-0.2,0.4-0.9V106.9z M653.6,108.8c0,0.3,0.1,0.5,0.3,0.6c0.2,0.2,0.5,0.2,0.8,0.2
		c0.9,0,1.4-0.8,1.4-1.9c0-0.8-0.5-1.7-1.4-1.7c-0.4,0-0.8,0.2-0.9,0.3c-0.1,0.1-0.1,0.3-0.1,0.6V108.8z"/>
	<path d="M659.1,106.2c-0.2,0-0.2,0-0.2,0.2v1.9c0,0.6,0.1,1.2,0.8,1.2c0.1,0,0.2,0,0.3-0.1c0.1,0,0.2-0.1,0.3-0.1
		c0.1,0,0.1,0.1,0.1,0.2c-0.2,0.2-0.6,0.5-1.1,0.5c-0.9,0-1.1-0.5-1.1-1.1v-2.4c0-0.3,0-0.3-0.2-0.3h-0.3c-0.1,0-0.1-0.2,0-0.2
		c0.3-0.1,0.6-0.2,0.7-0.3c0.1-0.1,0.3-0.4,0.4-0.6c0.1,0,0.2,0,0.2,0.1v0.5c0,0.2,0,0.2,0.2,0.2h1.2c0.1,0.1,0.1,0.4,0,0.4H659.1z"
		/>
	<path d="M661.4,106.9c0-0.4,0-0.5-0.3-0.6l-0.1-0.1c0,0,0-0.2,0-0.2c0.2-0.1,0.8-0.4,1.1-0.5c0.1,0,0.1,0,0.1,0.1
		c0,0.4,0,0.9,0,1.3v2.5c0,0.8-0.1,1.3-0.2,1.6c-0.3,0.8-0.9,1.3-1.6,1.7c-0.1,0-0.2-0.1-0.1-0.2c0.3-0.1,0.5-0.3,0.6-0.5
		c0.4-0.4,0.6-1.2,0.6-2.5V106.9z M662.3,103.9c0,0.4-0.3,0.5-0.6,0.5c-0.3,0-0.5-0.2-0.5-0.5c0-0.3,0.2-0.6,0.6-0.6
		C662.1,103.4,662.3,103.6,662.3,103.9z"/>
	<path d="M666.3,109.2c0.5,0,0.8-0.1,1-0.2c0.2-0.2,0.3-0.3,0.3-0.4c0.1,0,0.2,0,0.2,0.1c-0.1,0.5-0.3,1.1-0.5,1.3
		c-0.4,0-0.9,0-1.3,0h-1.5c-0.6,0-0.9,0-1.2,0c0,0-0.1-0.1-0.1-0.1c0,0,0.1-0.1,0.1-0.1c0.5-0.3,0.8-0.7,1.6-1.5
		c0.7-0.7,1.5-1.8,1.5-2.9c0-0.9-0.5-1.5-1.3-1.5c-0.6,0-1.1,0.4-1.4,1c-0.1,0.1-0.2,0-0.2-0.1c0.3-0.9,1.2-1.5,2.1-1.5
		c1,0,1.7,0.7,1.7,1.7c0,0.6-0.3,1.4-1.1,2.3l-0.6,0.7c-0.9,1-0.9,1.1-0.9,1.2c0,0.1,0.1,0.1,0.3,0.1H666.3z"/>
	<path d="M673,106.6c0,1.6-0.6,3.4-2.2,3.4s-2.2-1.8-2.2-3.4c0-1.6,0.6-3.4,2.2-3.4S673,105,673,106.6z M669.6,106.6
		c0,1,0.1,3.1,1.2,3.1s1.2-2.1,1.2-3.1s-0.1-3.1-1.2-3.1S669.6,105.6,669.6,106.6z"/>
	<path d="M674.2,109.4c0-0.4,0.2-0.6,0.6-0.6c0.4,0,0.6,0.3,0.6,0.6c0,0.3-0.2,0.6-0.6,0.6C674.5,110,674.2,109.8,674.2,109.4z"/>
	<path d="M680.8,107.8c0,1.3-0.9,2.2-2.2,2.2c-1.2,0-2.1-0.8-2.1-2.1c0-1.3,1-2.3,2.2-2.3C679.8,105.6,680.8,106.5,680.8,107.8z
		 M678.5,105.9c-0.7,0-1.2,0.7-1.2,1.8c0,0.9,0.4,2,1.3,2s1.2-1,1.2-1.8C679.9,107,679.5,105.9,678.5,105.9z"/>
	<path d="M682.2,106.9c0-0.4,0-0.5-0.3-0.6l-0.1-0.1c0,0,0-0.2,0-0.2c0.2-0.1,0.8-0.4,1.1-0.5c0.1,0,0.1,0,0.1,0.1v0.6
		c0,0.1,0,0.1,0,0.1c0.4-0.3,0.8-0.6,1.1-0.6c0.3,0,0.5,0.2,0.5,0.4c0,0.3-0.3,0.5-0.4,0.5c-0.1,0-0.2,0-0.2-0.1
		c-0.2-0.1-0.3-0.2-0.5-0.2c-0.2,0-0.3,0.1-0.4,0.2c-0.1,0.1-0.1,0.4-0.1,0.8v1.4c0,0.8,0,0.9,0.4,0.9l0.4,0c0.1,0.1,0.1,0.2,0,0.3
		c-0.5,0-0.8,0-1.2,0c-0.4,0-0.7,0-1,0c-0.1,0-0.1-0.2,0-0.3l0.2,0c0.4-0.1,0.4-0.2,0.4-0.9V106.9z"/>
	<path d="M689.2,106c0.1,0.1,0.1,0.4-0.1,0.4h-0.8c0,0.2,0,0.4,0,0.5c0,0.7-0.4,1.7-1.8,1.7c-0.2,0-0.3,0-0.5,0
		c-0.1,0.1-0.5,0.3-0.5,0.6c0,0.2,0.2,0.4,0.7,0.4c0.4,0,0.8,0,1.2,0c0.6,0,1.5,0.1,1.5,1.1c0,1.1-1.2,2-2.6,2
		c-1.3,0-1.7-0.7-1.7-1.2c0-0.2,0-0.3,0.1-0.4c0.2-0.2,0.5-0.5,0.7-0.7c0.1-0.1,0.2-0.2,0.1-0.2c-0.4-0.1-0.8-0.5-0.8-0.8
		c0-0.1,0-0.1,0.2-0.2c0.2-0.1,0.4-0.3,0.6-0.5c0.1-0.1,0.1-0.1,0.1-0.2c-0.4-0.2-0.8-0.6-0.8-1.3c0-0.9,0.8-1.6,1.7-1.6
		c0.4,0,0.8,0.1,1,0.2c0.3,0.1,0.4,0.2,0.6,0.2H689.2z M687.1,110.2c-0.3,0-0.8,0-0.9,0.1c-0.2,0.2-0.5,0.5-0.5,0.9
		c0,0.6,0.4,1,1.4,1c0.9,0,1.5-0.5,1.5-1.1c0-0.6-0.4-0.9-1.2-0.9H687.1z M687.7,107.2c0-0.7-0.3-1.3-0.9-1.3
		c-0.5,0-0.9,0.5-0.9,1.2c0,0.7,0.4,1.2,0.9,1.2C687.4,108.3,687.7,107.8,687.7,107.2z"/>
</g>
<path class="st25" d="M679.4,238.6c-0.8,0-1.7,0.1-2.5,0.2c-0.8-5.6-5.7-9.9-11.5-9.9c-2.1,0-4.1,0.6-5.9,1.6
	c-2.1-2.3-5.2-3.7-8.5-3.7c-6.5,0-11.7,5.2-11.7,11.7c0,0.6,0,1.1,0.1,1.7c-0.1,0-0.1,0-0.2,0c-6.3,0-11.3,5.1-11.3,11.3
	c0,6.3,5.1,11.3,11.3,11.3c0.1,0,0.3,0,0.4,0c1.2,4.2,5,7.3,9.6,7.3c2.7,0,5.1-1.1,6.9-2.8c2,2.4,5,4,8.3,4c4.5,0,8.3-2.8,9.9-6.7
	c1.5,0.6,3.2,0.9,5,0.9c7.5,0,13.5-6.1,13.5-13.5C693,244.7,686.9,238.6,679.4,238.6z"/>
<g>
	<path d="M636.1,252.3c0,0.8,0,1.2,0.3,1.2c0.1,0,0.3-0.1,0.4-0.1c0.1,0,0.1,0.3,0,0.3c-0.4,0.1-1.1,0.2-1.4,0.3
		c-0.1,0-0.1,0-0.1-0.1v-0.2c0-0.2,0-0.3,0-0.3h0c-0.5,0.3-0.8,0.5-1.3,0.5c-1.2,0-1.9-0.9-1.9-2c0-1.5,1.1-2.4,2.5-2.4
		c0.4,0,0.6,0.1,0.7,0.1c0.1,0,0.1-0.1,0.1-0.1V248c0-0.6,0-0.7-0.3-0.9l-0.1-0.1c-0.1,0-0.1-0.2,0-0.2c0.3-0.1,0.8-0.2,1.1-0.4
		c0,0,0.1,0,0.1,0.1c0,0.3,0,0.8,0,1.3V252.3z M635.3,250.8c0-0.2,0-0.3-0.1-0.4c-0.2-0.2-0.5-0.4-0.9-0.4c-0.9,0-1.4,0.8-1.4,1.7
		c0,0.9,0.5,1.8,1.6,1.8c0.3,0,0.6-0.1,0.8-0.3c0.1-0.1,0.1-0.2,0.1-0.4V250.8z"/>
	<path d="M638,250.9c0-0.4,0-0.5-0.3-0.6l-0.1-0.1c0,0,0-0.2,0-0.2c0.2-0.1,0.8-0.4,1.1-0.5c0.1,0,0.1,0,0.1,0.1c0,0.4,0,0.9,0,1.3
		v1.9c0,0.8,0,0.9,0.4,0.9l0.2,0c0.1,0.1,0.1,0.2,0,0.3c-0.3,0-0.6,0-1,0c-0.4,0-0.7,0-1,0c-0.1,0-0.1-0.2,0-0.3l0.2,0
		c0.4-0.1,0.4-0.2,0.4-0.9V250.9z M638.9,247.9c0,0.4-0.3,0.5-0.6,0.5c-0.3,0-0.5-0.2-0.5-0.5c0-0.3,0.2-0.6,0.6-0.6
		S638.9,247.6,638.9,247.9z"/>
	<path d="M642.5,249.8c0.1,0.2,0.2,0.6,0.2,0.8c0,0.1-0.2,0.1-0.2,0c-0.2-0.5-0.5-0.8-0.9-0.8c-0.4,0-0.7,0.3-0.7,0.6
		c0,0.4,0.4,0.7,0.8,0.9c0.6,0.3,1.1,0.7,1.1,1.4c0,0.8-0.7,1.2-1.5,1.2c-0.5,0-0.9-0.1-1.1-0.3c-0.1-0.2-0.1-0.7-0.1-1.1
		c0.1-0.1,0.2-0.1,0.2,0c0.2,0.6,0.5,1.1,1.1,1.1c0.4,0,0.7-0.2,0.7-0.7c0-0.5-0.4-0.7-0.8-1c-0.6-0.3-1-0.7-1-1.3
		c0-0.8,0.6-1.2,1.4-1.2C642,249.6,642.4,249.7,642.5,249.8z"/>
	<path d="M644,250.9c0-0.4,0-0.5-0.3-0.6l-0.1-0.1c0,0,0-0.2,0-0.2c0.2-0.1,0.8-0.4,1.1-0.5c0.1,0,0.1,0,0.1,0.1v0.6
		c0,0.1,0,0.1,0,0.1c0.4-0.3,0.8-0.6,1.1-0.6c0.3,0,0.5,0.2,0.5,0.4c0,0.3-0.3,0.5-0.4,0.5c-0.1,0-0.2,0-0.2-0.1
		c-0.2-0.1-0.3-0.2-0.5-0.2c-0.2,0-0.3,0.1-0.4,0.2c-0.1,0.1-0.1,0.4-0.1,0.8v1.4c0,0.8,0,0.9,0.4,0.9l0.4,0c0.1,0.1,0.1,0.2,0,0.3
		c-0.5,0-0.8,0-1.2,0c-0.4,0-0.7,0-1,0c-0.1,0-0.1-0.2,0-0.3l0.2,0c0.4-0.1,0.4-0.2,0.4-0.9V250.9z"/>
	<path d="M648.2,252.3c0,0.7,0.2,1.2,1,1.2c0.3,0,0.6-0.1,0.8-0.3c0.1-0.1,0.2-0.3,0.2-0.6v-1.7c0-0.7-0.1-0.7-0.4-0.8l-0.1-0.1
		c-0.1,0-0.1-0.2,0-0.2c0.4,0,1-0.1,1.2-0.2c0.1,0,0.1,0,0.1,0.1c0,0.2,0,0.5,0,0.9v1.8c0,0.8,0,1.1,0.3,1.1c0.1,0,0.3,0,0.4-0.1
		c0.1,0.1,0.1,0.3,0,0.3c-0.4,0.1-1,0.2-1.4,0.4c-0.1,0-0.1,0-0.1-0.1v-0.4c0-0.1,0-0.1-0.1-0.1c-0.3,0.2-0.8,0.5-1.4,0.5
		c-0.9,0-1.3-0.5-1.3-1.3V251c0-0.7,0-0.8-0.3-0.9L647,250c-0.1-0.1-0.1-0.2,0-0.2c0.5,0,0.9-0.1,1.1-0.2c0.1,0,0.1,0,0.1,0.1
		c0,0.2,0,0.4,0,0.9V252.3z"/>
	<path d="M652.8,250.9c0-0.4,0-0.5-0.3-0.6l-0.1-0.1c0,0,0-0.2,0-0.2c0.3-0.1,0.8-0.4,1-0.6c0.1,0,0.1,0,0.1,0.1c0,0.2,0,0.3,0,0.5
		c0,0.1,0,0.1,0.1,0.1c0.1-0.1,0.8-0.5,1.5-0.5c1.1,0,1.7,0.9,1.7,1.9c0,1.4-1.1,2.5-2.5,2.5c-0.2,0-0.5,0-0.6,0
		c-0.1,0-0.1,0.1-0.1,0.3v1.1c0,0.7,0,0.8,0.4,0.9l0.4,0.1c0.1,0.1,0.1,0.2,0,0.3c-0.5,0-0.8,0-1.2,0c-0.4,0-0.7,0-1,0
		c-0.1,0-0.1-0.2,0-0.3l0.2,0c0.4-0.1,0.4-0.2,0.4-0.9V250.9z M653.6,252.8c0,0.3,0.1,0.5,0.3,0.6c0.2,0.2,0.5,0.2,0.8,0.2
		c0.9,0,1.4-0.8,1.4-1.9c0-0.8-0.5-1.7-1.4-1.7c-0.4,0-0.8,0.2-0.9,0.3c-0.1,0.1-0.1,0.3-0.1,0.6V252.8z"/>
	<path d="M659.1,250.2c-0.2,0-0.2,0-0.2,0.2v1.9c0,0.6,0.1,1.2,0.8,1.2c0.1,0,0.2,0,0.3-0.1c0.1,0,0.2-0.1,0.3-0.1
		c0.1,0,0.1,0.1,0.1,0.2c-0.2,0.2-0.6,0.5-1.1,0.5c-0.9,0-1.1-0.5-1.1-1.1v-2.4c0-0.3,0-0.3-0.2-0.3h-0.3c-0.1,0-0.1-0.2,0-0.2
		c0.3-0.1,0.6-0.2,0.7-0.3c0.1-0.1,0.3-0.4,0.4-0.6c0.1,0,0.2,0,0.2,0.1v0.5c0,0.2,0,0.2,0.2,0.2h1.2c0.1,0.1,0.1,0.4,0,0.4H659.1z"
		/>
	<path d="M661.4,250.9c0-0.4,0-0.5-0.3-0.6l-0.1-0.1c0,0,0-0.2,0-0.2c0.2-0.1,0.8-0.4,1.1-0.5c0.1,0,0.1,0,0.1,0.1
		c0,0.4,0,0.9,0,1.3v2.5c0,0.8-0.1,1.3-0.2,1.6c-0.3,0.8-0.9,1.3-1.6,1.7c-0.1,0-0.2-0.1-0.1-0.2c0.3-0.1,0.5-0.3,0.6-0.5
		c0.4-0.4,0.6-1.2,0.6-2.5V250.9z M662.3,247.9c0,0.4-0.3,0.5-0.6,0.5c-0.3,0-0.5-0.2-0.5-0.5c0-0.3,0.2-0.6,0.6-0.6
		C662.1,247.4,662.3,247.6,662.3,247.9z"/>
	<path d="M666.3,253.2c0.5,0,0.8-0.1,1-0.2c0.2-0.2,0.3-0.3,0.3-0.4c0.1,0,0.2,0,0.2,0.1c-0.1,0.5-0.3,1.1-0.5,1.3
		c-0.4,0-0.9,0-1.3,0h-1.5c-0.6,0-0.9,0-1.2,0c0,0-0.1-0.1-0.1-0.1c0,0,0.1-0.1,0.1-0.1c0.5-0.3,0.8-0.7,1.6-1.5
		c0.7-0.7,1.5-1.8,1.5-2.9c0-0.9-0.5-1.5-1.3-1.5c-0.6,0-1.1,0.4-1.4,1c-0.1,0.1-0.2,0-0.2-0.1c0.3-0.9,1.2-1.5,2.1-1.5
		c1,0,1.7,0.7,1.7,1.7c0,0.6-0.3,1.4-1.1,2.3l-0.6,0.7c-0.9,1-0.9,1.1-0.9,1.2c0,0.1,0.1,0.1,0.3,0.1H666.3z"/>
	<path d="M673,250.6c0,1.6-0.6,3.4-2.2,3.4s-2.2-1.8-2.2-3.4c0-1.6,0.6-3.4,2.2-3.4S673,249,673,250.6z M669.6,250.6
		c0,1,0.1,3.1,1.2,3.1s1.2-2.1,1.2-3.1s-0.1-3.1-1.2-3.1S669.6,249.6,669.6,250.6z"/>
	<path d="M674.2,253.4c0-0.4,0.2-0.6,0.6-0.6c0.4,0,0.6,0.3,0.6,0.6c0,0.3-0.2,0.6-0.6,0.6C674.5,254,674.2,253.8,674.2,253.4z"/>
	<path d="M680.8,251.8c0,1.3-0.9,2.2-2.2,2.2c-1.2,0-2.1-0.8-2.1-2.1c0-1.3,1-2.3,2.2-2.3C679.8,249.6,680.8,250.5,680.8,251.8z
		 M678.5,249.9c-0.7,0-1.2,0.7-1.2,1.8c0,0.9,0.4,2,1.3,2s1.2-1,1.2-1.8C679.9,251,679.5,249.9,678.5,249.9z"/>
	<path d="M682.2,250.9c0-0.4,0-0.5-0.3-0.6l-0.1-0.1c0,0,0-0.2,0-0.2c0.2-0.1,0.8-0.4,1.1-0.5c0.1,0,0.1,0,0.1,0.1v0.6
		c0,0.1,0,0.1,0,0.1c0.4-0.3,0.8-0.6,1.1-0.6c0.3,0,0.5,0.2,0.5,0.4c0,0.3-0.3,0.5-0.4,0.5c-0.1,0-0.2,0-0.2-0.1
		c-0.2-0.1-0.3-0.2-0.5-0.2c-0.2,0-0.3,0.1-0.4,0.2c-0.1,0.1-0.1,0.4-0.1,0.8v1.4c0,0.8,0,0.9,0.4,0.9l0.4,0c0.1,0.1,0.1,0.2,0,0.3
		c-0.5,0-0.8,0-1.2,0c-0.4,0-0.7,0-1,0c-0.1,0-0.1-0.2,0-0.3l0.2,0c0.4-0.1,0.4-0.2,0.4-0.9V250.9z"/>
	<path d="M689.2,250c0.1,0.1,0.1,0.4-0.1,0.4h-0.8c0,0.2,0,0.4,0,0.5c0,0.7-0.4,1.7-1.8,1.7c-0.2,0-0.3,0-0.5,0
		c-0.1,0.1-0.5,0.3-0.5,0.6c0,0.2,0.2,0.4,0.7,0.4c0.4,0,0.8,0,1.2,0c0.6,0,1.5,0.1,1.5,1.1c0,1.1-1.2,2-2.6,2
		c-1.3,0-1.7-0.7-1.7-1.2c0-0.2,0-0.3,0.1-0.4c0.2-0.2,0.5-0.5,0.7-0.7c0.1-0.1,0.2-0.2,0.1-0.2c-0.4-0.1-0.8-0.5-0.8-0.8
		c0-0.1,0-0.1,0.2-0.2c0.2-0.1,0.4-0.3,0.6-0.5c0.1-0.1,0.1-0.1,0.1-0.2c-0.4-0.2-0.8-0.6-0.8-1.3c0-0.9,0.8-1.6,1.7-1.6
		c0.4,0,0.8,0.1,1,0.2c0.3,0.1,0.4,0.2,0.6,0.2H689.2z M687.1,254.2c-0.3,0-0.8,0-0.9,0.1c-0.2,0.2-0.5,0.5-0.5,0.9
		c0,0.6,0.4,1,1.4,1c0.9,0,1.5-0.5,1.5-1.1c0-0.6-0.4-0.9-1.2-0.9H687.1z M687.7,251.2c0-0.7-0.3-1.3-0.9-1.3
		c-0.5,0-0.9,0.5-0.9,1.2c0,0.7,0.4,1.2,0.9,1.2C687.4,252.3,687.7,251.8,687.7,251.2z"/>
</g>
<g>
	<path d="M102.3,181.7H101v-1.1l1.3-0.1v-0.1c0-1.1,0.7-2,2.2-2c0.6,0,1.1,0.1,1.5,0.3l-0.3,1.1c-0.3-0.1-0.7-0.2-1-0.2
		c-0.6,0-0.9,0.3-0.9,0.9v0.1h1.7v1.1h-1.7v3.8h-1.5V181.7z"/>
	<path d="M106.7,183.1c0-1.6,1.2-2.6,2.5-2.6c1.3,0,2.5,0.9,2.5,2.6s-1.2,2.6-2.5,2.6C107.9,185.7,106.7,184.7,106.7,183.1z
		 M110.2,183.1c0-0.9-0.3-1.4-1-1.4c-0.7,0-1,0.5-1,1.4s0.3,1.4,1,1.4C109.9,184.5,110.2,183.9,110.2,183.1z"/>
	<path d="M113.4,180.6h1.2l0.1,1.1h0c0.5-0.8,1.2-1.2,2-1.2c0.4,0,0.7,0.1,1,0.2l-0.3,1.2c-0.3-0.1-0.5-0.1-0.9-0.1
		c-0.6,0-1.2,0.3-1.7,1.2v2.6h-1.5V180.6z"/>
	<path d="M118.2,180.6h1.4l0.3,2.3c0.1,0.5,0.1,1,0.2,1.5h0c0.1-0.5,0.1-1,0.2-1.5l0.3-1.6h1.1l0.3,1.6c0.1,0.5,0.2,1,0.2,1.5h0
		c0.1-0.5,0.1-1,0.1-1.5l0.3-2.3h1.4l-0.8,5h-1.7l-0.3-1.6c-0.1-0.4-0.1-0.9-0.2-1.5h0c0,0.4-0.1,0.8-0.2,1.5l-0.3,1.6H119
		L118.2,180.6z"/>
	<path d="M124.8,184.2c0-1.1,0.9-1.7,3.3-1.8c0-0.4-0.4-0.7-1.1-0.7c-0.5,0-0.9,0.2-1.5,0.5l-0.5-1c0.7-0.4,1.5-0.7,2.3-0.7
		c1.4,0,2.2,0.7,2.2,2.2v2.8h-1.2l-0.1-0.6h0c-0.5,0.4-1.1,0.7-1.8,0.7C125.4,185.7,124.8,185,124.8,184.2z M128.1,184.1v-0.8
		c-1.5,0.1-1.9,0.4-1.9,0.8c0,0.3,0.3,0.5,0.7,0.5C127.3,184.5,127.7,184.3,128.1,184.1z"/>
	<path d="M131.4,180.6h1.2l0.1,1.1h0c0.5-0.8,1.2-1.2,2-1.2c0.4,0,0.7,0.1,1,0.2l-0.3,1.2c-0.3-0.1-0.5-0.1-0.9-0.1
		c-0.6,0-1.2,0.3-1.7,1.2v2.6h-1.5V180.6z"/>
	<path d="M136.7,183.1c0-1.6,1-2.6,2.1-2.6c0.5,0,0.9,0.2,1.2,0.5h0l-0.1-0.8v-1.7h1.5v7h-1.2l-0.1-0.5h0c-0.4,0.4-0.9,0.6-1.4,0.6
		C137.5,185.7,136.7,184.7,136.7,183.1z M140,184v-2c-0.3-0.2-0.5-0.3-0.8-0.3c-0.5,0-1,0.4-1,1.4c0,1,0.3,1.4,1,1.4
		C139.5,184.5,139.7,184.3,140,184z"/>
	<path d="M149.9,183.5v-1.7h-1.2v-1.1l1.3-0.1l0.2-1.5h1.2v1.5h2.1v1.1h-2.1v1.7c0,0.8,0.3,1,1,1c0.4,0,0.7-0.1,1-0.2l0.3,1.1
		c-0.4,0.1-1,0.3-1.6,0.3C150.5,185.7,149.9,184.8,149.9,183.5z"/>
	<path d="M154.7,183.1c0-1.6,1.2-2.6,2.5-2.6c1.3,0,2.5,0.9,2.5,2.6s-1.2,2.6-2.5,2.6C155.9,185.7,154.7,184.7,154.7,183.1z
		 M158.2,183.1c0-0.9-0.3-1.4-1-1.4c-0.7,0-1,0.5-1,1.4s0.3,1.4,1,1.4C157.9,184.5,158.2,183.9,158.2,183.1z"/>
	<path d="M167.4,180.6h1.2l0.1,1.1h0c0.5-0.8,1.2-1.2,2-1.2c0.4,0,0.7,0.1,1,0.2l-0.3,1.2c-0.3-0.1-0.5-0.1-0.9-0.1
		c-0.6,0-1.2,0.3-1.7,1.2v2.6h-1.5V180.6z"/>
	<path d="M172.7,183.1c0-1.6,1.2-2.6,2.6-2.6c1.5,0,2.3,1,2.3,2.4c0,0.3,0,0.5-0.1,0.7h-3.4c0.1,0.7,0.7,1,1.5,1
		c0.4,0,0.8-0.1,1.3-0.4l0.5,0.9c-0.6,0.4-1.3,0.6-2,0.6C173.9,185.7,172.7,184.7,172.7,183.1z M174.2,182.5h2.1
		c-0.1-0.6-0.4-0.9-1-0.9C174.8,181.6,174.4,181.9,174.2,182.5z"/>
	<path d="M180.3,183.6v-3.9h-1.4v-1.2h2.9v5.1c0,0.6,0.4,0.8,0.8,0.8c0.2,0,0.5,0,0.8-0.2l0.3,1.1c-0.5,0.2-0.9,0.3-1.5,0.3
		C180.9,185.7,180.3,184.9,180.3,183.6z"/>
	<path d="M184.8,184.2c0-1.1,0.9-1.7,3.3-1.8c0-0.4-0.4-0.7-1.1-0.7c-0.5,0-0.9,0.2-1.5,0.5l-0.5-1c0.7-0.4,1.5-0.7,2.3-0.7
		c1.4,0,2.2,0.7,2.2,2.2v2.8h-1.2l-0.1-0.6h0c-0.5,0.4-1.1,0.7-1.8,0.7C185.4,185.7,184.8,185,184.8,184.2z M188.1,184.1v-0.8
		c-1.5,0.1-1.9,0.4-1.9,0.8c0,0.3,0.3,0.5,0.7,0.5C187.3,184.5,187.7,184.3,188.1,184.1z"/>
	<path d="M190.9,187.4l0.3-1.1c0.1,0,0.3,0.1,0.4,0.1c0.6,0,0.9-0.3,1-0.6l0.1-0.3l-2.1-4.8h1.5l0.8,2.1c0.2,0.5,0.3,1,0.5,1.5h0
		c0.1-0.5,0.3-1,0.4-1.5l0.7-2.1h1.4l-2,5c-0.5,1.2-1.1,1.9-2.3,1.9C191.3,187.5,191.1,187.4,190.9,187.4z"/>
</g>
<g>
	<path d="M253.4,156h-1.3v-1.1l1.3-0.1v-0.1c0-1.1,0.7-2,2.2-2c0.6,0,1.1,0.1,1.5,0.3l-0.3,1.1c-0.3-0.1-0.7-0.2-1-0.2
		c-0.6,0-0.9,0.3-0.9,0.9v0.1h1.7v1.1h-1.7v3.8h-1.5V156z"/>
	<path d="M257.7,157.3c0-1.6,1.2-2.6,2.5-2.6c1.3,0,2.5,0.9,2.5,2.6s-1.2,2.6-2.5,2.6C258.9,159.9,257.7,159,257.7,157.3z
		 M261.3,157.3c0-0.9-0.3-1.4-1-1.4s-1,0.5-1,1.4s0.3,1.4,1,1.4S261.3,158.2,261.3,157.3z"/>
	<path d="M264.4,154.8h1.2l0.1,1.1h0c0.5-0.8,1.2-1.2,2-1.2c0.4,0,0.7,0.1,1,0.2l-0.3,1.2c-0.3-0.1-0.5-0.1-0.9-0.1
		c-0.6,0-1.2,0.3-1.7,1.2v2.6h-1.5V154.8z"/>
	<path d="M269.3,154.8h1.4l0.3,2.3c0.1,0.5,0.1,1,0.2,1.5h0c0.1-0.5,0.1-1,0.2-1.5l0.3-1.6h1.1l0.3,1.6c0.1,0.5,0.2,1,0.2,1.5h0
		c0.1-0.5,0.1-1,0.1-1.5l0.3-2.3h1.4l-0.8,5h-1.7l-0.3-1.6c-0.1-0.4-0.1-0.9-0.2-1.5h0c0,0.4-0.1,0.8-0.2,1.5l-0.3,1.6h-1.7
		L269.3,154.8z"/>
	<path d="M275.8,158.4c0-1.1,0.9-1.7,3.3-1.8c0-0.4-0.4-0.7-1.1-0.7c-0.5,0-0.9,0.2-1.5,0.5l-0.5-1c0.7-0.4,1.5-0.7,2.3-0.7
		c1.4,0,2.2,0.7,2.2,2.2v2.8h-1.2l-0.1-0.6h0c-0.5,0.4-1.1,0.7-1.8,0.7C276.5,159.9,275.8,159.2,275.8,158.4z M279.1,158.3v-0.8
		c-1.5,0.1-1.9,0.4-1.9,0.8c0,0.3,0.3,0.5,0.7,0.5C278.4,158.8,278.8,158.6,279.1,158.3z"/>
	<path d="M282.4,154.8h1.2l0.1,1.1h0c0.5-0.8,1.2-1.2,2-1.2c0.4,0,0.7,0.1,1,0.2l-0.3,1.2c-0.3-0.1-0.5-0.1-0.9-0.1
		c-0.6,0-1.2,0.3-1.7,1.2v2.6h-1.5V154.8z"/>
	<path d="M287.7,157.3c0-1.6,1-2.6,2.1-2.6c0.5,0,0.9,0.2,1.2,0.5h0l-0.1-0.8v-1.7h1.5v7h-1.2l-0.1-0.5h0c-0.4,0.4-0.9,0.6-1.4,0.6
		C288.5,159.9,287.7,158.9,287.7,157.3z M291,158.2v-2c-0.3-0.2-0.5-0.3-0.8-0.3c-0.5,0-1,0.4-1,1.4c0,1,0.3,1.4,1,1.4
		C290.5,158.7,290.8,158.6,291,158.2z"/>
	<path d="M301,157.7V156h-1.2v-1.1l1.3-0.1l0.2-1.5h1.2v1.5h2.1v1.1h-2.1v1.7c0,0.8,0.3,1,1,1c0.4,0,0.7-0.1,1-0.2l0.3,1.1
		c-0.4,0.1-1,0.3-1.6,0.3C301.5,159.9,301,159,301,157.7z"/>
	<path d="M305.7,157.3c0-1.6,1.2-2.6,2.5-2.6c1.3,0,2.5,0.9,2.5,2.6s-1.2,2.6-2.5,2.6C306.9,159.9,305.7,159,305.7,157.3z
		 M309.2,157.3c0-0.9-0.3-1.4-1-1.4s-1,0.5-1,1.4s0.3,1.4,1,1.4S309.2,158.2,309.2,157.3z"/>
	<path d="M317.8,157.3c0-1.6,1.2-2.6,2.6-2.6c1.5,0,2.3,1,2.3,2.4c0,0.3,0,0.5-0.1,0.7h-3.4c0.1,0.7,0.7,1,1.5,1
		c0.4,0,0.8-0.1,1.3-0.4l0.5,0.9c-0.6,0.4-1.3,0.6-2,0.6C319,159.9,317.8,159,317.8,157.3z M319.3,156.8h2.1c-0.1-0.6-0.4-0.9-1-0.9
		C319.8,155.8,319.4,156.1,319.3,156.8z"/>
	<path d="M325.3,157.2l-1.6-2.4h1.6l0.5,0.8c0.1,0.3,0.4,0.6,0.5,0.8h0c0.1-0.3,0.3-0.6,0.4-0.8l0.4-0.8h1.5l-1.6,2.5l1.7,2.4h-1.6
		l-0.6-0.8c-0.2-0.3-0.4-0.6-0.6-0.9h0c-0.1,0.3-0.3,0.6-0.5,0.9l-0.5,0.8h-1.5L325.3,157.2z"/>
	<path d="M332,156h-2v-1.1h3.5v5H332V156z M331.7,153.2c0-0.5,0.4-0.9,1-0.9c0.6,0,1,0.4,1,0.9c0,0.5-0.4,0.9-1,0.9
		C332.1,154,331.7,153.7,331.7,153.2z"/>
	<path d="M337,157.7V156h-1.2v-1.1l1.3-0.1l0.2-1.5h1.2v1.5h2.1v1.1h-2.1v1.7c0,0.8,0.3,1,1,1c0.4,0,0.7-0.1,1-0.2l0.3,1.1
		c-0.4,0.1-1,0.3-1.6,0.3C337.5,159.9,337,159,337,157.7z"/>
</g>
<g>
	<path d="M405.3,130.2H404v-1.1l1.3-0.1v-0.1c0-1.1,0.7-2,2.2-2c0.6,0,1.1,0.1,1.5,0.3l-0.3,1.1c-0.3-0.1-0.7-0.2-1-0.2
		c-0.6,0-0.9,0.3-0.9,0.9v0.1h1.7v1.1h-1.7v3.8h-1.5V130.2z"/>
	<path d="M409.6,131.5c0-1.6,1.2-2.6,2.5-2.6s2.5,0.9,2.5,2.6s-1.2,2.6-2.5,2.6S409.6,133.2,409.6,131.5z M413.2,131.5
		c0-0.9-0.3-1.4-1-1.4s-1,0.5-1,1.4s0.3,1.4,1,1.4S413.2,132.4,413.2,131.5z"/>
	<path d="M416.3,129h1.2l0.1,1.1h0c0.5-0.8,1.2-1.2,2-1.2c0.4,0,0.7,0.1,1,0.2l-0.3,1.2c-0.3-0.1-0.5-0.1-0.9-0.1
		c-0.6,0-1.2,0.3-1.7,1.2v2.6h-1.5V129z"/>
	<path d="M421.2,129h1.4l0.3,2.3c0.1,0.5,0.1,1,0.2,1.5h0c0.1-0.5,0.1-1,0.2-1.5l0.3-1.6h1.1l0.3,1.6c0.1,0.5,0.2,1,0.2,1.5h0
		c0.1-0.5,0.1-1,0.1-1.5l0.3-2.3h1.4l-0.8,5h-1.7l-0.3-1.6c-0.1-0.4-0.1-0.9-0.2-1.5h0c0,0.4-0.1,0.8-0.2,1.5l-0.3,1.6H422
		L421.2,129z"/>
	<path d="M427.8,132.6c0-1.1,0.9-1.7,3.3-1.8c0-0.4-0.4-0.7-1.1-0.7c-0.5,0-0.9,0.2-1.5,0.5l-0.5-1c0.7-0.4,1.5-0.7,2.3-0.7
		c1.4,0,2.2,0.7,2.2,2.2v2.8h-1.2l-0.1-0.6h0c-0.5,0.4-1.1,0.7-1.8,0.7C428.4,134.1,427.8,133.5,427.8,132.6z M431.1,132.5v-0.8
		c-1.5,0.1-1.9,0.4-1.9,0.8c0,0.3,0.3,0.5,0.7,0.5C430.3,133,430.7,132.8,431.1,132.5z"/>
	<path d="M434.3,129h1.2l0.1,1.1h0c0.5-0.8,1.2-1.2,2-1.2c0.4,0,0.7,0.1,1,0.2l-0.3,1.2c-0.3-0.1-0.5-0.1-0.9-0.1
		c-0.6,0-1.2,0.3-1.7,1.2v2.6h-1.5V129z"/>
	<path d="M439.6,131.5c0-1.6,1-2.6,2.1-2.6c0.5,0,0.9,0.2,1.2,0.5h0l-0.1-0.8V127h1.5v7h-1.2l-0.1-0.5h0c-0.4,0.4-0.9,0.6-1.4,0.6
		C440.5,134.1,439.6,133.1,439.6,131.5z M443,132.5v-2c-0.3-0.2-0.5-0.3-0.8-0.3c-0.5,0-1,0.4-1,1.4c0,1,0.4,1.4,1,1.4
		C442.4,132.9,442.7,132.8,443,132.5z"/>
	<path d="M452.9,131.9v-1.7h-1.2v-1.1l1.3-0.1l0.2-1.5h1.2v1.5h2.1v1.1h-2.1v1.7c0,0.8,0.3,1,1,1c0.4,0,0.7-0.1,1-0.2l0.3,1.1
		c-0.4,0.1-1,0.3-1.6,0.3C453.5,134.1,452.9,133.2,452.9,131.9z"/>
	<path d="M457.6,131.5c0-1.6,1.2-2.6,2.5-2.6c1.3,0,2.5,0.9,2.5,2.6s-1.2,2.6-2.5,2.6C458.9,134.1,457.6,133.2,457.6,131.5z
		 M461.2,131.5c0-0.9-0.3-1.4-1-1.4s-1,0.5-1,1.4s0.3,1.4,1,1.4S461.2,132.4,461.2,131.5z"/>
	<path d="M469.6,131.5c0-1.6,1-2.6,2.1-2.6c0.5,0,0.9,0.2,1.2,0.5h0l-0.1-0.8V127h1.5v7h-1.2l-0.1-0.5h0c-0.4,0.4-0.9,0.6-1.4,0.6
		C470.5,134.1,469.6,133.1,469.6,131.5z M473,132.5v-2c-0.3-0.2-0.5-0.3-0.8-0.3c-0.5,0-1,0.4-1,1.4c0,1,0.4,1.4,1,1.4
		C472.4,132.9,472.7,132.8,473,132.5z"/>
	<path d="M475.6,135.6l0.4-1c0.4,0.2,0.7,0.2,1,0.2c0.7,0,0.9-0.3,0.9-1v-3.6h-2V129h3.5v4.7c0,1.2-0.5,2.3-2.3,2.3
		C476.5,135.9,476,135.8,475.6,135.6z M477.6,127.4c0-0.5,0.4-0.9,1-0.9c0.6,0,1,0.4,1,0.9c0,0.5-0.4,0.9-1,0.9
		C478.1,128.3,477.6,127.9,477.6,127.4z"/>
	<path d="M481.8,133.2c1.8-1.5,3-2.6,3-3.5c0-0.6-0.4-1-1-1c-0.5,0-0.9,0.3-1.3,0.7l-0.8-0.8c0.7-0.7,1.3-1,2.3-1
		c1.3,0,2.2,0.8,2.2,2c0,1.1-1.1,2.2-2.3,3.3c0.4,0,0.8-0.1,1.1-0.1h1.5v1.2h-4.8V133.2z"/>
	<path d="M487.7,130.8c0-2.2,1-3.3,2.4-3.3c1.5,0,2.4,1.1,2.4,3.3c0,2.1-1,3.3-2.4,3.3C488.7,134.1,487.7,132.9,487.7,130.8z
		 M491.3,130.8c0-1.6-0.5-2.1-1.1-2.1c-0.6,0-1.1,0.5-1.1,2.1s0.5,2.2,1.1,2.2C490.8,133,491.3,132.4,491.3,130.8z M489.4,130.8
		c0-0.5,0.3-0.8,0.7-0.8s0.8,0.3,0.8,0.8c0,0.5-0.3,0.8-0.8,0.8S489.4,131.2,489.4,130.8z"/>
</g>
<g>
	<path class="st11" d="M233,177.3c0-1.7-1.4-3.1-3.1-3.1s-3.1,1.3-3.1,3.1l0,1l-0.5,0.5l0.5,0.5l0,0.2l-1.5,0l0-2.4
		c0-2.4,2.1-4.5,4.6-4.6c2.6,0,4.7,2,4.7,4.6l0,3.9H233L233,177.3z"/>
	<path class="st11" d="M235.8,191L235.8,191c-3.4,0-6.2-2.8-6.2-6.2v-4.6c0-0.9,0.7-1.5,1.5-1.5h9.3c0.9,0,1.5,0.7,1.5,1.5v4.6
		C242,188.2,239.2,191,235.8,191z"/>
	<path class="st12" d="M237,183.5c0-0.7-0.6-1.2-1.2-1.2s-1.2,0.6-1.2,1.2c0,0.4,0.2,0.7,0.5,1v2.7h1.5v-2.7
		C236.8,184.2,237,183.9,237,183.5z"/>
</g>
<g class="st26">
	<path class="st11" d="M385.3,177.3c0-1.7-1.4-3.1-3.1-3.1c-1.7,0-3.1,1.3-3.1,3.1l0,1l-0.5,0.5l0.5,0.5l0,0.2l-1.5,0l0-2.4
		c0-2.4,2.1-4.5,4.6-4.6c2.6,0,4.7,2,4.7,4.6l0,3.9h-1.5L385.3,177.3z"/>
	<path class="st11" d="M388.1,191L388.1,191c-3.4,0-6.2-2.8-6.2-6.2v-4.6c0-0.9,0.7-1.5,1.5-1.5h9.3c0.9,0,1.5,0.7,1.5,1.5v4.6
		C394.3,188.2,391.5,191,388.1,191z"/>
	<path class="st12" d="M389.3,183.5c0-0.7-0.6-1.2-1.2-1.2c-0.7,0-1.2,0.6-1.2,1.2c0,0.4,0.2,0.7,0.5,1v2.7h1.5v-2.7
		C389.1,184.2,389.3,183.9,389.3,183.5z"/>
</g>
<g>
	<path class="st13" d="M385.3,152.4c0-1.7-1.4-3.1-3.1-3.1c-1.7,0-3.1,1.3-3.1,3.1l0,1l-0.5,0.5l0.5,0.5l0,0.2l-1.5,0l0-2.4
		c0-2.4,2.1-4.5,4.6-4.6c2.6,0,4.7,2,4.7,4.6l0,3.9h-1.5L385.3,152.4z"/>
	<path class="st13" d="M388.1,166.1L388.1,166.1c-3.4,0-6.2-2.8-6.2-6.2v-4.6c0-0.9,0.7-1.5,1.5-1.5h9.3c0.9,0,1.5,0.7,1.5,1.5v4.6
		C394.3,163.3,391.5,166.1,388.1,166.1z"/>
	<path class="st14" d="M389.3,158.5c0-0.7-0.6-1.2-1.2-1.2c-0.7,0-1.2,0.6-1.2,1.2c0,0.4,0.2,0.7,0.5,1v2.7h1.5v-2.7
		C389.1,159.3,389.3,158.9,389.3,158.5z"/>
</g>
<g class="st26">
	<path class="st11" d="M534.4,177.3c0-1.7-1.4-3.1-3.1-3.1s-3.1,1.3-3.1,3.1l0,1l-0.5,0.5l0.5,0.5l0,0.2l-1.5,0l0-2.4
		c0-2.4,2.1-4.5,4.6-4.6c2.6,0,4.7,2,4.7,4.6l0,3.9h-1.5L534.4,177.3z"/>
	<path class="st11" d="M537.2,191L537.2,191c-3.4,0-6.2-2.8-6.2-6.2v-4.6c0-0.9,0.7-1.5,1.5-1.5h9.3c0.9,0,1.5,0.7,1.5,1.5v4.6
		C543.4,188.2,540.6,191,537.2,191z"/>
	<path class="st12" d="M538.5,183.5c0-0.7-0.6-1.2-1.2-1.2s-1.2,0.6-1.2,1.2c0,0.4,0.2,0.7,0.5,1v2.7h1.5v-2.7
		C538.3,184.2,538.5,183.9,538.5,183.5z"/>
</g>
<g class="st26">
	<path class="st13" d="M534.4,152.4c0-1.7-1.4-3.1-3.1-3.1s-3.1,1.3-3.1,3.1l0,1l-0.5,0.5l0.5,0.5l0,0.2l-1.5,0l0-2.4
		c0-2.4,2.1-4.5,4.6-4.6c2.6,0,4.7,2,4.7,4.6l0,3.9h-1.5L534.4,152.4z"/>
	<path class="st13" d="M537.2,166.1L537.2,166.1c-3.4,0-6.2-2.8-6.2-6.2v-4.6c0-0.9,0.7-1.5,1.5-1.5h9.3c0.9,0,1.5,0.7,1.5,1.5v4.6
		C543.4,163.3,540.6,166.1,537.2,166.1z"/>
	<path class="st14" d="M538.5,158.5c0-0.7-0.6-1.2-1.2-1.2s-1.2,0.6-1.2,1.2c0,0.4,0.2,0.7,0.5,1v2.7h1.5v-2.7
		C538.3,159.3,538.5,158.9,538.5,158.5z"/>
</g>
<g>
	<path class="st15" d="M534.4,126.4c0-1.7-1.4-3.1-3.1-3.1c-1.7,0-3.1,1.3-3.1,3.1l0,1l-0.5,0.5l0.5,0.5l0,0.2l-1.5,0l0-2.4
		c0-2.4,2.1-4.5,4.6-4.6c2.6,0,4.7,2,4.7,4.6l0,3.9h-1.5L534.4,126.4z"/>
	<path class="st15" d="M537.2,140.1L537.2,140.1c-3.4,0-6.2-2.8-6.2-6.2v-4.6c0-0.9,0.7-1.5,1.5-1.5h9.3c0.9,0,1.5,0.7,1.5,1.5v4.6
		C543.4,137.3,540.6,140.1,537.2,140.1z"/>
	<path class="st16" d="M538.5,132.6c0-0.7-0.6-1.2-1.2-1.2s-1.2,0.6-1.2,1.2c0,0.4,0.2,0.7,0.5,1v2.7h1.5v-2.7
		C538.3,133.3,538.5,133,538.5,132.6z"/>
</g>
<g class="st26">
	<path class="st11" d="M534.4,322.9c0-1.7-1.4-3.1-3.1-3.1c-1.7,0-3.1,1.3-3.1,3.1l0,1l-0.5,0.5l0.5,0.5l0,0.2l-1.5,0l0-2.4
		c0-2.4,2.1-4.5,4.6-4.6c2.6,0,4.7,2,4.7,4.6l0,3.9h-1.5L534.4,322.9z"/>
	<path class="st11" d="M537.2,336.6L537.2,336.6c-3.4,0-6.2-2.8-6.2-6.2v-4.6c0-0.9,0.7-1.5,1.5-1.5h9.3c0.9,0,1.5,0.7,1.5,1.5v4.6
		C543.4,333.8,540.6,336.6,537.2,336.6z"/>
	<path class="st12" d="M538.5,329c0-0.7-0.6-1.2-1.2-1.2s-1.2,0.6-1.2,1.2c0,0.4,0.2,0.7,0.5,1v2.7h1.5V330
		C538.3,329.8,538.5,329.4,538.5,329z"/>
</g>
<g class="st26">
	<path class="st13" d="M534.4,297.9c0-1.7-1.4-3.1-3.1-3.1c-1.7,0-3.1,1.3-3.1,3.1l0,1l-0.5,0.5l0.5,0.5l0,0.2l-1.5,0l0-2.4
		c0-2.4,2.1-4.5,4.6-4.6c2.6,0,4.7,2,4.7,4.6l0,3.9h-1.5L534.4,297.9z"/>
	<path class="st13" d="M537.2,311.6L537.2,311.6c-3.4,0-6.2-2.8-6.2-6.2v-4.6c0-0.9,0.7-1.5,1.5-1.5h9.3c0.9,0,1.5,0.7,1.5,1.5v4.6
		C543.4,308.8,540.6,311.6,537.2,311.6z"/>
	<path class="st14" d="M538.5,304.1c0-0.7-0.6-1.2-1.2-1.2s-1.2,0.6-1.2,1.2c0,0.4,0.2,0.7,0.5,1v2.7h1.5V305
		C538.3,304.8,538.5,304.5,538.5,304.1z"/>
</g>
<g>
	<path class="st15" d="M534.4,272c0-1.7-1.4-3.1-3.1-3.1c-1.7,0-3.1,1.3-3.1,3.1l0,1l-0.5,0.5l0.5,0.5l0,0.2l-1.5,0l0-2.4
		c0-2.4,2.1-4.5,4.6-4.6c2.6,0,4.7,2,4.7,4.6l0,3.9h-1.5L534.4,272z"/>
	<path class="st15" d="M537.2,285.7L537.2,285.7c-3.4,0-6.2-2.8-6.2-6.2v-4.6c0-0.9,0.7-1.5,1.5-1.5h9.3c0.9,0,1.5,0.7,1.5,1.5v4.6
		C543.4,282.9,540.6,285.7,537.2,285.7z"/>
	<path class="st16" d="M538.5,278.1c0-0.7-0.6-1.2-1.2-1.2s-1.2,0.6-1.2,1.2c0,0.4,0.2,0.7,0.5,1v2.7h1.5v-2.7
		C538.3,278.9,538.5,278.5,538.5,278.1z"/>
</g>
<g>
	<path class="st11" d="M233,323c0-1.7-1.4-3.1-3.1-3.1c-1.7,0-3.1,1.3-3.1,3.1l0,1l-0.5,0.5l0.5,0.5l0,0.2l-1.5,0l0-2.4
		c0-2.4,2.1-4.5,4.6-4.6c2.6,0,4.7,2,4.7,4.6l0,3.9H233L233,323z"/>
	<path class="st11" d="M235.8,336.7L235.8,336.7c-3.4,0-6.2-2.8-6.2-6.2v-4.6c0-0.9,0.7-1.5,1.5-1.5h9.3c0.9,0,1.5,0.7,1.5,1.5v4.6
		C242,333.9,239.2,336.7,235.8,336.7z"/>
	<path class="st12" d="M237,329.1c0-0.7-0.6-1.2-1.2-1.2s-1.2,0.6-1.2,1.2c0,0.4,0.2,0.7,0.5,1v2.7h1.5v-2.7
		C236.8,329.9,237,329.5,237,329.1z"/>
</g>
<g class="st26">
	<path class="st11" d="M387.8,323c0-1.7-1.4-3.1-3.1-3.1c-1.7,0-3.1,1.3-3.1,3.1l0,1l-0.5,0.5l0.5,0.5l0,0.2l-1.5,0l0-2.4
		c0-2.4,2.1-4.5,4.6-4.6c2.6,0,4.7,2,4.7,4.6l0,3.9h-1.5L387.8,323z"/>
	<path class="st11" d="M390.6,336.7L390.6,336.7c-3.4,0-6.2-2.8-6.2-6.2v-4.6c0-0.9,0.7-1.5,1.5-1.5h9.3c0.9,0,1.5,0.7,1.5,1.5v4.6
		C396.8,333.9,394,336.7,390.6,336.7z"/>
	<path class="st12" d="M391.8,329.1c0-0.7-0.6-1.2-1.2-1.2s-1.2,0.6-1.2,1.2c0,0.4,0.2,0.7,0.5,1v2.7h1.5v-2.7
		C391.6,329.9,391.8,329.5,391.8,329.1z"/>
</g>
<g>
	<path class="st13" d="M387.8,298c0-1.7-1.4-3.1-3.1-3.1c-1.7,0-3.1,1.3-3.1,3.1l0,1l-0.5,0.5l0.5,0.5l0,0.2l-1.5,0l0-2.4
		c0-2.4,2.1-4.5,4.6-4.6c2.6,0,4.7,2,4.7,4.6l0,3.9h-1.5L387.8,298z"/>
	<path class="st13" d="M390.6,311.7L390.6,311.7c-3.4,0-6.2-2.8-6.2-6.2v-4.6c0-0.9,0.7-1.5,1.5-1.5h9.3c0.9,0,1.5,0.7,1.5,1.5v4.6
		C396.8,308.9,394,311.7,390.6,311.7z"/>
	<path class="st14" d="M391.8,304.2c0-0.7-0.6-1.2-1.2-1.2s-1.2,0.6-1.2,1.2c0,0.4,0.2,0.7,0.5,1v2.7h1.5v-2.7
		C391.6,304.9,391.8,304.6,391.8,304.2z"/>
</g>
<g>
	<g>
		<line class="st27" x1="206.3" y1="182.4" x2="221.6" y2="182.4"/>
		<g>
			<path class="st8" d="M225.3,182.4c-1.7,0.6-3.8,1.7-5.1,2.9l1-2.9l-1-2.9C221.4,180.7,223.6,181.8,225.3,182.4z"/>
		</g>
	</g>
</g>
<g>
	<g>
		<line class="st28" x1="356.7" y1="156.3" x2="373.1" y2="156.3"/>
		<g>
			<path class="st9" d="M376.7,156.3c-1.7,0.6-3.8,1.7-5.1,2.9l1-2.9l-1-2.9C372.9,154.6,375,155.7,376.7,156.3z"/>
		</g>
	</g>
</g>
<g>
	<g>
		<line class="st29" x1="508.7" y1="130.4" x2="522.3" y2="130.4"/>
		<g>
			<path class="st10" d="M525.9,130.4c-1.7,0.6-3.8,1.7-5.1,2.9l1-2.9l-1-2.9C522.1,128.7,524.2,129.7,525.9,130.4z"/>
		</g>
	</g>
</g>
</svg>
